<?xml version="1.0" encoding="UTF-8" standalone="no"?>
<!-- Created with Inkscape (http://www.inkscape.org/) -->

<svg
   xmlns:dc="http://purl.org/dc/elements/1.1/"
   xmlns:cc="http://creativecommons.org/ns#"
   xmlns:rdf="http://www.w3.org/1999/02/22-rdf-syntax-ns#"
   xmlns:svg="http://www.w3.org/2000/svg"
   xmlns="http://www.w3.org/2000/svg"
   xmlns:sodipodi="http://sodipodi.sourceforge.net/DTD/sodipodi-0.dtd"
   xmlns:inkscape="http://www.inkscape.org/namespaces/inkscape"
   width="106.35927"
   height="67.103004"
   id="svg5939"
   version="1.1"
   inkscape:version="0.48.3.1 r9886"
   sodipodi:docname="Documento nuevo 46">
  <defs
     id="defs5941">
    <inkscape:path-effect
       effect="skeletal"
       id="path-effect4225"
       is_visible="true"
       pattern="m 68.571429,16.428571 c 0,-2.76 2.24,-5 5,-5 2.76,0 5,2.24 5,5 0,2.76 -2.24,5 -5,5 -2.76,0 -5,-2.24 -5,-5 z"
       copytype="single_stretched"
       prop_scale="1"
       scale_y_rel="false"
       spacing="0"
       normal_offset="0"
       tang_offset="0"
       prop_units="false"
       vertical_pattern="false"
       fuse_tolerance="0" />
    <inkscape:path-effect
       effect="skeletal"
       id="path-effect4229"
       is_visible="true"
       pattern="m 68.571429,16.428571 c 0,-2.76 2.24,-5 5,-5 2.76,0 5,2.24 5,5 0,2.76 -2.24,5 -5,5 -2.76,0 -5,-2.24 -5,-5 z"
       copytype="single_stretched"
       prop_scale="1"
       scale_y_rel="false"
       spacing="0"
       normal_offset="0"
       tang_offset="0"
       prop_units="false"
       vertical_pattern="false"
       fuse_tolerance="0" />
    <inkscape:path-effect
       effect="skeletal"
       id="path-effect4233"
       is_visible="true"
       pattern="m 68.571429,16.428571 c 0,-2.76 2.24,-5 5,-5 2.76,0 5,2.24 5,5 0,2.76 -2.24,5 -5,5 -2.76,0 -5,-2.24 -5,-5 z"
       copytype="single_stretched"
       prop_scale="1"
       scale_y_rel="false"
       spacing="0"
       normal_offset="0"
       tang_offset="0"
       prop_units="false"
       vertical_pattern="false"
       fuse_tolerance="0" />
  </defs>
  <sodipodi:namedview
     id="base"
     pagecolor="#ffffff"
     bordercolor="#666666"
     borderopacity="1.0"
     inkscape:pageopacity="0.0"
     inkscape:pageshadow="2"
     inkscape:zoom="0.35"
     inkscape:cx="100.32247"
     inkscape:cy="-103.59138"
     inkscape:document-units="px"
     inkscape:current-layer="layer1"
     showgrid="false"
     fit-margin-top="0"
     fit-margin-left="0"
     fit-margin-right="0"
     fit-margin-bottom="0"
     inkscape:window-width="560"
     inkscape:window-height="453"
     inkscape:window-x="3"
     inkscape:window-y="47"
     inkscape:window-maximized="0" />
  <metadata
     id="metadata5944">
    <rdf:RDF>
      <cc:Work
         rdf:about="">
        <dc:format>image/svg+xml</dc:format>
        <dc:type
           rdf:resource="http://purl.org/dc/dcmitype/StillImage" />
        <dc:title></dc:title>
      </cc:Work>
    </rdf:RDF>
  </metadata>
  <g
     inkscape:label="Capa 1"
     inkscape:groupmode="layer"
     id="layer1"
     transform="translate(-249.67753,-361.6678)">
    <g
       transform="translate(-1049.5423,-2345.2575)"
       style="display:inline"
       id="g5917">
      <path
         inkscape:connector-curvature="0"
         inkscape:original-d="m 1299.2198,2727.8894 c 0,0 25.9196,0 39.3261,2.6813 13.4067,2.6813 25.0257,-4.4689 37.5386,-4.4689 12.5128,0 29.4946,0.8938 29.4946,0.8938"
         inkscape:path-effect="#path-effect4225"
         id="path4223"
         d="m 1299.2198,2727.8894 c 10e-5,-0.046 0.01,-0.093 0.021,-0.1391 0.013,-0.044 0.032,-0.088 0.058,-0.1324 0.05,-0.087 0.1251,-0.174 0.2234,-0.2599 0,0 0,0 0,0 0,0 0,0 0,0 0.1943,-0.1697 0.4812,-0.3362 0.8555,-0.4983 0,0 0,0 0,0 0.7284,-0.3156 1.7899,-0.6149 3.1486,-0.8882 0,0 0,0 0,0 2.5314,-0.5093 6.1004,-0.9323 10.4867,-1.1799 0,0 0,0 0,0 3.7957,-0.2147 8.2153,-0.3045 13.1221,-0.1267 0,0 0,0 0,0 3.7756,0.1313 7.9237,0.4028 12.3578,1.174 3.6244,0.6893 7.7128,0.3892 12.1547,-0.3827 1.6161,-0.2809 3.2404,-0.613 4.8587,-0.9573 3.1603,-0.7413 6.4137,-1.54 9.7025,-2.0965 3.2888,-0.5565 6.6118,-0.8691 9.8763,-0.7699 0,0 0,0 0,0 7.845,0.3645 14.5236,1.1526 19.5347,1.9973 0,0 0,0 0,0 3.0407,0.5121 5.472,1.0596 7.1709,1.6091 0,0 0,0 0,0 0.9008,0.2914 1.596,0.5835 2.067,0.8722 0,0 0,0 0,0 0.2412,0.1478 0.4236,0.2947 0.5449,0.4401 0,0 0,0 0,0 0,0 0,0 0,0 0.061,0.073 0.1069,0.1467 0.1366,0.2194 0,0 0,0 0,0 0,0 0,0 0,0 0.011,0.1079 0.021,0.1643 0.028,0.1935 0.01,0.029 0.011,0.031 0.012,0.032 0,0 0,0 0,0 0,0 0,0 0,0 0,0 0,0 0,0 0,0 0,0 0,0 0,0 0,0 0,0 0,0 0,0 0,0 0,0 0,0 0,0 0,0 0,0 0,0 0,0 0,0 0,0 0,0 0,0 0,0 0,0 0,0 0,0 0,0 0,0 0,0 0,0 0,0 0,0 0,0 0,0 0,0 0,0 0,0 0,0 0,0 0,0 0,0 0,0 0,0 0,0 0,0 0,0 0,0 0,0 0,0 0,0 0,0 0,0 0,0 0,0 0,0 0,0 0,0 0,0 0,0 -8e-4,2e-4 -0.01,0 -0.015,0.03 -0.01,0.028 -0.026,0.083 -0.048,0.1896 0,0 0,0 0,0 0,0 0,0 0,0 -0.037,0.069 -0.09,0.1373 -0.158,0.2041 0,0 0,0 0,0 0,0 0,0 0,0 -0.1352,0.1323 -0.3309,0.2599 -0.5848,0.383 0,0 0,0 0,0 -0.496,0.2403 -1.2134,0.4632 -2.1339,0.6692 0,0 0,0 0,0 -1.7363,0.3886 -4.1931,0.7169 -7.2439,0.9947 0,0 0,0 0,0 -5.0372,0.4585 -11.6824,0.7404 -19.3103,1.1049 0,0 0,0 0,0 -2.477,0.099 -5.12,0.5695 -7.9848,1.2489 -2.8648,0.6795 -5.9528,1.5666 -9.3047,2.3646 -1.7409,0.4497 -3.5616,0.8558 -5.4511,1.1756 -5.1933,0.8789 -10.5822,1.0103 -15.7444,-0.058 -3.789,-0.8734 -7.5958,-1.4086 -11.2267,-1.9248 0,0 0,0 0,0 -4.6662,-0.659 -8.9405,-1.1957 -12.6429,-1.7189 0,0 0,0 0,0 -4.2751,-0.6039 -7.7753,-1.178 -10.2666,-1.7672 0,0 0,0 0,0 -1.3371,-0.3163 -2.3821,-0.6359 -3.101,-0.9618 0,0 0,0 0,0 -0.3695,-0.1675 -0.6523,-0.3366 -0.8443,-0.5076 0,0 0,0 0,0 0,0 0,0 0,0 -0.097,-0.087 -0.1712,-0.1736 -0.2211,-0.2612 -0.025,-0.044 -0.044,-0.088 -0.057,-0.1325 -0.013,-0.046 -0.02,-0.093 -0.02,-0.1391 z"
         style="fill:#000000;fill-rule:evenodd;stroke:none" />
      <path
         inkscape:connector-curvature="0"
         inkscape:original-d="m 1317.9891,2709.1201 c 0,0 23.2382,7.1502 40.2199,2.6813"
         inkscape:path-effect="#path-effect4229"
         id="path4227"
         d="m 1317.9891,2709.1201 c 0.4761,-2.1696 6.6155,-2.7506 14.6316,-1.6542 0,0 0,0 0,0 1.9079,0.1203 3.9178,0.2961 5.9762,0.4967 2.6439,0.2577 5.1181,0.5254 7.3627,0.7691 2.2445,0.2436 4.2622,0.4629 5.9983,0.6981 1.7362,0.2352 3.1937,0.4897 4.2782,0.8554 1.0846,0.3656 1.7973,0.8489 1.9729,1.5162 0.1756,0.6673 -0.2119,1.4577 -1.1353,2.271 -0.9233,0.8133 -2.3846,1.6431 -4.2912,2.3336 -1.9066,0.6905 -4.2575,1.2366 -6.8874,1.5158 -2.6299,0.2793 -5.5354,0.2896 -8.5139,-0 -2.3189,-0.2289 -4.5093,-0.6207 -6.5074,-1.105 0,0 0,0 0,0 -7.9465,-2.4063 -13.3608,-5.5226 -12.8847,-7.6922 z"
         style="fill:#000000;fill-rule:evenodd;stroke:none" />
      <path
         inkscape:connector-curvature="0"
         inkscape:original-d="m 1321.5643,2758.2778 c 0,0 15.1941,11.619 29.4945,10.7253 14.3004,-0.8938 29.4946,-16.9818 29.4946,-16.9818"
         inkscape:path-effect="#path-effect4233"
         id="path4231"
         d="m 1321.5643,2758.2778 c 0.7632,-1.2573 5.0597,-0.1963 11.1909,2.4598 0,0 0,0 0,0 2.6601,0.8747 5.6722,1.8269 8.9281,2.4841 2.9484,0.5992 6.0491,1.0365 9.0639,0.7953 0.3465,-0.018 0.6969,-0.049 1.0512,-0.092 2.6173,-0.3156 5.2718,-1.2404 7.841,-2.2677 3.3908,-1.3937 6.4726,-3.0844 9.1985,-4.6049 0,0 0,0 0,0 3.0488,-1.7067 5.5973,-3.2058 7.5644,-4.1633 0,0 0,0 0,0 1.044,-0.5083 1.9178,-0.8611 2.6105,-1.0241 0,0 0,0 0,0 0.3546,-0.084 0.6601,-0.1156 0.9158,-0.093 0,0 0,0 0,0 0,0 0,0 0,0 0.1286,0.012 0.2445,0.038 0.3477,0.078 0,0 0,0 0,0 0,0 0,0 0,0 0.1269,0.091 0.1962,0.1342 0.2336,0.1544 0,0 0,0 0,0 0.037,0.02 0.043,0.017 0.043,0.017 0,0 0,0 0,0 0,0 0,0 0,0 0,0 0,0 0,0 0,0 0,0 0,0 0,0 0,0 0,0 0,0 0,0 0,0 0,0 0,0 0,0 0,0 0,0 0,0 0,0 0,0 0,0 0,0 0,0 0,0 0,0 0,0 0,0 0,0 0,0 0,0 0,0 0,0 0,0 0,0 0,0 0,0 0,0 0,0 0,0 0,0 0,0 0,0 0,0 0,0 0,0 0,0 0,0 0,0 0,0 0,0 0,0 0,0 0,0 0,0 0,0 0,0 0,0 0,0 0,0 0,0 -4e-4,7e-4 -0,0.01 0.019,0.043 0,0 0,0 0,0 0.022,0.036 0.069,0.1034 0.1657,0.2255 0,0 0,0 0,0 0,0 0,0 0,0 0.044,0.1022 0.072,0.2196 0.084,0.3513 0,0 0,0 0,0 0,0 0,0 0,0 0.025,0.2592 -0.01,0.574 -0.1038,0.9371 0,0 0,0 0,0 -0.1835,0.7094 -0.5966,1.6101 -1.2313,2.6519 0,0 0,0 0,0 -1.1952,1.9625 -3.1922,4.4561 -6.0127,7.0907 0,0 0,0 0,0 -2.5118,2.3538 -5.7243,4.8533 -9.7286,6.975 -3.0028,1.6214 -6.6021,2.9984 -10.7009,3.5284 -0.5548,0.072 -1.1133,0.1271 -1.6744,0.1654 -4.5369,0.2308 -8.685,-0.5848 -12.2011,-1.7973 -4.0215,-1.3823 -7.3587,-3.1906 -9.9974,-4.9637 0,0 0,0 0,0 -5.4101,-4.3492 -8.3707,-7.6931 -7.6076,-8.9504 z"
         style="fill:#000000;fill-rule:evenodd;stroke:none" />
    </g>
  </g>
</svg>
