<?xml version="1.0" encoding="UTF-8" standalone="no"?>
<!-- Created with Inkscape (http://www.inkscape.org/) -->

<svg
   xmlns:dc="http://purl.org/dc/elements/1.1/"
   xmlns:cc="http://creativecommons.org/ns#"
   xmlns:rdf="http://www.w3.org/1999/02/22-rdf-syntax-ns#"
   xmlns:svg="http://www.w3.org/2000/svg"
   xmlns="http://www.w3.org/2000/svg"
   xmlns:sodipodi="http://sodipodi.sourceforge.net/DTD/sodipodi-0.dtd"
   xmlns:inkscape="http://www.inkscape.org/namespaces/inkscape"
   width="178.35912"
   height="112.46384"
   id="svg10006"
   version="1.1"
   inkscape:version="0.48.3.1 r9886"
   sodipodi:docname="boca_risa_dientes.svg">
  <defs
     id="defs10008">
    <inkscape:path-effect
       effect="skeletal"
       id="path-effect3163"
       is_visible="true"
       pattern="m 318.85933,339.14547 c 0,-2.76 2.24,-5 5,-5 2.76,0 5,2.24 5,5 0,2.76 -2.24,5 -5,5 -2.76,0 -5,-2.24 -5,-5 z"
       copytype="single_stretched"
       prop_scale="0.5"
       scale_y_rel="false"
       spacing="0"
       normal_offset="0"
       tang_offset="0"
       prop_units="false"
       vertical_pattern="false"
       fuse_tolerance="0" />
    <inkscape:path-effect
       effect="skeletal"
       id="path-effect3159"
       is_visible="true"
       pattern="m 321.38471,333.08456 c 0,-2.76 2.24,-5 5,-5 2.76,0 5,2.24 5,5 0,2.76 -2.24,5 -5,5 -2.76,0 -5,-2.24 -5,-5 z"
       copytype="single_stretched"
       prop_scale="0.5"
       scale_y_rel="false"
       spacing="0"
       normal_offset="0"
       tang_offset="0"
       prop_units="false"
       vertical_pattern="false"
       fuse_tolerance="0" />
    <inkscape:path-effect
       effect="skeletal"
       id="path-effect3155"
       is_visible="true"
       pattern="m 316.33395,334.59978 c 0,-2.76 2.24,-5 5,-5 2.76,0 5,2.24 5,5 0,2.76 -2.24,5 -5,5 -2.76,0 -5,-2.24 -5,-5 z"
       copytype="single_stretched"
       prop_scale="0.5"
       scale_y_rel="false"
       spacing="0"
       normal_offset="0"
       tang_offset="0"
       prop_units="false"
       vertical_pattern="false"
       fuse_tolerance="0" />
    <inkscape:path-effect
       effect="skeletal"
       id="path-effect3151"
       is_visible="true"
       pattern="m 314.81872,342.68101 c 0,-2.76 2.24,-5 5,-5 2.76,0 5,2.24 5,5 0,2.76 -2.24,5 -5,5 -2.76,0 -5,-2.24 -5,-5 z"
       copytype="single_stretched"
       prop_scale="0.5"
       scale_y_rel="false"
       spacing="0"
       normal_offset="0"
       tang_offset="0"
       prop_units="false"
       vertical_pattern="false"
       fuse_tolerance="0" />
    <inkscape:path-effect
       effect="skeletal"
       id="path-effect3111"
       is_visible="true"
       pattern="M 0,5 C 0,2.24 2.24,0 5,0 7.76,0 10,2.24 10,5 10,7.76 7.76,10 5,10 2.24,10 0,7.76 0,5 z"
       copytype="single_stretched"
       prop_scale="1"
       scale_y_rel="false"
       spacing="0"
       normal_offset="0"
       tang_offset="0"
       prop_units="false"
       vertical_pattern="false"
       fuse_tolerance="0" />
    <inkscape:path-effect
       effect="skeletal"
       id="path-effect3107"
       is_visible="true"
       pattern="m 357.7502,350.25715 c 0,-2.76 2.24,-5 5,-5 2.76,0 5,2.24 5,5 0,2.76 -2.24,5 -5,5 -2.76,0 -5,-2.24 -5,-5 z"
       copytype="single_stretched"
       prop_scale="0.5"
       scale_y_rel="false"
       spacing="0"
       normal_offset="0"
       tang_offset="0"
       prop_units="false"
       vertical_pattern="false"
       fuse_tolerance="0" />
    <inkscape:path-effect
       effect="skeletal"
       id="path-effect3103"
       is_visible="true"
       pattern="m 357.7502,350.25715 c 0,-2.76 2.24,-5 5,-5 2.76,0 5,2.24 5,5 0,2.76 -2.24,5 -5,5 -2.76,0 -5,-2.24 -5,-5 z"
       copytype="single_stretched"
       prop_scale="0.5"
       scale_y_rel="false"
       spacing="0"
       normal_offset="0"
       tang_offset="0"
       prop_units="false"
       vertical_pattern="false"
       fuse_tolerance="0" />
    <inkscape:path-effect
       effect="skeletal"
       id="path-effect8271"
       is_visible="true"
       pattern="m 236.12243,418.00722 c 0,-2.76 2.24,-5 5,-5 2.76,0 5,2.24 5,5 0,2.76 -2.24,5 -5,5 -2.76,0 -5,-2.24 -5,-5 z"
       copytype="single_stretched"
       prop_scale="1"
       scale_y_rel="false"
       spacing="0"
       normal_offset="0"
       tang_offset="0"
       prop_units="false"
       vertical_pattern="false"
       fuse_tolerance="0" />
    <inkscape:path-effect
       effect="skeletal"
       id="path-effect8263"
       is_visible="true"
       pattern="M 0,5 C 0,2.24 2.24,0 5,0 7.76,0 10,2.24 10,5 10,7.76 7.76,10 5,10 2.24,10 0,7.76 0,5 z"
       copytype="single_stretched"
       prop_scale="1"
       scale_y_rel="false"
       spacing="0"
       normal_offset="0"
       tang_offset="0"
       prop_units="false"
       vertical_pattern="false"
       fuse_tolerance="0" />
    <inkscape:path-effect
       effect="skeletal"
       id="path-effect8267"
       is_visible="true"
       pattern="m 225.01075,425.07829 c 0,-2.76 2.24,-5 5,-5 2.76,0 5,2.24 5,5 0,2.76 -2.24,5 -5,5 -2.76,0 -5,-2.24 -5,-5 z"
       copytype="single_stretched"
       prop_scale="1"
       scale_y_rel="false"
       spacing="0"
       normal_offset="0"
       tang_offset="0"
       prop_units="false"
       vertical_pattern="false"
       fuse_tolerance="0" />
    <inkscape:path-effect
       effect="skeletal"
       id="path-effect8275"
       is_visible="true"
       pattern="M 0,5 C 0,2.24 2.24,0 5,0 7.76,0 10,2.24 10,5 10,7.76 7.76,10 5,10 2.24,10 0,7.76 0,5 z"
       copytype="single_stretched"
       prop_scale="1"
       scale_y_rel="false"
       spacing="0"
       normal_offset="0"
       tang_offset="0"
       prop_units="false"
       vertical_pattern="false"
       fuse_tolerance="0" />
    <inkscape:path-effect
       effect="skeletal"
       id="path-effect8934-4"
       is_visible="true"
       pattern="m 523.0306,976.42002 c 0,-2.76 2.24,-5 5,-5 2.76,0 5,2.24 5,5 0,2.76 -2.24,5 -5,5 -2.76,0 -5,-2.24 -5,-5 z"
       copytype="single_stretched"
       prop_scale="0.2"
       scale_y_rel="false"
       spacing="0"
       normal_offset="0"
       tang_offset="0"
       prop_units="false"
       vertical_pattern="false"
       fuse_tolerance="0" />
    <inkscape:path-effect
       effect="skeletal"
       id="path-effect8938-2"
       is_visible="true"
       pattern="m 524.79836,990.81469 c 0,-2.76 2.24,-5 5,-5 2.76,0 5,2.24 5,5 0,2.76 -2.24,5 -5,5 -2.76,0 -5,-2.24 -5,-5 z"
       copytype="single_stretched"
       prop_scale="0.3"
       scale_y_rel="false"
       spacing="0"
       normal_offset="0"
       tang_offset="0"
       prop_units="false"
       vertical_pattern="false"
       fuse_tolerance="0" />
    <inkscape:path-effect
       effect="skeletal"
       id="path-effect8942-85"
       is_visible="true"
       pattern="m 526.56613,985.76393 c 0,-2.76 2.24,-5 5,-5 2.76,0 5,2.24 5,5 0,2.76 -2.24,5 -5,5 -2.76,0 -5,-2.24 -5,-5 z"
       copytype="single_stretched"
       prop_scale="0.3"
       scale_y_rel="false"
       spacing="0"
       normal_offset="0"
       tang_offset="0"
       prop_units="false"
       vertical_pattern="false"
       fuse_tolerance="0" />
    <inkscape:path-effect
       effect="skeletal"
       id="path-effect8942-2-0"
       is_visible="true"
       pattern="m 522.52885,900.76662 c 0,-2.76 2.24,-5 5,-5 2.76,0 5,2.24 5,5 0,2.76 -2.24,5 -5,5 -2.76,0 -5,-2.24 -5,-5 z"
       copytype="single_stretched"
       prop_scale="0.3"
       scale_y_rel="false"
       spacing="0"
       normal_offset="0"
       tang_offset="0"
       prop_units="false"
       vertical_pattern="false"
       fuse_tolerance="0" />
    <inkscape:path-effect
       effect="skeletal"
       id="path-effect8934-4-6"
       is_visible="true"
       pattern="m 523.0306,976.42002 c 0,-2.76 2.24,-5 5,-5 2.76,0 5,2.24 5,5 0,2.76 -2.24,5 -5,5 -2.76,0 -5,-2.24 -5,-5 z"
       copytype="single_stretched"
       prop_scale="0.2"
       scale_y_rel="false"
       spacing="0"
       normal_offset="0"
       tang_offset="0"
       prop_units="false"
       vertical_pattern="false"
       fuse_tolerance="0" />
    <inkscape:path-effect
       effect="skeletal"
       id="path-effect8938-2-8"
       is_visible="true"
       pattern="m 524.79836,990.81469 c 0,-2.76 2.24,-5 5,-5 2.76,0 5,2.24 5,5 0,2.76 -2.24,5 -5,5 -2.76,0 -5,-2.24 -5,-5 z"
       copytype="single_stretched"
       prop_scale="0.3"
       scale_y_rel="false"
       spacing="0"
       normal_offset="0"
       tang_offset="0"
       prop_units="false"
       vertical_pattern="false"
       fuse_tolerance="0" />
    <inkscape:path-effect
       effect="skeletal"
       id="path-effect8942-85-2"
       is_visible="true"
       pattern="m 526.56613,985.76393 c 0,-2.76 2.24,-5 5,-5 2.76,0 5,2.24 5,5 0,2.76 -2.24,5 -5,5 -2.76,0 -5,-2.24 -5,-5 z"
       copytype="single_stretched"
       prop_scale="0.3"
       scale_y_rel="false"
       spacing="0"
       normal_offset="0"
       tang_offset="0"
       prop_units="false"
       vertical_pattern="false"
       fuse_tolerance="0" />
    <inkscape:path-effect
       effect="skeletal"
       id="path-effect8942-2-0-9"
       is_visible="true"
       pattern="m 522.52885,900.76662 c 0,-2.76 2.24,-5 5,-5 2.76,0 5,2.24 5,5 0,2.76 -2.24,5 -5,5 -2.76,0 -5,-2.24 -5,-5 z"
       copytype="single_stretched"
       prop_scale="0.3"
       scale_y_rel="false"
       spacing="0"
       normal_offset="0"
       tang_offset="0"
       prop_units="false"
       vertical_pattern="false"
       fuse_tolerance="0" />
    <inkscape:path-effect
       effect="skeletal"
       id="path-effect8934"
       is_visible="true"
       pattern="m 231.32421,416.23945 c 0,-2.76 2.24,-5 5,-5 2.76,0 5,2.24 5,5 0,2.76 -2.24,5 -5,5 -2.76,0 -5,-2.24 -5,-5 z"
       copytype="single_stretched"
       prop_scale="0.2"
       scale_y_rel="false"
       spacing="0"
       normal_offset="0"
       tang_offset="0"
       prop_units="false"
       vertical_pattern="false"
       fuse_tolerance="0" />
    <inkscape:path-effect
       effect="skeletal"
       id="path-effect8938"
       is_visible="true"
       pattern="m 233.09197,430.63412 c 0,-2.76 2.24,-5 5,-5 2.76,0 5,2.24 5,5 0,2.76 -2.24,5 -5,5 -2.76,0 -5,-2.24 -5,-5 z"
       copytype="single_stretched"
       prop_scale="0.3"
       scale_y_rel="false"
       spacing="0"
       normal_offset="0"
       tang_offset="0"
       prop_units="false"
       vertical_pattern="false"
       fuse_tolerance="0" />
    <inkscape:path-effect
       effect="skeletal"
       id="path-effect8942"
       is_visible="true"
       pattern="m 234.85974,425.58336 c 0,-2.76 2.24,-5 5,-5 2.76,0 5,2.24 5,5 0,2.76 -2.24,5 -5,5 -2.76,0 -5,-2.24 -5,-5 z"
       copytype="single_stretched"
       prop_scale="0.3"
       scale_y_rel="false"
       spacing="0"
       normal_offset="0"
       tang_offset="0"
       prop_units="false"
       vertical_pattern="false"
       fuse_tolerance="0" />
    <inkscape:path-effect
       effect="skeletal"
       id="path-effect8942-2"
       is_visible="true"
       pattern="m 230.82246,340.58605 c 0,-2.76 2.24,-5 5,-5 2.76,0 5,2.24 5,5 0,2.76 -2.24,5 -5,5 -2.76,0 -5,-2.24 -5,-5 z"
       copytype="single_stretched"
       prop_scale="0.3"
       scale_y_rel="false"
       spacing="0"
       normal_offset="0"
       tang_offset="0"
       prop_units="false"
       vertical_pattern="false"
       fuse_tolerance="0" />
    <inkscape:path-effect
       effect="skeletal"
       id="path-effect8934-9"
       is_visible="true"
       pattern="m 231.32421,416.23945 c 0,-2.76 2.24,-5 5,-5 2.76,0 5,2.24 5,5 0,2.76 -2.24,5 -5,5 -2.76,0 -5,-2.24 -5,-5 z"
       copytype="single_stretched"
       prop_scale="0.2"
       scale_y_rel="false"
       spacing="0"
       normal_offset="0"
       tang_offset="0"
       prop_units="false"
       vertical_pattern="false"
       fuse_tolerance="0" />
    <inkscape:path-effect
       effect="skeletal"
       id="path-effect8938-6"
       is_visible="true"
       pattern="m 233.09197,430.63412 c 0,-2.76 2.24,-5 5,-5 2.76,0 5,2.24 5,5 0,2.76 -2.24,5 -5,5 -2.76,0 -5,-2.24 -5,-5 z"
       copytype="single_stretched"
       prop_scale="0.3"
       scale_y_rel="false"
       spacing="0"
       normal_offset="0"
       tang_offset="0"
       prop_units="false"
       vertical_pattern="false"
       fuse_tolerance="0" />
    <inkscape:path-effect
       effect="skeletal"
       id="path-effect8942-8"
       is_visible="true"
       pattern="m 234.85974,425.58336 c 0,-2.76 2.24,-5 5,-5 2.76,0 5,2.24 5,5 0,2.76 -2.24,5 -5,5 -2.76,0 -5,-2.24 -5,-5 z"
       copytype="single_stretched"
       prop_scale="0.3"
       scale_y_rel="false"
       spacing="0"
       normal_offset="0"
       tang_offset="0"
       prop_units="false"
       vertical_pattern="false"
       fuse_tolerance="0" />
    <inkscape:path-effect
       effect="skeletal"
       id="path-effect8942-2-6"
       is_visible="true"
       pattern="m 230.82246,340.58605 c 0,-2.76 2.24,-5 5,-5 2.76,0 5,2.24 5,5 0,2.76 -2.24,5 -5,5 -2.76,0 -5,-2.24 -5,-5 z"
       copytype="single_stretched"
       prop_scale="0.3"
       scale_y_rel="false"
       spacing="0"
       normal_offset="0"
       tang_offset="0"
       prop_units="false"
       vertical_pattern="false"
       fuse_tolerance="0" />
    <inkscape:path-effect
       effect="skeletal"
       id="path-effect9110"
       is_visible="true"
       pattern="M 0,5 C 0,2.24 2.24,0 5,0 7.76,0 10,2.24 10,5 10,7.76 7.76,10 5,10 2.24,10 0,7.76 0,5 z"
       copytype="single_stretched"
       prop_scale="0.3"
       scale_y_rel="false"
       spacing="0"
       normal_offset="0"
       tang_offset="0"
       prop_units="false"
       vertical_pattern="false"
       fuse_tolerance="0" />
    <inkscape:path-effect
       effect="skeletal"
       id="path-effect9110-4"
       is_visible="true"
       pattern="M 0,5 C 0,2.24 2.24,0 5,0 7.76,0 10,2.24 10,5 10,7.76 7.76,10 5,10 2.24,10 0,7.76 0,5 z"
       copytype="single_stretched"
       prop_scale="0.3"
       scale_y_rel="false"
       spacing="0"
       normal_offset="0"
       tang_offset="0"
       prop_units="false"
       vertical_pattern="false"
       fuse_tolerance="0" />
    <inkscape:path-effect
       effect="skeletal"
       id="path-effect8934-7"
       is_visible="true"
       pattern="m 453.33008,997.63322 c 0,-2.76 2.24,-5 5,-5 2.76,0 5,2.24 5,5 0,2.75998 -2.24,4.99998 -5,4.99998 -2.76,0 -5,-2.24 -5,-4.99998 z"
       copytype="single_stretched"
       prop_scale="0.2"
       scale_y_rel="false"
       spacing="0"
       normal_offset="0"
       tang_offset="0"
       prop_units="false"
       vertical_pattern="false"
       fuse_tolerance="0" />
    <inkscape:path-effect
       effect="skeletal"
       id="path-effect8938-3"
       is_visible="true"
       pattern="m 455.09784,1012.0279 c 0,-2.76 2.24,-5 5,-5 2.76,0 5,2.24 5,5 0,2.76 -2.24,5 -5,5 -2.76,0 -5,-2.24 -5,-5 z"
       copytype="single_stretched"
       prop_scale="0.3"
       scale_y_rel="false"
       spacing="0"
       normal_offset="0"
       tang_offset="0"
       prop_units="false"
       vertical_pattern="false"
       fuse_tolerance="0" />
    <inkscape:path-effect
       effect="skeletal"
       id="path-effect8942-1"
       is_visible="true"
       pattern="m 456.86561,1006.9771 c 0,-2.76 2.24,-5 5,-5 2.76,0 5,2.24 5,5 0,2.76 -2.24,5 -5,5 -2.76,0 -5,-2.24 -5,-5 z"
       copytype="single_stretched"
       prop_scale="0.3"
       scale_y_rel="false"
       spacing="0"
       normal_offset="0"
       tang_offset="0"
       prop_units="false"
       vertical_pattern="false"
       fuse_tolerance="0" />
    <inkscape:path-effect
       effect="skeletal"
       id="path-effect8942-2-62"
       is_visible="true"
       pattern="m 452.82833,921.97982 c 0,-2.76 2.24,-5 5,-5 2.76,0 5,2.24 5,5 0,2.76 -2.24,5 -5,5 -2.76,0 -5,-2.24 -5,-5 z"
       copytype="single_stretched"
       prop_scale="0.3"
       scale_y_rel="false"
       spacing="0"
       normal_offset="0"
       tang_offset="0"
       prop_units="false"
       vertical_pattern="false"
       fuse_tolerance="0" />
    <inkscape:path-effect
       effect="skeletal"
       id="path-effect8934-7-7"
       is_visible="true"
       pattern="m 453.33008,997.63322 c 0,-2.76 2.24,-5 5,-5 2.76,0 5,2.24 5,5 0,2.75998 -2.24,4.99998 -5,4.99998 -2.76,0 -5,-2.24 -5,-4.99998 z"
       copytype="single_stretched"
       prop_scale="0.2"
       scale_y_rel="false"
       spacing="0"
       normal_offset="0"
       tang_offset="0"
       prop_units="false"
       vertical_pattern="false"
       fuse_tolerance="0" />
    <inkscape:path-effect
       effect="skeletal"
       id="path-effect8938-3-9"
       is_visible="true"
       pattern="m 455.09784,1012.0279 c 0,-2.76 2.24,-5 5,-5 2.76,0 5,2.24 5,5 0,2.76 -2.24,5 -5,5 -2.76,0 -5,-2.24 -5,-5 z"
       copytype="single_stretched"
       prop_scale="0.3"
       scale_y_rel="false"
       spacing="0"
       normal_offset="0"
       tang_offset="0"
       prop_units="false"
       vertical_pattern="false"
       fuse_tolerance="0" />
    <inkscape:path-effect
       effect="skeletal"
       id="path-effect8942-1-3"
       is_visible="true"
       pattern="m 456.86561,1006.9771 c 0,-2.76 2.24,-5 5,-5 2.76,0 5,2.24 5,5 0,2.76 -2.24,5 -5,5 -2.76,0 -5,-2.24 -5,-5 z"
       copytype="single_stretched"
       prop_scale="0.3"
       scale_y_rel="false"
       spacing="0"
       normal_offset="0"
       tang_offset="0"
       prop_units="false"
       vertical_pattern="false"
       fuse_tolerance="0" />
    <inkscape:path-effect
       effect="skeletal"
       id="path-effect8942-2-62-0"
       is_visible="true"
       pattern="m 452.82833,921.97982 c 0,-2.76 2.24,-5 5,-5 2.76,0 5,2.24 5,5 0,2.76 -2.24,5 -5,5 -2.76,0 -5,-2.24 -5,-5 z"
       copytype="single_stretched"
       prop_scale="0.3"
       scale_y_rel="false"
       spacing="0"
       normal_offset="0"
       tang_offset="0"
       prop_units="false"
       vertical_pattern="false"
       fuse_tolerance="0" />
    <inkscape:path-effect
       effect="skeletal"
       id="path-effect8934-5"
       is_visible="true"
       pattern="m 743.42435,701.04373 c 0,-2.76 2.24,-5 5,-5 2.76,0 5,2.24 5,5 0,2.76 -2.24,5 -5,5 -2.76,0 -5,-2.24 -5,-5 z"
       copytype="single_stretched"
       prop_scale="0.2"
       scale_y_rel="false"
       spacing="0"
       normal_offset="0"
       tang_offset="0"
       prop_units="false"
       vertical_pattern="false"
       fuse_tolerance="0" />
    <inkscape:path-effect
       effect="skeletal"
       id="path-effect8938-68"
       is_visible="true"
       pattern="m 745.19211,715.4384 c 0,-2.76 2.24,-5 5,-5 2.76,0 5,2.24 5,5 0,2.76 -2.24,5 -5,5 -2.76,0 -5,-2.24 -5,-5 z"
       copytype="single_stretched"
       prop_scale="0.3"
       scale_y_rel="false"
       spacing="0"
       normal_offset="0"
       tang_offset="0"
       prop_units="false"
       vertical_pattern="false"
       fuse_tolerance="0" />
    <inkscape:path-effect
       effect="skeletal"
       id="path-effect8942-0"
       is_visible="true"
       pattern="m 746.95988,710.38764 c 0,-2.76 2.24,-5 5,-5 2.76,0 5,2.24 5,5 0,2.76 -2.24,5 -5,5 -2.76,0 -5,-2.24 -5,-5 z"
       copytype="single_stretched"
       prop_scale="0.3"
       scale_y_rel="false"
       spacing="0"
       normal_offset="0"
       tang_offset="0"
       prop_units="false"
       vertical_pattern="false"
       fuse_tolerance="0" />
    <inkscape:path-effect
       effect="skeletal"
       id="path-effect8942-2-5"
       is_visible="true"
       pattern="m 742.9226,625.39033 c 0,-2.76 2.24,-5 5,-5 2.76,0 5,2.24 5,5 0,2.76 -2.24,5 -5,5 -2.76,0 -5,-2.24 -5,-5 z"
       copytype="single_stretched"
       prop_scale="0.3"
       scale_y_rel="false"
       spacing="0"
       normal_offset="0"
       tang_offset="0"
       prop_units="false"
       vertical_pattern="false"
       fuse_tolerance="0" />
    <inkscape:path-effect
       effect="skeletal"
       id="path-effect8934-9-9"
       is_visible="true"
       pattern="m 446.6672,156.01545 c 0,-2.76 2.24,-5 5,-5 2.76,0 5,2.24 5,5 0,2.76 -2.24,5 -5,5 -2.76,0 -5,-2.24 -5,-5 z"
       copytype="single_stretched"
       prop_scale="0.2"
       scale_y_rel="false"
       spacing="0"
       normal_offset="0"
       tang_offset="0"
       prop_units="false"
       vertical_pattern="false"
       fuse_tolerance="0" />
    <inkscape:path-effect
       effect="skeletal"
       id="path-effect8938-6-5"
       is_visible="true"
       pattern="m 448.43496,170.41012 c 0,-2.76 2.24,-5 5,-5 2.76,0 5,2.24 5,5 0,2.76 -2.24,5 -5,5 -2.76,0 -5,-2.24 -5,-5 z"
       copytype="single_stretched"
       prop_scale="0.3"
       scale_y_rel="false"
       spacing="0"
       normal_offset="0"
       tang_offset="0"
       prop_units="false"
       vertical_pattern="false"
       fuse_tolerance="0" />
    <inkscape:path-effect
       effect="skeletal"
       id="path-effect8942-8-4"
       is_visible="true"
       pattern="m 450.20273,165.35936 c 0,-2.76 2.24,-5 5,-5 2.76,0 5,2.24 5,5 0,2.76 -2.24,5 -5,5 -2.76,0 -5,-2.24 -5,-5 z"
       copytype="single_stretched"
       prop_scale="0.3"
       scale_y_rel="false"
       spacing="0"
       normal_offset="0"
       tang_offset="0"
       prop_units="false"
       vertical_pattern="false"
       fuse_tolerance="0" />
    <inkscape:path-effect
       effect="skeletal"
       id="path-effect8942-2-6-45"
       is_visible="true"
       pattern="m 446.16545,80.36205 c 0,-2.76 2.24,-5 5,-5 2.76,0 5,2.24 5,5 0,2.76 -2.24,5 -5,5 -2.76,0 -5,-2.24 -5,-5 z"
       copytype="single_stretched"
       prop_scale="0.3"
       scale_y_rel="false"
       spacing="0"
       normal_offset="0"
       tang_offset="0"
       prop_units="false"
       vertical_pattern="false"
       fuse_tolerance="0" />
    <inkscape:path-effect
       effect="skeletal"
       id="path-effect9230-1"
       is_visible="true"
       pattern="M 0,5 C 0,2.24 2.24,0 5,0 7.76,0 10,2.24 10,5 10,7.76 7.76,10 5,10 2.24,10 0,7.76 0,5 z"
       copytype="single_stretched"
       prop_scale="1"
       scale_y_rel="false"
       spacing="0"
       normal_offset="0"
       tang_offset="0"
       prop_units="false"
       vertical_pattern="false"
       fuse_tolerance="0" />
    <inkscape:path-effect
       effect="skeletal"
       id="path-effect9230"
       is_visible="true"
       pattern="m 15.152288,1.9695424 c 0,-2.76 2.24,-5 5,-5 2.76,0 5,2.24 5,5 0,2.76 -2.24,5 -5,5 -2.76,0 -5,-2.24 -5,-5 z"
       copytype="single_stretched"
       prop_scale="1"
       scale_y_rel="false"
       spacing="0"
       normal_offset="0"
       tang_offset="0"
       prop_units="false"
       vertical_pattern="false"
       fuse_tolerance="0" />
  </defs>
  <sodipodi:namedview
     id="base"
     pagecolor="#ffffff"
     bordercolor="#666666"
     borderopacity="1.0"
     inkscape:pageopacity="0.0"
     inkscape:pageshadow="2"
     inkscape:zoom="2.8"
     inkscape:cx="80.488668"
     inkscape:cy="87.441896"
     inkscape:document-units="px"
     inkscape:current-layer="layer1"
     showgrid="false"
     fit-margin-top="0"
     fit-margin-left="0"
     fit-margin-right="0"
     fit-margin-bottom="0"
     inkscape:window-width="1914"
     inkscape:window-height="1030"
     inkscape:window-x="0"
     inkscape:window-y="25"
     inkscape:window-maximized="1" />
  <metadata
     id="metadata10011">
    <rdf:RDF>
      <cc:Work
         rdf:about="">
        <dc:format>image/svg+xml</dc:format>
        <dc:type
           rdf:resource="http://purl.org/dc/dcmitype/StillImage" />
        <dc:title></dc:title>
      </cc:Work>
    </rdf:RDF>
  </metadata>
  <g
     inkscape:label="Capa 1"
     inkscape:groupmode="layer"
     id="layer1"
     transform="translate(-314.15032,-334.65811)">
    <path
       style="fill:#000000;fill-rule:evenodd;stroke:none"
       d="m 408.38071,378.74097 c 0.0271,-0.47027 2.59467,-0.77171 7.34676,-0.89146 2.37604,-0.0599 5.29551,-0.0734 8.68787,-0.14531 3.39237,-0.0719 7.2577,-0.19561 11.5023,-0.66714 4.44336,-0.15204 9.34458,-0.62024 14.61537,-1.51595 5.27078,-0.89571 10.91184,-2.2218 16.79733,-3.9691 -6.43163,5.27048 -13.71561,10.45756 -21.61453,15.63195 -7.89892,5.17439 -16.41271,10.3343 -25.08952,15.87597 -10.40424,5.5146 -21.32728,11.33697 -32.52332,17.5809 -11.19604,6.24393 -22.66371,12.91103 -34.12625,20.17589 -0.49201,0.31803 -0.99353,0.6306 -1.5046,0.93624 -3.56209,2.13023 -7.54121,3.89174 -11.90797,4.8331 -3.8419,0.85742 -8.10778,0.74377 -12.23357,-0.76304 -3.8912,-1.57266 -6.98956,-4.26903 -9.0805,-7.48837 -2.49974,-3.88221 -3.81765,-8.065 -4.42415,-12.04353 -0.94559,-6.05878 -0.82374,-11.97627 -0.0966,-17.6366 0.72716,-5.66033 2.05902,-11.06345 3.60293,-16.12341 3.17389,-8.66385 6.99471,-16.69128 11.06003,-24.10478 4.06533,-7.4135 8.37465,-14.21346 12.62076,-20.43035 5.16688,3.26869 9.72542,6.54365 14.05017,9.45268 3.8297,3.35731 7.59529,6.25159 11.36619,8.48803 5.46849,3.26612 11.00035,5.3338 15.96807,6.82937 3.84117,1.15567 7.35623,1.97404 10.44306,2.62617 3.08683,0.65212 5.74628,1.13602 7.90879,1.54375 4.32501,0.81546 6.65752,1.35158 6.63137,1.80499 -0.0262,0.45341 -2.40279,0.79931 -6.87045,0.81126 -2.23383,0.006 -4.99072,-0.0786 -8.22871,-0.35589 -3.23799,-0.27729 -6.95795,-0.74535 -11.09748,-1.59065 -5.3808,-1.09907 -11.49216,-2.88251 -17.81537,-6.11734 -4.36247,-2.24762 -8.67813,-5.17153 -12.90031,-8.534 -2.94427,-3.15742 -5.71094,-6.60703 -8.57893,-9.88351 -3.21105,6.07806 -6.31572,12.61585 -9.03062,19.61618 -2.71491,7.00033 -5.03959,14.46318 -6.60935,22.39323 -1.2825,4.82722 -2.41361,9.78898 -3.01543,14.76217 -0.60182,4.97319 -0.67382,9.95755 0.23422,14.81073 0.59418,3.08962 1.45195,6.00028 3.00588,8.20058 1.18037,1.68925 2.73977,3.11271 4.43143,3.69125 1.79234,0.77357 4.18066,0.71082 6.63481,0.26491 2.92756,-0.56864 5.86831,-1.94409 8.81873,-3.67682 0.42331,-0.24861 0.84601,-0.50402 1.26807,-0.76477 11.69417,-7.39789 23.37626,-14.09974 34.76488,-20.28647 11.38861,-6.18673 22.48286,-11.86025 33.04627,-17.1496 9.72529,-3.94035 19.00746,-7.51217 27.46168,-11.23029 8.45423,-3.71812 16.08209,-7.58195 22.72967,-11.75467 -5.48654,3.08674 -10.8797,5.46666 -15.99591,7.14589 -5.11621,1.67922 -9.95573,2.66075 -14.38187,3.08537 -4.54035,0.0996 -8.53585,-0.16729 -11.98847,-0.50086 -3.45262,-0.33356 -6.36255,-0.74035 -8.71535,-1.11258 -4.70561,-0.74444 -7.19451,-1.35385 -7.16739,-1.82412 0,0 0,0 0,0 z"
       id="path9228"
       inkscape:path-effect="#path-effect9230"
       inkscape:original-d="m 408.38071,378.74097 c 20.35117,1.17372 33.99325,3.46825 58.59931,-6.99133 -23.16878,16.72788 -67.46574,34.315 -115.67806,64.84287 -34.09739,21.59034 -47.36532,-22.55831 -8.8507,-86.0591 16.29128,13.2708 24.25971,25.80431 65.92945,28.20756 z"
       inkscape:connector-curvature="0"
       sodipodi:nodetypes="scscs" />
    <path
       style="fill:#000000;fill-rule:evenodd;stroke:none"
       d="m 365.45618,369.72142 c 0,0 -16.12624,-23.87903 -22.98443,-14.065 -30.05155,43.00361 -22.55968,82.1404 -17.65238,83.33564 20.49372,4.99153 59.9178,-18.59771 59.9178,-18.59771 39.32045,-17.99753 56.19839,-23.44865 85.39286,-48.75735 0,0 -41.87186,5.08684 -55.82205,5.9486 -24.21854,1.49607 -48.8518,-7.86418 -48.8518,-7.86418 z"
       id="path9232"
       inkscape:connector-curvature="0"
       sodipodi:nodetypes="cssccsc" />
    <path
       style="fill:#000000;fill-rule:evenodd;stroke:none"
       d="m 352.93245,336.82406 c -0.0566,0.65648 -2.14109,1.07675 -5.36905,1.23434 -1.60756,0.42262 -3.41764,1.11995 -5.3296,2.21509 -1.91195,1.09514 -3.93112,2.58882 -5.98465,4.31536 -0.42493,0.35726 -0.8427,0.71632 -1.25289,1.07394 -2.25622,2.03622 -4.36938,3.8326 -6.01169,5.49333 -1.64231,1.66072 -2.82499,3.19574 -3.67577,4.47683 -0.29027,0.44532 -0.54369,0.82295 -0.74404,1.15693 -0.20036,0.33399 -0.34986,0.62468 -0.47417,0.87511 -0.11292,0.22386 -0.21118,0.39403 -0.30247,0.53272 -0.0686,0.14748 -0.17708,0.2244 -0.28347,0.27979 0,0 0,0 0,0 -0.0138,0.007 -0.0138,0.007 -0.0138,0.007 0,0 3e-5,1.2e-4 -0.014,0.006 -10e-6,0 -10e-6,0 -10e-6,0 -0.0556,0.0225 -0.12015,0.0269 -0.19238,0.003 -0.0722,-0.024 -0.15239,-0.0791 -0.21578,-0.13844 -0.15161,-0.13738 -0.30621,-0.38428 -0.41386,-0.70386 -0.11847,-0.35075 -0.196,-0.81055 -0.19515,-1.34748 8.5e-4,-0.53692 0.0824,-1.15101 0.24486,-1.77418 0.43436,-1.75162 1.40726,-3.92252 2.9671,-6.12166 1.55983,-2.19913 3.7056,-4.40916 5.99904,-6.45313 0.45091,-0.41463 0.9215,-0.8266 1.41136,-1.23181 2.36734,-1.95824 4.96117,-3.54137 7.47283,-4.55985 2.51166,-1.01848 4.93163,-1.47355 6.94065,-1.50498 3.46891,0.73505 5.49352,1.50962 5.43691,2.16611 z"
       id="path3101"
       inkscape:path-effect="#path-effect3103"
       inkscape:original-d="m 352.93254,336.8241 c 0,0 -7.82192,-3.57731 -19.59906,6.98459 -11.77716,10.5619 -9.84264,14.6754 -9.84264,14.6754"
       inkscape:connector-curvature="0" />
    <path
       style="fill:#000000;fill-rule:evenodd;stroke:none"
       d="m 481.53232,343.36804 c 0.6479,-0.74522 3.50251,0.61238 7.15992,3.28622 1.26231,1.50128 2.38063,3.45777 3.07642,5.66855 0.24337,0.77329 0.42717,1.54727 0.55528,2.30702 0,0 0,0 0,0 0.24741,1.71703 0.22816,3.32948 0.055,4.74758 -0.17316,1.4181 -0.49821,2.64281 -0.87079,3.62577 -0.74515,1.9659 -1.63832,2.96673 -2.24241,2.81408 -0.60409,-0.15265 -0.83785,-1.42345 -0.98991,-3.31151 -0.15206,-1.88806 -0.22816,-4.3902 -0.81343,-7.00832 0,0 0,0 0,0 -0.10389,-0.5403 -0.22896,-1.08782 -0.37882,-1.63721 -0.42842,-1.57065 -1.01956,-2.98558 -1.69888,-4.20421 -2.85097,-2.98461 -4.50027,-5.54276 -3.85237,-6.28797 z"
       id="path3105"
       inkscape:path-effect="#path-effect3107"
       inkscape:original-d="m 481.53226,343.36801 c 0,0 12.08029,5.24747 7.73347,22.44925"
       inkscape:connector-curvature="0" />
    <path
       style="fill:#ffffff;fill-rule:evenodd;stroke:none"
       d="m 332.33809,438.31398 c -21.05669,-28.49735 -1.60414,-67.40848 10.483,-84.97453 22.44427,19.57681 50.56022,37.21581 110.7142,24.04959 -4.8842,10.79271 -44.50176,27.72883 -65.93111,34.23959 -21.42935,6.51075 -38.4951,9.46842 -55.26609,26.68535 z"
       id="path3109-0-5"
       inkscape:connector-curvature="0"
       sodipodi:nodetypes="ccczc" />
    <path
       style="fill:#000000;fill-rule:evenodd;stroke:none"
       d="m 352.87601,369.79908 c 1.35358,0.26872 0.1103,12.28323 -2.77519,26.81812 -2.88549,14.53488 -6.3259,26.11323 -7.67948,25.84451 -1.35358,-0.26872 -0.1103,-12.28323 2.77519,-26.81812 2.88549,-14.53488 6.3259,-26.11323 7.67948,-25.84451 z"
       id="path3149"
       inkscape:path-effect="#path-effect3151"
       inkscape:original-d="m 352.87601,369.79908 -10.45467,52.66263"
       inkscape:connector-curvature="0" />
    <path
       style="fill:#000000;fill-rule:evenodd;stroke:none"
       d="m 376.6214,377.11046 c 1.37232,0.14535 1.49885,9.58472 0.28242,21.07002 -1.21644,11.48531 -3.31746,20.68876 -4.68978,20.54341 -1.37232,-0.14535 -1.49885,-9.58472 -0.28242,-21.07002 1.21644,-11.48531 3.31746,-20.68876 4.68978,-20.54341 z"
       id="path3153"
       inkscape:path-effect="#path-effect3155"
       inkscape:original-d="m 376.6214,377.11046 -4.40736,41.61343"
       inkscape:connector-curvature="0" />
    <path
       style="fill:#000000;fill-rule:evenodd;stroke:none"
       d="m 443.44801,383.62681 c 0.10184,0.73667 -7.12113,2.40968 -18.67603,4.46925 -9.95486,1.49856 -23.19245,2.83603 -37.74444,2.97588 -2.28754,0.022 -4.54451,0.0143 -6.76265,-0.0214 -7.4806,-0.11938 -14.5084,-0.008 -20.7697,0.32194 -6.2613,0.32956 -11.75782,0.87345 -16.22216,1.41677 -3.96077,0.48192 -7.08485,0.97121 -9.22,1.27807 -1.02425,0.1472 -1.81609,0.24939 -2.36503,0.28165 -0.26911,0.0158 -0.4787,0.0141 -0.62823,-0.008 -0.1468,-0.0206 -0.23602,-0.0628 -0.26311,-0.12796 0,0 0,0 0,0 0,0 0,0 0,0 0,0 0,0 0,0 0,0 0,0 0,0 0,0 0,0 0,0 -0.002,-0.004 -0.002,-0.004 -0.002,-0.004 0,0 -2e-5,10e-6 -0.002,-0.004 0,0 0,0 0,0 0,0 0,0 0,0 0,-10e-6 0,-10e-6 0,-10e-6 0,0 0,0 0,0 0,0 0,0 0,0 -0.0215,-0.0672 0.0196,-0.15615 0.12316,-0.26669 0.10561,-0.11145 0.27665,-0.24328 0.51022,-0.39114 0.47372,-0.3006 1.21004,-0.66924 2.18669,-1.07362 2.03589,-0.84295 5.142,-1.84542 9.11021,-2.77325 4.47236,-1.04561 10.05235,-2.02284 16.4325,-2.67816 6.38015,-0.65533 13.55912,-0.98425 21.16386,-0.936 2.18086,0.0132 4.3999,0.01 6.64982,-0.0116 14.31271,-0.13467 27.38708,-0.97988 37.33992,-1.68881 11.63747,-1.1466 19.03636,-1.49495 19.1382,-0.75829 z"
       id="path3161"
       inkscape:path-effect="#path-effect3163"
       inkscape:original-d="m 443.44804,383.62681 c 0,0 -29.31545,5.31724 -63.15556,4.94119 -33.51827,-0.37247 -49.49748,5.64075 -49.49748,5.64075"
       inkscape:connector-curvature="0"
       sodipodi:nodetypes="csc" />
  </g>
</svg>
