<?xml version="1.0" encoding="UTF-8" standalone="no"?>
<!-- Created with Inkscape (http://www.inkscape.org/) -->

<svg
   xmlns:dc="http://purl.org/dc/elements/1.1/"
   xmlns:cc="http://creativecommons.org/ns#"
   xmlns:rdf="http://www.w3.org/1999/02/22-rdf-syntax-ns#"
   xmlns:svg="http://www.w3.org/2000/svg"
   xmlns="http://www.w3.org/2000/svg"
   xmlns:sodipodi="http://sodipodi.sourceforge.net/DTD/sodipodi-0.dtd"
   xmlns:inkscape="http://www.inkscape.org/namespaces/inkscape"
   width="240.16899"
   height="72.140686"
   id="svg5004"
   version="1.1"
   inkscape:version="0.48.3.1 r9886"
   sodipodi:docname="boca_2.svg">
  <defs
     id="defs5006">
    <inkscape:path-effect
       effect="skeletal"
       id="path-effect5444"
       is_visible="true"
       pattern="m -13520.656,1742.8336 c 0,-2.76 2.24,-5 5,-5 2.76,0 5,2.24 5,5 0,2.76 -2.24,5 -5,5 -2.76,0 -5,-2.24 -5,-5 z"
       copytype="single_stretched"
       prop_scale="1"
       scale_y_rel="false"
       spacing="0"
       normal_offset="0"
       tang_offset="0"
       prop_units="false"
       vertical_pattern="false"
       fuse_tolerance="0" />
    <inkscape:path-effect
       effect="skeletal"
       id="path-effect5448"
       is_visible="true"
       pattern="m -13510.554,1754.9555 c 0,-2.76 2.24,-5 5,-5 2.76,0 5,2.24 5,5 0,2.76 -2.24,5 -5,5 -2.76,0 -5,-2.24 -5,-5 z"
       copytype="single_stretched"
       prop_scale="1"
       scale_y_rel="false"
       spacing="0"
       normal_offset="0"
       tang_offset="0"
       prop_units="false"
       vertical_pattern="false"
       fuse_tolerance="0" />
    <inkscape:path-effect
       effect="skeletal"
       id="path-effect5555"
       is_visible="true"
       pattern="m -13598.957,-1733.111 c 0,-2.76 2.24,-5 5,-5 2.76,0 5,2.24 5,5 0,2.76 -2.24,5 -5,5 -2.76,0 -5,-2.24 -5,-5 z"
       copytype="single_stretched"
       prop_scale="1"
       scale_y_rel="false"
       spacing="0"
       normal_offset="0"
       tang_offset="0"
       prop_units="false"
       vertical_pattern="false"
       fuse_tolerance="0" />
    <inkscape:path-effect
       effect="skeletal"
       id="path-effect5551"
       is_visible="true"
       pattern="m -13631.282,-1718.9688 c 0,-2.76 2.24,-5 5,-5 2.76,0 5,2.24 5,5 0,2.76 -2.24,5 -5,5 -2.76,0 -5,-2.24 -5,-5 z"
       copytype="single_stretched"
       prop_scale="1"
       scale_y_rel="false"
       spacing="0"
       normal_offset="0"
       tang_offset="0"
       prop_units="false"
       vertical_pattern="false"
       fuse_tolerance="0" />
    <inkscape:path-effect
       effect="skeletal"
       id="path-effect5547"
       is_visible="true"
       pattern="m -13593.754,-1701.9906 c 0,-2.76 2.24,-5 5,-5 2.76,0 5,2.24 5,5 0,2.76 -2.24,5 -5,5 -2.76,0 -5,-2.24 -5,-5 z"
       copytype="single_stretched"
       prop_scale="1"
       scale_y_rel="false"
       spacing="0"
       normal_offset="0"
       tang_offset="0"
       prop_units="false"
       vertical_pattern="false"
       fuse_tolerance="0" />
    <inkscape:path-effect
       effect="skeletal"
       id="path-effect6343"
       is_visible="true"
       pattern="m -13806.844,1881.8039 c 0,-2.76 2.24,-5 5,-5 2.76,0 5,2.24 5,5 0,2.76 -2.24,5 -5,5 -2.76,0 -5,-2.24 -5,-5 z"
       copytype="single_stretched"
       prop_scale="1"
       scale_y_rel="false"
       spacing="0"
       normal_offset="0"
       tang_offset="0"
       prop_units="false"
       vertical_pattern="false"
       fuse_tolerance="0" />
    <inkscape:path-effect
       effect="skeletal"
       id="path-effect6428"
       is_visible="true"
       pattern="m -13788.272,1894.6611 c 0,-2.76 2.24,-5 5,-5 2.76,0 5,2.24 5,5 0,2.76 -2.24,5 -5,5 -2.76,0 -5,-2.24 -5,-5 z"
       copytype="single_stretched"
       prop_scale="1"
       scale_y_rel="false"
       spacing="0"
       normal_offset="0"
       tang_offset="0"
       prop_units="false"
       vertical_pattern="false"
       fuse_tolerance="0" />
    <inkscape:path-effect
       effect="skeletal"
       id="path-effect6436"
       is_visible="true"
       pattern="m -13806.844,1881.8039 c 0,-2.76 2.24,-5 5,-5 2.76,0 5,2.24 5,5 0,2.76 -2.24,5 -5,5 -2.76,0 -5,-2.24 -5,-5 z"
       copytype="single_stretched"
       prop_scale="1"
       scale_y_rel="false"
       spacing="0"
       normal_offset="0"
       tang_offset="0"
       prop_units="false"
       vertical_pattern="false"
       fuse_tolerance="0" />
    <inkscape:path-effect
       effect="skeletal"
       id="path-effect6440"
       is_visible="true"
       pattern="m -13798.762,1910.0882 c 0,-2.76 2.24,-5 5,-5 2.76,0 5,2.24 5,5 0,2.76 -2.24,5 -5,5 -2.76,0 -5,-2.24 -5,-5 z"
       copytype="single_stretched"
       prop_scale="1"
       scale_y_rel="false"
       spacing="0"
       normal_offset="0"
       tang_offset="0"
       prop_units="false"
       vertical_pattern="false"
       fuse_tolerance="0" />
  </defs>
  <sodipodi:namedview
     id="base"
     pagecolor="#ffffff"
     bordercolor="#666666"
     borderopacity="1.0"
     inkscape:pageopacity="0.0"
     inkscape:pageshadow="2"
     inkscape:zoom="0.35"
     inkscape:cx="-0.32364899"
     inkscape:cy="-3.4078497"
     inkscape:document-units="px"
     inkscape:current-layer="layer1"
     showgrid="false"
     fit-margin-top="0"
     fit-margin-left="0"
     fit-margin-right="0"
     fit-margin-bottom="0"
     inkscape:window-width="560"
     inkscape:window-height="453"
     inkscape:window-x="6"
     inkscape:window-y="69"
     inkscape:window-maximized="0" />
  <metadata
     id="metadata5009">
    <rdf:RDF>
      <cc:Work
         rdf:about="">
        <dc:format>image/svg+xml</dc:format>
        <dc:type
           rdf:resource="http://purl.org/dc/dcmitype/StillImage" />
        <dc:title></dc:title>
      </cc:Work>
    </rdf:RDF>
  </metadata>
  <g
     inkscape:label="Capa 1"
     inkscape:groupmode="layer"
     id="layer1"
     transform="translate(-350.32366,-456.81364)">
    <g
       transform="translate(-225.08805,-3386.2186)"
       style="display:inline"
       id="g5103">
      <path
         inkscape:connector-curvature="0"
         inkscape:original-d="m 579.87223,3888.6259 c 0,0 22.75147,2.528 50.55944,0 27.80796,-2.5279 55.61528,-2.5279 83.42317,0 27.80797,2.528 50.55944,17.6959 70.78331,12.64 20.22396,-5.056 22.75212,-15.1679 22.75212,-15.1679"
         inkscape:path-effect="#path-effect6343"
         id="path6341"
         d="m 579.87227,3888.6259 c 0.003,-0.03 0.0124,-0.058 0.0276,-0.086 0.0145,-0.027 0.0344,-0.053 0.0598,-0.079 0.0506,-0.051 0.1225,-0.1 0.21561,-0.1459 0,0 0,0 0,0 0.18511,-0.092 0.45324,-0.1755 0.80253,-0.2514 0,0 0,0 0,0 0.69126,-0.1504 1.69738,-0.2721 3.00041,-0.378 0,0 0,0 0,0 2.54454,-0.2066 6.2113,-0.3523 10.84967,-0.5473 0,0 0,0 0,0 8.7216,-0.3673 20.86632,-0.8639 35.23168,-2.6062 0,0 0,0 0,0 9.51518,-1.1465 20.10364,-2.0301 31.45684,-2.4413 11.3532,-0.4112 23.47059,-0.348 36.01086,0.3359 5.70265,0.311 11.30503,0.7391 16.77579,1.2694 7.42164,0.7485 14.34475,2.3446 20.83119,4.1672 6.48644,1.8226 12.53755,3.8691 18.2089,5.7134 0,0 0,0 0,0 1e-5,0 1e-5,0 1e-5,0 5.78396,1.8556 11.13176,3.4648 16.15009,4.3351 0,0 0,0 0,0 2.63803,0.4494 5.18361,0.7176 7.58809,0.7582 2.40448,0.041 4.66813,-0.1462 6.76728,-0.5625 4.34031,-0.9029 8.16409,-1.9835 11.25718,-3.2826 3.0931,-1.2991 5.47452,-2.803 7.28105,-4.2223 0,0 0,0 0,0 1.63136,-1.2708 2.74494,-2.4188 3.5085,-3.25 0,0 0,0 0,0 0.38512,-0.4187 0.68113,-0.7434 0.91883,-0.9622 0,0 0,0 0,0 0,0 0,0 0,0 0.11916,-0.1056 0.22357,-0.1843 0.31724,-0.2353 0,0 0,0 0,0 0.12036,-0.01 0.18509,-0.022 0.21962,-0.034 0.034,-0.012 0.0388,-0.022 0.0393,-0.023 0,0 0,0 0,0 4e-5,-1e-4 3e-5,-1e-4 3e-5,-1e-4 0,0 10e-6,0 -10e-6,1e-4 0,0 0,0 0,0 -2.1e-4,0 -9.3e-4,0.013 0.0219,0.041 0.0232,0.028 0.0707,0.073 0.16692,0.1427 0,0 0,0 0,0 0.0458,0.1019 0.0752,0.2474 0.0837,0.4323 0,0 0,0 0,0 0,0 0,0 0,0 0.0197,0.3534 -0.0406,0.8592 -0.21559,1.4773 0,0 0,0 0,0 -0.34783,1.2262 -1.16981,2.956 -2.668,4.8087 0,0 0,0 0,0 -1.65377,2.0342 -4.07789,4.2688 -7.34688,6.2871 -3.26899,2.0183 -7.40029,3.8043 -12.0046,5.1375 -2.53448,0.7421 -5.26261,1.2269 -8.12272,1.4314 -2.8601,0.2045 -5.85228,0.1283 -8.8846,-0.2088 -5.70325,-0.6167 -11.6093,-2.0041 -17.58244,-3.6439 0,0 0,0 0,0 0,0 -10e-6,0 -10e-6,0 -5.85084,-1.5812 -11.9165,-3.3816 -18.15957,-4.9671 -6.24307,-1.5855 -12.66306,-2.9532 -19.27172,-3.4802 -5.36002,-0.4543 -10.84385,-0.8396 -16.42403,-1.1439 -12.27098,-0.6692 -24.12112,-0.8939 -35.24898,-0.7924 -11.12787,0.1015 -21.53311,0.5276 -30.92984,1.1003 0,0 0,0 0,0 -14.89702,0.9179 -27.32924,0.262 -36.14368,-0.7088 -4.68826,-0.516 -8.36858,-1.1359 -10.88133,-1.7312 0,0 0,0 0,0 -1.28667,-0.3048 -2.27006,-0.6039 -2.92754,-0.8821 0,0 0,0 0,0 -0.33222,-0.1406 -0.58199,-0.2759 -0.74602,-0.4041 0,0 0,0 0,0 -0.0823,-0.064 -0.14317,-0.127 -0.18217,-0.1876 -0.0195,-0.03 -0.0336,-0.06 -0.0421,-0.09 -0.009,-0.031 -0.0118,-0.061 -0.009,-0.09 z"
         style="fill:#000000;fill-rule:evenodd;stroke:none" />
      <path
         inkscape:connector-curvature="0"
         inkscape:original-d="m 655.88903,3907.4606 c 0,0 44.68842,-7.1502 60.77688,-1.7875"
         inkscape:path-effect="#path-effect6428"
         id="path6426"
         d="m 655.88905,3907.4606 c -0.28678,-2.4049 9.97873,-5.6645 23.87274,-7.7822 0,0 0,0 0,0 1.9706,-0.2321 4.02142,-0.4243 6.13197,-0.5605 5.2074,-0.3359 10.18607,-0.2765 14.55342,0.1374 0,0 0,0 0,0 3.56838,0.3392 6.78169,0.9399 9.36362,1.7189 2.33619,0.6984 4.22041,1.5788 5.39566,2.4392 1.17526,0.8605 1.65615,1.6696 1.45945,2.2597 -0.1967,0.5901 -1.02629,0.9214 -2.31544,1.166 -1.28914,0.2447 -3.04765,0.4358 -5.28465,0.6078 -2.4393,0.2011 -5.37361,0.4292 -8.73433,0.678 0,0 0,0 0,0 -4.08348,0.3036 -8.71343,0.6423 -13.67553,0.9616 -2.01114,0.1294 -3.98397,0.2472 -5.90001,0.3443 -10e-6,0 -10e-6,0 -10e-6,0 -13.89195,1.1956 -24.58012,0.4347 -24.86689,-1.9702 z"
         style="fill:#000000;fill-rule:evenodd;stroke:none" />
      <path
         inkscape:connector-curvature="0"
         inkscape:original-d="m 789.694,3843.1223 c 0,0 20.22387,31.5998 21.48771,51.8236 1.26441,20.2238 1.26441,20.2238 1.26441,20.2238"
         inkscape:path-effect="#path-effect6436"
         id="path6434"
         d="m 789.69401,3843.1223 c 1.69714,-0.9509 7.35988,5.7053 14.21599,16.2551 2.70165,4.6237 5.46207,10.1113 7.72783,16.2621 0.12333,0.3348 0.24442,0.6695 0.36322,1.0041 1.08431,3.011 1.99294,6.0841 2.61325,9.124 0.62031,3.0399 0.95138,6.0451 0.96639,8.9033 -0.0882,11.934 -1.20293,20.1688 -3.06144,20.4929 -0.0609,0.01 -0.067,0.01 -0.0708,0.01 -0.004,3e-4 -0.002,2e-4 -0.002,2e-4 0,0 0.002,-10e-5 -0.002,1e-4 -0.004,2e-4 -0.01,7e-4 -0.071,0 -1.8844,-0.09 -4.01611,-8.1219 -5.59009,-19.952 -0.30454,-2.2553 -0.83582,-4.6511 -1.56041,-7.1884 -0.72459,-2.5374 -1.64153,-5.2174 -2.6357,-8.0275 -0.10863,-0.3024 -0.2185,-0.6057 -0.32959,-0.9098 -2.04081,-5.5866 -4.26015,-10.8328 -6.22529,-15.5445 -5.3376,-11.2131 -8.03487,-19.4775 -6.33773,-20.4284 z"
         style="fill:#000000;fill-rule:evenodd;stroke:none" />
      <path
         inkscape:connector-curvature="0"
         inkscape:original-d="m 592.51144,3873.4581 c 0,0 -13.90362,15.1678 -13.90362,34.1277"
         inkscape:path-effect="#path-effect6440"
         id="path6438"
         d="m 592.51141,3873.4581 c 1.75212,1.2234 0.38596,6.3643 -3.00566,12.4558 0,0 0,0 0,0 -0.74361,1.7643 -1.5569,3.6373 -2.3862,5.5776 -0.92377,2.1612 -1.77725,4.2042 -2.54995,6.0779 -0.7727,1.8736 -1.46501,3.5796 -2.11361,5.0465 -0.64859,1.4668 -1.25648,2.6958 -1.88251,3.5716 -0.62603,0.8759 -1.27566,1.3983 -1.96566,1.3983 -0.69,0 -1.35536,-0.5314 -1.90974,-1.5539 -0.55438,-1.0224 -0.99216,-2.5368 -1.18281,-4.4293 -0.19066,-1.8925 -0.12971,-4.1617 0.2803,-6.6238 0.41001,-2.4622 1.17126,-5.1143 2.29763,-7.7366 1.01118,-2.3541 2.22514,-4.48 3.50341,-6.3022 0,0 0,0 0,0 4.73945,-5.5542 9.16269,-8.7052 10.9148,-7.4819 z"
         style="fill:#000000;fill-rule:evenodd;stroke:none" />
    </g>
  </g>
</svg>
