<?xml version="1.0" encoding="UTF-8" standalone="no"?>
<!-- Created with Inkscape (http://www.inkscape.org/) -->

<svg
   xmlns:dc="http://purl.org/dc/elements/1.1/"
   xmlns:cc="http://creativecommons.org/ns#"
   xmlns:rdf="http://www.w3.org/1999/02/22-rdf-syntax-ns#"
   xmlns:svg="http://www.w3.org/2000/svg"
   xmlns="http://www.w3.org/2000/svg"
   xmlns:sodipodi="http://sodipodi.sourceforge.net/DTD/sodipodi-0.dtd"
   xmlns:inkscape="http://www.inkscape.org/namespaces/inkscape"
   width="118.38682"
   height="74.881653"
   id="svg10006"
   version="1.1"
   inkscape:version="0.48.3.1 r9886"
   sodipodi:docname="espirales.svg">
  <defs
     id="defs10008">
    <inkscape:path-effect
       effect="skeletal"
       id="path-effect8271"
       is_visible="true"
       pattern="m 236.12243,418.00722 c 0,-2.76 2.24,-5 5,-5 2.76,0 5,2.24 5,5 0,2.76 -2.24,5 -5,5 -2.76,0 -5,-2.24 -5,-5 z"
       copytype="single_stretched"
       prop_scale="1"
       scale_y_rel="false"
       spacing="0"
       normal_offset="0"
       tang_offset="0"
       prop_units="false"
       vertical_pattern="false"
       fuse_tolerance="0" />
    <inkscape:path-effect
       effect="skeletal"
       id="path-effect8263"
       is_visible="true"
       pattern="M 0,5 C 0,2.24 2.24,0 5,0 7.76,0 10,2.24 10,5 10,7.76 7.76,10 5,10 2.24,10 0,7.76 0,5 z"
       copytype="single_stretched"
       prop_scale="1"
       scale_y_rel="false"
       spacing="0"
       normal_offset="0"
       tang_offset="0"
       prop_units="false"
       vertical_pattern="false"
       fuse_tolerance="0" />
    <inkscape:path-effect
       effect="skeletal"
       id="path-effect8267"
       is_visible="true"
       pattern="m 225.01075,425.07829 c 0,-2.76 2.24,-5 5,-5 2.76,0 5,2.24 5,5 0,2.76 -2.24,5 -5,5 -2.76,0 -5,-2.24 -5,-5 z"
       copytype="single_stretched"
       prop_scale="1"
       scale_y_rel="false"
       spacing="0"
       normal_offset="0"
       tang_offset="0"
       prop_units="false"
       vertical_pattern="false"
       fuse_tolerance="0" />
    <inkscape:path-effect
       effect="skeletal"
       id="path-effect8275"
       is_visible="true"
       pattern="M 0,5 C 0,2.24 2.24,0 5,0 7.76,0 10,2.24 10,5 10,7.76 7.76,10 5,10 2.24,10 0,7.76 0,5 z"
       copytype="single_stretched"
       prop_scale="1"
       scale_y_rel="false"
       spacing="0"
       normal_offset="0"
       tang_offset="0"
       prop_units="false"
       vertical_pattern="false"
       fuse_tolerance="0" />
    <inkscape:path-effect
       effect="skeletal"
       id="path-effect8934-4"
       is_visible="true"
       pattern="m 523.0306,976.42002 c 0,-2.76 2.24,-5 5,-5 2.76,0 5,2.24 5,5 0,2.76 -2.24,5 -5,5 -2.76,0 -5,-2.24 -5,-5 z"
       copytype="single_stretched"
       prop_scale="0.2"
       scale_y_rel="false"
       spacing="0"
       normal_offset="0"
       tang_offset="0"
       prop_units="false"
       vertical_pattern="false"
       fuse_tolerance="0" />
    <inkscape:path-effect
       effect="skeletal"
       id="path-effect8938-2"
       is_visible="true"
       pattern="m 524.79836,990.81469 c 0,-2.76 2.24,-5 5,-5 2.76,0 5,2.24 5,5 0,2.76 -2.24,5 -5,5 -2.76,0 -5,-2.24 -5,-5 z"
       copytype="single_stretched"
       prop_scale="0.3"
       scale_y_rel="false"
       spacing="0"
       normal_offset="0"
       tang_offset="0"
       prop_units="false"
       vertical_pattern="false"
       fuse_tolerance="0" />
    <inkscape:path-effect
       effect="skeletal"
       id="path-effect8942-85"
       is_visible="true"
       pattern="m 526.56613,985.76393 c 0,-2.76 2.24,-5 5,-5 2.76,0 5,2.24 5,5 0,2.76 -2.24,5 -5,5 -2.76,0 -5,-2.24 -5,-5 z"
       copytype="single_stretched"
       prop_scale="0.3"
       scale_y_rel="false"
       spacing="0"
       normal_offset="0"
       tang_offset="0"
       prop_units="false"
       vertical_pattern="false"
       fuse_tolerance="0" />
    <inkscape:path-effect
       effect="skeletal"
       id="path-effect8942-2-0"
       is_visible="true"
       pattern="m 522.52885,900.76662 c 0,-2.76 2.24,-5 5,-5 2.76,0 5,2.24 5,5 0,2.76 -2.24,5 -5,5 -2.76,0 -5,-2.24 -5,-5 z"
       copytype="single_stretched"
       prop_scale="0.3"
       scale_y_rel="false"
       spacing="0"
       normal_offset="0"
       tang_offset="0"
       prop_units="false"
       vertical_pattern="false"
       fuse_tolerance="0" />
    <inkscape:path-effect
       effect="skeletal"
       id="path-effect8934-4-6"
       is_visible="true"
       pattern="m 523.0306,976.42002 c 0,-2.76 2.24,-5 5,-5 2.76,0 5,2.24 5,5 0,2.76 -2.24,5 -5,5 -2.76,0 -5,-2.24 -5,-5 z"
       copytype="single_stretched"
       prop_scale="0.2"
       scale_y_rel="false"
       spacing="0"
       normal_offset="0"
       tang_offset="0"
       prop_units="false"
       vertical_pattern="false"
       fuse_tolerance="0" />
    <inkscape:path-effect
       effect="skeletal"
       id="path-effect8938-2-8"
       is_visible="true"
       pattern="m 524.79836,990.81469 c 0,-2.76 2.24,-5 5,-5 2.76,0 5,2.24 5,5 0,2.76 -2.24,5 -5,5 -2.76,0 -5,-2.24 -5,-5 z"
       copytype="single_stretched"
       prop_scale="0.3"
       scale_y_rel="false"
       spacing="0"
       normal_offset="0"
       tang_offset="0"
       prop_units="false"
       vertical_pattern="false"
       fuse_tolerance="0" />
    <inkscape:path-effect
       effect="skeletal"
       id="path-effect8942-85-2"
       is_visible="true"
       pattern="m 526.56613,985.76393 c 0,-2.76 2.24,-5 5,-5 2.76,0 5,2.24 5,5 0,2.76 -2.24,5 -5,5 -2.76,0 -5,-2.24 -5,-5 z"
       copytype="single_stretched"
       prop_scale="0.3"
       scale_y_rel="false"
       spacing="0"
       normal_offset="0"
       tang_offset="0"
       prop_units="false"
       vertical_pattern="false"
       fuse_tolerance="0" />
    <inkscape:path-effect
       effect="skeletal"
       id="path-effect8942-2-0-9"
       is_visible="true"
       pattern="m 522.52885,900.76662 c 0,-2.76 2.24,-5 5,-5 2.76,0 5,2.24 5,5 0,2.76 -2.24,5 -5,5 -2.76,0 -5,-2.24 -5,-5 z"
       copytype="single_stretched"
       prop_scale="0.3"
       scale_y_rel="false"
       spacing="0"
       normal_offset="0"
       tang_offset="0"
       prop_units="false"
       vertical_pattern="false"
       fuse_tolerance="0" />
    <inkscape:path-effect
       effect="skeletal"
       id="path-effect8934"
       is_visible="true"
       pattern="m 231.32421,416.23945 c 0,-2.76 2.24,-5 5,-5 2.76,0 5,2.24 5,5 0,2.76 -2.24,5 -5,5 -2.76,0 -5,-2.24 -5,-5 z"
       copytype="single_stretched"
       prop_scale="0.2"
       scale_y_rel="false"
       spacing="0"
       normal_offset="0"
       tang_offset="0"
       prop_units="false"
       vertical_pattern="false"
       fuse_tolerance="0" />
    <inkscape:path-effect
       effect="skeletal"
       id="path-effect8938"
       is_visible="true"
       pattern="m 233.09197,430.63412 c 0,-2.76 2.24,-5 5,-5 2.76,0 5,2.24 5,5 0,2.76 -2.24,5 -5,5 -2.76,0 -5,-2.24 -5,-5 z"
       copytype="single_stretched"
       prop_scale="0.3"
       scale_y_rel="false"
       spacing="0"
       normal_offset="0"
       tang_offset="0"
       prop_units="false"
       vertical_pattern="false"
       fuse_tolerance="0" />
    <inkscape:path-effect
       effect="skeletal"
       id="path-effect8942"
       is_visible="true"
       pattern="m 234.85974,425.58336 c 0,-2.76 2.24,-5 5,-5 2.76,0 5,2.24 5,5 0,2.76 -2.24,5 -5,5 -2.76,0 -5,-2.24 -5,-5 z"
       copytype="single_stretched"
       prop_scale="0.3"
       scale_y_rel="false"
       spacing="0"
       normal_offset="0"
       tang_offset="0"
       prop_units="false"
       vertical_pattern="false"
       fuse_tolerance="0" />
    <inkscape:path-effect
       effect="skeletal"
       id="path-effect8942-2"
       is_visible="true"
       pattern="m 230.82246,340.58605 c 0,-2.76 2.24,-5 5,-5 2.76,0 5,2.24 5,5 0,2.76 -2.24,5 -5,5 -2.76,0 -5,-2.24 -5,-5 z"
       copytype="single_stretched"
       prop_scale="0.3"
       scale_y_rel="false"
       spacing="0"
       normal_offset="0"
       tang_offset="0"
       prop_units="false"
       vertical_pattern="false"
       fuse_tolerance="0" />
    <inkscape:path-effect
       effect="skeletal"
       id="path-effect8934-9"
       is_visible="true"
       pattern="m 231.32421,416.23945 c 0,-2.76 2.24,-5 5,-5 2.76,0 5,2.24 5,5 0,2.76 -2.24,5 -5,5 -2.76,0 -5,-2.24 -5,-5 z"
       copytype="single_stretched"
       prop_scale="0.2"
       scale_y_rel="false"
       spacing="0"
       normal_offset="0"
       tang_offset="0"
       prop_units="false"
       vertical_pattern="false"
       fuse_tolerance="0" />
    <inkscape:path-effect
       effect="skeletal"
       id="path-effect8938-6"
       is_visible="true"
       pattern="m 233.09197,430.63412 c 0,-2.76 2.24,-5 5,-5 2.76,0 5,2.24 5,5 0,2.76 -2.24,5 -5,5 -2.76,0 -5,-2.24 -5,-5 z"
       copytype="single_stretched"
       prop_scale="0.3"
       scale_y_rel="false"
       spacing="0"
       normal_offset="0"
       tang_offset="0"
       prop_units="false"
       vertical_pattern="false"
       fuse_tolerance="0" />
    <inkscape:path-effect
       effect="skeletal"
       id="path-effect8942-8"
       is_visible="true"
       pattern="m 234.85974,425.58336 c 0,-2.76 2.24,-5 5,-5 2.76,0 5,2.24 5,5 0,2.76 -2.24,5 -5,5 -2.76,0 -5,-2.24 -5,-5 z"
       copytype="single_stretched"
       prop_scale="0.3"
       scale_y_rel="false"
       spacing="0"
       normal_offset="0"
       tang_offset="0"
       prop_units="false"
       vertical_pattern="false"
       fuse_tolerance="0" />
    <inkscape:path-effect
       effect="skeletal"
       id="path-effect8942-2-6"
       is_visible="true"
       pattern="m 230.82246,340.58605 c 0,-2.76 2.24,-5 5,-5 2.76,0 5,2.24 5,5 0,2.76 -2.24,5 -5,5 -2.76,0 -5,-2.24 -5,-5 z"
       copytype="single_stretched"
       prop_scale="0.3"
       scale_y_rel="false"
       spacing="0"
       normal_offset="0"
       tang_offset="0"
       prop_units="false"
       vertical_pattern="false"
       fuse_tolerance="0" />
    <inkscape:path-effect
       effect="skeletal"
       id="path-effect9110"
       is_visible="true"
       pattern="M 0,5 C 0,2.24 2.24,0 5,0 7.76,0 10,2.24 10,5 10,7.76 7.76,10 5,10 2.24,10 0,7.76 0,5 z"
       copytype="single_stretched"
       prop_scale="0.3"
       scale_y_rel="false"
       spacing="0"
       normal_offset="0"
       tang_offset="0"
       prop_units="false"
       vertical_pattern="false"
       fuse_tolerance="0" />
    <inkscape:path-effect
       effect="skeletal"
       id="path-effect9110-4"
       is_visible="true"
       pattern="M 0,5 C 0,2.24 2.24,0 5,0 7.76,0 10,2.24 10,5 10,7.76 7.76,10 5,10 2.24,10 0,7.76 0,5 z"
       copytype="single_stretched"
       prop_scale="0.3"
       scale_y_rel="false"
       spacing="0"
       normal_offset="0"
       tang_offset="0"
       prop_units="false"
       vertical_pattern="false"
       fuse_tolerance="0" />
    <inkscape:path-effect
       effect="skeletal"
       id="path-effect8934-7"
       is_visible="true"
       pattern="m 453.33008,997.63322 c 0,-2.76 2.24,-5 5,-5 2.76,0 5,2.24 5,5 0,2.75998 -2.24,4.99998 -5,4.99998 -2.76,0 -5,-2.24 -5,-4.99998 z"
       copytype="single_stretched"
       prop_scale="0.2"
       scale_y_rel="false"
       spacing="0"
       normal_offset="0"
       tang_offset="0"
       prop_units="false"
       vertical_pattern="false"
       fuse_tolerance="0" />
    <inkscape:path-effect
       effect="skeletal"
       id="path-effect8938-3"
       is_visible="true"
       pattern="m 455.09784,1012.0279 c 0,-2.76 2.24,-5 5,-5 2.76,0 5,2.24 5,5 0,2.76 -2.24,5 -5,5 -2.76,0 -5,-2.24 -5,-5 z"
       copytype="single_stretched"
       prop_scale="0.3"
       scale_y_rel="false"
       spacing="0"
       normal_offset="0"
       tang_offset="0"
       prop_units="false"
       vertical_pattern="false"
       fuse_tolerance="0" />
    <inkscape:path-effect
       effect="skeletal"
       id="path-effect8942-1"
       is_visible="true"
       pattern="m 456.86561,1006.9771 c 0,-2.76 2.24,-5 5,-5 2.76,0 5,2.24 5,5 0,2.76 -2.24,5 -5,5 -2.76,0 -5,-2.24 -5,-5 z"
       copytype="single_stretched"
       prop_scale="0.3"
       scale_y_rel="false"
       spacing="0"
       normal_offset="0"
       tang_offset="0"
       prop_units="false"
       vertical_pattern="false"
       fuse_tolerance="0" />
    <inkscape:path-effect
       effect="skeletal"
       id="path-effect8942-2-62"
       is_visible="true"
       pattern="m 452.82833,921.97982 c 0,-2.76 2.24,-5 5,-5 2.76,0 5,2.24 5,5 0,2.76 -2.24,5 -5,5 -2.76,0 -5,-2.24 -5,-5 z"
       copytype="single_stretched"
       prop_scale="0.3"
       scale_y_rel="false"
       spacing="0"
       normal_offset="0"
       tang_offset="0"
       prop_units="false"
       vertical_pattern="false"
       fuse_tolerance="0" />
    <inkscape:path-effect
       effect="skeletal"
       id="path-effect8934-7-7"
       is_visible="true"
       pattern="m 453.33008,997.63322 c 0,-2.76 2.24,-5 5,-5 2.76,0 5,2.24 5,5 0,2.75998 -2.24,4.99998 -5,4.99998 -2.76,0 -5,-2.24 -5,-4.99998 z"
       copytype="single_stretched"
       prop_scale="0.2"
       scale_y_rel="false"
       spacing="0"
       normal_offset="0"
       tang_offset="0"
       prop_units="false"
       vertical_pattern="false"
       fuse_tolerance="0" />
    <inkscape:path-effect
       effect="skeletal"
       id="path-effect8938-3-9"
       is_visible="true"
       pattern="m 455.09784,1012.0279 c 0,-2.76 2.24,-5 5,-5 2.76,0 5,2.24 5,5 0,2.76 -2.24,5 -5,5 -2.76,0 -5,-2.24 -5,-5 z"
       copytype="single_stretched"
       prop_scale="0.3"
       scale_y_rel="false"
       spacing="0"
       normal_offset="0"
       tang_offset="0"
       prop_units="false"
       vertical_pattern="false"
       fuse_tolerance="0" />
    <inkscape:path-effect
       effect="skeletal"
       id="path-effect8942-1-3"
       is_visible="true"
       pattern="m 456.86561,1006.9771 c 0,-2.76 2.24,-5 5,-5 2.76,0 5,2.24 5,5 0,2.76 -2.24,5 -5,5 -2.76,0 -5,-2.24 -5,-5 z"
       copytype="single_stretched"
       prop_scale="0.3"
       scale_y_rel="false"
       spacing="0"
       normal_offset="0"
       tang_offset="0"
       prop_units="false"
       vertical_pattern="false"
       fuse_tolerance="0" />
    <inkscape:path-effect
       effect="skeletal"
       id="path-effect8942-2-62-0"
       is_visible="true"
       pattern="m 452.82833,921.97982 c 0,-2.76 2.24,-5 5,-5 2.76,0 5,2.24 5,5 0,2.76 -2.24,5 -5,5 -2.76,0 -5,-2.24 -5,-5 z"
       copytype="single_stretched"
       prop_scale="0.3"
       scale_y_rel="false"
       spacing="0"
       normal_offset="0"
       tang_offset="0"
       prop_units="false"
       vertical_pattern="false"
       fuse_tolerance="0" />
    <inkscape:path-effect
       effect="skeletal"
       id="path-effect8934-5"
       is_visible="true"
       pattern="m 743.42435,701.04373 c 0,-2.76 2.24,-5 5,-5 2.76,0 5,2.24 5,5 0,2.76 -2.24,5 -5,5 -2.76,0 -5,-2.24 -5,-5 z"
       copytype="single_stretched"
       prop_scale="0.2"
       scale_y_rel="false"
       spacing="0"
       normal_offset="0"
       tang_offset="0"
       prop_units="false"
       vertical_pattern="false"
       fuse_tolerance="0" />
    <inkscape:path-effect
       effect="skeletal"
       id="path-effect8938-68"
       is_visible="true"
       pattern="m 745.19211,715.4384 c 0,-2.76 2.24,-5 5,-5 2.76,0 5,2.24 5,5 0,2.76 -2.24,5 -5,5 -2.76,0 -5,-2.24 -5,-5 z"
       copytype="single_stretched"
       prop_scale="0.3"
       scale_y_rel="false"
       spacing="0"
       normal_offset="0"
       tang_offset="0"
       prop_units="false"
       vertical_pattern="false"
       fuse_tolerance="0" />
    <inkscape:path-effect
       effect="skeletal"
       id="path-effect8942-0"
       is_visible="true"
       pattern="m 746.95988,710.38764 c 0,-2.76 2.24,-5 5,-5 2.76,0 5,2.24 5,5 0,2.76 -2.24,5 -5,5 -2.76,0 -5,-2.24 -5,-5 z"
       copytype="single_stretched"
       prop_scale="0.3"
       scale_y_rel="false"
       spacing="0"
       normal_offset="0"
       tang_offset="0"
       prop_units="false"
       vertical_pattern="false"
       fuse_tolerance="0" />
    <inkscape:path-effect
       effect="skeletal"
       id="path-effect8942-2-5"
       is_visible="true"
       pattern="m 742.9226,625.39033 c 0,-2.76 2.24,-5 5,-5 2.76,0 5,2.24 5,5 0,2.76 -2.24,5 -5,5 -2.76,0 -5,-2.24 -5,-5 z"
       copytype="single_stretched"
       prop_scale="0.3"
       scale_y_rel="false"
       spacing="0"
       normal_offset="0"
       tang_offset="0"
       prop_units="false"
       vertical_pattern="false"
       fuse_tolerance="0" />
    <inkscape:path-effect
       effect="skeletal"
       id="path-effect8934-9-9"
       is_visible="true"
       pattern="m 446.6672,156.01545 c 0,-2.76 2.24,-5 5,-5 2.76,0 5,2.24 5,5 0,2.76 -2.24,5 -5,5 -2.76,0 -5,-2.24 -5,-5 z"
       copytype="single_stretched"
       prop_scale="0.2"
       scale_y_rel="false"
       spacing="0"
       normal_offset="0"
       tang_offset="0"
       prop_units="false"
       vertical_pattern="false"
       fuse_tolerance="0" />
    <inkscape:path-effect
       effect="skeletal"
       id="path-effect8938-6-5"
       is_visible="true"
       pattern="m 448.43496,170.41012 c 0,-2.76 2.24,-5 5,-5 2.76,0 5,2.24 5,5 0,2.76 -2.24,5 -5,5 -2.76,0 -5,-2.24 -5,-5 z"
       copytype="single_stretched"
       prop_scale="0.3"
       scale_y_rel="false"
       spacing="0"
       normal_offset="0"
       tang_offset="0"
       prop_units="false"
       vertical_pattern="false"
       fuse_tolerance="0" />
    <inkscape:path-effect
       effect="skeletal"
       id="path-effect8942-8-4"
       is_visible="true"
       pattern="m 450.20273,165.35936 c 0,-2.76 2.24,-5 5,-5 2.76,0 5,2.24 5,5 0,2.76 -2.24,5 -5,5 -2.76,0 -5,-2.24 -5,-5 z"
       copytype="single_stretched"
       prop_scale="0.3"
       scale_y_rel="false"
       spacing="0"
       normal_offset="0"
       tang_offset="0"
       prop_units="false"
       vertical_pattern="false"
       fuse_tolerance="0" />
    <inkscape:path-effect
       effect="skeletal"
       id="path-effect8942-2-6-45"
       is_visible="true"
       pattern="m 446.16545,80.36205 c 0,-2.76 2.24,-5 5,-5 2.76,0 5,2.24 5,5 0,2.76 -2.24,5 -5,5 -2.76,0 -5,-2.24 -5,-5 z"
       copytype="single_stretched"
       prop_scale="0.3"
       scale_y_rel="false"
       spacing="0"
       normal_offset="0"
       tang_offset="0"
       prop_units="false"
       vertical_pattern="false"
       fuse_tolerance="0" />
    <inkscape:path-effect
       effect="skeletal"
       id="path-effect9230-1"
       is_visible="true"
       pattern="M 0,5 C 0,2.24 2.24,0 5,0 7.76,0 10,2.24 10,5 10,7.76 7.76,10 5,10 2.24,10 0,7.76 0,5 z"
       copytype="single_stretched"
       prop_scale="1"
       scale_y_rel="false"
       spacing="0"
       normal_offset="0"
       tang_offset="0"
       prop_units="false"
       vertical_pattern="false"
       fuse_tolerance="0" />
  </defs>
  <sodipodi:namedview
     id="base"
     pagecolor="#ffffff"
     bordercolor="#666666"
     borderopacity="1.0"
     inkscape:pageopacity="0.0"
     inkscape:pageshadow="2"
     inkscape:zoom="1.979899"
     inkscape:cx="114.64531"
     inkscape:cy="64.640658"
     inkscape:document-units="px"
     inkscape:current-layer="layer1"
     showgrid="false"
     fit-margin-top="0"
     fit-margin-left="0"
     fit-margin-right="0"
     fit-margin-bottom="0"
     inkscape:window-width="1914"
     inkscape:window-height="1030"
     inkscape:window-x="0"
     inkscape:window-y="25"
     inkscape:window-maximized="1" />
  <metadata
     id="metadata10011">
    <rdf:RDF>
      <cc:Work
         rdf:about="">
        <dc:format>image/svg+xml</dc:format>
        <dc:type
           rdf:resource="http://purl.org/dc/dcmitype/StillImage" />
        <dc:title></dc:title>
      </cc:Work>
    </rdf:RDF>
  </metadata>
  <g
     inkscape:label="Capa 1"
     inkscape:groupmode="layer"
     id="layer1"
     transform="translate(-329.06071,-374.85656)">
    <g
       id="g9443"
       transform="matrix(0.84594151,0,0,0.84594151,491.91898,19.928761)">
      <path
         sodipodi:nodetypes="cscsc"
         inkscape:connector-curvature="0"
         inkscape:original-d="m -191.84954,508.00333 c 0,0 27.16438,-22.1049 72.86644,-20.82903 45.702057,1.27587 61.47842,9.99977 61.47842,9.99977 0,0 -5.843792,-74.99342 -55.65783,-73.3364 -49.81403,1.65702 -65.79917,23.60515 -65.79917,23.60515"
         inkscape:path-effect="#path-effect9230-1"
         id="path9228-1"
         d="m -191.84952,508.00331 c -0.0194,-0.0246 -0.0318,-0.0548 -0.037,-0.0906 -0.005,-0.0347 -0.003,-0.0746 0.005,-0.11965 0,0 0,0 0,0 0.0168,-0.0897 0.0606,-0.1999 0.13135,-0.32919 0,0 0,0 0,0 0,0 0,0 0,0 0.14104,-0.25714 0.39047,-0.59148 0.74739,-0.99209 0,0 0,0 0,0 0.70339,-0.78948 1.83293,-1.84406 3.39062,-3.07974 0,0 0,0 0,0 3.03008,-2.40366 7.71573,-5.52891 14.06272,-8.65002 0,0 0,0 0,0 6.18016,-3.03816 13.9516,-6.07509 23.17009,-8.31622 9.21848,-2.24112 19.89169,-3.67613 31.51654,-3.55897 0,0 0,0 0,0 7.42105,0.061 15.28712,0.31875 23.480463,1.04834 8.193346,0.7296 16.713938,1.9324 25.403267,3.96779 0,0 0,0 0,0 3.612768,0.84542 7.323431,1.8708 11.044757,3.26844 0,0 0,0 0,0 0.883432,0.33174 1.799306,0.70195 2.737722,1.13084 0,0 0,0 0,0 0.231236,0.10567 0.479304,0.22344 0.743016,0.35567 -1.14671,0.83417 -2.285123,1.6736 -3.415451,2.51861 -0.230673,0.17449 -0.461444,0.34884 -0.692339,0.52343 -0.0645,0.0382 -0.129049,0.0763 -0.193601,0.11444 -0.184421,0.10887 -0.368883,0.2177 -0.553374,0.32646 -0.722118,0.42573 -1.44469,0.85062 -2.167626,1.27468 -2.4e-5,1e-5 -4.9e-5,3e-5 -7.4e-5,4e-5 -0.01715,-0.1856 -0.03623,-0.3765 -0.05655,-0.57278 0,0 0,0 0,0 -0.07683,-0.742 -0.166454,-1.49398 -0.264331,-2.25634 0,0 0,0 0,0 0,-1e-5 -1e-6,-1e-5 -1e-6,-2e-5 0,0 0,0 0,0 -0.347269,-2.70405 -0.790476,-5.428 -1.312023,-8.16806 -0.298582,-1.56072 -0.62067,-3.12167 -0.968528,-4.68063 -1.554618,-6.9672 -3.577992,-13.66659 -6.155029,-19.94837 -1.939004,-4.65787 -4.138482,-9.10159 -6.678924,-13.11077 -2.540443,-4.00918 -5.422124,-7.58342 -8.696532,-10.56214 -3.483123,-3.20256 -7.393159,-5.73711 -11.479706,-7.37637 -4.801235,-1.95808 -9.967905,-2.72437 -14.935075,-2.68199 -5.45545,0.0659 -10.68864,0.34726 -15.60872,0.85554 -4.92009,0.50829 -9.52747,1.24305 -13.77262,2.16626 -8.49032,1.84643 -15.51053,4.4729 -21.03046,7.12964 -9.21593,6.3412 -14.90524,9.82073 -15.52389,9.25629 0,0 0,0 0,0 0,0 0,0 0,0 0,0 0,0 0,0 -0.003,-0.003 -0.003,-0.003 -0.003,-0.003 0,0 -1e-5,1e-5 -0.003,-0.003 0,0 0,0 0,0 0,0 0,0 0,0 0,0 0,0 0,0 -0.5824,-0.59294 4.02419,-5.20632 12.95238,-13.12702 5.48042,-3.46606 12.74441,-6.96356 21.67018,-9.61929 4.46289,-1.32786 9.33343,-2.45009 14.53866,-3.30556 5.20523,-0.85547 10.74534,-1.44357 16.50138,-1.75065 5.9261,-0.31998 12.25655,0.40529 18.445617,2.66634 5.239243,1.94088 10.198865,4.93665 14.55323,8.78577 4.002904,3.56896 7.510958,7.72147 10.536941,12.27346 3.025983,4.55199 5.569962,9.50296 7.682119,14.61214 2.874445,6.86134 5.109053,14.10877 6.771093,21.5653 0.371894,1.66845 0.712684,3.3352 1.02471,4.99791 0.551128,2.92265 1.015945,5.85342 1.376961,8.7862 0,0 0,0 0,0 0,1e-5 10e-7,1e-5 10e-7,2e-5 0,0 0,0 0,0 0.101768,0.82649 0.196011,1.66194 0.27817,2.50639 0.02172,0.22328 0.04296,0.45186 0.06304,0.68577 -2.5e-5,2e-5 -4.9e-5,4e-5 -7.4e-5,6e-5 -0.713343,0.53214 -1.426528,1.06512 -2.139642,1.59895 -0.182191,0.13639 -0.364378,0.27283 -0.546571,0.40933 -0.06378,0.0477 -0.127554,0.0955 -0.191341,0.14328 -0.263658,0.1565 -0.527337,0.31344 -0.791052,0.47045 -1.226018,0.7944 -2.46071,1.58437 -3.703906,2.36963 -0.121941,-0.0629 -0.263827,-0.13094 -0.424362,-0.20641 0,0 0,0 0,0 -0.652259,-0.30666 -1.356894,-0.59524 -2.102542,-0.88513 0,0 0,0 0,0 -3.144569,-1.22229 -6.45,-2.16307 -9.815859,-3.00737 0,0 0,0 0,0 -8.10722,-2.03153 -16.175397,-3.31669 -24.032107,-4.20302 -7.856706,-0.88633 -15.501276,-1.37499 -22.785536,-1.72454 0,0 0,0 0,0 -10.89104,-0.51141 -20.98139,0.32876 -29.81481,1.88694 -8.83341,1.55818 -16.41797,3.82685 -22.60584,6.09467 0,1e-5 0,1e-5 0,1e-5 -6.36583,2.33278 -11.23776,4.63641 -14.61787,6.26572 0,0 0,0 0,0 -1.738,0.83782 -3.07575,1.49361 -4.02476,1.89906 0,0 0,0 0,0 -0.48159,0.20575 -0.86089,0.34537 -1.14075,0.4118 -1e-5,0 -1e-5,0 -1e-5,0 0,0 0,0 0,0 -0.14129,0.0337 -0.25678,0.0484 -0.34678,0.0432 -1e-5,0 -1e-5,0 -1e-5,0 -0.0452,-0.003 -0.0839,-0.0103 -0.11619,-0.0231 -0.0333,-0.0133 -0.0597,-0.0321 -0.0791,-0.0566 z"
         style="fill:#000000;fill-rule:evenodd;stroke:none" />
      <path
         sodipodi:nodetypes="csscscsc"
         inkscape:connector-curvature="0"
         id="path9232-1"
         d="m -188.60046,504.25982 c 0,0 -5.65168,-18.20045 -3.37705,-29.95527 4.74955,-24.54469 28.07617,-42.18943 32.84488,-43.85365 4.7687,-1.66423 21.39005,-4.50008 21.39005,-4.50008 0,0 39.924248,-3.62858 58.647742,12.42414 20.326037,17.42667 23.888722,63.23945 23.888722,63.23945 0,0 -45.645784,-13.92259 -59.620214,-14.17894 -24.26062,-0.44504 -73.77413,16.82435 -73.77413,16.82435 z"
         style="fill:#000000;fill-rule:evenodd;stroke:none" />
      <path
         inkscape:connector-curvature="0"
         id="path9236-8"
         d="m -120.08551,432.43758 c 2.49254,4.50753 -6.44053,26.42566 3.49244,24.32868 9.93297,-2.09699 27.739128,3.90319 26.254081,-4.10438 -1.485047,-8.00757 -8.32834,-21.2018 -8.32834,-21.2018 z"
         style="fill:#ffffff;stroke:#000000;stroke-width:1px;stroke-linecap:butt;stroke-linejoin:miter;stroke-opacity:1" />
    </g>
  </g>
</svg>
