<?xml version="1.0" encoding="UTF-8" standalone="no"?>
<!-- Created with Inkscape (http://www.inkscape.org/) -->

<svg
   xmlns:dc="http://purl.org/dc/elements/1.1/"
   xmlns:cc="http://creativecommons.org/ns#"
   xmlns:rdf="http://www.w3.org/1999/02/22-rdf-syntax-ns#"
   xmlns:svg="http://www.w3.org/2000/svg"
   xmlns="http://www.w3.org/2000/svg"
   xmlns:sodipodi="http://sodipodi.sourceforge.net/DTD/sodipodi-0.dtd"
   xmlns:inkscape="http://www.inkscape.org/namespaces/inkscape"
   width="176.82355"
   height="108.32677"
   id="svg10006"
   version="1.1"
   inkscape:version="0.48.3.1 r9886"
   sodipodi:docname="boca_abierta_risa.svg">
  <defs
     id="defs10008">
    <inkscape:path-effect
       effect="skeletal"
       id="path-effect3163"
       is_visible="true"
       pattern="M 0,5 C 0,2.24 2.24,0 5,0 7.76,0 10,2.24 10,5 10,7.76 7.76,10 5,10 2.24,10 0,7.76 0,5 z"
       copytype="single_stretched"
       prop_scale="0.5"
       scale_y_rel="false"
       spacing="0"
       normal_offset="0"
       tang_offset="0"
       prop_units="false"
       vertical_pattern="false"
       fuse_tolerance="0" />
    <inkscape:path-effect
       effect="skeletal"
       id="path-effect3159"
       is_visible="true"
       pattern="M 0,5 C 0,2.24 2.24,0 5,0 7.76,0 10,2.24 10,5 10,7.76 7.76,10 5,10 2.24,10 0,7.76 0,5 z"
       copytype="single_stretched"
       prop_scale="0.5"
       scale_y_rel="false"
       spacing="0"
       normal_offset="0"
       tang_offset="0"
       prop_units="false"
       vertical_pattern="false"
       fuse_tolerance="0" />
    <inkscape:path-effect
       effect="skeletal"
       id="path-effect3155"
       is_visible="true"
       pattern="M 0,5 C 0,2.24 2.24,0 5,0 7.76,0 10,2.24 10,5 10,7.76 7.76,10 5,10 2.24,10 0,7.76 0,5 z"
       copytype="single_stretched"
       prop_scale="0.5"
       scale_y_rel="false"
       spacing="0"
       normal_offset="0"
       tang_offset="0"
       prop_units="false"
       vertical_pattern="false"
       fuse_tolerance="0" />
    <inkscape:path-effect
       effect="skeletal"
       id="path-effect3151"
       is_visible="true"
       pattern="M 0,5 C 0,2.24 2.24,0 5,0 7.76,0 10,2.24 10,5 10,7.76 7.76,10 5,10 2.24,10 0,7.76 0,5 z"
       copytype="single_stretched"
       prop_scale="0.5"
       scale_y_rel="false"
       spacing="0"
       normal_offset="0"
       tang_offset="0"
       prop_units="false"
       vertical_pattern="false"
       fuse_tolerance="0" />
    <inkscape:path-effect
       effect="skeletal"
       id="path-effect3111"
       is_visible="true"
       pattern="M 0,5 C 0,2.24 2.24,0 5,0 7.76,0 10,2.24 10,5 10,7.76 7.76,10 5,10 2.24,10 0,7.76 0,5 z"
       copytype="single_stretched"
       prop_scale="1"
       scale_y_rel="false"
       spacing="0"
       normal_offset="0"
       tang_offset="0"
       prop_units="false"
       vertical_pattern="false"
       fuse_tolerance="0" />
    <inkscape:path-effect
       effect="skeletal"
       id="path-effect3107"
       is_visible="true"
       pattern="M 0,5 C 0,2.24 2.24,0 5,0 7.76,0 10,2.24 10,5 10,7.76 7.76,10 5,10 2.24,10 0,7.76 0,5 z"
       copytype="single_stretched"
       prop_scale="0.5"
       scale_y_rel="false"
       spacing="0"
       normal_offset="0"
       tang_offset="0"
       prop_units="false"
       vertical_pattern="false"
       fuse_tolerance="0" />
    <inkscape:path-effect
       effect="skeletal"
       id="path-effect3103"
       is_visible="true"
       pattern="M 0,5 C 0,2.24 2.24,0 5,0 7.76,0 10,2.24 10,5 10,7.76 7.76,10 5,10 2.24,10 0,7.76 0,5 z"
       copytype="single_stretched"
       prop_scale="0.5"
       scale_y_rel="false"
       spacing="0"
       normal_offset="0"
       tang_offset="0"
       prop_units="false"
       vertical_pattern="false"
       fuse_tolerance="0" />
    <inkscape:path-effect
       effect="skeletal"
       id="path-effect8271"
       is_visible="true"
       pattern="m 236.12243,418.00722 c 0,-2.76 2.24,-5 5,-5 2.76,0 5,2.24 5,5 0,2.76 -2.24,5 -5,5 -2.76,0 -5,-2.24 -5,-5 z"
       copytype="single_stretched"
       prop_scale="1"
       scale_y_rel="false"
       spacing="0"
       normal_offset="0"
       tang_offset="0"
       prop_units="false"
       vertical_pattern="false"
       fuse_tolerance="0" />
    <inkscape:path-effect
       effect="skeletal"
       id="path-effect8263"
       is_visible="true"
       pattern="M 0,5 C 0,2.24 2.24,0 5,0 7.76,0 10,2.24 10,5 10,7.76 7.76,10 5,10 2.24,10 0,7.76 0,5 z"
       copytype="single_stretched"
       prop_scale="1"
       scale_y_rel="false"
       spacing="0"
       normal_offset="0"
       tang_offset="0"
       prop_units="false"
       vertical_pattern="false"
       fuse_tolerance="0" />
    <inkscape:path-effect
       effect="skeletal"
       id="path-effect8267"
       is_visible="true"
       pattern="m 225.01075,425.07829 c 0,-2.76 2.24,-5 5,-5 2.76,0 5,2.24 5,5 0,2.76 -2.24,5 -5,5 -2.76,0 -5,-2.24 -5,-5 z"
       copytype="single_stretched"
       prop_scale="1"
       scale_y_rel="false"
       spacing="0"
       normal_offset="0"
       tang_offset="0"
       prop_units="false"
       vertical_pattern="false"
       fuse_tolerance="0" />
    <inkscape:path-effect
       effect="skeletal"
       id="path-effect8275"
       is_visible="true"
       pattern="M 0,5 C 0,2.24 2.24,0 5,0 7.76,0 10,2.24 10,5 10,7.76 7.76,10 5,10 2.24,10 0,7.76 0,5 z"
       copytype="single_stretched"
       prop_scale="1"
       scale_y_rel="false"
       spacing="0"
       normal_offset="0"
       tang_offset="0"
       prop_units="false"
       vertical_pattern="false"
       fuse_tolerance="0" />
    <inkscape:path-effect
       effect="skeletal"
       id="path-effect8934-4"
       is_visible="true"
       pattern="m 523.0306,976.42002 c 0,-2.76 2.24,-5 5,-5 2.76,0 5,2.24 5,5 0,2.76 -2.24,5 -5,5 -2.76,0 -5,-2.24 -5,-5 z"
       copytype="single_stretched"
       prop_scale="0.2"
       scale_y_rel="false"
       spacing="0"
       normal_offset="0"
       tang_offset="0"
       prop_units="false"
       vertical_pattern="false"
       fuse_tolerance="0" />
    <inkscape:path-effect
       effect="skeletal"
       id="path-effect8938-2"
       is_visible="true"
       pattern="m 524.79836,990.81469 c 0,-2.76 2.24,-5 5,-5 2.76,0 5,2.24 5,5 0,2.76 -2.24,5 -5,5 -2.76,0 -5,-2.24 -5,-5 z"
       copytype="single_stretched"
       prop_scale="0.3"
       scale_y_rel="false"
       spacing="0"
       normal_offset="0"
       tang_offset="0"
       prop_units="false"
       vertical_pattern="false"
       fuse_tolerance="0" />
    <inkscape:path-effect
       effect="skeletal"
       id="path-effect8942-85"
       is_visible="true"
       pattern="m 526.56613,985.76393 c 0,-2.76 2.24,-5 5,-5 2.76,0 5,2.24 5,5 0,2.76 -2.24,5 -5,5 -2.76,0 -5,-2.24 -5,-5 z"
       copytype="single_stretched"
       prop_scale="0.3"
       scale_y_rel="false"
       spacing="0"
       normal_offset="0"
       tang_offset="0"
       prop_units="false"
       vertical_pattern="false"
       fuse_tolerance="0" />
    <inkscape:path-effect
       effect="skeletal"
       id="path-effect8942-2-0"
       is_visible="true"
       pattern="m 522.52885,900.76662 c 0,-2.76 2.24,-5 5,-5 2.76,0 5,2.24 5,5 0,2.76 -2.24,5 -5,5 -2.76,0 -5,-2.24 -5,-5 z"
       copytype="single_stretched"
       prop_scale="0.3"
       scale_y_rel="false"
       spacing="0"
       normal_offset="0"
       tang_offset="0"
       prop_units="false"
       vertical_pattern="false"
       fuse_tolerance="0" />
    <inkscape:path-effect
       effect="skeletal"
       id="path-effect8934-4-6"
       is_visible="true"
       pattern="m 523.0306,976.42002 c 0,-2.76 2.24,-5 5,-5 2.76,0 5,2.24 5,5 0,2.76 -2.24,5 -5,5 -2.76,0 -5,-2.24 -5,-5 z"
       copytype="single_stretched"
       prop_scale="0.2"
       scale_y_rel="false"
       spacing="0"
       normal_offset="0"
       tang_offset="0"
       prop_units="false"
       vertical_pattern="false"
       fuse_tolerance="0" />
    <inkscape:path-effect
       effect="skeletal"
       id="path-effect8938-2-8"
       is_visible="true"
       pattern="m 524.79836,990.81469 c 0,-2.76 2.24,-5 5,-5 2.76,0 5,2.24 5,5 0,2.76 -2.24,5 -5,5 -2.76,0 -5,-2.24 -5,-5 z"
       copytype="single_stretched"
       prop_scale="0.3"
       scale_y_rel="false"
       spacing="0"
       normal_offset="0"
       tang_offset="0"
       prop_units="false"
       vertical_pattern="false"
       fuse_tolerance="0" />
    <inkscape:path-effect
       effect="skeletal"
       id="path-effect8942-85-2"
       is_visible="true"
       pattern="m 526.56613,985.76393 c 0,-2.76 2.24,-5 5,-5 2.76,0 5,2.24 5,5 0,2.76 -2.24,5 -5,5 -2.76,0 -5,-2.24 -5,-5 z"
       copytype="single_stretched"
       prop_scale="0.3"
       scale_y_rel="false"
       spacing="0"
       normal_offset="0"
       tang_offset="0"
       prop_units="false"
       vertical_pattern="false"
       fuse_tolerance="0" />
    <inkscape:path-effect
       effect="skeletal"
       id="path-effect8942-2-0-9"
       is_visible="true"
       pattern="m 522.52885,900.76662 c 0,-2.76 2.24,-5 5,-5 2.76,0 5,2.24 5,5 0,2.76 -2.24,5 -5,5 -2.76,0 -5,-2.24 -5,-5 z"
       copytype="single_stretched"
       prop_scale="0.3"
       scale_y_rel="false"
       spacing="0"
       normal_offset="0"
       tang_offset="0"
       prop_units="false"
       vertical_pattern="false"
       fuse_tolerance="0" />
    <inkscape:path-effect
       effect="skeletal"
       id="path-effect8934"
       is_visible="true"
       pattern="m 231.32421,416.23945 c 0,-2.76 2.24,-5 5,-5 2.76,0 5,2.24 5,5 0,2.76 -2.24,5 -5,5 -2.76,0 -5,-2.24 -5,-5 z"
       copytype="single_stretched"
       prop_scale="0.2"
       scale_y_rel="false"
       spacing="0"
       normal_offset="0"
       tang_offset="0"
       prop_units="false"
       vertical_pattern="false"
       fuse_tolerance="0" />
    <inkscape:path-effect
       effect="skeletal"
       id="path-effect8938"
       is_visible="true"
       pattern="m 233.09197,430.63412 c 0,-2.76 2.24,-5 5,-5 2.76,0 5,2.24 5,5 0,2.76 -2.24,5 -5,5 -2.76,0 -5,-2.24 -5,-5 z"
       copytype="single_stretched"
       prop_scale="0.3"
       scale_y_rel="false"
       spacing="0"
       normal_offset="0"
       tang_offset="0"
       prop_units="false"
       vertical_pattern="false"
       fuse_tolerance="0" />
    <inkscape:path-effect
       effect="skeletal"
       id="path-effect8942"
       is_visible="true"
       pattern="m 234.85974,425.58336 c 0,-2.76 2.24,-5 5,-5 2.76,0 5,2.24 5,5 0,2.76 -2.24,5 -5,5 -2.76,0 -5,-2.24 -5,-5 z"
       copytype="single_stretched"
       prop_scale="0.3"
       scale_y_rel="false"
       spacing="0"
       normal_offset="0"
       tang_offset="0"
       prop_units="false"
       vertical_pattern="false"
       fuse_tolerance="0" />
    <inkscape:path-effect
       effect="skeletal"
       id="path-effect8942-2"
       is_visible="true"
       pattern="m 230.82246,340.58605 c 0,-2.76 2.24,-5 5,-5 2.76,0 5,2.24 5,5 0,2.76 -2.24,5 -5,5 -2.76,0 -5,-2.24 -5,-5 z"
       copytype="single_stretched"
       prop_scale="0.3"
       scale_y_rel="false"
       spacing="0"
       normal_offset="0"
       tang_offset="0"
       prop_units="false"
       vertical_pattern="false"
       fuse_tolerance="0" />
    <inkscape:path-effect
       effect="skeletal"
       id="path-effect8934-9"
       is_visible="true"
       pattern="m 231.32421,416.23945 c 0,-2.76 2.24,-5 5,-5 2.76,0 5,2.24 5,5 0,2.76 -2.24,5 -5,5 -2.76,0 -5,-2.24 -5,-5 z"
       copytype="single_stretched"
       prop_scale="0.2"
       scale_y_rel="false"
       spacing="0"
       normal_offset="0"
       tang_offset="0"
       prop_units="false"
       vertical_pattern="false"
       fuse_tolerance="0" />
    <inkscape:path-effect
       effect="skeletal"
       id="path-effect8938-6"
       is_visible="true"
       pattern="m 233.09197,430.63412 c 0,-2.76 2.24,-5 5,-5 2.76,0 5,2.24 5,5 0,2.76 -2.24,5 -5,5 -2.76,0 -5,-2.24 -5,-5 z"
       copytype="single_stretched"
       prop_scale="0.3"
       scale_y_rel="false"
       spacing="0"
       normal_offset="0"
       tang_offset="0"
       prop_units="false"
       vertical_pattern="false"
       fuse_tolerance="0" />
    <inkscape:path-effect
       effect="skeletal"
       id="path-effect8942-8"
       is_visible="true"
       pattern="m 234.85974,425.58336 c 0,-2.76 2.24,-5 5,-5 2.76,0 5,2.24 5,5 0,2.76 -2.24,5 -5,5 -2.76,0 -5,-2.24 -5,-5 z"
       copytype="single_stretched"
       prop_scale="0.3"
       scale_y_rel="false"
       spacing="0"
       normal_offset="0"
       tang_offset="0"
       prop_units="false"
       vertical_pattern="false"
       fuse_tolerance="0" />
    <inkscape:path-effect
       effect="skeletal"
       id="path-effect8942-2-6"
       is_visible="true"
       pattern="m 230.82246,340.58605 c 0,-2.76 2.24,-5 5,-5 2.76,0 5,2.24 5,5 0,2.76 -2.24,5 -5,5 -2.76,0 -5,-2.24 -5,-5 z"
       copytype="single_stretched"
       prop_scale="0.3"
       scale_y_rel="false"
       spacing="0"
       normal_offset="0"
       tang_offset="0"
       prop_units="false"
       vertical_pattern="false"
       fuse_tolerance="0" />
    <inkscape:path-effect
       effect="skeletal"
       id="path-effect9110"
       is_visible="true"
       pattern="M 0,5 C 0,2.24 2.24,0 5,0 7.76,0 10,2.24 10,5 10,7.76 7.76,10 5,10 2.24,10 0,7.76 0,5 z"
       copytype="single_stretched"
       prop_scale="0.3"
       scale_y_rel="false"
       spacing="0"
       normal_offset="0"
       tang_offset="0"
       prop_units="false"
       vertical_pattern="false"
       fuse_tolerance="0" />
    <inkscape:path-effect
       effect="skeletal"
       id="path-effect9110-4"
       is_visible="true"
       pattern="M 0,5 C 0,2.24 2.24,0 5,0 7.76,0 10,2.24 10,5 10,7.76 7.76,10 5,10 2.24,10 0,7.76 0,5 z"
       copytype="single_stretched"
       prop_scale="0.3"
       scale_y_rel="false"
       spacing="0"
       normal_offset="0"
       tang_offset="0"
       prop_units="false"
       vertical_pattern="false"
       fuse_tolerance="0" />
    <inkscape:path-effect
       effect="skeletal"
       id="path-effect8934-7"
       is_visible="true"
       pattern="m 453.33008,997.63322 c 0,-2.76 2.24,-5 5,-5 2.76,0 5,2.24 5,5 0,2.75998 -2.24,4.99998 -5,4.99998 -2.76,0 -5,-2.24 -5,-4.99998 z"
       copytype="single_stretched"
       prop_scale="0.2"
       scale_y_rel="false"
       spacing="0"
       normal_offset="0"
       tang_offset="0"
       prop_units="false"
       vertical_pattern="false"
       fuse_tolerance="0" />
    <inkscape:path-effect
       effect="skeletal"
       id="path-effect8938-3"
       is_visible="true"
       pattern="m 455.09784,1012.0279 c 0,-2.76 2.24,-5 5,-5 2.76,0 5,2.24 5,5 0,2.76 -2.24,5 -5,5 -2.76,0 -5,-2.24 -5,-5 z"
       copytype="single_stretched"
       prop_scale="0.3"
       scale_y_rel="false"
       spacing="0"
       normal_offset="0"
       tang_offset="0"
       prop_units="false"
       vertical_pattern="false"
       fuse_tolerance="0" />
    <inkscape:path-effect
       effect="skeletal"
       id="path-effect8942-1"
       is_visible="true"
       pattern="m 456.86561,1006.9771 c 0,-2.76 2.24,-5 5,-5 2.76,0 5,2.24 5,5 0,2.76 -2.24,5 -5,5 -2.76,0 -5,-2.24 -5,-5 z"
       copytype="single_stretched"
       prop_scale="0.3"
       scale_y_rel="false"
       spacing="0"
       normal_offset="0"
       tang_offset="0"
       prop_units="false"
       vertical_pattern="false"
       fuse_tolerance="0" />
    <inkscape:path-effect
       effect="skeletal"
       id="path-effect8942-2-62"
       is_visible="true"
       pattern="m 452.82833,921.97982 c 0,-2.76 2.24,-5 5,-5 2.76,0 5,2.24 5,5 0,2.76 -2.24,5 -5,5 -2.76,0 -5,-2.24 -5,-5 z"
       copytype="single_stretched"
       prop_scale="0.3"
       scale_y_rel="false"
       spacing="0"
       normal_offset="0"
       tang_offset="0"
       prop_units="false"
       vertical_pattern="false"
       fuse_tolerance="0" />
    <inkscape:path-effect
       effect="skeletal"
       id="path-effect8934-7-7"
       is_visible="true"
       pattern="m 453.33008,997.63322 c 0,-2.76 2.24,-5 5,-5 2.76,0 5,2.24 5,5 0,2.75998 -2.24,4.99998 -5,4.99998 -2.76,0 -5,-2.24 -5,-4.99998 z"
       copytype="single_stretched"
       prop_scale="0.2"
       scale_y_rel="false"
       spacing="0"
       normal_offset="0"
       tang_offset="0"
       prop_units="false"
       vertical_pattern="false"
       fuse_tolerance="0" />
    <inkscape:path-effect
       effect="skeletal"
       id="path-effect8938-3-9"
       is_visible="true"
       pattern="m 455.09784,1012.0279 c 0,-2.76 2.24,-5 5,-5 2.76,0 5,2.24 5,5 0,2.76 -2.24,5 -5,5 -2.76,0 -5,-2.24 -5,-5 z"
       copytype="single_stretched"
       prop_scale="0.3"
       scale_y_rel="false"
       spacing="0"
       normal_offset="0"
       tang_offset="0"
       prop_units="false"
       vertical_pattern="false"
       fuse_tolerance="0" />
    <inkscape:path-effect
       effect="skeletal"
       id="path-effect8942-1-3"
       is_visible="true"
       pattern="m 456.86561,1006.9771 c 0,-2.76 2.24,-5 5,-5 2.76,0 5,2.24 5,5 0,2.76 -2.24,5 -5,5 -2.76,0 -5,-2.24 -5,-5 z"
       copytype="single_stretched"
       prop_scale="0.3"
       scale_y_rel="false"
       spacing="0"
       normal_offset="0"
       tang_offset="0"
       prop_units="false"
       vertical_pattern="false"
       fuse_tolerance="0" />
    <inkscape:path-effect
       effect="skeletal"
       id="path-effect8942-2-62-0"
       is_visible="true"
       pattern="m 452.82833,921.97982 c 0,-2.76 2.24,-5 5,-5 2.76,0 5,2.24 5,5 0,2.76 -2.24,5 -5,5 -2.76,0 -5,-2.24 -5,-5 z"
       copytype="single_stretched"
       prop_scale="0.3"
       scale_y_rel="false"
       spacing="0"
       normal_offset="0"
       tang_offset="0"
       prop_units="false"
       vertical_pattern="false"
       fuse_tolerance="0" />
    <inkscape:path-effect
       effect="skeletal"
       id="path-effect8934-5"
       is_visible="true"
       pattern="m 743.42435,701.04373 c 0,-2.76 2.24,-5 5,-5 2.76,0 5,2.24 5,5 0,2.76 -2.24,5 -5,5 -2.76,0 -5,-2.24 -5,-5 z"
       copytype="single_stretched"
       prop_scale="0.2"
       scale_y_rel="false"
       spacing="0"
       normal_offset="0"
       tang_offset="0"
       prop_units="false"
       vertical_pattern="false"
       fuse_tolerance="0" />
    <inkscape:path-effect
       effect="skeletal"
       id="path-effect8938-68"
       is_visible="true"
       pattern="m 745.19211,715.4384 c 0,-2.76 2.24,-5 5,-5 2.76,0 5,2.24 5,5 0,2.76 -2.24,5 -5,5 -2.76,0 -5,-2.24 -5,-5 z"
       copytype="single_stretched"
       prop_scale="0.3"
       scale_y_rel="false"
       spacing="0"
       normal_offset="0"
       tang_offset="0"
       prop_units="false"
       vertical_pattern="false"
       fuse_tolerance="0" />
    <inkscape:path-effect
       effect="skeletal"
       id="path-effect8942-0"
       is_visible="true"
       pattern="m 746.95988,710.38764 c 0,-2.76 2.24,-5 5,-5 2.76,0 5,2.24 5,5 0,2.76 -2.24,5 -5,5 -2.76,0 -5,-2.24 -5,-5 z"
       copytype="single_stretched"
       prop_scale="0.3"
       scale_y_rel="false"
       spacing="0"
       normal_offset="0"
       tang_offset="0"
       prop_units="false"
       vertical_pattern="false"
       fuse_tolerance="0" />
    <inkscape:path-effect
       effect="skeletal"
       id="path-effect8942-2-5"
       is_visible="true"
       pattern="m 742.9226,625.39033 c 0,-2.76 2.24,-5 5,-5 2.76,0 5,2.24 5,5 0,2.76 -2.24,5 -5,5 -2.76,0 -5,-2.24 -5,-5 z"
       copytype="single_stretched"
       prop_scale="0.3"
       scale_y_rel="false"
       spacing="0"
       normal_offset="0"
       tang_offset="0"
       prop_units="false"
       vertical_pattern="false"
       fuse_tolerance="0" />
    <inkscape:path-effect
       effect="skeletal"
       id="path-effect8934-9-9"
       is_visible="true"
       pattern="m 446.6672,156.01545 c 0,-2.76 2.24,-5 5,-5 2.76,0 5,2.24 5,5 0,2.76 -2.24,5 -5,5 -2.76,0 -5,-2.24 -5,-5 z"
       copytype="single_stretched"
       prop_scale="0.2"
       scale_y_rel="false"
       spacing="0"
       normal_offset="0"
       tang_offset="0"
       prop_units="false"
       vertical_pattern="false"
       fuse_tolerance="0" />
    <inkscape:path-effect
       effect="skeletal"
       id="path-effect8938-6-5"
       is_visible="true"
       pattern="m 448.43496,170.41012 c 0,-2.76 2.24,-5 5,-5 2.76,0 5,2.24 5,5 0,2.76 -2.24,5 -5,5 -2.76,0 -5,-2.24 -5,-5 z"
       copytype="single_stretched"
       prop_scale="0.3"
       scale_y_rel="false"
       spacing="0"
       normal_offset="0"
       tang_offset="0"
       prop_units="false"
       vertical_pattern="false"
       fuse_tolerance="0" />
    <inkscape:path-effect
       effect="skeletal"
       id="path-effect8942-8-4"
       is_visible="true"
       pattern="m 450.20273,165.35936 c 0,-2.76 2.24,-5 5,-5 2.76,0 5,2.24 5,5 0,2.76 -2.24,5 -5,5 -2.76,0 -5,-2.24 -5,-5 z"
       copytype="single_stretched"
       prop_scale="0.3"
       scale_y_rel="false"
       spacing="0"
       normal_offset="0"
       tang_offset="0"
       prop_units="false"
       vertical_pattern="false"
       fuse_tolerance="0" />
    <inkscape:path-effect
       effect="skeletal"
       id="path-effect8942-2-6-45"
       is_visible="true"
       pattern="m 446.16545,80.36205 c 0,-2.76 2.24,-5 5,-5 2.76,0 5,2.24 5,5 0,2.76 -2.24,5 -5,5 -2.76,0 -5,-2.24 -5,-5 z"
       copytype="single_stretched"
       prop_scale="0.3"
       scale_y_rel="false"
       spacing="0"
       normal_offset="0"
       tang_offset="0"
       prop_units="false"
       vertical_pattern="false"
       fuse_tolerance="0" />
    <inkscape:path-effect
       effect="skeletal"
       id="path-effect9230-1"
       is_visible="true"
       pattern="M 0,5 C 0,2.24 2.24,0 5,0 7.76,0 10,2.24 10,5 10,7.76 7.76,10 5,10 2.24,10 0,7.76 0,5 z"
       copytype="single_stretched"
       prop_scale="1"
       scale_y_rel="false"
       spacing="0"
       normal_offset="0"
       tang_offset="0"
       prop_units="false"
       vertical_pattern="false"
       fuse_tolerance="0" />
    <inkscape:path-effect
       effect="skeletal"
       id="path-effect9230"
       is_visible="true"
       pattern="M 0,5 C 0,2.24 2.24,0 5,0 7.76,0 10,2.24 10,5 10,7.76 7.76,10 5,10 2.24,10 0,7.76 0,5 z"
       copytype="single_stretched"
       prop_scale="1"
       scale_y_rel="false"
       spacing="0"
       normal_offset="0"
       tang_offset="0"
       prop_units="false"
       vertical_pattern="false"
       fuse_tolerance="0" />
  </defs>
  <sodipodi:namedview
     id="base"
     pagecolor="#ffffff"
     bordercolor="#666666"
     borderopacity="1.0"
     inkscape:pageopacity="0.0"
     inkscape:pageshadow="2"
     inkscape:zoom="1.979899"
     inkscape:cx="61.504661"
     inkscape:cy="105.21746"
     inkscape:document-units="px"
     inkscape:current-layer="layer1"
     showgrid="false"
     fit-margin-top="0"
     fit-margin-left="0"
     fit-margin-right="0"
     fit-margin-bottom="0"
     inkscape:window-width="1914"
     inkscape:window-height="1030"
     inkscape:window-x="0"
     inkscape:window-y="25"
     inkscape:window-maximized="1" />
  <metadata
     id="metadata10011">
    <rdf:RDF>
      <cc:Work
         rdf:about="">
        <dc:format>image/svg+xml</dc:format>
        <dc:type
           rdf:resource="http://purl.org/dc/dcmitype/StillImage" />
        <dc:title></dc:title>
      </cc:Work>
    </rdf:RDF>
  </metadata>
  <g
     inkscape:label="Capa 1"
     inkscape:groupmode="layer"
     id="layer1"
     transform="translate(-303.662,-341.58214)">
    <g
       id="g3165">
      <path
         sodipodi:nodetypes="scscs"
         inkscape:connector-curvature="0"
         inkscape:original-d="m 405.37128,379.62857 c 45.71917,0.25284 51.1361,-11.53175 65.02788,-17.70561 0.75979,19.58502 -25.42802,79.49702 -62.52866,82.75077 -40.20377,3.52589 -78.68005,-26.09384 -80.57153,-91.10986 16.29128,13.2708 27.41773,25.78457 78.07231,26.0647 z"
         inkscape:path-effect="#path-effect9230"
         id="path9228"
         d="m 405.37128,379.62857 c 0.003,-0.46123 2.52331,-0.85738 7.19055,-1.39043 2.33363,-0.26653 5.20312,-0.57322 8.54444,-1.01271 3.34133,-0.4395 7.15511,-1.00975 11.35315,-1.88453 5.00124,-1.04482 10.55654,-2.50576 16.14123,-5.06902 3.36808,-1.53155 6.7836,-3.58156 10.35959,-5.92111 3.72778,-1.444 7.7986,-3.03229 12.55511,-4.22045 0.9902,3.92974 1.47023,7.84291 1.80843,11.62548 -0.75723,4.08773 -1.86964,8.18862 -3.21982,12.27062 -3.03851,9.20921 -7.30656,18.62495 -12.88709,27.8117 -5.32255,8.81055 -11.98401,17.60785 -20.71816,25.00859 -3.89692,3.29857 -8.27998,6.28106 -13.17924,8.60139 -4.60629,2.18125 -9.67956,3.68328 -15.01466,4.17788 -7.61837,0.67905 -15.42744,0.13581 -23.05125,-1.63007 -6.85386,-1.58754 -13.39773,-4.12527 -19.3918,-7.46385 -5.99407,-3.33858 -11.43786,-7.47775 -16.13911,-12.26375 -8.90018,-9.14717 -15.04932,-19.99774 -19.04617,-30.89141 -2.08945,-7.87423 -3.28206,-15.72656 -3.87788,-23.34386 -0.59581,-7.6173 -0.59532,-14.99948 -0.25046,-21.9917 5.36122,2.87908 10.21929,5.71587 14.94379,8.11202 4.37786,3.38005 8.85196,6.1382 13.29982,8.20949 6.84663,3.20833 13.66015,5.0068 19.74869,6.29079 4.52524,1.15384 8.66149,1.94396 12.32296,2.53752 3.66147,0.59356 6.84862,0.98904 9.49633,1.28833 5.29544,0.59859 8.42914,0.83258 9.01199,1.06951 -4.4e-4,0.0793 -4.4e-4,0.0796 -4.4e-4,0.0796 0,0 0,2.3e-4 -4.4e-4,0.0796 -0.58596,0.23047 -3.72349,0.49944 -9.11688,0.69915 -2.6967,0.0999 -5.95776,0.17499 -9.74133,0.14002 -3.78358,-0.035 -8.09018,-0.17851 -12.86598,-0.59298 -3.21977,-0.41422 -6.66095,-0.99355 -10.27256,-1.84751 -3.61161,-0.85396 -7.39399,-1.98227 -11.26806,-3.53422 -5.06555,-2.04326 -10.16377,-4.84043 -15.10326,-8.33456 -3.18385,-3.43848 -6.07548,-7.3195 -8.95297,-11.15164 0.73035,6.25805 1.89609,12.74779 3.70822,19.30744 1.81213,6.55965 4.27092,13.18895 7.63066,19.67774 3.86188,9.82044 9.47079,19.46133 17.32393,27.30414 4.04048,4.07923 8.75464,7.61265 13.95649,10.47107 5.20186,2.85842 10.89091,5.04168 16.83742,6.41756 6.61453,1.53045 13.37468,2.02109 19.92967,1.45713 4.02261,-0.32608 8.00246,-1.49474 11.72511,-3.1953 3.98993,-1.82259 7.69936,-4.31054 11.13855,-7.12211 7.76973,-6.34509 13.94349,-14.27887 19.14826,-22.39704 5.41169,-8.48956 9.65296,-17.18851 12.78168,-25.7182 1.38315,-3.77992 2.53878,-7.48109 3.35089,-11.10814 1.57911,-2.31764 2.9418,-4.47349 3.7023,-6.46509 -2.1935,1.9006 -4.3366,4.30429 -6.62879,6.59285 -3.84264,2.26024 -7.71286,4.27974 -11.61386,5.79122 -6.39553,2.45201 -12.44266,3.59556 -17.76749,4.2333 -4.45259,0.53477 -8.43149,0.73415 -11.88716,0.78281 -3.45567,0.0487 -6.38875,-0.0554 -8.76181,-0.2124 -4.7461,-0.31394 -7.25514,-0.81358 -7.25259,-1.27481 z"
         style="fill:#000000;fill-rule:evenodd;stroke:none" />
      <path
         sodipodi:nodetypes="csscscsc"
         inkscape:connector-curvature="0"
         id="path9232"
         d="m 350.30389,372.75188 c 0,0 -23.43682,-26.02933 -22.98443,-14.065 1.26318,33.40716 24.98844,67.23244 29.82479,68.68843 4.83635,1.45599 32.1386,14.23225 32.1386,14.23225 0,0 29.4374,5.93546 47.44758,-10.91365 19.55166,-18.29122 35.77269,-67.24582 35.77269,-67.24582 0,0 -49.0401,14.87764 -62.99029,15.7394 -24.21854,1.49607 -59.20894,-6.43561 -59.20894,-6.43561 z"
         style="fill:#000000;fill-rule:evenodd;stroke:none" />
      <path
         transform="translate(342.59791,348.28761)"
         inkscape:connector-curvature="0"
         inkscape:original-d="m -38.890873,0.36561489 c 0,0 5.555839,6.56599151 20.708127,2.02030511 15.1522884,-4.5456865 15.1522884,-9.0913729 15.1522884,-9.0913729"
         inkscape:path-effect="#path-effect3103"
         id="path3101"
         d="m -38.89081,0.3656889 c 0.330607,-0.56997876 2.395759,-0.0631864 5.383886,1.1679324 1.634574,0.3017026 3.56933,0.4409886 5.765568,0.2636498 2.196238,-0.1773387 4.6591,-0.6697014 7.25216,-1.35816092 0.536576,-0.14246144 1.067425,-0.28959472 1.590814,-0.4386441379 2.908263,-0.8824389221 5.585004,-1.6087261421 7.777928,-2.4126371421 2.1929242,-0.803911 3.9164305,-1.6896691 5.2315156,-2.4868908 0.904375,-0.558898 1.5290314,-0.9729772 1.9671615,-1.3204009 0.1974616,-0.1545253 0.3587979,-0.266696 0.5004321,-0.353352 0.062427,-0.052127 0.1305687,-0.074097 0.1933593,-0.09405 0.06279,-0.019953 0.1222994,-0.036075 0.1822243,-0.038498 2e-7,0 3e-7,0 4e-7,0 0.015277,-8.84e-5 0.015303,-8.99e-5 0.015303,-8.99e-5 0,0 2.79e-5,-1.235e-4 0.015302,2.776e-4 2e-7,0 3e-7,0 4e-7,0 0.05989,0.00333 0.1201961,0.026745 0.1753696,0.079166 0.055173,0.052421 0.1042456,0.1364042 0.136343,0.2171111 0.07873,0.1888436 0.1135553,0.4780619 0.074969,0.8130621 -0.042063,0.3678256 -0.1675857,0.8169052 -0.3968545,1.3024192 -0.2292688,0.485514 -0.564356,1.0065373 -0.9766167,1.5012953 -1.1385094,1.400238 -2.9427876,2.9506949 -5.2902093,4.2769261 -2.3474216,1.3262312 -5.2297036,2.4129536 -8.1749556,3.2865694 -0.584494,0.1833153 -1.185666,0.3558451 -1.801407,0.5140594 -2.975634,0.764587 -5.996594,1.0933292 -8.702892,0.9460816 -2.706297,-0.1472477 -5.089855,-0.7653182 -6.921243,-1.5918558 -2.826291,-2.1414398 -4.328765,-3.70399153 -3.998158,-4.2739703 z"
         style="fill:#000000;fill-rule:evenodd;stroke:none" />
      <path
         transform="translate(342.59791,348.28761)"
         inkscape:connector-curvature="0"
         inkscape:original-d="m 119.198,1.3757674 c 0,0 1.01015,13.1319826 18.68782,14.6472116"
         inkscape:path-effect="#path-effect3107"
         id="path3105"
         d="m 119.198,1.3758306 c 0.45804,-0.1843471 1.16189,0.3327997 1.98214,1.3442899 0.82025,1.0114902 1.75671,2.5169537 2.70104,4.3519548 0.92961,1.0403656 2.07357,2.0615713 3.41787,2.9798997 0.47021,0.321216 0.94677,0.6184 1.42342,0.893209 0,0 0,0 1e-5,1e-6 2.28295,1.408967 4.62275,2.298837 6.35737,3.059744 1.73461,0.760906 2.85918,1.397247 2.80597,2.01805 -0.0532,0.620803 -1.29103,1.137736 -3.39252,1.199295 -1.05074,0.03078 -2.31442,-0.06238 -3.71122,-0.362308 -1.39679,-0.299924 -2.92695,-0.808837 -4.46877,-1.603945 0,0 0,-1e-6 0,-1e-6 -0.67613,-0.369439 -1.34751,-0.796148 -1.99876,-1.278939 -1.86186,-1.380257 -3.34528,-3.076716 -4.35143,-4.7604356 -0.66567,-2.1652731 -1.09128,-4.0440745 -1.2306,-5.4167806 -0.13933,-1.3727061 0.007,-2.2396872 0.46548,-2.4240342 z"
         style="fill:#000000;fill-rule:evenodd;stroke:none" />
      <path
         sodipodi:nodetypes="zsszz"
         inkscape:connector-curvature="0"
         id="path3109-0-5"
         d="m 355.37726,414.33465 c 4.65759,-24.56878 -16.2286,-48.73081 -9.67365,-44.16923 24.04789,16.73489 68.85065,24.94604 108.29034,7.13696 10.77317,-4.86465 -25.26245,20.74443 -16.38722,42.91254 8.87523,22.16812 -86.88706,18.68851 -82.22947,-5.88027 z"
         style="fill:#ffffff;fill-rule:evenodd;stroke:none" />
      <path
         transform="translate(342.59791,348.28761)"
         inkscape:connector-curvature="0"
         inkscape:original-d="m 30.809652,31.680344 4.040611,53.538084"
         inkscape:path-effect="#path-effect3151"
         id="path3149"
         d="m 30.809652,31.680344 c 1.376086,-0.103856 3.398007,11.804387 4.513216,26.580898 1.115208,14.776511 0.903481,26.85333 -0.472605,26.957186 C 33.474177,85.322284 31.452256,73.414041 30.337047,58.63753 29.221839,43.861019 29.433566,31.7842 30.809652,31.680344 z"
         style="fill:#000000;fill-rule:evenodd;stroke:none" />
      <path
         transform="translate(342.59791,348.28761)"
         inkscape:connector-curvature="0"
         inkscape:original-d="M 59.599,36.731106 58.083771,89.259038"
         inkscape:path-effect="#path-effect3155"
         id="path3153"
         d="m 59.599,36.731106 c 1.379426,0.03979 2.159549,11.838342 1.741346,26.336051 -0.418203,14.49771 -1.877149,26.231672 -3.256575,26.191881 C 56.704345,89.219247 55.924222,77.420696 56.342425,62.922987 56.760628,48.425277 58.219574,36.691315 59.599,36.731106 z"
         style="fill:#000000;fill-rule:evenodd;stroke:none" />
      <path
         transform="translate(342.59791,348.28761)"
         inkscape:connector-curvature="0"
         inkscape:original-d="M 84.852813,32.690496 78.286822,93.299648"
         inkscape:path-effect="#path-effect3159"
         id="path3157"
         d="m 84.852813,32.690496 c 1.371973,0.14863 1.014676,13.845708 -0.797538,30.573834 -1.812213,16.728126 -4.39648,30.183948 -5.768453,30.035318 -1.371973,-0.14863 -1.014676,-13.845708 0.797538,-30.573834 1.812213,-16.728126 4.39648,-30.183948 5.768453,-30.035318 z"
         style="fill:#000000;fill-rule:evenodd;stroke:none" />
      <path
         transform="translate(342.59791,348.28761)"
         inkscape:connector-curvature="0"
         inkscape:original-d="m 12.12183,51.883394 c 0,0 0,10.101526 33.335034,13.63706 33.335034,3.535533 49.497475,-7.576144 49.497475,-7.576144"
         inkscape:path-effect="#path-effect3163"
         id="path3161"
         d="m 12.12183,51.883477 c 0.22857,-0.0733 0.633431,0.429337 1.166666,1.381418 0,10e-7 10e-7,10e-7 10e-7,10e-7 0.357573,0.439384 0.824943,0.936861 1.45338,1.447201 0.628438,0.51034 1.422877,1.031851 2.354254,1.570826 1.391559,0.821806 3.033578,1.658511 4.942491,2.414415 1.908913,0.755903 4.086068,1.429474 6.518783,1.987477 2.432715,0.558004 5.121732,1.000125 8.009425,1.369498 2.887693,0.369372 5.974097,0.66687 9.15078,1.007678 2.101083,0.205234 4.256238,0.37665 6.450252,0.499955 5.873213,0.33008 11.472862,0.267175 16.535121,-0.146358 5.06226,-0.413533 9.588064,-1.17586 13.394629,-2.033882 7.538657,-2.649044 12.500433,-4.041716 12.854341,-3.441688 0,10e-7 10e-7,10e-7 10e-7,10e-7 0.0024,0.0043 0.0024,0.0043 0.0024,0.0043 0,0 1.4e-5,-7e-6 0.0023,0.0043 0,0 0,10e-7 10e-7,10e-7 0.309751,0.618455 -4.12065,3.145118 -11.683661,6.797968 -3.869169,1.324022 -8.591634,2.492538 -13.916877,3.195058 -5.325243,0.70252 -11.250656,0.934931 -17.413963,0.604997 -2.302382,-0.123251 -4.55706,-0.317984 -6.746036,-0.567756 -3.17999,-0.333385 -6.340711,-0.715558 -9.34042,-1.239881 -2.999708,-0.524324 -5.837446,-1.191034 -8.412062,-2.013096 -2.574617,-0.822061 -4.885925,-1.798559 -6.882074,-2.86712 -1.996149,-1.06856 -3.677787,-2.227196 -5.0389,-3.360124 -0.965467,-0.808014 -1.766826,-1.665421 -2.350217,-2.4791 -0.583392,-0.813679 -0.953698,-1.581732 -1.159995,-2.220631 0,0 0,-1e-6 0,-1e-6 -0.155079,-1.19427 -0.11919,-1.842187 0.10938,-1.915487 z"
         style="fill:#000000;fill-rule:evenodd;stroke:none" />
    </g>
  </g>
</svg>
