<?xml version="1.0" encoding="UTF-8" standalone="no"?>
<!-- Created with Inkscape (http://www.inkscape.org/) -->

<svg
   xmlns:dc="http://purl.org/dc/elements/1.1/"
   xmlns:cc="http://creativecommons.org/ns#"
   xmlns:rdf="http://www.w3.org/1999/02/22-rdf-syntax-ns#"
   xmlns:svg="http://www.w3.org/2000/svg"
   xmlns="http://www.w3.org/2000/svg"
   xmlns:sodipodi="http://sodipodi.sourceforge.net/DTD/sodipodi-0.dtd"
   xmlns:inkscape="http://www.inkscape.org/namespaces/inkscape"
   width="203.52582"
   height="52.819519"
   id="svg5004"
   version="1.1"
   inkscape:version="0.48.3.1 r9886"
   sodipodi:docname="boca_3.svg">
  <defs
     id="defs5006">
    <inkscape:path-effect
       effect="skeletal"
       id="path-effect5444"
       is_visible="true"
       pattern="m -13520.656,1742.8336 c 0,-2.76 2.24,-5 5,-5 2.76,0 5,2.24 5,5 0,2.76 -2.24,5 -5,5 -2.76,0 -5,-2.24 -5,-5 z"
       copytype="single_stretched"
       prop_scale="1"
       scale_y_rel="false"
       spacing="0"
       normal_offset="0"
       tang_offset="0"
       prop_units="false"
       vertical_pattern="false"
       fuse_tolerance="0" />
    <inkscape:path-effect
       effect="skeletal"
       id="path-effect5448"
       is_visible="true"
       pattern="m -13510.554,1754.9555 c 0,-2.76 2.24,-5 5,-5 2.76,0 5,2.24 5,5 0,2.76 -2.24,5 -5,5 -2.76,0 -5,-2.24 -5,-5 z"
       copytype="single_stretched"
       prop_scale="1"
       scale_y_rel="false"
       spacing="0"
       normal_offset="0"
       tang_offset="0"
       prop_units="false"
       vertical_pattern="false"
       fuse_tolerance="0" />
    <inkscape:path-effect
       effect="skeletal"
       id="path-effect5555"
       is_visible="true"
       pattern="m -13598.957,-1733.111 c 0,-2.76 2.24,-5 5,-5 2.76,0 5,2.24 5,5 0,2.76 -2.24,5 -5,5 -2.76,0 -5,-2.24 -5,-5 z"
       copytype="single_stretched"
       prop_scale="1"
       scale_y_rel="false"
       spacing="0"
       normal_offset="0"
       tang_offset="0"
       prop_units="false"
       vertical_pattern="false"
       fuse_tolerance="0" />
    <inkscape:path-effect
       effect="skeletal"
       id="path-effect5551"
       is_visible="true"
       pattern="m -13631.282,-1718.9688 c 0,-2.76 2.24,-5 5,-5 2.76,0 5,2.24 5,5 0,2.76 -2.24,5 -5,5 -2.76,0 -5,-2.24 -5,-5 z"
       copytype="single_stretched"
       prop_scale="1"
       scale_y_rel="false"
       spacing="0"
       normal_offset="0"
       tang_offset="0"
       prop_units="false"
       vertical_pattern="false"
       fuse_tolerance="0" />
    <inkscape:path-effect
       effect="skeletal"
       id="path-effect5547"
       is_visible="true"
       pattern="m -13593.754,-1701.9906 c 0,-2.76 2.24,-5 5,-5 2.76,0 5,2.24 5,5 0,2.76 -2.24,5 -5,5 -2.76,0 -5,-2.24 -5,-5 z"
       copytype="single_stretched"
       prop_scale="1"
       scale_y_rel="false"
       spacing="0"
       normal_offset="0"
       tang_offset="0"
       prop_units="false"
       vertical_pattern="false"
       fuse_tolerance="0" />
    <inkscape:path-effect
       effect="skeletal"
       id="path-effect6343"
       is_visible="true"
       pattern="m -13806.844,1881.8039 c 0,-2.76 2.24,-5 5,-5 2.76,0 5,2.24 5,5 0,2.76 -2.24,5 -5,5 -2.76,0 -5,-2.24 -5,-5 z"
       copytype="single_stretched"
       prop_scale="1"
       scale_y_rel="false"
       spacing="0"
       normal_offset="0"
       tang_offset="0"
       prop_units="false"
       vertical_pattern="false"
       fuse_tolerance="0" />
    <inkscape:path-effect
       effect="skeletal"
       id="path-effect6428"
       is_visible="true"
       pattern="m -13788.272,1894.6611 c 0,-2.76 2.24,-5 5,-5 2.76,0 5,2.24 5,5 0,2.76 -2.24,5 -5,5 -2.76,0 -5,-2.24 -5,-5 z"
       copytype="single_stretched"
       prop_scale="1"
       scale_y_rel="false"
       spacing="0"
       normal_offset="0"
       tang_offset="0"
       prop_units="false"
       vertical_pattern="false"
       fuse_tolerance="0" />
    <inkscape:path-effect
       effect="skeletal"
       id="path-effect6436"
       is_visible="true"
       pattern="m -13806.844,1881.8039 c 0,-2.76 2.24,-5 5,-5 2.76,0 5,2.24 5,5 0,2.76 -2.24,5 -5,5 -2.76,0 -5,-2.24 -5,-5 z"
       copytype="single_stretched"
       prop_scale="1"
       scale_y_rel="false"
       spacing="0"
       normal_offset="0"
       tang_offset="0"
       prop_units="false"
       vertical_pattern="false"
       fuse_tolerance="0" />
    <inkscape:path-effect
       effect="skeletal"
       id="path-effect6440"
       is_visible="true"
       pattern="m -13798.762,1910.0882 c 0,-2.76 2.24,-5 5,-5 2.76,0 5,2.24 5,5 0,2.76 -2.24,5 -5,5 -2.76,0 -5,-2.24 -5,-5 z"
       copytype="single_stretched"
       prop_scale="1"
       scale_y_rel="false"
       spacing="0"
       normal_offset="0"
       tang_offset="0"
       prop_units="false"
       vertical_pattern="false"
       fuse_tolerance="0" />
    <inkscape:path-effect
       effect="skeletal"
       id="path-effect6590"
       is_visible="true"
       pattern="m -13951.535,1989.5733 c 0,-2.76 2.24,-5 5,-5 2.76,0 5,2.24 5,5 0,2.76 -2.24,5 -5,5 -2.76,0 -5,-2.24 -5,-5 z"
       copytype="single_stretched"
       prop_scale="1"
       scale_y_rel="false"
       spacing="0"
       normal_offset="0"
       tang_offset="0"
       prop_units="false"
       vertical_pattern="false"
       fuse_tolerance="0" />
    <inkscape:path-effect
       effect="skeletal"
       id="path-effect6594"
       is_visible="true"
       pattern="m -13951.535,1989.5733 c 0,-2.76 2.24,-5 5,-5 2.76,0 5,2.24 5,5 0,2.76 -2.24,5 -5,5 -2.76,0 -5,-2.24 -5,-5 z"
       copytype="single_stretched"
       prop_scale="1"
       scale_y_rel="false"
       spacing="0"
       normal_offset="0"
       tang_offset="0"
       prop_units="false"
       vertical_pattern="false"
       fuse_tolerance="0" />
    <inkscape:path-effect
       effect="skeletal"
       id="path-effect6598"
       is_visible="true"
       pattern="m -13951.535,1989.5733 c 0,-2.76 2.24,-5 5,-5 2.76,0 5,2.24 5,5 0,2.76 -2.24,5 -5,5 -2.76,0 -5,-2.24 -5,-5 z"
       copytype="single_stretched"
       prop_scale="1"
       scale_y_rel="false"
       spacing="0"
       normal_offset="0"
       tang_offset="0"
       prop_units="false"
       vertical_pattern="false"
       fuse_tolerance="0" />
    <inkscape:path-effect
       effect="skeletal"
       id="path-effect6727"
       is_visible="true"
       pattern="m -13907.088,1878.4565 c 0,-2.76 2.24,-5 5,-5 2.76,0 5,2.24 5,5 0,2.76 -2.24,5 -5,5 -2.76,0 -5,-2.24 -5,-5 z"
       copytype="single_stretched"
       prop_scale="1"
       scale_y_rel="false"
       spacing="0"
       normal_offset="0"
       tang_offset="0"
       prop_units="false"
       vertical_pattern="false"
       fuse_tolerance="0" />
    <inkscape:path-effect
       effect="skeletal"
       id="path-effect6731"
       is_visible="true"
       pattern="m -13901.374,1888.4565 c 0,-2.76 2.24,-5 5,-5 2.76,0 5,2.24 5,5 0,2.76 -2.24,5 -5,5 -2.76,0 -5,-2.24 -5,-5 z"
       copytype="single_stretched"
       prop_scale="1"
       scale_y_rel="false"
       spacing="0"
       normal_offset="0"
       tang_offset="0"
       prop_units="false"
       vertical_pattern="false"
       fuse_tolerance="0" />
  </defs>
  <sodipodi:namedview
     id="base"
     pagecolor="#ffffff"
     bordercolor="#666666"
     borderopacity="1.0"
     inkscape:pageopacity="0.0"
     inkscape:pageshadow="2"
     inkscape:zoom="0.7"
     inkscape:cx="34.854549"
     inkscape:cy="28.923747"
     inkscape:document-units="px"
     inkscape:current-layer="layer1"
     showgrid="false"
     fit-margin-top="0"
     fit-margin-left="0"
     fit-margin-right="0"
     fit-margin-bottom="0"
     inkscape:window-width="560"
     inkscape:window-height="453"
     inkscape:window-x="6"
     inkscape:window-y="69"
     inkscape:window-maximized="0" />
  <metadata
     id="metadata5009">
    <rdf:RDF>
      <cc:Work
         rdf:about="">
        <dc:format>image/svg+xml</dc:format>
        <dc:type
           rdf:resource="http://purl.org/dc/dcmitype/StillImage" />
        <dc:title></dc:title>
      </cc:Work>
    </rdf:RDF>
  </metadata>
  <g
     inkscape:label="Capa 1"
     inkscape:groupmode="layer"
     id="layer1"
     transform="translate(-371.4179,-471.11598)">
    <g
       transform="translate(-1048.7108,-3380.6054)"
       style="display:inline"
       id="g5170">
      <path
         inkscape:connector-curvature="0"
         inkscape:original-d="m 1456.41,3870.6606 c 6.3043,-2.3641 33.7985,-5.6884 33.7985,-5.6884 0,0 20.4899,7.8807 26.7947,3.1523 6.3042,-4.7284 29.9463,0 29.9463,0 l 33.9755,4.9004"
         inkscape:path-effect="#path-effect6590"
         id="path6588"
         d="m 1456.41,3870.6606 c -0.099,-0.2648 0.085,-0.6369 0.5747,-1.0739 0.4896,-0.437 1.2948,-0.9265 2.3167,-1.4226 0,0 0,0 0,0 1.1972,-0.5806 2.7509,-1.1899 4.5941,-1.8022 2.9976,-0.9952 6.8164,-2.015 11.2596,-3.0108 4.5332,-0.8761 9.7697,-1.7709 15.5439,-2.6582 10e-5,0 10e-5,0 10e-5,0 0.03,0 0.06,0.01 0.089,0.013 0.083,0.012 0.1658,0.025 0.2489,0.037 0.3195,0.048 0.6409,0.096 0.9642,0.1449 0,0 10e-5,0 10e-5,0 0.2041,0.066 0.4132,0.1323 0.627,0.1995 0,0 0,0 0,0 0.7579,0.238 1.5329,0.4704 2.3242,0.6994 2.3887,0.6899 4.8569,1.3306 7.3933,1.8565 2.7173,0.5492 5.3867,1.0143 7.946,1.0293 1.0643,-0 2.0007,-0.033 2.7556,-0.2136 0.5968,-0.1895 0.9772,-0.256 0.9561,-0.3343 0.7106,-0.4968 1.4107,-0.9042 2.0877,-1.2327 0.9862,-0.4785 1.9161,-0.7861 2.7536,-0.9632 1.8246,-0.4557 3.5488,-0.6709 5.1349,-0.7622 0,0 0,0 0,0 3.8267,-0.2355 7.4295,-0 10.7705,0.3688 0,0 0,0 0,0 3.1773,0.3449 6.2208,0.8283 9.1146,1.3895 0,0 0,0 0,0 0.9609,0.1861 1.9117,0.3821 2.8504,0.5896 0,0 0,0 0,0 0,0 10e-5,0 10e-5,0 0.2646,0.059 0.5312,0.1185 0.7994,0.1805 0,0 0,0 0,0 0,0 0,0 0,0 0,0 0,0 0,0 0.034,0.01 0.071,0.021 0.1082,0.032 0,0 0,0 0,0 0,0 0,0 0,0 0.017,0 0.034,0.01 0.052,0.012 0.01,0 0.012,0 0.018,0 19.9711,3.7185 33.5076,7.3663 33.2315,9.2804 -0.2761,1.9141 -14.3399,1.581 -34.7195,-0.5204 -0.01,-0 -0.013,-0 -0.019,-0 -0.018,-0 -0.035,-0.01 -0.053,-0.01 0,0 0,0 0,0 0,0 0,0 0,0 -0.096,-0.015 -0.1947,-0.03 -0.2949,-0.046 0,0 0,0 0,0 0,0 -10e-5,0 -10e-5,0 0,0 0,0 0,0 -0.2394,-0.035 -0.4831,-0.07 -0.731,-0.1049 0,0 0,0 0,0 0,0 0,0 0,0 -0.8791,-0.1236 -1.7753,-0.2407 -2.688,-0.3535 0,0 0,0 0,0 -2.7535,-0.3393 -5.6,-0.6327 -8.5174,-0.8247 0,0 0,0 0,0 -3.1143,-0.1963 -6.2127,-0.3245 -9.2116,-0.071 0,0 0,0 0,0 -1.2414,0.1112 -2.3717,0.2452 -3.3413,0.5127 -0.4578,0.1582 -0.8242,0.2629 -1.0599,0.3504 -0.1618,0.06 -0.2611,0.1118 -0.2871,0.1675 -1.7533,1.2207 -3.4643,1.8713 -4.9616,2.1088 -1.8147,0.3439 -3.496,0.4173 -5.0069,0.3481 -3.6012,-0.1456 -6.8905,-0.7962 -9.8702,-1.5753 -2.8426,-0.7281 -5.5338,-1.5927 -8.072,-2.5242 -0.8432,-0.309 -1.6772,-0.6283 -2.4997,-0.9593 0,0 0,0 0,0 -0.232,-0.093 -0.4665,-0.189 -0.703,-0.2873 0,0 0,0 0,0 0.2063,0.01 0.411,0.01 0.614,0.013 0.053,10e-4 0.1054,0 0.158,0 0.019,3e-4 0.038,6e-4 0.057,9e-4 10e-5,0 10e-5,0 10e-5,0 -4.9103,0.5519 -9.4649,0.9759 -13.554,1.2612 -4.472,0.3154 -8.2996,0.5431 -11.3707,0.6766 -1.8961,0.083 -3.4824,0.1251 -4.755,0.1226 0,0 0,0 0,0 -1.1176,0 -1.9536,-0.048 -2.5563,-0.1421 -0.6026,-0.094 -0.9727,-0.2444 -1.072,-0.5092 z"
         style="fill:#000000;fill-rule:evenodd;stroke:none" />
      <path
         inkscape:connector-curvature="0"
         inkscape:original-d="m 1428.5941,3880.7336 c 0,0 39.3503,-4.7284 62.4965,0 23.1471,4.7285 39.3491,7.8807 60.181,3.1522 20.832,-4.7283 69.44,-6.3045 69.44,-6.3045"
         inkscape:path-effect="#path-effect6594"
         id="path6592"
         d="m 1428.5941,3880.7336 c -0,-0.042 4e-4,-0.085 0.015,-0.129 0.015,-0.043 0.039,-0.087 0.072,-0.1314 0,0 0,0 0,0 0.067,-0.089 0.1703,-0.1816 0.31,-0.2775 0,0 0,0 0,0 0.2762,-0.1897 0.6941,-0.3923 1.2466,-0.6049 0,0 0,0 0,0 1.0752,-0.4136 2.6634,-0.8654 4.7164,-1.3293 0,0 0,0 0,0 3.8294,-0.8654 9.2856,-1.7834 16.0746,-2.5141 0,0 0,0 0,0 5.9224,-0.6383 12.8774,-1.1507 20.6728,-1.1668 0,0 0,0 0,0 6.2041,-0.022 13.05,0.2307 20.3254,1.5653 0,0 0,0 0,0 0,0 0,0 0,0 4.8347,0.8857 9.8095,1.8449 14.8903,2.7011 5.0809,0.8562 10.2677,1.6081 15.5423,2.0277 0.8039,0.065 1.611,0.1209 2.4209,0.1671 8.8424,0.5054 17.427,-0.1723 25.3269,-1.841 7.1681,-1.5104 13.9709,-2.1534 20.2217,-2.6458 8.5964,-0.6871 16.3894,-0.9612 23.1278,-1.0491 0,0 0,0 0,0 7.9684,-0.1045 14.4815,0.071 19.1282,0.4113 0,0 0,0 0,0 2.5172,0.1842 4.4881,0.4183 5.8464,0.6915 0,0 0,0 0,0 0.7,0.1408 1.2377,0.2921 1.6038,0.4525 0,0 0,0 0,0 0.1854,0.081 0.3269,0.1649 0.4232,0.2508 0,0 0,0 0,0 0,0 0,0 0,0 0.05,0.1035 0.088,0.1632 0.1131,0.2006 0,0 0,0 0,0 0,0 0,0 0,0 0.013,0.034 0.023,0.051 0.029,0.06 0.01,0.01 0.01,0.01 0.01,0.01 0,0 0,0 3e-4,0.01 -0.015,0.01 -0.024,0.027 -0.035,0.062 0,0 0,0 0,0 0,0 0,0 0,0 -0.023,0.039 -0.056,0.1011 -0.099,0.2077 0,0 0,0 0,0 0,0 0,0 0,0 -0.09,0.092 -0.225,0.1853 -0.4038,0.2794 0,0 0,0 0,0 -0.3529,0.1857 -0.8763,0.3753 -1.5615,0.5691 0,0 0,0 0,0 -1.3294,0.3759 -3.2665,0.7674 -5.7463,1.1785 0,0 0,0 0,0 -4.578,0.7589 -11.0019,1.5784 -18.847,2.5299 0,0 0,0 0,0 -6.6382,0.8053 -14.2855,1.6878 -22.6443,2.8416 -6.1427,0.8532 -12.5981,1.7335 -19.0399,3.3122 -8.732,2.1065 -18.2607,3.0145 -28.0248,2.4554 -0.8944,-0.051 -1.7852,-0.1143 -2.672,-0.1888 -5.7113,-0.4871 -11.1959,-1.3405 -16.4451,-2.3286 -5.2491,-0.9881 -10.2633,-2.1098 -15.0397,-3.1875 0,0 0,0 0,0 0,0 0,0 0,0 -6.3734,-1.4536 -12.7355,-2.0124 -18.7168,-2.4237 0,0 0,0 0,0 -7.467,-0.504 -14.258,-0.6333 -20.109,-0.7256 0,0 0,0 0,0 -6.7036,-0.1049 -12.1581,-0.1367 -16.0434,-0.299 0,0 0,0 0,0 -2.0829,-0.087 -3.7124,-0.2091 -4.8427,-0.3866 0,0 0,0 0,0 -0.5808,-0.091 -1.0291,-0.1972 -1.339,-0.32 0,0 0,0 0,0 -0.157,-0.062 -0.2783,-0.1287 -0.3632,-0.1999 0,0 0,0 0,0 -0.043,-0.036 -0.076,-0.073 -0.1004,-0.1111 -0.025,-0.039 -0.04,-0.08 -0.045,-0.1218 z"
         style="fill:#000000;fill-rule:evenodd;stroke:none" />
      <path
         inkscape:connector-curvature="0"
         inkscape:original-d="m 1491.7845,3893.3428 c 0,0 11.033,6.3045 31.5229,6.3045 20.49,0 36.2511,-4.7284 36.2511,-4.7284"
         inkscape:path-effect="#path-effect6598"
         id="path6596"
         d="m 1491.7846,3893.3428 c 0.2583,-1.2916 3.9597,-1.77 9.6749,-1.5115 5.7153,0.2585 13.4439,1.2538 22.0113,2.9224 0,0 0,0 0,0 0.6707,-0.096 1.3466,-0.1894 2.0272,-0.2805 9.1001,-1.2184 17.3632,-1.7758 23.5254,-1.6971 6.1621,0.079 10.2234,0.7934 10.5325,2.1309 0,0 0,0 0,0 0,0 0,0 0,0 0,0.012 0,0.012 0,0.012 0,0 0,0 0,0.012 0,0 0,0 0,0 0,0 0,0 0,0 0.264,1.3434 -3.3393,3.0579 -9.5367,4.7487 -6.1974,1.6908 -14.989,3.3579 -24.7144,4.595 -0.7274,0.093 -1.4496,0.1813 -2.1659,0.2664 0,0 0,0 0,0 -9.0123,-1.8473 -17.0451,-4.0042 -22.6964,-6.019 -5.6512,-2.0148 -8.9214,-3.8874 -8.663,-5.1791 z"
         style="fill:#000000;fill-rule:evenodd;stroke:none" />
      <path
         inkscape:connector-curvature="0"
         inkscape:original-d="m 1618.1095,3888.9199 c 0,0 4.4579,-28.9771 -6.687,-32.3205 -11.145,-3.3435 -11.145,-3.3435 -11.145,-3.3435"
         inkscape:path-effect="#path-effect6727"
         id="path6725"
         d="m 1618.1095,3888.9199 c -1.0604,-0.059 -1.9572,-1.66 -2.6186,-4.3107 -0.6613,-2.6507 -1.0873,-6.3511 -1.205,-10.6539 0,0 0,0 0,0 -0.3345,-2.4098 -0.6274,-4.8821 -1.1872,-7.1723 -0.1753,-0.7172 -0.3739,-1.3979 -0.6025,-2.0423 -0.4174,-1.1635 -0.762,-2.1023 -1.2,-2.7253 0,0 0,0 0,0 -0.3552,-0.5422 -0.7378,-1.0263 -1.1167,-1.2726 0,0 0,0 0,0 -4.1083,-1.8114 -7.2345,-3.6481 -8.8127,-5.1993 0,0 0,0 0,0 -0.5286,-0.5196 -0.8836,-1.0071 -1.0436,-1.4509 0,0 0,0 0,0 -0.058,-0.1603 -0.09,-0.3149 -0.096,-0.4633 0,0 0,0 0,0 0,0 0,0 0,0 0.058,-0.2542 0.061,-0.3141 0.059,-0.3453 -0,-0.021 -0,-0.025 -0.01,-0.027 -0,-0 -0,-0 -0,-0 0,0 -0,0 0,-2e-4 0,-2e-4 0.01,-0 0.021,-0.018 0.018,-0.025 0.049,-0.077 0.1406,-0.321 0,0 0,0 0,0 0,0 0,0 0,0 0.087,-0.1206 0.1987,-0.2318 0.3352,-0.3338 0,0 0,0 0,0 0.3779,-0.2825 0.9426,-0.4941 1.67,-0.6369 0,0 0,0 0,0 2.1714,-0.4263 5.7924,-0.2389 10.2193,0.5103 0,0 0,0 0,0 2.1915,0.5248 4.2748,1.6864 5.8543,3.421 0,0 0,0 0,0 1.5155,1.6757 2.6301,3.5922 3.3183,5.4914 0.3813,1.0453 0.6999,2.1139 0.9571,3.1935 0.8214,3.4477 0.9527,6.6864 0.8086,9.4835 0,0 0,0 0,0 -0.6062,4.4218 -1.4498,8.1811 -2.4067,10.809 -0.957,2.628 -2.0272,4.1248 -3.0876,4.0655 z"
         style="fill:#000000;fill-rule:evenodd;stroke:none" />
      <path
         inkscape:connector-curvature="0"
         inkscape:original-d="m 1434.0257,3865.4594 c 0,0 -8.9163,3.3434 -8.9163,14.4885 0,11.145 0,14.4885 0,14.4885"
         inkscape:path-effect="#path-effect6731"
         id="path6729"
         d="m 1434.0256,3865.4594 c 0.04,0.095 0.07,0.1936 0.091,0.2945 0,0 0,0 0,0 0.02,0.095 0.033,0.1926 0.039,0.2924 0.012,0.197 -0,0.4027 -0.04,0.6186 0,0 0,0 0,0 0,0 0,0 0,0 -0.068,0.4179 -0.2086,0.8659 -0.4124,1.3526 0,0 0,0 0,0 -0.3872,0.9291 -0.95,1.9797 -1.5028,3.1575 0,0 0,0 0,0 -0.4758,0.994 -0.9106,2.1078 -1.2553,3.3625 -0.3447,1.2547 -0.6048,2.6501 -0.7599,4.135 -0.045,0.4296 -0.08,0.8554 -0.1055,1.2754 -0.1563,4.677 -0.9229,8.7609 -2.0352,11.3903 0,0 0,0 0,0 -0.4387,1.0371 -0.9312,1.8479 -1.4612,2.3796 0,0 0,0 0,0 -0.2369,0.2378 -0.4813,0.4197 -0.7318,0.5411 0,0 0,0 0,0 0,0 0,0 0,0 -0.1181,0.057 -0.2375,0.1011 -0.3581,0.1309 0,0 0,0 0,0 0,0 0,0 0,0 -0.3433,0.028 -0.3802,0.043 -0.3838,0.046 0,0 0,0 0,0 0,0 0,0 0,0 0,0 0,0 0,0 -4e-4,3e-4 -4e-4,2e-4 -4e-4,2e-4 0,0 0,10e-5 -4e-4,-2e-4 0,0 0,0 0,0 0,0 0,0 0,0 0,0 0,0 0,0 -0,-0 -0.04,-0.018 -0.3838,-0.046 0,0 0,0 0,0 0,0 0,0 0,0 -0.1206,-0.03 -0.24,-0.074 -0.3581,-0.1309 0,0 0,0 0,0 0,0 0,0 0,0 -0.2505,-0.1214 -0.4949,-0.3033 -0.7318,-0.5411 0,0 0,0 0,0 -0.53,-0.5317 -1.0225,-1.3425 -1.4612,-2.3796 0,0 0,0 0,0 -1.1123,-2.6294 -1.8789,-6.7133 -2.0352,-11.3903 -0.026,-0.7461 -0,-1.5071 0.072,-2.2741 0.259,-2.6508 1.133,-5.1263 2.3574,-7.1482 1.2244,-2.0219 2.789,-3.5885 4.343,-4.6287 0,0 0,0 0,0 1.7303,-1.1102 3.3862,-1.5658 4.6242,-1.5871 0,0 0,0 0,0 0.6473,-0.011 1.1998,0.091 1.6161,0.2834 0,0 0,0 0,0 0,0 0,0 0,0 0.2096,0.1004 0.3891,0.2225 0.5334,0.3642 0.073,0.072 0.1374,0.1485 0.1929,0.2296 0,0 0,0 0,0 0.059,0.086 0.1081,0.1771 0.1479,0.2724 z"
         style="fill:#000000;fill-rule:evenodd;stroke:none" />
    </g>
  </g>
</svg>
