<?xml version="1.0" encoding="UTF-8" standalone="no"?>
<!-- Created with Inkscape (http://www.inkscape.org/) -->

<svg
   xmlns:dc="http://purl.org/dc/elements/1.1/"
   xmlns:cc="http://creativecommons.org/ns#"
   xmlns:rdf="http://www.w3.org/1999/02/22-rdf-syntax-ns#"
   xmlns:svg="http://www.w3.org/2000/svg"
   xmlns="http://www.w3.org/2000/svg"
   xmlns:sodipodi="http://sodipodi.sourceforge.net/DTD/sodipodi-0.dtd"
   xmlns:inkscape="http://www.inkscape.org/namespaces/inkscape"
   width="185.52547"
   height="80.880081"
   id="svg10006"
   version="1.1"
   inkscape:version="0.48.3.1 r9886"
   sodipodi:docname="boca_cerrada_sonrisa.svg">
  <defs
     id="defs10008">
    <inkscape:path-effect
       effect="skeletal"
       id="path-effect3840"
       is_visible="true"
       pattern="M 0,5 C 0,2.24 2.24,0 5,0 7.76,0 10,2.24 10,5 10,7.76 7.76,10 5,10 2.24,10 0,7.76 0,5 z"
       copytype="single_stretched"
       prop_scale="0.4"
       scale_y_rel="false"
       spacing="0"
       normal_offset="0"
       tang_offset="0"
       prop_units="false"
       vertical_pattern="false"
       fuse_tolerance="0" />
    <inkscape:path-effect
       effect="skeletal"
       id="path-effect3836"
       is_visible="true"
       pattern="M 0,5 C 0,2.24 2.24,0 5,0 7.76,0 10,2.24 10,5 10,7.76 7.76,10 5,10 2.24,10 0,7.76 0,5 z"
       copytype="single_stretched"
       prop_scale="0.4"
       scale_y_rel="false"
       spacing="0"
       normal_offset="0"
       tang_offset="0"
       prop_units="false"
       vertical_pattern="false"
       fuse_tolerance="0" />
    <inkscape:path-effect
       effect="skeletal"
       id="path-effect3815"
       is_visible="true"
       pattern="M 0,5 C 0,2.24 2.24,0 5,0 7.76,0 10,2.24 10,5 10,7.76 7.76,10 5,10 2.24,10 0,7.76 0,5 z"
       copytype="single_stretched"
       prop_scale="1"
       scale_y_rel="false"
       spacing="0"
       normal_offset="0"
       tang_offset="0"
       prop_units="false"
       vertical_pattern="false"
       fuse_tolerance="0" />
    <inkscape:path-effect
       effect="skeletal"
       id="path-effect3811"
       is_visible="true"
       pattern="M 0,5 C 0,2.24 2.24,0 5,0 7.76,0 10,2.24 10,5 10,7.76 7.76,10 5,10 2.24,10 0,7.76 0,5 z"
       copytype="single_stretched"
       prop_scale="1"
       scale_y_rel="false"
       spacing="0"
       normal_offset="0"
       tang_offset="0"
       prop_units="false"
       vertical_pattern="false"
       fuse_tolerance="0" />
    <inkscape:path-effect
       effect="skeletal"
       id="path-effect3807"
       is_visible="true"
       pattern="M 0,5 C 0,2.24 2.24,0 5,0 7.76,0 10,2.24 10,5 10,7.76 7.76,10 5,10 2.24,10 0,7.76 0,5 z"
       copytype="single_stretched"
       prop_scale="1"
       scale_y_rel="false"
       spacing="0"
       normal_offset="0"
       tang_offset="0"
       prop_units="false"
       vertical_pattern="false"
       fuse_tolerance="0" />
    <inkscape:path-effect
       effect="skeletal"
       id="path-effect3803"
       is_visible="true"
       pattern="M 0,5 C 0,2.24 2.24,0 5,0 7.76,0 10,2.24 10,5 10,7.76 7.76,10 5,10 2.24,10 0,7.76 0,5 z"
       copytype="single_stretched"
       prop_scale="1"
       scale_y_rel="false"
       spacing="0"
       normal_offset="0"
       tang_offset="0"
       prop_units="false"
       vertical_pattern="false"
       fuse_tolerance="0" />
    <inkscape:path-effect
       effect="skeletal"
       id="path-effect3799"
       is_visible="true"
       pattern="m 259.80358,468.30265 c 0,-2.76 2.24,-5 5,-5 2.76,0 5,2.24 5,5 0,2.76 -2.24,5 -5,5 -2.76,0 -5,-2.24 -5,-5 z"
       copytype="single_stretched"
       prop_scale="1"
       scale_y_rel="false"
       spacing="0"
       normal_offset="0"
       tang_offset="0"
       prop_units="false"
       vertical_pattern="false"
       fuse_tolerance="0" />
    <inkscape:path-effect
       effect="skeletal"
       id="path-effect3795"
       is_visible="true"
       pattern="M 0,5 C 0,2.24 2.24,0 5,0 7.76,0 10,2.24 10,5 10,7.76 7.76,10 5,10 2.24,10 0,7.76 0,5 z"
       copytype="single_stretched"
       prop_scale="1"
       scale_y_rel="false"
       spacing="0"
       normal_offset="0"
       tang_offset="0"
       prop_units="false"
       vertical_pattern="false"
       fuse_tolerance="0" />
    <inkscape:path-effect
       effect="skeletal"
       id="path-effect8271"
       is_visible="true"
       pattern="m 236.12243,418.00722 c 0,-2.76 2.24,-5 5,-5 2.76,0 5,2.24 5,5 0,2.76 -2.24,5 -5,5 -2.76,0 -5,-2.24 -5,-5 z"
       copytype="single_stretched"
       prop_scale="1"
       scale_y_rel="false"
       spacing="0"
       normal_offset="0"
       tang_offset="0"
       prop_units="false"
       vertical_pattern="false"
       fuse_tolerance="0" />
    <inkscape:path-effect
       effect="skeletal"
       id="path-effect8263"
       is_visible="true"
       pattern="M 0,5 C 0,2.24 2.24,0 5,0 7.76,0 10,2.24 10,5 10,7.76 7.76,10 5,10 2.24,10 0,7.76 0,5 z"
       copytype="single_stretched"
       prop_scale="1"
       scale_y_rel="false"
       spacing="0"
       normal_offset="0"
       tang_offset="0"
       prop_units="false"
       vertical_pattern="false"
       fuse_tolerance="0" />
    <inkscape:path-effect
       effect="skeletal"
       id="path-effect8267"
       is_visible="true"
       pattern="m 225.01075,425.07829 c 0,-2.76 2.24,-5 5,-5 2.76,0 5,2.24 5,5 0,2.76 -2.24,5 -5,5 -2.76,0 -5,-2.24 -5,-5 z"
       copytype="single_stretched"
       prop_scale="1"
       scale_y_rel="false"
       spacing="0"
       normal_offset="0"
       tang_offset="0"
       prop_units="false"
       vertical_pattern="false"
       fuse_tolerance="0" />
    <inkscape:path-effect
       effect="skeletal"
       id="path-effect8275"
       is_visible="true"
       pattern="M 0,5 C 0,2.24 2.24,0 5,0 7.76,0 10,2.24 10,5 10,7.76 7.76,10 5,10 2.24,10 0,7.76 0,5 z"
       copytype="single_stretched"
       prop_scale="1"
       scale_y_rel="false"
       spacing="0"
       normal_offset="0"
       tang_offset="0"
       prop_units="false"
       vertical_pattern="false"
       fuse_tolerance="0" />
    <inkscape:path-effect
       effect="skeletal"
       id="path-effect8934-4"
       is_visible="true"
       pattern="m 523.0306,976.42002 c 0,-2.76 2.24,-5 5,-5 2.76,0 5,2.24 5,5 0,2.76 -2.24,5 -5,5 -2.76,0 -5,-2.24 -5,-5 z"
       copytype="single_stretched"
       prop_scale="0.2"
       scale_y_rel="false"
       spacing="0"
       normal_offset="0"
       tang_offset="0"
       prop_units="false"
       vertical_pattern="false"
       fuse_tolerance="0" />
    <inkscape:path-effect
       effect="skeletal"
       id="path-effect8938-2"
       is_visible="true"
       pattern="m 524.79836,990.81469 c 0,-2.76 2.24,-5 5,-5 2.76,0 5,2.24 5,5 0,2.76 -2.24,5 -5,5 -2.76,0 -5,-2.24 -5,-5 z"
       copytype="single_stretched"
       prop_scale="0.3"
       scale_y_rel="false"
       spacing="0"
       normal_offset="0"
       tang_offset="0"
       prop_units="false"
       vertical_pattern="false"
       fuse_tolerance="0" />
    <inkscape:path-effect
       effect="skeletal"
       id="path-effect8942-85"
       is_visible="true"
       pattern="m 526.56613,985.76393 c 0,-2.76 2.24,-5 5,-5 2.76,0 5,2.24 5,5 0,2.76 -2.24,5 -5,5 -2.76,0 -5,-2.24 -5,-5 z"
       copytype="single_stretched"
       prop_scale="0.3"
       scale_y_rel="false"
       spacing="0"
       normal_offset="0"
       tang_offset="0"
       prop_units="false"
       vertical_pattern="false"
       fuse_tolerance="0" />
    <inkscape:path-effect
       effect="skeletal"
       id="path-effect8942-2-0"
       is_visible="true"
       pattern="m 522.52885,900.76662 c 0,-2.76 2.24,-5 5,-5 2.76,0 5,2.24 5,5 0,2.76 -2.24,5 -5,5 -2.76,0 -5,-2.24 -5,-5 z"
       copytype="single_stretched"
       prop_scale="0.3"
       scale_y_rel="false"
       spacing="0"
       normal_offset="0"
       tang_offset="0"
       prop_units="false"
       vertical_pattern="false"
       fuse_tolerance="0" />
    <inkscape:path-effect
       effect="skeletal"
       id="path-effect8934-4-6"
       is_visible="true"
       pattern="m 523.0306,976.42002 c 0,-2.76 2.24,-5 5,-5 2.76,0 5,2.24 5,5 0,2.76 -2.24,5 -5,5 -2.76,0 -5,-2.24 -5,-5 z"
       copytype="single_stretched"
       prop_scale="0.2"
       scale_y_rel="false"
       spacing="0"
       normal_offset="0"
       tang_offset="0"
       prop_units="false"
       vertical_pattern="false"
       fuse_tolerance="0" />
    <inkscape:path-effect
       effect="skeletal"
       id="path-effect8938-2-8"
       is_visible="true"
       pattern="m 524.79836,990.81469 c 0,-2.76 2.24,-5 5,-5 2.76,0 5,2.24 5,5 0,2.76 -2.24,5 -5,5 -2.76,0 -5,-2.24 -5,-5 z"
       copytype="single_stretched"
       prop_scale="0.3"
       scale_y_rel="false"
       spacing="0"
       normal_offset="0"
       tang_offset="0"
       prop_units="false"
       vertical_pattern="false"
       fuse_tolerance="0" />
    <inkscape:path-effect
       effect="skeletal"
       id="path-effect8942-85-2"
       is_visible="true"
       pattern="m 526.56613,985.76393 c 0,-2.76 2.24,-5 5,-5 2.76,0 5,2.24 5,5 0,2.76 -2.24,5 -5,5 -2.76,0 -5,-2.24 -5,-5 z"
       copytype="single_stretched"
       prop_scale="0.3"
       scale_y_rel="false"
       spacing="0"
       normal_offset="0"
       tang_offset="0"
       prop_units="false"
       vertical_pattern="false"
       fuse_tolerance="0" />
    <inkscape:path-effect
       effect="skeletal"
       id="path-effect8942-2-0-9"
       is_visible="true"
       pattern="m 522.52885,900.76662 c 0,-2.76 2.24,-5 5,-5 2.76,0 5,2.24 5,5 0,2.76 -2.24,5 -5,5 -2.76,0 -5,-2.24 -5,-5 z"
       copytype="single_stretched"
       prop_scale="0.3"
       scale_y_rel="false"
       spacing="0"
       normal_offset="0"
       tang_offset="0"
       prop_units="false"
       vertical_pattern="false"
       fuse_tolerance="0" />
    <inkscape:path-effect
       effect="skeletal"
       id="path-effect8934"
       is_visible="true"
       pattern="m 231.32421,416.23945 c 0,-2.76 2.24,-5 5,-5 2.76,0 5,2.24 5,5 0,2.76 -2.24,5 -5,5 -2.76,0 -5,-2.24 -5,-5 z"
       copytype="single_stretched"
       prop_scale="0.2"
       scale_y_rel="false"
       spacing="0"
       normal_offset="0"
       tang_offset="0"
       prop_units="false"
       vertical_pattern="false"
       fuse_tolerance="0" />
    <inkscape:path-effect
       effect="skeletal"
       id="path-effect8938"
       is_visible="true"
       pattern="m 233.09197,430.63412 c 0,-2.76 2.24,-5 5,-5 2.76,0 5,2.24 5,5 0,2.76 -2.24,5 -5,5 -2.76,0 -5,-2.24 -5,-5 z"
       copytype="single_stretched"
       prop_scale="0.3"
       scale_y_rel="false"
       spacing="0"
       normal_offset="0"
       tang_offset="0"
       prop_units="false"
       vertical_pattern="false"
       fuse_tolerance="0" />
    <inkscape:path-effect
       effect="skeletal"
       id="path-effect8942"
       is_visible="true"
       pattern="m 234.85974,425.58336 c 0,-2.76 2.24,-5 5,-5 2.76,0 5,2.24 5,5 0,2.76 -2.24,5 -5,5 -2.76,0 -5,-2.24 -5,-5 z"
       copytype="single_stretched"
       prop_scale="0.3"
       scale_y_rel="false"
       spacing="0"
       normal_offset="0"
       tang_offset="0"
       prop_units="false"
       vertical_pattern="false"
       fuse_tolerance="0" />
    <inkscape:path-effect
       effect="skeletal"
       id="path-effect8942-2"
       is_visible="true"
       pattern="m 230.82246,340.58605 c 0,-2.76 2.24,-5 5,-5 2.76,0 5,2.24 5,5 0,2.76 -2.24,5 -5,5 -2.76,0 -5,-2.24 -5,-5 z"
       copytype="single_stretched"
       prop_scale="0.3"
       scale_y_rel="false"
       spacing="0"
       normal_offset="0"
       tang_offset="0"
       prop_units="false"
       vertical_pattern="false"
       fuse_tolerance="0" />
    <inkscape:path-effect
       effect="skeletal"
       id="path-effect8934-9"
       is_visible="true"
       pattern="m 231.32421,416.23945 c 0,-2.76 2.24,-5 5,-5 2.76,0 5,2.24 5,5 0,2.76 -2.24,5 -5,5 -2.76,0 -5,-2.24 -5,-5 z"
       copytype="single_stretched"
       prop_scale="0.2"
       scale_y_rel="false"
       spacing="0"
       normal_offset="0"
       tang_offset="0"
       prop_units="false"
       vertical_pattern="false"
       fuse_tolerance="0" />
    <inkscape:path-effect
       effect="skeletal"
       id="path-effect8938-6"
       is_visible="true"
       pattern="m 233.09197,430.63412 c 0,-2.76 2.24,-5 5,-5 2.76,0 5,2.24 5,5 0,2.76 -2.24,5 -5,5 -2.76,0 -5,-2.24 -5,-5 z"
       copytype="single_stretched"
       prop_scale="0.3"
       scale_y_rel="false"
       spacing="0"
       normal_offset="0"
       tang_offset="0"
       prop_units="false"
       vertical_pattern="false"
       fuse_tolerance="0" />
    <inkscape:path-effect
       effect="skeletal"
       id="path-effect8942-8"
       is_visible="true"
       pattern="m 234.85974,425.58336 c 0,-2.76 2.24,-5 5,-5 2.76,0 5,2.24 5,5 0,2.76 -2.24,5 -5,5 -2.76,0 -5,-2.24 -5,-5 z"
       copytype="single_stretched"
       prop_scale="0.3"
       scale_y_rel="false"
       spacing="0"
       normal_offset="0"
       tang_offset="0"
       prop_units="false"
       vertical_pattern="false"
       fuse_tolerance="0" />
    <inkscape:path-effect
       effect="skeletal"
       id="path-effect8942-2-6"
       is_visible="true"
       pattern="m 230.82246,340.58605 c 0,-2.76 2.24,-5 5,-5 2.76,0 5,2.24 5,5 0,2.76 -2.24,5 -5,5 -2.76,0 -5,-2.24 -5,-5 z"
       copytype="single_stretched"
       prop_scale="0.3"
       scale_y_rel="false"
       spacing="0"
       normal_offset="0"
       tang_offset="0"
       prop_units="false"
       vertical_pattern="false"
       fuse_tolerance="0" />
    <inkscape:path-effect
       effect="skeletal"
       id="path-effect9110"
       is_visible="true"
       pattern="M 0,5 C 0,2.24 2.24,0 5,0 7.76,0 10,2.24 10,5 10,7.76 7.76,10 5,10 2.24,10 0,7.76 0,5 z"
       copytype="single_stretched"
       prop_scale="0.3"
       scale_y_rel="false"
       spacing="0"
       normal_offset="0"
       tang_offset="0"
       prop_units="false"
       vertical_pattern="false"
       fuse_tolerance="0" />
    <inkscape:path-effect
       effect="skeletal"
       id="path-effect9110-4"
       is_visible="true"
       pattern="M 0,5 C 0,2.24 2.24,0 5,0 7.76,0 10,2.24 10,5 10,7.76 7.76,10 5,10 2.24,10 0,7.76 0,5 z"
       copytype="single_stretched"
       prop_scale="0.3"
       scale_y_rel="false"
       spacing="0"
       normal_offset="0"
       tang_offset="0"
       prop_units="false"
       vertical_pattern="false"
       fuse_tolerance="0" />
    <inkscape:path-effect
       effect="skeletal"
       id="path-effect8934-7"
       is_visible="true"
       pattern="m 453.33008,997.63322 c 0,-2.76 2.24,-5 5,-5 2.76,0 5,2.24 5,5 0,2.75998 -2.24,4.99998 -5,4.99998 -2.76,0 -5,-2.24 -5,-4.99998 z"
       copytype="single_stretched"
       prop_scale="0.2"
       scale_y_rel="false"
       spacing="0"
       normal_offset="0"
       tang_offset="0"
       prop_units="false"
       vertical_pattern="false"
       fuse_tolerance="0" />
    <inkscape:path-effect
       effect="skeletal"
       id="path-effect8938-3"
       is_visible="true"
       pattern="m 455.09784,1012.0279 c 0,-2.76 2.24,-5 5,-5 2.76,0 5,2.24 5,5 0,2.76 -2.24,5 -5,5 -2.76,0 -5,-2.24 -5,-5 z"
       copytype="single_stretched"
       prop_scale="0.3"
       scale_y_rel="false"
       spacing="0"
       normal_offset="0"
       tang_offset="0"
       prop_units="false"
       vertical_pattern="false"
       fuse_tolerance="0" />
    <inkscape:path-effect
       effect="skeletal"
       id="path-effect8942-1"
       is_visible="true"
       pattern="m 456.86561,1006.9771 c 0,-2.76 2.24,-5 5,-5 2.76,0 5,2.24 5,5 0,2.76 -2.24,5 -5,5 -2.76,0 -5,-2.24 -5,-5 z"
       copytype="single_stretched"
       prop_scale="0.3"
       scale_y_rel="false"
       spacing="0"
       normal_offset="0"
       tang_offset="0"
       prop_units="false"
       vertical_pattern="false"
       fuse_tolerance="0" />
    <inkscape:path-effect
       effect="skeletal"
       id="path-effect8942-2-62"
       is_visible="true"
       pattern="m 452.82833,921.97982 c 0,-2.76 2.24,-5 5,-5 2.76,0 5,2.24 5,5 0,2.76 -2.24,5 -5,5 -2.76,0 -5,-2.24 -5,-5 z"
       copytype="single_stretched"
       prop_scale="0.3"
       scale_y_rel="false"
       spacing="0"
       normal_offset="0"
       tang_offset="0"
       prop_units="false"
       vertical_pattern="false"
       fuse_tolerance="0" />
    <inkscape:path-effect
       effect="skeletal"
       id="path-effect8934-7-7"
       is_visible="true"
       pattern="m 453.33008,997.63322 c 0,-2.76 2.24,-5 5,-5 2.76,0 5,2.24 5,5 0,2.75998 -2.24,4.99998 -5,4.99998 -2.76,0 -5,-2.24 -5,-4.99998 z"
       copytype="single_stretched"
       prop_scale="0.2"
       scale_y_rel="false"
       spacing="0"
       normal_offset="0"
       tang_offset="0"
       prop_units="false"
       vertical_pattern="false"
       fuse_tolerance="0" />
    <inkscape:path-effect
       effect="skeletal"
       id="path-effect8938-3-9"
       is_visible="true"
       pattern="m 455.09784,1012.0279 c 0,-2.76 2.24,-5 5,-5 2.76,0 5,2.24 5,5 0,2.76 -2.24,5 -5,5 -2.76,0 -5,-2.24 -5,-5 z"
       copytype="single_stretched"
       prop_scale="0.3"
       scale_y_rel="false"
       spacing="0"
       normal_offset="0"
       tang_offset="0"
       prop_units="false"
       vertical_pattern="false"
       fuse_tolerance="0" />
    <inkscape:path-effect
       effect="skeletal"
       id="path-effect8942-1-3"
       is_visible="true"
       pattern="m 456.86561,1006.9771 c 0,-2.76 2.24,-5 5,-5 2.76,0 5,2.24 5,5 0,2.76 -2.24,5 -5,5 -2.76,0 -5,-2.24 -5,-5 z"
       copytype="single_stretched"
       prop_scale="0.3"
       scale_y_rel="false"
       spacing="0"
       normal_offset="0"
       tang_offset="0"
       prop_units="false"
       vertical_pattern="false"
       fuse_tolerance="0" />
    <inkscape:path-effect
       effect="skeletal"
       id="path-effect8942-2-62-0"
       is_visible="true"
       pattern="m 452.82833,921.97982 c 0,-2.76 2.24,-5 5,-5 2.76,0 5,2.24 5,5 0,2.76 -2.24,5 -5,5 -2.76,0 -5,-2.24 -5,-5 z"
       copytype="single_stretched"
       prop_scale="0.3"
       scale_y_rel="false"
       spacing="0"
       normal_offset="0"
       tang_offset="0"
       prop_units="false"
       vertical_pattern="false"
       fuse_tolerance="0" />
    <inkscape:path-effect
       effect="skeletal"
       id="path-effect8934-5"
       is_visible="true"
       pattern="m 743.42435,701.04373 c 0,-2.76 2.24,-5 5,-5 2.76,0 5,2.24 5,5 0,2.76 -2.24,5 -5,5 -2.76,0 -5,-2.24 -5,-5 z"
       copytype="single_stretched"
       prop_scale="0.2"
       scale_y_rel="false"
       spacing="0"
       normal_offset="0"
       tang_offset="0"
       prop_units="false"
       vertical_pattern="false"
       fuse_tolerance="0" />
    <inkscape:path-effect
       effect="skeletal"
       id="path-effect8938-68"
       is_visible="true"
       pattern="m 745.19211,715.4384 c 0,-2.76 2.24,-5 5,-5 2.76,0 5,2.24 5,5 0,2.76 -2.24,5 -5,5 -2.76,0 -5,-2.24 -5,-5 z"
       copytype="single_stretched"
       prop_scale="0.3"
       scale_y_rel="false"
       spacing="0"
       normal_offset="0"
       tang_offset="0"
       prop_units="false"
       vertical_pattern="false"
       fuse_tolerance="0" />
    <inkscape:path-effect
       effect="skeletal"
       id="path-effect8942-0"
       is_visible="true"
       pattern="m 746.95988,710.38764 c 0,-2.76 2.24,-5 5,-5 2.76,0 5,2.24 5,5 0,2.76 -2.24,5 -5,5 -2.76,0 -5,-2.24 -5,-5 z"
       copytype="single_stretched"
       prop_scale="0.3"
       scale_y_rel="false"
       spacing="0"
       normal_offset="0"
       tang_offset="0"
       prop_units="false"
       vertical_pattern="false"
       fuse_tolerance="0" />
    <inkscape:path-effect
       effect="skeletal"
       id="path-effect8942-2-5"
       is_visible="true"
       pattern="m 742.9226,625.39033 c 0,-2.76 2.24,-5 5,-5 2.76,0 5,2.24 5,5 0,2.76 -2.24,5 -5,5 -2.76,0 -5,-2.24 -5,-5 z"
       copytype="single_stretched"
       prop_scale="0.3"
       scale_y_rel="false"
       spacing="0"
       normal_offset="0"
       tang_offset="0"
       prop_units="false"
       vertical_pattern="false"
       fuse_tolerance="0" />
    <inkscape:path-effect
       effect="skeletal"
       id="path-effect8934-9-9"
       is_visible="true"
       pattern="m 446.6672,156.01545 c 0,-2.76 2.24,-5 5,-5 2.76,0 5,2.24 5,5 0,2.76 -2.24,5 -5,5 -2.76,0 -5,-2.24 -5,-5 z"
       copytype="single_stretched"
       prop_scale="0.2"
       scale_y_rel="false"
       spacing="0"
       normal_offset="0"
       tang_offset="0"
       prop_units="false"
       vertical_pattern="false"
       fuse_tolerance="0" />
    <inkscape:path-effect
       effect="skeletal"
       id="path-effect8938-6-5"
       is_visible="true"
       pattern="m 448.43496,170.41012 c 0,-2.76 2.24,-5 5,-5 2.76,0 5,2.24 5,5 0,2.76 -2.24,5 -5,5 -2.76,0 -5,-2.24 -5,-5 z"
       copytype="single_stretched"
       prop_scale="0.3"
       scale_y_rel="false"
       spacing="0"
       normal_offset="0"
       tang_offset="0"
       prop_units="false"
       vertical_pattern="false"
       fuse_tolerance="0" />
    <inkscape:path-effect
       effect="skeletal"
       id="path-effect8942-8-4"
       is_visible="true"
       pattern="m 450.20273,165.35936 c 0,-2.76 2.24,-5 5,-5 2.76,0 5,2.24 5,5 0,2.76 -2.24,5 -5,5 -2.76,0 -5,-2.24 -5,-5 z"
       copytype="single_stretched"
       prop_scale="0.3"
       scale_y_rel="false"
       spacing="0"
       normal_offset="0"
       tang_offset="0"
       prop_units="false"
       vertical_pattern="false"
       fuse_tolerance="0" />
    <inkscape:path-effect
       effect="skeletal"
       id="path-effect8942-2-6-45"
       is_visible="true"
       pattern="m 446.16545,80.36205 c 0,-2.76 2.24,-5 5,-5 2.76,0 5,2.24 5,5 0,2.76 -2.24,5 -5,5 -2.76,0 -5,-2.24 -5,-5 z"
       copytype="single_stretched"
       prop_scale="0.3"
       scale_y_rel="false"
       spacing="0"
       normal_offset="0"
       tang_offset="0"
       prop_units="false"
       vertical_pattern="false"
       fuse_tolerance="0" />
    <inkscape:path-effect
       effect="skeletal"
       id="path-effect9230-1"
       is_visible="true"
       pattern="M 0,5 C 0,2.24 2.24,0 5,0 7.76,0 10,2.24 10,5 10,7.76 7.76,10 5,10 2.24,10 0,7.76 0,5 z"
       copytype="single_stretched"
       prop_scale="1"
       scale_y_rel="false"
       spacing="0"
       normal_offset="0"
       tang_offset="0"
       prop_units="false"
       vertical_pattern="false"
       fuse_tolerance="0" />
    <inkscape:path-effect
       effect="skeletal"
       id="path-effect9230"
       is_visible="true"
       pattern="M 0,5 C 0,2.24 2.24,0 5,0 7.76,0 10,2.24 10,5 10,7.76 7.76,10 5,10 2.24,10 0,7.76 0,5 z"
       copytype="single_stretched"
       prop_scale="1"
       scale_y_rel="false"
       spacing="0"
       normal_offset="0"
       tang_offset="0"
       prop_units="false"
       vertical_pattern="false"
       fuse_tolerance="0" />
    <inkscape:path-effect
       effect="skeletal"
       id="path-effect9242"
       is_visible="true"
       pattern="m 65.827141,175.80281 c 0,-2.76 2.24,-5 5,-5 2.76,0 5,2.24 5,5 0,2.76 -2.24,5 -5,5 -2.76,0 -5,-2.24 -5,-5 z"
       copytype="single_stretched"
       prop_scale="1"
       scale_y_rel="false"
       spacing="0"
       normal_offset="0"
       tang_offset="0"
       prop_units="false"
       vertical_pattern="false"
       fuse_tolerance="0" />
    <inkscape:path-effect
       effect="skeletal"
       id="path-effect9875"
       is_visible="true"
       pattern="M 0,5 C 0,2.24 2.24,0 5,0 7.76,0 10,2.24 10,5 10,7.76 7.76,10 5,10 2.24,10 0,7.76 0,5 z"
       copytype="single_stretched"
       prop_scale="1"
       scale_y_rel="false"
       spacing="0"
       normal_offset="0"
       tang_offset="0"
       prop_units="false"
       vertical_pattern="false"
       fuse_tolerance="0" />
    <inkscape:path-effect
       effect="skeletal"
       id="path-effect9879"
       is_visible="true"
       pattern="M 0,5 C 0,2.24 2.24,0 5,0 7.76,0 10,2.24 10,5 10,7.76 7.76,10 5,10 2.24,10 0,7.76 0,5 z"
       copytype="single_stretched"
       prop_scale="1"
       scale_y_rel="false"
       spacing="0"
       normal_offset="0"
       tang_offset="0"
       prop_units="false"
       vertical_pattern="false"
       fuse_tolerance="0" />
    <inkscape:path-effect
       effect="skeletal"
       id="path-effect9883"
       is_visible="true"
       pattern="M 0,5 C 0,2.24 2.24,0 5,0 7.76,0 10,2.24 10,5 10,7.76 7.76,10 5,10 2.24,10 0,7.76 0,5 z"
       copytype="single_stretched"
       prop_scale="1"
       scale_y_rel="false"
       spacing="0"
       normal_offset="0"
       tang_offset="0"
       prop_units="false"
       vertical_pattern="false"
       fuse_tolerance="0" />
    <inkscape:path-effect
       effect="skeletal"
       id="path-effect9284"
       is_visible="true"
       pattern="M 0,5 C 0,2.24 2.24,0 5,0 7.76,0 10,2.24 10,5 10,7.76 7.76,10 5,10 2.24,10 0,7.76 0,5 z"
       copytype="single_stretched"
       prop_scale="1"
       scale_y_rel="false"
       spacing="0"
       normal_offset="0"
       tang_offset="0"
       prop_units="false"
       vertical_pattern="false"
       fuse_tolerance="0" />
    <inkscape:path-effect
       effect="skeletal"
       id="path-effect9288"
       is_visible="true"
       pattern="m 245.2138,423.05798 c 0,-2.76 2.24,-5 5,-5 2.76,0 5,2.24 5,5 0,2.76 -2.24,5 -5,5 -2.76,0 -5,-2.24 -5,-5 z"
       copytype="single_stretched"
       prop_scale="1"
       scale_y_rel="false"
       spacing="0"
       normal_offset="0"
       tang_offset="0"
       prop_units="false"
       vertical_pattern="false"
       fuse_tolerance="0" />
    <inkscape:path-effect
       effect="skeletal"
       id="path-effect9292"
       is_visible="true"
       pattern="m 0,3.4847712 c 0,-2.76000002 2.24,-5 5,-5 2.76,0 5,2.23999998 5,5 0,2.76 -2.24,5 -5,5 -2.76,0 -5,-2.24 -5,-5 z"
       copytype="single_stretched"
       prop_scale="1"
       scale_y_rel="false"
       spacing="0"
       normal_offset="0"
       tang_offset="0"
       prop_units="false"
       vertical_pattern="false"
       fuse_tolerance="0" />
    <inkscape:path-effect
       effect="skeletal"
       id="path-effect9871"
       is_visible="true"
       pattern="m 544.79213,192.91138 c 0,-2.76 2.24,-5 5,-5 2.76,0 5,2.24 5,5 0,2.76 -2.24,5 -5,5 -2.76,0 -5,-2.24 -5,-5 z"
       copytype="single_stretched"
       prop_scale="1"
       scale_y_rel="false"
       spacing="0"
       normal_offset="0"
       tang_offset="0"
       prop_units="false"
       vertical_pattern="false"
       fuse_tolerance="0" />
    <inkscape:path-effect
       effect="skeletal"
       id="path-effect9867"
       is_visible="true"
       pattern="m 544.79213,192.91138 c 0,-2.76 2.24,-5 5,-5 2.76,0 5,2.24 5,5 0,2.76 -2.24,5 -5,5 -2.76,0 -5,-2.24 -5,-5 z"
       copytype="single_stretched"
       prop_scale="1"
       scale_y_rel="false"
       spacing="0"
       normal_offset="0"
       tang_offset="0"
       prop_units="false"
       vertical_pattern="false"
       fuse_tolerance="0" />
    <inkscape:path-effect
       effect="skeletal"
       id="path-effect9863"
       is_visible="true"
       pattern="m 544.79213,192.91138 c 0,-2.76 2.24,-5 5,-5 2.76,0 5,2.24 5,5 0,2.76 -2.24,5 -5,5 -2.76,0 -5,-2.24 -5,-5 z"
       copytype="single_stretched"
       prop_scale="1"
       scale_y_rel="false"
       spacing="0"
       normal_offset="0"
       tang_offset="0"
       prop_units="false"
       vertical_pattern="false"
       fuse_tolerance="0" />
  </defs>
  <sodipodi:namedview
     id="base"
     pagecolor="#ffffff"
     bordercolor="#666666"
     borderopacity="1.0"
     inkscape:pageopacity="0.0"
     inkscape:pageshadow="2"
     inkscape:zoom="1.979899"
     inkscape:cx="82.634635"
     inkscape:cy="-0.69735557"
     inkscape:document-units="px"
     inkscape:current-layer="layer1"
     showgrid="false"
     fit-margin-top="0"
     fit-margin-left="0"
     fit-margin-right="0"
     fit-margin-bottom="0"
     inkscape:window-width="1914"
     inkscape:window-height="1030"
     inkscape:window-x="0"
     inkscape:window-y="25"
     inkscape:window-maximized="1" />
  <metadata
     id="metadata10011">
    <rdf:RDF>
      <cc:Work
         rdf:about="">
        <dc:format>image/svg+xml</dc:format>
        <dc:type
           rdf:resource="http://purl.org/dc/dcmitype/StillImage" />
        <dc:title></dc:title>
      </cc:Work>
    </rdf:RDF>
  </metadata>
  <g
     inkscape:label="Capa 1"
     inkscape:groupmode="layer"
     id="layer1"
     transform="translate(-279.50156,-434.83994)">
    <g
       id="g3842">
      <g
         id="g3819">
        <path
           style="fill:#ffffff;stroke:#000000;stroke-width:1px;stroke-linecap:butt;stroke-linejoin:miter;stroke-opacity:1"
           d="m 14.647212,21.075275 c 0,0 57.073618,-17.1725936 60.104076,-17.1725936 3.030457,0 41.416252,3.5355338 41.416252,3.5355338 L 162.12948,28.146342 133.84521,-8.2191491 90.913728,-22.361285 59.093923,-18.320674 29.294424,0.36714747 15.657364,12.488978 z"
           id="path3817"
           inkscape:connector-curvature="0"
           transform="translate(279.50156,462.29249)" />
        <g
           id="g11119"
           transform="matrix(1,0,0,-1,0,973.44015)">
          <path
             inkscape:connector-curvature="0"
             inkscape:original-d="m 289.22354,488.89773 c 0,0 37.37564,15.15228 80.8122,17.17259 43.43656,2.0203 84.85282,-33.33503 84.85282,-33.33503"
             inkscape:path-effect="#path-effect9863"
             id="path9861"
             d="m 289.22356,488.89774 c 0.0165,-0.0415 0.0426,-0.079 0.0781,-0.11262 0.0345,-0.0328 0.078,-0.0618 0.13018,-0.0873 0,0 0,0 0,0 0.1042,-0.0508 0.24327,-0.0874 0.41665,-0.11036 0,0 0,0 0,0 0,0 0,0 0,0 0.3451,-0.0459 0.82483,-0.0383 1.43488,0.0177 0,0 0,0 0,0 1.21107,0.11107 2.92953,0.41034 5.11431,0.85337 0,0 0,0 0,0 4.29588,0.87107 10.37473,2.2927 17.88798,3.88485 0,0 0,0 0,0 14.39373,3.04554 34.03507,6.80054 55.982,7.74047 1.55924,0.0708 3.13375,0.0917 4.72102,0.0641 8.81759,-0.1535 17.37593,-1.78089 25.23958,-3.98651 10.04756,-2.80888 18.96897,-6.62845 26.53169,-10.26785 16.24253,-9.72447 27.18349,-15.37155 28.12605,-14.16161 0,0 0,0 0,0 0,0 0,0 0,10e-6 0,0 0,0 0,0 0,0 0,0 0,0 0,0 0,0 0,0 0,0 0,0 0,0 0,0 0,0 0,0 0,0 0,0 10e-6,0 0,0 0,0 0,0 0,0 0,0 0,0 0,0 0,0 0,0 0,0 0,0 0,0 0,1e-5 0,1e-5 0,1e-5 0,0 0,0 0,0 0,0 0,0 0,0 0,0 0,0 0,0 0,0 0,0 1e-5,0 0,0 0,0 0,0 0.003,0.003 0.003,0.003 0.003,0.003 0,0 0,0 0.003,0.003 0,0 0,0 0,0 0,0 0,0 0,0 0,0 0,0 0,0 0,0 0,0 10e-6,0 0,0 0,0 0,0 0,0 0,0 0,1e-5 0,0 0,0 0,0 0,0 0,0 0,0 0,0 0,0 0,0 0,0 0,0 0,0 0,0 0,0 0,0 0,0 0,0 0,0 0,0 0,0 0,0 0,0 0,0 0,0 0,0 0,0 0,0 0,0 0,0 0,0 0,10e-6 0,10e-6 0,10e-6 0,0 1e-5,0 1e-5,0 0.90542,1.2347 -8.48032,9.13736 -24.17832,20.70439 -7.54873,4.57935 -16.84612,9.2935 -27.72181,12.82919 -8.41086,2.7293 -17.84772,4.68017 -27.82429,4.86163 -1.7959,0.0327 -3.58487,0.007 -5.36286,-0.077 -11.47735,-0.57426 -22.28175,-2.11298 -31.97241,-4.10705 -9.69066,-1.99407 -18.26909,-4.43573 -25.39857,-6.83029 0,0 0,0 0,0 -7.4474,-2.49861 -13.33751,-4.97296 -17.31503,-6.97349 0,0 0,0 0,0 -2.02271,-1.01734 -3.55663,-1.91534 -4.55322,-2.63835 0,0 0,0 0,0 -0.50199,-0.36419 -0.86923,-0.68466 -1.09469,-0.95417 0,0 0,0 0,0 0,0 0,0 0,0 -0.11291,-0.13515 -0.19053,-0.25764 -0.232,-0.36656 0,0 0,0 0,0 -0.0208,-0.0546 -0.0325,-0.10575 -0.0351,-0.15344 -0.003,-0.049 0.004,-0.0942 0.0208,-0.13574 z"
             style="fill:#000000;fill-rule:evenodd;stroke:none" />
          <path
             inkscape:connector-curvature="0"
             inkscape:original-d="m 448.82764,462.63376 c 0,0 14.14214,17.17259 13.13198,26.26397"
             inkscape:path-effect="#path-effect9867"
             id="path9865"
             d="m 448.82766,462.63379 c 1.96769,-1.40528 6.62591,1.6456 11.02089,7.00885 0,0 0,0 0,0 0.60035,0.8275 1.18773,1.72318 1.74298,2.68258 1.32804,2.29468 2.31199,4.70401 2.87089,6.94987 0.35582,1.26947 0.55182,2.60411 0.56399,3.83706 0.0122,1.23295 -0.157,2.36061 -0.45318,3.26388 -0.29619,0.90326 -0.71539,1.58094 -1.17492,1.9985 -0.45953,0.41757 -0.95537,0.5769 -1.43869,0.5232 -0.48332,-0.0537 -0.92258,-0.30767 -1.34431,-0.65988 -0.42172,-0.35222 -0.83031,-0.80147 -1.27406,-1.31807 -0.44376,-0.5166 -0.92613,-1.10235 -1.45662,-1.79471 -0.53048,-0.69236 -1.11038,-1.49506 -1.67391,-2.47005 -0.98155,-1.51496 -2.0533,-3.22581 -3.16471,-5.15012 -0.46468,-0.80455 -0.91275,-1.60953 -1.33434,-2.41016 0,0 0,0 0,0 -3.53426,-5.73936 -4.85169,-11.05568 -2.88401,-12.46095 z"
             style="fill:#000000;fill-rule:evenodd;stroke:none" />
          <path
             inkscape:connector-curvature="0"
             inkscape:original-d="m 289.22354,475.76574 c 0,0 -8.08122,20.20305 -4.04061,30.30458"
             inkscape:path-effect="#path-effect9871"
             id="path9869"
             d="m 289.22353,475.76578 c 0.0742,0.0292 0.14582,0.0637 0.215,0.10307 0.0659,0.0376 0.12955,0.0797 0.191,0.12626 0.12258,0.0928 0.23646,0.20295 0.3418,0.32989 0,0 0,0 0,0 0,0 0,0 0,0 0.2099,0.25176 0.38708,0.56726 0.53281,0.94211 0,0 0,0 0,0 0.28803,0.74074 0.45688,1.70389 0.52187,2.84453 0,0 0,0 0,0 0.12596,2.20738 -0.12956,5.04364 -0.61297,8.16675 -0.16674,1.09441 -0.36407,2.21505 -0.57885,3.34806 -0.39385,2.07764 -0.79904,3.98768 -1.17951,5.71365 -0.23163,1.20352 -0.5032,2.27339 -0.7644,3.22448 -0.2612,0.95109 -0.51207,1.78639 -0.76221,2.52151 -0.25014,0.73513 -0.50177,1.37232 -0.80721,1.88756 -0.30544,0.51525 -0.6685,0.9089 -1.13793,1.09667 -0.46943,0.18777 -1.01552,0.14969 -1.60268,-0.15498 -0.58717,-0.30468 -1.21255,-0.87833 -1.79112,-1.71026 -0.57858,-0.83193 -1.10687,-1.92224 -1.4996,-3.18992 -0.39273,-1.26768 -0.64709,-2.71067 -0.72579,-4.19272 -0.15736,-2.19223 -0.0178,-4.61228 0.43889,-7.04859 0.24907,-1.32859 0.57605,-2.58891 0.95337,-3.76329 1.07589,-3.3793 2.5741,-6.1313 4.05638,-7.93326 0,0 0,0 0,0 0.76615,-0.93204 1.5328,-1.62009 2.24499,-2.0188 0,0 0,0 0,0 0.36035,-0.20172 0.70777,-0.33177 1.03481,-0.38287 0,0 0,0 0,0 0,0 0,0 0,0 0.16421,-0.0253 0.32354,-0.0313 0.47706,-0.0172 0.077,0.007 0.15249,0.0192 0.22648,0.0364 0.0776,0.0181 0.1536,0.0417 0.22781,0.0709 z"
             style="fill:#000000;fill-rule:evenodd;stroke:none" />
        </g>
        <path
           style="fill:#000000;fill-rule:evenodd;stroke:none"
           d="m 48.487322,12.488978 c 0.518698,0.852672 -0.206153,2.339332 -1.564253,4.300462 -1.3581,1.96113 -3.35142,4.40826 -5.162151,7.386384 -1.400118,2.256535 -2.729444,4.910432 -3.910396,7.876979 -0.146467,0.367925 -0.288902,0.735645 -0.427544,1.102615 0,0 0,1e-6 0,1e-6 -1.00096,2.602618 -1.797328,5.238636 -2.58303,7.717399 -0.785702,2.478762 -1.561829,4.792482 -2.374467,6.723738 -0.812637,1.931256 -1.656247,3.476238 -2.464309,4.481121 -0.808063,1.004884 -1.572691,1.472155 -2.221977,1.322479 C 27.129909,53.25048 26.65274,52.506022 26.312399,51.298011 25.972058,50.09 25.760479,48.416632 25.684164,46.348162 c -0.07632,-2.06847 -0.02022,-4.538097 0.30362,-7.336533 0.323841,-2.798435 0.920306,-5.931814 2.038325,-9.230397 0,-1e-6 0,-2e-6 10e-7,-2e-6 0.162655,-0.472123 0.337336,-0.945096 0.524353,-1.417806 1.5079,-3.811419 3.682214,-7.183279 6.105362,-9.782231 1.592189,-1.682794 3.235677,-3.006731 4.787465,-4.017049 1.551787,-1.010318 3.011686,-1.70868 4.276595,-2.150981 2.529817,-0.884603 4.248739,-0.776857 4.767437,0.07581 z"
           id="path3793"
           inkscape:path-effect="#path-effect3795"
           inkscape:original-d="M 48.487322,12.488978 C 30.656077,23.336089 31.187201,38.616396 27.779195,53.400156"
           inkscape:connector-curvature="0"
           transform="translate(279.50156,462.29249)"
           sodipodi:nodetypes="cc" />
        <path
           style="fill:#000000;fill-rule:evenodd;stroke:none"
           d="m 367.51111,470.74088 c 0.0341,0.0525 0.0635,0.10756 0.0885,0.16509 0,0 0,0 0,0 0.0237,0.0546 0.0436,0.11149 0.0598,0.17049 0,0 0,0 0,0 0.0324,0.11782 0.0508,0.24405 0.0551,0.3794 0,0 0,0 0,0 0,0 0,0 0,0 0.0109,0.26861 -0.0261,0.56841 -0.11097,0.90525 0,0 0,0 0,0 0,0 0,0 0,0 -0.16941,0.673 -0.49934,1.47591 -0.95424,2.42967 0,0 0,0 0,0 -0.927,1.94402 -2.25788,4.4698 -3.61786,7.56703 0,0 0,0 0,0 -1.21109,2.69688 -2.37354,5.78724 -3.36524,9.21848 -1.62062,5.60729 -2.54716,11.07414 -3.49416,15.17162 -0.4735,2.04874 -0.94849,3.75168 -1.48476,4.95666 -0.53626,1.20498 -1.13552,1.91403 -1.82342,1.96777 -0.6879,0.0537 -1.40218,-0.55555 -2.0734,-1.74845 -0.67122,-1.1929 -1.29774,-2.97214 -1.73667,-5.23307 -0.43894,-2.26092 -0.68679,-5.00599 -0.56526,-8.06383 0.12153,-3.05784 0.61755,-6.4287 1.63623,-9.85285 1.2467,-4.19064 3.14624,-7.94983 5.30498,-10.92922 0,0 0,0 0,0 1.2459,-1.69543 2.58664,-3.13132 3.89944,-4.26945 1.3128,-1.13812 2.59569,-1.97948 3.73277,-2.53748 0,0 0,0 0,0 1.1139,-0.54589 2.11085,-0.83015 2.87458,-0.86732 0,0 0,0 0,0 1e-5,0 1e-5,0 1e-5,0 0.38214,-0.0185 0.71373,0.02 0.97725,0.11561 0,0 0,0 0,0 0,0 0,0 0,0 0.13093,0.0487 0.24678,0.11039 0.34555,0.18509 0,0 0,0 0,0 0.0495,0.0374 0.0947,0.078 0.13575,0.12167 0,0 0,0 0,0 0.0432,0.046 0.0818,0.0954 0.11594,0.14784 z"
           id="path3797"
           inkscape:path-effect="#path-effect3799"
           inkscape:original-d="m 367.51115,470.74086 c 0,0 -17.17259,10.6066 -14.64721,42.93148"
           inkscape:connector-curvature="0"
           sodipodi:nodetypes="cc" />
        <path
           style="fill:#000000;fill-rule:evenodd;stroke:none"
           d="m 132.83509,13.499149 c 0.0439,-0.06058 0.0931,-0.116943 0.14737,-0.169061 0.0521,-0.04998 0.10912,-0.09599 0.17086,-0.137952 0.12307,-0.08364 0.26519,-0.151105 0.42467,-0.202603 0,0 0,0 0,0 0,0 0,0 0,0 0.31828,-0.101402 0.70955,-0.136549 1.15971,-0.107273 0,0 0,0 0,0 0,0 0,0 0,0 0.8885,0.05785 2.0226,0.377558 3.30663,0.959476 0,0 0,0 0,0 2.49096,1.127302 5.61141,3.286448 8.56668,6.497825 1.46401,1.581822 2.88688,3.43823 4.13168,5.540182 1.27567,2.154071 2.26221,4.401584 2.93608,6.600159 0,10e-7 0,2e-6 0,2e-6 0.68496,2.230702 1.00821,4.400545 1.0529,6.342515 0.0447,1.94197 -0.18608,3.654999 -0.56666,5.033396 -0.38058,1.378398 -0.90741,2.422729 -1.46284,3.092368 -0.55543,0.669639 -1.13633,0.966396 -1.68437,0.896134 -0.54804,-0.07026 -1.02355,-0.496586 -1.46313,-1.168027 -0.43959,-0.67144 -0.84698,-1.588732 -1.28786,-2.67624 -0.88176,-2.175017 -1.93532,-5.035976 -3.45504,-8.12801 0,-10e-7 0,-10e-7 0,-10e-7 -0.76406,-1.560169 -1.65571,-3.191898 -2.66519,-4.880828 -0.98506,-1.648065 -2.00674,-3.231733 -2.99152,-4.736643 -2.0111,-3.048824 -3.87933,-5.717739 -5.11437,-7.885318 0,0 0,0 0,0 -0.63735,-1.117139 -1.09545,-2.089984 -1.323,-2.905412 0,0 0,0 0,0 0,0 0,0 0,0 -0.11535,-0.413217 -0.16755,-0.783176 -0.15269,-1.109839 0,0 0,0 0,0 0,0 0,0 0,0 0.007,-0.164825 0.0317,-0.317881 0.0753,-0.45914 0.0218,-0.07086 0.0484,-0.138735 0.0799,-0.2035 0.0329,-0.06748 0.071,-0.131635 0.11491,-0.19221 z"
           id="path3801"
           inkscape:path-effect="#path-effect3803"
           inkscape:original-d="m 132.83506,13.49913 c 0,0 20.70813,14.647212 18.18274,34.345187"
           inkscape:connector-curvature="0"
           transform="translate(279.50156,462.29249)" />
        <path
           style="fill:#000000;fill-rule:evenodd;stroke:none"
           d="m 43.436559,-12.259759 c 0.847243,-0.487165 2.79465,1.100284 5.197283,4.0990077 2.402633,2.9987238 5.257338,7.40697832 8.271303,12.7561995 5.5e-5,-1.03e-5 4.2e-5,-1.79e-5 2.9e-5,-2.55e-5 C 56.7407,4.4958778 56.576353,4.396255 56.411545,4.2965672 55.95259,4.0188763 55.492342,3.7406088 55.030804,3.4617583 c -1.3e-5,-7.7e-6 -2.6e-5,-1.53e-5 -3.8e-5,-2.3e-5 0.138041,-0.013117 0.275768,-0.025964 0.413147,-0.038607 10e-7,-10e-8 2e-6,-2e-7 3e-6,-2e-7 0.493929,-0.045454 0.992249,-0.088608 1.494573,-0.1297305 1.577799,-0.1292024 3.208858,-0.2390217 4.886382,-0.3244759 3.421858,-0.1861259 7.222333,-0.353887 11.3586,-0.003 0.19456,0.031253 0.412716,0.039728 0.654447,0.030631 0.753445,-0.028355 1.720977,-0.2247632 2.866201,-0.4173725 1.702377,-0.3399905 3.418292,-0.8177268 5.143948,-1.332867 0,0 0,0 0,0 1.506627,-0.45258808 2.978719,-0.93349879 4.412358,-1.42605414 0,0 0,0 0,0 0.456797,-0.15705508 0.904729,-0.31335794 1.343525,-0.4701195 0,0 0,0 0,0 10e-7,-3.2e-7 2e-6,-6.4e-7 3e-6,-9.6e-7 0,0 0,0 0,-1e-8 0.122209,-0.0436627 0.24129,-0.0863048 0.357217,-0.12819571 0,-10e-9 0,0 0,0 -1.1e-5,2.251e-5 -2.3e-5,4.503e-5 -3.5e-5,6.754e-5 0,0 0,0 0,0 -0.423718,0.81532093 -0.848033,1.62965002 -1.272942,2.44293908 -1.2e-5,2.25e-5 -2.3e-5,4.49e-5 -3.5e-5,6.74e-5 0,-2e-7 10e-7,-3e-7 10e-7,-4e-7 0.01175,-0.00365 0.02377,-0.00742 0.0355,-0.011104 -1.322214,-6.5527534 -2.111334,-12.2299618 -2.249682,-16.4295868 -0.138349,-4.199624 0.371953,-6.917809 1.388992,-7.080535 1.017039,-0.162726 2.359804,2.321984 3.64784,7.03726 1.288035,4.715276 2.519221,11.6649741 3.572629,19.9602707 -0.01225,0.00673 -0.02475,0.013528 -0.03696,0.020199 -1e-6,2e-7 -1e-6,4e-7 -1e-6,7e-7 -1.4e-5,2.32e-5 -2.7e-5,4.64e-5 -4.1e-5,6.97e-5 -0.491952,0.8421574 -0.983425,1.6852218 -1.474388,2.5292128 0,0 0,0 0,0 -1.3e-5,2.33e-5 -2.7e-5,4.66e-5 -4e-5,7e-5 0,0 0,0 0,0 -0.137694,0.066244 -0.273445,0.1308065 -0.407062,0.193885 0,0 0,0 0,0 -10e-7,5e-7 -2e-6,9e-7 -3e-6,1.4e-6 0,0 0,0 0,0 -0.48,0.2265968 -0.963718,0.4476261 -1.449986,0.6638211 0,0 0,0 0,0 -1.523799,0.6779501 -3.121292,1.3291054 -4.790028,1.9342866 0,0 0,0 0,0 -1.890756,0.689549 -3.928422,1.334617 -6.127683,1.833342 -1.318401,0.336985 -2.890941,0.612628 -4.707998,0.649078 -0.582975,0.01169 -1.187084,-0.0015 -1.810748,-0.04463 -3.341539,-0.328912 -6.826097,-0.293259 -10.298878,-0.368058 -1.627962,-0.03208 -3.217245,-0.06334 -4.760836,-0.09705 -0.491279,-0.01073 -0.97654,-0.02173 -1.455694,-0.03267 -10e-7,0 -2e-6,0 -3e-6,0 -0.133286,-0.003 -0.265413,-0.0061 -0.396399,-0.0091 -1.4e-5,-7e-6 -2.9e-5,-1.5e-5 -4.4e-5,-2.2e-5 -0.532836,-0.276175 -1.064326,-0.551745 -1.594463,-0.826697 -0.190272,-0.09871 -0.380663,-0.197328 -0.570585,-0.29587 -1.5e-5,-8e-6 -2.9e-5,-1.5e-5 -4.4e-5,-2.3e-5 C 49.328251,4.6626258 46.37458,-1.0306449 44.690634,-5.1390138 43.006688,-9.2473827 42.589316,-11.772594 43.436559,-12.259759 z"
           id="path3805"
           inkscape:path-effect="#path-effect3807"
           inkscape:original-d="M 43.436559,-12.259759 55.053313,7.9432915 c 0,0 12.330685,-0.4860895 17.67767,0 5.555839,0.5050763 17.172593,-4.5456864 17.172593,-4.5456864 l -4.04061,-25.2538131"
           inkscape:connector-curvature="0"
           transform="translate(279.50156,462.29249)"
           sodipodi:nodetypes="ccscc" />
        <path
           style="fill:#000000;fill-rule:evenodd;stroke:none"
           d="m 91.923881,0.87222374 c 0.161027,-0.67094723 0.959462,-1.15266596 2.196062,-1.41575465 1.236599,-0.26308869 2.910759,-0.30725393 4.876709,-0.1290189 1.965948,0.17823503 4.223688,0.57887032 6.685468,1.1772575 2.46177,0.59838721 5.12819,1.39423281 7.96497,2.33696391 0.62151,0.2065445 1.23857,0.4157821 1.85084,0.6266825 0,-5e-7 0,-1e-6 0,-1.6e-6 0.89451,-2.52663309 1.79989,-4.8403603 2.73828,-6.8951616 0.93839,-2.0548013 1.91024,-3.8508982 2.8852,-5.3168328 0.97496,-1.4659341 1.95297,-2.6016781 2.84825,-3.3088911 0.89527,-0.707213 1.70723,-0.985616 2.29941,-0.712303 0.59218,0.273313 0.90443,1.077596 0.89098,2.339303 -0.0135,1.2617073 -0.35321,2.9811173 -1.01437,5.060116 -0.66117,2.0789987 -1.6438,4.51761509 -2.88759,7.1908538 -1.24379,2.6732387 -2.74826,5.5808782 -4.40064,8.5724852 0,1e-6 0,1e-6 0,2e-6 -0.75755,-0.117856 -1.52739,-0.241475 -2.30724,-0.371257 C 112.99075,9.4343007 109.5622,8.7673547 106.47942,8.0350465 103.39663,7.3027382 100.66021,6.5047743 98.431524,5.6762972 96.202841,4.8478202 94.481897,3.9888299 93.372051,3.1625943 92.262206,2.3363586 91.762854,1.543171 91.923881,0.87222374 z"
           id="path3809"
           inkscape:path-effect="#path-effect3811"
           inkscape:original-d="M 91.923881,0.87222374 117.17769,6.933139 126.26907,-12.764836"
           inkscape:connector-curvature="0"
           transform="translate(279.50156,462.29249)" />
        <path
           style="fill:#000000;fill-rule:evenodd;stroke:none"
           d="m 12.626917,19.054956 c -1.026096,-0.968284 5.353871,-9.5858497 16.504707,-22.7210886 1e-6,-1.3e-6 2e-6,-2.5e-6 3e-6,-3.8e-6 2.531085,-2.5316909 5.381581,-5.1789345 8.598915,-7.8140856 3.217334,-2.635151 6.80188,-5.258182 10.810485,-7.694752 3.204679,-1.969638 6.764322,-3.81561 10.674807,-5.266604 3.910485,-1.450995 8.172048,-2.506103 12.751518,-2.832242 5.570381,-0.340994 11.266514,-0.172738 16.97093,0.323873 0.239325,0.02084 0.478244,0.0422 0.71675,0.06406 6.749358,0.610939 13.303118,1.657621 19.525668,3.094218 6.28636,1.440372 12.35808,3.328721 17.8877,5.842861 1e-5,10e-7 1e-5,2e-6 1e-5,3e-6 2.36553,1.026754 4.7387,2.257423 6.94066,3.753325 2.20196,1.495902 4.2326,3.256885 5.96394,5.3032891 3.232,4.015237 6.0242,7.8483934 8.45354,11.3638979 2.42933,3.5155045 4.49544,6.7142503 6.22174,9.505807 4.51287,7.466117 6.74328,12.046059 5.97106,12.62957 0,0 0,10e-7 0,10e-7 -0.005,0.0037 -0.005,0.0037 -0.005,0.0037 0,0 0,1.1e-5 -0.005,0.0037 0,0 0,1e-6 0,1e-6 -0.79787,0.548448 -4.49139,-2.970525 -10.21119,-9.494018 -2.17966,-2.433715 -4.65413,-5.2807084 -7.4179,-8.4299035 -2.76377,-3.1491951 -5.81594,-6.60087786 -9.20169,-10.1960498 -1.14709,-1.2638018 -2.63482,-2.3428419 -4.38461,-3.3225146 -1.74978,-0.9796728 -3.76172,-1.8601137 -5.90459,-2.7644444 0,-7e-7 0,-1.5e-6 -1e-5,-2.3e-6 -4.93465,-1.9680364 -10.46198,-3.4366884 -16.39132,-4.6650454 -5.84213,-1.199136 -11.989153,-2.097329 -18.341827,-2.669165 -0.22565,-0.02003 -0.451418,-0.03971 -0.677296,-0.05901 -5.383927,-0.459968 -10.602883,-0.677954 -15.594217,-0.463069 -3.425376,0.09517 -6.798787,0.858264 -10.06296,1.972624 -3.264174,1.114359 -6.418711,2.579202 -9.412649,4.14174 -3.666581,1.9370014 -7.051074,4.0856597 -10.185835,6.2718127 -3.134762,2.1861529 -6.019676,4.40961707 -8.671414,6.5386466 -10e-7,1.1e-6 -3e-6,2.3e-6 -4e-6,3.4e-6 C 21.860094,13.182824 13.653013,20.02324 12.626917,19.054956 z"
           id="path3813"
           inkscape:path-effect="#path-effect3815"
           inkscape:original-d="m 12.626907,19.054969 c 0,0 30.809652,-39.901025 59.598999,-41.416254 19.670749,-1.035302 54.548244,4.545686 64.649764,16.1624409 10.10153,11.6167542 23.73858,30.8096521 23.73858,30.8096521"
           inkscape:connector-curvature="0"
           transform="translate(279.50156,462.29249)"
           sodipodi:nodetypes="cssc" />
      </g>
      <path
         transform="translate(279.50156,434.83994)"
         inkscape:connector-curvature="0"
         inkscape:original-d="m 27.779195,30.372454 9.596449,12.121831"
         inkscape:path-effect="#path-effect3836"
         id="path3834"
         d="m 27.779195,30.372454 c 0.865587,-0.685256 3.717696,1.473884 6.366316,4.81951 2.64862,3.345625 4.09572,6.617065 3.230133,7.302321 -0.865587,0.685256 -3.717696,-1.473884 -6.366316,-4.81951 -2.64862,-3.345625 -4.09572,-6.617065 -3.230133,-7.302321 z"
         style="fill:#000000;fill-rule:evenodd;stroke:none" />
      <path
         transform="translate(279.50156,434.83994)"
         inkscape:connector-curvature="0"
         inkscape:original-d="M 143.94674,26.331844 138.3909,39.968903"
         inkscape:path-effect="#path-effect3840"
         id="path3838"
         d="m 143.94674,26.331844 c 1.02241,0.416536 0.60768,3.809295 -0.92574,7.573123 -1.53341,3.763829 -3.60769,6.480472 -4.6301,6.063936 -1.02241,-0.416536 -0.60768,-3.809295 0.92574,-7.573123 1.53341,-3.763829 3.60769,-6.480472 4.6301,-6.063936 z"
         style="fill:#000000;fill-rule:evenodd;stroke:none" />
    </g>
  </g>
</svg>
