<?xml version="1.0" encoding="UTF-8" standalone="no"?>
<!-- Created with Inkscape (http://www.inkscape.org/) -->

<svg
   xmlns:dc="http://purl.org/dc/elements/1.1/"
   xmlns:cc="http://creativecommons.org/ns#"
   xmlns:rdf="http://www.w3.org/1999/02/22-rdf-syntax-ns#"
   xmlns:svg="http://www.w3.org/2000/svg"
   xmlns="http://www.w3.org/2000/svg"
   xmlns:sodipodi="http://sodipodi.sourceforge.net/DTD/sodipodi-0.dtd"
   xmlns:inkscape="http://www.inkscape.org/namespaces/inkscape"
   width="113.31915"
   height="75.534218"
   id="svg3833"
   version="1.1"
   inkscape:version="0.48.3.1 r9886"
   sodipodi:docname="nariz_4.svg">
  <defs
     id="defs3835">
    <inkscape:path-effect
       effect="skeletal"
       id="path-effect5212"
       is_visible="true"
       pattern="m -13072.977,1809.4791 c 0,-2.76 2.24,-5 5,-5 2.76,0 5,2.24 5,5 0,2.76 -2.24,5 -5,5 -2.76,0 -5,-2.24 -5,-5 z"
       copytype="single_stretched"
       prop_scale="1"
       scale_y_rel="false"
       spacing="0"
       normal_offset="0"
       tang_offset="0"
       prop_units="false"
       vertical_pattern="false"
       fuse_tolerance="0" />
    <inkscape:path-effect
       effect="skeletal"
       id="path-effect5216"
       is_visible="true"
       pattern="m -13093.18,1767.0526 c 0,-2.76 2.24,-5 5,-5 2.76,0 5,2.24 5,5 0,2.76 -2.24,5 -5,5 -2.76,0 -5,-2.24 -5,-5 z"
       copytype="single_stretched"
       prop_scale="1"
       scale_y_rel="false"
       spacing="0"
       normal_offset="0"
       tang_offset="0"
       prop_units="false"
       vertical_pattern="false"
       fuse_tolerance="0" />
    <inkscape:path-effect
       effect="skeletal"
       id="path-effect5302"
       is_visible="true"
       pattern="m -13072.977,1809.4791 c 0,-2.76 2.24,-5 5,-5 2.76,0 5,2.24 5,5 0,2.76 -2.24,5 -5,5 -2.76,0 -5,-2.24 -5,-5 z"
       copytype="single_stretched"
       prop_scale="1"
       scale_y_rel="false"
       spacing="0"
       normal_offset="0"
       tang_offset="0"
       prop_units="false"
       vertical_pattern="false"
       fuse_tolerance="0" />
  </defs>
  <sodipodi:namedview
     id="base"
     pagecolor="#ffffff"
     bordercolor="#666666"
     borderopacity="1.0"
     inkscape:pageopacity="0.0"
     inkscape:pageshadow="2"
     inkscape:zoom="0.35"
     inkscape:cx="-141.4158"
     inkscape:cy="66.878745"
     inkscape:document-units="px"
     inkscape:current-layer="layer1"
     showgrid="false"
     fit-margin-top="0"
     fit-margin-left="0"
     fit-margin-right="0"
     fit-margin-bottom="0"
     inkscape:window-width="560"
     inkscape:window-height="453"
     inkscape:window-x="3"
     inkscape:window-y="47"
     inkscape:window-maximized="0" />
  <metadata
     id="metadata3838">
    <rdf:RDF>
      <cc:Work
         rdf:about="">
        <dc:format>image/svg+xml</dc:format>
        <dc:type
           rdf:resource="http://purl.org/dc/dcmitype/StillImage" />
        <dc:title></dc:title>
      </cc:Work>
    </rdf:RDF>
  </metadata>
  <g
     inkscape:label="Capa 1"
     inkscape:groupmode="layer"
     id="layer1"
     transform="translate(-491.4158,-523.70671)">
    <g
       transform="translate(2352.3008,-3356.378)"
       style="display:inline"
       id="g5313">
      <path
         sodipodi:nodetypes="cssc"
         inkscape:connector-curvature="0"
         inkscape:original-d="m -1860.8224,3933.8665 c 0,0 28.3259,-21.5279 40.2839,-12.0265 21.8837,17.3891 12.6917,1.0843 35.534,-6.1929 9.9314,-3.1642 37.359,17.6586 37.359,17.6586"
         inkscape:path-effect="#path-effect5212"
         id="path5210"
         d="m -1860.8224,3933.8665 c -0.709,-1.1594 4.6432,-5.8764 13.9909,-12.6427 0,0 0,0 0,0 1.8723,-1.1126 3.9739,-2.2423 6.3424,-3.2621 2.3684,-1.0198 5.0042,-1.9299 7.9438,-2.542 2.2615,-0.4681 4.8173,-0.6755 7.6018,-0.3121 2.4794,0.3261 5.0367,1.2781 7.3616,3.0115 2.1684,1.6268 4.3279,3.2291 6.5623,4.5981 1.3862,0.8118 2.5444,1.5158 3.5362,1.764 0.5136,0.067 0.7574,0.1859 0.5641,0.1158 -0.108,0.119 0.061,-0.088 0.5309,-0.3989 0,-0 0.01,-0 0.01,-0.01 1.6651,-1.3861 3.4513,-3.6351 6.0583,-5.8443 4.3433,-3.5716 9.1987,-5.8307 13.8907,-7.1717 2.5905,-0.6725 4.8234,-0.5813 6.5828,-0.1729 2.4197,0.4669 4.5324,1.2198 6.395,2.0324 5.1287,2.2207 9.2636,4.8906 12.6883,7.3176 8.8742,7.0225 13.8835,11.8436 13.1212,12.9482 0,0 0,0 0,0 0,0 0,0 0,0 0,0 0,0 0,0 0,0 0,0 0,0 0,0 0,0 0,0 0,0 0,0 0,0 0,0 0,0 0,0 0,0 0,0 0,0 0,0 0,0 0,0 0,0 0,0 0,0 0,0 0,10e-5 0,10e-5 -0,0.01 -0,0.01 -0,0.01 0,0 0,0 -0,0.01 0,0 0,0 0,0 0,0 0,0 0,0 0,0 0,0 0,0 0,0 0,0 0,0 0,0 0,0 0,0 0,0 0,0 0,0 0,0 0,0 0,0 0,0 0,0 0,0 0,0 0,0 0,0 0,0 0,0 0,0 0,0 0,0 0,0 -0.7972,1.0813 -7.1824,-1.7281 -16.8128,-7.0974 -3.602,-1.7458 -7.624,-3.7016 -12.053,-5.1098 -1.64,-0.5172 -3.231,-0.9637 -4.7393,-1.1118 -1.1448,-0.046 -2.0071,-0.1271 -2.3256,0.1272 -3.7012,1.333 -7.3567,3.1677 -10.3321,5.7944 -1.5912,1.3465 -3.3052,3.5688 -5.9719,5.8822 -0.01,0.01 -0.015,0.014 -0.022,0.021 -1.0398,0.9735 -2.5689,1.8718 -4.5773,2.4686 -2.3508,0.4723 -4.3852,0.2835 -5.9659,-0.3029 -2.408,-0.8131 -4.3219,-1.9145 -5.8621,-2.9695 -2.6755,-1.763 -5.0275,-3.6422 -7.1837,-5.4518 -0.7036,-0.673 -1.7941,-1.1259 -2.9614,-1.41 -1.4141,-0.339 -3.0485,-0.304 -4.7413,-0.151 -2.1928,0.1939 -4.3286,0.688 -6.3833,1.2972 -2.0547,0.6092 -4.0281,1.3336 -5.8927,2.0477 0,0 0,0 0,0 -10.0366,5.0875 -16.6396,7.6811 -17.3486,6.5217 z"
         style="fill:#000000;fill-rule:evenodd;stroke:none" />
      <path
         inkscape:connector-curvature="0"
         inkscape:original-d="m -1837.2401,3936.6639 c 0,0 37.5386,19.6631 44.6884,12.5129 7.1505,-7.1501 19.6634,-5.3627 19.6634,-5.3627"
         inkscape:path-effect="#path-effect5216"
         id="path5214"
         d="m -1837.2326,3936.6678 c 0.034,-0.065 0.074,-0.1258 0.1216,-0.1828 0,0 0,0 0,0 0.051,-0.053 0.1103,-0.1008 0.1783,-0.1439 0,0 0,0 0,0 0.1351,-0.086 0.3036,-0.1526 0.5042,-0.2012 0,0 0,0 0,0 0.3959,-0.096 0.9158,-0.1222 1.5501,-0.084 0,0 0,0 0,0 1.2323,0.075 2.8914,0.3922 4.9029,0.9014 0,0 0,0 0,0 3.6919,0.9344 8.5447,2.5265 14.1022,4.3245 3.6988,1.1857 7.6056,2.5092 11.6126,3.4823 0.8858,0.2152 1.7596,0.4081 2.6219,0.576 1.8527,0.3348 3.4133,0.6114 4.7032,0.5428 0,0 0,0 0,0 0.9258,-0.2242 1.419,-0.036 1.1251,0.035 0,0 0,0 0,0 2.7276,-2.3651 5.6365,-3.7086 8.3055,-4.4369 2.669,-0.7283 5.1008,-0.8474 7.1114,-0.7031 0,0 0,0 0,0 2.3732,0.1397 4.2325,0.6099 5.497,1.1505 0,0 0,0 0,0 0.6802,0.2905 1.1976,0.6056 1.5348,0.9194 0,0 0,0 0,0 0.1739,0.1618 0.3025,0.3238 0.3819,0.4827 0,0 0,0 0,0 0,0 0,0 0,0 0.041,0.081 0.07,0.1608 0.085,0.2397 0,0 0,0 0,0 0,0 0,0 0,0 -0.01,0.2268 0.01,0.2428 0.01,0.2437 0,0 0,0 0,0 0,0 0,0 0,0 0,0 0,0 0,0 0,0 0,0 0,0 0,0 0,0 0,0 0,0 0,0 0,0 0,0 0,0 0,0 10e-5,1e-4 10e-5,1e-4 10e-5,1e-4 0,0 0,0 -10e-5,0 0,0 0,0 0,0 0,0 0,0 0,0 0,0 0,0 0,0 0,0 0,0 0,0 0,0 0,0 0,0 0,0 0,0 0,0 0,0 0,0 0,0 -0,6e-4 -0.017,0.013 -0.072,0.2332 0,0 0,0 0,0 0,0 0,0 0,0 -0.034,0.072 -0.078,0.1431 -0.1323,0.2123 0,0 0,0 0,0 0,0 0,0 0,0 -0.1088,0.1361 -0.2572,0.2666 -0.4455,0.3931 0,0 0,0 0,0 -0.3649,0.2452 -0.8705,0.4766 -1.5064,0.7106 0,0 0,0 0,0 -1.1819,0.4354 -2.7916,0.8762 -4.671,1.4906 0,0 0,0 0,0 -1.5681,0.5438 -3.34,1.1999 -5.0535,2.0804 -1.7134,0.8805 -3.3674,1.9823 -4.5241,3.5013 0,0 0,0 0,0 -2.2751,2.0522 -4.7772,3.0343 -6.8168,3.0647 0,0 0,0 0,0 -2.6067,0.266 -5.1101,0.058 -7.342,-0.3626 -1.058,-0.1875 -2.1144,-0.4105 -3.1661,-0.6658 -4.7574,-1.155 -8.9789,-2.8482 -12.6388,-4.5413 -5.6102,-2.571 -10.1431,-5.3108 -13.2681,-7.627 0,0 0,0 0,0 -1.7047,-1.2629 -2.9952,-2.4087 -3.806,-3.3617 0,0 0,0 0,0 -0.4173,-0.4905 -0.7088,-0.9309 -0.8645,-1.3108 0,0 0,0 0,0 -0.079,-0.1921 -0.1228,-0.369 -0.1312,-0.5293 0,0 0,0 0,0 -0,-0.081 5e-4,-0.157 0.014,-0.2291 0,0 0,0 0,0 0.019,-0.072 0.046,-0.1399 0.079,-0.2049 z"
         style="fill:#000000;fill-rule:evenodd;stroke:none" />
      <path
         inkscape:connector-curvature="0"
         inkscape:original-d="m -1812.9814,3880.0866 c 0,0 -1.7874,24.132 -1.7874,28.6008 0,4.4688 10.7254,17.8755 12.5128,6.2565 1.7875,-11.6192 1.7875,-21.4507 1.7875,-21.4507"
         inkscape:path-effect="#path-effect5302"
         id="path5300"
         d="m -1812.9814,3880.0866 c 0.055,0 0.1093,0.015 0.1629,0.031 0.051,0.016 0.1018,0.037 0.1517,0.065 0.099,0.054 0.1958,0.1302 0.29,0.2278 0,0 0,0 0,0 0,0 0,0 0,0 0.1854,0.192 0.361,0.467 0.5267,0.82 0,0 0,0 0,0 0.3195,0.6806 0.602,1.6506 0.846,2.8734 0,0 0,0 0,0 0.4405,2.2086 0.7545,5.241 0.9381,8.8794 0,0 0,0 0,0 0.1449,2.873 0.2057,6.1187 0.2033,9.6243 0,0 0,0 0,0 -0,2.0827 -0.071,4.1326 -0,6.08 0,0 0,0 0,0 -0.2036,-0.1225 0.4287,0.4524 1.0686,1.9086 0.3124,0.4879 0.6341,0.9604 0.9678,1.408 0.5922,0.7943 1.2074,1.4894 1.8583,2.05 0.4564,0.3601 0.7251,0.6132 0.8548,0.6521 0,0 0,0 0,0 0.072,-0.076 -0.2386,0.017 -1.0008,0.075 0,0 0,0 0,0 -0.8736,0.4297 -1.2419,0.6346 -1.224,0.8703 0,0 0,0 0,0 0.1639,0.017 0.2735,-0.5474 0.5491,-1.4049 0,0 0,0 0,0 1.2709,-5.8106 2.2801,-10.8616 3.2504,-14.5279 0,0 0,0 0,0 0.5095,-1.9258 1.0044,-3.4622 1.5033,-4.5296 0,0 0,0 0,0 0.254,-0.5434 0.509,-0.9628 0.7669,-1.2494 0,0 0,0 0,0 0,0 0,0 0,0 0.13,-0.1434 0.2607,-0.2532 0.3925,-0.3281 0,0 0,0 0,0 0,0 0,0 0,0 0.1983,-0.038 0.3016,-0.067 0.3548,-0.086 0,0 0,0 0,0 0.052,-0.019 0.056,-0.03 0.056,-0.031 0,0 0,0 0,0 0,0 0,0 0,0 0,0 0,0 0,0 0,0 0,0 0,0 0,0 0,0 0,0 0,0 0,0 0,0 0,-1e-4 0,-1e-4 0,-1e-4 0,0 0,0 0,1e-4 0,0 0,0 0,0 0,0 0,0 0,0 0,0 0,0 0,0 0,0 0,0 0,0 0,0 0,0 0,0 0,0 0,0 0,0 3e-4,0 0,0.012 0.056,0.032 0,0 0,0 0,0 0.053,0.02 0.1561,0.05 0.354,0.088 0,0 0,0 0,0 0,0 0,0 0,0 0.1308,0.078 0.2597,0.1934 0.3861,0.345 0,0 0,0 0,0 0,0 0,0 0,0 0.2509,0.2989 0.4918,0.7395 0.7175,1.3086 0,0 0,0 0,0 0.4432,1.1178 0.8282,2.7407 1.1108,4.7773 0,0 0,0 0,0 0.5385,3.8758 0.7181,9.2891 0.1246,15.5974 0,0 0,0 0,0 -0.064,1.3522 -0.4649,3.0932 -1.5526,5.0959 0,0 0,0 0,0 -0.7412,1.44 -2.2483,2.6982 -4.5407,3.4747 0,0 0,0 0,0 -2.0979,0.3838 -3.8461,0.1934 -5.0716,-0.4213 0,0 0,0 0,0 -1.4541,-0.6178 -2.6261,-1.3745 -3.5094,-2.148 -1.2992,-1.0894 -2.4489,-2.3124 -3.4382,-3.6207 -0.5575,-0.7373 -1.0564,-1.4909 -1.5003,-2.25 -1.0734,-1.3684 -2.1354,-3.7949 -2.339,-7.085 0,0 0,0 0,0 0.067,-2.448 0.3205,-4.6417 0.554,-6.6163 0,0 0,0 0,0 0.4056,-3.5354 0.8991,-6.7684 1.4309,-9.6045 0,0 0,0 0,0 0.674,-3.5954 1.4148,-6.5607 2.1668,-8.6873 0,0 0,0 0,0 0.4164,-1.1775 0.8364,-2.0981 1.2516,-2.7257 0,0 0,0 0,0 0.2153,-0.3255 0.4293,-0.5724 0.6407,-0.7354 0,0 0,0 0,0 0,0 0,0 0,0 0.1075,-0.083 0.2143,-0.144 0.3203,-0.1829 0.053,-0.02 0.1066,-0.034 0.1596,-0.042 0.055,-0.01 0.1107,-0.011 0.1657,-0.01 z"
         style="fill:#000000;fill-rule:evenodd;stroke:none" />
    </g>
  </g>
</svg>
