<?xml version="1.0" encoding="UTF-8" standalone="no"?>
<!-- Created with Inkscape (http://www.inkscape.org/) -->

<svg
   xmlns:dc="http://purl.org/dc/elements/1.1/"
   xmlns:cc="http://creativecommons.org/ns#"
   xmlns:rdf="http://www.w3.org/1999/02/22-rdf-syntax-ns#"
   xmlns:svg="http://www.w3.org/2000/svg"
   xmlns="http://www.w3.org/2000/svg"
   xmlns:sodipodi="http://sodipodi.sourceforge.net/DTD/sodipodi-0.dtd"
   xmlns:inkscape="http://www.inkscape.org/namespaces/inkscape"
   width="158.60378"
   height="92.2174"
   id="svg3833"
   version="1.1"
   inkscape:version="0.48.3.1 r9886"
   sodipodi:docname="boca_6.svg">
  <defs
     id="defs3835">
    <inkscape:path-effect
       effect="skeletal"
       id="path-effect5212"
       is_visible="true"
       pattern="m -13072.977,1809.4791 c 0,-2.76 2.24,-5 5,-5 2.76,0 5,2.24 5,5 0,2.76 -2.24,5 -5,5 -2.76,0 -5,-2.24 -5,-5 z"
       copytype="single_stretched"
       prop_scale="1"
       scale_y_rel="false"
       spacing="0"
       normal_offset="0"
       tang_offset="0"
       prop_units="false"
       vertical_pattern="false"
       fuse_tolerance="0" />
    <inkscape:path-effect
       effect="skeletal"
       id="path-effect5216"
       is_visible="true"
       pattern="m -13093.18,1767.0526 c 0,-2.76 2.24,-5 5,-5 2.76,0 5,2.24 5,5 0,2.76 -2.24,5 -5,5 -2.76,0 -5,-2.24 -5,-5 z"
       copytype="single_stretched"
       prop_scale="1"
       scale_y_rel="false"
       spacing="0"
       normal_offset="0"
       tang_offset="0"
       prop_units="false"
       vertical_pattern="false"
       fuse_tolerance="0" />
    <inkscape:path-effect
       effect="skeletal"
       id="path-effect5302"
       is_visible="true"
       pattern="m -13072.977,1809.4791 c 0,-2.76 2.24,-5 5,-5 2.76,0 5,2.24 5,5 0,2.76 -2.24,5 -5,5 -2.76,0 -5,-2.24 -5,-5 z"
       copytype="single_stretched"
       prop_scale="1"
       scale_y_rel="false"
       spacing="0"
       normal_offset="0"
       tang_offset="0"
       prop_units="false"
       vertical_pattern="false"
       fuse_tolerance="0" />
    <inkscape:path-effect
       effect="skeletal"
       id="path-effect4225-0"
       is_visible="true"
       pattern="m -4996.4247,55.333481 c 0,-2.76 2.24,-5 5,-5 2.76,0 5,2.24 5,5 0,2.76 -2.24,5 -5,5 -2.76,0 -5,-2.24 -5,-5 z"
       copytype="single_stretched"
       prop_scale="1"
       scale_y_rel="false"
       spacing="0"
       normal_offset="0"
       tang_offset="0"
       prop_units="false"
       vertical_pattern="false"
       fuse_tolerance="0" />
    <inkscape:path-effect
       effect="skeletal"
       id="path-effect4233-0"
       is_visible="true"
       pattern="m -4990.3638,53.313176 c 0,-2.76 2.24,-5 5,-5 2.76,0 5,2.24 5,5 0,2.76 -2.24,5 -5,5 -2.76,0 -5,-2.24 -5,-5 z"
       copytype="single_stretched"
       prop_scale="1"
       scale_y_rel="false"
       spacing="0"
       normal_offset="0"
       tang_offset="0"
       prop_units="false"
       vertical_pattern="false"
       fuse_tolerance="0" />
    <inkscape:path-effect
       effect="skeletal"
       id="path-effect5021"
       is_visible="true"
       pattern="m 1.4285717,0.71428529 c 0,-2.75999999 2.24,-4.99999999 5,-4.99999999 2.76,0 5.0000003,2.24 5.0000003,4.99999999 0,2.76000001 -2.2400003,5.00000041 -5.0000003,5.00000041 -2.76,0 -5,-2.2400004 -5,-5.00000041 z"
       copytype="single_stretched"
       prop_scale="1"
       scale_y_rel="false"
       spacing="0"
       normal_offset="0"
       tang_offset="0"
       prop_units="false"
       vertical_pattern="false"
       fuse_tolerance="0" />
  </defs>
  <sodipodi:namedview
     id="base"
     pagecolor="#ffffff"
     bordercolor="#666666"
     borderopacity="1.0"
     inkscape:pageopacity="0.0"
     inkscape:pageshadow="2"
     inkscape:zoom="0.35"
     inkscape:cx="-359.25673"
     inkscape:cy="-55.583979"
     inkscape:document-units="px"
     inkscape:current-layer="layer1"
     showgrid="false"
     fit-margin-top="0"
     fit-margin-left="0"
     fit-margin-right="0"
     fit-margin-bottom="0"
     inkscape:window-width="560"
     inkscape:window-height="453"
     inkscape:window-x="3"
     inkscape:window-y="47"
     inkscape:window-maximized="0" />
  <metadata
     id="metadata3838">
    <rdf:RDF>
      <cc:Work
         rdf:about="">
        <dc:format>image/svg+xml</dc:format>
        <dc:type
           rdf:resource="http://purl.org/dc/dcmitype/StillImage" />
        <dc:title></dc:title>
      </cc:Work>
    </rdf:RDF>
  </metadata>
  <g
     inkscape:label="Capa 1"
     inkscape:groupmode="layer"
     id="layer1"
     transform="translate(-709.25672,-384.5608)">
    <g
       transform="translate(2609.4559,-2320.8553)"
       style="display:inline"
       id="g5398">
      <path
         sodipodi:nodetypes="cssc"
         inkscape:connector-curvature="0"
         inkscape:original-d="m -1900.1182,2742.3586 c 0,0 21.1572,29.0053 62.981,19.4834 12.7463,-2.9018 33.5965,0.5613 45.5606,0.5613 11.9639,0 49.9548,-17.2736 49.9548,-17.2736"
         inkscape:path-effect="#path-effect4225-0"
         id="path4223-5"
         d="m -1900.1182,2742.3586 c 0.8066,-0.958 7.4896,3.1747 17.6959,10.6439 0,0 0,0 0,0 5.0851,2.4521 11.3771,4.6433 18.5573,5.5563 3.8656,0.5388 7.9947,0.711 12.3025,0.4657 4.3079,-0.2453 8.7943,-0.9079 13.3321,-1.9844 5.1795,-1.1838 10.4786,-1.5133 15.7042,-1.4204 3.0254,0.054 5.9547,0.2413 8.7635,0.4494 4.039,0.2662 7.9041,0.663 11.5992,0.9989 3.6951,0.3359 7.2206,0.6102 10.5869,0.6879 1.3361,0.073 2.898,-0.1954 4.6279,-0.4921 2.3534,-0.4296 4.6765,-1.011 6.9639,-1.6211 0,0 0,0 0,0 6.1193,-1.6335 11.6816,-3.4427 16.5823,-5.0072 12.9963,-4.5122 21.2361,-6.6964 21.7787,-5.5103 0,0 0,0 0,0 0,0 0,0 0,0 0,0 0,0 0,0 0,0 0,0 0,0 0,0 0,0 0,0 0,0 0,0 0,0 0,0 0,0 0,0 0,0 0,0 0,0 0,0 0,0 0,0 0,0 0,0 0,0 0,0 0,0 0,0 0,0 0,0 0,0 0,0 0,0 0,0 0,0 0,0 0,0 0,0 0,0 0,0 0,0 0,0 0,0 0,0 0,0 0,0 0,0 0,0 0,0 0,0 0,0 0,0 0,0 0,0 0,0 0,0 0,0 0,0 0,0 0,0 0,0 0.5035,1.2026 -6.8027,5.5706 -19.2295,11.7737 -4.7381,2.2214 -10.274,4.6447 -16.6262,6.8619 0,0 0,0 0,0 -2.3563,0.8236 -4.8692,1.6261 -7.5713,2.2897 -1.8723,0.4822 -4.0364,0.9182 -6.5298,0.9912 -3.7223,0.078 -7.5077,-0.066 -11.317,-0.2952 -3.8093,-0.2297 -7.6423,-0.545 -11.4709,-0.7557 -2.8022,-0.1319 -5.6017,-0.2846 -8.3651,-0.3482 -4.7728,-0.1098 -9.2387,0.069 -13.3144,0.9923 -5.1463,1.1282 -10.2771,1.7086 -15.215,1.7624 -4.9378,0.054 -9.682,-0.4186 -14.0989,-1.3317 -4.221,-0.9128 -8.1044,-2.2084 -11.5863,-3.7167 -3.4818,-1.5082 -6.5626,-3.2284 -9.2274,-5.0014 0,0 0,0 0,0 -9.4936,-9.1174 -14.7532,-15.0399 -13.9466,-15.9979 z"
         style="fill:#000000;fill-rule:evenodd;stroke:none" />
      <path
         sodipodi:nodetypes="csc"
         inkscape:connector-curvature="0"
         inkscape:original-d="m -1876.874,2771.6728 c 0,0 -4.2489,18.9586 46.4658,20.8933 36.8125,1.4042 56.1163,-19.7672 56.1163,-19.7672"
         inkscape:path-effect="#path-effect4233-0"
         id="path4231-7"
         d="m -1876.874,2771.6728 c 0.5531,-0.024 1.131,1.0042 1.701,2.801 0,0 0,0 0,0 0.3939,0.7307 0.9226,1.5345 1.6683,2.3526 0.7457,0.8181 1.7142,1.6517 2.865,2.4513 1.4711,1.08 3.2646,2.062 5.4108,2.9162 2.1462,0.8543 4.6485,1.5796 7.4013,2.2882 3.853,0.9384 8.1238,1.6524 12.755,2.142 4.6313,0.4897 9.624,0.7569 14.8548,0.9514 0.8809,0.028 1.7678,0.045 2.6597,0.05 7.4395,0.038 14.5284,-0.7974 20.8427,-2.198 6.3143,-1.4005 11.8535,-3.3628 16.4419,-5.3647 0,0 0,0 0,0 4.7312,-2.0602 8.4393,-4.0983 11.1035,-5.5165 0,0 0,0 0,0 1.3547,-0.7213 2.4313,-1.2719 3.2424,-1.5905 0,0 0,0 0,0 0.41,-0.1611 0.749,-0.2595 1.0207,-0.2899 0,0 0,0 0,0 0,0 0,0 0,0 0.1354,-0.014 0.2539,-0.011 0.3559,0.01 0,0 0,0 0,0 0,0 0,0 0,0 0.117,0.07 0.1818,0.1015 0.2172,0.1147 0.035,0.013 0.041,0.01 0.042,0.01 0,0 0,0 0,0 0,0 0,0 0,0 0,0 0,0 0,0 0,0 0,0 0,0 0,0 0,0 0,0 0,0 0,0 0,0 0,0 0,0 0,0 0,0 0,0 0,0 0,0 0,0 0,0 0,0 0,0 0,0 0,0 0,0 0,0 0,0 0,0 0,0 0,0 0,0 0,0 0,0 0,0 0,0 0,0 0,0 0,0 0,0 0,0 0,0 0,0 0,0 0,0 0,0 0,0 0,0 0,0 0,0 0,0 0,0 0,0 0,0 0,0 0,0 0,0 0,0 0,0 0,0 -4e-4,6e-4 -0,0.01 0.011,0.041 0.016,0.034 0.052,0.097 0.1305,0.2076 0,0 0,0 0,0 0,0 0,0 0,0 0.026,0.1021 0.03,0.2251 0.013,0.3673 0,0 0,0 0,0 0,0 0,0 0,0 -0.03,0.2801 -0.1431,0.6362 -0.3372,1.0551 0,0 0,0 0,0 -0.384,0.8289 -1.0989,1.9183 -2.148,3.1743 0,0 0,0 0,0 -2.0644,2.4713 -5.475,5.6439 -10.2286,8.7289 0,0 0,0 0,0 -4.64,3.0044 -10.5708,5.9075 -17.5196,7.9889 -6.9487,2.0814 -14.9119,3.3273 -23.2493,3.2694 -0.9996,-0.01 -1.9932,-0.032 -2.9795,-0.075 -5.4291,-0.2122 -10.7563,-0.681 -15.7667,-1.5148 -5.0104,-0.8338 -9.7016,-2.0332 -13.8999,-3.5428 -3.0026,-1.0413 -5.8484,-2.3527 -8.2971,-3.8837 -2.4487,-1.5311 -4.5017,-3.2782 -6.089,-5.0796 -1.3217,-1.5297 -2.2609,-3.1631 -2.8415,-4.6657 -0.5807,-1.5026 -0.8088,-2.8748 -0.819,-3.9853 0,0 0,0 0,0 0.3993,-2.1026 0.8846,-3.1877 1.4378,-3.212 z"
         style="fill:#000000;fill-rule:evenodd;stroke:none" />
      <path
         inkscape:connector-curvature="0"
         inkscape:original-d="m -1840.9884,2705.4161 0,41.7116"
         inkscape:path-effect="#path-effect5021"
         id="path5019"
         d="m -1840.9884,2705.4161 c 2.76,0 5,9.3434 5,20.8558 0,11.5124 -2.24,20.8558 -5,20.8558 -2.76,0 -5,-9.3434 -5,-20.8558 0,-11.5124 2.24,-20.8558 5,-20.8558 z"
         style="fill:#000000;fill-rule:evenodd;stroke:none" />
    </g>
  </g>
</svg>
