<?xml version="1.0" encoding="UTF-8" standalone="no"?>
<!-- Created with Inkscape (http://www.inkscape.org/) -->

<svg
   xmlns:dc="http://purl.org/dc/elements/1.1/"
   xmlns:cc="http://creativecommons.org/ns#"
   xmlns:rdf="http://www.w3.org/1999/02/22-rdf-syntax-ns#"
   xmlns:svg="http://www.w3.org/2000/svg"
   xmlns="http://www.w3.org/2000/svg"
   xmlns:sodipodi="http://sodipodi.sourceforge.net/DTD/sodipodi-0.dtd"
   xmlns:inkscape="http://www.inkscape.org/namespaces/inkscape"
   width="147.48909"
   height="47.438057"
   id="svg5004"
   version="1.1"
   inkscape:version="0.48.3.1 r9886"
   sodipodi:docname="boca_2.svg">
  <defs
     id="defs5006">
    <inkscape:path-effect
       effect="skeletal"
       id="path-effect5444"
       is_visible="true"
       pattern="m -13520.656,1742.8336 c 0,-2.76 2.24,-5 5,-5 2.76,0 5,2.24 5,5 0,2.76 -2.24,5 -5,5 -2.76,0 -5,-2.24 -5,-5 z"
       copytype="single_stretched"
       prop_scale="1"
       scale_y_rel="false"
       spacing="0"
       normal_offset="0"
       tang_offset="0"
       prop_units="false"
       vertical_pattern="false"
       fuse_tolerance="0" />
    <inkscape:path-effect
       effect="skeletal"
       id="path-effect5448"
       is_visible="true"
       pattern="m -13510.554,1754.9555 c 0,-2.76 2.24,-5 5,-5 2.76,0 5,2.24 5,5 0,2.76 -2.24,5 -5,5 -2.76,0 -5,-2.24 -5,-5 z"
       copytype="single_stretched"
       prop_scale="1"
       scale_y_rel="false"
       spacing="0"
       normal_offset="0"
       tang_offset="0"
       prop_units="false"
       vertical_pattern="false"
       fuse_tolerance="0" />
    <inkscape:path-effect
       effect="skeletal"
       id="path-effect5555"
       is_visible="true"
       pattern="m -13598.957,-1733.111 c 0,-2.76 2.24,-5 5,-5 2.76,0 5,2.24 5,5 0,2.76 -2.24,5 -5,5 -2.76,0 -5,-2.24 -5,-5 z"
       copytype="single_stretched"
       prop_scale="1"
       scale_y_rel="false"
       spacing="0"
       normal_offset="0"
       tang_offset="0"
       prop_units="false"
       vertical_pattern="false"
       fuse_tolerance="0" />
    <inkscape:path-effect
       effect="skeletal"
       id="path-effect5551"
       is_visible="true"
       pattern="m -13631.282,-1718.9688 c 0,-2.76 2.24,-5 5,-5 2.76,0 5,2.24 5,5 0,2.76 -2.24,5 -5,5 -2.76,0 -5,-2.24 -5,-5 z"
       copytype="single_stretched"
       prop_scale="1"
       scale_y_rel="false"
       spacing="0"
       normal_offset="0"
       tang_offset="0"
       prop_units="false"
       vertical_pattern="false"
       fuse_tolerance="0" />
    <inkscape:path-effect
       effect="skeletal"
       id="path-effect5547"
       is_visible="true"
       pattern="m -13593.754,-1701.9906 c 0,-2.76 2.24,-5 5,-5 2.76,0 5,2.24 5,5 0,2.76 -2.24,5 -5,5 -2.76,0 -5,-2.24 -5,-5 z"
       copytype="single_stretched"
       prop_scale="1"
       scale_y_rel="false"
       spacing="0"
       normal_offset="0"
       tang_offset="0"
       prop_units="false"
       vertical_pattern="false"
       fuse_tolerance="0" />
  </defs>
  <sodipodi:namedview
     id="base"
     pagecolor="#ffffff"
     bordercolor="#666666"
     borderopacity="1.0"
     inkscape:pageopacity="0.0"
     inkscape:pageshadow="2"
     inkscape:zoom="1.4"
     inkscape:cx="46.714345"
     inkscape:cy="0.63236136"
     inkscape:document-units="px"
     inkscape:current-layer="layer1"
     showgrid="false"
     fit-margin-top="0"
     fit-margin-left="0"
     fit-margin-right="0"
     fit-margin-bottom="0"
     inkscape:window-width="1914"
     inkscape:window-height="1030"
     inkscape:window-x="0"
     inkscape:window-y="25"
     inkscape:window-maximized="1" />
  <metadata
     id="metadata5009">
    <rdf:RDF>
      <cc:Work
         rdf:about="">
        <dc:format>image/svg+xml</dc:format>
        <dc:type
           rdf:resource="http://purl.org/dc/dcmitype/StillImage" />
        <dc:title />
      </cc:Work>
    </rdf:RDF>
  </metadata>
  <g
     inkscape:label="Capa 1"
     inkscape:groupmode="layer"
     id="layer1"
     transform="translate(-236.12243,-414.01737)">
    <g
       id="g8254">
      <path
         transform="translate(236.12243,414.01737)"
         inkscape:connector-curvature="0"
         id="path8235"
         d="M 0,18.866628 29.285714,7.4380569 60,13.152343 90,5.2951998 l 30,10.7142852 24.28571,2.142858 -15.71428,14.285714 c 0,0 -19.28572,9.285714 -26.42857,9.285714 -7.14286,0 -50.714289,0.714286 -60.000003,0 C 32.857143,41.009486 0,18.866628 0,18.866628 z"
         style="fill:#e9afaf;stroke:none;stroke-width:1px;stroke-linecap:butt;stroke-linejoin:miter;stroke-opacity:1" />
      <g
         transform="translate(-185.71429,-105.71429)"
         id="g5079">
        <path
           style="fill:#000000;fill-rule:evenodd;stroke:none;display:inline"
           d="m 451.15459,526.88389 c 0.0146,-0.0494 0.0357,-0.0966 0.0631,-0.14173 0.0263,-0.0433 0.0586,-0.0846 0.0966,-0.1241 0.0755,-0.0784 0.17378,-0.14939 0.29429,-0.2132 0,0 0,0 0,0 0,0 0,0 0,0 0.23748,-0.12594 0.56061,-0.22415 0.9652,-0.29643 0,0 0,0 0,0 0.78425,-0.14013 1.87163,-0.18353 3.22814,-0.14632 0,0 0,0 0,0 2.49503,0.0684 5.89094,0.41413 9.96053,0.87931 0,0 0,0 0,0 3.40531,0.38822 7.25178,0.87824 11.37716,1.18881 0,0 0,0 0,0 3.01977,0.19073 5.93014,0.47386 8.397,-0.0305 2.24233,-0.368 4.55843,-1.0564 6.95958,-1.96359 2.08487,-0.7877 4.15475,-1.70489 6.20085,-2.63933 1.69561,-0.79146 3.33381,-1.60868 4.90871,-2.44065 0,0 0,0 0,0 0.47949,-0.2534 0.9468,-0.50424 1.40105,-0.7547 0,0 0,0 0,0 0,0 0,0 0,0 0,0 0,0 0,0 0.12421,-0.0685 0.24419,-0.13487 0.3598,-0.19954 0,0 0,0 0,0 2e-5,0 4e-5,0 6e-5,0 0,0 0,0 0,0 0.7333,-0.0841 1.4634,-0.16695 2.19026,-0.24853 2e-5,0 4e-5,0 6e-5,0 0,0 0,0 0,0 0.0132,-0.007 0.0265,-0.0145 0.0397,-0.0217 8.45012,3.30735 15.53988,6.45184 20.30948,9.02998 4.76959,2.57815 7.22224,4.58964 6.83137,5.58964 -0.39087,1 -3.50434,0.83586 -8.20434,-0.2874 -4.7,-1.12325 -10.9833,-3.20591 -18.14712,-6.00155 -0.011,0.008 -0.0222,0.0163 -0.0331,0.0244 0,0 0,0 0,0 2e-5,0 4e-5,0 6e-5,0 0.65886,-0.0387 1.32078,-0.0788 1.98577,-0.12023 0,0 0,0 0,0 2e-5,0 4e-5,0 6e-5,-1e-5 0,0 0,0 0,0 -0.14433,0.0976 -0.28606,0.19221 -0.42485,0.28405 0,0 0,0 0,0 0,0 0,0 0,10e-6 0,0 0,0 0,0 -0.50783,0.33606 -1.02,0.66335 -1.53435,0.98312 0,0 0,0 0,0 -1.68913,1.05048 -3.4702,2.06268 -5.33324,3.01896 -2.17341,1.13787 -4.52436,2.23303 -7.05486,3.16493 -2.91438,1.07326 -5.93942,1.87541 -9.00808,2.29827 -4.26243,0.49764 -7.94014,-0.0316 -11.02209,-0.63531 -4.49777,-0.81213 -8.44711,-1.93233 -11.80313,-3.05371 0,0 0,0 0,0 -4.02643,-1.34242 -7.24261,-2.71999 -9.47279,-3.92648 0,0 0,0 0,0 -1.2129,-0.65605 -2.13642,-1.26439 -2.7371,-1.79968 0,0 0,0 0,0 -0.30987,-0.27614 -0.53458,-0.53313 -0.66897,-0.76761 0,0 0,0 0,0 0,0 0,0 0,0 -0.068,-0.11882 -0.113,-0.23192 -0.13435,-0.33889 -0.0107,-0.0539 -0.0155,-0.10614 -0.0142,-0.15684 0.001,-0.0529 0.009,-0.10404 0.0238,-0.1534 z"
           id="path5545"
           inkscape:path-effect="#path-effect5547"
           inkscape:original-d="m 451.15456,526.88388 c 0,0 25.07523,7.4674 35.10547,5.9739 10.02953,-1.4935 21.73136,-8.9608 21.73136,-8.9608 l 26.74613,10.4543"
           inkscape:connector-curvature="0" />
        <path
           style="fill:#000000;fill-rule:evenodd;stroke:none;display:inline"
           d="m 421.85932,539.31389 c 0.44428,-1.16692 7.36322,0.24548 18.36302,3.4982 4.57664,1.01512 9.86922,2.07733 15.68607,2.58073 4.83898,0.40713 9.9874,0.5556 14.90819,-0.59584 3.25301,-0.7057 6.54955,-1.08352 9.78695,-1.33238 3.89533,-0.3076 7.86786,-0.44792 11.87388,-0.50456 1.20544,-0.0172 2.41689,-0.0274 3.63363,-0.031 8.07889,-0.0245 15.80836,0.2256 23.02521,0.47896 4.48726,0.1552 8.76256,0.33832 12.79577,0.4727 4.03321,0.13438 7.82467,0.21995 11.34814,0.22944 0,0 0,0 0,0 10e-6,0 10e-6,0 10e-6,0 0,0 0,0 0,0 3.16742,0.003 6.0198,-0.0336 8.57637,-0.27586 0,0 0,0 0,0 1.01483,-0.14613 1.90096,-0.21745 2.64192,-0.3268 0.74095,-0.10935 1.33699,-0.25649 1.79114,-0.51313 0,0 0,0 0,0 4.29274,-2.33187 7.61122,-4.04968 9.82661,-5.01574 0,0 0,0 0,0 0.93166,-0.40647 1.65807,-0.67035 2.18606,-0.78342 0,0 0,0 0,0 0.23971,-0.0513 0.43597,-0.0692 0.59193,-0.0539 0,0 0,0 0,0 0,0 0,0 0,0 0.073,0.008 0.13699,0.0234 0.19236,0.0463 0,0 0,0 0,0 0.12015,0.0977 0.14191,0.10106 0.14533,0.10054 4.3e-4,-6e-5 3.6e-4,0 3.6e-4,0 0,0 7e-5,-6e-5 -5e-5,3.6e-4 -9.2e-4,0.003 -8e-5,0.0253 0.0807,0.157 0,0 0,0 0,0 0.0137,0.0589 0.0164,0.12685 0.008,0.20307 0,0 0,0 0,0 0,0 0,0 0,0 -0.0153,0.15951 -0.0785,0.35607 -0.18642,0.58375 0,0 0,0 0,0 -0.23753,0.50144 -0.70449,1.16438 -1.37788,1.95189 0,0 0,0 0,0 -1.60197,1.87362 -4.43514,4.49775 -8.25604,7.60259 0,0 0,0 0,0 -2.05199,1.47037 -4.46033,2.25587 -6.50449,2.66531 0,0 0,0 0,0 -2.89433,0.6966 -6.05361,1.14526 -9.32243,1.4728 0,0 0,0 0,0 0,0 0,0 0,0 0,0 0,0 0,0 -3.65906,0.37147 -7.58665,0.62454 -11.71996,0.77932 -4.1333,0.15478 -8.47199,0.2113 -12.95304,0.23932 -7.26322,0.048 -14.94942,-0.0395 -22.85946,-0.0151 -1.19131,0.004 -2.3749,0.0101 -3.55024,0.02 -3.90934,0.0336 -7.69571,0.10235 -11.33946,0.2946 -3.07254,0.1695 -5.94599,0.37836 -8.59096,0.84356 -6.53449,1.12296 -12.59673,0.61619 -17.87805,-0.34029 -6.49249,-1.15516 -12.06635,-2.95629 -16.68004,-4.75503 -10.55926,-4.95535 -16.68778,-8.51045 -16.24351,-9.67737 z"
           id="path5549"
           inkscape:path-effect="#path-effect5551"
           inkscape:original-d="m 421.8593,539.31388 c 0,0 29.47515,14.1791 49.87946,10.1279 20.40642,-4.0512 77.08779,2.0256 86.15653,-4.0512 9.06875,-6.0767 11.33698,-8.1024 11.33698,-8.1024"
           inkscape:connector-curvature="0" />
        <path
           style="fill:#000000;fill-rule:evenodd;stroke:none;display:inline"
           d="m 475.9468,562.72588 c 0,-1.38 2.52804,-2.61603 6.56842,-3.59393 4.04038,-0.97789 9.5921,-1.7126 15.73484,-2.10377 3.52358,-0.22439 6.86417,-0.31029 9.85285,-0.26186 0,0 0,0 0,0 3.81403,0.0617 7.04033,0.33941 9.33172,0.84886 0,0 0,0 0,0 1.09558,0.24357 1.97219,0.54146 2.59489,0.89732 0,0 0,0 0,0 0.30593,0.17483 0.5491,0.36393 0.7262,0.56769 0,0 0,0 0,0 0,0 0,0 0,0 0.0873,0.1012 0.1584,0.20602 0.21282,0.31451 0,0 0,0 0,0 0,0 0,0 0,0 0.09,0.33136 0.1117,0.34396 0.11322,0.34427 0,0 0,0 0,0 6e-5,10e-6 5e-5,10e-6 5e-5,10e-6 0,0 10e-6,0 -4e-5,3e-5 0,0 0,0 0,0 -0.001,7.7e-4 -0.0179,0.0196 1.6e-4,0.36234 0,0 0,0 0,0 0,0 0,0 0,0 -0.0188,0.12011 -0.0563,0.242 -0.11157,0.36528 0,0 0,0 0,0 0,0 0,0 0,0 -0.1103,0.24826 -0.29301,0.50217 -0.54195,0.75859 0,0 0,0 0,0 -0.50672,0.52194 -1.29403,1.05522 -2.31631,1.57548 0,0 0,0 0,0 -2.1383,1.08818 -5.32854,2.12087 -9.16945,2.90185 0,0 0,0 0,0 -3.01014,0.61213 -6.42786,1.07402 -10.05692,1.30524 -6.32663,0.40309 -12.09064,0.0237 -16.24331,-0.80672 -4.15267,-0.83048 -6.69562,-2.09519 -6.69562,-3.47519 z"
           id="path5553"
           inkscape:path-effect="#path-effect5555"
           inkscape:original-d="m 475.9468,562.72588 c 26.74613,0 45.13501,-2.9869 45.13501,-2.9869"
           inkscape:connector-curvature="0" />
      </g>
    </g>
  </g>
</svg>
