<?xml version="1.0" encoding="UTF-8" standalone="no"?>
<!-- Created with Inkscape (http://www.inkscape.org/) -->

<svg
   xmlns:dc="http://purl.org/dc/elements/1.1/"
   xmlns:cc="http://creativecommons.org/ns#"
   xmlns:rdf="http://www.w3.org/1999/02/22-rdf-syntax-ns#"
   xmlns:svg="http://www.w3.org/2000/svg"
   xmlns="http://www.w3.org/2000/svg"
   xmlns:sodipodi="http://sodipodi.sourceforge.net/DTD/sodipodi-0.dtd"
   xmlns:inkscape="http://www.inkscape.org/namespaces/inkscape"
   width="246.9823"
   height="47.982246"
   id="svg5004"
   version="1.1"
   inkscape:version="0.48.3.1 r9886"
   sodipodi:docname="boca_1.svg">
  <defs
     id="defs5006">
    <inkscape:path-effect
       effect="skeletal"
       id="path-effect5444"
       is_visible="true"
       pattern="m -13520.656,1742.8336 c 0,-2.76 2.24,-5 5,-5 2.76,0 5,2.24 5,5 0,2.76 -2.24,5 -5,5 -2.76,0 -5,-2.24 -5,-5 z"
       copytype="single_stretched"
       prop_scale="1"
       scale_y_rel="false"
       spacing="0"
       normal_offset="0"
       tang_offset="0"
       prop_units="false"
       vertical_pattern="false"
       fuse_tolerance="0" />
    <inkscape:path-effect
       effect="skeletal"
       id="path-effect5448"
       is_visible="true"
       pattern="m -13510.554,1754.9555 c 0,-2.76 2.24,-5 5,-5 2.76,0 5,2.24 5,5 0,2.76 -2.24,5 -5,5 -2.76,0 -5,-2.24 -5,-5 z"
       copytype="single_stretched"
       prop_scale="1"
       scale_y_rel="false"
       spacing="0"
       normal_offset="0"
       tang_offset="0"
       prop_units="false"
       vertical_pattern="false"
       fuse_tolerance="0" />
  </defs>
  <sodipodi:namedview
     id="base"
     pagecolor="#ffffff"
     bordercolor="#666666"
     borderopacity="1.0"
     inkscape:pageopacity="0.0"
     inkscape:pageshadow="2"
     inkscape:zoom="1.979899"
     inkscape:cx="168.77398"
     inkscape:cy="-43.614123"
     inkscape:document-units="px"
     inkscape:current-layer="layer1"
     showgrid="false"
     fit-margin-top="0"
     fit-margin-left="0"
     fit-margin-right="0"
     fit-margin-bottom="0"
     inkscape:window-width="1914"
     inkscape:window-height="1030"
     inkscape:window-x="0"
     inkscape:window-y="25"
     inkscape:window-maximized="1" />
  <metadata
     id="metadata5009">
    <rdf:RDF>
      <cc:Work
         rdf:about="">
        <dc:format>image/svg+xml</dc:format>
        <dc:type
           rdf:resource="http://purl.org/dc/dcmitype/StillImage" />
        <dc:title />
      </cc:Work>
    </rdf:RDF>
  </metadata>
  <g
     inkscape:label="Capa 1"
     inkscape:groupmode="layer"
     id="layer1"
     transform="translate(-189.3619,-406.89702)">
    <g
       id="g8170">
      <path
         sodipodi:nodetypes="ccsccsssssc"
         transform="translate(189.86698,409.84503)"
         inkscape:connector-curvature="0"
         id="path8168"
         d="M -0.50507627,-0.92770774 104.04571,-1.9378603 c 0,0 7.57784,5.5854493 16.66752,5.0507628 8.5863,-0.5050764 16.66752,-6.0609153 16.66752,-6.0609153 l 109.09647,11.111678 c 0,0 -71.31442,15.6035778 -77.27667,17.1725928 -9.59645,2.525381 -26.26396,14.647212 -44.44671,15.657365 -18.18275,1.010152 -31.31473,5.050763 -37.880721,-4.04061 C 80.307127,27.86164 81.31728,27.356564 66.670068,23.82103 52.022857,20.285496 26.263966,13.719504 17.172593,9.1738177 8.0812204,4.6281313 -0.50507627,-0.92770774 -0.50507627,-0.92770774 z"
         style="fill:#e9afaf;stroke:none" />
      <g
         id="g4985"
         style="display:inline"
         transform="translate(1244.072,-3498.1493)">
        <path
           style="fill:#000000;fill-rule:evenodd;stroke:none"
           d="m -1054.2035,3908.816 c 0,-0.027 0.012,-0.053 0.025,-0.078 0.013,-0.025 0.031,-0.049 0.054,-0.072 0,0 0,0 0,0 0.046,-0.047 0.1107,-0.091 0.1946,-0.1329 0,0 0,0 0,0 0,0 0,0 0,0 0.1668,-0.083 0.4084,-0.1561 0.7226,-0.2195 0,0 0,0 0,0 0,0 0,0 0,0 0.6205,-0.1252 1.5241,-0.2126 2.6935,-0.2637 0,0 0,0 0,0 2.2712,-0.099 5.5448,-0.062 9.6944,0.099 0,0 0,0 0,0 7.6599,0.2976 18.3036,1.0192 31.1353,2.0732 0,0 0,0 0,0 10.74475,0.8826 23.02042,2.0031 36.36133,3.2625 9.25007,0.8731 18.97827,1.8523 29.03868,2.6725 3.67445,0.3026 7.48277,0.397 11.4092,0.4443 0.70822,0.01 1.41742,0.015 2.12743,0.022 6.38444,0.055 12.67372,-0.014 18.82614,-0.1061 0,0 0,0 0,0 16.12335,-0.2416 31.18337,-0.6574 44.49803,-0.9445 0,0 0,0 0,0 16.05206,-0.3462 29.54813,-0.5449 39.30426,-0.4491 0,0 0,0 0,0 5.28254,0.052 9.46768,0.1879 12.36823,0.4229 0,0 0,0 0,0 1.4918,0.1209 2.64356,0.2679 3.42996,0.4429 0,0 0,0 0,0 0.39799,0.089 0.70233,0.1842 0.90978,0.2872 0,0 0,0 0,0 0,0 0,0 0,0 0.10429,0.052 0.18409,0.1055 0.23897,0.1611 0,0 0,0 1e-5,0 0,0 0,0 0,0 0.0314,0.087 0.0537,0.1309 0.0682,0.1528 0.0144,0.022 0.0211,0.022 0.0215,0.022 0,0 0,0 0,0 10e-6,0 10e-6,0 10e-6,0 0,0 0,0 -10e-6,0 0,0 0,0 0,0 -3.6e-4,0 -0.007,0 -0.0184,0.025 -0.0115,0.024 -0.0278,0.07 -0.0476,0.1604 0,0 0,0 0,0 0,0 0,0 0,0 -0.0472,0.062 -0.11936,0.126 -0.21615,0.1909 0,0 0,0 0,0 0,0 0,0 0,0 -0.19241,0.1292 -0.48208,0.2636 -0.86565,0.4027 0,0 0,0 0,0 -0.75792,0.2748 -1.88273,0.568 -3.34882,0.8757 0,0 0,0 0,0 -2.8506,0.5982 -6.99233,1.2515 -12.23831,1.9296 0,0 0,0 0,0 -9.68829,1.2523 -23.14558,2.5967 -39.2027,3.7896 0,0 0,0 0,0 -13.31244,0.9893 -28.42539,1.9018 -44.68269,2.3791 0,0 0,0 0,0 -6.2014,0.1823 -12.58808,0.3023 -19.12262,0.2564 -0.71848,-0 -1.44097,-0.01 -2.16736,-0.019 -4.02717,-0.046 -8.08464,-0.1694 -12.14007,-0.5282 -10.21393,-0.9147 -19.9914,-2.0825 -29.21284,-3.2273 -13.33292,-1.6545 -25.56067,-3.3542 -36.22991,-4.9626 0,0 0,0 0,0 -12.7428,-1.9211 -23.2655,-3.7196 -30.7823,-5.2392 0,0 0,0 0,0 -4.0722,-0.8233 -7.2624,-1.5652 -9.4452,-2.2028 0,0 0,0 0,0 -1.1239,-0.3283 -1.9808,-0.629 -2.5535,-0.899 0,0 0,0 0,0 0,0 0,0 0,0 -0.2901,-0.1367 -0.5072,-0.2655 -0.6493,-0.3861 0,0 0,0 0,0 0,0 0,0 0,0 -0.072,-0.061 -0.1239,-0.1192 -0.1571,-0.1756 0,0 0,0 0,0 -0.017,-0.028 -0.028,-0.056 -0.035,-0.083 -0.01,-0.028 -0.01,-0.055 -0.01,-0.082 z"
           id="path5442"
           inkscape:path-effect="#path-effect5444"
           inkscape:original-d="m -1054.2035,3908.816 c 0,0 80.99381,9.8603 109.49558,12.2992 28.50115,2.4389 133.62601,-4.5032 133.62601,-4.5032"
           inkscape:connector-curvature="0"
           sodipodi:nodetypes="csc" />
        <path
           style="fill:#000000;fill-rule:evenodd;stroke:none"
           d="m -967.3224,3945.9852 c 0.24444,-1.3582 3.52473,-1.9845 8.50402,-2.2614 4.9793,-0.277 11.64651,-0.229 18.83294,-0.6224 4.72685,-0.2587 9.10541,-0.7027 12.94237,-1.2124 3.76101,-1.0209 7.06687,-1.6681 9.57735,-1.8759 2.51047,-0.2078 4.2244,0.024 4.67968,0.8186 0,0 0,0 0,0 0.006,0.011 0.006,0.011 0.006,0.011 0,0 2e-5,0 0.006,0.011 0,0 10e-6,0 10e-6,0 0.43234,0.8035 -0.46936,2.0768 -2.49986,3.6765 -2.0305,1.5998 -5.19096,3.5267 -9.1543,5.5805 -4.13761,1.4195 -9.1465,2.4552 -14.52463,2.7938 -4.08831,0.2574 -7.99305,0.1 -11.49675,-0.3164 -3.50369,-0.4163 -6.6073,-1.0882 -9.15491,-1.855 -2.54762,-0.7667 -4.54119,-1.6265 -5.86384,-2.452 -1.32265,-0.8255 -1.97607,-1.616 -1.85385,-2.2951 z"
           id="path5446"
           inkscape:path-effect="#path-effect5448"
           inkscape:original-d="m -967.3224,3945.9852 c 38.23302,6.8811 54.54228,-5.1429 54.54228,-5.1429"
           inkscape:connector-curvature="0" />
      </g>
    </g>
  </g>
</svg>
