<?xml version="1.0" encoding="UTF-8" standalone="no"?>
<!-- Created with Inkscape (http://www.inkscape.org/) -->

<svg
   xmlns:dc="http://purl.org/dc/elements/1.1/"
   xmlns:cc="http://creativecommons.org/ns#"
   xmlns:rdf="http://www.w3.org/1999/02/22-rdf-syntax-ns#"
   xmlns:svg="http://www.w3.org/2000/svg"
   xmlns="http://www.w3.org/2000/svg"
   xmlns:sodipodi="http://sodipodi.sourceforge.net/DTD/sodipodi-0.dtd"
   xmlns:inkscape="http://www.inkscape.org/namespaces/inkscape"
   width="269.81686"
   height="72.721909"
   id="svg6629"
   version="1.1"
   inkscape:version="0.48.3.1 r9886"
   sodipodi:docname="01.svg">
  <defs
     id="defs6631" />
  <sodipodi:namedview
     id="base"
     pagecolor="#ffffff"
     bordercolor="#666666"
     borderopacity="1.0"
     inkscape:pageopacity="0.0"
     inkscape:pageshadow="2"
     inkscape:zoom="0.7"
     inkscape:cx="230.79245"
     inkscape:cy="13.749446"
     inkscape:document-units="px"
     inkscape:current-layer="layer1"
     showgrid="false"
     fit-margin-top="0"
     fit-margin-left="0"
     fit-margin-right="0"
     fit-margin-bottom="0"
     inkscape:window-width="1914"
     inkscape:window-height="1030"
     inkscape:window-x="0"
     inkscape:window-y="25"
     inkscape:window-maximized="1" />
  <metadata
     id="metadata6634">
    <rdf:RDF>
      <cc:Work
         rdf:about="">
        <dc:format>image/svg+xml</dc:format>
        <dc:type
           rdf:resource="http://purl.org/dc/dcmitype/StillImage" />
        <dc:title></dc:title>
      </cc:Work>
    </rdf:RDF>
  </metadata>
  <g
     inkscape:label="Capa 1"
     inkscape:groupmode="layer"
     id="layer1"
     transform="translate(-1195.2259,-387.6696)">
    <g
       style="display:inline"
       id="g6625"
       transform="translate(2295.9113,-2324.814)">
      <path
         sodipodi:nodetypes="csssssssc"
         inkscape:connector-curvature="0"
         id="path3041"
         d="m -974.93487,2726.6653 c 0,0 -10.81027,19.2465 6.70741,26.9274 17.51768,7.681 66.4926,2.0676 69.60008,9.5407 3.10748,7.4732 2.82501,16.8357 25.99755,19.3338 27.52486,2.9673 53.52206,-23.4821 36.13976,-41.1525 -18.84512,-19.1574 3.37272,16.1401 -32.07449,16.2003 -15.42893,0.027 -14.93055,-5.8048 -29.48306,-19.2083 -14.55251,-13.4035 -66.96322,-23.2507 -71.49303,-16.6638 -4.52982,6.587 -5.39422,5.0224 -5.39422,5.0224 z"
         style="fill:#000000;fill-rule:evenodd;stroke:none" />
      <path
         sodipodi:nodetypes="csssssssc"
         inkscape:connector-curvature="0"
         id="path3041-5"
         d="m -988.03963,2716.9715 c 0,0 15.58808,15.6301 0.78147,27.7392 -14.80664,12.1091 -32.65154,3.3389 -57.76674,16.735 -7.1411,3.8091 -5.306,26.9923 -28.331,23.3788 -23.025,-3.6134 -39.6713,-27.9418 -15.4018,-36.9114 25.2063,-9.3159 -2.235,3.2466 7.414,15.2861 8.047,10.0405 20.0126,-16.2833 33.9994,-28.1909 15.0646,-12.8252 46.6241,-26.5494 52.75852,-21.4234 6.13439,5.126 6.54615,3.3866 6.54615,3.3866 z"
         style="fill:#000000;fill-rule:evenodd;stroke:none" />
    </g>
  </g>
</svg>
