<?xml version="1.0" encoding="UTF-8" standalone="no"?>
<!-- Created with Inkscape (http://www.inkscape.org/) -->

<svg
   xmlns:dc="http://purl.org/dc/elements/1.1/"
   xmlns:cc="http://creativecommons.org/ns#"
   xmlns:rdf="http://www.w3.org/1999/02/22-rdf-syntax-ns#"
   xmlns:svg="http://www.w3.org/2000/svg"
   xmlns="http://www.w3.org/2000/svg"
   xmlns:sodipodi="http://sodipodi.sourceforge.net/DTD/sodipodi-0.dtd"
   xmlns:inkscape="http://www.inkscape.org/namespaces/inkscape"
   width="199.23726"
   height="77.485558"
   id="svg4392"
   version="1.1"
   inkscape:version="0.48.3.1 r9886"
   sodipodi:docname="03.svg">
  <defs
     id="defs4394">
    <inkscape:path-effect
       effect="skeletal"
       id="path-effect4593"
       is_visible="true"
       pattern="m -2752.4395,-1870.0293 c 0,-2.76 2.24,-5 5,-5 2.76,0 5,2.24 5,5 0,2.76 -2.24,5 -5,5 -2.76,0 -5,-2.24 -5,-5 z"
       copytype="single_stretched"
       prop_scale="5"
       scale_y_rel="false"
       spacing="0"
       normal_offset="0"
       tang_offset="0"
       prop_units="false"
       vertical_pattern="false"
       fuse_tolerance="0" />
    <inkscape:path-effect
       effect="skeletal"
       id="path-effect4597"
       is_visible="true"
       pattern="m -2728.1959,-1853.8669 c 0,-2.76 2.24,-5 5,-5 2.76,0 5,2.24 5,5 0,2.76 -2.24,5 -5,5 -2.76,0 -5,-2.24 -5,-5 z"
       copytype="single_stretched"
       prop_scale="5"
       scale_y_rel="false"
       spacing="0"
       normal_offset="0"
       tang_offset="0"
       prop_units="false"
       vertical_pattern="false"
       fuse_tolerance="0" />
  </defs>
  <sodipodi:namedview
     id="base"
     pagecolor="#ffffff"
     bordercolor="#666666"
     borderopacity="1.0"
     inkscape:pageopacity="0.0"
     inkscape:pageshadow="2"
     inkscape:zoom="0.35"
     inkscape:cx="97.460312"
     inkscape:cy="132.34779"
     inkscape:document-units="px"
     inkscape:current-layer="layer1"
     showgrid="false"
     fit-margin-top="0"
     fit-margin-left="0"
     fit-margin-right="0"
     fit-margin-bottom="0"
     inkscape:window-width="560"
     inkscape:window-height="451"
     inkscape:window-x="0"
     inkscape:window-y="25"
     inkscape:window-maximized="0" />
  <metadata
     id="metadata4397">
    <rdf:RDF>
      <cc:Work
         rdf:about="">
        <dc:format>image/svg+xml</dc:format>
        <dc:type
           rdf:resource="http://purl.org/dc/dcmitype/StillImage" />
        <dc:title />
      </cc:Work>
    </rdf:RDF>
  </metadata>
  <g
     inkscape:label="Capa 1"
     inkscape:groupmode="layer"
     id="layer1"
     transform="translate(-252.53969,-587.22441)">
    <path
       style="fill:#000000;fill-rule:evenodd;stroke:none"
       d="m 436.01681,664.33941 c -0.18067,-0.0704 -0.3581,-0.14738 -0.53273,-0.22999 -0.1667,-0.0844 -0.32994,-0.17639 -0.4901,-0.27527 -0.31639,-0.19532 -0.62103,-0.41701 -0.91452,-0.66655 0,0 -10e-6,0 -10e-6,0 0,0 0,0 0,0 -0.57442,-0.47944 -1.11501,-1.04271 -1.62664,-1.69983 0,0 0,0 0,0 -0.96728,-1.24116 -1.85775,-2.75167 -2.76016,-4.4818 0,0 0,0 0,0 -0.80849,-1.52449 -1.63446,-3.18123 -2.55872,-4.82226 -0.92426,-1.64102 -1.94557,-3.268 -3.16335,-4.65419 0,0 0,0 0,0 0,0 0,0 0,0 -1.02849,-1.12306 -2.20159,-2.15428 -3.46212,-3.0016 -1.26054,-0.84731 -2.60827,-1.51231 -3.91711,-1.84009 0,0 0,0 0,0 -1.59556,-0.7917 -3.65857,-1.27511 -6.24197,-1.67411 -2.5834,-0.399 -5.68965,-0.71604 -9.20791,-1.29169 0,0 0,0 0,0 0,0 0,-1e-5 0,-1e-5 -5.28097,-0.6055 -10.88546,-1.07062 -16.81579,-1.42714 -5.93033,-0.35652 -12.18739,-0.6053 -18.73924,-0.82889 -2.57724,-0.0743 -5.17429,-0.13707 -7.78768,-0.18488 -11.68962,-0.21387 -22.78664,-0.0925 -33.10478,0.36477 -7.17504,0.39858 -13.76422,0.76138 -19.74873,1.29327 -5.9845,0.53189 -11.36997,1.23469 -16.24373,2.10763 -2.80431,0.49457 -5.38803,0.94831 -7.76601,1.4193 -2.37798,0.47099 -4.5516,0.95912 -6.56118,1.46694 -2.02346,0.5041 -3.9251,0.99077 -5.69173,1.44298 -1.76664,0.45221 -3.40088,0.86981 -4.91884,1.18664 -1.51796,0.31684 -2.92224,0.53187 -4.21892,0.53859 -1.29668,0.007 -2.48788,-0.19692 -3.53381,-0.73483 -1.04593,-0.53791 -1.91173,-1.39773 -2.52182,-2.62755 -0.6101,-1.22982 -0.96259,-2.83095 -0.94915,-4.77581 0.0134,-1.94485 0.39533,-4.23395 1.25267,-6.74998 0.85734,-2.51603 2.19285,-5.25872 4.07221,-8.0189 1.806,-2.68349 4.07262,-5.43148 6.76498,-8.09594 2.69236,-2.66445 5.81102,-5.24393 9.25021,-7.59302 5.82312,-3.99907 12.69022,-7.66658 20.28181,-10.69418 7.59159,-3.0276 15.90303,-5.4102 24.46229,-7.04865 12.48991,-2.49553 26.10038,-3.745 40.09896,-3.48395 3.1296,0.0584 6.22363,0.18975 9.27471,0.38804 7.65451,0.46433 15.23204,1.37168 22.55579,2.73884 7.32375,1.36715 14.39234,3.19402 21.0375,5.42808 0,0 1e-5,0 1e-5,0 0,0 0,0 0,0 5.89839,1.66642 11.77848,4.36599 17.1364,7.87972 5.35793,3.51374 10.19229,7.83791 14.18871,12.63508 0,0 0,0 0,0 3.43149,4.4099 5.71148,9.03712 7.09463,13.50457 1.38314,4.46746 1.87177,8.77543 1.74735,12.67698 0,0 0,0 0,0 0,0 0,0 0,0 -0.21047,4.21224 -1.0625,7.75466 -2.19197,10.66532 -1.12947,2.91066 -2.53678,5.19206 -3.98324,6.92403 0,0 0,0 0,0 -1.62529,1.9597 -3.32143,3.27614 -4.9023,3.9733 0,0 0,0 0,0 -0.83631,0.36857 -1.65018,0.58258 -2.41756,0.62935 0,0 0,0 0,0 0,0 0,0 0,0 -0.39251,0.0205 -0.77512,0.003 -1.14506,-0.0552 -0.18728,-0.0293 -0.37138,-0.0687 -0.55229,-0.11771 -0.18545,-0.0556 -0.3684,-0.11905 -0.54906,-0.18945 z"
       id="path4591"
       inkscape:path-effect="#path-effect4593"
       inkscape:original-d="m 436.01383,664.3467 c 0,0 14.8238,-36.0005 -29.6475,-46.589 -44.4713,-10.5884 -131.2962,-8.4707 -150.3553,28.5887"
       inkscape:connector-curvature="0"
       sodipodi:nodetypes="csc" />
  </g>
</svg>
