<?xml version="1.0" encoding="UTF-8" standalone="no"?>
<!-- Created with Inkscape (http://www.inkscape.org/) -->

<svg
   xmlns:dc="http://purl.org/dc/elements/1.1/"
   xmlns:cc="http://creativecommons.org/ns#"
   xmlns:rdf="http://www.w3.org/1999/02/22-rdf-syntax-ns#"
   xmlns:svg="http://www.w3.org/2000/svg"
   xmlns="http://www.w3.org/2000/svg"
   xmlns:sodipodi="http://sodipodi.sourceforge.net/DTD/sodipodi-0.dtd"
   xmlns:inkscape="http://www.inkscape.org/namespaces/inkscape"
   width="162.73953"
   height="71.323532"
   id="svg4392"
   version="1.1"
   inkscape:version="0.48.3.1 r9886"
   sodipodi:docname="08.svg">
  <defs
     id="defs4394">
    <inkscape:path-effect
       effect="skeletal"
       id="path-effect4593"
       is_visible="true"
       pattern="m 39.65337,-47.290044 c 0,-2.76 2.24,-5 5,-5 2.76,0 5,2.24 5,5 0,2.76 -2.24,5 -5,5 -2.76,0 -5,-2.24 -5,-5 z"
       copytype="single_stretched"
       prop_scale="5"
       scale_y_rel="false"
       spacing="0"
       normal_offset="0"
       tang_offset="0"
       prop_units="false"
       vertical_pattern="false"
       fuse_tolerance="0" />
    <inkscape:path-effect
       effect="skeletal"
       id="path-effect4597"
       is_visible="true"
       pattern="m 63.897032,-31.127607 c 0,-2.76 2.24,-5 5,-5 2.76,0 5,2.24 5,5 0,2.76 -2.24,5 -5,5 -2.76,0 -5,-2.24 -5,-5 z"
       copytype="single_stretched"
       prop_scale="5"
       scale_y_rel="false"
       spacing="0"
       normal_offset="0"
       tang_offset="0"
       prop_units="false"
       vertical_pattern="false"
       fuse_tolerance="0" />
    <inkscape:path-effect
       effect="skeletal"
       id="path-effect3205-9"
       is_visible="true"
       pattern="m 725.884,-1715.4291 c 0,-2.76 2.24,-5 5,-5 2.76,0 5,2.24 5,5 0,2.76 -2.24,5 -5,5 -2.76,0 -5,-2.24 -5,-5 z"
       copytype="single_stretched"
       prop_scale="4"
       scale_y_rel="false"
       spacing="0"
       normal_offset="0"
       tang_offset="0"
       prop_units="false"
       vertical_pattern="false"
       fuse_tolerance="0" />
    <inkscape:path-effect
       effect="skeletal"
       id="path-effect3209-7"
       is_visible="true"
       pattern="m 725.884,-1715.4291 c 0,-2.76 2.24,-5 5,-5 2.76,0 5,2.24 5,5 0,2.76 -2.24,5 -5,5 -2.76,0 -5,-2.24 -5,-5 z"
       copytype="single_stretched"
       prop_scale="4"
       scale_y_rel="false"
       spacing="0"
       normal_offset="0"
       tang_offset="0"
       prop_units="false"
       vertical_pattern="false"
       fuse_tolerance="0" />
    <inkscape:path-effect
       effect="skeletal"
       id="path-effect4171"
       is_visible="true"
       pattern="m -533.87557,-1715.3987 c 0,-2.76 2.24,-5 5,-5 2.76,0 5,2.24 5,5 0,2.76 -2.24,5 -5,5 -2.76,0 -5,-2.24 -5,-5 z"
       copytype="single_stretched"
       prop_scale="2"
       scale_y_rel="false"
       spacing="0"
       normal_offset="0"
       tang_offset="0"
       prop_units="false"
       vertical_pattern="false"
       fuse_tolerance="0" />
    <inkscape:path-effect
       effect="skeletal"
       id="path-effect4175"
       is_visible="true"
       pattern="m -546.73271,-1712.5416 c 0,-2.76 2.24,-5 5,-5 2.76,0 5,2.24 5,5 0,2.76 -2.24,5 -5,5 -2.76,0 -5,-2.24 -5,-5 z"
       copytype="single_stretched"
       prop_scale="2"
       scale_y_rel="false"
       spacing="0"
       normal_offset="0"
       tang_offset="0"
       prop_units="false"
       vertical_pattern="false"
       fuse_tolerance="0" />
  </defs>
  <sodipodi:namedview
     id="base"
     pagecolor="#ffffff"
     bordercolor="#666666"
     borderopacity="1.0"
     inkscape:pageopacity="0.0"
     inkscape:pageshadow="2"
     inkscape:zoom="0.7"
     inkscape:cx="-84.86759"
     inkscape:cy="72.629484"
     inkscape:document-units="px"
     inkscape:current-layer="layer1"
     showgrid="false"
     fit-margin-top="0"
     fit-margin-left="0"
     fit-margin-right="0"
     fit-margin-bottom="0"
     inkscape:window-width="560"
     inkscape:window-height="451"
     inkscape:window-x="0"
     inkscape:window-y="25"
     inkscape:window-maximized="0" />
  <metadata
     id="metadata4397">
    <rdf:RDF>
      <cc:Work
         rdf:about="">
        <dc:format>image/svg+xml</dc:format>
        <dc:type
           rdf:resource="http://purl.org/dc/dcmitype/StillImage" />
        <dc:title />
      </cc:Work>
    </rdf:RDF>
  </metadata>
  <g
     inkscape:label="Capa 1"
     inkscape:groupmode="layer"
     id="layer1"
     transform="translate(-803.13815,-640.02269)">
    <g
       id="g3388">
      <path
         sodipodi:nodetypes="csc"
         inkscape:connector-curvature="0"
         inkscape:original-d="m 803.4785,706.5877 c 0,0 115.8532,-47.1006 125.9652,-44.5726 10.1119,2.528 34.4607,32.1496 34.4607,32.1496"
         inkscape:path-effect="#path-effect3205-9"
         id="path3203-3"
         d="m 803.48416,706.5854 c -0.0579,-0.14245 -0.11014,-0.28673 -0.1569,-0.43279 -0.0422,-0.1449 -0.0773,-0.29225 -0.10531,-0.44201 0,0 0,0 0,0 -0.0559,-0.2988 -0.0836,-0.60721 -0.0838,-0.92481 0,0 0,0 0,0 0,0 0,0 0,0 -1.6e-4,-0.63208 0.10936,-1.30073 0.32407,-2.00272 0,0 0,0 0,0 0.42474,-1.38873 1.26259,-2.90856 2.48041,-4.53508 0,0 0,0 0,0 2.37212,-3.16817 6.19073,-6.7434 11.21823,-10.54548 0,0 0,0 0,0 9.26964,-7.01102 22.66625,-14.81336 38.75306,-22.2048 7.83291,-3.60366 16.35212,-7.14699 25.42943,-10.39978 6.06826,-2.17451 12.09726,-4.11267 18.01011,-5.78374 5.55283,-1.57732 11.35501,-3.01484 17.24547,-4.02454 0,0 0,0 0,0 2.00048,-0.35561 4.41057,-0.71074 7.15857,-0.94305 0,0 0,0 0,0 0.96227,-0.0933 2.27845,-0.1564 3.92083,-0.15505 0.90933,-0.12381 2.9475,0.10948 6.03121,0.76006 4.76205,1.651 7.73097,3.40631 9.29697,4.90931 0,0 0,0 0,0 2.67001,2.12167 4.73501,4.16974 6.38387,6.05542 0,0 0,0 0,0 4.58002,5.17701 7.78963,10.07367 10.1861,14.42766 0,0 0,0 0,0 3.09751,5.57212 5.00463,10.46886 5.82909,14.39843 0,0 0,0 0,0 0.46207,2.19854 0.58695,4.10392 0.36587,5.66416 0,0 0,0 0,0 -0.11531,0.81357 -0.3231,1.53543 -0.62628,2.1571 0,0 0,0 0,0 0,0 0,0 0,0 -0.15371,0.31753 -0.33223,0.60901 -0.53596,0.87333 0,0 0,0 0,0 0,0 0,0 0,0 -0.3571,0.34228 -0.53417,0.52449 -0.62119,0.62068 -0.0863,0.0953 -0.084,0.1063 -0.0837,0.10698 0,0 0,0 0,0 10e-6,3e-5 10e-6,2e-5 10e-6,2e-5 0,0 0,10e-6 -2e-5,-1e-5 0,0 0,0 0,0 -6.1e-4,-4.4e-4 -0.0109,-0.005 -0.12097,0.0617 -0.11104,0.067 -0.32372,0.20608 -0.72795,0.49134 0,0 0,0 0,0 0,0 0,0 0,0 -0.2971,0.15134 -0.61414,0.2755 -0.9508,0.3729 0,0 0,0 0,0 0,0 0,0 0,0 -0.66234,0.1895 -1.40045,0.27564 -2.21186,0.26182 0,0 0,0 0,0 -1.55599,-0.0265 -3.37512,-0.41324 -5.43373,-1.12327 0,0 0,0 0,0 -3.68237,-1.27078 -8.1052,-3.56685 -13.12276,-6.51751 -3.9793,-2.34209 -8.1894,-5.04619 -12.54812,-7.42622 -1.60409,-0.86443 -2.99557,-1.56785 -4.14371,-1.90442 0,0 0,0 0,0 -1.11565,-0.22352 -1.00953,-0.14862 0.53333,0.69758 2.27387,0.44812 3.46249,0.6703 3.52957,0.57093 0.42471,0.0367 0.52036,0.11587 0.26149,0.20186 0,0 0,0 0,0 -0.71997,0.27671 -1.79165,0.73317 -3.30877,1.26717 0,0 0,0 0,0 -4.22028,1.5473 -8.83359,3.42026 -14.01252,5.39015 -5.382,2.06228 -10.99401,4.15775 -16.80535,6.24215 -8.69298,3.11799 -17.21951,5.98452 -25.39382,8.44908 -16.66718,5.02534 -31.62178,8.39156 -43.10576,9.62252 0,0 0,0 0,0 -6.22611,0.66713 -11.42469,0.70766 -15.31485,0.0599 0,0 0,0 0,0 -1.99721,-0.33253 -3.64821,-0.84693 -4.91574,-1.55088 0,0 0,0 0,0 -0.64073,-0.35585 -1.1831,-0.76028 -1.6225,-1.21419 0,0 0,0 0,0 0,0 0,0 0,0 -0.22086,-0.22807 -0.41561,-0.46867 -0.58367,-0.72192 0,0 0,0 0,0 -0.0842,-0.12693 -0.16176,-0.25704 -0.23249,-0.39035 -0.0683,-0.13732 -0.1314,-0.2772 -0.18924,-0.41965 z"
         style="fill:#000000;fill-opacity:1;fill-rule:evenodd;stroke:none" />
      <path
         inkscape:connector-curvature="0"
         inkscape:original-d="m 911.2789,659.1088 c 0,0 29.4946,-9.8315 36.6448,-16.0879"
         inkscape:path-effect="#path-effect4175"
         id="path4173"
         d="m 911.27893,659.10879 c -1.69081,-4.64115 3.63287,-10.95096 12.16947,-14.92067 0,0 0,-10e-6 0,-10e-6 0.96268,-0.48052 1.95989,-0.93037 2.98499,-1.3463 3.17219,-1.2871 6.21638,-2.09963 9.00423,-2.51808 0,-10e-6 0,-10e-6 0,-10e-6 2.13464,-0.32767 4.02471,-0.3686 5.71876,-0.21528 1.50439,0.0883 2.72507,0.47372 3.84384,0.95199 1.11877,0.47827 2.1456,1.07146 2.92348,1.96047 0.77788,0.88901 1.19844,2.04276 1.10745,3.4263 -0.091,1.38354 -0.71438,2.98472 -1.59028,4.45846 -1.05155,1.7514 -2.63109,3.52585 -4.50344,5.11292 0,0 0,0 0,0 -2.49017,2.10366 -5.64751,4.00083 -9.15552,5.42269 -1.13362,0.45947 -2.25868,0.85226 -3.36376,1.18219 0,0 0,0 0,0 -9.23509,2.50465 -17.44842,1.12648 -19.13922,-3.51467 z"
         style="fill:#000000;fill-rule:evenodd;stroke:none" />
    </g>
  </g>
</svg>
