<?xml version="1.0" encoding="UTF-8" standalone="no"?>
<!-- Created with Inkscape (http://www.inkscape.org/) -->

<svg
   xmlns:dc="http://purl.org/dc/elements/1.1/"
   xmlns:cc="http://creativecommons.org/ns#"
   xmlns:rdf="http://www.w3.org/1999/02/22-rdf-syntax-ns#"
   xmlns:svg="http://www.w3.org/2000/svg"
   xmlns="http://www.w3.org/2000/svg"
   xmlns:sodipodi="http://sodipodi.sourceforge.net/DTD/sodipodi-0.dtd"
   xmlns:inkscape="http://www.inkscape.org/namespaces/inkscape"
   width="195.1207"
   height="87.596504"
   id="svg4392"
   version="1.1"
   inkscape:version="0.48.3.1 r9886"
   sodipodi:docname="10.svg">
  <defs
     id="defs4394">
    <inkscape:path-effect
       effect="skeletal"
       id="path-effect4593"
       is_visible="true"
       pattern="m 39.65337,-47.290044 c 0,-2.76 2.24,-5 5,-5 2.76,0 5,2.24 5,5 0,2.76 -2.24,5 -5,5 -2.76,0 -5,-2.24 -5,-5 z"
       copytype="single_stretched"
       prop_scale="5"
       scale_y_rel="false"
       spacing="0"
       normal_offset="0"
       tang_offset="0"
       prop_units="false"
       vertical_pattern="false"
       fuse_tolerance="0" />
    <inkscape:path-effect
       effect="skeletal"
       id="path-effect4597"
       is_visible="true"
       pattern="m 63.897032,-31.127607 c 0,-2.76 2.24,-5 5,-5 2.76,0 5,2.24 5,5 0,2.76 -2.24,5 -5,5 -2.76,0 -5,-2.24 -5,-5 z"
       copytype="single_stretched"
       prop_scale="5"
       scale_y_rel="false"
       spacing="0"
       normal_offset="0"
       tang_offset="0"
       prop_units="false"
       vertical_pattern="false"
       fuse_tolerance="0" />
    <inkscape:path-effect
       effect="skeletal"
       id="path-effect3205-9"
       is_visible="true"
       pattern="m 1328.331,16.398205 c 0,-2.76 2.24,-5 5,-5 2.76,0 5,2.24 5,5 0,2.76 -2.24,5 -5,5 -2.76,0 -5,-2.24 -5,-5 z"
       copytype="single_stretched"
       prop_scale="4"
       scale_y_rel="false"
       spacing="0"
       normal_offset="0"
       tang_offset="0"
       prop_units="false"
       vertical_pattern="false"
       fuse_tolerance="0" />
    <inkscape:path-effect
       effect="skeletal"
       id="path-effect3209-7"
       is_visible="true"
       pattern="m 1328.331,16.398205 c 0,-2.76 2.24,-5 5,-5 2.76,0 5,2.24 5,5 0,2.76 -2.24,5 -5,5 -2.76,0 -5,-2.24 -5,-5 z"
       copytype="single_stretched"
       prop_scale="4"
       scale_y_rel="false"
       spacing="0"
       normal_offset="0"
       tang_offset="0"
       prop_units="false"
       vertical_pattern="false"
       fuse_tolerance="0" />
    <inkscape:path-effect
       effect="skeletal"
       id="path-effect4171"
       is_visible="true"
       pattern="m 68.571429,16.428571 c 0,-2.76 2.24,-5 5,-5 2.76,0 5,2.24 5,5 0,2.76 -2.24,5 -5,5 -2.76,0 -5,-2.24 -5,-5 z"
       copytype="single_stretched"
       prop_scale="2"
       scale_y_rel="false"
       spacing="0"
       normal_offset="0"
       tang_offset="0"
       prop_units="false"
       vertical_pattern="false"
       fuse_tolerance="0" />
    <inkscape:path-effect
       effect="skeletal"
       id="path-effect4175"
       is_visible="true"
       pattern="m 55.714286,19.285714 c 0,-2.76 2.24,-5 5,-5 2.76,0 5,2.24 5,5 0,2.76 -2.24,5 -5,5 -2.76,0 -5,-2.24 -5,-5 z"
       copytype="single_stretched"
       prop_scale="2"
       scale_y_rel="false"
       spacing="0"
       normal_offset="0"
       tang_offset="0"
       prop_units="false"
       vertical_pattern="false"
       fuse_tolerance="0" />
    <inkscape:path-effect
       effect="skeletal"
       id="path-effect3205"
       is_visible="true"
       pattern="m 215.4654,-1736.665 c 0,-2.76 2.24,-5 5,-5 2.76,0 5,2.24 5,5 0,2.76 -2.24,5 -5,5 -2.76,0 -5,-2.24 -5,-5 z"
       copytype="single_stretched"
       prop_scale="4"
       scale_y_rel="false"
       spacing="0"
       normal_offset="0"
       tang_offset="0"
       prop_units="false"
       vertical_pattern="false"
       fuse_tolerance="0" />
    <inkscape:path-effect
       effect="skeletal"
       id="path-effect3209"
       is_visible="true"
       pattern="m 266.89397,-1728.0936 c 0,-2.76 2.24,-5 5,-5 2.76,0 5,2.24 5,5 0,2.76 -2.24,5 -5,5 -2.76,0 -5,-2.24 -5,-5 z"
       copytype="single_stretched"
       prop_scale="4"
       scale_y_rel="false"
       spacing="0"
       normal_offset="0"
       tang_offset="0"
       prop_units="false"
       vertical_pattern="false"
       fuse_tolerance="0" />
    <inkscape:path-effect
       effect="skeletal"
       id="path-effect3205-9-7"
       is_visible="true"
       pattern="m -1159.3039,-1720.1065 c 0,-2.76 2.24,-5 5,-5 2.76,0 5,2.24 5,5 0,2.76 -2.24,5 -5,5 -2.76,0 -5,-2.24 -5,-5 z"
       copytype="single_stretched"
       prop_scale="5"
       scale_y_rel="false"
       spacing="0"
       normal_offset="0"
       tang_offset="0"
       prop_units="false"
       vertical_pattern="false"
       fuse_tolerance="0" />
    <inkscape:path-effect
       effect="skeletal"
       id="path-effect3209-7-5"
       is_visible="true"
       pattern="m -1209.1604,-1749.9629 c 0,-2.76 2.24,-5 5,-5 2.76,0 5,2.24 5,5 0,2.76 -2.24,5 -5,5 -2.76,0 -5,-2.24 -5,-5 z"
       copytype="single_stretched"
       prop_scale="5"
       scale_y_rel="false"
       spacing="0"
       normal_offset="0"
       tang_offset="0"
       prop_units="false"
       vertical_pattern="false"
       fuse_tolerance="0" />
  </defs>
  <sodipodi:namedview
     id="base"
     pagecolor="#ffffff"
     bordercolor="#666666"
     borderopacity="1.0"
     inkscape:pageopacity="0.0"
     inkscape:pageshadow="2"
     inkscape:zoom="0.7"
     inkscape:cx="201.57207"
     inkscape:cy="51.874552"
     inkscape:document-units="px"
     inkscape:current-layer="layer1"
     showgrid="false"
     fit-margin-top="0"
     fit-margin-left="0"
     fit-margin-right="0"
     fit-margin-bottom="0"
     inkscape:window-width="560"
     inkscape:window-height="451"
     inkscape:window-x="0"
     inkscape:window-y="25"
     inkscape:window-maximized="0" />
  <metadata
     id="metadata4397">
    <rdf:RDF>
      <cc:Work
         rdf:about="">
        <dc:format>image/svg+xml</dc:format>
        <dc:type
           rdf:resource="http://purl.org/dc/dcmitype/StillImage" />
        <dc:title />
      </cc:Work>
    </rdf:RDF>
  </metadata>
  <g
     inkscape:label="Capa 1"
     inkscape:groupmode="layer"
     id="layer1"
     transform="translate(-516.69849,-602.99479)">
    <path
       style="fill:#000000;fill-opacity:1;fill-rule:evenodd;stroke:none;display:inline"
       d="m 516.69997,635.13126 c 0.14234,-5.9546 9.93896,-11.19375 26.0429,-15.10481 0,0 0,0 0,0 6.45718,-1.74944 13.86255,-3.36439 21.85168,-5.00552 7.98912,-1.64113 16.556,-3.30812 25.35146,-5.32943 12.53499,-2.68088 26.22327,-4.69897 40.5582,-5.79032 4.22051,-0.32131 8.39525,-0.55528 12.51028,-0.70685 7.39365,-0.28109 14.90292,-0.29307 22.35,0.14468 0,0 0,0 0,0 2.75963,0.15659 5.78225,0.40207 9.0064,0.81507 0,0 0,0 0,0 0,0 0,0 0,0 0,0 0,0 0,0 1.67961,0.10976 4.83587,0.64516 9.21591,1.84404 0,0 0,0 0,0 6.62725,1.93759 13.13941,6.12319 18.78455,12.10343 0,0 0,0 0,0 5.00011,5.95964 7.74128,12.18476 8.75075,18.10625 0,0 0,0 0,0 1.08147,6.52195 0.80532,11.99513 -0.14972,16.49801 0,0 0,0 0,0 -1.06473,5.40379 -2.68207,9.88577 -4.47732,13.65068 0,0 0,0 0,0 -2.20213,4.63732 -4.61824,8.47748 -7.02785,11.64354 -2.40961,3.16607 -4.81416,5.65924 -7.08025,7.57216 0,0 0,0 0,0 -2.62249,2.22958 -5.08873,3.71543 -7.26321,4.45443 0,0 0,0 0,0 -1.14759,0.38993 -2.22052,0.58134 -3.19865,0.56354 0,0 0,0 0,0 -0.50065,-0.009 -0.97816,-0.0702 -1.4291,-0.1863 0,0 0,0 0,0 0,0 0,0 0,0 -0.22859,-0.0576 -0.45036,-0.12929 -0.66488,-0.21554 0,0 0,0 0,0 -0.30821,-0.1577 -0.46771,-0.23524 -0.54991,-0.27313 0,0 0,0 0,0 -0.0812,-0.0374 -0.087,-0.0362 -0.0873,-0.0359 0,0 0,0 0,0 0,0 0,0 0,0 0,0 0,0 0,0 0,0 0,0 0,0 0,0 0,0 0,0 0,0 0,0 0,0 0,0 0,0 0,0 0,0 0,0 0,0 0,0 0,0 0,0 0,0 0,0 0,0 -2e-5,1e-5 -2e-5,1e-5 -2e-5,1e-5 0,0 0,0 0,-2e-5 0,0 0,0 0,0 0,0 0,0 0,0 0,0 0,0 0,0 0,0 0,0 0,0 0,0 0,0 0,0 0,0 0,0 0,0 0,0 0,0 0,0 0,0 0,0 0,0 0,0 0,0 0,0 0,0 0,0 0,0 0,-4.1e-4 -0.002,-0.006 -0.0756,-0.0565 0,0 0,0 0,0 -0.0747,-0.0511 -0.22311,-0.14823 -0.51669,-0.33183 -10e-6,0 -10e-6,0 -10e-6,0 -0.18543,-0.13778 -0.36413,-0.28606 -0.53605,-0.44506 0,0 0,0 0,0 0,0 0,0 0,0 -0.33884,-0.31674 -0.65109,-0.67561 -0.93655,-1.07827 0,0 0,0 0,0 -0.55773,-0.78663 -1.01951,-1.72925 -1.39198,-2.82812 0,0 0,0 0,0 -0.70589,-2.08171 -1.10914,-4.68848 -1.30745,-7.76753 0,0 0,0 0,0 -0.17285,-2.67099 -0.19488,-5.66715 -0.20085,-8.88081 -0.006,-3.21365 0.005,-6.64397 -0.1777,-10.1643 0,0 0,0 0,0 -0.16209,-2.8339 -0.40751,-5.54417 -1.01868,-7.85235 -0.57672,-1.92965 -1.10104,-3.29927 -1.8386,-3.56287 0,0 0,0 0,0 -0.56703,0.0407 -0.72174,0.44396 -0.24323,1.75544 0.81047,1.01026 0.77565,1.75444 0.32789,1.73059 0,0 0,0 0,0 1.35022,0.35898 1.30966,0.6459 -0.21565,0.52898 0,0 0,0 0,0 0,0 -10e-6,0 -10e-6,0 0,0 0,0 0,0 -1.6316,0.0696 -3.55639,0.22129 -5.81217,0.36595 0,0 0,0 0,0 -5.98921,0.40581 -12.41807,0.99168 -19.32896,1.54818 -3.82117,0.31314 -7.69743,0.61887 -11.62023,0.91774 -13.32374,1.01511 -26.09818,1.87502 -38.00179,2.52657 -11.06255,0.68653 -21.21663,0.33009 -30.26017,-0.60217 -9.04353,-0.93227 -16.98272,-2.43827 -23.70044,-4.21135 0,0 0,0 0,0 -16.21088,-4.68352 -25.78125,-10.38564 -25.63891,-16.34024 z"
       id="path3207-2-6"
       inkscape:path-effect="#path-effect3209-7-5"
       inkscape:original-d="m 516.69995,635.13126 c 0,0 43.3889,2.3615 76.4228,-2.143 33.034,-4.5045 75.7834,-7.154 84.3098,-4.7904 31.885,8.8396 1.7613,61.6814 1.7613,61.6814"
       inkscape:connector-curvature="0"
       sodipodi:nodetypes="cssc" />
  </g>
</svg>
