<?xml version="1.0" encoding="UTF-8" standalone="no"?>
<!-- Created with Inkscape (http://www.inkscape.org/) -->

<svg
   xmlns:dc="http://purl.org/dc/elements/1.1/"
   xmlns:cc="http://creativecommons.org/ns#"
   xmlns:rdf="http://www.w3.org/1999/02/22-rdf-syntax-ns#"
   xmlns:svg="http://www.w3.org/2000/svg"
   xmlns="http://www.w3.org/2000/svg"
   xmlns:sodipodi="http://sodipodi.sourceforge.net/DTD/sodipodi-0.dtd"
   xmlns:inkscape="http://www.inkscape.org/namespaces/inkscape"
   width="623.42731"
   height="458.74957"
   id="svg6629"
   version="1.1"
   inkscape:version="0.48.3.1 r9886"
   sodipodi:docname="Documento nuevo 61">
  <defs
     id="defs6631" />
  <sodipodi:namedview
     id="base"
     pagecolor="#ffffff"
     bordercolor="#666666"
     borderopacity="1.0"
     inkscape:pageopacity="0.0"
     inkscape:pageshadow="2"
     inkscape:zoom="0.35"
     inkscape:cx="230.28508"
     inkscape:cy="306.51765"
     inkscape:document-units="px"
     inkscape:current-layer="layer1"
     showgrid="false"
     fit-margin-top="0"
     fit-margin-left="0"
     fit-margin-right="0"
     fit-margin-bottom="0"
     inkscape:window-width="560"
     inkscape:window-height="453"
     inkscape:window-x="3"
     inkscape:window-y="47"
     inkscape:window-maximized="0" />
  <metadata
     id="metadata6634">
    <rdf:RDF>
      <cc:Work
         rdf:about="">
        <dc:format>image/svg+xml</dc:format>
        <dc:type
           rdf:resource="http://purl.org/dc/dcmitype/StillImage" />
        <dc:title></dc:title>
      </cc:Work>
    </rdf:RDF>
  </metadata>
  <g
     inkscape:label="Capa 1"
     inkscape:groupmode="layer"
     id="layer1"
     transform="translate(-119.71492,-380.13026)">
    <path
       style="fill:#999999;fill-rule:evenodd;stroke:none;display:inline"
       d="m 135.69012,380.13026 -15.9752,20.1896 5.0427,21.8827 c 0,0 15.9858,150.5971 29.4471,190.9815 13.4613,40.3842 70.6695,122.8329 79.0831,132.0877 8.413,9.2547 107.6969,98.4498 189.307,93.4018 81.6101,-5.0479 192.6667,-60.587 241.4643,-113.5914 48.7976,-53.0044 79.0831,-161.5425 79.0831,-224.6429 0,-63.1005 -5.0427,-76.5619 -5.0427,-76.5619 l -23.5573,-34.4896 c 0,0 -48.6443,37.6887 -52.0097,57.0395 -3.3653,19.3509 22.1078,111.1664 -45.2427,126.422 -65.4266,14.8199 -115.2477,-16.757 -140.8522,-19.3925 -36.4024,-3.7468 -30.724,22.7541 -47.7058,42.199 -18.6642,-28.5115 -23.7776,-47.8454 -54.0994,-36.3149 -30.3212,11.5307 -56.7815,48.143 -120.3005,23.555 -78.4161,-30.3552 -56.996,-82.0728 -67.092,-119.9331 -10.0966,-37.8603 -51.5498,-82.8325 -51.5498,-82.8325 z m 296.8024,280.7888 c 40.3846,-0.8934 131.2611,-22.0568 146.4048,12.4382 15.1443,34.4949 -42.7158,77.5828 -77.2194,81.1718 -49.5796,5.1572 2.7278,-49.2944 -75.4644,-45.9829 -61.4193,2.6012 -7.8255,65.3311 -68.4021,45.9803 -22.5689,-7.2094 -84.8378,-38.0948 -67.8648,-77.6021 16.9744,-39.5074 106.8905,-15.4068 142.5459,-16.0053 z"
       id="path5450"
       inkscape:connector-curvature="0"
       sodipodi:nodetypes="cccscsssccsssczscccsssszc" />
  </g>
</svg>
