<?xml version="1.0" encoding="UTF-8" standalone="no"?>
<!-- Created with Inkscape (http://www.inkscape.org/) -->

<svg
   xmlns:dc="http://purl.org/dc/elements/1.1/"
   xmlns:cc="http://creativecommons.org/ns#"
   xmlns:rdf="http://www.w3.org/1999/02/22-rdf-syntax-ns#"
   xmlns:svg="http://www.w3.org/2000/svg"
   xmlns="http://www.w3.org/2000/svg"
   xmlns:sodipodi="http://sodipodi.sourceforge.net/DTD/sodipodi-0.dtd"
   xmlns:inkscape="http://www.inkscape.org/namespaces/inkscape"
   width="371.81039"
   height="229.7002"
   id="svg6629"
   version="1.1"
   inkscape:version="0.48.3.1 r9886"
   sodipodi:docname="01.svg">
  <defs
     id="defs6631" />
  <sodipodi:namedview
     id="base"
     pagecolor="#ffffff"
     bordercolor="#666666"
     borderopacity="1.0"
     inkscape:pageopacity="0.0"
     inkscape:pageshadow="2"
     inkscape:zoom="0.35"
     inkscape:cx="-60.95258"
     inkscape:cy="129.93917"
     inkscape:document-units="px"
     inkscape:current-layer="layer1"
     showgrid="false"
     fit-margin-top="0"
     fit-margin-left="0"
     fit-margin-right="0"
     fit-margin-bottom="0"
     inkscape:window-width="560"
     inkscape:window-height="453"
     inkscape:window-x="3"
     inkscape:window-y="47"
     inkscape:window-maximized="0" />
  <metadata
     id="metadata6634">
    <rdf:RDF>
      <cc:Work
         rdf:about="">
        <dc:format>image/svg+xml</dc:format>
        <dc:type
           rdf:resource="http://purl.org/dc/dcmitype/StillImage" />
        <dc:title></dc:title>
      </cc:Work>
    </rdf:RDF>
  </metadata>
  <g
     inkscape:label="Capa 1"
     inkscape:groupmode="layer"
     id="layer1"
     transform="translate(-410.95258,-432.60116)">
    <path
       style="opacity:0.6;fill:#b7c8c4;fill-rule:evenodd;stroke:none;display:inline"
       d="m 410.95258,470.13966 c 0,0 27.707,15.1942 33.9634,24.132 6.2564,8.9377 33.0696,40.2198 45.5825,24.1319 12.5129,-16.0879 35.7511,-50.9452 35.7511,-50.9452 0,0 0.8938,0 15.1941,16.9817 14.3004,16.9818 41.1137,-16.0879 41.1137,-16.0879 0,0 62.5643,10.7253 70.6082,29.4946 8.0441,18.7692 22.3444,26.8132 25.9195,26.8132 3.5751,0 38.4324,11.6191 55.4141,-8.044 16.9817,-19.663 48.2638,-84.0148 48.2638,-84.0148 l -32.1759,87.5899 c 0,0 -42.9012,94.7402 -58.0954,109.9344 -15.1942,15.1942 -68.8207,32.1759 -68.8207,32.1759 0,0 -99.2091,-1.7875 -120.6596,-22.3444 -21.4506,-20.5568 -68.8207,-100.9966 -68.8207,-100.9966 z"
       id="path4263"
       inkscape:connector-curvature="0" />
  </g>
</svg>
