<?xml version="1.0" encoding="UTF-8" standalone="no"?>
<!-- Created with Inkscape (http://www.inkscape.org/) -->

<svg
   xmlns:dc="http://purl.org/dc/elements/1.1/"
   xmlns:cc="http://creativecommons.org/ns#"
   xmlns:rdf="http://www.w3.org/1999/02/22-rdf-syntax-ns#"
   xmlns:svg="http://www.w3.org/2000/svg"
   xmlns="http://www.w3.org/2000/svg"
   xmlns:sodipodi="http://sodipodi.sourceforge.net/DTD/sodipodi-0.dtd"
   xmlns:inkscape="http://www.inkscape.org/namespaces/inkscape"
   width="453.31329"
   height="478.36826"
   id="svg6629"
   version="1.1"
   inkscape:version="0.48.3.1 r9886"
   sodipodi:docname="03.svg">
  <defs
     id="defs6631" />
  <sodipodi:namedview
     id="base"
     pagecolor="#ffffff"
     bordercolor="#666666"
     borderopacity="1.0"
     inkscape:pageopacity="0.0"
     inkscape:pageshadow="2"
     inkscape:zoom="0.7"
     inkscape:cx="602.12144"
     inkscape:cy="345.56662"
     inkscape:document-units="px"
     inkscape:current-layer="layer1"
     showgrid="false"
     fit-margin-top="0"
     fit-margin-left="0"
     fit-margin-right="0"
     fit-margin-bottom="0"
     inkscape:window-width="1914"
     inkscape:window-height="1030"
     inkscape:window-x="0"
     inkscape:window-y="25"
     inkscape:window-maximized="1" />
  <metadata
     id="metadata6634">
    <rdf:RDF>
      <cc:Work
         rdf:about="">
        <dc:format>image/svg+xml</dc:format>
        <dc:type
           rdf:resource="http://purl.org/dc/dcmitype/StillImage" />
        <dc:title></dc:title>
      </cc:Work>
    </rdf:RDF>
  </metadata>
  <g
     inkscape:label="Capa 1"
     inkscape:groupmode="layer"
     id="layer1"
     transform="translate(-358.18262,-280.98329)">
    <path
       style="fill:#333333;fill-rule:evenodd;stroke:none;display:inline"
       d="m 780.99629,289.88379 c 8.5034,33.6055 -17.2506,204.4698 -31.1962,218.4154 -13.9462,13.9455 -54.74091,67.1241 -71.47501,48.9948 -16.7347,-18.1292 -74.344,-46.4515 -99.4466,-47.846 -25.1014,-1.3945 -37.6441,16.7325 -37.6441,16.7325 0,0 -11.1638,-9.7553 -37.66,-11.1499 -26.4966,-1.3945 -88.8946,44.0146 -98.6565,21.7017 -9.7619,-22.3129 -17.968,-227.8579 -15.1776,-255.749 l -15.6187,2.1706 c -3.1287,44.6258 -5.0356,144.1063 -5.0356,144.1063 0,0 3.4048,38.9608 -6.3571,58.4846 -9.7619,19.5238 -1.3921,94.8319 2.7915,119.934 4.1839,25.102 60.3114,70.9145 76.3659,86.0292 34.2173,32.214 91.7668,66.1799 122.4468,67.5745 30.6809,1.3946 92.5259,-18.6621 131.5239,-30.4134 41.19001,-12.4118 73.11461,-52.7885 109.37311,-109.9653 12.551,-18.1293 2.3673,-176.3969 2.3673,-191.7369 0,-15.3401 -13.0657,-70.5745 -5.7188,-139.5538 z m -246.73241,246.0651 c 0,0 115.7458,15.338 122.7186,40.4399 6.7288,24.2239 16.726,82.2833 -15.3489,92.0452 -32.0749,9.7618 -48.7964,-5.5783 -55.7691,-20.9184 -6.9729,-15.3402 -13.9588,-23.7162 -34.8771,-15.3488 -20.9181,8.3673 11.1733,54.5035 -29.2836,39.0563 -40.4572,-15.4472 -67.7561,-47.0601 -56.5997,-74.9512 -15.3393,-46.0205 69.1598,-60.323 69.1598,-60.323 z"
       id="path7150-5"
       inkscape:connector-curvature="0"
       sodipodi:nodetypes="ccscssccccscssscscccssszccc" />
  </g>
</svg>
