<?xml version="1.0" encoding="UTF-8" standalone="no"?>
<!-- Created with Inkscape (http://www.inkscape.org/) -->

<svg
   xmlns:dc="http://purl.org/dc/elements/1.1/"
   xmlns:cc="http://creativecommons.org/ns#"
   xmlns:rdf="http://www.w3.org/1999/02/22-rdf-syntax-ns#"
   xmlns:svg="http://www.w3.org/2000/svg"
   xmlns="http://www.w3.org/2000/svg"
   xmlns:sodipodi="http://sodipodi.sourceforge.net/DTD/sodipodi-0.dtd"
   xmlns:inkscape="http://www.inkscape.org/namespaces/inkscape"
   width="486.1463"
   height="142.38036"
   id="svg5385"
   version="1.1"
   inkscape:version="0.48.3.1 r9886"
   sodipodi:docname="Documento nuevo 47">
  <defs
     id="defs5387">
    <inkscape:path-effect
       effect="skeletal"
       id="path-effect6244-1"
       is_visible="true"
       pattern="m -16215.781,893.10379 c 0,-2.76 2.24,-5 5,-5 2.76,0 5,2.24 5,5 0,2.76 -2.24,5 -5,5 -2.76,0 -5,-2.24 -5,-5 z"
       copytype="single_stretched"
       prop_scale="2"
       scale_y_rel="false"
       spacing="0"
       normal_offset="0"
       tang_offset="0"
       prop_units="false"
       vertical_pattern="false"
       fuse_tolerance="0" />
    <inkscape:path-effect
       effect="skeletal"
       id="path-effect6432"
       is_visible="true"
       pattern="m -17522.558,1031.8039 c 0,-2.76 2.24,-5 5,-5 2.76,0 5,2.24 5,5 0,2.76 -2.24,5 -5,5 -2.76,0 -5,-2.24 -5,-5 z"
       copytype="single_stretched"
       prop_scale="1"
       scale_y_rel="false"
       spacing="0"
       normal_offset="0"
       tang_offset="0"
       prop_units="false"
       vertical_pattern="false"
       fuse_tolerance="0" />
    <inkscape:path-effect
       effect="skeletal"
       id="path-effect6244-1-9"
       is_visible="true"
       pattern="m -16686.257,895.23655 c 0,-2.76 2.24,-5 5,-5 2.76,0 5,2.24 5,5 0,2.76 -2.24,5 -5,5 -2.76,0 -5,-2.24 -5,-5 z"
       copytype="single_stretched"
       prop_scale="2"
       scale_y_rel="false"
       spacing="0"
       normal_offset="0"
       tang_offset="0"
       prop_units="false"
       vertical_pattern="false"
       fuse_tolerance="0" />
  </defs>
  <sodipodi:namedview
     id="base"
     pagecolor="#ffffff"
     bordercolor="#666666"
     borderopacity="1.0"
     inkscape:pageopacity="0.0"
     inkscape:pageshadow="2"
     inkscape:zoom="0.35"
     inkscape:cx="78.787418"
     inkscape:cy="48.155591"
     inkscape:document-units="px"
     inkscape:current-layer="layer1"
     showgrid="false"
     fit-margin-top="0"
     fit-margin-left="0"
     fit-margin-right="0"
     fit-margin-bottom="0"
     inkscape:window-width="560"
     inkscape:window-height="453"
     inkscape:window-x="3"
     inkscape:window-y="47"
     inkscape:window-maximized="0" />
  <metadata
     id="metadata5390">
    <rdf:RDF>
      <cc:Work
         rdf:about="">
        <dc:format>image/svg+xml</dc:format>
        <dc:type
           rdf:resource="http://purl.org/dc/dcmitype/StillImage" />
        <dc:title></dc:title>
      </cc:Work>
    </rdf:RDF>
  </metadata>
  <g
     inkscape:label="Capa 1"
     inkscape:groupmode="layer"
     id="layer1"
     transform="translate(-271.21258,-438.13741)">
    <g
       transform="translate(3550.2457,-2332.2114)"
       style="display:inline"
       id="g5393">
      <path
         transform="matrix(0.51443507,0,0,0.40607677,-10527.591,2412.7889)"
         d="m 14891.429,1100.9336 c 0,64.6962 -52.447,117.1429 -117.143,117.1429 -64.696,0 -117.143,-52.4467 -117.143,-117.1429 0,-64.6962 52.447,-117.14287 117.143,-117.14287 64.696,0 117.143,52.44667 117.143,117.14287 z"
         sodipodi:ry="117.14286"
         sodipodi:rx="117.14286"
         sodipodi:cy="1100.9336"
         sodipodi:cx="14774.286"
         id="path5621-2"
         style="fill:none;stroke:#000000;stroke-width:13.68853569;stroke-miterlimit:4;stroke-dasharray:none"
         sodipodi:type="arc" />
      <path
         transform="matrix(0.51443507,0,0,0.40607677,-10746.281,2415.3232)"
         d="m 14891.429,1100.9336 c 0,64.6962 -52.447,117.1429 -117.143,117.1429 -64.696,0 -117.143,-52.4467 -117.143,-117.1429 0,-64.6962 52.447,-117.14287 117.143,-117.14287 64.696,0 117.143,52.44667 117.143,117.14287 z"
         sodipodi:ry="117.14286"
         sodipodi:rx="117.14286"
         sodipodi:cy="1100.9336"
         sodipodi:cx="14774.286"
         id="path5621-4-6"
         style="fill:none;stroke:#000000;stroke-width:13.68853569;stroke-miterlimit:4;stroke-dasharray:none"
         sodipodi:type="arc" />
      <path
         inkscape:connector-curvature="0"
         inkscape:original-d="m -2865.231,2858.0682 58.0705,-83.1211 13.6103,16.088"
         inkscape:path-effect="#path-effect6244-1"
         id="path6242-1"
         d="m -2865.231,2858.0682 c -1.1313,-0.7903 -1.2202,-2.9493 -0.2863,-6.1821 0.9339,-3.2328 2.8917,-7.5395 5.7563,-12.6207 2.8645,-5.0812 6.6358,-10.9369 11.0908,-17.2629 4.4549,-6.3261 9.5924,-13.1224 15.0917,-20.0802 4.9985,-6.3242 9.8573,-12.2398 14.3048,-17.5629 4.4475,-5.3231 8.483,-10.0536 11.9007,-14.0106 3.0121,2.7008 5.5797,5.2201 7.6623,7.5119 2.0826,2.2918 3.6804,4.3563 4.7979,6.1453 2.2352,3.5782 2.5121,6.0566 1.3626,7.0291 -1.1495,0.9725 -3.5091,0.3344 -5.9948,-1.6677 -1.2428,-1.001 -2.5266,-2.3427 -3.7775,-3.9912 -1.251,-1.6486 -2.469,-3.6041 -3.6255,-5.8308 -2.7411,4.8585 -5.8072,10.2931 -9.121,16.0795 -3.3139,5.7864 -6.8762,11.9246 -10.6755,18.1934 -4.1798,6.8968 -8.2656,13.3026 -12.2011,18.9864 -3.9354,5.6838 -7.7216,10.6457 -11.2046,14.6503 -3.4831,4.0046 -6.6629,7.052 -9.2798,8.9017 -2.6169,1.8497 -4.6697,2.5018 -5.801,1.7115 z"
         style="fill:#000000;fill-rule:evenodd;stroke:none" />
      <path
         inkscape:connector-curvature="0"
         inkscape:original-d="m -3090.3385,2843.9716 c 0,0 25.2797,-22.7518 48.0313,-20.2239 22.7521,2.5281 46.768,20.2239 50.5593,26.5438"
         inkscape:path-effect="#path-effect6432"
         id="path6430"
         d="m -3090.3385,2843.9716 c -0.8702,-1.2185 4.3689,-6.6109 13.4546,-14.2193 0,0 0,0 0,0 4.2707,-2.9648 9.608,-6.0531 16.0601,-8.37 0,0 0,0 0,0 5.5153,-1.9921 12.0421,-3.3031 19.0683,-2.5995 0.8622,0.097 1.7247,0.2123 2.5869,0.3459 6.4264,0.9956 12.3433,2.9263 17.5961,5.253 5.2528,2.3267 9.8444,5.0428 13.7352,7.7098 0,0 0,0 0,0 4.8931,3.3205 8.7918,6.7038 11.5253,9.6352 1.5246,1.6332 2.7144,3.1642 3.5191,4.4654 0.6641,1.0658 1.105,2.0456 1.2612,2.7649 0.1562,0.7193 0.054,1.1723 -0.2162,1.3345 -0.2704,0.1622 -0.6888,0.042 -1.2699,-0.2444 -0.5811,-0.2859 -1.3434,-0.717 -2.3407,-1.359 -1.1785,-0.7372 -2.6457,-1.6592 -4.4249,-2.7481 -3.1898,-1.949 -7.2862,-4.3307 -12.2138,-6.8361 0,0 0,0 0,0 -3.9572,-1.9887 -8.3959,-4.084 -13.211,-5.9121 -4.8151,-1.8281 -10.0042,-3.3836 -15.4617,-4.1961 -0.7321,-0.109 -1.4619,-0.2034 -2.189,-0.2831 -5.0691,-0.6403 -10.29,0.2738 -15.1218,1.5823 0,0 0,0 0,0 -5.536,1.5072 -10.5103,3.6983 -14.8178,5.7604 0,0 0,0 0,0 -9.9088,5.957 -16.6698,9.1348 -17.54,7.9163 z"
         style="fill:#000000;fill-rule:evenodd;stroke:none" />
      <path
         inkscape:connector-curvature="0"
         inkscape:original-d="m -3209.6697,2860.201 -55.6199,-83.1211 -13.036,16.088"
         inkscape:path-effect="#path-effect6244-1-9"
         id="path6242-1-7"
         d="m -3209.6697,2860.201 c -1.1469,0.7675 -3.1725,0.095 -5.7248,-1.7734 -2.5523,-1.8679 -5.6303,-4.9307 -8.9812,-8.9473 -3.3509,-4.0166 -6.9746,-8.987 -10.726,-14.6752 -3.7514,-5.6882 -7.6315,-12.0942 -11.5942,-18.9864 -3.6092,-6.2774 -6.9882,-12.4201 -10.1332,-18.2063 -3.1451,-5.7861 -6.0569,-11.2157 -8.6646,-16.0639 -1.056,2.2348 -2.1855,4.1992 -3.3612,5.8574 -1.1757,1.6581 -2.3975,3.01 -3.5924,4.022 -2.3899,2.0239 -4.7105,2.6863 -5.8783,1.74 -1.1678,-0.9463 -0.9638,-3.3996 1.1676,-6.9555 1.0657,-1.7779 2.6037,-3.8319 4.6211,-6.1143 2.0173,-2.2824 4.514,-4.7932 7.4514,-7.4868 3.292,3.9686 7.1871,8.7116 11.4837,14.0467 4.2966,5.335 8.9939,11.2619 13.823,17.595 5.302,6.9534 10.2501,13.7408 14.5298,20.0547 4.2797,6.3138 7.8898,12.1539 10.6147,17.2172 2.7248,5.0633 4.5645,9.3497 5.4109,12.5611 0.8464,3.2113 0.7006,5.3475 -0.4463,6.115 z"
         style="fill:#000000;fill-rule:evenodd;stroke:none;display:inline" />
    </g>
  </g>
</svg>
