<?xml version="1.0" encoding="UTF-8" standalone="no"?>
<!-- Created with Inkscape (http://www.inkscape.org/) -->

<svg
   xmlns:dc="http://purl.org/dc/elements/1.1/"
   xmlns:cc="http://creativecommons.org/ns#"
   xmlns:rdf="http://www.w3.org/1999/02/22-rdf-syntax-ns#"
   xmlns:svg="http://www.w3.org/2000/svg"
   xmlns="http://www.w3.org/2000/svg"
   xmlns:sodipodi="http://sodipodi.sourceforge.net/DTD/sodipodi-0.dtd"
   xmlns:inkscape="http://www.inkscape.org/namespaces/inkscape"
   width="475.04605"
   height="119.47615"
   id="svg5385"
   version="1.1"
   inkscape:version="0.48.3.1 r9886"
   sodipodi:docname="01.svg">
  <defs
     id="defs5387">
    <inkscape:path-effect
       effect="skeletal"
       id="path-effect6244-1"
       is_visible="true"
       pattern="m -16215.781,893.10379 c 0,-2.76 2.24,-5 5,-5 2.76,0 5,2.24 5,5 0,2.76 -2.24,5 -5,5 -2.76,0 -5,-2.24 -5,-5 z"
       copytype="single_stretched"
       prop_scale="2"
       scale_y_rel="false"
       spacing="0"
       normal_offset="0"
       tang_offset="0"
       prop_units="false"
       vertical_pattern="false"
       fuse_tolerance="0" />
    <inkscape:path-effect
       effect="skeletal"
       id="path-effect6432"
       is_visible="true"
       pattern="m -17522.558,1031.8039 c 0,-2.76 2.24,-5 5,-5 2.76,0 5,2.24 5,5 0,2.76 -2.24,5 -5,5 -2.76,0 -5,-2.24 -5,-5 z"
       copytype="single_stretched"
       prop_scale="1"
       scale_y_rel="false"
       spacing="0"
       normal_offset="0"
       tang_offset="0"
       prop_units="false"
       vertical_pattern="false"
       fuse_tolerance="0" />
    <inkscape:path-effect
       effect="skeletal"
       id="path-effect6244-1-9"
       is_visible="true"
       pattern="m -16686.257,895.23655 c 0,-2.76 2.24,-5 5,-5 2.76,0 5,2.24 5,5 0,2.76 -2.24,5 -5,5 -2.76,0 -5,-2.24 -5,-5 z"
       copytype="single_stretched"
       prop_scale="2"
       scale_y_rel="false"
       spacing="0"
       normal_offset="0"
       tang_offset="0"
       prop_units="false"
       vertical_pattern="false"
       fuse_tolerance="0" />
    <inkscape:path-effect
       effect="skeletal"
       id="path-effect6244-1-7"
       is_visible="true"
       pattern="m -15751.689,1129.8495 c 0,-2.76 2.24,-5 5,-5 2.76,0 5,2.24 5,5 0,2.76 -2.24,5 -5,5 -2.76,0 -5,-2.24 -5,-5 z"
       copytype="single_stretched"
       prop_scale="2"
       scale_y_rel="false"
       spacing="0"
       normal_offset="0"
       tang_offset="0"
       prop_units="false"
       vertical_pattern="false"
       fuse_tolerance="0" />
    <inkscape:path-effect
       effect="skeletal"
       id="path-effect6432-1"
       is_visible="true"
       pattern="m -16982.126,1305.4648 c 0,-2.76 2.24,-5 5,-5 2.76,0 5,2.24 5,5 0,2.76 -2.24,5 -5,5 -2.76,0 -5,-2.24 -5,-5 z"
       copytype="single_stretched"
       prop_scale="1"
       scale_y_rel="false"
       spacing="0"
       normal_offset="0"
       tang_offset="0"
       prop_units="false"
       vertical_pattern="false"
       fuse_tolerance="0" />
    <inkscape:path-effect
       effect="skeletal"
       id="path-effect6968-3"
       is_visible="true"
       pattern="m -17983.486,953.15662 c 0,-2.76 2.24,-5 5,-5 2.76,0 5,2.24 5,5 0,2.76 -2.24,5 -5,5 -2.76,0 -5,-2.24 -5,-5 z"
       copytype="single_stretched"
       prop_scale="1"
       scale_y_rel="false"
       spacing="0"
       normal_offset="0"
       tang_offset="0"
       prop_units="false"
       vertical_pattern="false"
       fuse_tolerance="0" />
    <inkscape:path-effect
       effect="skeletal"
       id="path-effect6432-1-4"
       is_visible="true"
       pattern="m -16981.842,1288.973 c 0,-2.76 2.24,-5 5,-5 2.76,0 5,2.24 5,5 0,2.76 -2.24,5 -5,5 -2.76,0 -5,-2.24 -5,-5 z"
       copytype="single_stretched"
       prop_scale="1"
       scale_y_rel="false"
       spacing="0"
       normal_offset="0"
       tang_offset="0"
       prop_units="false"
       vertical_pattern="false"
       fuse_tolerance="0" />
    <inkscape:path-effect
       effect="skeletal"
       id="path-effect6244-1-7-3"
       is_visible="true"
       pattern="m -16041.885,1127.9869 c 0,-2.76 2.24,-5 5,-5 2.76,0 5,2.24 5,5 0,2.76 -2.24,5 -5,5 -2.76,0 -5,-2.24 -5,-5 z"
       copytype="single_stretched"
       prop_scale="2"
       scale_y_rel="false"
       spacing="0"
       normal_offset="0"
       tang_offset="0"
       prop_units="false"
       vertical_pattern="false"
       fuse_tolerance="0" />
    <inkscape:path-effect
       effect="skeletal"
       id="path-effect6968-3-8"
       is_visible="true"
       pattern="m -18273.682,951.29409 c 0,-2.76 2.24,-5 5,-5 2.76,0 5,2.24 5,5 0,2.76 -2.24,5 -5,5 -2.76,0 -5,-2.24 -5,-5 z"
       copytype="single_stretched"
       prop_scale="1"
       scale_y_rel="false"
       spacing="0"
       normal_offset="0"
       tang_offset="0"
       prop_units="false"
       vertical_pattern="false"
       fuse_tolerance="0" />
  </defs>
  <sodipodi:namedview
     id="base"
     pagecolor="#ffffff"
     bordercolor="#666666"
     borderopacity="1.0"
     inkscape:pageopacity="0.0"
     inkscape:pageshadow="2"
     inkscape:zoom="0.35"
     inkscape:cx="-155.12682"
     inkscape:cy="85.026179"
     inkscape:document-units="px"
     inkscape:current-layer="layer1"
     showgrid="false"
     fit-margin-top="0"
     fit-margin-left="0"
     fit-margin-right="0"
     fit-margin-bottom="0"
     inkscape:window-width="560"
     inkscape:window-height="453"
     inkscape:window-x="3"
     inkscape:window-y="47"
     inkscape:window-maximized="0" />
  <metadata
     id="metadata5390">
    <rdf:RDF>
      <cc:Work
         rdf:about="">
        <dc:format>image/svg+xml</dc:format>
        <dc:type
           rdf:resource="http://purl.org/dc/dcmitype/StillImage" />
        <dc:title></dc:title>
      </cc:Work>
    </rdf:RDF>
  </metadata>
  <g
     inkscape:label="Capa 1"
     inkscape:groupmode="layer"
     id="layer1"
     transform="translate(-505.12682,-497.9122)">
    <g
       transform="translate(3812.6811,-2506.1503)"
       id="g5377"
       style="fill:#440055;display:inline">
      <path
         sodipodi:nodetypes="ccc"
         inkscape:connector-curvature="0"
         inkscape:original-d="m -2913.2741,3044.6856 75.6342,-34.446 1.5323,22.137"
         inkscape:path-effect="#path-effect6244-1-7"
         id="path6242-1-5"
         d="m -2913.2741,3044.6856 c -0.572,-1.2559 0.2313,-3.0597 2.2913,-5.1755 2.06,-2.1158 5.3779,-4.5432 9.7438,-7.1005 4.3659,-2.5574 9.7799,-5.2448 15.9332,-7.94 6.1532,-2.6951 13.0446,-5.3985 20.274,-8.0423 11.2906,-4.1289 21.6863,-7.5395 29.7699,-10.1805 0.9707,4.0891 1.6749,7.7892 2.0886,11.0164 0.4138,3.2273 0.5371,5.9819 0.3975,8.2107 -0.1396,2.2288 -0.5419,3.932 -1.1303,5.0859 -0.5883,1.1539 -1.3623,1.7587 -2.2015,1.8168 -0.8392,0.058 -1.6888,-0.43 -2.4196,-1.334 -0.7308,-0.904 -1.3424,-2.2236 -1.7491,-3.8548 -0.4068,-1.6312 -0.6086,-3.5738 -0.5691,-5.7529 0.04,-2.1791 0.3204,-4.5947 0.8275,-7.2025 -7.569,4.4877 -16.3074,9.7912 -25.67,15.0684 -5.995,3.379 -11.705,6.4146 -17.0152,8.9403 -5.3103,2.5257 -10.2218,4.5408 -14.5284,5.9331 -4.3065,1.3923 -8.0081,2.1619 -10.7994,2.2555 -2.7913,0.093 -4.6712,-0.4882 -5.2432,-1.7441 z"
         style="fill:#440055;fill-rule:evenodd;stroke:#803300;stroke-width:0.40610451" />
      <path
         inkscape:connector-curvature="0"
         inkscape:original-d="m -3097.0158,3061.7219 c 0,0 12.8874,-14.6157 25.17,-13.8494 12.283,0.766 25.6959,10.668 27.918,14.3651"
         inkscape:path-effect="#path-effect6432-1"
         id="path6430-6"
         d="m -3097.0158,3061.7219 c -0.04,-0.036 -0.076,-0.076 -0.1093,-0.1192 -0.031,-0.041 -0.059,-0.086 -0.083,-0.1337 -0.048,-0.095 -0.084,-0.2039 -0.1057,-0.325 0,0 0,0 0,0 0,0 0,0 0,0 -0.043,-0.2399 -0.034,-0.5306 0.027,-0.8652 0,0 0,0 0,0 0.1175,-0.651 0.4339,-1.4757 0.9471,-2.4279 0,0 0,0 0,0 0.9556,-1.7745 2.6092,-4.026 5.0419,-6.3917 0,0 0,0 0,0 2.1229,-2.0763 4.9019,-4.2766 8.4922,-6.0613 0,0 0,0 0,0 3.0436,-1.5536 6.8816,-2.6911 11.2711,-2.5115 0.4983,0.034 0.9961,0.079 1.4931,0.1356 3.803,0.4327 7.265,1.4941 10.282,2.8343 3.0169,1.3401 5.5918,2.9546 7.7229,4.5618 2.7369,2.0182 4.8723,4.1299 6.3031,5.9916 0.5148,0.6534 0.9941,1.3348 1.3639,1.9854 0.3698,0.6505 0.6318,1.2688 0.7755,1.8043 0.2874,1.0708 0.1051,1.7746 -0.3335,2.0382 -0.4386,0.2636 -1.0688,0.1206 -1.9112,-0.1556 -0.4212,-0.1381 -0.9035,-0.3116 -1.4696,-0.5331 -0.5661,-0.2215 -1.2179,-0.4899 -1.9579,-0.8765 -1.8757,-0.8785 -4.1906,-1.9848 -6.9246,-3.1788 -2.1794,-0.9236 -4.5658,-1.9119 -7.0762,-2.7542 -2.5104,-0.8422 -5.1417,-1.5356 -7.8387,-1.8003 -0.3524,-0.035 -0.7027,-0.062 -1.0508,-0.081 -2.1642,-0.2293 -4.5819,0.3944 -6.9429,1.1634 -2.7889,0.9567 -5.3572,2.2948 -7.6513,3.5202 0,0 0,0 0,0 -2.6105,1.4041 -4.7969,2.6752 -6.5079,3.4863 0,0 0,0 0,0 -0.9179,0.4354 -1.692,0.7355 -2.3166,0.8691 0,0 0,0 0,0 -0.321,0.069 -0.6008,0.092 -0.8393,0.066 0,0 0,0 0,0 0,0 0,0 0,0 -0.1211,-0.013 -0.2311,-0.038 -0.33,-0.077 -0.05,-0.019 -0.097,-0.042 -0.1408,-0.069 -0.047,-0.028 -0.09,-0.06 -0.1302,-0.096 z"
         style="fill:#440055;fill-rule:evenodd;stroke:#803300;stroke-width:0.58914214" />
      <path
         sodipodi:nodetypes="zzzczcz"
         inkscape:connector-curvature="0"
         inkscape:original-d="m -2926.2844,3077.0519 c -11.2794,13.9291 -41.2596,48.6283 -60.4117,41.4733 -19.1522,-7.1549 -41.1339,-36.6661 -44.2715,-43.8741 -3.1377,-7.208 -3.9942,-12.7079 -16.5589,-14.1926 8.2609,-11.0812 13.099,-18.3996 28.9643,-28.7396 15.8652,-10.34 130.9566,-21.6199 130.9566,-21.6199 -22.9192,13.5427 -27.3995,53.0238 -38.6788,66.9529 z"
         inkscape:path-effect="#path-effect6968-3"
         id="path6966-4"
         d="m -2926.2844,3077.0519 c 0.2787,0.2257 -0.4318,1.6762 -2.096,4.1976 -1.6641,2.5214 -4.2802,6.1163 -7.9255,10.5307 -3.8415,4.6541 -8.8053,10.2729 -15.3422,16.1576 -2.3701,2.1456 -4.9754,4.3534 -7.8967,6.4687 -2.9213,2.1153 -6.1586,4.1386 -9.8182,5.8427 -2.756,1.2873 -5.8538,2.3538 -9.2989,2.8136 -2.9752,0.3995 -6.2021,0.1966 -9.3905,-0.9071 -5.7275,-2.0629 -11.0066,-5.4172 -15.8271,-9.2428 0,0 0,0 0,0 -4.9881,-3.9175 -9.732,-8.4296 -14.2557,-13.3274 -3.815,-4.1227 -7.5319,-8.5599 -11.0424,-13.3397 -1.2762,-1.736 -2.5431,-3.5464 -3.7552,-5.4587 -0.7733,-1.1966 -1.6145,-2.5876 -2.3672,-4.2501 -1.628,-3.4446 -2.4437,-6.4937 -4.0111,-7.9455 -0.6488,-0.7558 -1.6211,-1.3812 -2.7232,-1.8746 0,0 0,0 0,0 -2.2068,-2.0317 -4.8494,-3.6823 -7.7368,-5.2927 3.0592,-6.1446 6.2212,-12.7007 10.2554,-19.0067 5.3955,-5.7589 11.6601,-10.6245 18.2238,-14.8869 1.4063,-0.8898 2.7732,-1.5432 4.0346,-2.0498 0.3438,-0.1381 0.6794,-0.2651 1.0055,-0.383 2.2155,-0.8368 4.4047,-1.5038 6.5302,-2.0901 0,0 0,0 0,0 5.8654,-1.6232 11.6855,-2.8266 17.3685,-3.903 0,0 0,0 0,0 15.4109,-2.9258 30.3727,-4.9678 44.5806,-6.7434 0,0 0,0 0,0 14.6272,-1.8295 28.5218,-3.3081 41.4576,-4.5383 0,0 0,0 0,0 4.5571,-0.4335 8.9974,-0.8353 13.3112,-1.2034 0,0 0,0 0,0 1.2438,-0.1061 2.478,-0.2096 3.7022,-0.3095 0,0 0,0 0,0 0,0 0,0 0,0 0,0 0,0 0,0 0.3253,-0.027 0.6504,-0.053 0.9752,-0.079 0,0 0,0 0,0 1e-4,2e-4 1e-4,2e-4 1e-4,2e-4 0.4802,1.2064 0.9599,2.4107 1.439,3.6127 1e-4,10e-5 1e-4,10e-5 1e-4,10e-5 0.024,3e-4 0.049,6e-4 0.073,0 0.01,0 0.012,1e-4 0.019,2e-4 -2.5206,2.2178 -4.7483,4.8476 -6.7366,7.6477 -1.9884,2.8001 -3.7375,5.7706 -5.2967,8.726 -2.1244,3.0487 -3.923,6.1766 -5.5275,9.2588 -1.6045,3.0822 -3.0146,6.119 -4.3163,9.0222 -1.6239,3.6318 -3.059,7.0748 -4.4092,10.2391 -1.3503,3.1642 -2.6138,6.0504 -3.814,8.6081 -1.1481,2.1359 -2.2184,4.0995 -3.231,5.7944 -1.0126,1.6949 -1.9637,3.1241 -2.8075,4.2712 -1.6876,2.2941 -2.9072,3.4715 -3.2893,3.6883 -0.061,-0.049 -0.061,-0.049 -0.061,-0.049 0,0 -2e-4,-10e-5 -0.061,-0.049 0.1297,-0.4153 1.0314,-1.7547 2.1439,-4.2066 0.5563,-1.226 1.1596,-2.7369 1.7728,-4.5544 0.6132,-1.8176 1.2323,-3.9445 1.9135,-6.3517 0.8884,-2.6293 1.8485,-5.5853 2.9173,-8.8501 1.0688,-3.2647 2.2446,-6.8389 3.6504,-10.6788 1.1155,-3.0581 2.3746,-6.2939 3.8833,-9.6452 1.5087,-3.3512 3.2668,-6.8182 5.4287,-10.305 1.9114,-2.3365 4.1591,-4.6316 6.8305,-6.709 2.6714,-2.0773 5.7665,-3.9371 9.3834,-5.3487 -0.01,0 -0.015,0 -0.019,0 -0.018,0 -0.036,0.01 -0.054,0.013 0,0 0,0 0,0 0.3136,1.2185 0.6276,2.4391 0.942,3.662 0,1e-4 0,1e-4 0,1e-4 10e-5,10e-5 10e-5,10e-5 10e-5,10e-5 -0.3193,0.038 -0.6398,0.076 -0.9615,0.1146 0,0 0,0 0,0 0,0 0,0 0,0 0,0 0,0 0,0 -1.2105,0.1449 -2.4325,0.2927 -3.6659,0.4427 0,0 0,0 0,0 -4.2777,0.5204 -8.6831,1.0666 -13.2074,1.6362 0,0 0,0 0,0 -12.8445,1.6172 -26.6333,3.413 -41.1362,5.4788 -14.1123,2.0115 -28.8739,4.1945 -43.9493,7.1496 0,0 0,0 0,0 -5.5759,1.0954 -11.1335,2.2595 -16.5704,3.7811 0,0 0,0 0,0 -1.9712,0.5536 -3.8715,1.1281 -5.661,1.8112 -0.2794,0.1119 -0.549,0.2193 -0.8075,0.3241 -0.9483,0.3844 -1.7429,0.7324 -2.3213,1.1361 -6.12,4.004 -11.7813,8.3264 -16.4438,13.2968 -4.6252,2.9312 -8.7234,6.5856 -13.0056,10.2888 2.2442,-1.004 4.7037,-1.6573 7.1568,-1.632 0,0 1e-4,0 1e-4,0 2.2155,0.971 4.2845,2.4333 6.0122,4.3648 3.0943,3.8195 4.3601,7.6772 5.4776,10.5396 0.3659,0.9073 0.9765,1.9118 1.6679,3.0723 1.0257,1.6889 2.1436,3.3478 3.3053,4.999 3.1957,4.5379 6.6055,8.7955 10.1226,12.7942 4.1796,4.7423 8.4599,9.0651 12.9146,12.7865 0,0 0,0 0,0 4.3875,3.6231 8.747,6.7054 13.285,8.4775 1.7533,0.7424 3.8225,0.9277 5.8734,0.7799 2.4491,-0.182 4.9096,-0.9323 7.3031,-1.8792 3.2163,-1.2792 6.1821,-2.9358 8.9556,-4.7277 2.7734,-1.7919 5.3543,-3.7197 7.7798,-5.6153 3.3065,-2.5984 6.2748,-5.1736 8.9549,-7.6068 2.6802,-2.4333 5.0717,-4.7252 7.201,-6.7966 4.035,-3.9265 7.117,-7.0659 9.2857,-9.1392 2.1688,-2.0732 3.4232,-3.0836 3.7019,-2.8579 z"
         style="fill:#440055;fill-opacity:1;fill-rule:evenodd;stroke:#803300;stroke-width:0.58914214;stroke-opacity:1" />
      <path
         inkscape:connector-curvature="0"
         inkscape:original-d="m -3096.7634,3045.2301 c 0,0 12.8874,-14.6157 25.17,-13.8494 12.2829,0.766 25.6958,10.668 27.918,14.3651"
         inkscape:path-effect="#path-effect6432-1-4"
         id="path6430-6-8"
         d="m -3096.7634,3045.2301 c -0.04,-0.036 -0.077,-0.076 -0.1093,-0.1192 -0.031,-0.041 -0.059,-0.086 -0.083,-0.1337 -0.048,-0.095 -0.084,-0.2039 -0.1057,-0.325 0,0 0,0 0,0 0,0 0,0 0,0 -0.043,-0.2399 -0.034,-0.5306 0.027,-0.8652 0,0 0,0 0,0 0.1175,-0.651 0.4339,-1.4757 0.9471,-2.4279 0,0 0,0 0,0 0.9556,-1.7745 2.6092,-4.026 5.0419,-6.3917 0,0 0,0 0,0 2.1229,-2.0763 4.9019,-4.2766 8.4922,-6.0613 0,0 0,0 0,0 3.0436,-1.5536 6.8816,-2.6911 11.2711,-2.5115 0.4983,0.034 0.9961,0.079 1.4931,0.1356 3.803,0.4327 7.265,1.4941 10.2819,2.8343 3.017,1.3401 5.5918,2.9546 7.7229,4.5618 2.7369,2.0182 4.8723,4.1299 6.3031,5.9916 0.5148,0.6534 0.9942,1.3348 1.364,1.9854 0.3697,0.6505 0.6317,1.2688 0.7754,1.8042 0.2875,1.0709 0.1052,1.7747 -0.3334,2.0383 -0.4386,0.2636 -1.0688,0.1206 -1.9112,-0.1556 -0.4212,-0.1381 -0.9035,-0.3116 -1.4696,-0.5331 -0.5661,-0.2215 -1.218,-0.4899 -1.958,-0.8765 -1.8756,-0.8785 -4.1906,-1.9848 -6.9246,-3.1788 -2.1794,-0.9236 -4.5658,-1.9119 -7.0761,-2.7542 -2.5104,-0.8422 -5.1417,-1.5356 -7.8387,-1.8003 -0.3524,-0.035 -0.7027,-0.061 -1.0508,-0.081 -2.1642,-0.2293 -4.5819,0.3944 -6.9429,1.1634 -2.7889,0.9567 -5.3572,2.2948 -7.6513,3.5202 0,0 0,0 0,0 -2.6105,1.4041 -4.7969,2.6752 -6.5079,3.4863 0,0 0,0 0,0 -0.9179,0.4354 -1.692,0.7355 -2.3166,0.8691 0,0 0,0 0,0 -0.321,0.069 -0.6008,0.092 -0.8393,0.066 0,0 0,0 0,0 0,0 0,0 0,0 -0.1211,-0.013 -0.2311,-0.038 -0.33,-0.077 -0.05,-0.019 -0.097,-0.042 -0.1408,-0.069 -0.047,-0.028 -0.09,-0.06 -0.1302,-0.096 z"
         style="fill:#440055;fill-rule:evenodd;stroke:#803300;stroke-width:0.58914214;display:inline" />
      <path
         sodipodi:nodetypes="ccc"
         inkscape:connector-curvature="0"
         inkscape:original-d="m -3226.8057,3042.823 -75.6342,-34.446 -1.5323,22.137"
         inkscape:path-effect="#path-effect6244-1-7-3"
         id="path6242-1-5-8"
         d="m -3226.8057,3042.823 c -0.572,1.2559 -2.4519,1.8376 -5.2432,1.7441 -2.7913,-0.094 -6.4929,-0.8632 -10.7994,-2.2555 -4.3066,-1.3923 -9.2181,-3.4074 -14.5284,-5.9331 -5.3102,-2.5257 -11.0202,-5.5613 -17.0152,-8.9403 -9.3626,-5.2772 -18.101,-10.5807 -25.67,-15.0684 0.5071,2.6078 0.788,5.0234 0.8275,7.2025 0.039,2.1791 -0.1623,4.1217 -0.5691,5.7529 -0.4067,1.6312 -1.0183,2.9508 -1.7491,3.8548 -0.7308,0.904 -1.5804,1.3921 -2.4196,1.334 -0.8392,-0.058 -1.6132,-0.6629 -2.2015,-1.8168 -0.5884,-1.1539 -0.9907,-2.8571 -1.1303,-5.0859 -0.1396,-2.2288 -0.016,-4.9834 0.3975,-8.2107 0.4137,-3.2272 1.1179,-6.9273 2.0886,-11.0164 8.0836,2.641 18.4793,6.0516 29.7699,10.1805 7.2294,2.6438 14.1208,5.3472 20.274,8.0423 6.1533,2.6952 11.5673,5.3826 15.9332,7.94 4.3659,2.5573 7.6838,4.9847 9.7438,7.1005 2.06,2.1158 2.8633,3.9196 2.2913,5.1755 z"
         style="fill:#440055;fill-rule:evenodd;stroke:#803300;stroke-width:0.40610451;display:inline" />
      <path
         sodipodi:nodetypes="zzzczcz"
         inkscape:connector-curvature="0"
         inkscape:original-d="m -3213.7954,3075.1893 c 11.2794,13.9291 41.2596,48.6283 60.4117,41.4733 19.1522,-7.1549 41.1339,-36.6661 44.2715,-43.8741 3.1377,-7.208 3.9942,-12.7079 16.5589,-14.1926 -8.2609,-11.0812 -13.099,-18.3996 -28.9643,-28.7396 -15.8652,-10.34 -130.9566,-21.6199 -130.9566,-21.6199 22.9192,13.5427 27.3995,53.0238 38.6788,66.9529 z"
         inkscape:path-effect="#path-effect6968-3-8"
         id="path6966-4-8"
         d="m -3213.7954,3075.1893 c 0.2787,-0.2257 1.5332,0.7846 3.702,2.8579 2.1688,2.0732 5.2508,5.2126 9.2858,9.1391 2.1293,2.0713 4.5208,4.3632 7.201,6.7965 2.6801,2.4332 5.6484,5.0084 8.9549,7.6068 2.4255,1.8955 5.0064,3.8233 7.7798,5.6153 2.7735,1.7919 5.7393,3.4484 8.9555,4.7275 2.3935,0.947 4.854,1.6972 7.3031,1.8793 2.0508,0.1478 4.12,-0.038 5.8732,-0.7799 4.538,-1.7722 8.8974,-4.8544 13.2849,-8.4775 0,0 0,0 0,0 4.4546,-3.7213 8.735,-8.0442 12.9146,-12.7865 3.5171,-3.9986 6.9268,-8.2562 10.1225,-12.794 1.1618,-1.6513 2.2797,-3.3102 3.3053,-4.999 0.6914,-1.1606 1.3021,-2.1651 1.6679,-3.0723 1.1175,-2.8624 2.3833,-6.7202 5.4777,-10.5397 1.7278,-1.9315 3.7968,-3.3938 6.0123,-4.3649 1e-4,0 1e-4,0 1e-4,0 2.4531,-0.025 4.9126,0.6282 7.1568,1.6323 -4.2822,-3.7031 -8.3805,-7.3576 -13.0056,-10.2887 -4.6625,-4.9704 -10.3237,-9.2929 -16.4437,-13.2969 -0.5703,-0.398 -1.3508,-0.7419 -2.2816,-1.12 -0.2705,-0.1099 -0.5535,-0.2226 -0.8472,-0.3402 -1.7895,-0.6831 -3.6898,-1.2576 -5.661,-1.8112 0,0 0,0 0,0 -5.4369,-1.5216 -10.9946,-2.6858 -16.5703,-3.7812 0,0 0,0 0,0 -15.076,-2.9554 -29.8377,-5.1384 -43.9493,-7.15 0,0 0,0 0,0 -14.5038,-2.0661 -28.2927,-3.8621 -41.1362,-5.4795 0,0 0,0 0,0 -4.5245,-0.5697 -8.9298,-1.116 -13.2073,-1.6364 0,0 0,0 0,0 -1.2335,-0.1501 -2.4555,-0.2979 -3.666,-0.4428 0,0 0,0 0,0 0,0 0,0 0,0 0,0 0,0 0,0 -0.3217,-0.039 -0.6422,-0.077 -0.9614,-0.1146 0,0 0,0 0,0 0,-2e-4 0,-2e-4 0,-2e-4 0.3143,-1.2224 0.6281,-2.4426 0.9415,-3.6604 1e-4,-2e-4 0,-2e-4 0,-2e-4 -0.018,-0 -0.036,-0.01 -0.053,-0.013 -0,-0 -0.01,-0 -0.014,-0 3.6113,1.4113 6.7063,3.2714 9.3775,5.349 2.6711,2.0776 4.9183,4.3729 6.8293,6.7094 2.1621,3.4875 3.9202,6.9549 5.4287,10.3061 1.5085,3.3513 2.7671,6.5867 3.8822,9.6441 1.4065,3.8424 2.5822,7.418 3.6507,10.6829 1.0685,3.2649 2.0278,6.2199 2.9148,8.8468 0.854,2.49 1.5958,4.6869 2.2965,6.5519 0.7008,1.865 1.3548,3.4022 1.9163,4.6346 1.123,2.4648 1.8299,3.7563 1.5618,3.9734 -0.134,0.1085 -0.5011,-0.064 -1.0673,-0.5409 -0.5662,-0.4768 -1.3288,-1.2605 -2.2074,-2.3864 -0.8787,-1.126 -1.869,-2.5982 -2.8996,-4.4116 -1.0306,-1.8134 -2.0961,-3.9725 -3.2091,-6.3678 -1.1995,-2.555 -2.463,-5.4397 -3.8136,-8.6039 -1.3507,-3.1641 -2.7865,-6.6084 -4.4117,-10.2425 -1.3017,-2.9023 -2.7117,-5.9388 -4.3164,-9.021 -1.6047,-3.0823 -3.4036,-6.2106 -5.5287,-9.26 -1.5592,-2.9548 -3.3084,-5.9249 -5.297,-8.7248 -1.9886,-2.7999 -4.2166,-5.4297 -6.7433,-7.6481 0.012,4e-4 0.018,3e-4 0.024,3e-4 0.024,-4e-4 0.049,-7e-4 0.073,-10e-4 0,0 0,0 10e-5,0 0.479,-1.2017 0.9585,-2.4054 1.4386,-3.6114 0,0 0,0 0,0 0,-2e-4 0,-2e-4 1e-4,-2e-4 0.3247,0.026 0.6498,0.052 0.9751,0.079 0,0 0,0 0,0 10e-5,0 10e-5,0 10e-5,0 0,0 0,0 0,0 1.2242,0.1 2.4583,0.2033 3.7021,0.3094 0,0 0,0 0,0 4.3137,0.3681 8.754,0.7698 13.3113,1.2031 0,0 0,0 0,0 12.9348,1.2299 26.8295,2.7083 41.4576,4.5378 0,0 0,0 0,0 14.2073,1.7753 29.1692,3.8171 44.5807,6.7429 0,0 0,0 0,0 5.6829,1.0764 11.503,2.2798 17.3685,3.903 0,0 0,0 0,0 2.1255,0.5862 4.3147,1.2532 6.5302,2.09 0.3428,0.1239 0.6962,0.258 1.0586,0.4044 1.2466,0.5035 2.5949,1.151 3.9815,2.0284 6.5637,4.2624 12.8283,9.1279 18.2239,14.8868 4.0342,6.306 7.1962,12.8621 10.2554,19.0068 -2.8874,1.6105 -5.53,3.2611 -7.7368,5.2929 0,0 0,0 0,0 -1.1021,0.4934 -2.0743,1.1188 -2.7231,1.8746 -1.5674,1.4517 -2.383,4.5008 -4.011,7.9454 -0.7528,1.6626 -1.594,3.0535 -2.3673,4.2502 -1.212,1.9123 -2.479,3.7226 -3.7552,5.4586 -3.5105,4.7799 -7.2274,9.2171 -11.0423,13.3398 -4.5237,4.8979 -9.2676,9.41 -14.2558,13.3274 0,0 0,1e-4 0,1e-4 -4.8204,3.8256 -10.0997,7.18 -15.8272,9.2428 -3.1884,1.1038 -6.4153,1.3067 -9.3906,0.9072 -3.4451,-0.4598 -6.543,-1.5263 -9.299,-2.8136 -3.6597,-1.7042 -6.8969,-3.7275 -9.8183,-5.8428 -2.9213,-2.1153 -5.5266,-4.3231 -7.8967,-6.4688 -6.5369,-5.8847 -11.5007,-11.5035 -15.3422,-16.1577 -3.6452,-4.4144 -6.2613,-8.0093 -7.9254,-10.5307 -1.6642,-2.5214 -2.3746,-3.972 -2.0959,-4.1977 z"
         style="fill:#440055;fill-opacity:1;fill-rule:evenodd;stroke:#803300;stroke-width:0.58914214;stroke-opacity:1;display:inline" />
    </g>
  </g>
</svg>
