<?xml version="1.0" encoding="UTF-8" standalone="no"?>
<!-- Created with Inkscape (http://www.inkscape.org/) -->

<svg
   xmlns:dc="http://purl.org/dc/elements/1.1/"
   xmlns:cc="http://creativecommons.org/ns#"
   xmlns:rdf="http://www.w3.org/1999/02/22-rdf-syntax-ns#"
   xmlns:svg="http://www.w3.org/2000/svg"
   xmlns="http://www.w3.org/2000/svg"
   xmlns:sodipodi="http://sodipodi.sourceforge.net/DTD/sodipodi-0.dtd"
   xmlns:inkscape="http://www.inkscape.org/namespaces/inkscape"
   width="609.16772"
   height="126.21728"
   id="svg5385"
   version="1.1"
   inkscape:version="0.48.3.1 r9886"
   sodipodi:docname="02.svg">
  <defs
     id="defs5387">
    <inkscape:path-effect
       effect="skeletal"
       id="path-effect6244-1"
       is_visible="true"
       pattern="m -16215.781,893.10379 c 0,-2.76 2.24,-5 5,-5 2.76,0 5,2.24 5,5 0,2.76 -2.24,5 -5,5 -2.76,0 -5,-2.24 -5,-5 z"
       copytype="single_stretched"
       prop_scale="2"
       scale_y_rel="false"
       spacing="0"
       normal_offset="0"
       tang_offset="0"
       prop_units="false"
       vertical_pattern="false"
       fuse_tolerance="0" />
    <inkscape:path-effect
       effect="skeletal"
       id="path-effect6432"
       is_visible="true"
       pattern="m -17522.558,1031.8039 c 0,-2.76 2.24,-5 5,-5 2.76,0 5,2.24 5,5 0,2.76 -2.24,5 -5,5 -2.76,0 -5,-2.24 -5,-5 z"
       copytype="single_stretched"
       prop_scale="1"
       scale_y_rel="false"
       spacing="0"
       normal_offset="0"
       tang_offset="0"
       prop_units="false"
       vertical_pattern="false"
       fuse_tolerance="0" />
    <inkscape:path-effect
       effect="skeletal"
       id="path-effect6244-1-9"
       is_visible="true"
       pattern="m -16686.257,895.23655 c 0,-2.76 2.24,-5 5,-5 2.76,0 5,2.24 5,5 0,2.76 -2.24,5 -5,5 -2.76,0 -5,-2.24 -5,-5 z"
       copytype="single_stretched"
       prop_scale="2"
       scale_y_rel="false"
       spacing="0"
       normal_offset="0"
       tang_offset="0"
       prop_units="false"
       vertical_pattern="false"
       fuse_tolerance="0" />
    <inkscape:path-effect
       effect="skeletal"
       id="path-effect6244-1-7"
       is_visible="true"
       pattern="m -15751.689,1129.8495 c 0,-2.76 2.24,-5 5,-5 2.76,0 5,2.24 5,5 0,2.76 -2.24,5 -5,5 -2.76,0 -5,-2.24 -5,-5 z"
       copytype="single_stretched"
       prop_scale="2"
       scale_y_rel="false"
       spacing="0"
       normal_offset="0"
       tang_offset="0"
       prop_units="false"
       vertical_pattern="false"
       fuse_tolerance="0" />
    <inkscape:path-effect
       effect="skeletal"
       id="path-effect6432-1"
       is_visible="true"
       pattern="m -16982.126,1305.4648 c 0,-2.76 2.24,-5 5,-5 2.76,0 5,2.24 5,5 0,2.76 -2.24,5 -5,5 -2.76,0 -5,-2.24 -5,-5 z"
       copytype="single_stretched"
       prop_scale="1"
       scale_y_rel="false"
       spacing="0"
       normal_offset="0"
       tang_offset="0"
       prop_units="false"
       vertical_pattern="false"
       fuse_tolerance="0" />
    <inkscape:path-effect
       effect="skeletal"
       id="path-effect6968-3"
       is_visible="true"
       pattern="m -17983.486,953.15662 c 0,-2.76 2.24,-5 5,-5 2.76,0 5,2.24 5,5 0,2.76 -2.24,5 -5,5 -2.76,0 -5,-2.24 -5,-5 z"
       copytype="single_stretched"
       prop_scale="1"
       scale_y_rel="false"
       spacing="0"
       normal_offset="0"
       tang_offset="0"
       prop_units="false"
       vertical_pattern="false"
       fuse_tolerance="0" />
    <inkscape:path-effect
       effect="skeletal"
       id="path-effect6432-1-4"
       is_visible="true"
       pattern="m -16981.842,1288.973 c 0,-2.76 2.24,-5 5,-5 2.76,0 5,2.24 5,5 0,2.76 -2.24,5 -5,5 -2.76,0 -5,-2.24 -5,-5 z"
       copytype="single_stretched"
       prop_scale="1"
       scale_y_rel="false"
       spacing="0"
       normal_offset="0"
       tang_offset="0"
       prop_units="false"
       vertical_pattern="false"
       fuse_tolerance="0" />
    <inkscape:path-effect
       effect="skeletal"
       id="path-effect6244-1-7-3"
       is_visible="true"
       pattern="m -16041.885,1127.9869 c 0,-2.76 2.24,-5 5,-5 2.76,0 5,2.24 5,5 0,2.76 -2.24,5 -5,5 -2.76,0 -5,-2.24 -5,-5 z"
       copytype="single_stretched"
       prop_scale="2"
       scale_y_rel="false"
       spacing="0"
       normal_offset="0"
       tang_offset="0"
       prop_units="false"
       vertical_pattern="false"
       fuse_tolerance="0" />
    <inkscape:path-effect
       effect="skeletal"
       id="path-effect6968-3-8"
       is_visible="true"
       pattern="m -18273.682,951.29409 c 0,-2.76 2.24,-5 5,-5 2.76,0 5,2.24 5,5 0,2.76 -2.24,5 -5,5 -2.76,0 -5,-2.24 -5,-5 z"
       copytype="single_stretched"
       prop_scale="1"
       scale_y_rel="false"
       spacing="0"
       normal_offset="0"
       tang_offset="0"
       prop_units="false"
       vertical_pattern="false"
       fuse_tolerance="0" />
    <inkscape:path-effect
       effect="skeletal"
       id="path-effect4179-5-8"
       is_visible="true"
       pattern="m -6086.9321,106.9427 c 0,-2.76 2.24,-5 5,-5 2.76,0 5,2.24 5,5 0,2.76 -2.24,5 -5,5 -2.76,0 -5,-2.24 -5,-5 z"
       copytype="single_stretched"
       prop_scale="2"
       scale_y_rel="false"
       spacing="0"
       normal_offset="0"
       tang_offset="0"
       prop_units="false"
       vertical_pattern="false"
       fuse_tolerance="0" />
    <inkscape:path-effect
       effect="skeletal"
       id="path-effect4179-1-2-9"
       is_visible="true"
       pattern="m -6487.6123,98.272559 c 0,-2.76001 2.24,-5.00001 5,-5.00001 2.76,0 5,2.24 5,5.00001 0,2.760001 -2.24,5.000001 -5,5.000001 -2.76,0 -5,-2.24 -5,-5.000001 z"
       copytype="single_stretched"
       prop_scale="2"
       scale_y_rel="false"
       spacing="0"
       normal_offset="0"
       tang_offset="0"
       prop_units="false"
       vertical_pattern="false"
       fuse_tolerance="0" />
    <inkscape:path-effect
       effect="skeletal"
       id="path-effect4273-4-0"
       is_visible="true"
       pattern="m -6131.6956,71.055097 c 0,-2.76 2.24,-5 5,-5 2.76,0 5,2.24 5,5 0,2.76 -2.24,5 -5,5 -2.76,0 -5,-2.24 -5,-5 z"
       copytype="single_stretched"
       prop_scale="1"
       scale_y_rel="false"
       spacing="0"
       normal_offset="0"
       tang_offset="0"
       prop_units="false"
       vertical_pattern="false"
       fuse_tolerance="0" />
    <inkscape:path-effect
       effect="skeletal"
       id="path-effect4277-5-7"
       is_visible="true"
       pattern="m -6095.3302,90.983308 c 0,-2.76 2.24,-5 5,-5 2.76,0 5,2.24 5,5 0,2.76 -2.24,5 -5,5 -2.76,0 -5,-2.24 -5,-5 z"
       copytype="single_stretched"
       prop_scale="2"
       scale_y_rel="false"
       spacing="0"
       normal_offset="0"
       tang_offset="0"
       prop_units="false"
       vertical_pattern="false"
       fuse_tolerance="0" />
    <inkscape:path-effect
       effect="skeletal"
       id="path-effect4281-3-5"
       is_visible="true"
       pattern="m -6137.7566,147.55185 c 0,-2.76 2.24,-5 5,-5 2.76,0 5,2.24 5,5 0,2.76 -2.24,5 -5,5 -2.76,0 -5,-2.24 -5,-5 z"
       copytype="single_stretched"
       prop_scale="2"
       scale_y_rel="false"
       spacing="0"
       normal_offset="0"
       tang_offset="0"
       prop_units="false"
       vertical_pattern="false"
       fuse_tolerance="0" />
  </defs>
  <sodipodi:namedview
     id="base"
     pagecolor="#ffffff"
     bordercolor="#666666"
     borderopacity="1.0"
     inkscape:pageopacity="0.0"
     inkscape:pageshadow="2"
     inkscape:zoom="0.35"
     inkscape:cx="-64.828719"
     inkscape:cy="105.27767"
     inkscape:document-units="px"
     inkscape:current-layer="layer1"
     showgrid="false"
     fit-margin-top="0"
     fit-margin-left="0"
     fit-margin-right="0"
     fit-margin-bottom="0"
     inkscape:window-width="560"
     inkscape:window-height="453"
     inkscape:window-x="3"
     inkscape:window-y="47"
     inkscape:window-maximized="0" />
  <metadata
     id="metadata5390">
    <rdf:RDF>
      <cc:Work
         rdf:about="">
        <dc:format>image/svg+xml</dc:format>
        <dc:type
           rdf:resource="http://purl.org/dc/dcmitype/StillImage" />
        <dc:title></dc:title>
      </cc:Work>
    </rdf:RDF>
  </metadata>
  <g
     inkscape:label="Capa 1"
     inkscape:groupmode="layer"
     id="layer1"
     transform="translate(-414.82872,-511.42256)">
    <g
       transform="translate(3628.6183,-1947.6594)"
       style="display:inline"
       id="g5534">
      <path
         sodipodi:nodetypes="csszsc"
         inkscape:connector-curvature="0"
         inkscape:original-d="m -2882.2662,2515.4262 c 0,0 7.6497,30.1707 12.1954,38.4474 3.0118,5.4838 25.3451,20.207 35.8861,21.4174 10.5982,1.217 73.1397,2.3573 101.9353,-4.2613 28.7956,-6.6186 28.5988,-38.9838 22.0853,-43.704 -44.2397,-32.0598 -172.1021,-11.8995 -172.1021,-11.8995 z"
         inkscape:path-effect="#path-effect4179-5-8"
         id="path4177-4-0"
         d="m -2882.2662,2515.4262 c 0.05,-0.013 0.1011,-0.017 0.1544,-0.014 0,0 0,0 0,0 0.051,0 0.1045,0.013 0.1593,0.03 0.1084,0.034 0.2236,0.095 0.3456,0.1846 0,0 0,0 0,0 0,0 0,0 0,0 0.2386,0.1741 0.5028,0.453 0.7926,0.8338 0,0 0,0 0,0 0.552,0.7253 1.1961,1.8192 1.9323,3.2606 0,0 0,0 0,0 1.3011,2.5475 2.8838,6.1793 4.7834,10.7487 0,0 0,0 0,0 1.4852,3.5728 3.143,7.7102 5.1074,12.2464 0,0 0,0 0,0 0.7243,1.6715 1.478,3.3709 2.3035,5.0559 0,0 0,0 0,0 0.6097,1.2319 1.1762,2.3561 1.7966,3.2572 0,0 0,0 0,0 0.027,0.047 0.4604,0.316 1.1388,0.9937 0,0 0,0 0,0 0.8869,0.7733 1.9291,1.5452 3.0926,2.3786 0,0 0,0 0,0 2.8142,2.0032 5.9663,3.9201 9.407,5.8257 0,0 0,0 0,0 3.368,1.8523 6.881,3.6145 10.5571,5.0699 0,0 0,0 0,0 2.9358,1.0826 5.4443,2.0843 7.4205,2.0734 0,0 0,0 0,0 1.7022,0.1267 3.607,0.1393 5.7286,0.1767 0,0 0,0 0,0 3.2068,0.045 6.5069,0.039 9.9013,0.014 0,0 0,0 0,0 8.7299,-0.067 17.8944,-0.2838 27.4296,-0.6619 0,0 0,0 0,0 9.9082,-0.3949 20.1511,-0.9469 30.6086,-1.9129 0,0 0,0 0,0 8.5701,-0.8115 17.0593,-1.7054 25.1319,-3.6395 4.4978,-1.1365 8.7653,-3.1934 11.5748,-6.2453 0.7275,-0.7324 1.4015,-1.5453 2.0179,-2.4226 1.455,-2.0708 2.5712,-4.4733 3.3199,-6.9741 0.8863,-3.1861 1.2694,-6.3762 0.8927,-9.2337 0,0 0,0 0,0 -0.1752,-1.1025 -0.2945,-1.9063 -0.5063,-2.3172 0,0 0,0 0,0 -0.4053,-0.3035 0.077,-0.036 1.2181,1.1672 -4.906,-3.7117 -10.9528,-6.3203 -17.2847,-8.5434 -7.7517,-2.6669 -15.795,-4.3887 -23.7792,-5.7255 -9.9839,-1.6644 -19.7188,-2.6297 -29.0332,-3.2388 -9.3144,-0.6091 -18.2078,-0.8623 -26.5302,-1 -19.9359,-0.3202 -36.5043,0.1754 -48.481,0.3002 -6.3568,-0.4677 -11.3998,-0.7174 -14.9786,-0.9074 -3.5788,-0.1899 -5.6934,-0.3207 -6.2015,-0.6248 -0.02,-0.1544 -0.02,-0.1548 -0.02,-0.1548 0,0 -10e-5,-4e-4 -0.02,-0.1548 0.4151,-0.4224 2.43,-1.0824 5.8563,-2.1701 3.4263,-1.0876 8.2639,-2.6035 14.3325,-4.6636 5.9348,-1.2436 13.0797,-2.5111 21.3073,-3.6572 8.2276,-1.1461 17.5382,-2.1707 27.7941,-2.8872 8.5154,-0.6009 17.7211,-1.0082 27.5237,-0.957 9.8025,0.051 20.2024,0.5614 31.0708,1.8962 8.7104,1.0646 17.844,2.7309 27.1285,5.6116 7.5824,2.3079 15.4773,5.662 22.9026,10.8866 3.1193,2.637 4.8684,5.1324 5.4225,7.0905 0,0 0,0 0,0 1.1103,2.706 1.7261,5.2568 1.9822,7.5382 0,0 0,0 0,0 0.7415,5.9164 0.1999,11.8007 -1.4036,17.2678 -1.2852,4.5674 -3.3565,8.9779 -6.1981,12.985 -1.2038,1.6975 -2.5396,3.3137 -4.0014,4.8317 -6.1531,6.1606 -13.7292,9.996 -21.4551,11.6691 -9.7481,2.162 -19.1706,3.0378 -28.0384,3.6189 0,0 0,0 0,0 -11.0121,0.7485 -21.6437,0.9808 -31.8044,0.9667 0,0 0,0 0,0 -9.7824,-0.012 -19.1964,-0.2581 -28.1595,-0.7206 0,0 0,0 0,0 -3.4811,-0.1794 -6.9232,-0.3923 -10.3133,-0.6673 0,0 0,0 0,0 -2.1036,-0.1673 -4.3708,-0.3563 -6.755,-0.6988 0,0 0,0 0,0 -4.9172,-0.8024 -8.7701,-2.4686 -11.8408,-4.0985 0,0 0,0 0,0 -4.3162,-2.1539 -8.1895,-4.5438 -11.7146,-6.9705 0,0 0,0 0,0 -3.599,-2.4644 -6.9838,-5.0689 -10.0412,-7.8174 0,0 0,0 0,0 -1.2617,-1.1291 -2.5348,-2.3587 -3.7497,-3.7106 0,0 0,0 0,0 -0.823,-0.8405 -1.8418,-2.1314 -2.8099,-3.8965 0,0 0,0 0,0 -0.8351,-1.7491 -1.4054,-3.356 -1.8596,-4.7943 0,0 0,0 0,0 -0.6662,-2.0589 -1.2075,-4.0203 -1.6824,-5.878 0,0 0,0 0,0 -1.2919,-5.047 -2.1811,-9.5305 -2.8472,-13.3956 0,0 0,0 0,0 -0.8552,-4.9547 -1.3263,-8.9275 -1.4705,-11.8031 0,0 0,0 0,0 -0.082,-1.6273 -0.057,-2.9048 0.072,-3.8109 0,0 0,0 0,0 0.068,-0.4757 0.1642,-0.8494 0.2894,-1.1178 0,0 0,0 0,0 0,0 0,0 0,0 0.064,-0.1371 0.1355,-0.2467 0.2145,-0.3286 0.04,-0.041 0.082,-0.076 0.1255,-0.1026 0,0 0,0 0,0 0.045,-0.028 0.093,-0.049 0.1425,-0.061 z"
         style="fill:#6f8a91;fill-rule:evenodd;stroke:none" />
      <path
         sodipodi:nodetypes="cssssc"
         inkscape:connector-curvature="0"
         inkscape:original-d="m -2949.5602,2512.2138 c 0,0 -9.6675,31.1782 -9.6675,37.4346 0,6.2564 -29.533,15.0354 -42.7757,16.8718 -9.7384,1.3504 -66.8929,-1.0368 -95.9313,-8.0533 -24.9236,-6.0222 -20.2208,-28.7409 -18.3555,-36.5657 8.8479,-37.1157 166.73,-9.6874 166.73,-9.6874 z"
         inkscape:path-effect="#path-effect4179-1-2-9"
         id="path4177-9-9-0"
         d="m -2949.5602,2512.2138 c 0.051,0.016 0.099,0.039 0.1448,0.071 0,0 0,0 0,0 0.044,0.03 0.086,0.068 0.1252,0.1134 0.078,0.089 0.1464,0.207 0.206,0.3529 0,0 0,0 0,0 0,0 0,0 0,0 0.1164,0.2848 0.1985,0.6767 0.2476,1.1727 0,0 0,0 0,0 0.093,0.9408 0.067,2.2556 -0.067,3.9245 0,0 0,0 0,0 -0.2343,2.9111 -0.8035,6.8961 -1.6121,11.8435 0,0 0,0 0,0 -0.6096,3.7285 -1.3701,7.9821 -2.0899,12.6921 0,0 0,0 0,0 -0.2468,1.6189 -0.4847,3.2487 -0.6473,4.8742 0,0 0,0 0,0 -0.095,1.1336 -0.1994,1.959 -0.083,2.3901 0,0 0,0 0,0 -0.4176,3.507 -1.5554,5.8422 -2.8646,6.7218 0,0 0,0 0,0 -1.5807,1.6606 -3.212,2.8967 -4.6534,3.7864 0,0 0,0 0,0 -3.9019,2.5205 -8.1842,4.5123 -12.4393,6.2274 0,0 0,0 0,0 -4.5545,1.8623 -9.4183,3.5623 -14.5365,5.0802 0,0 0,0 0,0 -4.0072,1.1998 -8.3312,2.351 -13.049,3.1662 0,0 0,0 0,0 -2.5213,0.3938 -4.7774,0.5173 -6.6866,0.5983 0,0 0,0 0,0 -3.1997,0.1604 -6.4138,0.2267 -9.6253,0.2518 0,0 0,0 0,0 -8.4029,0.067 -17.1543,-0.1471 -26.1727,-0.5854 0,0 0,0 0,0 -9.6067,-0.465 -19.603,-1.1911 -29.8998,-2.3496 0,0 0,0 0,0 -8.6487,-0.9616 -17.7119,-2.2127 -27.0097,-4.4019 -6.263,-1.3272 -12.8248,-4.3948 -18.4503,-9.8347 -1.2521,-1.3081 -2.3778,-2.699 -3.3735,-4.1562 -2.3419,-3.4272 -3.942,-7.1874 -4.7982,-11.0504 -1.07,-4.9017 -1.2003,-9.624 -0.7299,-13.9689 0.3479,-3.4031 0.9642,-6.5779 1.6975,-9.5295 1.0584,-4.1182 3.0272,-7.6711 5.6205,-10.4918 2.8829,-3.0874 6.0075,-5.3178 9.0572,-6.8733 7.9966,-4.109 15.9932,-5.8983 23.1934,-6.8696 9.8762,-1.4585 19.3286,-1.8118 28.2102,-1.7709 0,0 0,0 0,0 10.8982,0.037 21.1489,0.6767 30.6626,1.5496 11.4762,1.0525 21.9405,2.4445 31.2377,3.9388 9.2972,1.4944 17.4279,3.0914 24.2418,4.6243 7.2675,2.5027 13.0812,4.3716 17.1938,5.711 4.1126,1.3394 6.5238,2.1502 6.9734,2.6347 -0.023,0.1566 -0.023,0.1571 -0.023,0.1571 0,0 -1e-4,5e-4 -0.024,0.1572 -0.5714,0.3319 -3.1128,0.4029 -7.4267,0.4836 -4.3139,0.081 -10.4004,0.1721 -18.0488,0.4468 -6.9083,-0.296 -15.0685,-0.7296 -24.2965,-1.1523 -9.228,-0.4227 -19.5237,-0.8351 -30.7007,-1.0202 -9.2842,-0.154 -19.1411,-0.1623 -29.4108,0.324 0,0 0,0 0,0 -8.4145,0.408 -17.0049,1.0644 -25.4985,2.6383 -6.3528,1.2658 -12.3449,2.5941 -16.9593,5.3291 -1.6312,0.9849 -2.9724,1.88 -3.6885,2.8206 -0.5571,0.705 -0.9889,1.4232 -1.0396,1.9576 -0.5415,2.396 -0.975,4.6679 -1.1501,6.8057 -0.2044,2.8048 -0.1836,5.4153 0.3815,7.6136 0.3963,1.5759 1.013,3.0878 1.8339,4.3139 0.349,0.5213 0.7336,0.9886 1.1516,1.3859 1.7278,2.0689 5.0912,3.3807 8.8397,4.4726 8.0709,2.0076 16.3954,3.2707 24.731,4.4148 0,0 0,0 0,0 9.8189,1.3353 19.4415,2.336 28.7657,3.1622 0,0 0,0 0,0 8.7663,0.7746 17.198,1.3925 25.2554,1.7889 0,0 0,0 0,0 3.0887,0.151 6.0696,0.2739 8.9489,0.3145 0,0 0,0 0,0 1.9628,0 3.5456,0.065 4.7675,-0.061 0,0 0,0 0,0 3.8102,-0.3674 7.6522,-1.0981 11.4919,-1.8961 0,0 0,0 0,0 4.8122,-1.0103 9.3631,-2.1472 13.6303,-3.4143 0,0 0,0 0,0 4.1127,-1.2533 7.7349,-2.4134 10.7615,-3.9246 0,0 0,0 0,0 1.1343,-0.6091 1.9727,-0.9878 2.3998,-1.3566 0,0 0,0 0,0 0.041,-0.4854 0.1427,0.1852 -0.2749,1.83 0,0 0,0 0,0 0.1162,-1.9028 0.4407,-3.3436 0.7467,-4.415 0,0 0,0 0,0 0.4799,-1.9025 1.0131,-3.6537 1.5411,-5.2862 0,0 0,0 0,0 1.5411,-4.7777 3.1147,-8.9076 4.5519,-12.443 0,0 0,0 0,0 1.9117,-4.7072 3.6221,-8.385 5.0334,-10.9586 0,0 0,0 0,0 0.8091,-1.4757 1.5219,-2.5885 2.126,-3.3196 0,0 0,0 0,0 0.3185,-0.3855 0.607,-0.6651 0.8637,-0.8358 0,0 0,0 0,0 0,0 0,0 0,0 0.1314,-0.087 0.2546,-0.1462 0.3692,-0.1761 0.058,-0.015 0.1138,-0.023 0.1674,-0.023 0,0 0,0 0,0 0.056,-3e-4 0.1089,0.01 0.1598,0.023 z"
         style="fill:#6f8a91;fill-rule:evenodd;stroke:none" />
      <path
         sodipodi:nodetypes="czc"
         inkscape:connector-curvature="0"
         inkscape:original-d="m -2955.6914,2515.2242 c 0,0 9.8569,-5.2586 31.3497,-9.4355 21.4927,-4.1769 50.3467,11.6738 50.3467,11.6738"
         inkscape:path-effect="#path-effect4273-4-0"
         id="path4271-9-3"
         d="m -2955.6913,2515.2242 c -0.3396,-1.1283 2.6979,-3.1737 8.082,-5.6847 5.3841,-2.511 13.1151,-5.4878 22.1041,-8.4628 0,0 0,0 0,0 3.5592,-0.7621 7.3038,-1.058 11.0699,-0.9286 2.7049,0.093 5.3135,0.3967 7.7824,0.8306 6.5331,1.1706 12.2856,3.1532 17.0275,5.2271 5.0933,2.6929 9.196,5.1237 11.9225,7.0695 2.7265,1.9459 4.0774,3.407 3.7113,4.1802 0,0 0,0 0,0 0,0 0,0 0,0 0,0 0,0 0,0 0,0 0,0 0,0 0,0 0,0 0,0 0,0 0,0 0,0 -0,0.01 -0,0.01 -0,0.01 0,0 0,0 -0,0.01 0,0 0,0 0,0 0,0 0,0 0,0 0,0 0,0 0,0 0,0 0,0 0,0 0,0 0,0 0,0 0,0 0,0 0,0 -0.3866,0.7643 -2.4392,0.7534 -5.6915,0.1133 -3.2522,-0.6401 -7.7037,-1.9091 -12.9319,-3.6805 -4.6413,-1.1857 -9.9101,-2.4435 -15.5583,-3.1825 -2.1259,-0.2864 -4.292,-0.5177 -6.4619,-0.6246 -3.0212,-0.1488 -5.882,-0.04 -8.5362,0.4055 0,0 0,0 0,0 -8.9789,2.4329 -16.9227,4.1739 -22.7215,5.0286 -5.7987,0.8548 -9.452,0.8232 -9.7916,-0.3051 z"
         style="fill:#6f8a91;fill-opacity:1;fill-rule:evenodd;stroke:none" />
      <path
         inkscape:connector-curvature="0"
         inkscape:original-d="m -2709.1619,2530.7474 93.2136,-67.0331 9.9427,25.9194"
         inkscape:path-effect="#path-effect4277-5-7"
         id="path4275-9-0"
         d="m -2709.1619,2530.7474 c -0.8057,-1.1204 0.054,-3.3513 2.4228,-6.3885 2.3686,-3.0372 6.2472,-6.8805 11.383,-11.2544 5.1357,-4.374 11.5286,-9.2786 18.8214,-14.4696 7.2928,-5.1911 15.4844,-10.6689 24.1214,-16.2182 7.1922,-4.621 14.1209,-8.9314 20.513,-12.8499 6.3921,-3.9184 12.2471,-7.445 17.337,-10.4848 2.345,4.4812 4.3007,8.5772 5.8251,12.2056 1.5244,3.6285 2.6176,6.7895 3.288,9.4158 0.6705,2.6262 0.9184,4.7178 0.7998,6.2217 -0.1186,1.5038 -0.6032,2.4201 -1.3552,2.7086 -0.752,0.2885 -1.7236,-0.065 -2.7617,-0.958 -1.0381,-0.8932 -2.1422,-2.326 -3.2016,-4.2094 -1.0594,-1.8833 -2.074,-4.217 -2.9807,-6.9261 -0.9067,-2.7091 -1.7055,-5.7936 -2.3837,-9.1936 -4.6879,3.9917 -9.8509,8.3886 -15.3577,13.0271 -5.5069,4.6385 -11.3582,9.5186 -17.4676,14.4633 -7.3368,5.938 -14.3665,11.4063 -20.9206,16.173 -6.554,4.7667 -12.6334,8.8313 -17.9732,11.9907 -5.3398,3.1594 -9.94,5.4135 -13.4313,6.5904 -3.4912,1.1768 -5.8725,1.2767 -6.6782,0.1563 z"
         style="fill:#6f8a91;fill-opacity:1;fill-rule:evenodd;stroke:none" />
      <path
         inkscape:connector-curvature="0"
         inkscape:original-d="m -3108.872,2528.956 -81.2305,-59.3198 -22.8977,32.8232"
         inkscape:path-effect="#path-effect4281-3-5"
         id="path4279-1-2"
         d="m -3108.872,2528.956 c -0.8139,1.1145 -3.1717,1.0143 -6.6081,-0.1425 -3.4363,-1.1569 -7.95,-3.3706 -13.1759,-6.4664 -5.226,-3.0958 -11.1644,-7.0738 -17.5592,-11.7408 -6.3949,-4.6671 -13.2474,-10.0231 -20.4025,-15.8583 -7.9946,-6.5199 -15.5461,-12.9482 -22.445,-18.8849 -2.4905,4.4171 -4.9374,8.4151 -7.3219,11.9025 -2.3845,3.4875 -4.7067,6.4644 -6.8736,8.8271 -2.1669,2.3628 -4.1782,4.1112 -5.8682,5.1295 -1.6901,1.0182 -3.0581,1.3062 -3.8738,0.7372 -0.8157,-0.569 -1.0139,-1.958 -0.526,-4.0616 0.4878,-2.1037 1.6624,-4.9222 3.5276,-8.3393 1.8652,-3.4171 4.4212,-7.433 7.5993,-11.9194 3.178,-4.4863 6.978,-9.4431 11.257,-14.7298 7.9155,4.8817 16.9512,10.5665 26.4652,16.8326 8.515,5.6081 16.5944,11.1563 23.783,16.4088 7.1887,5.2525 13.4854,10.2094 18.5358,14.618 5.0503,4.4087 8.8543,8.269 11.1665,11.3101 2.3121,3.0411 3.1337,5.2627 2.3198,6.3772 z"
         style="fill:#6f8a91;fill-opacity:1;fill-rule:evenodd;stroke:none" />
    </g>
  </g>
</svg>
