<?xml version="1.0" encoding="UTF-8" standalone="no"?>
<!-- Created with Inkscape (http://www.inkscape.org/) -->

<svg
   xmlns:dc="http://purl.org/dc/elements/1.1/"
   xmlns:cc="http://creativecommons.org/ns#"
   xmlns:rdf="http://www.w3.org/1999/02/22-rdf-syntax-ns#"
   xmlns:svg="http://www.w3.org/2000/svg"
   xmlns="http://www.w3.org/2000/svg"
   xmlns:sodipodi="http://sodipodi.sourceforge.net/DTD/sodipodi-0.dtd"
   xmlns:inkscape="http://www.inkscape.org/namespaces/inkscape"
   width="632.60034"
   height="172.86858"
   id="svg5385"
   version="1.1"
   inkscape:version="0.48.3.1 r9886"
   sodipodi:docname="03.svg">
  <defs
     id="defs5387">
    <inkscape:path-effect
       effect="skeletal"
       id="path-effect6244-1"
       is_visible="true"
       pattern="m -16215.781,893.10379 c 0,-2.76 2.24,-5 5,-5 2.76,0 5,2.24 5,5 0,2.76 -2.24,5 -5,5 -2.76,0 -5,-2.24 -5,-5 z"
       copytype="single_stretched"
       prop_scale="2"
       scale_y_rel="false"
       spacing="0"
       normal_offset="0"
       tang_offset="0"
       prop_units="false"
       vertical_pattern="false"
       fuse_tolerance="0" />
    <inkscape:path-effect
       effect="skeletal"
       id="path-effect6432"
       is_visible="true"
       pattern="m -17522.558,1031.8039 c 0,-2.76 2.24,-5 5,-5 2.76,0 5,2.24 5,5 0,2.76 -2.24,5 -5,5 -2.76,0 -5,-2.24 -5,-5 z"
       copytype="single_stretched"
       prop_scale="1"
       scale_y_rel="false"
       spacing="0"
       normal_offset="0"
       tang_offset="0"
       prop_units="false"
       vertical_pattern="false"
       fuse_tolerance="0" />
    <inkscape:path-effect
       effect="skeletal"
       id="path-effect6244-1-9"
       is_visible="true"
       pattern="m -16686.257,895.23655 c 0,-2.76 2.24,-5 5,-5 2.76,0 5,2.24 5,5 0,2.76 -2.24,5 -5,5 -2.76,0 -5,-2.24 -5,-5 z"
       copytype="single_stretched"
       prop_scale="2"
       scale_y_rel="false"
       spacing="0"
       normal_offset="0"
       tang_offset="0"
       prop_units="false"
       vertical_pattern="false"
       fuse_tolerance="0" />
    <inkscape:path-effect
       effect="skeletal"
       id="path-effect6244-1-7"
       is_visible="true"
       pattern="m -15751.689,1129.8495 c 0,-2.76 2.24,-5 5,-5 2.76,0 5,2.24 5,5 0,2.76 -2.24,5 -5,5 -2.76,0 -5,-2.24 -5,-5 z"
       copytype="single_stretched"
       prop_scale="2"
       scale_y_rel="false"
       spacing="0"
       normal_offset="0"
       tang_offset="0"
       prop_units="false"
       vertical_pattern="false"
       fuse_tolerance="0" />
    <inkscape:path-effect
       effect="skeletal"
       id="path-effect6432-1"
       is_visible="true"
       pattern="m -16982.126,1305.4648 c 0,-2.76 2.24,-5 5,-5 2.76,0 5,2.24 5,5 0,2.76 -2.24,5 -5,5 -2.76,0 -5,-2.24 -5,-5 z"
       copytype="single_stretched"
       prop_scale="1"
       scale_y_rel="false"
       spacing="0"
       normal_offset="0"
       tang_offset="0"
       prop_units="false"
       vertical_pattern="false"
       fuse_tolerance="0" />
    <inkscape:path-effect
       effect="skeletal"
       id="path-effect6968-3"
       is_visible="true"
       pattern="m -17983.486,953.15662 c 0,-2.76 2.24,-5 5,-5 2.76,0 5,2.24 5,5 0,2.76 -2.24,5 -5,5 -2.76,0 -5,-2.24 -5,-5 z"
       copytype="single_stretched"
       prop_scale="1"
       scale_y_rel="false"
       spacing="0"
       normal_offset="0"
       tang_offset="0"
       prop_units="false"
       vertical_pattern="false"
       fuse_tolerance="0" />
    <inkscape:path-effect
       effect="skeletal"
       id="path-effect6432-1-4"
       is_visible="true"
       pattern="m -16981.842,1288.973 c 0,-2.76 2.24,-5 5,-5 2.76,0 5,2.24 5,5 0,2.76 -2.24,5 -5,5 -2.76,0 -5,-2.24 -5,-5 z"
       copytype="single_stretched"
       prop_scale="1"
       scale_y_rel="false"
       spacing="0"
       normal_offset="0"
       tang_offset="0"
       prop_units="false"
       vertical_pattern="false"
       fuse_tolerance="0" />
    <inkscape:path-effect
       effect="skeletal"
       id="path-effect6244-1-7-3"
       is_visible="true"
       pattern="m -16041.885,1127.9869 c 0,-2.76 2.24,-5 5,-5 2.76,0 5,2.24 5,5 0,2.76 -2.24,5 -5,5 -2.76,0 -5,-2.24 -5,-5 z"
       copytype="single_stretched"
       prop_scale="2"
       scale_y_rel="false"
       spacing="0"
       normal_offset="0"
       tang_offset="0"
       prop_units="false"
       vertical_pattern="false"
       fuse_tolerance="0" />
    <inkscape:path-effect
       effect="skeletal"
       id="path-effect6968-3-8"
       is_visible="true"
       pattern="m -18273.682,951.29409 c 0,-2.76 2.24,-5 5,-5 2.76,0 5,2.24 5,5 0,2.76 -2.24,5 -5,5 -2.76,0 -5,-2.24 -5,-5 z"
       copytype="single_stretched"
       prop_scale="1"
       scale_y_rel="false"
       spacing="0"
       normal_offset="0"
       tang_offset="0"
       prop_units="false"
       vertical_pattern="false"
       fuse_tolerance="0" />
    <inkscape:path-effect
       effect="skeletal"
       id="path-effect4179-5-8"
       is_visible="true"
       pattern="m -6086.9321,106.9427 c 0,-2.76 2.24,-5 5,-5 2.76,0 5,2.24 5,5 0,2.76 -2.24,5 -5,5 -2.76,0 -5,-2.24 -5,-5 z"
       copytype="single_stretched"
       prop_scale="2"
       scale_y_rel="false"
       spacing="0"
       normal_offset="0"
       tang_offset="0"
       prop_units="false"
       vertical_pattern="false"
       fuse_tolerance="0" />
    <inkscape:path-effect
       effect="skeletal"
       id="path-effect4179-1-2-9"
       is_visible="true"
       pattern="m -6487.6123,98.272559 c 0,-2.76001 2.24,-5.00001 5,-5.00001 2.76,0 5,2.24 5,5.00001 0,2.760001 -2.24,5.000001 -5,5.000001 -2.76,0 -5,-2.24 -5,-5.000001 z"
       copytype="single_stretched"
       prop_scale="2"
       scale_y_rel="false"
       spacing="0"
       normal_offset="0"
       tang_offset="0"
       prop_units="false"
       vertical_pattern="false"
       fuse_tolerance="0" />
    <inkscape:path-effect
       effect="skeletal"
       id="path-effect4273-4-0"
       is_visible="true"
       pattern="m -6131.6956,71.055097 c 0,-2.76 2.24,-5 5,-5 2.76,0 5,2.24 5,5 0,2.76 -2.24,5 -5,5 -2.76,0 -5,-2.24 -5,-5 z"
       copytype="single_stretched"
       prop_scale="1"
       scale_y_rel="false"
       spacing="0"
       normal_offset="0"
       tang_offset="0"
       prop_units="false"
       vertical_pattern="false"
       fuse_tolerance="0" />
    <inkscape:path-effect
       effect="skeletal"
       id="path-effect4277-5-7"
       is_visible="true"
       pattern="m -6095.3302,90.983308 c 0,-2.76 2.24,-5 5,-5 2.76,0 5,2.24 5,5 0,2.76 -2.24,5 -5,5 -2.76,0 -5,-2.24 -5,-5 z"
       copytype="single_stretched"
       prop_scale="2"
       scale_y_rel="false"
       spacing="0"
       normal_offset="0"
       tang_offset="0"
       prop_units="false"
       vertical_pattern="false"
       fuse_tolerance="0" />
    <inkscape:path-effect
       effect="skeletal"
       id="path-effect4281-3-5"
       is_visible="true"
       pattern="m -6137.7566,147.55185 c 0,-2.76 2.24,-5 5,-5 2.76,0 5,2.24 5,5 0,2.76 -2.24,5 -5,5 -2.76,0 -5,-2.24 -5,-5 z"
       copytype="single_stretched"
       prop_scale="2"
       scale_y_rel="false"
       spacing="0"
       normal_offset="0"
       tang_offset="0"
       prop_units="false"
       vertical_pattern="false"
       fuse_tolerance="0" />
    <inkscape:path-effect
       effect="skeletal"
       id="path-effect4179-5"
       is_visible="true"
       pattern="m -6742.7101,72.966546 c 0,-2.76 2.24,-5 5,-5 2.76,0 5,2.24 5,5 0,2.76 -2.24,5 -5,5 -2.76,0 -5,-2.24 -5,-5 z"
       copytype="single_stretched"
       prop_scale="2"
       scale_y_rel="false"
       spacing="0"
       normal_offset="0"
       tang_offset="0"
       prop_units="false"
       vertical_pattern="false"
       fuse_tolerance="0" />
    <inkscape:path-effect
       effect="skeletal"
       id="path-effect4179-1-2"
       is_visible="true"
       pattern="m -7143.3903,64.296407 c 0,-2.76001 2.24,-5.00001 5,-5.00001 2.76,0 5,2.24 5,5.00001 0,2.76 -2.24,5 -5,5 -2.76,0 -5,-2.24 -5,-5 z"
       copytype="single_stretched"
       prop_scale="2"
       scale_y_rel="false"
       spacing="0"
       normal_offset="0"
       tang_offset="0"
       prop_units="false"
       vertical_pattern="false"
       fuse_tolerance="0" />
    <inkscape:path-effect
       effect="skeletal"
       id="path-effect4273-4"
       is_visible="true"
       pattern="m -6787.4736,49.936088 c 0,-2.76 2.24,-5 5,-5 2.76,0 5,2.24 5,5 0,2.76 -2.24,5 -5,5 -2.76,0 -5,-2.24 -5,-5 z"
       copytype="single_stretched"
       prop_scale="2"
       scale_y_rel="false"
       spacing="0"
       normal_offset="0"
       tang_offset="0"
       prop_units="false"
       vertical_pattern="false"
       fuse_tolerance="0" />
    <inkscape:path-effect
       effect="skeletal"
       id="path-effect4277-5"
       is_visible="true"
       pattern="m -6751.1082,57.007156 c 0,-2.76 2.24,-5 5,-5 2.76,0 5,2.24 5,5 0,2.76 -2.24,5 -5,5 -2.76,0 -5,-2.24 -5,-5 z"
       copytype="single_stretched"
       prop_scale="4"
       scale_y_rel="false"
       spacing="0"
       normal_offset="0"
       tang_offset="0"
       prop_units="false"
       vertical_pattern="false"
       fuse_tolerance="0" />
    <inkscape:path-effect
       effect="skeletal"
       id="path-effect4281-3"
       is_visible="true"
       pattern="m -6793.5346,113.5757 c 0,-2.76 2.24,-5 5,-5 2.76,0 5,2.24 5,5 0,2.76 -2.24,5 -5,5 -2.76,0 -5,-2.24 -5,-5 z"
       copytype="single_stretched"
       prop_scale="4"
       scale_y_rel="false"
       spacing="0"
       normal_offset="0"
       tang_offset="0"
       prop_units="false"
       vertical_pattern="false"
       fuse_tolerance="0" />
  </defs>
  <sodipodi:namedview
     id="base"
     pagecolor="#ffffff"
     bordercolor="#666666"
     borderopacity="1.0"
     inkscape:pageopacity="0.0"
     inkscape:pageshadow="2"
     inkscape:zoom="0.35"
     inkscape:cx="311.4715"
     inkscape:cy="65.997702"
     inkscape:document-units="px"
     inkscape:current-layer="layer1"
     showgrid="false"
     fit-margin-top="0"
     fit-margin-left="0"
     fit-margin-right="0"
     fit-margin-bottom="0"
     inkscape:window-width="560"
     inkscape:window-height="453"
     inkscape:window-x="829"
     inkscape:window-y="323"
     inkscape:window-maximized="0" />
  <metadata
     id="metadata5390">
    <rdf:RDF>
      <cc:Work
         rdf:about="">
        <dc:format>image/svg+xml</dc:format>
        <dc:type
           rdf:resource="http://purl.org/dc/dcmitype/StillImage" />
        <dc:title></dc:title>
      </cc:Work>
    </rdf:RDF>
  </metadata>
  <g
     inkscape:label="Capa 1"
     inkscape:groupmode="layer"
     id="layer1"
     transform="translate(-38.5285,-425.49131)">
    <g
       transform="translate(3910.0437,-1994.4811)"
       style="display:inline"
       id="g5608">
      <path
         sodipodi:nodetypes="csszsc"
         inkscape:connector-curvature="0"
         inkscape:original-d="m -3538.0442,2481.4501 c 0,0 19.2665,65.526 19.2665,71.7824 0,6.2564 18.2075,19.6607 26.7947,24.4479 7.9355,4.424 78.1905,11.9537 101.9353,-4.2613 23.7447,-16.215 30.6191,-75.3493 24.1056,-80.0695 -44.2397,-32.0598 -172.1021,-11.8995 -172.1021,-11.8995 z"
         inkscape:path-effect="#path-effect4179-5"
         id="path4177-4"
         d="m -3538.0442,2481.4501 c 0.034,-0.01 0.069,-0.016 0.1055,-0.017 0.035,-0 0.072,0 0.1089,0.01 0.074,0.013 0.1532,0.041 0.2364,0.085 0,0 0,0 0,0 0.1645,0.087 0.346,0.2336 0.544,0.4399 0,0 0,0 0,0 0.3872,0.4031 0.8376,1.0328 1.3479,1.8805 0,0 0,0 0,0 0.9684,1.6087 2.153,4.0033 3.5293,7.1273 0,0 0,0 0,0 0,10e-5 0,10e-5 0,10e-5 2.3927,5.4309 5.3712,13.0661 8.7731,22.6293 0,0 0,0 0,0 2.4937,7.0078 5.2429,15.0606 8.0325,24.1288 0,0 0,0 0,0 0.8859,2.8758 1.7924,5.9 2.6371,9.1073 0,0 0,0 0,0 0.273,1.031 0.5504,2.1425 0.8016,3.347 0,0 0,0 0,0 0,0 0,0 0,0 0,0 0,0 0,0 0.1534,0.54 0.3249,1.5452 0.3936,3.0471 -0.1507,-0.949 -0.034,-1.2205 0.058,-0.7829 0,0 0,0 0,0 0,0 0,0 0,0 0.2535,0.4352 0.7691,1.0006 1.4394,1.772 0,0 0,0 0,0 1.729,1.9244 3.9619,3.7722 6.4883,5.7798 0,0 0,0 0,0 2.6321,2.0599 5.4529,4.0512 8.4353,5.9936 0,0 0,0 0,0 2.4268,1.5725 4.8265,3.0577 7.2456,4.3038 -0.2859,-0.1181 -0.076,-0.1275 0.5798,0.1045 0,0 0,0 0,0 0.8159,0.2239 1.7626,0.4162 2.8315,0.6246 0,0 0,0 0,0 3.0049,0.577 6.2025,0.9868 9.5771,1.3628 8.9611,0.9861 18.363,1.4751 28.1139,1.5092 0,0 0,0 0,0 10.0816,0.016 20.3294,-0.3912 30.4405,-2.0235 0,0 0,0 0,0 4.3245,-0.7038 8.5077,-1.5735 12.4113,-2.8611 0,0 0,0 0,0 3.2326,-1.1117 6.1169,-2.2562 8.2545,-3.8137 0,0 0,0 0,0 2.0248,-1.3421 3.9316,-3.3857 5.82,-5.7786 2.0286,-2.6195 3.8023,-5.6674 5.4536,-8.9758 0.021,-0.042 0.042,-0.085 0.063,-0.1269 3.6199,-7.3044 6.0969,-15.2726 7.9762,-23.4049 1.6589,-7.3852 2.7972,-14.5802 2.9543,-21.4943 0.025,-2.4747 0.043,-4.551 -0.2713,-6.1759 0,0 0,0 0,0 -0.1355,-0.5561 -0.1283,-0.7566 -0.081,-0.5563 0,0 0,0 0,0 -0.2202,0.1475 0.5391,0.9064 2.1449,2.4669 1e-4,0 1e-4,0 1e-4,0 -4.9269,-3.7617 -10.993,-6.4051 -17.3259,-8.6488 -7.7829,-2.7045 -15.842,-4.4484 -23.822,-5.7994 -10.0411,-1.6931 -19.8069,-2.6696 -29.1298,-3.283 -9.3229,-0.6135 -18.2026,-0.8638 -26.4977,-0.9939 -10.0187,-0.1526 -19.1654,-0.082 -27.296,0.04 -8.1307,0.1215 -15.2456,0.2938 -21.207,0.3872 -13.3662,0.4555 -20.9493,0.034 -21.1662,-1.4042 0,0 0,0 0,0 -5e-4,-0 -5e-4,-0 -5e-4,-0 0,0 0,0 -5e-4,-0 0,0 0,0 0,0 -0.1944,-1.4411 7.0079,-3.7573 20.2027,-6.7056 5.9099,-1.207 13.0319,-2.4445 21.2514,-3.5694 8.2194,-1.1248 17.5366,-2.1371 27.828,-2.8484 8.4761,-0.5916 17.6496,-0.9983 27.4376,-0.955 9.788,0.043 20.191,0.5369 31.0927,1.8562 8.6819,1.0456 17.7974,2.683 27.0857,5.5376 7.5562,2.279 15.4339,5.5898 22.8615,10.7812 0,0 1e-4,0 1e-4,1e-4 2.6077,2.2865 3.9987,4.1781 4.272,5.4646 0,0 0,0 0,1e-4 0.7721,1.8729 1.2105,3.4625 1.4085,4.707 0,0 0,10e-5 0,10e-5 0.6655,3.6627 0.8125,7.0336 0.7533,10.0068 -0.082,8.6389 -1.265,17.2018 -3.0987,25.51 -1.9929,9.2671 -4.9438,18.7354 -9.4235,27.9102 -0.026,0.054 -0.052,0.1075 -0.079,0.1612 -2.0601,4.2068 -4.5422,8.3699 -7.5634,12.307 -2.7696,3.6548 -6.2227,7.1188 -10.4206,10.0261 0,0 0,0 0,0 -4.5279,2.9944 -9.1462,4.9311 -13.4893,6.2264 0,0 0,0 0,0 -5.2832,1.6313 -10.4886,2.6612 -15.5025,3.3561 0,0 0,0 0,0 -11.6785,1.6313 -22.9827,1.8384 -33.6942,1.4598 0,0 0,0 0,0 -10.3767,-0.348 -20.4559,-1.2577 -30.0923,-2.7472 -3.6022,-0.5528 -7.2638,-1.2103 -10.9261,-2.0945 0,0 0,0 0,0 -1.2928,-0.3092 -2.6854,-0.6821 -4.1541,-1.161 0,0 0,0 0,0 -0.8523,-0.2321 -2.15,-0.7336 -3.8035,-1.6142 0,0 0,0 0,0 -3.0574,-1.807 -5.8187,-3.7228 -8.3732,-5.6158 0,0 0,0 0,0 -3.2138,-2.3682 -6.2875,-4.8451 -9.181,-7.4328 -2.7163,-2.4021 -5.452,-5.096 -7.9078,-8.1976 0,0 0,0 0,0 -0.9775,-1.2077 -1.9947,-2.7014 -2.9206,-4.4996 0,0 0,0 0,0 -0.7844,-1.2223 -1.3897,-3.2856 -1.5404,-6.0837 0,0 0,0 0,0 0.069,0.2615 0.015,0.044 -0.039,-0.626 0,0 0,0 0,0 0,0 0,0 0,0 0,0 0,0 0,0 -0.1013,-0.8531 -0.2526,-1.7665 -0.4208,-2.7378 -0.5191,-2.9812 -1.1247,-5.9282 -1.7261,-8.8353 0,0 0,0 0,0 -1.8859,-9.1111 -3.6977,-17.3572 -5.2089,-24.6202 0,0 0,0 0,0 -2.0584,-9.8949 -3.5964,-17.9254 -4.4717,-23.7861 0,0 0,0 0,0 0,0 0,0 0,0 -0.5034,-3.371 -0.7893,-6.0231 -0.8383,-7.8984 0,0 0,0 0,0 -0.026,-0.9881 0.014,-1.7603 0.1226,-2.3082 0,0 0,0 0,0 0.055,-0.2803 0.1288,-0.5019 0.2204,-0.6635 0,0 0,0 0,0 0.046,-0.082 0.097,-0.1482 0.153,-0.1992 0.028,-0.026 0.057,-0.047 0.088,-0.065 0.031,-0.018 0.064,-0.033 0.098,-0.043 z"
         style="fill:#6f8a91;fill-rule:evenodd;stroke:none" />
      <path
         sodipodi:nodetypes="cssssc"
         inkscape:connector-curvature="0"
         inkscape:original-d="m -3605.3382,2478.2377 c 0,0 -16.7385,62.998 -16.7385,69.2544 0,6.2564 -22.967,19.076 -34.6945,24.4479 -8.9385,4.0944 -74.469,11.085 -95.9313,-8.0533 -19.1374,-17.0649 -21.231,-68.1368 -19.3657,-75.9616 8.8479,-37.1157 166.73,-9.6874 166.73,-9.6874 z"
         inkscape:path-effect="#path-effect4179-1-2"
         id="path4177-9-9"
         d="m -3605.3382,2478.2377 c 0.034,0.01 0.067,0.022 0.098,0.039 0.03,0.017 0.06,0.037 0.088,0.061 0.057,0.048 0.1091,0.1106 0.1575,0.188 0,0 0,0 0,0 0.096,0.1532 0.1757,0.3639 0.2399,0.6312 0,0 0,0 0,0 0.1256,0.5224 0.1914,1.2606 0.1998,2.2065 0,0 0,0 0,0 0.016,1.7951 -0.1755,4.338 -0.5571,7.5731 0,0 0,0 0,0 0,0 0,0 0,0 -0.6637,5.6257 -1.908,13.3425 -3.6087,22.8582 0,0 0,0 0,0 -1.2503,6.9942 -2.7657,14.941 -4.3431,23.722 0,0 0,0 0,0 -0.5051,2.8128 -1.0141,5.6672 -1.4462,8.5553 0,0 0,0 0,0 -0.1409,0.9465 -0.2674,1.8415 -0.3506,2.6821 0,0 0,0 0,0 0,0 0,0 0,0 0,0 0,0 0,0 -0.045,0.6416 -0.09,0.8955 -0.031,0.738 0,0 0,0 0,0 -0.2793,3.3202 -1.1287,5.6094 -2.1523,6.7249 0,0 0,0 0,0 -1.2364,1.8532 -2.5379,3.322 -3.7315,4.4532 0,0 0,0 0,0 -3.1614,3.0885 -6.6059,5.6854 -9.9774,7.9907 -6.7912,4.7041 -14.296,9.1317 -22.4373,13.0987 -1.4601,0.6603 -2.6705,1.0742 -3.5759,1.3207 0,0 0,0 0,0 0,0 0,0 0,0 -1.4216,0.4224 -2.7853,0.7613 -4.0744,1.0488 0,0 0,0 0,0 0,0 0,0 0,0 0,0 0,0 0,0 -3.545,0.7952 -7.0937,1.3908 -10.6001,1.8813 0,0 0,0 0,0 -9.1922,1.2955 -18.7912,2.0082 -28.663,2.0798 -10.1272,0.1 -20.8448,-0.4832 -31.8477,-2.6988 0,0 0,0 0,0 -4.7746,-0.9554 -9.7243,-2.323 -14.6905,-4.3708 0,0 0,0 0,0 -4.2378,-1.7034 -8.6083,-4.1664 -12.6918,-7.6985 -6.6211,-6.1477 -10.9107,-13.549 -13.663,-20.739 -0.1308,-0.3418 -0.258,-0.6827 -0.3819,-1.0227 -3.3074,-8.5326 -5.3414,-17.1365 -6.6869,-25.4635 -1.2704,-7.7148 -2.0193,-15.421 -2.245,-23.0309 -0.087,-2.8246 -0.098,-5.731 0.04,-8.7043 0,0 0,0 0,0 0.017,-1.5781 0.1748,-3.838 0.7971,-6.6784 1.0579,-4.075 3.018,-7.5842 5.5893,-10.367 2.8642,-3.0522 5.9691,-5.2517 8.9998,-6.7876 7.9737,-4.0695 15.9355,-5.8165 23.1096,-6.7686 9.8773,-1.4326 19.3076,-1.7618 28.1587,-1.7085 10.9109,0.053 21.1453,0.7009 30.6289,1.5702 11.5253,1.056 21.9993,2.4405 31.2867,3.9145 9.2874,1.4739 17.3885,3.0381 24.1707,4.5291 15.7316,3.7193 24.4382,6.5677 24.1909,8.1693 0,0 0,0 0,0 0,0 0,0 0,0 -5e-4,0 -5e-4,0 -5e-4,0 0,0 0,0 -5e-4,0 0,0 0,0 0,0 0,0 0,0 0,0 -0.2695,1.5983 -9.4537,1.7744 -25.4518,0.7541 -6.872,-0.3288 -15.0039,-0.7895 -24.2298,-1.2332 -9.2258,-0.4436 -19.5456,-0.8709 -30.7895,-1.0587 -9.2696,-0.1552 -19.1346,-0.1588 -29.4445,0.3446 -8.4065,0.4194 -17.0145,1.0937 -25.55,2.7006 -6.3537,1.281 -12.3815,2.6424 -17.0431,5.4301 -1.6467,1.0025 -3.0084,1.9275 -3.7459,2.9063 -0.5769,0.7405 -1.0188,1.5016 -1.0708,2.0824 -0.123,0.2862 -0.071,1.2824 -0.1796,2.9428 0,0 0,0 0,0 -0.065,2.2963 -0,4.7021 0.1124,7.2152 0.3173,6.7364 1.078,13.5796 2.2731,20.4599 1.3177,7.4387 3.0319,14.7245 5.7072,21.4924 0.1147,0.27 0.2294,0.5388 0.3444,0.8064 2.4191,5.6282 4.8876,10.5379 8.3343,13.3677 1.7541,1.6734 4.2818,3.0227 7.1431,4.319 0,0 0,0 0,0 3.3823,1.4799 7.1256,2.5394 11.048,3.4279 0,0 0,0 0,0 9.104,2.0473 18.5384,2.7348 27.9031,2.9629 9.0967,0.1964 17.9271,-0.1389 26.3912,-0.9709 0,0 0,0 0,0 3.2436,-0.3227 6.3372,-0.6917 9.2679,-1.2104 0,0 0,0 0,0 0,0 0,0 0,0 0,0 0,0 0,0 1.0687,-0.1909 2.0416,-0.376 2.9126,-0.591 0,0 0,0 0,0 0.6741,-0.1926 1.0345,-0.2513 1.0533,-0.2684 7.573,-3.2311 14.6119,-6.8378 21.0528,-10.6858 3.221,-1.9555 6.0862,-3.7468 8.3778,-5.7127 0,0 0,0 0,0 0.8547,-0.7672 1.4956,-1.2939 1.7926,-1.7019 0,0 0,0 0,0 0.053,-0.4718 0.1466,0.039 -0.1327,1.4721 0.059,-1.3768 0.2081,-2.3272 0.345,-2.8784 0,0 0,0 0,0 0,0 0,0 0,0 0,0 0,0 0,0 0.2215,-1.1609 0.4677,-2.238 0.7113,-3.242 0,0 0,0 0,0 0.7485,-3.0995 1.5547,-6.0277 2.3445,-8.8146 0,0 0,0 0,0 2.4763,-8.7491 4.9281,-16.5239 7.1606,-23.2889 0,0 0,0 0,0 3.0414,-9.2185 5.7221,-16.58 7.8982,-21.8193 0,0 0,0 0,0 0,0 0,0 0,0 1.2515,-3.0131 2.3377,-5.3244 3.2375,-6.8799 0,0 0,0 0,0 0.4742,-0.8197 0.8966,-1.4296 1.2643,-1.8218 0,0 0,0 0,0 0.1882,-0.2007 0.3621,-0.3444 0.5212,-0.43 0,0 0,0 0,0 0.081,-0.043 0.1571,-0.072 0.23,-0.085 0.037,-0.01 0.072,-0.01 0.1071,-0.01 0.036,8e-4 0.071,0.01 0.1047,0.015 z"
         style="fill:#6f8a91;fill-rule:evenodd;stroke:none" />
      <path
         sodipodi:nodetypes="czc"
         inkscape:connector-curvature="0"
         inkscape:original-d="m -3611.4694,2494.1052 c 0,0 9.8569,-5.2586 31.3497,-9.4355 21.4927,-4.1769 50.3467,11.6738 50.3467,11.6738"
         inkscape:path-effect="#path-effect4273-4"
         id="path4271-9"
         d="m -3611.4693,2494.1052 c -0.6792,-2.2566 2.0504,-5.3405 7.2272,-8.6797 5.1768,-3.3391 12.8013,-6.9337 21.7953,-10.1798 0,0 0,0 0,0 4.0118,-0.9205 8.1982,-1.3098 12.3368,-1.1902 2.9724,0.086 5.8023,0.426 8.4426,0.9337 6.8522,1.3365 12.7432,3.6398 17.4791,6.135 0,0 0,0 0,0 5.2118,2.7338 9.1508,5.728 11.6229,8.3786 0,0 0,0 0,0 1.2986,1.3917 2.2073,2.7002 2.6855,3.8495 0,0 0,0 0,0 0.2437,0.5857 0.3799,1.1326 0.4004,1.6298 0,0 0,0 0,0 0,0 0,0 0,0 0.012,0.2517 -0.01,0.4907 -0.053,0.7157 0,0 0,0 0,0 0,0 0,0 0,0 -0.1313,0.3078 -0.192,0.4698 -0.2193,0.5541 0,0 0,0 0,0 -0.027,0.083 -0.021,0.091 -0.021,0.092 0,0 0,0 0,0 0,0 0,0 0,0 0,0 0,0 0,0 0,0 0,0 0,0 0,0 0,0 0,0 0,0 0,0 0,0 0,0 0,0 0,0 0,0 0,0 0,0 -7e-4,-2e-4 -0.01,-7e-4 -0.066,0.067 0,0 0,0 0,0 -0.056,0.069 -0.1593,0.2076 -0.3467,0.4851 0,0 0,0 0,0 0,0 0,0 0,0 -0.1598,0.1645 -0.3431,0.3144 -0.5497,0.45 0,0 0,0 0,0 0,0 0,0 0,0 -0.4131,0.2669 -0.9179,0.4772 -1.5124,0.6341 0,0 0,0 0,0 -1.1665,0.3079 -2.6615,0.4185 -4.4495,0.3686 0,0 0,0 0,0 -3.4051,-0.094 -7.8191,-0.7546 -12.9181,-1.6025 0,0 0,0 0,0 -4.6472,-0.7644 -9.7775,-1.7014 -15.1066,-2.2746 -1.9545,-0.2126 -3.8994,-0.4077 -5.8017,-0.5215 -2.6488,-0.1585 -5.0677,-0.1431 -7.2693,0.1439 0,0 0,0 0,0 -8.9739,2.1618 -17.0242,3.2849 -23.0303,3.3116 -6.006,0.027 -9.9673,-1.0435 -10.6464,-3.3001 z"
         style="fill:#6f8a91;fill-opacity:1;fill-rule:evenodd;stroke:none" />
      <path
         inkscape:connector-curvature="0"
         inkscape:original-d="m -3364.9399,2496.7713 110.7627,-67.0331 11.8147,25.9194"
         inkscape:path-effect="#path-effect4277-5"
         id="path4275-9"
         d="m -3364.9399,2496.7713 c -1.429,-2.3613 -0.8859,-5.7522 1.5494,-9.7909 2.4353,-4.0387 6.7647,-8.7245 12.7305,-13.7303 5.9657,-5.0058 13.5678,-10.3316 22.3554,-15.7099 8.7876,-5.3782 18.7588,-10.8096 29.2847,-16.0815 9.2698,-4.6428 18.1831,-8.7821 26.2918,-12.3808 8.1088,-3.5987 15.4118,-6.6571 21.5658,-9.1055 3.301,5.059 5.9559,9.6904 7.92,13.8093 1.9642,4.1188 3.2378,7.7251 3.8621,10.7603 0.6244,3.0351 0.5999,5.4994 0.05,7.3593 -0.5505,1.8598 -1.6262,3.1156 -3.0318,3.7563 -1.4056,0.6407 -3.0559,0.6359 -4.6938,0.1101 -1.6379,-0.5258 -3.2626,-1.5723 -4.6897,-3.0376 -1.4271,-1.4653 -2.6561,-3.3492 -3.5839,-5.5747 -0.9277,-2.2256 -1.5542,-4.7929 -1.8622,-7.6514 -5.5595,4.6405 -11.6434,9.6838 -18.0988,14.8993 -6.4555,5.2155 -13.2836,10.6028 -20.4366,15.8991 -8.1223,6.0139 -15.9211,11.3368 -23.2987,15.7416 -7.3776,4.4049 -14.336,7.891 -20.5997,10.2865 -6.2638,2.3954 -11.8328,3.7001 -16.2386,3.8016 -4.4058,0.1015 -7.6464,-0.9995 -9.0754,-3.3608 z"
         style="fill:#6f8a91;fill-opacity:1;fill-rule:evenodd;stroke:none" />
      <path
         inkscape:connector-curvature="0"
         inkscape:original-d="m -3764.65,2494.9799 -81.2305,-59.3198 -22.8977,32.8232"
         inkscape:path-effect="#path-effect4281-3"
         id="path4279-1"
         d="m -3764.65,2494.9799 c -1.6277,2.2289 -4.7538,3.1895 -8.7522,2.9748 -3.9984,-0.2147 -8.8669,-1.6051 -14.1807,-4.0445 -5.3138,-2.4394 -11.0729,-5.9279 -17.0709,-10.3023 -5.998,-4.3743 -12.2371,-9.6342 -18.7122,-15.583 -7.2348,-6.6467 -14.0443,-13.4468 -20.4348,-19.911 -1.5963,3.9823 -3.3667,7.5009 -5.3544,10.4889 -1.9878,2.9879 -4.1931,5.4455 -6.5108,7.281 -2.3178,1.8355 -4.7474,3.0489 -7.0385,3.5245 -2.2911,0.4755 -4.4424,0.213 -6.0737,-0.925 -1.6313,-1.138 -2.6127,-3.0775 -2.726,-5.7238 -0.1132,-2.6464 0.6431,-5.9999 2.3574,-9.9442 1.7143,-3.9444 4.3873,-8.4797 7.9621,-13.4655 3.5748,-4.9858 8.0514,-10.4221 13.2245,-16.1435 8.4239,4.3542 18.2016,9.6672 28.4755,15.8064 9.1949,5.4946 17.8877,11.1389 25.4732,16.6841 7.5855,5.5452 14.0615,10.9916 19.0241,16.0566 4.9625,5.0651 8.4116,9.7487 10.1617,13.7319 1.7501,3.9833 1.8034,7.2657 0.1757,9.4946 z"
         style="fill:#6f8a91;fill-opacity:1;fill-rule:evenodd;stroke:none" />
    </g>
  </g>
</svg>
