<?xml version="1.0" encoding="UTF-8" standalone="no"?>
<!-- Created with Inkscape (http://www.inkscape.org/) -->

<svg
   xmlns:dc="http://purl.org/dc/elements/1.1/"
   xmlns:cc="http://creativecommons.org/ns#"
   xmlns:rdf="http://www.w3.org/1999/02/22-rdf-syntax-ns#"
   xmlns:svg="http://www.w3.org/2000/svg"
   xmlns="http://www.w3.org/2000/svg"
   xmlns:sodipodi="http://sodipodi.sourceforge.net/DTD/sodipodi-0.dtd"
   xmlns:inkscape="http://www.inkscape.org/namespaces/inkscape"
   width="412.74875"
   height="140.54753"
   id="svg5385"
   version="1.1"
   inkscape:version="0.48.3.1 r9886"
   sodipodi:docname="04.svg">
  <defs
     id="defs5387">
    <inkscape:path-effect
       effect="skeletal"
       id="path-effect6244-1"
       is_visible="true"
       pattern="m -16215.781,893.10379 c 0,-2.76 2.24,-5 5,-5 2.76,0 5,2.24 5,5 0,2.76 -2.24,5 -5,5 -2.76,0 -5,-2.24 -5,-5 z"
       copytype="single_stretched"
       prop_scale="2"
       scale_y_rel="false"
       spacing="0"
       normal_offset="0"
       tang_offset="0"
       prop_units="false"
       vertical_pattern="false"
       fuse_tolerance="0" />
    <inkscape:path-effect
       effect="skeletal"
       id="path-effect6432"
       is_visible="true"
       pattern="m -17522.558,1031.8039 c 0,-2.76 2.24,-5 5,-5 2.76,0 5,2.24 5,5 0,2.76 -2.24,5 -5,5 -2.76,0 -5,-2.24 -5,-5 z"
       copytype="single_stretched"
       prop_scale="1"
       scale_y_rel="false"
       spacing="0"
       normal_offset="0"
       tang_offset="0"
       prop_units="false"
       vertical_pattern="false"
       fuse_tolerance="0" />
    <inkscape:path-effect
       effect="skeletal"
       id="path-effect6244-1-9"
       is_visible="true"
       pattern="m -16686.257,895.23655 c 0,-2.76 2.24,-5 5,-5 2.76,0 5,2.24 5,5 0,2.76 -2.24,5 -5,5 -2.76,0 -5,-2.24 -5,-5 z"
       copytype="single_stretched"
       prop_scale="2"
       scale_y_rel="false"
       spacing="0"
       normal_offset="0"
       tang_offset="0"
       prop_units="false"
       vertical_pattern="false"
       fuse_tolerance="0" />
    <inkscape:path-effect
       effect="skeletal"
       id="path-effect6244-1-7"
       is_visible="true"
       pattern="m -15751.689,1129.8495 c 0,-2.76 2.24,-5 5,-5 2.76,0 5,2.24 5,5 0,2.76 -2.24,5 -5,5 -2.76,0 -5,-2.24 -5,-5 z"
       copytype="single_stretched"
       prop_scale="2"
       scale_y_rel="false"
       spacing="0"
       normal_offset="0"
       tang_offset="0"
       prop_units="false"
       vertical_pattern="false"
       fuse_tolerance="0" />
    <inkscape:path-effect
       effect="skeletal"
       id="path-effect6432-1"
       is_visible="true"
       pattern="m -16982.126,1305.4648 c 0,-2.76 2.24,-5 5,-5 2.76,0 5,2.24 5,5 0,2.76 -2.24,5 -5,5 -2.76,0 -5,-2.24 -5,-5 z"
       copytype="single_stretched"
       prop_scale="1"
       scale_y_rel="false"
       spacing="0"
       normal_offset="0"
       tang_offset="0"
       prop_units="false"
       vertical_pattern="false"
       fuse_tolerance="0" />
    <inkscape:path-effect
       effect="skeletal"
       id="path-effect6968-3"
       is_visible="true"
       pattern="m -17983.486,953.15662 c 0,-2.76 2.24,-5 5,-5 2.76,0 5,2.24 5,5 0,2.76 -2.24,5 -5,5 -2.76,0 -5,-2.24 -5,-5 z"
       copytype="single_stretched"
       prop_scale="1"
       scale_y_rel="false"
       spacing="0"
       normal_offset="0"
       tang_offset="0"
       prop_units="false"
       vertical_pattern="false"
       fuse_tolerance="0" />
    <inkscape:path-effect
       effect="skeletal"
       id="path-effect6432-1-4"
       is_visible="true"
       pattern="m -16981.842,1288.973 c 0,-2.76 2.24,-5 5,-5 2.76,0 5,2.24 5,5 0,2.76 -2.24,5 -5,5 -2.76,0 -5,-2.24 -5,-5 z"
       copytype="single_stretched"
       prop_scale="1"
       scale_y_rel="false"
       spacing="0"
       normal_offset="0"
       tang_offset="0"
       prop_units="false"
       vertical_pattern="false"
       fuse_tolerance="0" />
    <inkscape:path-effect
       effect="skeletal"
       id="path-effect6244-1-7-3"
       is_visible="true"
       pattern="m -16041.885,1127.9869 c 0,-2.76 2.24,-5 5,-5 2.76,0 5,2.24 5,5 0,2.76 -2.24,5 -5,5 -2.76,0 -5,-2.24 -5,-5 z"
       copytype="single_stretched"
       prop_scale="2"
       scale_y_rel="false"
       spacing="0"
       normal_offset="0"
       tang_offset="0"
       prop_units="false"
       vertical_pattern="false"
       fuse_tolerance="0" />
    <inkscape:path-effect
       effect="skeletal"
       id="path-effect6968-3-8"
       is_visible="true"
       pattern="m -18273.682,951.29409 c 0,-2.76 2.24,-5 5,-5 2.76,0 5,2.24 5,5 0,2.76 -2.24,5 -5,5 -2.76,0 -5,-2.24 -5,-5 z"
       copytype="single_stretched"
       prop_scale="1"
       scale_y_rel="false"
       spacing="0"
       normal_offset="0"
       tang_offset="0"
       prop_units="false"
       vertical_pattern="false"
       fuse_tolerance="0" />
    <inkscape:path-effect
       effect="skeletal"
       id="path-effect4179-5-8"
       is_visible="true"
       pattern="m -6086.9321,106.9427 c 0,-2.76 2.24,-5 5,-5 2.76,0 5,2.24 5,5 0,2.76 -2.24,5 -5,5 -2.76,0 -5,-2.24 -5,-5 z"
       copytype="single_stretched"
       prop_scale="2"
       scale_y_rel="false"
       spacing="0"
       normal_offset="0"
       tang_offset="0"
       prop_units="false"
       vertical_pattern="false"
       fuse_tolerance="0" />
    <inkscape:path-effect
       effect="skeletal"
       id="path-effect4179-1-2-9"
       is_visible="true"
       pattern="m -6487.6123,98.272559 c 0,-2.76001 2.24,-5.00001 5,-5.00001 2.76,0 5,2.24 5,5.00001 0,2.760001 -2.24,5.000001 -5,5.000001 -2.76,0 -5,-2.24 -5,-5.000001 z"
       copytype="single_stretched"
       prop_scale="2"
       scale_y_rel="false"
       spacing="0"
       normal_offset="0"
       tang_offset="0"
       prop_units="false"
       vertical_pattern="false"
       fuse_tolerance="0" />
    <inkscape:path-effect
       effect="skeletal"
       id="path-effect4273-4-0"
       is_visible="true"
       pattern="m -6131.6956,71.055097 c 0,-2.76 2.24,-5 5,-5 2.76,0 5,2.24 5,5 0,2.76 -2.24,5 -5,5 -2.76,0 -5,-2.24 -5,-5 z"
       copytype="single_stretched"
       prop_scale="1"
       scale_y_rel="false"
       spacing="0"
       normal_offset="0"
       tang_offset="0"
       prop_units="false"
       vertical_pattern="false"
       fuse_tolerance="0" />
    <inkscape:path-effect
       effect="skeletal"
       id="path-effect4277-5-7"
       is_visible="true"
       pattern="m -6095.3302,90.983308 c 0,-2.76 2.24,-5 5,-5 2.76,0 5,2.24 5,5 0,2.76 -2.24,5 -5,5 -2.76,0 -5,-2.24 -5,-5 z"
       copytype="single_stretched"
       prop_scale="2"
       scale_y_rel="false"
       spacing="0"
       normal_offset="0"
       tang_offset="0"
       prop_units="false"
       vertical_pattern="false"
       fuse_tolerance="0" />
    <inkscape:path-effect
       effect="skeletal"
       id="path-effect4281-3-5"
       is_visible="true"
       pattern="m -6137.7566,147.55185 c 0,-2.76 2.24,-5 5,-5 2.76,0 5,2.24 5,5 0,2.76 -2.24,5 -5,5 -2.76,0 -5,-2.24 -5,-5 z"
       copytype="single_stretched"
       prop_scale="2"
       scale_y_rel="false"
       spacing="0"
       normal_offset="0"
       tang_offset="0"
       prop_units="false"
       vertical_pattern="false"
       fuse_tolerance="0" />
    <inkscape:path-effect
       effect="skeletal"
       id="path-effect4179-5"
       is_visible="true"
       pattern="m -6742.7101,72.966546 c 0,-2.76 2.24,-5 5,-5 2.76,0 5,2.24 5,5 0,2.76 -2.24,5 -5,5 -2.76,0 -5,-2.24 -5,-5 z"
       copytype="single_stretched"
       prop_scale="2"
       scale_y_rel="false"
       spacing="0"
       normal_offset="0"
       tang_offset="0"
       prop_units="false"
       vertical_pattern="false"
       fuse_tolerance="0" />
    <inkscape:path-effect
       effect="skeletal"
       id="path-effect4179-1-2"
       is_visible="true"
       pattern="m -7143.3903,64.296407 c 0,-2.76001 2.24,-5.00001 5,-5.00001 2.76,0 5,2.24 5,5.00001 0,2.76 -2.24,5 -5,5 -2.76,0 -5,-2.24 -5,-5 z"
       copytype="single_stretched"
       prop_scale="2"
       scale_y_rel="false"
       spacing="0"
       normal_offset="0"
       tang_offset="0"
       prop_units="false"
       vertical_pattern="false"
       fuse_tolerance="0" />
    <inkscape:path-effect
       effect="skeletal"
       id="path-effect4273-4"
       is_visible="true"
       pattern="m -6787.4736,49.936088 c 0,-2.76 2.24,-5 5,-5 2.76,0 5,2.24 5,5 0,2.76 -2.24,5 -5,5 -2.76,0 -5,-2.24 -5,-5 z"
       copytype="single_stretched"
       prop_scale="2"
       scale_y_rel="false"
       spacing="0"
       normal_offset="0"
       tang_offset="0"
       prop_units="false"
       vertical_pattern="false"
       fuse_tolerance="0" />
    <inkscape:path-effect
       effect="skeletal"
       id="path-effect4277-5"
       is_visible="true"
       pattern="m -6751.1082,57.007156 c 0,-2.76 2.24,-5 5,-5 2.76,0 5,2.24 5,5 0,2.76 -2.24,5 -5,5 -2.76,0 -5,-2.24 -5,-5 z"
       copytype="single_stretched"
       prop_scale="4"
       scale_y_rel="false"
       spacing="0"
       normal_offset="0"
       tang_offset="0"
       prop_units="false"
       vertical_pattern="false"
       fuse_tolerance="0" />
    <inkscape:path-effect
       effect="skeletal"
       id="path-effect4281-3"
       is_visible="true"
       pattern="m -6793.5346,113.5757 c 0,-2.76 2.24,-5 5,-5 2.76,0 5,2.24 5,5 0,2.76 -2.24,5 -5,5 -2.76,0 -5,-2.24 -5,-5 z"
       copytype="single_stretched"
       prop_scale="4"
       scale_y_rel="false"
       spacing="0"
       normal_offset="0"
       tang_offset="0"
       prop_units="false"
       vertical_pattern="false"
       fuse_tolerance="0" />
    <inkscape:path-effect
       effect="skeletal"
       id="path-effect6244"
       is_visible="true"
       pattern="m -17313.566,904.38103 c 0,-2.76 2.24,-5 5,-5 2.76,0 5,2.24 5,5 0,2.76 -2.24,5 -5,5 -2.76,0 -5,-2.24 -5,-5 z"
       copytype="single_stretched"
       prop_scale="2"
       scale_y_rel="false"
       spacing="0"
       normal_offset="0"
       tang_offset="0"
       prop_units="false"
       vertical_pattern="false"
       fuse_tolerance="0" />
    <inkscape:path-effect
       effect="skeletal"
       id="path-effect6252"
       is_visible="true"
       pattern="m -17313.566,904.38103 c 0,-2.76 2.24,-5 5,-5 2.76,0 5,2.24 5,5 0,2.76 -2.24,5 -5,5 -2.76,0 -5,-2.24 -5,-5 z"
       copytype="single_stretched"
       prop_scale="1"
       scale_y_rel="false"
       spacing="0"
       normal_offset="0"
       tang_offset="0"
       prop_units="false"
       vertical_pattern="false"
       fuse_tolerance="0" />
    <inkscape:path-effect
       effect="skeletal"
       id="path-effect6244-3"
       is_visible="true"
       pattern="m -17654.082,905.89579 c 0,-2.76 2.24,-5 5,-5 2.76,0 5,2.24 5,5 0,2.76 -2.24,5 -5,5 -2.76,0 -5,-2.24 -5,-5 z"
       copytype="single_stretched"
       prop_scale="2"
       scale_y_rel="false"
       spacing="0"
       normal_offset="0"
       tang_offset="0"
       prop_units="false"
       vertical_pattern="false"
       fuse_tolerance="0" />
  </defs>
  <sodipodi:namedview
     id="base"
     pagecolor="#ffffff"
     bordercolor="#666666"
     borderopacity="1.0"
     inkscape:pageopacity="0.0"
     inkscape:pageshadow="2"
     inkscape:zoom="0.35"
     inkscape:cx="-25.01123"
     inkscape:cy="-18.19161"
     inkscape:document-units="px"
     inkscape:current-layer="layer1"
     showgrid="false"
     fit-margin-top="0"
     fit-margin-left="0"
     fit-margin-right="0"
     fit-margin-bottom="0"
     inkscape:window-width="560"
     inkscape:window-height="453"
     inkscape:window-x="829"
     inkscape:window-y="323"
     inkscape:window-maximized="0" />
  <metadata
     id="metadata5390">
    <rdf:RDF>
      <cc:Work
         rdf:about="">
        <dc:format>image/svg+xml</dc:format>
        <dc:type
           rdf:resource="http://purl.org/dc/dcmitype/StillImage" />
        <dc:title></dc:title>
      </cc:Work>
    </rdf:RDF>
  </metadata>
  <g
     inkscape:label="Capa 1"
     inkscape:groupmode="layer"
     id="layer1"
     transform="translate(-375.01123,-373.62304)">
    <g
       transform="translate(4192.3881,-2382.4348)"
       style="display:inline"
       id="g5682">
      <path
         transform="matrix(0.51443507,0,0,0.40607677,-11137.402,2398.4526)"
         d="m 14891.429,1100.9336 c 0,64.6962 -52.447,117.1429 -117.143,117.1429 -64.696,0 -117.143,-52.4467 -117.143,-117.1429 0,-64.6962 52.447,-117.14287 117.143,-117.14287 64.696,0 117.143,52.44667 117.143,117.14287 z"
         sodipodi:ry="117.14286"
         sodipodi:rx="117.14286"
         sodipodi:cy="1100.9336"
         sodipodi:cx="14774.286"
         id="path5621"
         style="fill:none;stroke:#000000;stroke-width:13.68853569;stroke-miterlimit:4;stroke-dasharray:none"
         sodipodi:type="arc" />
      <path
         transform="matrix(0.51443507,0,0,0.40607677,-11284.589,2399.1994)"
         d="m 14891.429,1100.9336 c 0,64.6962 -52.447,117.1429 -117.143,117.1429 -64.696,0 -117.143,-52.4467 -117.143,-117.1429 0,-64.6962 52.447,-117.14287 117.143,-117.14287 64.696,0 117.143,52.44667 117.143,117.14287 z"
         sodipodi:ry="117.14286"
         sodipodi:rx="117.14286"
         sodipodi:cy="1100.9336"
         sodipodi:cx="14774.286"
         id="path5621-4"
         style="fill:none;stroke:#000000;stroke-width:13.68853569;stroke-miterlimit:4;stroke-dasharray:none"
         sodipodi:type="arc" />
      <path
         inkscape:connector-curvature="0"
         inkscape:original-d="m -3475.9155,2843.7319 57.2019,-83.1211 13.4068,16.088"
         inkscape:path-effect="#path-effect6244"
         id="path6242"
         d="m -3475.9155,2843.7319 c -1.1368,-0.7823 -1.2459,-2.9334 -0.343,-6.1586 0.9028,-3.2253 2.8188,-7.5249 5.6338,-12.5999 2.815,-5.0749 6.5291,-10.9252 10.9219,-17.2469 4.3928,-6.3218 9.4632,-13.115 14.8925,-20.0713 4.9385,-6.3273 9.7401,-12.2469 14.1341,-17.5742 4.3941,-5.3272 8.3799,-10.0621 11.753,-14.0232 2.9857,2.6983 5.5281,5.2146 7.5876,7.5031 2.0595,2.2886 3.6361,4.3493 4.7353,6.1345 2.1984,3.5704 2.4495,6.0401 1.2935,7.0034 -1.156,0.9633 -3.5017,0.3168 -5.9535,-1.6929 -1.2258,-1.0049 -2.4876,-2.3501 -3.7119,-4.002 -1.2242,-1.652 -2.4109,-3.6106 -3.5318,-5.8401 -2.6938,4.8549 -5.7053,10.2878 -8.9593,16.0741 -3.254,5.7863 -6.7515,11.9261 -10.4834,18.1979 -4.1029,6.8952 -8.1158,13.301 -11.9859,18.9864 -3.8702,5.6853 -7.5988,10.6502 -11.035,14.659 -3.4362,4.0087 -6.5799,7.0615 -9.1739,8.9175 -2.594,1.8561 -4.6372,2.5155 -5.774,1.7332 z"
         style="fill:#000000;fill-rule:evenodd;stroke:none" />
      <path
         inkscape:connector-curvature="0"
         inkscape:original-d="m -3626.9632,2833.0066 c 0,0 6.2564,-14.3004 14.3003,-14.3004 8.0439,0 17.8753,12.5129 17.8753,12.5129"
         inkscape:path-effect="#path-effect6252"
         id="path6250"
         d="m -3626.9632,2833.0066 c -0.053,-0.024 -0.1041,-0.051 -0.1532,-0.083 0,0 0,0 0,0 -0.046,-0.029 -0.09,-0.062 -0.1319,-0.098 -0.084,-0.072 -0.1606,-0.1566 -0.2302,-0.2542 0,0 0,0 0,0 0,0 0,0 0,0 -0.1369,-0.1931 -0.2449,-0.4376 -0.3238,-0.7274 0,0 0,0 0,0 0,0 0,0 0,0 -0.1525,-0.5605 -0.1925,-1.2989 -0.1084,-2.1789 0,0 0,0 0,0 0.1522,-1.6085 0.7212,-3.7261 1.9035,-6.1121 0,0 0,0 0,0 0.9651,-1.9909 2.4383,-4.2493 4.7995,-6.3646 0,0 0,0 0,0 1.8786,-1.7943 4.76,-3.2881 8.5448,-3.4804 0.3303,0.011 0.6567,0.031 0.9787,0.06 3.1998,0.2871 5.7376,1.4123 7.5873,2.7109 2.7041,1.7813 4.6949,3.7878 6.1593,5.6248 3.0968,4.5946 4.3721,8.0318 3.1618,9.105 0,0 0,0 0,0 0,0 0,0 0,0 0,0 0,0 0,0 0,0 0,0 0,0 0,0 0,0 0,0 0,0 0,0 0,0 0,0 0,0 0,0 -0.012,0.01 -0.012,0.01 -0.012,0.01 0,0 0,0 -0.012,0.01 0,0 0,0 0,0 0,0 0,0 0,0 0,0 0,0 0,0 0,0 0,0 0,0 0,0 0,0 0,0 0,0 0,0 0,0 0,0 0,0 0,0 -1.24,1.0417 -4.6155,-0.4339 -8.7023,-3.4275 -1.6963,-1.0161 -3.49,-2.1311 -5.367,-2.9655 -1.4268,-0.5723 -2.6584,-1.1357 -3.5398,-1.1466 -0.089,-0 -0.1734,0 -0.2543,0.015 -0.5069,-0.1923 -1.5069,0.3789 -2.7001,0.9799 0,0 0,0 0,0 -1.5131,0.9057 -2.9194,2.221 -4.2724,3.4526 0,0 0,0 0,0 -1.5937,1.4731 -2.9739,2.8076 -4.16,3.7165 0,0 0,0 0,0 -0.6478,0.4966 -1.2315,0.8616 -1.7512,1.0693 0,0 0,0 0,0 0,0 0,0 0,0 -0.2688,0.1074 -0.5194,0.1705 -0.7522,0.1877 0,0 0,0 0,0 0,0 0,0 0,0 -0.1183,0.01 -0.2318,0.01 -0.3404,-0.01 -0.055,-0.01 -0.1082,-0.02 -0.1604,-0.034 0,0 0,0 0,0 -0.056,-0.016 -0.1105,-0.035 -0.1636,-0.059 z"
         style="fill:#000000;fill-rule:evenodd;stroke:none" />
      <path
         inkscape:connector-curvature="0"
         inkscape:original-d="m -3746.0895,2845.2467 -57.2019,-83.1211 -13.4068,16.088"
         inkscape:path-effect="#path-effect6244-3"
         id="path6242-3"
         d="m -3746.0895,2845.2467 c -1.1368,0.7823 -3.18,0.1229 -5.774,-1.7332 -2.594,-1.856 -5.7377,-4.9088 -9.1739,-8.9175 -3.4362,-4.0088 -7.1648,-8.9737 -11.035,-14.659 -3.8701,-5.6854 -7.883,-12.0912 -11.9859,-18.9864 -3.7319,-6.2718 -7.2294,-12.4116 -10.4834,-18.1979 -3.254,-5.7863 -6.2655,-11.2192 -8.9593,-16.0741 -1.1209,2.2295 -2.3076,4.1881 -3.5318,5.8401 -1.2243,1.6519 -2.4861,2.9971 -3.7119,4.002 -2.4518,2.0097 -4.7975,2.6562 -5.9535,1.6929 -1.156,-0.9633 -0.9049,-3.433 1.2935,-7.0034 1.0992,-1.7852 2.6758,-3.8459 4.7353,-6.1345 2.0595,-2.2885 4.6019,-4.8048 7.5876,-7.5031 3.3731,3.9611 7.3589,8.696 11.753,14.0232 4.394,5.3273 9.1956,11.2469 14.1341,17.5742 5.4293,6.9563 10.4997,13.7495 14.8925,20.0713 4.3928,6.3217 8.1069,12.172 10.9219,17.2469 2.815,5.075 4.731,9.3746 5.6338,12.5999 0.9029,3.2252 0.7938,5.3763 -0.343,6.1586 z"
         style="fill:#000000;fill-rule:evenodd;stroke:none;display:inline" />
    </g>
  </g>
</svg>
