<?xml version="1.0" encoding="UTF-8" standalone="no"?>
<!-- Created with Inkscape (http://www.inkscape.org/) -->

<svg
   xmlns:dc="http://purl.org/dc/elements/1.1/"
   xmlns:cc="http://creativecommons.org/ns#"
   xmlns:rdf="http://www.w3.org/1999/02/22-rdf-syntax-ns#"
   xmlns:svg="http://www.w3.org/2000/svg"
   xmlns="http://www.w3.org/2000/svg"
   xmlns:sodipodi="http://sodipodi.sourceforge.net/DTD/sodipodi-0.dtd"
   xmlns:inkscape="http://www.inkscape.org/namespaces/inkscape"
   width="68.063362"
   height="91.087318"
   id="svg10006"
   version="1.1"
   inkscape:version="0.48.3.1 r9886"
   sodipodi:docname="neutro.svg">
  <defs
     id="defs10008">
    <inkscape:path-effect
       effect="skeletal"
       id="path-effect8271"
       is_visible="true"
       pattern="m 236.12243,418.00722 c 0,-2.76 2.24,-5 5,-5 2.76,0 5,2.24 5,5 0,2.76 -2.24,5 -5,5 -2.76,0 -5,-2.24 -5,-5 z"
       copytype="single_stretched"
       prop_scale="1"
       scale_y_rel="false"
       spacing="0"
       normal_offset="0"
       tang_offset="0"
       prop_units="false"
       vertical_pattern="false"
       fuse_tolerance="0" />
    <inkscape:path-effect
       effect="skeletal"
       id="path-effect8263"
       is_visible="true"
       pattern="M 0,5 C 0,2.24 2.24,0 5,0 7.76,0 10,2.24 10,5 10,7.76 7.76,10 5,10 2.24,10 0,7.76 0,5 z"
       copytype="single_stretched"
       prop_scale="1"
       scale_y_rel="false"
       spacing="0"
       normal_offset="0"
       tang_offset="0"
       prop_units="false"
       vertical_pattern="false"
       fuse_tolerance="0" />
    <inkscape:path-effect
       effect="skeletal"
       id="path-effect8267"
       is_visible="true"
       pattern="m 225.01075,425.07829 c 0,-2.76 2.24,-5 5,-5 2.76,0 5,2.24 5,5 0,2.76 -2.24,5 -5,5 -2.76,0 -5,-2.24 -5,-5 z"
       copytype="single_stretched"
       prop_scale="1"
       scale_y_rel="false"
       spacing="0"
       normal_offset="0"
       tang_offset="0"
       prop_units="false"
       vertical_pattern="false"
       fuse_tolerance="0" />
    <inkscape:path-effect
       effect="skeletal"
       id="path-effect8275"
       is_visible="true"
       pattern="M 0,5 C 0,2.24 2.24,0 5,0 7.76,0 10,2.24 10,5 10,7.76 7.76,10 5,10 2.24,10 0,7.76 0,5 z"
       copytype="single_stretched"
       prop_scale="1"
       scale_y_rel="false"
       spacing="0"
       normal_offset="0"
       tang_offset="0"
       prop_units="false"
       vertical_pattern="false"
       fuse_tolerance="0" />
    <inkscape:path-effect
       effect="skeletal"
       id="path-effect8934-4"
       is_visible="true"
       pattern="m 523.0306,976.42002 c 0,-2.76 2.24,-5 5,-5 2.76,0 5,2.24 5,5 0,2.76 -2.24,5 -5,5 -2.76,0 -5,-2.24 -5,-5 z"
       copytype="single_stretched"
       prop_scale="0.2"
       scale_y_rel="false"
       spacing="0"
       normal_offset="0"
       tang_offset="0"
       prop_units="false"
       vertical_pattern="false"
       fuse_tolerance="0" />
    <inkscape:path-effect
       effect="skeletal"
       id="path-effect8938-2"
       is_visible="true"
       pattern="m 524.79836,990.81469 c 0,-2.76 2.24,-5 5,-5 2.76,0 5,2.24 5,5 0,2.76 -2.24,5 -5,5 -2.76,0 -5,-2.24 -5,-5 z"
       copytype="single_stretched"
       prop_scale="0.3"
       scale_y_rel="false"
       spacing="0"
       normal_offset="0"
       tang_offset="0"
       prop_units="false"
       vertical_pattern="false"
       fuse_tolerance="0" />
    <inkscape:path-effect
       effect="skeletal"
       id="path-effect8942-85"
       is_visible="true"
       pattern="m 526.56613,985.76393 c 0,-2.76 2.24,-5 5,-5 2.76,0 5,2.24 5,5 0,2.76 -2.24,5 -5,5 -2.76,0 -5,-2.24 -5,-5 z"
       copytype="single_stretched"
       prop_scale="0.3"
       scale_y_rel="false"
       spacing="0"
       normal_offset="0"
       tang_offset="0"
       prop_units="false"
       vertical_pattern="false"
       fuse_tolerance="0" />
    <inkscape:path-effect
       effect="skeletal"
       id="path-effect8942-2-0"
       is_visible="true"
       pattern="m 522.52885,900.76662 c 0,-2.76 2.24,-5 5,-5 2.76,0 5,2.24 5,5 0,2.76 -2.24,5 -5,5 -2.76,0 -5,-2.24 -5,-5 z"
       copytype="single_stretched"
       prop_scale="0.3"
       scale_y_rel="false"
       spacing="0"
       normal_offset="0"
       tang_offset="0"
       prop_units="false"
       vertical_pattern="false"
       fuse_tolerance="0" />
    <inkscape:path-effect
       effect="skeletal"
       id="path-effect8934-4-6"
       is_visible="true"
       pattern="m 523.0306,976.42002 c 0,-2.76 2.24,-5 5,-5 2.76,0 5,2.24 5,5 0,2.76 -2.24,5 -5,5 -2.76,0 -5,-2.24 -5,-5 z"
       copytype="single_stretched"
       prop_scale="0.2"
       scale_y_rel="false"
       spacing="0"
       normal_offset="0"
       tang_offset="0"
       prop_units="false"
       vertical_pattern="false"
       fuse_tolerance="0" />
    <inkscape:path-effect
       effect="skeletal"
       id="path-effect8938-2-8"
       is_visible="true"
       pattern="m 524.79836,990.81469 c 0,-2.76 2.24,-5 5,-5 2.76,0 5,2.24 5,5 0,2.76 -2.24,5 -5,5 -2.76,0 -5,-2.24 -5,-5 z"
       copytype="single_stretched"
       prop_scale="0.3"
       scale_y_rel="false"
       spacing="0"
       normal_offset="0"
       tang_offset="0"
       prop_units="false"
       vertical_pattern="false"
       fuse_tolerance="0" />
    <inkscape:path-effect
       effect="skeletal"
       id="path-effect8942-85-2"
       is_visible="true"
       pattern="m 526.56613,985.76393 c 0,-2.76 2.24,-5 5,-5 2.76,0 5,2.24 5,5 0,2.76 -2.24,5 -5,5 -2.76,0 -5,-2.24 -5,-5 z"
       copytype="single_stretched"
       prop_scale="0.3"
       scale_y_rel="false"
       spacing="0"
       normal_offset="0"
       tang_offset="0"
       prop_units="false"
       vertical_pattern="false"
       fuse_tolerance="0" />
    <inkscape:path-effect
       effect="skeletal"
       id="path-effect8942-2-0-9"
       is_visible="true"
       pattern="m 522.52885,900.76662 c 0,-2.76 2.24,-5 5,-5 2.76,0 5,2.24 5,5 0,2.76 -2.24,5 -5,5 -2.76,0 -5,-2.24 -5,-5 z"
       copytype="single_stretched"
       prop_scale="0.3"
       scale_y_rel="false"
       spacing="0"
       normal_offset="0"
       tang_offset="0"
       prop_units="false"
       vertical_pattern="false"
       fuse_tolerance="0" />
    <inkscape:path-effect
       effect="skeletal"
       id="path-effect8934"
       is_visible="true"
       pattern="m 231.32421,416.23945 c 0,-2.76 2.24,-5 5,-5 2.76,0 5,2.24 5,5 0,2.76 -2.24,5 -5,5 -2.76,0 -5,-2.24 -5,-5 z"
       copytype="single_stretched"
       prop_scale="0.2"
       scale_y_rel="false"
       spacing="0"
       normal_offset="0"
       tang_offset="0"
       prop_units="false"
       vertical_pattern="false"
       fuse_tolerance="0" />
    <inkscape:path-effect
       effect="skeletal"
       id="path-effect8938"
       is_visible="true"
       pattern="m 233.09197,430.63412 c 0,-2.76 2.24,-5 5,-5 2.76,0 5,2.24 5,5 0,2.76 -2.24,5 -5,5 -2.76,0 -5,-2.24 -5,-5 z"
       copytype="single_stretched"
       prop_scale="0.3"
       scale_y_rel="false"
       spacing="0"
       normal_offset="0"
       tang_offset="0"
       prop_units="false"
       vertical_pattern="false"
       fuse_tolerance="0" />
    <inkscape:path-effect
       effect="skeletal"
       id="path-effect8942"
       is_visible="true"
       pattern="m 234.85974,425.58336 c 0,-2.76 2.24,-5 5,-5 2.76,0 5,2.24 5,5 0,2.76 -2.24,5 -5,5 -2.76,0 -5,-2.24 -5,-5 z"
       copytype="single_stretched"
       prop_scale="0.3"
       scale_y_rel="false"
       spacing="0"
       normal_offset="0"
       tang_offset="0"
       prop_units="false"
       vertical_pattern="false"
       fuse_tolerance="0" />
    <inkscape:path-effect
       effect="skeletal"
       id="path-effect8942-2"
       is_visible="true"
       pattern="m 230.82246,340.58605 c 0,-2.76 2.24,-5 5,-5 2.76,0 5,2.24 5,5 0,2.76 -2.24,5 -5,5 -2.76,0 -5,-2.24 -5,-5 z"
       copytype="single_stretched"
       prop_scale="0.3"
       scale_y_rel="false"
       spacing="0"
       normal_offset="0"
       tang_offset="0"
       prop_units="false"
       vertical_pattern="false"
       fuse_tolerance="0" />
    <inkscape:path-effect
       effect="skeletal"
       id="path-effect8934-9"
       is_visible="true"
       pattern="m 231.32421,416.23945 c 0,-2.76 2.24,-5 5,-5 2.76,0 5,2.24 5,5 0,2.76 -2.24,5 -5,5 -2.76,0 -5,-2.24 -5,-5 z"
       copytype="single_stretched"
       prop_scale="0.2"
       scale_y_rel="false"
       spacing="0"
       normal_offset="0"
       tang_offset="0"
       prop_units="false"
       vertical_pattern="false"
       fuse_tolerance="0" />
    <inkscape:path-effect
       effect="skeletal"
       id="path-effect8938-6"
       is_visible="true"
       pattern="m 233.09197,430.63412 c 0,-2.76 2.24,-5 5,-5 2.76,0 5,2.24 5,5 0,2.76 -2.24,5 -5,5 -2.76,0 -5,-2.24 -5,-5 z"
       copytype="single_stretched"
       prop_scale="0.3"
       scale_y_rel="false"
       spacing="0"
       normal_offset="0"
       tang_offset="0"
       prop_units="false"
       vertical_pattern="false"
       fuse_tolerance="0" />
    <inkscape:path-effect
       effect="skeletal"
       id="path-effect8942-8"
       is_visible="true"
       pattern="m 234.85974,425.58336 c 0,-2.76 2.24,-5 5,-5 2.76,0 5,2.24 5,5 0,2.76 -2.24,5 -5,5 -2.76,0 -5,-2.24 -5,-5 z"
       copytype="single_stretched"
       prop_scale="0.3"
       scale_y_rel="false"
       spacing="0"
       normal_offset="0"
       tang_offset="0"
       prop_units="false"
       vertical_pattern="false"
       fuse_tolerance="0" />
    <inkscape:path-effect
       effect="skeletal"
       id="path-effect8942-2-6"
       is_visible="true"
       pattern="m 230.82246,340.58605 c 0,-2.76 2.24,-5 5,-5 2.76,0 5,2.24 5,5 0,2.76 -2.24,5 -5,5 -2.76,0 -5,-2.24 -5,-5 z"
       copytype="single_stretched"
       prop_scale="0.3"
       scale_y_rel="false"
       spacing="0"
       normal_offset="0"
       tang_offset="0"
       prop_units="false"
       vertical_pattern="false"
       fuse_tolerance="0" />
    <inkscape:path-effect
       effect="skeletal"
       id="path-effect9110"
       is_visible="true"
       pattern="M 0,5 C 0,2.24 2.24,0 5,0 7.76,0 10,2.24 10,5 10,7.76 7.76,10 5,10 2.24,10 0,7.76 0,5 z"
       copytype="single_stretched"
       prop_scale="0.3"
       scale_y_rel="false"
       spacing="0"
       normal_offset="0"
       tang_offset="0"
       prop_units="false"
       vertical_pattern="false"
       fuse_tolerance="0" />
    <inkscape:path-effect
       effect="skeletal"
       id="path-effect9110-4"
       is_visible="true"
       pattern="m -4.0944522,31.16552 c 0,-2.76 2.24,-5 5.00000001,-5 2.75999999,0 4.99999999,2.24 4.99999999,5 0,2.76 -2.24,5 -4.99999999,5 -2.76000001,0 -5.00000001,-2.24 -5.00000001,-5 z"
       copytype="single_stretched"
       prop_scale="0.3"
       scale_y_rel="false"
       spacing="0"
       normal_offset="0"
       tang_offset="0"
       prop_units="false"
       vertical_pattern="false"
       fuse_tolerance="0" />
  </defs>
  <sodipodi:namedview
     id="base"
     pagecolor="#8b8b8b"
     bordercolor="#666666"
     borderopacity="1.0"
     inkscape:pageopacity="0"
     inkscape:pageshadow="2"
     inkscape:zoom="3.959798"
     inkscape:cx="77.558494"
     inkscape:cy="37.325442"
     inkscape:document-units="px"
     inkscape:current-layer="layer1"
     showgrid="false"
     fit-margin-top="0"
     fit-margin-left="0"
     fit-margin-right="0"
     fit-margin-bottom="0"
     inkscape:window-width="1914"
     inkscape:window-height="1030"
     inkscape:window-x="0"
     inkscape:window-y="25"
     inkscape:window-maximized="1" />
  <metadata
     id="metadata10011">
    <rdf:RDF>
      <cc:Work
         rdf:about="">
        <dc:format>image/svg+xml</dc:format>
        <dc:type
           rdf:resource="http://purl.org/dc/dcmitype/StillImage" />
        <dc:title></dc:title>
      </cc:Work>
    </rdf:RDF>
  </metadata>
  <g
     inkscape:label="Capa 1"
     inkscape:groupmode="layer"
     id="layer1"
     transform="translate(-282.13139,-312.89247)">
    <g
       id="g3081">
      <path
         style="fill:#ffffff;fill-opacity:1;stroke:none"
         d="m 282.63647,364.88377 c -1.99966,15.51775 14.73142,33.83629 33.5266,33.83629 18.79518,0 33.69376,-15.05335 33.5266,-33.58375 -0.0326,-3.62017 -16.45586,3.58141 -35.25104,3.58141 -18.79518,0 -26.08787,-0.29375 -31.80216,-3.83395 z"
         id="path8906-86-6"
         inkscape:connector-curvature="0"
         sodipodi:nodetypes="csssc" />
      <path
         inkscape:connector-curvature="0"
         style="fill:#000000;fill-rule:evenodd;stroke:none"
         d="m 348.09607,345.25186 c 0.0887,-0.0397 -0.0718,-0.63096 -0.45465,-1.7044 -0.38281,-1.07343 -0.98313,-2.63373 -1.82873,-4.58358 -0.8456,-1.94986 -1.93245,-4.29404 -3.41271,-6.83237 -1.48026,-2.53834 -3.35354,-5.27265 -5.93128,-7.8485 -1.97076,-1.9594 -4.44231,-3.70114 -7.35868,-4.79689 -2.88602,-1.07192 -6.07853,-1.49998 -9.29822,-1.49692 -0.77092,2.8e-4 -1.54495,0.0332 -2.31986,0.0982 -4.74363,0.39787 -9.15818,1.96537 -12.89735,4.04483 -4.73844,2.63355 -8.4787,5.95759 -11.40272,9.05479 0,0 0,0 0,0 -3.27194,3.46243 -5.5585,6.68197 -7.05586,9.05034 0,0 0,0 0,0 -0.80063,1.26616 -1.37419,2.29741 -1.73527,3.02599 0,0 0,0 0,0 -0.18553,0.37434 -0.31516,0.66956 -0.39002,0.87696 0,0 0,0 0,0 0,0 0,0 0,0 -0.038,0.10524 -0.062,0.18796 -0.0721,0.24709 0,0 0,0 0,0 0,0 0,0 0,0 0.013,0.0398 0.0164,0.0662 0.0164,0.0829 0,0 0,0 0,0 0,0.0164 -0.003,0.0233 -0.004,0.024 0,0 0,0 0,0 0,0 0,0 0,0 0,0 0,0 0,0 0,0 0,0 0,0 0,0 0,0 0,0 0,0 0,0 0,0 0,0 0,0 0,0 0,0 0,0 0,0 0,0 0,0 0,0 0,0 0,0 0,0 -1e-5,3e-5 -1e-5,2e-5 -1e-5,2e-5 0,0 0,10e-6 1e-5,-2e-5 0,0 0,0 0,0 0,0 0,0 0,0 0,0 0,0 0,0 0,0 0,0 0,0 0,0 0,0 0,0 0,0 0,0 0,0 0,0 0,0 0,0 0,0 0,0 0,0 0,0 0,0 0,0 0,0 0,0 0,0 3.7e-4,-6.3e-4 0.004,-0.007 0.0185,-0.0157 0,0 0,0 0,0 0.0142,-0.009 0.0386,-0.0195 0.0796,-0.029 0,0 0,0 0,0 0,0 0,0 0,0 0.0455,-0.0386 0.10421,-0.10022 0.17632,-0.18394 0,0 0,0 0,0 0,0 0,0 0,0 0.14272,-0.16589 0.33768,-0.41812 0.58625,-0.74922 0,0 0,0 0,0 0.48377,-0.64441 1.16891,-1.58598 2.06832,-2.76064 0,0 0,0 0,0 1.68249,-2.19709 4.10189,-5.22506 7.41929,-8.48253 0,0 0,0 0,0 2.96687,-2.91041 6.65661,-6.03183 11.20826,-8.46714 3.57792,-1.9129 7.73804,-3.36308 12.15013,-3.72978 0.72074,-0.0599 1.4393,-0.09 2.15376,-0.0897 3.05876,0.003 6.01632,0.36277 8.63198,1.31256 2.63229,0.94321 4.91758,2.49852 6.78346,4.26292 2.50332,2.35577 4.38013,4.92587 5.9161,7.33546 1.53597,2.40959 2.72963,4.65935 3.70647,6.52611 0.97685,1.86675 1.73235,3.35476 2.27863,4.35378 0.54627,0.99901 0.87893,1.5141 0.96763,1.47442 z"
         id="path8932-1-4" />
      <path
         inkscape:connector-curvature="0"
         style="fill:#000000;fill-rule:evenodd;stroke:none"
         d="m 343.8029,382.37502 c -0.30893,-0.2231 -2.26124,1.8867 -5.19016,5.49675 0,0 0,0 0,0 -1.62747,1.47961 -3.72698,3.02623 -6.30213,4.32336 -2.57515,1.29713 -5.6272,2.34216 -8.95465,2.85845 0,0 0,0 0,0 -1.38842,0.21981 -2.81803,0.39072 -4.27709,0.50309 -5.79797,0.44652 -11.23421,-0.14042 -15.66366,-1.20256 -1.97791,-0.51086 -3.81686,-1.01359 -5.35784,-1.57203 -1.54097,-0.55845 -2.78946,-1.16978 -3.75448,-1.76043 -0.96502,-0.59064 -1.65477,-1.15465 -2.14148,-1.54792 -0.48671,-0.39328 -0.77812,-0.60857 -0.88641,-0.53277 -0.10829,0.0758 -0.0246,0.44088 0.30853,1.02001 0.33317,0.57912 0.92449,1.36628 1.85266,2.20701 0.92817,0.84073 2.20089,1.72832 3.79186,2.52742 1.59097,0.79909 3.50409,1.50457 5.51905,2.09065 2.30497,0.71061 4.89707,1.28082 7.69195,1.60379 2.79488,0.32297 5.79188,0.39778 8.87054,0.16031 1.5495,-0.11952 3.0658,-0.3132 4.53421,-0.56953 0,0 0,0 0,0 3.68979,-0.65325 7.0365,-1.95952 9.7914,-3.55959 2.7549,-1.60007 4.91968,-3.4873 6.49412,-5.26933 10e-6,0 10e-6,0 10e-6,0 2.58377,-4.02326 3.9825,-6.55357 3.67357,-6.77668 z"
         id="path8936-7-9" />
      <path
         inkscape:connector-curvature="0"
         style="fill:#000000;fill-rule:evenodd;stroke:none"
         d="m 334.45896,398.03236 c -0.17454,-0.46042 -3.20833,0.2224 -7.7188,1.64141 -3.0908,0.68257 -6.95173,1.35252 -11.08015,1.32422 -1.63537,-0.0112 -3.21159,-0.1334 -4.70114,-0.35567 -2.4746,-0.36154 -4.74704,-0.66401 -6.71596,-0.93005 -1.96892,-0.26603 -3.63578,-0.4942 -4.91096,-0.63906 0,0 0,0 0,0 -0.9361,-0.10701 -1.64149,-0.1702 -2.10998,-0.17551 0,0 0,0 0,0 0,0 0,0 0,0 -0.19107,2.9e-4 -0.33949,0.0113 -0.44886,0.0351 0,0 0,0 0,0 0,0 0,0 0,0 -0.0744,0.0624 -0.12292,0.09 -0.15293,0.10188 -0.0275,0.0109 -0.0387,0.009 -0.0415,0.008 -4.6e-4,-1.5e-4 -3.5e-4,-1e-4 -3.5e-4,-1e-4 0,0 -1.1e-4,-5e-5 3e-4,2.3e-4 0.002,0.002 0.0112,0.009 0.0215,0.0368 0.0113,0.03 0.0236,0.0833 0.0293,0.17736 0,0 0,0 0,0 0,0 0,0 0,0 0.0682,0.094 0.19266,0.20516 0.36586,0.32599 0,0 0,0 0,0 0,0 0,0 0,0 0.39821,0.2815 1.07764,0.61814 1.96906,0.96634 0,0 0,10e-6 0,10e-6 1.21804,0.47618 2.86004,1.00003 4.81918,1.50469 1.95914,0.50466 4.23475,0.98818 6.69851,1.4497 1.64687,0.30047 3.3951,0.4652 5.1951,0.47556 4.54404,0.0262 8.67945,-0.92745 11.8198,-2.02275 4.39681,-1.95767 7.13662,-3.46359 6.96207,-3.92401 z"
         id="path8940-6-8" />
      <path
         inkscape:connector-curvature="0"
         style="fill:#000000;fill-rule:evenodd;stroke:none"
         d="m 338.49624,318.83976 c 0.17455,-0.46042 -2.56526,-1.96633 -6.96207,-3.92401 -3.14035,-1.0953 -7.27576,-2.04892 -11.8198,-2.02275 -1.8,0.0104 -3.54823,0.17509 -5.1951,0.47556 -2.46376,0.46152 -4.73937,0.94504 -6.69851,1.4497 -1.95914,0.50466 -3.60114,1.02851 -4.81918,1.5047 0,0 0,0 0,0 -0.89142,0.34821 -1.57085,0.68484 -1.96906,0.96634 0,0 0,0 0,0 0,0 0,0 0,0 -0.1732,0.12083 -0.29762,0.23195 -0.36586,0.32599 0,0 0,0 0,0 0,0 0,0 0,0 -0.006,0.0941 -0.018,0.14735 -0.0293,0.17737 -0.0103,0.0275 -0.019,0.0351 -0.0215,0.0368 -4.1e-4,2.8e-4 -3e-4,2.2e-4 -3e-4,2.2e-4 0,0 -1.1e-4,6e-5 3.5e-4,-10e-5 0.003,-9.1e-4 0.014,-0.003 0.0415,0.008 0.03,0.0119 0.0785,0.0395 0.15293,0.10189 0,0 0,0 0,0 0,0 0,0 0,0 0.10937,0.0237 0.25779,0.0348 0.44886,0.0351 0,0 0,0 0,0 0,0 0,0 0,0 0.46849,-0.005 1.17388,-0.0685 2.10998,-0.17551 0,0 0,0 0,0 1.27518,-0.14486 2.94204,-0.37303 4.91096,-0.63906 1.96892,-0.26604 4.24136,-0.56851 6.71596,-0.93005 1.48955,-0.22227 3.06577,-0.34446 4.70114,-0.35567 4.12842,-0.0283 7.98935,0.64165 11.08015,1.32422 4.51047,1.41901 7.54426,2.10183 7.7188,1.64141 z"
         id="path8940-7-9-0" />
      <path
         inkscape:connector-curvature="0"
         inkscape:original-d="m 342.30564,365.78679 c 0,0 -41.42857,5 -51.42857,2.14285"
         inkscape:path-effect="#path-effect9110-4"
         id="path9108-4"
         d="m 342.29731,365.78779 c 0.003,0.025 -0.002,0.0508 -0.0144,0.0774 0,0 0,0 0,0 -0.0176,0.0265 -0.045,0.054 -0.082,0.0825 0,0 0,0 0,0 -0.0739,0.0568 -0.18612,0.11745 -0.33486,0.18149 0,0 0,0 0,0 -0.29582,0.12734 -0.73627,0.26813 -1.30707,0.41877 0,0 0,0 0,0 -1.12566,0.29707 -2.75917,0.63267 -4.79222,0.97848 0,0 0,0 0,0 -3.89308,0.66222 -9.25511,1.36638 -15.32549,1.88445 -1.21584,0.10388 -2.46075,0.20121 -3.72853,0.28857 -4.95534,0.34144 -9.61273,0.46949 -13.5714,0.37931 0,0 0,0 0,0 -2.8049,-0.0635 -5.27671,-0.24456 -7.2445,-0.52489 -1.61297,-0.22619 -2.92777,-0.52391 -3.78822,-0.84129 -0.86046,-0.31739 -1.27778,-0.62099 -1.23153,-0.78286 0.0462,-0.16187 0.54188,-0.17254 1.41082,-0.16162 0.86894,0.0109 2.11909,0.009 3.72625,-0.006 1.93046,-0.0251 4.33129,-0.1061 7.09492,-0.2398 0,0 0,0 10e-6,0 3.89736,-0.18929 8.48015,-0.47697 13.39742,-0.81573 1.25804,-0.0867 2.49582,-0.17272 3.70715,-0.25548 6.04035,-0.41314 11.40905,-0.76793 15.3429,-0.92713 0,0 0,0 0,0 2.05416,-0.0831 3.71606,-0.11396 4.87709,-0.0771 0,0 0,0 0,0 0.58876,0.0187 1.04849,0.0548 1.36518,0.11025 0,0 0,0 0,0 0.15931,0.0279 0.28237,0.0606 0.3674,0.0985 0,0 0,0 0,0 0.0426,0.019 0.0757,0.0393 0.099,0.0609 0,0 0,0 0,0 0.0184,0.0229 0.0292,0.0468 0.0321,0.0718 z"
         style="fill:#000000;fill-rule:evenodd;stroke:none" />
      <path
         inkscape:connector-curvature="0"
         id="path8906-8-5-0-8"
         d="m 307.1669,368.96608 c -0.0399,0.3701 -0.0937,0.7421 -0.0937,1.125 0,4.89731 3.38019,8.875 7.53125,8.875 4.15106,0 7.5,-3.97769 7.5,-8.875 0,-0.16904 -0.0233,-0.3333 -0.0313,-0.5 -4.46285,-0.0662 -10.55537,-0.23934 -14.90625,-0.625 z"
         style="fill:#000000;fill-opacity:1;stroke:none" />
    </g>
  </g>
</svg>
