<?xml version="1.0" encoding="UTF-8" standalone="no"?>
<!-- Created with Inkscape (http://www.inkscape.org/) -->

<svg
   xmlns:dc="http://purl.org/dc/elements/1.1/"
   xmlns:cc="http://creativecommons.org/ns#"
   xmlns:rdf="http://www.w3.org/1999/02/22-rdf-syntax-ns#"
   xmlns:svg="http://www.w3.org/2000/svg"
   xmlns="http://www.w3.org/2000/svg"
   xmlns:sodipodi="http://sodipodi.sourceforge.net/DTD/sodipodi-0.dtd"
   xmlns:inkscape="http://www.inkscape.org/namespaces/inkscape"
   width="72.641312"
   height="91.095413"
   id="svg10006"
   version="1.1"
   inkscape:version="0.48.3.1 r9886"
   sodipodi:docname="lagrimita.svg">
  <defs
     id="defs10008">
    <inkscape:path-effect
       effect="skeletal"
       id="path-effect4192"
       is_visible="true"
       pattern="M 0,5 C 0,2.24 2.24,0 5,0 7.76,0 10,2.24 10,5 10,7.76 7.76,10 5,10 2.24,10 0,7.76 0,5 z"
       copytype="single_stretched"
       prop_scale="0.4"
       scale_y_rel="false"
       spacing="0"
       normal_offset="0"
       tang_offset="0"
       prop_units="false"
       vertical_pattern="false"
       fuse_tolerance="0" />
    <inkscape:path-effect
       effect="skeletal"
       id="path-effect8271"
       is_visible="true"
       pattern="m 236.12243,418.00722 c 0,-2.76 2.24,-5 5,-5 2.76,0 5,2.24 5,5 0,2.76 -2.24,5 -5,5 -2.76,0 -5,-2.24 -5,-5 z"
       copytype="single_stretched"
       prop_scale="1"
       scale_y_rel="false"
       spacing="0"
       normal_offset="0"
       tang_offset="0"
       prop_units="false"
       vertical_pattern="false"
       fuse_tolerance="0" />
    <inkscape:path-effect
       effect="skeletal"
       id="path-effect8263"
       is_visible="true"
       pattern="M 0,5 C 0,2.24 2.24,0 5,0 7.76,0 10,2.24 10,5 10,7.76 7.76,10 5,10 2.24,10 0,7.76 0,5 z"
       copytype="single_stretched"
       prop_scale="1"
       scale_y_rel="false"
       spacing="0"
       normal_offset="0"
       tang_offset="0"
       prop_units="false"
       vertical_pattern="false"
       fuse_tolerance="0" />
    <inkscape:path-effect
       effect="skeletal"
       id="path-effect8267"
       is_visible="true"
       pattern="m 225.01075,425.07829 c 0,-2.76 2.24,-5 5,-5 2.76,0 5,2.24 5,5 0,2.76 -2.24,5 -5,5 -2.76,0 -5,-2.24 -5,-5 z"
       copytype="single_stretched"
       prop_scale="1"
       scale_y_rel="false"
       spacing="0"
       normal_offset="0"
       tang_offset="0"
       prop_units="false"
       vertical_pattern="false"
       fuse_tolerance="0" />
    <inkscape:path-effect
       effect="skeletal"
       id="path-effect8275"
       is_visible="true"
       pattern="M 0,5 C 0,2.24 2.24,0 5,0 7.76,0 10,2.24 10,5 10,7.76 7.76,10 5,10 2.24,10 0,7.76 0,5 z"
       copytype="single_stretched"
       prop_scale="1"
       scale_y_rel="false"
       spacing="0"
       normal_offset="0"
       tang_offset="0"
       prop_units="false"
       vertical_pattern="false"
       fuse_tolerance="0" />
    <inkscape:path-effect
       effect="skeletal"
       id="path-effect8934-4"
       is_visible="true"
       pattern="m 523.0306,976.42002 c 0,-2.76 2.24,-5 5,-5 2.76,0 5,2.24 5,5 0,2.76 -2.24,5 -5,5 -2.76,0 -5,-2.24 -5,-5 z"
       copytype="single_stretched"
       prop_scale="0.2"
       scale_y_rel="false"
       spacing="0"
       normal_offset="0"
       tang_offset="0"
       prop_units="false"
       vertical_pattern="false"
       fuse_tolerance="0" />
    <inkscape:path-effect
       effect="skeletal"
       id="path-effect8938-2"
       is_visible="true"
       pattern="m 524.79836,990.81469 c 0,-2.76 2.24,-5 5,-5 2.76,0 5,2.24 5,5 0,2.76 -2.24,5 -5,5 -2.76,0 -5,-2.24 -5,-5 z"
       copytype="single_stretched"
       prop_scale="0.3"
       scale_y_rel="false"
       spacing="0"
       normal_offset="0"
       tang_offset="0"
       prop_units="false"
       vertical_pattern="false"
       fuse_tolerance="0" />
    <inkscape:path-effect
       effect="skeletal"
       id="path-effect8942-85"
       is_visible="true"
       pattern="m 526.56613,985.76393 c 0,-2.76 2.24,-5 5,-5 2.76,0 5,2.24 5,5 0,2.76 -2.24,5 -5,5 -2.76,0 -5,-2.24 -5,-5 z"
       copytype="single_stretched"
       prop_scale="0.3"
       scale_y_rel="false"
       spacing="0"
       normal_offset="0"
       tang_offset="0"
       prop_units="false"
       vertical_pattern="false"
       fuse_tolerance="0" />
    <inkscape:path-effect
       effect="skeletal"
       id="path-effect8942-2-0"
       is_visible="true"
       pattern="m 522.52885,900.76662 c 0,-2.76 2.24,-5 5,-5 2.76,0 5,2.24 5,5 0,2.76 -2.24,5 -5,5 -2.76,0 -5,-2.24 -5,-5 z"
       copytype="single_stretched"
       prop_scale="0.3"
       scale_y_rel="false"
       spacing="0"
       normal_offset="0"
       tang_offset="0"
       prop_units="false"
       vertical_pattern="false"
       fuse_tolerance="0" />
    <inkscape:path-effect
       effect="skeletal"
       id="path-effect8934-4-6"
       is_visible="true"
       pattern="m 523.0306,976.42002 c 0,-2.76 2.24,-5 5,-5 2.76,0 5,2.24 5,5 0,2.76 -2.24,5 -5,5 -2.76,0 -5,-2.24 -5,-5 z"
       copytype="single_stretched"
       prop_scale="0.2"
       scale_y_rel="false"
       spacing="0"
       normal_offset="0"
       tang_offset="0"
       prop_units="false"
       vertical_pattern="false"
       fuse_tolerance="0" />
    <inkscape:path-effect
       effect="skeletal"
       id="path-effect8938-2-8"
       is_visible="true"
       pattern="m 524.79836,990.81469 c 0,-2.76 2.24,-5 5,-5 2.76,0 5,2.24 5,5 0,2.76 -2.24,5 -5,5 -2.76,0 -5,-2.24 -5,-5 z"
       copytype="single_stretched"
       prop_scale="0.3"
       scale_y_rel="false"
       spacing="0"
       normal_offset="0"
       tang_offset="0"
       prop_units="false"
       vertical_pattern="false"
       fuse_tolerance="0" />
    <inkscape:path-effect
       effect="skeletal"
       id="path-effect8942-85-2"
       is_visible="true"
       pattern="m 526.56613,985.76393 c 0,-2.76 2.24,-5 5,-5 2.76,0 5,2.24 5,5 0,2.76 -2.24,5 -5,5 -2.76,0 -5,-2.24 -5,-5 z"
       copytype="single_stretched"
       prop_scale="0.3"
       scale_y_rel="false"
       spacing="0"
       normal_offset="0"
       tang_offset="0"
       prop_units="false"
       vertical_pattern="false"
       fuse_tolerance="0" />
    <inkscape:path-effect
       effect="skeletal"
       id="path-effect8942-2-0-9"
       is_visible="true"
       pattern="m 522.52885,900.76662 c 0,-2.76 2.24,-5 5,-5 2.76,0 5,2.24 5,5 0,2.76 -2.24,5 -5,5 -2.76,0 -5,-2.24 -5,-5 z"
       copytype="single_stretched"
       prop_scale="0.3"
       scale_y_rel="false"
       spacing="0"
       normal_offset="0"
       tang_offset="0"
       prop_units="false"
       vertical_pattern="false"
       fuse_tolerance="0" />
    <inkscape:path-effect
       effect="skeletal"
       id="path-effect8934"
       is_visible="true"
       pattern="m 231.32421,416.23945 c 0,-2.76 2.24,-5 5,-5 2.76,0 5,2.24 5,5 0,2.76 -2.24,5 -5,5 -2.76,0 -5,-2.24 -5,-5 z"
       copytype="single_stretched"
       prop_scale="0.2"
       scale_y_rel="false"
       spacing="0"
       normal_offset="0"
       tang_offset="0"
       prop_units="false"
       vertical_pattern="false"
       fuse_tolerance="0" />
    <inkscape:path-effect
       effect="skeletal"
       id="path-effect8938"
       is_visible="true"
       pattern="m 233.09197,430.63412 c 0,-2.76 2.24,-5 5,-5 2.76,0 5,2.24 5,5 0,2.76 -2.24,5 -5,5 -2.76,0 -5,-2.24 -5,-5 z"
       copytype="single_stretched"
       prop_scale="0.3"
       scale_y_rel="false"
       spacing="0"
       normal_offset="0"
       tang_offset="0"
       prop_units="false"
       vertical_pattern="false"
       fuse_tolerance="0" />
    <inkscape:path-effect
       effect="skeletal"
       id="path-effect8942"
       is_visible="true"
       pattern="m 234.85974,425.58336 c 0,-2.76 2.24,-5 5,-5 2.76,0 5,2.24 5,5 0,2.76 -2.24,5 -5,5 -2.76,0 -5,-2.24 -5,-5 z"
       copytype="single_stretched"
       prop_scale="0.3"
       scale_y_rel="false"
       spacing="0"
       normal_offset="0"
       tang_offset="0"
       prop_units="false"
       vertical_pattern="false"
       fuse_tolerance="0" />
    <inkscape:path-effect
       effect="skeletal"
       id="path-effect8942-2"
       is_visible="true"
       pattern="m 230.82246,340.58605 c 0,-2.76 2.24,-5 5,-5 2.76,0 5,2.24 5,5 0,2.76 -2.24,5 -5,5 -2.76,0 -5,-2.24 -5,-5 z"
       copytype="single_stretched"
       prop_scale="0.3"
       scale_y_rel="false"
       spacing="0"
       normal_offset="0"
       tang_offset="0"
       prop_units="false"
       vertical_pattern="false"
       fuse_tolerance="0" />
    <inkscape:path-effect
       effect="skeletal"
       id="path-effect8934-9"
       is_visible="true"
       pattern="m 231.32421,416.23945 c 0,-2.76 2.24,-5 5,-5 2.76,0 5,2.24 5,5 0,2.76 -2.24,5 -5,5 -2.76,0 -5,-2.24 -5,-5 z"
       copytype="single_stretched"
       prop_scale="0.2"
       scale_y_rel="false"
       spacing="0"
       normal_offset="0"
       tang_offset="0"
       prop_units="false"
       vertical_pattern="false"
       fuse_tolerance="0" />
    <inkscape:path-effect
       effect="skeletal"
       id="path-effect8938-6"
       is_visible="true"
       pattern="m 233.09197,430.63412 c 0,-2.76 2.24,-5 5,-5 2.76,0 5,2.24 5,5 0,2.76 -2.24,5 -5,5 -2.76,0 -5,-2.24 -5,-5 z"
       copytype="single_stretched"
       prop_scale="0.3"
       scale_y_rel="false"
       spacing="0"
       normal_offset="0"
       tang_offset="0"
       prop_units="false"
       vertical_pattern="false"
       fuse_tolerance="0" />
    <inkscape:path-effect
       effect="skeletal"
       id="path-effect8942-8"
       is_visible="true"
       pattern="m 234.85974,425.58336 c 0,-2.76 2.24,-5 5,-5 2.76,0 5,2.24 5,5 0,2.76 -2.24,5 -5,5 -2.76,0 -5,-2.24 -5,-5 z"
       copytype="single_stretched"
       prop_scale="0.3"
       scale_y_rel="false"
       spacing="0"
       normal_offset="0"
       tang_offset="0"
       prop_units="false"
       vertical_pattern="false"
       fuse_tolerance="0" />
    <inkscape:path-effect
       effect="skeletal"
       id="path-effect8942-2-6"
       is_visible="true"
       pattern="m 230.82246,340.58605 c 0,-2.76 2.24,-5 5,-5 2.76,0 5,2.24 5,5 0,2.76 -2.24,5 -5,5 -2.76,0 -5,-2.24 -5,-5 z"
       copytype="single_stretched"
       prop_scale="0.3"
       scale_y_rel="false"
       spacing="0"
       normal_offset="0"
       tang_offset="0"
       prop_units="false"
       vertical_pattern="false"
       fuse_tolerance="0" />
    <inkscape:path-effect
       effect="skeletal"
       id="path-effect9110"
       is_visible="true"
       pattern="M 0,5 C 0,2.24 2.24,0 5,0 7.76,0 10,2.24 10,5 10,7.76 7.76,10 5,10 2.24,10 0,7.76 0,5 z"
       copytype="single_stretched"
       prop_scale="0.3"
       scale_y_rel="false"
       spacing="0"
       normal_offset="0"
       tang_offset="0"
       prop_units="false"
       vertical_pattern="false"
       fuse_tolerance="0" />
    <inkscape:path-effect
       effect="skeletal"
       id="path-effect9110-4"
       is_visible="true"
       pattern="M 0,5 C 0,2.24 2.24,0 5,0 7.76,0 10,2.24 10,5 10,7.76 7.76,10 5,10 2.24,10 0,7.76 0,5 z"
       copytype="single_stretched"
       prop_scale="0.3"
       scale_y_rel="false"
       spacing="0"
       normal_offset="0"
       tang_offset="0"
       prop_units="false"
       vertical_pattern="false"
       fuse_tolerance="0" />
    <inkscape:path-effect
       effect="skeletal"
       id="path-effect8934-7"
       is_visible="true"
       pattern="m 453.33008,997.63322 c 0,-2.76 2.24,-5 5,-5 2.76,0 5,2.24 5,5 0,2.75998 -2.24,4.99998 -5,4.99998 -2.76,0 -5,-2.24 -5,-4.99998 z"
       copytype="single_stretched"
       prop_scale="0.2"
       scale_y_rel="false"
       spacing="0"
       normal_offset="0"
       tang_offset="0"
       prop_units="false"
       vertical_pattern="false"
       fuse_tolerance="0" />
    <inkscape:path-effect
       effect="skeletal"
       id="path-effect8938-3"
       is_visible="true"
       pattern="m 455.09784,1012.0279 c 0,-2.76 2.24,-5 5,-5 2.76,0 5,2.24 5,5 0,2.76 -2.24,5 -5,5 -2.76,0 -5,-2.24 -5,-5 z"
       copytype="single_stretched"
       prop_scale="0.3"
       scale_y_rel="false"
       spacing="0"
       normal_offset="0"
       tang_offset="0"
       prop_units="false"
       vertical_pattern="false"
       fuse_tolerance="0" />
    <inkscape:path-effect
       effect="skeletal"
       id="path-effect8942-1"
       is_visible="true"
       pattern="m 456.86561,1006.9771 c 0,-2.76 2.24,-5 5,-5 2.76,0 5,2.24 5,5 0,2.76 -2.24,5 -5,5 -2.76,0 -5,-2.24 -5,-5 z"
       copytype="single_stretched"
       prop_scale="0.3"
       scale_y_rel="false"
       spacing="0"
       normal_offset="0"
       tang_offset="0"
       prop_units="false"
       vertical_pattern="false"
       fuse_tolerance="0" />
    <inkscape:path-effect
       effect="skeletal"
       id="path-effect8942-2-62"
       is_visible="true"
       pattern="m 452.82833,921.97982 c 0,-2.76 2.24,-5 5,-5 2.76,0 5,2.24 5,5 0,2.76 -2.24,5 -5,5 -2.76,0 -5,-2.24 -5,-5 z"
       copytype="single_stretched"
       prop_scale="0.3"
       scale_y_rel="false"
       spacing="0"
       normal_offset="0"
       tang_offset="0"
       prop_units="false"
       vertical_pattern="false"
       fuse_tolerance="0" />
    <inkscape:path-effect
       effect="skeletal"
       id="path-effect8934-7-7"
       is_visible="true"
       pattern="m 453.33008,997.63322 c 0,-2.76 2.24,-5 5,-5 2.76,0 5,2.24 5,5 0,2.75998 -2.24,4.99998 -5,4.99998 -2.76,0 -5,-2.24 -5,-4.99998 z"
       copytype="single_stretched"
       prop_scale="0.2"
       scale_y_rel="false"
       spacing="0"
       normal_offset="0"
       tang_offset="0"
       prop_units="false"
       vertical_pattern="false"
       fuse_tolerance="0" />
    <inkscape:path-effect
       effect="skeletal"
       id="path-effect8938-3-9"
       is_visible="true"
       pattern="m 455.09784,1012.0279 c 0,-2.76 2.24,-5 5,-5 2.76,0 5,2.24 5,5 0,2.76 -2.24,5 -5,5 -2.76,0 -5,-2.24 -5,-5 z"
       copytype="single_stretched"
       prop_scale="0.3"
       scale_y_rel="false"
       spacing="0"
       normal_offset="0"
       tang_offset="0"
       prop_units="false"
       vertical_pattern="false"
       fuse_tolerance="0" />
    <inkscape:path-effect
       effect="skeletal"
       id="path-effect8942-1-3"
       is_visible="true"
       pattern="m 456.86561,1006.9771 c 0,-2.76 2.24,-5 5,-5 2.76,0 5,2.24 5,5 0,2.76 -2.24,5 -5,5 -2.76,0 -5,-2.24 -5,-5 z"
       copytype="single_stretched"
       prop_scale="0.3"
       scale_y_rel="false"
       spacing="0"
       normal_offset="0"
       tang_offset="0"
       prop_units="false"
       vertical_pattern="false"
       fuse_tolerance="0" />
    <inkscape:path-effect
       effect="skeletal"
       id="path-effect8942-2-62-0"
       is_visible="true"
       pattern="m 452.82833,921.97982 c 0,-2.76 2.24,-5 5,-5 2.76,0 5,2.24 5,5 0,2.76 -2.24,5 -5,5 -2.76,0 -5,-2.24 -5,-5 z"
       copytype="single_stretched"
       prop_scale="0.3"
       scale_y_rel="false"
       spacing="0"
       normal_offset="0"
       tang_offset="0"
       prop_units="false"
       vertical_pattern="false"
       fuse_tolerance="0" />
  </defs>
  <sodipodi:namedview
     id="base"
     pagecolor="#9f9f9f"
     bordercolor="#666666"
     borderopacity="1.0"
     inkscape:pageopacity="0"
     inkscape:pageshadow="2"
     inkscape:zoom="3.959798"
     inkscape:cx="60.463154"
     inkscape:cy="25.44515"
     inkscape:document-units="px"
     inkscape:current-layer="layer1"
     showgrid="false"
     fit-margin-top="0"
     fit-margin-left="0"
     fit-margin-right="0"
     fit-margin-bottom="0"
     inkscape:window-width="1914"
     inkscape:window-height="1030"
     inkscape:window-x="0"
     inkscape:window-y="25"
     inkscape:window-maximized="1" />
  <metadata
     id="metadata10011">
    <rdf:RDF>
      <cc:Work
         rdf:about="">
        <dc:format>image/svg+xml</dc:format>
        <dc:type
           rdf:resource="http://purl.org/dc/dcmitype/StillImage" />
        <dc:title></dc:title>
      </cc:Work>
    </rdf:RDF>
  </metadata>
  <g
     inkscape:label="Capa 1"
     inkscape:groupmode="layer"
     id="layer1"
     transform="translate(-401.48477,-274.50272)">
    <g
       id="g9771"
       transform="translate(199.98681,-340.62273)">
      <path
         transform="matrix(0.53532983,0,0,0.53532983,315.26386,481.87132)"
         d="m -458.57145,352.43805 c 0,41.42136 -28.4619,75 -63.57143,75 -35.10953,0 -63.57143,-33.57864 -63.57143,-75 0,-41.42136 28.4619,-75 63.57143,-75 35.10953,0 63.57143,33.57864 63.57143,75 z"
         sodipodi:ry="75"
         sodipodi:rx="63.57143"
         sodipodi:cy="352.43805"
         sodipodi:cx="-522.14288"
         id="path8906-6"
         style="fill:#ffffff;fill-opacity:1;stroke:none"
         sodipodi:type="arc" />
      <path
         d="m -458.57145,352.43805 c 0,41.42136 -28.4619,75 -63.57143,75 -35.10953,0 -63.57143,-33.57864 -63.57143,-75 0,-41.42136 28.4619,-75 63.57143,-75 35.10953,0 63.57143,33.57864 63.57143,75 z"
         sodipodi:ry="75"
         sodipodi:rx="63.57143"
         sodipodi:cy="352.43805"
         sodipodi:cx="-522.14288"
         id="path8906-8-3"
         style="fill:#000000;fill-opacity:1;stroke:none"
         sodipodi:type="arc"
         transform="matrix(0.47316293,0,0,0.40679345,286.142,523.78451)" />
      <path
         sodipodi:nodetypes="csc"
         inkscape:connector-curvature="0"
         inkscape:original-d="m 3.8122,657.22346 c 8.5863,-19.19289 14.64721,-26.26396 28.28427,-26.26396 21.72415,10e-6 35.86042,25.50635 35.86042,25.50635"
         inkscape:path-effect="#path-effect8934-7"
         id="path8932-71"
         d="m 3.8122018,657.22346 c -0.088696,-0.0397 0.071847,-0.63096 0.4546532,-1.7044 0.3828059,-1.07343 0.9831294,-2.63373 1.8287288,-4.58358 0.8455995,-1.94985 1.9324487,-4.29403 3.4127058,-6.83237 1.4802574,-2.53834 3.3535374,-5.27265 5.9312824,-7.8485 1.970763,-1.9594 4.44231,-3.70114 7.358676,-4.79689 2.886021,-1.07191 6.078535,-1.49998 9.298222,-1.49692 0.770932,2.8e-4 1.544975,0.0332 2.319894,0.0982 4.743623,0.39788 9.158159,1.96538 12.897316,4.04483 4.752038,2.64987 8.502962,5.98669 11.43275,9.09081 5.865296,7.9444 9.458605,13.08251 9.211806,13.2703 0,0 -10e-7,0 -10e-7,0 0,0 0,0 0,0 0,0 0,0 0,0 0,0 0,0 0,0 0,0 0,0 -10e-7,0 0,0 0,0 0,0 -0.0013,9.3e-4 -0.0013,9.2e-4 -0.0013,9.2e-4 0,0 3e-6,10e-6 -0.0014,8.7e-4 0,0 0,0 0,0 -1e-6,0 -1e-6,0 -1e-6,0 0,0 0,0 0,0 0,0 0,0 0,0 0,0 0,0 0,0 -10e-7,0 -10e-7,0 -10e-7,0 -0.273339,0.1532 -4.311841,-4.65452 -10.376917,-12.25786 -2.961114,-2.90351 -6.640187,-6.01214 -11.178232,-8.43114 -3.577913,-1.91289 -7.738019,-3.36307 -12.150095,-3.72978 -0.720757,-0.0599 -1.439332,-0.09 -2.153799,-0.0897 -3.058756,0.003 -6.016318,0.36278 -8.631982,1.31257 -2.632285,0.9432 -4.917581,2.49851 -6.783459,4.26291 -2.503318,2.35577 -4.380134,4.92588 -5.916101,7.33547 -1.535966,2.40959 -2.7296332,4.65934 -3.7064738,6.5261 -0.9768406,1.86676 -1.7323416,3.35476 -2.2786199,4.35378 -0.5462783,0.99902 -0.8789369,1.51411 -0.9676325,1.47443 z"
         style="fill:#000000;fill-rule:evenodd;stroke:none" />
      <path
         inkscape:connector-curvature="0"
         inkscape:original-d="m 8.10534,694.34656 c 0,0 5.05076,11.61676 20.20305,14.14214 15.15229,2.52538 28.78935,-2.52538 32.32488,-7.57614"
         inkscape:path-effect="#path-effect8938-3"
         id="path8936-1"
         d="m 8.1053663,694.34662 c 0.3089287,-0.2231 2.2612427,1.8867 5.1901617,5.49675 1e-6,0 1e-6,0 1e-6,0 1.627469,1.47961 3.726986,3.02623 6.302132,4.32336 2.575146,1.29713 5.627199,2.34216 8.954647,2.85845 1e-6,0 2e-6,0 3e-6,0 1.388415,0.21981 2.818031,0.39072 4.277092,0.50309 5.797965,0.44652 11.23421,-0.14042 15.663654,-1.20256 1.977913,-0.51086 3.81686,-1.01359 5.357838,-1.57203 1.540978,-0.55845 2.789465,-1.16978 3.754485,-1.76043 0.96502,-0.59064 1.654766,-1.15465 2.141479,-1.54792 0.486713,-0.39328 0.77812,-0.60857 0.886411,-0.53277 0.108291,0.0758 0.02464,0.44088 -0.30853,1.02001 -0.33317,0.57912 -0.924489,1.36628 -1.852659,2.20701 -0.928171,0.84073 -2.200893,1.72832 -3.79186,2.52742 -1.590968,0.79909 -3.504094,1.50457 -5.519048,2.09065 -2.304977,0.71061 -4.897075,1.28082 -7.691953,1.60379 -2.794879,0.32297 -5.791876,0.39778 -8.870544,0.16031 -1.549498,-0.11952 -3.065795,-0.3132 -4.534207,-0.56953 0,0 -10e-7,0 -2e-6,0 -3.689784,-0.65325 -7.036499,-1.95952 -9.7914,-3.55959 -2.754902,-1.60007 -4.919673,-3.4873 -6.494122,-5.26933 0,0 0,0 -1e-6,0 -2.5837721,-4.02326 -3.9825065,-6.55357 -3.6735777,-6.77668 z"
         style="fill:#000000;fill-rule:evenodd;stroke:none" />
      <path
         inkscape:connector-curvature="0"
         inkscape:original-d="m 17.44925,710.00393 c 0,0 11.61676,6.06092 23.73859,4.04061 12.12183,-2.0203 14.14213,-3.03046 14.14213,-3.03046"
         inkscape:path-effect="#path-effect8942-1"
         id="path8940-74"
         d="m 17.449306,710.00396 c 0.174543,-0.46042 3.208337,0.2224 7.7188,1.64141 3.085507,0.68371 6.936971,1.35569 11.056547,1.3293 1.631891,-0.0104 3.205024,-0.13198 4.692195,-0.35373 4.001426,-0.76508 7.516904,-1.32352 10.081306,-1.61576 2.564402,-0.29224 4.177468,-0.3182 4.32722,-0.003 0,0 0,0 0,0 0,0 1e-6,0 1e-6,0 0,0 0,0 0,0 0,0 0,0 0,0 0.0047,0.0122 0.0046,0.0121 0.0046,0.0121 0,0 1.14e-4,-1.6e-4 0.0039,0.0124 0,0 0,0 0,0 0,0 0,0 0,0 10e-7,0 10e-7,0 10e-7,10e-6 0,0 0,0 0,0 0.07481,0.33103 -1.339794,0.95384 -3.80594,1.73954 -2.466147,0.7857 -5.984099,1.73438 -10.069143,2.70207 -1.649279,0.30099 -3.400636,0.46639 -5.204156,0.47751 -4.552838,0.0281 -8.697678,-0.92352 -11.843294,-2.01768 -4.396807,-1.95767 -7.136618,-3.46359 -6.962076,-3.92401 z"
         style="fill:#000000;fill-rule:evenodd;stroke:none" />
      <path
         inkscape:connector-curvature="0"
         inkscape:original-d="m 13.41197,630.81139 c 0,0 11.61676,-6.06092 23.73859,-4.04061 12.12183,2.0203 14.14213,3.03046 14.14213,3.03046"
         inkscape:path-effect="#path-effect8942-2-62"
         id="path8940-7-8"
         d="m 13.412026,630.81136 c -0.01492,-0.0293 -0.01737,-0.0647 -0.0078,-0.10589 0.0093,-0.0396 0.02985,-0.0845 0.06149,-0.13437 0,0 0,0 0,0 0,0 0,0 0,0 0,0 0,0 0,0 0.06315,-0.0992 0.170823,-0.21831 0.320552,-0.35357 0,0 0,0 0,0 0,0 0,0 0,0 0.296081,-0.26748 0.759875,-0.60006 1.375748,-0.96965 0,0 0,0 0,0 1.200997,-0.72079 2.992629,-1.59104 5.260044,-2.37727 0,0 0,0 0,0 3.138384,-1.09462 7.261466,-2.04393 11.789914,-2.01228 1.793757,0.0125 3.53574,0.17943 5.177031,0.48182 2.463761,0.46153 4.739367,0.94505 6.698508,1.44971 1.95914,0.50466 3.601141,1.02851 4.819183,1.50469 0,0 0,0 0,0 0.891417,0.34821 1.570854,0.68485 1.969057,0.96634 0,0 0,0 0,0 10e-7,0 10e-7,0 10e-7,0 0.173202,0.12084 0.297628,0.23196 0.365866,0.326 0,0 0,0 0,0 0,0 0,0 0,0 0.0057,0.0941 0.018,0.14735 0.02929,0.17736 0.01034,0.0275 0.01902,0.0351 0.02149,0.0368 4.07e-4,2.8e-4 2.97e-4,2.3e-4 2.97e-4,2.3e-4 0,0 1.1e-4,5e-5 -3.54e-4,-10e-5 -0.0028,-9.2e-4 -0.01403,-0.003 -0.04153,0.008 -0.03001,0.0119 -0.07849,0.0395 -0.152933,0.10188 0,0 0,0 0,0 0,0 0,0 0,0 -0.109367,0.0237 -0.257784,0.0348 -0.448853,0.035 0,0 -1e-6,0 -1e-6,0 0,0 0,0 0,0 -0.46849,-0.005 -1.173884,-0.0685 -2.109984,-0.17551 0,0 0,0 -10e-7,0 -1.275184,-0.14486 -2.942037,-0.37303 -4.910958,-0.63906 -1.968922,-0.26603 -4.241359,-0.56851 -6.715959,-0.93004 -1.495053,-0.22034 -3.07744,-0.34037 -4.718965,-0.34941 -4.14413,-0.0228 -8.017494,0.65143 -11.110283,1.33469 0,0 0,0 0,0 -2.232302,0.49762 -4.06562,1.00999 -5.382555,1.34499 0,0 0,0 0,0 -0.675394,0.17186 -1.212516,0.29634 -1.598649,0.35192 0,0 0,0 0,0 0,0 0,0 0,0 -0.195284,0.0281 -0.351133,0.0382 -0.466416,0.0279 0,0 0,0 0,0 -10e-7,0 -10e-7,0 -10e-7,0 0,0 0,0 0,0 -0.05812,-0.005 -0.105755,-0.0156 -0.142746,-0.0316 -0.03842,-0.0167 -0.06556,-0.0393 -0.08048,-0.0685 z"
         style="fill:#000000;fill-rule:evenodd;stroke:none" />
      <path
         d="m -458.57145,352.43805 c 0,41.42136 -28.4619,75 -63.57143,75 -35.10953,0 -63.57143,-33.57864 -63.57143,-75 0,-41.42136 28.4619,-75 63.57143,-75 35.10953,0 63.57143,33.57864 63.57143,75 z"
         sodipodi:ry="75"
         sodipodi:rx="63.57143"
         sodipodi:cy="352.43805"
         sodipodi:cx="-522.14288"
         id="path8906-8-3-5"
         style="fill:#ffffff;fill-opacity:1;stroke:none"
         sodipodi:type="arc"
         transform="matrix(0.11313374,0,0,0.10203154,88.240329,617.28135)" />
      <path
         d="m -458.57145,352.43805 c 0,41.42136 -28.4619,75 -63.57143,75 -35.10953,0 -63.57143,-33.57864 -63.57143,-75 0,-41.42136 28.4619,-75 63.57143,-75 35.10953,0 63.57143,33.57864 63.57143,75 z"
         sodipodi:ry="75"
         sodipodi:rx="63.57143"
         sodipodi:cy="352.43805"
         sodipodi:cx="-522.14288"
         id="path8906-8-3-5-9"
         style="fill:#ffffff;fill-opacity:1;stroke:none"
         sodipodi:type="arc"
         transform="matrix(0.1468416,0,0,0.13243154,126.009,624.20436)" />
      <path
         d="m -458.57145,352.43805 c 0,41.42136 -28.4619,75 -63.57143,75 -35.10953,0 -63.57143,-33.57864 -63.57143,-75 0,-41.42136 28.4619,-75 63.57143,-75 35.10953,0 63.57143,33.57864 63.57143,75 z"
         sodipodi:ry="75"
         sodipodi:rx="63.57143"
         sodipodi:cy="352.43805"
         sodipodi:cx="-522.14288"
         id="path8906-8-3-5-9-7"
         style="fill:#ffffff;fill-opacity:1;stroke:none"
         sodipodi:type="arc"
         transform="matrix(0.06818992,0,0,0.06149821,64.227311,648.89255)" />
    </g>
    <g
       id="g4196">
      <path
         transform="matrix(-0.53532983,0,0,0.53532983,155.99779,131.51169)"
         d="m -458.57145,352.43805 c 0,41.42136 -28.4619,75 -63.57143,75 -35.10953,0 -63.57143,-33.57864 -63.57143,-75 0,-41.42136 28.4619,-75 63.57143,-75 35.10953,0 63.57143,33.57864 63.57143,75 z"
         sodipodi:ry="75"
         sodipodi:rx="63.57143"
         sodipodi:cy="352.43805"
         sodipodi:cx="-522.14288"
         id="path8906-6-7"
         style="fill:#ffffff;fill-opacity:1;stroke:none"
         sodipodi:type="arc" />
      <path
         d="m -458.57145,352.43805 c 0,41.42136 -28.4619,75 -63.57143,75 -35.10953,0 -63.57143,-33.57864 -63.57143,-75 0,-41.42136 28.4619,-75 63.57143,-75 35.10953,0 63.57143,33.57864 63.57143,75 z"
         sodipodi:ry="75"
         sodipodi:rx="63.57143"
         sodipodi:cy="352.43805"
         sodipodi:cx="-522.14288"
         id="path8906-8-3-6"
         style="fill:#000000;fill-opacity:1;stroke:none"
         sodipodi:type="arc"
         transform="matrix(-0.50692926,0,0,0.43582346,172.41329,159.56247)" />
      <path
         sodipodi:nodetypes="csc"
         inkscape:connector-curvature="0"
         inkscape:original-d="m 467.44945,306.86383 c -8.5863,-19.19289 -14.64721,-26.26396 -28.28427,-26.26396 -21.72415,10e-6 -35.86042,25.50635 -35.86042,25.50635"
         inkscape:path-effect="#path-effect8934-7-7"
         id="path8932-71-6"
         d="m 467.44945,306.86383 c -0.0887,0.0397 -0.42135,-0.47541 -0.96763,-1.47443 -0.54628,-0.99902 -1.30178,-2.48702 -2.27862,-4.35378 -0.97684,-1.86676 -2.17051,-4.11651 -3.70648,-6.5261 -1.53596,-2.40959 -3.41278,-4.9797 -5.9161,-7.33547 -1.86588,-1.7644 -4.15117,-3.3197 -6.78346,-4.26291 -2.61566,-0.94979 -5.57322,-1.30951 -8.63198,-1.31257 -0.71446,-2.8e-4 -1.43302,0.0298 -2.15376,0.0897 -4.41209,0.3667 -8.57221,1.81688 -12.15013,3.72978 -4.55166,2.43532 -8.24139,5.55673 -11.20827,8.46715 0,0 0,0 0,0 -3.31739,3.25746 -5.73679,6.28544 -7.41929,8.48252 0,0 0,0 0,0 -0.8994,1.17467 -1.58454,2.11623 -2.06831,2.76064 0,0 0,0 0,0 -0.24857,0.33111 -0.44353,0.58334 -0.58626,0.74922 0,0 0,0 0,0 0,0 0,0 0,0 -0.0721,0.0837 -0.13083,0.14535 -0.17631,0.18394 0,0 0,0 0,0 0,0 0,0 -10e-6,0 -0.041,0.009 -0.0654,0.0203 -0.0796,0.029 0,0 0,0 0,0 -0.014,0.009 -0.0181,0.015 -0.0185,0.0157 0,0 0,0 0,0 0,0 0,0 0,0 0,0 0,0 0,0 0,0 0,0 0,0 0,0 0,0 0,0 0,0 0,0 0,0 0,0 0,0 0,0 0,0 0,0 0,0 0,0 0,0 0,0 0,0 0,0 0,0 -1e-5,3e-5 -1e-5,2e-5 -1e-5,2e-5 0,0 0,10e-6 1e-5,-3e-5 0,0 0,0 0,0 0,0 0,0 0,0 0,0 0,0 0,0 0,0 0,0 0,0 0,0 0,0 0,0 0,0 0,0 0,0 0,0 0,0 0,0 0,0 0,0 0,0 0,0 0,0 0,0 0,0 0,0 0,0 3.4e-4,-6.4e-4 0.004,-0.008 0.004,-0.024 0,0 0,0 0,0 1e-5,-0.0166 -0.003,-0.0431 -0.0164,-0.0829 0,0 0,0 0,0 0,0 0,0 0,0 0.01,-0.0591 0.034,-0.14186 0.0721,-0.24709 0,0 0,0 0,0 0,0 0,0 0,0 0.0749,-0.20741 0.20449,-0.50262 0.39002,-0.87696 0,0 0,0 0,0 0.36108,-0.72858 0.93464,-1.75983 1.73527,-3.02599 0,0 0,0 0,0 1.49736,-2.36837 3.78392,-5.58791 7.05586,-9.05034 0,0 0,0 0,0 2.92402,-3.0972 6.66428,-6.42124 11.40272,-9.05479 3.73917,-2.07946 8.15372,-3.64696 12.89735,-4.04483 0.77491,-0.065 1.54894,-0.0979 2.31986,-0.0982 3.21969,-0.003 6.4122,0.42501 9.29822,1.49692 2.91637,1.09575 5.38791,2.83749 7.35868,4.79689 2.57774,2.57585 4.45102,5.31016 5.93128,7.8485 1.48026,2.53834 2.56711,4.88252 3.41271,6.83237 0.8456,1.94985 1.44592,3.51015 1.82873,4.58358 0.3828,1.07344 0.54335,1.66472 0.45465,1.7044 z"
         style="fill:#000000;fill-rule:evenodd;stroke:none" />
      <path
         inkscape:connector-curvature="0"
         inkscape:original-d="m 463.15631,343.98693 c 0,0 -5.05076,11.61676 -20.20305,14.14214 -15.15229,2.52538 -28.78935,-2.52538 -32.32488,-7.57614"
         inkscape:path-effect="#path-effect8938-3-9"
         id="path8936-1-0"
         d="m 463.15628,343.98699 c 0.30893,0.22311 -1.0898,2.75342 -3.67357,6.77668 0,0 0,0 -10e-6,0 -1.57444,1.78203 -3.73922,3.66926 -6.49412,5.26933 -2.7549,1.60007 -6.10161,2.90634 -9.7914,3.55959 0,0 0,0 0,0 -1.46841,0.25633 -2.98471,0.45001 -4.53421,0.56953 -3.07866,0.23747 -6.07566,0.16266 -8.87054,-0.16031 -2.79488,-0.32297 -5.38698,-0.89318 -7.69195,-1.60379 -2.01496,-0.58608 -3.92808,-1.29156 -5.51905,-2.09065 -1.59097,-0.7991 -2.86369,-1.68669 -3.79186,-2.52742 -0.92817,-0.84073 -1.51949,-1.62789 -1.85266,-2.20701 -0.33317,-0.57913 -0.41682,-0.94421 -0.30853,-1.02001 0.10829,-0.0758 0.3997,0.13949 0.88641,0.53277 0.48671,0.39327 1.17646,0.95728 2.14148,1.54792 0.96502,0.59065 2.21351,1.20198 3.75448,1.76043 1.54098,0.55844 3.37993,1.06117 5.35784,1.57203 4.42945,1.06214 9.86569,1.64908 15.66366,1.20256 1.45906,-0.11237 2.88867,-0.28328 4.27709,-0.50309 0,0 0,0 0,0 3.32745,-0.51629 6.3795,-1.56132 8.95465,-2.85845 2.57515,-1.29713 4.67466,-2.84375 6.30213,-4.32336 0,0 0,0 0,0 2.92892,-3.61005 4.88123,-5.71985 5.19016,-5.49675 z"
         style="fill:#000000;fill-rule:evenodd;stroke:none" />
      <path
         inkscape:connector-curvature="0"
         inkscape:original-d="m 453.8124,359.6443 c 0,0 -11.61676,6.06092 -23.73859,4.04061 -12.12183,-2.0203 -14.14213,-3.03046 -14.14213,-3.03046"
         inkscape:path-effect="#path-effect8942-1-3"
         id="path8940-74-0"
         d="m 453.81234,359.64433 c 0.0149,0.0293 0.0174,0.0647 0.008,0.10589 -0.009,0.0396 -0.0299,0.0845 -0.0615,0.13437 0,0 0,0 0,0 0,0 0,0 0,0 0,0 0,0 0,0 -0.0632,0.0992 -0.17082,0.21831 -0.32055,0.35357 0,0 0,0 0,0 0,0 0,0 0,0 -0.29608,0.26748 -0.75988,0.60006 -1.37575,0.96965 0,0 0,0 0,0 -1.201,0.72079 -2.99263,1.59104 -5.26004,2.37727 0,0 0,0 0,0 -3.13839,1.09462 -7.26147,2.04393 -11.78992,2.01228 -1.79375,-0.0125 -3.53574,-0.17943 -5.17703,-0.48182 -2.46376,-0.46153 -4.73936,-0.94505 -6.69851,-1.44971 -1.95914,-0.50466 -3.60114,-1.02851 -4.81918,-1.50469 0,0 0,0 0,0 -0.89142,-0.34821 -1.57085,-0.68485 -1.96906,-0.96634 0,0 0,0 0,0 0,0 0,0 0,0 -0.1732,-0.12084 -0.29762,-0.23196 -0.36586,-0.326 0,0 0,0 0,0 0,0 0,0 0,0 -0.006,-0.0941 -0.018,-0.14735 -0.0293,-0.17736 -0.0103,-0.0275 -0.019,-0.0351 -0.0215,-0.0368 -4.1e-4,-2.8e-4 -3e-4,-2.3e-4 -3e-4,-2.3e-4 0,0 -1.1e-4,-5e-5 3.5e-4,10e-5 0.003,9.2e-4 0.014,0.003 0.0415,-0.008 0.03,-0.0119 0.0785,-0.0395 0.15293,-0.10188 0,0 0,0 0,0 0,0 0,0 0,0 0.10937,-0.0237 0.25779,-0.0348 0.44886,-0.035 0,0 0,0 0,0 0,0 0,0 0,0 0.46849,0.005 1.17388,0.0685 2.10998,0.17551 0,0 0,0 0,0 1.27519,0.14486 2.94204,0.37303 4.91096,0.63906 1.96892,0.26603 4.24136,0.56851 6.71596,0.93004 1.49505,0.22034 3.07744,0.34037 4.71896,0.34941 4.14413,0.0229 8.0175,-0.65143 11.11029,-1.33469 0,0 0,0 0,0 2.2323,-0.49762 4.06562,-1.00999 5.38255,-1.34499 0,0 0,0 0,0 0.67539,-0.17186 1.21252,-0.29634 1.59865,-0.35192 0,0 0,0 0,0 0,0 0,0 0,0 0.19528,-0.0281 0.35113,-0.0382 0.46642,-0.0279 0,0 0,0 0,0 0,0 0,0 0,0 0,0 0,0 0,0 0.0581,0.005 0.10575,0.0155 0.14274,0.0315 0.0384,0.0167 0.0656,0.0393 0.0805,0.0686 z"
         style="fill:#000000;fill-rule:evenodd;stroke:none" />
      <path
         inkscape:connector-curvature="0"
         inkscape:original-d="m 457.84968,280.45176 c 0,0 -11.61676,-6.06092 -23.73859,-4.04061 -12.12183,2.0203 -14.14213,3.03046 -14.14213,3.03046"
         inkscape:path-effect="#path-effect8942-2-62-0"
         id="path8940-7-8-2"
         d="m 457.84962,280.45173 c -0.0149,0.0293 -0.0421,0.0519 -0.0805,0.0686 -0.037,0.016 -0.0846,0.0264 -0.14274,0.0315 0,0 0,0 0,0 0,0 0,0 0,0 0,0 0,0 0,0 -0.11529,0.0103 -0.27114,2.5e-4 -0.46642,-0.0279 0,0 0,0 0,0 0,0 0,0 0,0 -0.38613,-0.0556 -0.92326,-0.18006 -1.59865,-0.35192 0,0 0,0 0,0 -1.31694,-0.335 -3.15025,-0.84736 -5.38255,-1.34499 0,0 0,0 0,0 -3.0875,-0.68439 -6.9514,-1.36071 -11.08668,-1.33977 -1.63805,0.008 -3.21734,0.12765 -4.71002,0.34747 -4.00142,0.76507 -7.5169,1.32351 -10.0813,1.61575 -2.5644,0.29224 -4.17747,0.3182 -4.32722,0.003 0,0 0,0 0,0 0,0 0,0 0,0 0,0 0,0 0,0 0,0 0,0 0,0 -0.005,-0.0122 -0.005,-0.0121 -0.005,-0.0121 0,0 -1.1e-4,1.6e-4 -0.004,-0.0124 0,0 0,0 0,0 0,0 0,0 0,0 0,0 0,0 0,-10e-6 0,0 0,0 0,0 -0.0748,-0.33103 1.33979,-0.95384 3.80594,-1.73954 2.46614,-0.78571 5.9841,-1.73438 10.06914,-2.70208 1.6437,-0.30291 3.38881,-0.47047 5.18608,-0.48376 4.53725,-0.0335 8.66976,0.91372 11.81342,2.0072 0,0 0,0 0,0 2.26741,0.78623 4.05904,1.65648 5.26004,2.37727 0,0 0,0 0,0 0.61587,0.36959 1.07967,0.70217 1.37575,0.96965 0,0 0,0 0,0 0,0 0,0 0,0 0.14973,0.13526 0.2574,0.25435 0.32055,0.35357 0,0 0,0 0,0 0,0 0,0 0,0 0,0 0,0 0,0 0.0316,0.0498 0.0522,0.0948 0.0615,0.13437 0.01,0.0412 0.007,0.0766 -0.008,0.10589 z"
         style="fill:#000000;fill-rule:evenodd;stroke:none" />
      <path
         d="m -458.57145,352.43805 c 0,41.42136 -28.4619,75 -63.57143,75 -35.10953,0 -63.57143,-33.57864 -63.57143,-75 0,-41.42136 28.4619,-75 63.57143,-75 35.10953,0 63.57143,33.57864 63.57143,75 z"
         sodipodi:ry="75"
         sodipodi:rx="63.57143"
         sodipodi:cy="352.43805"
         sodipodi:cx="-522.14288"
         id="path8906-8-3-5-2"
         style="fill:#ffffff;fill-opacity:1;stroke:none"
         sodipodi:type="arc"
         transform="matrix(-0.11313374,0,0,0.10203154,382.26371,256.82019)" />
      <path
         d="m -458.57145,352.43805 c 0,41.42136 -28.4619,75 -63.57143,75 -35.10953,0 -63.57143,-33.57864 -63.57143,-75 0,-41.42136 28.4619,-75 63.57143,-75 35.10953,0 63.57143,33.57864 63.57143,75 z"
         sodipodi:ry="75"
         sodipodi:rx="63.57143"
         sodipodi:cy="352.43805"
         sodipodi:cx="-522.14288"
         id="path8906-8-3-5-9-9"
         style="fill:#ffffff;fill-opacity:1;stroke:none"
         sodipodi:type="arc"
         transform="matrix(-0.1468416,0,0,0.13243154,344.49504,263.7432)" />
      <path
         d="m -458.57145,352.43805 c 0,41.42136 -28.4619,75 -63.57143,75 -35.10953,0 -63.57143,-33.57864 -63.57143,-75 0,-41.42136 28.4619,-75 63.57143,-75 35.10953,0 63.57143,33.57864 63.57143,75 z"
         sodipodi:ry="75"
         sodipodi:rx="63.57143"
         sodipodi:cy="352.43805"
         sodipodi:cx="-522.14288"
         id="path8906-8-3-5-9-7-8"
         style="fill:#ffffff;fill-opacity:1;stroke:none"
         sodipodi:type="arc"
         transform="matrix(-0.06818992,0,0,0.06149821,406.27673,288.43139)" />
      <path
         transform="translate(320.39324,274.49793)"
         inkscape:connector-curvature="0"
         id="path4194"
         d="m 139.65359,73.046407 6.56599,-5.050762 1.26269,3.282995 -1.26269,14.647212 c 0,0 3.78807,-1.767767 4.29315,-2.777919 0.50508,-1.010153 1.51523,-19.697975 1.51523,-19.697975 l -4.29315,-3.535534 -4.04061,-2.777919 z"
         style="fill:#ffffff;stroke:none" />
      <path
         transform="translate(320.39324,274.49793)"
         inkscape:connector-curvature="0"
         inkscape:original-d="m 142.68405,70.01595 c 0,0 4.04061,-3.282996 4.29315,0.505076 0.25253,3.788072 -3.53554,14.647212 0,15.657364 3.53553,1.010153 4.79822,-4.293148 4.79822,-12.626906 0,-8.333759 -1.76777,-12.626907 -3.78807,-12.626907 -2.02031,0 1.01015,-6.313454 1.01015,-6.313454"
         inkscape:path-effect="#path-effect4192"
         id="path4190"
         d="m 142.68417,70.015849 c -0.13847,-0.243765 0.46851,-0.895156 1.74253,-1.890779 0.48427,-0.279251 1.23053,-0.504517 2.25666,-0.153614 0.94038,0.591662 1.49635,1.608344 1.48887,2.469902 0.1825,1.343833 0.049,2.823996 -0.11479,4.230408 -0.16712,1.559343 -0.41278,3.228859 -0.58864,4.965764 0,0 0,10e-7 0,2e-6 -0.12857,1.397663 -0.28597,2.763323 -0.0795,3.977244 0.0881,0.402742 0.13452,0.697504 0.23728,0.785708 0.0156,-0.01458 0.003,-0.0086 -0.11574,-0.08972 0,0 0,0 0,0 0.23414,0.03305 0.51411,0.03298 0.48473,-0.05827 0.29463,-0.141193 0.48705,-0.751347 0.81513,-1.522954 0.16187,-0.465346 0.29724,-0.947154 0.41026,-1.444253 0.56001,-2.46298 0.55881,-5.136596 0.63491,-7.7338 0.0231,-1.717215 0.0262,-3.340778 -0.0761,-4.838019 -0.1023,-1.497241 -0.3102,-2.868527 -0.64774,-4.105767 0,0 0,0 0,0 0,0 0,-10e-7 0,-10e-7 0,0 0,0 0,0 -0.24434,-0.826951 -0.45096,-1.507886 -0.7894,-1.962556 0,0 0,0 0,0 -0.23403,-0.232608 -0.34546,-0.464738 -0.35527,-0.420842 0,0 0,0 0,0 -0.60955,-0.0021 -1.16858,-0.324768 -1.5852,-0.894974 0,0 0,0 0,0 -0.29646,-0.599644 -0.35067,-1.068792 -0.29063,-1.385183 0,0 0,0 0,0 0.0952,-1.074031 0.43108,-1.844685 0.72445,-2.450782 0,0 0,0 0,0 0.42824,-0.930344 0.85894,-1.61882 1.21314,-2.09653 0,0 0,0 0,0 0.21047,-0.284239 0.39711,-0.493912 0.55256,-0.627006 0,0 0,0 0,0 0.0831,-0.07144 0.15735,-0.121015 0.22186,-0.148229 0,0 0,0 0,0 0.0767,0.0069 0.12004,0.005 0.14416,9.52e-4 0,0 0,0 0,0 0.0237,-0.004 0.0289,-0.01015 0.0297,-0.01133 0,0 0,0 0,0 0,0 0,0 0,0 0,0 0,0 0,0 0,0 0,0 0,0 0,0 0,0 0,0 0,0 0,0 0,0 9e-5,-1.34e-4 7e-5,-9.8e-5 7e-5,-9.8e-5 0,0 2e-5,-3.6e-5 -3e-5,1.18e-4 0,0 0,0 0,0 0,0 0,0 0,0 0,0 0,0 0,0 0,0 0,0 0,0 0,0 0,0 0,0 0,0 0,0 0,0 -4.2e-4,0.0014 -0.002,0.0093 0.01,0.03017 0,0 0,0 0,0 0.0121,0.02124 0.0381,0.05607 0.0922,0.111139 0,1e-6 0,1e-6 0,1e-6 0.0206,0.06631 0.0315,0.153109 0.0332,0.259855 0,0 0,0 0,0 0.003,0.201206 -0.0268,0.472888 -0.0817,0.811443 0,0 0,0 0,0 -0.0926,0.570777 -0.26439,1.327745 -0.42471,2.241085 0,0 0,0 0,0 -0.10535,0.642902 -0.2499,1.312746 -0.15221,1.875589 0,0 0,0 0,0 0.0608,0.163204 0.0495,0.213429 0.0266,0.03921 0,0 0,0 0,0 -0.19456,-0.224886 -0.33128,-0.352752 -0.51349,-0.35488 0,0 0,0 0,0 1.07534,0.0439 2.00036,0.505754 2.53313,1.181197 0,0 0,0 0,0 0.75553,0.84083 1.28062,1.844506 1.62549,2.81199 0,0 0,0 0,0 0,0 0,10e-7 0,10e-7 0,0 0,0 0,0 0.54179,1.440683 0.93345,3.028357 1.17951,4.706429 0.24606,1.678072 0.34641,3.446054 0.36952,5.227012 0.0761,2.606408 0.10429,5.550879 -0.59128,8.615729 -0.14039,0.618572 -0.30919,1.233101 -0.51013,1.841057 -0.29747,1.079006 -0.95688,2.312734 -2.15218,3.346297 -1.28658,0.899998 -2.73692,1.085547 -3.99782,0.691447 0,0 0,-10e-7 0,-10e-7 -0.97407,-0.325624 -1.6988,-0.936717 -2.12519,-1.704579 -0.44677,-0.848404 -0.62763,-1.63104 -0.66535,-2.279276 -0.163,-1.871341 0.0977,-3.506491 0.3703,-4.916834 0,0 0,-10e-7 0,-2e-6 0.33581,-1.844801 0.74647,-3.489904 1.09231,-4.97003 0.31779,-1.447053 0.63904,-2.592891 0.66651,-3.574598 -0.10024,-0.529715 0.0256,-0.910171 -0.0578,-0.879766 0.0539,-0.182045 -0.30051,-0.155916 -0.6591,-0.156742 -1.37902,0.511461 -2.24258,0.695427 -2.38106,0.451663 z"
         style="fill:#000000;fill-rule:evenodd;stroke:none" />
    </g>
  </g>
</svg>
