<?xml version="1.0" encoding="UTF-8" standalone="no"?>
<!-- Created with Inkscape (http://www.inkscape.org/) -->

<svg
   xmlns:dc="http://purl.org/dc/elements/1.1/"
   xmlns:cc="http://creativecommons.org/ns#"
   xmlns:rdf="http://www.w3.org/1999/02/22-rdf-syntax-ns#"
   xmlns:svg="http://www.w3.org/2000/svg"
   xmlns="http://www.w3.org/2000/svg"
   xmlns:sodipodi="http://sodipodi.sourceforge.net/DTD/sodipodi-0.dtd"
   xmlns:inkscape="http://www.inkscape.org/namespaces/inkscape"
   width="68.063362"
   height="91.090424"
   id="svg10006"
   version="1.1"
   inkscape:version="0.48.3.1 r9886"
   sodipodi:docname="loquito.svg">
  <defs
     id="defs10008">
    <inkscape:path-effect
       effect="skeletal"
       id="path-effect8271"
       is_visible="true"
       pattern="m 236.12243,418.00722 c 0,-2.76 2.24,-5 5,-5 2.76,0 5,2.24 5,5 0,2.76 -2.24,5 -5,5 -2.76,0 -5,-2.24 -5,-5 z"
       copytype="single_stretched"
       prop_scale="1"
       scale_y_rel="false"
       spacing="0"
       normal_offset="0"
       tang_offset="0"
       prop_units="false"
       vertical_pattern="false"
       fuse_tolerance="0" />
    <inkscape:path-effect
       effect="skeletal"
       id="path-effect8263"
       is_visible="true"
       pattern="M 0,5 C 0,2.24 2.24,0 5,0 7.76,0 10,2.24 10,5 10,7.76 7.76,10 5,10 2.24,10 0,7.76 0,5 z"
       copytype="single_stretched"
       prop_scale="1"
       scale_y_rel="false"
       spacing="0"
       normal_offset="0"
       tang_offset="0"
       prop_units="false"
       vertical_pattern="false"
       fuse_tolerance="0" />
    <inkscape:path-effect
       effect="skeletal"
       id="path-effect8267"
       is_visible="true"
       pattern="m 225.01075,425.07829 c 0,-2.76 2.24,-5 5,-5 2.76,0 5,2.24 5,5 0,2.76 -2.24,5 -5,5 -2.76,0 -5,-2.24 -5,-5 z"
       copytype="single_stretched"
       prop_scale="1"
       scale_y_rel="false"
       spacing="0"
       normal_offset="0"
       tang_offset="0"
       prop_units="false"
       vertical_pattern="false"
       fuse_tolerance="0" />
    <inkscape:path-effect
       effect="skeletal"
       id="path-effect8275"
       is_visible="true"
       pattern="M 0,5 C 0,2.24 2.24,0 5,0 7.76,0 10,2.24 10,5 10,7.76 7.76,10 5,10 2.24,10 0,7.76 0,5 z"
       copytype="single_stretched"
       prop_scale="1"
       scale_y_rel="false"
       spacing="0"
       normal_offset="0"
       tang_offset="0"
       prop_units="false"
       vertical_pattern="false"
       fuse_tolerance="0" />
    <inkscape:path-effect
       effect="skeletal"
       id="path-effect8934-4"
       is_visible="true"
       pattern="m 523.0306,976.42002 c 0,-2.76 2.24,-5 5,-5 2.76,0 5,2.24 5,5 0,2.76 -2.24,5 -5,5 -2.76,0 -5,-2.24 -5,-5 z"
       copytype="single_stretched"
       prop_scale="0.2"
       scale_y_rel="false"
       spacing="0"
       normal_offset="0"
       tang_offset="0"
       prop_units="false"
       vertical_pattern="false"
       fuse_tolerance="0" />
    <inkscape:path-effect
       effect="skeletal"
       id="path-effect8938-2"
       is_visible="true"
       pattern="m 524.79836,990.81469 c 0,-2.76 2.24,-5 5,-5 2.76,0 5,2.24 5,5 0,2.76 -2.24,5 -5,5 -2.76,0 -5,-2.24 -5,-5 z"
       copytype="single_stretched"
       prop_scale="0.3"
       scale_y_rel="false"
       spacing="0"
       normal_offset="0"
       tang_offset="0"
       prop_units="false"
       vertical_pattern="false"
       fuse_tolerance="0" />
    <inkscape:path-effect
       effect="skeletal"
       id="path-effect8942-85"
       is_visible="true"
       pattern="m 526.56613,985.76393 c 0,-2.76 2.24,-5 5,-5 2.76,0 5,2.24 5,5 0,2.76 -2.24,5 -5,5 -2.76,0 -5,-2.24 -5,-5 z"
       copytype="single_stretched"
       prop_scale="0.3"
       scale_y_rel="false"
       spacing="0"
       normal_offset="0"
       tang_offset="0"
       prop_units="false"
       vertical_pattern="false"
       fuse_tolerance="0" />
    <inkscape:path-effect
       effect="skeletal"
       id="path-effect8942-2-0"
       is_visible="true"
       pattern="m 522.52885,900.76662 c 0,-2.76 2.24,-5 5,-5 2.76,0 5,2.24 5,5 0,2.76 -2.24,5 -5,5 -2.76,0 -5,-2.24 -5,-5 z"
       copytype="single_stretched"
       prop_scale="0.3"
       scale_y_rel="false"
       spacing="0"
       normal_offset="0"
       tang_offset="0"
       prop_units="false"
       vertical_pattern="false"
       fuse_tolerance="0" />
    <inkscape:path-effect
       effect="skeletal"
       id="path-effect8934-4-6"
       is_visible="true"
       pattern="m 523.0306,976.42002 c 0,-2.76 2.24,-5 5,-5 2.76,0 5,2.24 5,5 0,2.76 -2.24,5 -5,5 -2.76,0 -5,-2.24 -5,-5 z"
       copytype="single_stretched"
       prop_scale="0.2"
       scale_y_rel="false"
       spacing="0"
       normal_offset="0"
       tang_offset="0"
       prop_units="false"
       vertical_pattern="false"
       fuse_tolerance="0" />
    <inkscape:path-effect
       effect="skeletal"
       id="path-effect8938-2-8"
       is_visible="true"
       pattern="m 524.79836,990.81469 c 0,-2.76 2.24,-5 5,-5 2.76,0 5,2.24 5,5 0,2.76 -2.24,5 -5,5 -2.76,0 -5,-2.24 -5,-5 z"
       copytype="single_stretched"
       prop_scale="0.3"
       scale_y_rel="false"
       spacing="0"
       normal_offset="0"
       tang_offset="0"
       prop_units="false"
       vertical_pattern="false"
       fuse_tolerance="0" />
    <inkscape:path-effect
       effect="skeletal"
       id="path-effect8942-85-2"
       is_visible="true"
       pattern="m 526.56613,985.76393 c 0,-2.76 2.24,-5 5,-5 2.76,0 5,2.24 5,5 0,2.76 -2.24,5 -5,5 -2.76,0 -5,-2.24 -5,-5 z"
       copytype="single_stretched"
       prop_scale="0.3"
       scale_y_rel="false"
       spacing="0"
       normal_offset="0"
       tang_offset="0"
       prop_units="false"
       vertical_pattern="false"
       fuse_tolerance="0" />
    <inkscape:path-effect
       effect="skeletal"
       id="path-effect8942-2-0-9"
       is_visible="true"
       pattern="m 522.52885,900.76662 c 0,-2.76 2.24,-5 5,-5 2.76,0 5,2.24 5,5 0,2.76 -2.24,5 -5,5 -2.76,0 -5,-2.24 -5,-5 z"
       copytype="single_stretched"
       prop_scale="0.3"
       scale_y_rel="false"
       spacing="0"
       normal_offset="0"
       tang_offset="0"
       prop_units="false"
       vertical_pattern="false"
       fuse_tolerance="0" />
    <inkscape:path-effect
       effect="skeletal"
       id="path-effect8934"
       is_visible="true"
       pattern="m 231.32421,416.23945 c 0,-2.76 2.24,-5 5,-5 2.76,0 5,2.24 5,5 0,2.76 -2.24,5 -5,5 -2.76,0 -5,-2.24 -5,-5 z"
       copytype="single_stretched"
       prop_scale="0.2"
       scale_y_rel="false"
       spacing="0"
       normal_offset="0"
       tang_offset="0"
       prop_units="false"
       vertical_pattern="false"
       fuse_tolerance="0" />
    <inkscape:path-effect
       effect="skeletal"
       id="path-effect8938"
       is_visible="true"
       pattern="m 233.09197,430.63412 c 0,-2.76 2.24,-5 5,-5 2.76,0 5,2.24 5,5 0,2.76 -2.24,5 -5,5 -2.76,0 -5,-2.24 -5,-5 z"
       copytype="single_stretched"
       prop_scale="0.3"
       scale_y_rel="false"
       spacing="0"
       normal_offset="0"
       tang_offset="0"
       prop_units="false"
       vertical_pattern="false"
       fuse_tolerance="0" />
    <inkscape:path-effect
       effect="skeletal"
       id="path-effect8942"
       is_visible="true"
       pattern="m 234.85974,425.58336 c 0,-2.76 2.24,-5 5,-5 2.76,0 5,2.24 5,5 0,2.76 -2.24,5 -5,5 -2.76,0 -5,-2.24 -5,-5 z"
       copytype="single_stretched"
       prop_scale="0.3"
       scale_y_rel="false"
       spacing="0"
       normal_offset="0"
       tang_offset="0"
       prop_units="false"
       vertical_pattern="false"
       fuse_tolerance="0" />
    <inkscape:path-effect
       effect="skeletal"
       id="path-effect8942-2"
       is_visible="true"
       pattern="m 230.82246,340.58605 c 0,-2.76 2.24,-5 5,-5 2.76,0 5,2.24 5,5 0,2.76 -2.24,5 -5,5 -2.76,0 -5,-2.24 -5,-5 z"
       copytype="single_stretched"
       prop_scale="0.3"
       scale_y_rel="false"
       spacing="0"
       normal_offset="0"
       tang_offset="0"
       prop_units="false"
       vertical_pattern="false"
       fuse_tolerance="0" />
    <inkscape:path-effect
       effect="skeletal"
       id="path-effect8934-9"
       is_visible="true"
       pattern="m 231.32421,416.23945 c 0,-2.76 2.24,-5 5,-5 2.76,0 5,2.24 5,5 0,2.76 -2.24,5 -5,5 -2.76,0 -5,-2.24 -5,-5 z"
       copytype="single_stretched"
       prop_scale="0.2"
       scale_y_rel="false"
       spacing="0"
       normal_offset="0"
       tang_offset="0"
       prop_units="false"
       vertical_pattern="false"
       fuse_tolerance="0" />
    <inkscape:path-effect
       effect="skeletal"
       id="path-effect8938-6"
       is_visible="true"
       pattern="m 233.09197,430.63412 c 0,-2.76 2.24,-5 5,-5 2.76,0 5,2.24 5,5 0,2.76 -2.24,5 -5,5 -2.76,0 -5,-2.24 -5,-5 z"
       copytype="single_stretched"
       prop_scale="0.3"
       scale_y_rel="false"
       spacing="0"
       normal_offset="0"
       tang_offset="0"
       prop_units="false"
       vertical_pattern="false"
       fuse_tolerance="0" />
    <inkscape:path-effect
       effect="skeletal"
       id="path-effect8942-8"
       is_visible="true"
       pattern="m 234.85974,425.58336 c 0,-2.76 2.24,-5 5,-5 2.76,0 5,2.24 5,5 0,2.76 -2.24,5 -5,5 -2.76,0 -5,-2.24 -5,-5 z"
       copytype="single_stretched"
       prop_scale="0.3"
       scale_y_rel="false"
       spacing="0"
       normal_offset="0"
       tang_offset="0"
       prop_units="false"
       vertical_pattern="false"
       fuse_tolerance="0" />
    <inkscape:path-effect
       effect="skeletal"
       id="path-effect8942-2-6"
       is_visible="true"
       pattern="m 230.82246,340.58605 c 0,-2.76 2.24,-5 5,-5 2.76,0 5,2.24 5,5 0,2.76 -2.24,5 -5,5 -2.76,0 -5,-2.24 -5,-5 z"
       copytype="single_stretched"
       prop_scale="0.3"
       scale_y_rel="false"
       spacing="0"
       normal_offset="0"
       tang_offset="0"
       prop_units="false"
       vertical_pattern="false"
       fuse_tolerance="0" />
    <inkscape:path-effect
       effect="skeletal"
       id="path-effect9110"
       is_visible="true"
       pattern="M 0,5 C 0,2.24 2.24,0 5,0 7.76,0 10,2.24 10,5 10,7.76 7.76,10 5,10 2.24,10 0,7.76 0,5 z"
       copytype="single_stretched"
       prop_scale="0.3"
       scale_y_rel="false"
       spacing="0"
       normal_offset="0"
       tang_offset="0"
       prop_units="false"
       vertical_pattern="false"
       fuse_tolerance="0" />
    <inkscape:path-effect
       effect="skeletal"
       id="path-effect9110-4"
       is_visible="true"
       pattern="M 0,5 C 0,2.24 2.24,0 5,0 7.76,0 10,2.24 10,5 10,7.76 7.76,10 5,10 2.24,10 0,7.76 0,5 z"
       copytype="single_stretched"
       prop_scale="0.3"
       scale_y_rel="false"
       spacing="0"
       normal_offset="0"
       tang_offset="0"
       prop_units="false"
       vertical_pattern="false"
       fuse_tolerance="0" />
    <inkscape:path-effect
       effect="skeletal"
       id="path-effect8934-7"
       is_visible="true"
       pattern="m 453.33008,997.63322 c 0,-2.76 2.24,-5 5,-5 2.76,0 5,2.24 5,5 0,2.75998 -2.24,4.99998 -5,4.99998 -2.76,0 -5,-2.24 -5,-4.99998 z"
       copytype="single_stretched"
       prop_scale="0.2"
       scale_y_rel="false"
       spacing="0"
       normal_offset="0"
       tang_offset="0"
       prop_units="false"
       vertical_pattern="false"
       fuse_tolerance="0" />
    <inkscape:path-effect
       effect="skeletal"
       id="path-effect8938-3"
       is_visible="true"
       pattern="m 455.09784,1012.0279 c 0,-2.76 2.24,-5 5,-5 2.76,0 5,2.24 5,5 0,2.76 -2.24,5 -5,5 -2.76,0 -5,-2.24 -5,-5 z"
       copytype="single_stretched"
       prop_scale="0.3"
       scale_y_rel="false"
       spacing="0"
       normal_offset="0"
       tang_offset="0"
       prop_units="false"
       vertical_pattern="false"
       fuse_tolerance="0" />
    <inkscape:path-effect
       effect="skeletal"
       id="path-effect8942-1"
       is_visible="true"
       pattern="m 456.86561,1006.9771 c 0,-2.76 2.24,-5 5,-5 2.76,0 5,2.24 5,5 0,2.76 -2.24,5 -5,5 -2.76,0 -5,-2.24 -5,-5 z"
       copytype="single_stretched"
       prop_scale="0.3"
       scale_y_rel="false"
       spacing="0"
       normal_offset="0"
       tang_offset="0"
       prop_units="false"
       vertical_pattern="false"
       fuse_tolerance="0" />
    <inkscape:path-effect
       effect="skeletal"
       id="path-effect8942-2-62"
       is_visible="true"
       pattern="m 452.82833,921.97982 c 0,-2.76 2.24,-5 5,-5 2.76,0 5,2.24 5,5 0,2.76 -2.24,5 -5,5 -2.76,0 -5,-2.24 -5,-5 z"
       copytype="single_stretched"
       prop_scale="0.3"
       scale_y_rel="false"
       spacing="0"
       normal_offset="0"
       tang_offset="0"
       prop_units="false"
       vertical_pattern="false"
       fuse_tolerance="0" />
    <inkscape:path-effect
       effect="skeletal"
       id="path-effect8934-7-7"
       is_visible="true"
       pattern="m 453.33008,997.63322 c 0,-2.76 2.24,-5 5,-5 2.76,0 5,2.24 5,5 0,2.75998 -2.24,4.99998 -5,4.99998 -2.76,0 -5,-2.24 -5,-4.99998 z"
       copytype="single_stretched"
       prop_scale="0.2"
       scale_y_rel="false"
       spacing="0"
       normal_offset="0"
       tang_offset="0"
       prop_units="false"
       vertical_pattern="false"
       fuse_tolerance="0" />
    <inkscape:path-effect
       effect="skeletal"
       id="path-effect8938-3-9"
       is_visible="true"
       pattern="m 455.09784,1012.0279 c 0,-2.76 2.24,-5 5,-5 2.76,0 5,2.24 5,5 0,2.76 -2.24,5 -5,5 -2.76,0 -5,-2.24 -5,-5 z"
       copytype="single_stretched"
       prop_scale="0.3"
       scale_y_rel="false"
       spacing="0"
       normal_offset="0"
       tang_offset="0"
       prop_units="false"
       vertical_pattern="false"
       fuse_tolerance="0" />
    <inkscape:path-effect
       effect="skeletal"
       id="path-effect8942-1-3"
       is_visible="true"
       pattern="m 456.86561,1006.9771 c 0,-2.76 2.24,-5 5,-5 2.76,0 5,2.24 5,5 0,2.76 -2.24,5 -5,5 -2.76,0 -5,-2.24 -5,-5 z"
       copytype="single_stretched"
       prop_scale="0.3"
       scale_y_rel="false"
       spacing="0"
       normal_offset="0"
       tang_offset="0"
       prop_units="false"
       vertical_pattern="false"
       fuse_tolerance="0" />
    <inkscape:path-effect
       effect="skeletal"
       id="path-effect8942-2-62-0"
       is_visible="true"
       pattern="m 452.82833,921.97982 c 0,-2.76 2.24,-5 5,-5 2.76,0 5,2.24 5,5 0,2.76 -2.24,5 -5,5 -2.76,0 -5,-2.24 -5,-5 z"
       copytype="single_stretched"
       prop_scale="0.3"
       scale_y_rel="false"
       spacing="0"
       normal_offset="0"
       tang_offset="0"
       prop_units="false"
       vertical_pattern="false"
       fuse_tolerance="0" />
    <inkscape:path-effect
       effect="skeletal"
       id="path-effect8934-5"
       is_visible="true"
       pattern="m 743.42435,701.04373 c 0,-2.76 2.24,-5 5,-5 2.76,0 5,2.24 5,5 0,2.76 -2.24,5 -5,5 -2.76,0 -5,-2.24 -5,-5 z"
       copytype="single_stretched"
       prop_scale="0.2"
       scale_y_rel="false"
       spacing="0"
       normal_offset="0"
       tang_offset="0"
       prop_units="false"
       vertical_pattern="false"
       fuse_tolerance="0" />
    <inkscape:path-effect
       effect="skeletal"
       id="path-effect8938-68"
       is_visible="true"
       pattern="m 745.19211,715.4384 c 0,-2.76 2.24,-5 5,-5 2.76,0 5,2.24 5,5 0,2.76 -2.24,5 -5,5 -2.76,0 -5,-2.24 -5,-5 z"
       copytype="single_stretched"
       prop_scale="0.3"
       scale_y_rel="false"
       spacing="0"
       normal_offset="0"
       tang_offset="0"
       prop_units="false"
       vertical_pattern="false"
       fuse_tolerance="0" />
    <inkscape:path-effect
       effect="skeletal"
       id="path-effect8942-0"
       is_visible="true"
       pattern="m 746.95988,710.38764 c 0,-2.76 2.24,-5 5,-5 2.76,0 5,2.24 5,5 0,2.76 -2.24,5 -5,5 -2.76,0 -5,-2.24 -5,-5 z"
       copytype="single_stretched"
       prop_scale="0.3"
       scale_y_rel="false"
       spacing="0"
       normal_offset="0"
       tang_offset="0"
       prop_units="false"
       vertical_pattern="false"
       fuse_tolerance="0" />
    <inkscape:path-effect
       effect="skeletal"
       id="path-effect8942-2-5"
       is_visible="true"
       pattern="m 742.9226,625.39033 c 0,-2.76 2.24,-5 5,-5 2.76,0 5,2.24 5,5 0,2.76 -2.24,5 -5,5 -2.76,0 -5,-2.24 -5,-5 z"
       copytype="single_stretched"
       prop_scale="0.3"
       scale_y_rel="false"
       spacing="0"
       normal_offset="0"
       tang_offset="0"
       prop_units="false"
       vertical_pattern="false"
       fuse_tolerance="0" />
    <inkscape:path-effect
       effect="skeletal"
       id="path-effect8934-9-9"
       is_visible="true"
       pattern="m 446.6672,156.01545 c 0,-2.76 2.24,-5 5,-5 2.76,0 5,2.24 5,5 0,2.76 -2.24,5 -5,5 -2.76,0 -5,-2.24 -5,-5 z"
       copytype="single_stretched"
       prop_scale="0.2"
       scale_y_rel="false"
       spacing="0"
       normal_offset="0"
       tang_offset="0"
       prop_units="false"
       vertical_pattern="false"
       fuse_tolerance="0" />
    <inkscape:path-effect
       effect="skeletal"
       id="path-effect8938-6-5"
       is_visible="true"
       pattern="m 448.43496,170.41012 c 0,-2.76 2.24,-5 5,-5 2.76,0 5,2.24 5,5 0,2.76 -2.24,5 -5,5 -2.76,0 -5,-2.24 -5,-5 z"
       copytype="single_stretched"
       prop_scale="0.3"
       scale_y_rel="false"
       spacing="0"
       normal_offset="0"
       tang_offset="0"
       prop_units="false"
       vertical_pattern="false"
       fuse_tolerance="0" />
    <inkscape:path-effect
       effect="skeletal"
       id="path-effect8942-8-4"
       is_visible="true"
       pattern="m 450.20273,165.35936 c 0,-2.76 2.24,-5 5,-5 2.76,0 5,2.24 5,5 0,2.76 -2.24,5 -5,5 -2.76,0 -5,-2.24 -5,-5 z"
       copytype="single_stretched"
       prop_scale="0.3"
       scale_y_rel="false"
       spacing="0"
       normal_offset="0"
       tang_offset="0"
       prop_units="false"
       vertical_pattern="false"
       fuse_tolerance="0" />
    <inkscape:path-effect
       effect="skeletal"
       id="path-effect8942-2-6-45"
       is_visible="true"
       pattern="m 446.16545,80.36205 c 0,-2.76 2.24,-5 5,-5 2.76,0 5,2.24 5,5 0,2.76 -2.24,5 -5,5 -2.76,0 -5,-2.24 -5,-5 z"
       copytype="single_stretched"
       prop_scale="0.3"
       scale_y_rel="false"
       spacing="0"
       normal_offset="0"
       tang_offset="0"
       prop_units="false"
       vertical_pattern="false"
       fuse_tolerance="0" />
  </defs>
  <sodipodi:namedview
     id="base"
     pagecolor="#ffffff"
     bordercolor="#666666"
     borderopacity="1.0"
     inkscape:pageopacity="0.0"
     inkscape:pageshadow="2"
     inkscape:zoom="0.98994949"
     inkscape:cx="-39.483184"
     inkscape:cy="26.649174"
     inkscape:document-units="px"
     inkscape:current-layer="layer1"
     showgrid="false"
     fit-margin-top="0"
     fit-margin-left="0"
     fit-margin-right="0"
     fit-margin-bottom="0"
     inkscape:window-width="560"
     inkscape:window-height="453"
     inkscape:window-x="310"
     inkscape:window-y="414"
     inkscape:window-maximized="0" />
  <metadata
     id="metadata10011">
    <rdf:RDF>
      <cc:Work
         rdf:about="">
        <dc:format>image/svg+xml</dc:format>
        <dc:type
           rdf:resource="http://purl.org/dc/dcmitype/StillImage" />
        <dc:title />
      </cc:Work>
    </rdf:RDF>
  </metadata>
  <g
     inkscape:label="Capa 1"
     inkscape:groupmode="layer"
     id="layer1"
     transform="translate(-372.3439,-327.56139)">
    <g
       id="g3045">
      <path
         transform="matrix(-0.53532983,0,0,0.53532983,126.85692,184.57036)"
         d="m -458.57145,352.43805 c 0,41.42136 -28.4619,75 -63.57143,75 -35.10953,0 -63.57143,-33.57864 -63.57143,-75 0,-41.42136 28.4619,-75 63.57143,-75 35.10953,0 63.57143,33.57864 63.57143,75 z"
         sodipodi:ry="75"
         sodipodi:rx="63.57143"
         sodipodi:cy="352.43805"
         sodipodi:cx="-522.14288"
         id="path8906-0-1"
         style="fill:#ffffff;fill-opacity:1;stroke:none"
         sodipodi:type="arc" />
      <path
         d="m -458.57145,352.43805 c 0,41.42136 -28.4619,75 -63.57143,75 -35.10953,0 -63.57143,-33.57864 -63.57143,-75 0,-41.42136 28.4619,-75 63.57143,-75 35.10953,0 63.57143,33.57864 63.57143,75 z"
         sodipodi:ry="75"
         sodipodi:rx="63.57143"
         sodipodi:cy="352.43805"
         sodipodi:cx="-522.14288"
         id="path8906-8-7-5"
         style="fill:#000000;fill-opacity:1;stroke:none"
         sodipodi:type="arc"
         transform="matrix(-0.11823164,0,0,0.11823164,325.00716,339.54048)" />
      <path
         sodipodi:nodetypes="csc"
         inkscape:connector-curvature="0"
         inkscape:original-d="m 438.30858,359.9225 c -8.5863,-19.19289 -14.64721,-26.26396 -28.28427,-26.26396 -21.72415,10e-6 -35.86042,25.50635 -35.86042,25.50635"
         inkscape:path-effect="#path-effect8934-9-9"
         id="path8932-4-6"
         d="m 438.30858,359.9225 c -0.0887,0.0397 -0.42136,-0.47541 -0.96763,-1.47443 -0.54628,-0.99902 -1.30178,-2.48702 -2.27863,-4.35378 -0.97684,-1.86676 -2.1705,-4.11651 -3.70647,-6.5261 -1.53597,-2.40959 -3.41278,-4.9797 -5.9161,-7.33546 -1.86588,-1.7644 -4.15117,-3.31971 -6.78346,-4.26292 -2.61566,-0.94979 -5.57322,-1.30951 -8.63198,-1.31257 -0.71446,-2.8e-4 -1.43302,0.0298 -2.15376,0.0897 -4.41209,0.3667 -8.57221,1.81688 -12.15013,3.72978 -4.55165,2.43532 -8.24139,5.55673 -11.20826,8.46715 0,0 0,0 0,0 -3.3174,3.25747 -5.7368,6.28544 -7.41929,8.48252 0,0 0,0 0,0 -0.89941,1.17467 -1.58455,2.11624 -2.06832,2.76064 0,0 0,0 0,0 -0.24857,0.33111 -0.44353,0.58334 -0.58625,0.74922 0,0 0,0 0,0 0,0 0,0 0,0 -0.0721,0.0837 -0.13084,0.14535 -0.17632,0.18394 0,0 0,0 0,0 0,0 0,0 0,0 -0.041,0.009 -0.0654,0.0203 -0.0796,0.029 0,0 0,0 0,0 -0.014,0.009 -0.0181,0.015 -0.0185,0.0157 0,0 0,0 0,0 0,0 0,0 0,0 0,0 0,0 0,0 0,0 0,0 0,0 0,0 0,0 0,0 0,0 0,0 0,0 0,0 0,0 0,0 0,0 0,0 0,0 0,0 0,0 0,0 0,0 0,0 0,0 -1e-5,3e-5 -1e-5,2e-5 -1e-5,2e-5 0,0 0,10e-6 1e-5,-3e-5 0,0 0,0 0,0 0,0 0,0 0,0 0,0 0,0 0,0 0,0 0,0 0,0 0,0 0,0 0,0 0,0 0,0 0,0 0,0 0,0 0,0 0,0 0,0 0,0 0,0 0,0 0,0 0,0 0,0 0,0 3.4e-4,-6.4e-4 0.004,-0.008 0.004,-0.0239 0,0 0,0 0,0 1e-5,-0.0166 -0.003,-0.0431 -0.0164,-0.0829 0,-1e-5 0,-1e-5 0,-1e-5 0,0 0,0 0,0 0.01,-0.0591 0.034,-0.14185 0.0721,-0.24709 0,0 0,0 0,0 0,0 0,0 0,0 0.0749,-0.20741 0.20449,-0.50262 0.39002,-0.87696 0,0 0,0 0,0 0.36108,-0.72858 0.93464,-1.75983 1.73527,-3.02599 0,0 0,0 0,0 1.49736,-2.36837 3.78392,-5.58791 7.05586,-9.05034 0,0 0,0 0,0 2.92402,-3.0972 6.66428,-6.42124 11.40272,-9.05479 3.73917,-2.07946 8.15372,-3.64696 12.89735,-4.04484 0.77491,-0.065 1.54894,-0.0979 2.31986,-0.0982 3.21969,-0.003 6.4122,0.425 9.29822,1.49692 2.91637,1.09575 5.38792,2.83749 7.35868,4.79689 2.57774,2.57585 4.45102,5.31016 5.93128,7.8485 1.48026,2.53834 2.56711,4.88251 3.41271,6.83237 0.8456,1.94985 1.44592,3.51015 1.82873,4.58358 0.3828,1.07344 0.54335,1.66472 0.45465,1.7044 z"
         style="fill:#000000;fill-rule:evenodd;stroke:none" />
      <path
         inkscape:connector-curvature="0"
         inkscape:original-d="m 434.01544,397.0456 c 0,0 -5.05076,11.61676 -20.20305,14.14214 -15.15229,2.52538 -28.78935,-2.52538 -32.32488,-7.57614"
         inkscape:path-effect="#path-effect8938-6-5"
         id="path8936-2-7"
         d="m 434.01541,397.04566 c 0.30893,0.22311 -1.0898,2.75342 -3.67357,6.77668 0,0 0,0 -10e-6,0 -1.57444,1.78203 -3.73922,3.66926 -6.49412,5.26933 -2.7549,1.60007 -6.10161,2.90634 -9.7914,3.55959 0,0 0,0 0,0 -1.46841,0.25633 -2.98471,0.45001 -4.53421,0.56953 -3.07866,0.23747 -6.07566,0.16266 -8.87054,-0.16031 -2.79488,-0.32297 -5.38698,-0.89318 -7.69195,-1.60379 -2.01496,-0.58608 -3.92808,-1.29156 -5.51905,-2.09065 -1.59097,-0.7991 -2.86369,-1.68669 -3.79186,-2.52742 -0.92817,-0.84073 -1.51949,-1.62789 -1.85266,-2.20701 -0.33317,-0.57913 -0.41682,-0.94421 -0.30853,-1.02001 0.10829,-0.0758 0.3997,0.13949 0.88641,0.53277 0.48671,0.39327 1.17646,0.95728 2.14148,1.54792 0.96502,0.59065 2.21351,1.20198 3.75448,1.76043 1.54098,0.55844 3.37993,1.06117 5.35784,1.57203 4.42945,1.06214 9.86569,1.64908 15.66366,1.20256 1.45906,-0.11237 2.88867,-0.28328 4.27709,-0.50309 0,0 0,0 0,0 3.32745,-0.51629 6.3795,-1.56132 8.95465,-2.85845 2.57515,-1.29713 4.67466,-2.84375 6.30213,-4.32336 0,0 0,0 0,0 2.92892,-3.61005 4.88123,-5.71985 5.19016,-5.49675 z"
         style="fill:#000000;fill-rule:evenodd;stroke:none" />
      <path
         inkscape:connector-curvature="0"
         inkscape:original-d="m 424.67153,412.70297 c 0,0 -11.61676,6.06092 -23.73859,4.04061 -12.12183,-2.0203 -14.14213,-3.03046 -14.14213,-3.03046"
         inkscape:path-effect="#path-effect8942-8-4"
         id="path8940-2-2"
         d="m 424.67147,412.703 c 0.0149,0.0293 0.0174,0.0647 0.008,0.10589 -0.009,0.0396 -0.0299,0.0845 -0.0615,0.13437 0,0 0,0 0,0 0,0 0,0 0,0 0,0 0,0 0,0 -0.0632,0.0992 -0.17082,0.21831 -0.32055,0.35357 0,0 0,0 0,0 0,0 0,0 0,0 -0.29608,0.26748 -0.75988,0.60006 -1.37575,0.96965 0,0 0,0 0,0 -1.201,0.72079 -2.99263,1.59104 -5.26004,2.37727 0,0 0,0 0,0 -3.14366,1.09348 -7.27617,2.04075 -11.81342,2.0072 -1.79727,-0.0133 -3.54238,-0.18085 -5.18608,-0.48376 -4.08504,-0.9677 -7.603,-1.91637 -10.06914,-2.70208 -2.46615,-0.7857 -3.88075,-1.40851 -3.80594,-1.73954 0,0 0,0 0,0 0,-1e-5 0,-1e-5 0,-1e-5 0,0 0,0 0,0 0,0 0,0 0,0 0.004,-0.0126 0.004,-0.0124 0.004,-0.0124 0,0 -1.1e-4,5e-5 0.005,-0.0121 0,0 0,0 0,0 0,0 0,0 0,0 0,0 0,0 0,0 0,0 0,0 0,0 0.14975,-0.31498 1.76282,-0.28902 4.32722,0.003 2.5644,0.29224 6.07988,0.85068 10.0813,1.61575 1.49268,0.21982 3.07197,0.33918 4.71002,0.34747 4.13528,0.0209 7.99918,-0.65538 11.08668,-1.33977 0,0 0,0 0,0 2.2323,-0.49763 4.06561,-1.00999 5.38255,-1.34499 0,0 0,0 0,0 0.67539,-0.17186 1.21252,-0.29634 1.59865,-0.35192 0,0 0,0 0,0 0,0 0,0 0,0 0.19528,-0.0281 0.35113,-0.0382 0.46642,-0.0279 0,0 0,0 0,0 0,0 0,0 0,0 0,0 0,0 0,0 0.0581,0.005 0.10575,0.0156 0.14274,0.0316 0.0384,0.0167 0.0656,0.0393 0.0805,0.0685 z"
         style="fill:#000000;fill-rule:evenodd;stroke:none" />
      <path
         inkscape:connector-curvature="0"
         inkscape:original-d="m 428.70881,333.51043 c 0,0 -11.61676,-6.06092 -23.73859,-4.04061 -12.12183,2.0203 -14.14213,3.03046 -14.14213,3.03046"
         inkscape:path-effect="#path-effect8942-2-6-45"
         id="path8940-7-3-9"
         d="m 428.70875,333.5104 c -0.0149,0.0293 -0.0421,0.0519 -0.0805,0.0686 -0.037,0.016 -0.0846,0.0264 -0.14274,0.0315 0,0 0,0 0,0 0,0 0,0 0,0 0,0 0,0 0,0 -0.11529,0.0103 -0.27114,2.5e-4 -0.46642,-0.0279 0,0 0,0 0,0 0,0 0,0 0,0 -0.38613,-0.0556 -0.92326,-0.18006 -1.59865,-0.35192 0,0 0,0 0,0 -1.31694,-0.335 -3.15025,-0.84736 -5.38255,-1.34499 0,0 0,0 0,0 -3.0875,-0.68439 -6.9514,-1.36071 -11.08668,-1.33977 -1.63805,0.008 -3.21734,0.12765 -4.71002,0.34747 -4.00142,0.76507 -7.5169,1.32351 -10.0813,1.61575 -2.5644,0.29224 -4.17747,0.3182 -4.32722,0.003 0,0 0,0 0,0 0,0 0,0 0,0 0,0 0,0 0,0 0,0 0,0 0,0 -0.005,-0.0122 -0.005,-0.0121 -0.005,-0.0121 0,0 -1.1e-4,1.6e-4 -0.004,-0.0124 0,0 0,0 0,0 0,0 0,0 0,0 0,0 0,0 0,-1e-5 0,0 0,0 0,0 -0.0748,-0.33103 1.33979,-0.95384 3.80594,-1.73954 2.46614,-0.78571 5.9841,-1.73438 10.06914,-2.70208 1.6437,-0.30291 3.38881,-0.47047 5.18608,-0.48376 4.53725,-0.0335 8.66976,0.91372 11.81342,2.0072 0,0 0,0 0,0 2.26741,0.78623 4.05904,1.65648 5.26004,2.37727 0,0 0,0 0,0 0.61587,0.36959 1.07967,0.70217 1.37575,0.96965 0,0 0,0 0,0 0,0 0,0 0,0 0.14973,0.13526 0.2574,0.25435 0.32055,0.35357 0,0 0,0 0,0 0,0 0,0 0,0 0,0 0,0 0,0 0.0316,0.0498 0.0522,0.0948 0.0615,0.13437 0.01,0.0411 0.007,0.0766 -0.008,0.10589 z"
         style="fill:#000000;fill-rule:evenodd;stroke:none" />
    </g>
  </g>
</svg>
