<?xml version="1.0" encoding="UTF-8" standalone="no"?>
<!-- Created with Inkscape (http://www.inkscape.org/) -->

<svg
   xmlns:dc="http://purl.org/dc/elements/1.1/"
   xmlns:cc="http://creativecommons.org/ns#"
   xmlns:rdf="http://www.w3.org/1999/02/22-rdf-syntax-ns#"
   xmlns:svg="http://www.w3.org/2000/svg"
   xmlns="http://www.w3.org/2000/svg"
   xmlns:sodipodi="http://sodipodi.sourceforge.net/DTD/sodipodi-0.dtd"
   xmlns:inkscape="http://www.inkscape.org/namespaces/inkscape"
   width="108.13612"
   height="125.09428"
   id="svg3833"
   version="1.1"
   inkscape:version="0.48.3.1 r9886"
   sodipodi:docname="ojos_5.svg">
  <defs
     id="defs3835">
    <inkscape:path-effect
       effect="skeletal"
       id="path-effect5212"
       is_visible="true"
       pattern="m -13072.977,1809.4791 c 0,-2.76 2.24,-5 5,-5 2.76,0 5,2.24 5,5 0,2.76 -2.24,5 -5,5 -2.76,0 -5,-2.24 -5,-5 z"
       copytype="single_stretched"
       prop_scale="1"
       scale_y_rel="false"
       spacing="0"
       normal_offset="0"
       tang_offset="0"
       prop_units="false"
       vertical_pattern="false"
       fuse_tolerance="0" />
    <inkscape:path-effect
       effect="skeletal"
       id="path-effect5216"
       is_visible="true"
       pattern="m -13093.18,1767.0526 c 0,-2.76 2.24,-5 5,-5 2.76,0 5,2.24 5,5 0,2.76 -2.24,5 -5,5 -2.76,0 -5,-2.24 -5,-5 z"
       copytype="single_stretched"
       prop_scale="1"
       scale_y_rel="false"
       spacing="0"
       normal_offset="0"
       tang_offset="0"
       prop_units="false"
       vertical_pattern="false"
       fuse_tolerance="0" />
    <inkscape:path-effect
       effect="skeletal"
       id="path-effect5302"
       is_visible="true"
       pattern="m -13072.977,1809.4791 c 0,-2.76 2.24,-5 5,-5 2.76,0 5,2.24 5,5 0,2.76 -2.24,5 -5,5 -2.76,0 -5,-2.24 -5,-5 z"
       copytype="single_stretched"
       prop_scale="1"
       scale_y_rel="false"
       spacing="0"
       normal_offset="0"
       tang_offset="0"
       prop_units="false"
       vertical_pattern="false"
       fuse_tolerance="0" />
    <inkscape:path-effect
       effect="skeletal"
       id="path-effect4225-0"
       is_visible="true"
       pattern="m -4996.4247,55.333481 c 0,-2.76 2.24,-5 5,-5 2.76,0 5,2.24 5,5 0,2.76 -2.24,5 -5,5 -2.76,0 -5,-2.24 -5,-5 z"
       copytype="single_stretched"
       prop_scale="1"
       scale_y_rel="false"
       spacing="0"
       normal_offset="0"
       tang_offset="0"
       prop_units="false"
       vertical_pattern="false"
       fuse_tolerance="0" />
    <inkscape:path-effect
       effect="skeletal"
       id="path-effect4233-0"
       is_visible="true"
       pattern="m -4990.3638,53.313176 c 0,-2.76 2.24,-5 5,-5 2.76,0 5,2.24 5,5 0,2.76 -2.24,5 -5,5 -2.76,0 -5,-2.24 -5,-5 z"
       copytype="single_stretched"
       prop_scale="1"
       scale_y_rel="false"
       spacing="0"
       normal_offset="0"
       tang_offset="0"
       prop_units="false"
       vertical_pattern="false"
       fuse_tolerance="0" />
    <inkscape:path-effect
       effect="skeletal"
       id="path-effect5021"
       is_visible="true"
       pattern="m 1.4285717,0.71428529 c 0,-2.75999999 2.24,-4.99999999 5,-4.99999999 2.76,0 5.0000003,2.24 5.0000003,4.99999999 0,2.76000001 -2.2400003,5.00000041 -5.0000003,5.00000041 -2.76,0 -5,-2.2400004 -5,-5.00000041 z"
       copytype="single_stretched"
       prop_scale="1"
       scale_y_rel="false"
       spacing="0"
       normal_offset="0"
       tang_offset="0"
       prop_units="false"
       vertical_pattern="false"
       fuse_tolerance="0" />
    <inkscape:path-effect
       effect="skeletal"
       id="path-effect5259"
       is_visible="true"
       pattern="m -10418.352,-1410.4113 c 0,-2.76 2.24,-5 5,-5 2.76,0 5,2.24 5,5 0,2.76 -2.24,5 -5,5 -2.76,0 -5,-2.24 -5,-5 z"
       copytype="single_stretched"
       prop_scale="1"
       scale_y_rel="false"
       spacing="0"
       normal_offset="0"
       tang_offset="0"
       prop_units="false"
       vertical_pattern="false"
       fuse_tolerance="0" />
    <inkscape:path-effect
       effect="skeletal"
       id="path-effect5263"
       is_visible="true"
       pattern="m -10564.143,-1410.9609 c 0,-2.76 2.24,-5 5,-5 2.76,0 5,2.24 5,5 0,2.76 -2.24,5 -5,5 -2.76,0 -5,-2.24 -5,-5 z"
       copytype="single_stretched"
       prop_scale="1"
       scale_y_rel="false"
       spacing="0"
       normal_offset="0"
       tang_offset="0"
       prop_units="false"
       vertical_pattern="false"
       fuse_tolerance="0" />
    <inkscape:path-effect
       effect="skeletal"
       id="path-effect5224"
       is_visible="true"
       pattern="m -10426.454,-1412.267 c 0,-2.76 2.24,-5 5,-5 2.76,0 5,2.24 5,5 0,2.76 -2.24,5 -5,5 -2.76,0 -5,-2.24 -5,-5 z"
       copytype="single_stretched"
       prop_scale="1"
       scale_y_rel="false"
       spacing="0"
       normal_offset="0"
       tang_offset="0"
       prop_units="false"
       vertical_pattern="false"
       fuse_tolerance="0" />
    <inkscape:path-effect
       effect="skeletal"
       id="path-effect5228"
       is_visible="true"
       pattern="m -10549.858,-1407.3895 c 0,-2.76 2.24,-5 5,-5 2.76,0 5,2.24 5,5 0,2.76 -2.24,5 -5,5 -2.76,0 -5,-2.24 -5,-5 z"
       copytype="single_stretched"
       prop_scale="1"
       scale_y_rel="false"
       spacing="0"
       normal_offset="0"
       tang_offset="0"
       prop_units="false"
       vertical_pattern="false"
       fuse_tolerance="0" />
    <inkscape:path-effect
       effect="skeletal"
       id="path-effect5337"
       is_visible="true"
       pattern="m -10458.758,-1444.7564 c 0,-2.76 2.24,-5 5,-5 2.76,0 5,2.24 5,5 0,2.76 -2.24,5 -5,5 -2.76,0 -5,-2.24 -5,-5 z"
       copytype="single_stretched"
       prop_scale="1"
       scale_y_rel="false"
       spacing="0"
       normal_offset="0"
       tang_offset="0"
       prop_units="false"
       vertical_pattern="false"
       fuse_tolerance="0" />
    <inkscape:path-effect
       effect="skeletal"
       id="path-effect5341"
       is_visible="true"
       pattern="m -10487.33,-1439.0422 c 0,-2.76 2.24,-5 5,-5 2.76,0 5,2.24 5,5 0,2.76 -2.24,5 -5,5 -2.76,0 -5,-2.24 -5,-5 z"
       copytype="single_stretched"
       prop_scale="1"
       scale_y_rel="false"
       spacing="0"
       normal_offset="0"
       tang_offset="0"
       prop_units="false"
       vertical_pattern="false"
       fuse_tolerance="0" />
  </defs>
  <sodipodi:namedview
     id="base"
     pagecolor="#ffffff"
     bordercolor="#666666"
     borderopacity="1.0"
     inkscape:pageopacity="0.0"
     inkscape:pageshadow="2"
     inkscape:zoom="1.4"
     inkscape:cx="-53.554239"
     inkscape:cy="69.762546"
     inkscape:document-units="px"
     inkscape:current-layer="layer1"
     showgrid="false"
     fit-margin-top="0"
     fit-margin-left="0"
     fit-margin-right="0"
     fit-margin-bottom="0"
     inkscape:window-width="1914"
     inkscape:window-height="1030"
     inkscape:window-x="0"
     inkscape:window-y="25"
     inkscape:window-maximized="1" />
  <metadata
     id="metadata3838">
    <rdf:RDF>
      <cc:Work
         rdf:about="">
        <dc:format>image/svg+xml</dc:format>
        <dc:type
           rdf:resource="http://purl.org/dc/dcmitype/StillImage" />
        <dc:title />
      </cc:Work>
    </rdf:RDF>
  </metadata>
  <g
     inkscape:label="Capa 1"
     inkscape:groupmode="layer"
     id="layer1"
     transform="translate(-819.79352,-357.416)">
    <g
       id="g3015">
      <path
         id="path3211-8"
         d="m 833.0169,427.33827 c -2.83631,4.67718 -4.46875,10.1618 -4.46875,16.03125 0,17.10301 13.86574,30.96875 30.96875,30.96875 17.10301,0 30.96875,-13.86574 30.96875,-30.96875 0,-3.96859 -0.76474,-7.76289 -2.125,-11.25 l -55.34375,-4.78125 z"
         style="fill:#c8ab37;fill-opacity:1;stroke:#000000;stroke-width:3.12821341;stroke-miterlimit:4;stroke-opacity:1;stroke-dasharray:none"
         inkscape:connector-curvature="0" />
      <path
         transform="matrix(0.62564266,0,0,0.62564266,-481.6509,-196.8425)"
         sodipodi:end="11.897713"
         sodipodi:start="5.6167468"
         d="m 2163.3749,1005.9204 c 8.2916,10.5427 6.4666,25.8109 -4.0761,34.1025 -10.5427,8.2915 -25.8109,6.4666 -34.1024,-4.0761 -8.2916,-10.5427 -6.4667,-25.8109 4.076,-34.1025 10.5262,-8.27852 25.7672,-6.474 34.0691,4.0338 l -19.0559,15.0555 z"
         sodipodi:ry="24.285713"
         sodipodi:rx="24.285713"
         sodipodi:cy="1020.9336"
         sodipodi:cx="2144.2856"
         id="path3396-0-7"
         style="fill:#000000;fill-opacity:1;fill-rule:evenodd;stroke:none"
         sodipodi:type="arc" />
      <path
         inkscape:connector-curvature="0"
         inkscape:original-d="m 927.8617,391.6148 c 0,0 -53.0876,-30.3358 -69.5195,-30.3358 -16.4318,0 -16.4318,0 -16.4318,0"
         inkscape:path-effect="#path-effect5263"
         id="path5261"
         d="m 927.86169,391.61479 c -1.04728,1.97462 -13.94848,-2.72404 -30.78495,-10.93056 0,0 -10e-6,-1e-5 -10e-6,-1e-5 -3.97628,-1.7981 -8.17038,-3.73415 -12.51123,-5.68844 -3.51612,-1.58298 -6.92634,-3.08315 -10.19655,-4.46371 -3.37769,-1.42371 -6.53253,-2.70135 -9.48717,-3.70998 0,0 0,0 0,0 -2.56006,-0.8316 -4.67865,-1.53835 -6.53958,-1.72442 0,0 0,0 0,0 -6.43822,-0.58763 -11.37226,-1.36122 -14.08761,-2.24369 0,0 0,0 0,0 -0.92045,-0.29914 -1.58595,-0.61079 -1.96867,-0.93195 0,0 0,0 0,0 -0.13807,-0.11586 -0.23934,-0.23296 -0.3025,-0.35115 0,0 0,0 0,0 0,0 0,0 0,0 -0.0232,-0.2178 -0.0413,-0.25682 -0.0542,-0.27702 -0.009,-0.0139 -0.0135,-0.0141 -0.0174,-0.0146 -0.003,-4e-4 -0.001,-2.4e-4 -0.001,-2.4e-4 0,0 -0.001,1.6e-4 0.001,-2.4e-4 0.004,-5e-4 0.009,-6.9e-4 0.0174,-0.0146 0.0129,-0.0202 0.0309,-0.0592 0.0542,-0.27702 0,0 0,0 0,0 0,0 0,0 0,0 0.0632,-0.11819 0.16443,-0.23529 0.3025,-0.35115 0,0 0,0 0,0 0.38272,-0.32116 1.04822,-0.63281 1.96867,-0.93195 0,0 0,0 0,0 2.71535,-0.88247 7.64939,-1.65606 14.08761,-2.24369 0,0 0,0 0,0 2.96394,-0.18607 6.03012,0.23321 8.86531,0.8812 3.46539,0.75201 7.06332,1.85214 10.68527,3.15969 3.53379,1.27435 7.16709,2.75475 10.83369,4.40501 4.52661,2.03734 8.7804,4.18231 12.69955,6.29094 0,0 0,0 0,0 16.32252,9.38007 27.48295,17.44301 26.43567,19.41762 z"
         style="fill:#000000;fill-rule:evenodd;stroke:none" />
      <path
         sodipodi:nodetypes="cssc"
         inkscape:connector-curvature="0"
         inkscape:original-d="m 902.44,388.2471 c 0,0 8.9379,34.8572 8.9379,42.0074 0,7.1502 -54.5204,-7.1502 -75.9705,-3.5751 -21.4508,3.5751 -8.0438,-33.0696 -8.0438,-33.0696"
         inkscape:path-effect="#path-effect5228"
         id="path5226"
         d="m 902.44001,388.24712 c 0.0426,-0.0109 0.0874,-0.0127 0.13429,-0.006 0.0454,0.007 0.0928,0.0218 0.14217,0.045 0.0978,0.0461 0.20324,0.12446 0.31607,0.23436 0,0 0,0 0,0 0.22146,0.21579 0.47137,0.55326 0.74733,1.00662 0,0 0,1e-5 0,1e-5 0.5289,0.86888 1.15383,2.16418 1.8573,3.84648 0,0 0,0 0,0 1.25413,2.99906 2.76278,7.22906 4.39802,12.48276 0,0 0,0 0,0 1.2681,4.07207 2.63123,8.76967 3.91169,14.0465 0,0 0,0 0,0 0.44976,1.85077 0.8949,3.80057 1.27916,5.86432 0,0 0,0 0,0 0.24808,1.24451 0.50527,2.72577 0.56674,4.48711 0,0 0,0 0,0 -0.19601,2.18127 -1.0553,3.8093 -2.4421,4.72608 0,0 0,0 0,0 0,0 -10e-6,0 -10e-6,1e-5 0,0 0,0 0,0 -1.44617,0.92589 -2.66175,1.36853 -3.48936,1.45726 0,0 0,0 0,0 -2.76694,0.55757 -5.35593,0.5553 -7.57732,0.45053 0,0 0,0 0,0 -7.00061,-0.21298 -14.23903,-1.1812 -21.52355,-2.14599 -2.3344,-0.30652 -4.68932,-0.62505 -7.06098,-0.94474 -6.16093,-0.83048 -12.11033,-1.61789 -17.80614,-2.20796 -3.86169,-0.39905 -7.56727,-0.71338 -11.10888,-0.83641 0,0 0,0 0,0 -3.13225,-0.0973 -6.02429,-0.10117 -8.65714,0.24547 0,0 0,0 0,0 -2.68077,0.461 -5.75237,0.28209 -8.72522,-0.86842 -2.54389,-1.11253 -4.45053,-2.95695 -5.6367,-5.10118 0,0 0,0 0,0 -1.26379,-2.38551 -1.75872,-4.70634 -1.88956,-6.76052 0,0 0,-10e-6 0,-10e-6 0,0 0,0 0,0 -0.19966,-2.58904 -0.0119,-4.92759 0.30425,-7.01451 0,0 0,0 0,0 0.40534,-2.70976 1.00185,-5.09442 1.64071,-7.16682 0.63885,-2.0724 1.32131,-3.83293 1.96281,-5.28983 0,0 0,0 0,0 0.76188,-1.73632 1.4788,-3.05169 2.08016,-3.92516 0,0 0,0 0,0 0.32,-0.46481 0.60858,-0.80621 0.85737,-1.01874 0,0 0,0 0,0 0,0 0,0 0,0 0.23578,-0.0706 0.3827,-0.1358 0.47684,-0.18125 0,0 0,0 0,0 0,0 0,0 0,0 0.0746,-0.0131 0.11595,-0.0283 0.13866,-0.0405 0,0 0,0 0,0 0.0114,-0.006 0.0181,-0.0115 0.022,-0.0154 0.005,-0.007 0.005,-0.007 0.005,-0.007 0,0 10e-6,-1e-5 0.002,8.4e-4 -0.002,0.0128 -5e-4,0.0212 0.004,0.0332 0,0 0,0 0,0 0.01,0.0238 0.0319,0.0617 0.0814,0.11906 0,0 0,0 0,0 0,0 0,0 0,0 0.0445,0.0935 0.11865,0.23413 0.26019,0.43484 0,0 0,0 0,0 0,0 0,0 0,0 0.0653,0.31577 0.0889,0.75114 0.0774,1.30268 0,0 0,0 0,0 -0.0216,1.03638 -0.167,2.47634 -0.37208,4.28752 0,0 0,0 0,0 -0.17176,1.52672 -0.39245,3.31161 -0.58159,5.31752 -0.18914,2.00592 -0.348,4.23286 -0.33447,6.63335 0.0146,1.84555 0.10738,3.74816 0.49643,5.5819 0,0 0,0 0,0 0,0 0,0 0,0 0.33536,1.44824 0.73441,2.7995 1.44359,3.69874 0,0 0,0 0,0 0.51255,0.68393 1.24732,1.25823 1.9672,1.42173 0.98888,0.3984 2.48961,0.20296 4.27918,-0.0811 0,0 0,0 0,0 3.35861,-0.65196 6.80294,-0.88058 10.18862,-0.91364 0,0 0,0 0,0 3.88437,-0.0499 7.86346,0.12915 11.88465,0.43443 5.93831,0.4494 12.05688,1.16742 18.27447,2.00521 2.39348,0.32251 4.75343,0.6552 7.07719,0.98678 7.39035,1.04548 14.26586,2.18457 20.65143,2.65805 2.19167,0.12155 3.98054,0.30054 5.36149,0.0455 0.4229,-0.15625 0.46903,-0.0464 0.0447,0.14976 0,0 0,0 0,0 0,0 0,0 -10e-6,1e-5 0,0 0,0 0,0 -0.67023,0.40505 -1.01104,1.21817 -1.20705,2.5283 0,0 0,0 0,0 0.0615,-0.86769 -0.0738,-1.95614 -0.20068,-3.22413 0,0 0,0 0,0 -0.20426,-1.88012 -0.4719,-3.74071 -0.74418,-5.57285 0,0 0,0 0,0 -0.77496,-5.20717 -1.57668,-9.9611 -2.22924,-14.14843 0,0 0,0 0,0 -0.8402,-5.39144 -1.45652,-9.81704 -1.74601,-13.04418 0,0 0,0 0,0 -0.16235,-1.81003 -0.22311,-3.24213 -0.16992,-4.25572 0,0 0,0 0,0 0.0278,-0.52887 0.0865,-0.9436 0.17797,-1.23852 0,0 0,0 0,0 0.0466,-0.15028 0.1016,-0.26942 0.16532,-0.35664 0.0322,-0.044 0.0665,-0.0799 0.10314,-0.10759 0.0378,-0.0285 0.078,-0.0484 0.12059,-0.0593 z"
         style="fill:#000000;fill-rule:evenodd;stroke:none" />
      <path
         inkscape:connector-curvature="0"
         inkscape:original-d="m 831.825,476.4291 c 7.584,1.2639 54.3515,1.2639 54.3515,1.2639"
         inkscape:path-effect="#path-effect5341"
         id="path5339"
         d="m 831.825,476.4291 c 0.084,-0.50378 0.56496,-0.91554 1.34666,-1.29386 0.7817,-0.37831 1.86247,-0.74462 3.33054,-1.04759 0,0 0,0 0,0 1.90542,-0.41393 4.31863,-0.76751 7.14291,-1.03654 4.3778,-0.41803 9.67914,-0.63367 15.41013,-0.55341 0.95804,0.0134 1.90492,0.035 2.83818,0.0646 6.61255,0.20979 12.52245,0.81216 16.85779,1.67548 0,0 0,0 0,0 2.27488,0.45303 4.11516,0.9775 5.39488,1.55287 0,0 0,0 0,0 0.64973,0.29213 1.15475,0.59738 1.49869,0.91301 0,0 0,0 0,0 0.17305,0.15881 0.30527,0.32025 0.39459,0.48398 0,0 0,0 0,0 0,0 0,0 0,0 0.0448,0.19291 0.0788,0.30548 0.1017,0.37615 0,0 0,0 0,0 0,0 0,0 0,0 0.0115,0.0628 0.0202,0.0952 0.0261,0.11179 0.009,0.0174 0.009,0.0174 0.009,0.0174 0,0 10e-6,4e-5 -2e-5,0.0174 -0.0152,0.0166 -0.024,0.049 -0.0355,0.11178 0,0 0,0 0,0 0,0 0,0 0,0 -0.023,0.0707 -0.0571,0.18321 -0.10208,0.37608 0,0 0,0 0,0 0,0 0,0 0,0 -0.0896,0.16365 -0.22231,0.32493 -0.39593,0.48343 0,0 0,0 0,0 -0.34508,0.31502 -0.85206,0.61902 -1.50418,0.90866 0,0 0,0 0,0 -1.28442,0.57047 -3.13273,1.08522 -5.41778,1.51822 0,0 0,0 0,0 -4.35428,0.82516 -10.29839,1.35494 -16.952,1.39879 -0.93759,0.006 -1.88966,0.003 -2.85373,-0.0105 -5.7671,-0.0807 -11.13281,-0.52422 -15.53823,-1.22874 -2.83619,-0.45367 -5.30091,-1.0194 -7.20786,-1.66344 0,0 0,0 0,0 -1.38972,-0.47545 -2.57281,-0.99981 -3.33047,-1.55389 -0.75766,-0.55408 -1.09771,-1.11789 -1.01375,-1.62167 z"
         style="fill:#000000;fill-rule:evenodd;stroke:none" />
    </g>
  </g>
</svg>
