<?xml version="1.0" encoding="UTF-8" standalone="no"?>
<!-- Created with Inkscape (http://www.inkscape.org/) -->

<svg
   xmlns:dc="http://purl.org/dc/elements/1.1/"
   xmlns:cc="http://creativecommons.org/ns#"
   xmlns:rdf="http://www.w3.org/1999/02/22-rdf-syntax-ns#"
   xmlns:svg="http://www.w3.org/2000/svg"
   xmlns="http://www.w3.org/2000/svg"
   xmlns:sodipodi="http://sodipodi.sourceforge.net/DTD/sodipodi-0.dtd"
   xmlns:inkscape="http://www.inkscape.org/namespaces/inkscape"
   width="31.625191"
   height="40.388172"
   id="svg3644"
   version="1.1"
   inkscape:version="0.48.3.1 r9886"
   sodipodi:docname="ojos_4.svg">
  <defs
     id="defs3646" />
  <sodipodi:namedview
     id="base"
     pagecolor="#ffffff"
     bordercolor="#666666"
     borderopacity="1.0"
     inkscape:pageopacity="0.0"
     inkscape:pageshadow="2"
     inkscape:zoom="1.979899"
     inkscape:cx="105.54542"
     inkscape:cy="-50.82083"
     inkscape:document-units="px"
     inkscape:current-layer="layer1"
     showgrid="false"
     fit-margin-top="0"
     fit-margin-left="0"
     fit-margin-right="0"
     fit-margin-bottom="0"
     inkscape:window-width="1914"
     inkscape:window-height="1030"
     inkscape:window-x="0"
     inkscape:window-y="25"
     inkscape:window-maximized="1" />
  <metadata
     id="metadata3649">
    <rdf:RDF>
      <cc:Work
         rdf:about="">
        <dc:format>image/svg+xml</dc:format>
        <dc:type
           rdf:resource="http://purl.org/dc/dcmitype/StillImage" />
        <dc:title />
      </cc:Work>
    </rdf:RDF>
  </metadata>
  <g
     inkscape:label="Capa 1"
     inkscape:groupmode="layer"
     id="layer1"
     transform="translate(-601.73776,-306.27707)">
    <g
       id="g3011">
      <path
         sodipodi:nodetypes="cccccscc"
         inkscape:connector-curvature="0"
         id="path4859-2-0-7-5-1-8-0-9"
         d="m 631.92249,319.03185 -13.84272,-4.35332 -9.87338,0.77944 -5.25553,0.95086 1.77798,11.06756 c 0,0 7.01299,6.41348 10.75816,6.78542 3.74511,0.37191 14.13081,-4.3953 14.13081,-4.3953 l 3.74514,-9.71887"
         style="opacity:0.9;fill:#ffffff;stroke:none;display:inline" />
      <path
         id="path2991-9-3-7-9-3"
         d="m 625.25296,323.78856 c 0,4.45561 -3.61198,8.0676 -8.0676,8.0676 -4.45561,0 -8.0676,-3.61199 -8.0676,-8.0676 0,-4.45561 3.61199,-8.0676 8.0676,-8.0676 4.45562,0 8.0676,3.61199 8.0676,8.0676 z"
         style="opacity:0.9;fill:#000000;fill-opacity:1;stroke:none;display:inline"
         inkscape:connector-curvature="0" />
      <path
         inkscape:connector-curvature="0"
         id="path4972-7"
         d="m 628.17739,330.18069 c 0,0 -5.28792,15.51124 -7.40312,15.86379 -2.1151,0.35252 -15.5112,-1.05758 -17.27389,-8.81322 -1.76262,-7.7556 -1.76262,-9.1657 -1.76262,-9.1657 0,0 9.51826,4.93537 13.39607,6.3455 3.87782,1.4101 13.04356,-4.23037 13.04356,-4.23037 z"
         style="opacity:0.9;fill:#b3b3b3;fill-rule:evenodd;stroke:none;display:inline" />
      <path
         id="path4909"
         d="m 611.3999,314.39382 c 0,-0.0233 0.005,-0.0463 0.012,-0.0691 0.007,-0.0221 0.0162,-0.0439 0.0285,-0.0655 0,0 0,0 0,0 0.0244,-0.043 0.0597,-0.085 0.10531,-0.12583 0,0 0,0 0,0 0,0 0,0 0,0 0.0905,-0.0809 0.22238,-0.15733 0.39188,-0.22826 0,0 0,0 0,0 0.33065,-0.13835 0.80673,-0.25566 1.40329,-0.34212 0,0 0,0 0,0 1.11064,-0.16119 2.64785,-0.21946 4.45227,-0.0755 0,0 0,0 0,0 1.52153,0.11818 3.27084,0.37868 5.09366,0.97277 0.009,0.003 0.0172,0.006 0.0258,0.008 0.752,0.2447 1.50833,0.56062 2.22477,0.96869 0.65721,0.3868 1.32305,0.92458 1.88746,1.61399 0.99113,1.98103 1.73477,3.71847 2.1392,4.98199 0.40443,1.26352 0.4699,2.05357 0.13804,2.20167 -0.005,0.002 -0.005,0.002 -0.005,0.002 0,0 0,10e-6 -0.005,0.002 -0.33955,0.13466 -1.02172,-0.3837 -1.88409,-1.33701 -0.86233,-0.95331 -1.90458,-2.34111 -2.9975,-4.00717 -0.16834,-0.16549 -0.48235,-0.30394 -0.88276,-0.49113 -0.49334,-0.24849 -1.06384,-0.45921 -1.69254,-0.67032 -0.007,-0.002 -0.0144,-0.005 -0.0217,-0.007 -1.53312,-0.50907 -3.0835,-0.8575 -4.49274,-1.19441 0,0 0,0 0,0 -1.65789,-0.39367 -3.0912,-0.7349 -4.13217,-1.06892 0,0 0,0 0,0 -0.55874,-0.17926 -1.00265,-0.35501 -1.30909,-0.52956 0,0 0,0 0,0 -0.15709,-0.0895 -0.27753,-0.17862 -0.35857,-0.26757 0,0 0,0 0,0 0,0 0,0 0,0 -0.041,-0.045 -0.0719,-0.0899 -0.0922,-0.13475 0,0 0,0 0,0 -0.0103,-0.0225 -0.0179,-0.0451 -0.0223,-0.0677 -0.005,-0.0233 -0.007,-0.0465 -0.006,-0.0698 z"
         style="opacity:0.9;fill:#000000;fill-rule:evenodd;stroke:none;display:inline"
         inkscape:connector-curvature="0" />
      <path
         id="path4917"
         d="m 623.03291,306.3402 c 0.57693,-0.42639 2.64929,1.34274 5.10267,4.22978 0,0 0,0 0,0 0.76696,0.97762 1.56379,2.11114 2.28831,3.39558 0.19299,0.34211 0.3759,0.68645 0.54757,1.03173 0.32446,0.58456 0.64149,1.26144 0.86174,1.99579 0.22025,0.73435 0.34317,1.52541 0.32357,2.32242 0,0 0,0 0,0 -0.072,0.89646 -0.21898,1.72478 -0.41664,2.44125 -0.19769,0.71648 -0.44507,1.32092 -0.70118,1.78857 0,0 0,0 0,0 -0.24126,0.4401 -0.49668,0.76733 -0.72453,0.958 0,0 0,0 0,0 -0.11208,0.0938 -0.21897,0.15772 -0.31473,0.18797 0,0 0,0 0,0 0,0 0,0 0,0 -0.0482,0.0162 -0.0936,0.0241 -0.1355,0.0231 0,0 0,0 0,0 0,0 0,0 0,0 -0.10816,-0.0347 -0.11899,-0.0305 -0.11985,-0.0298 0,0 0,0 0,0 0,0 0,0 0,0 0,0 0,0 0,0 -4e-5,5e-5 -4e-5,3e-5 -4e-5,3e-5 0,0 0,2e-5 0,-6e-5 0,0 0,0 0,0 0,0 0,0 0,0 0,0 0,0 0,0 4e-5,-10e-4 -0.003,-0.0122 -0.098,-0.0754 0,0 0,0 0,0 0,0 0,0 0,0 -0.0282,-0.0301 -0.054,-0.0653 -0.0775,-0.10585 0,0 0,0 0,0 0,0 0,0 0,0 -0.0459,-0.084 -0.0823,-0.18994 -0.11065,-0.32017 0,0 0,0 0,0 -0.0575,-0.26472 -0.0885,-0.61719 -0.10981,-1.05924 0,0 0,0 0,0 -0.0224,-0.46964 -0.0381,-1.02858 -0.071,-1.66664 -0.033,-0.63807 -0.0839,-1.35594 -0.15585,-2.14176 0,0 0,0 0,0 -0.0196,-0.34526 -0.15964,-0.7247 -0.3792,-1.17317 -0.21953,-0.44846 -0.51817,-0.96674 -0.81038,-1.57957 -0.15843,-0.29558 -0.32332,-0.59501 -0.49389,-0.89824 -0.6404,-1.13847 -1.30066,-2.22909 -1.89616,-3.25539 0,0 0,0 0,0 -2.01212,-3.15491 -3.08586,-5.64254 -2.50894,-6.06893 z"
         style="opacity:0.9;fill:#000000;fill-rule:evenodd;stroke:none;display:inline"
         inkscape:connector-curvature="0" />
      <path
         id="path4937-7"
         d="m 627.14009,329.84102 c 0.35393,0.27156 -0.10476,1.53485 -1.20216,3.45 0,0 0,0 0,0 -0.40072,0.42268 -0.89331,0.84159 -1.47625,1.21949 -0.58294,0.3779 -1.25638,0.71455 -2.00435,0.97066 -0.84751,0.25181 -1.76871,0.40379 -2.72486,0.44241 -0.95616,0.0386 -1.94691,-0.0362 -2.92493,-0.21608 -0.32628,-0.12319 -0.65576,-0.24958 -0.98779,-0.379 -3.32131,-1.29461 -6.26721,-2.64603 -8.30162,-3.76596 -2.0344,-1.11994 -3.15728,-2.00839 -2.94167,-2.42318 0,0 0,0 0,0 0,0 0,0 0,0 0,0 0,0 0,0 0,0 0,0 0,0 0,0 0,0 0,0 0,0 0,0 0,0 0,0 0,0 0,0 0,0 0,0 0,0 0,0 0,0 0,0 0,0 0,0 0,0 0.003,-0.003 0.003,-0.003 0.003,-0.003 0,0 0,0 0.003,-0.003 0,0 0,0 0,0 0,0 0,0 0,0 0,0 0,0 0,0 0,0 0,0 0,0 0,0 0,0 0,-10e-6 0,0 0,0 0,0 0,0 0,0 0,0 0,0 0,0 0,0 0,0 0,0 0,0 0,0 0,0 0,0 0.23008,-0.40914 1.73941,-0.27396 3.95019,0.25701 2.21078,0.53097 5.12309,1.45774 8.26827,2.67789 0.31445,0.12199 0.6254,0.24465 0.93243,0.36775 0.73268,0.13113 1.44012,0.21521 2.10568,0.23465 0.66556,0.0194 1.28932,-0.026 1.86562,-0.13861 0.99226,-0.1246 1.86965,-0.44969 2.57726,-0.84524 0,0 0,0 0,0 1.42382,-1.37083 2.50657,-2.11651 2.8605,-1.84495 z"
         style="opacity:0.9;fill:#000000;fill-rule:evenodd;stroke:none;display:inline"
         inkscape:connector-curvature="0" />
      <path
         id="path4941-9"
         d="m 622.83776,341.32339 c 0.0107,0.0215 0.0189,0.0441 0.0248,0.0677 0.006,0.0228 0.009,0.0465 0.0106,0.0711 0,0 0,0 0,0 0.003,0.049 -0.003,0.10169 -0.0175,0.15778 0,0 0,0 0,0 0,0 0,0 0,0 -0.0282,0.11086 -0.0891,0.23518 -0.18047,0.37068 0,0 0,10e-6 0,10e-6 0,0 0,0 0,0 -0.17751,0.26327 -0.4712,0.56951 -0.86604,0.90209 0,0 0,0 0,0 -0.72515,0.61108 -1.79559,1.31681 -3.13521,1.99354 0,0 0,0 0,0 -1.07532,0.54675 -2.3567,1.09707 -3.83457,1.47053 -0.004,10e-4 -0.009,0.002 -0.0137,0.004 -0.54784,0.1416 -1.15708,0.25078 -1.80769,0.28098 -0.43373,0.0716 -1.10434,-0.0138 -1.88581,-0.35371 0,0 0,0 0,0 -0.75626,-0.43056 -1.40755,-0.89124 -1.96904,-1.33862 -0.56149,-0.44738 -1.03379,-0.88163 -1.42726,-1.27921 0,0 0,0 0,0 -0.52363,-0.52455 -0.91342,-0.99925 -1.15045,-1.39106 0,0 0,0 0,0 -0.12741,-0.21061 -0.21093,-0.39762 -0.24689,-0.55609 0,0 0,0 0,0 -0.0186,-0.0815 -0.0244,-0.15551 -0.0175,-0.22135 0,0 0,0 0,0 0.003,-0.0334 0.0103,-0.0647 0.0206,-0.0938 0,0 0,0 0,0 0,0 0,0 0,0 0.0442,-0.0764 0.0438,-0.0836 0.0436,-0.0842 0,0 0,0 0,0 0,0 0,0 0,0 0,0 0,0 0,0 0,0 0,0 0,0 0,0 0,0 0,0 0,0 0,0 0,0 0,0 0,0 0,0 0,-3e-5 0,-3e-5 0,-3e-5 0,0 0,0 3e-5,0 0,0 0,0 0,0 0,0 0,0 0,0 0,0 0,0 0,0 0,0 0,0 0,0 0,0 0,0 0,0 0,0 0,0 0,0 0,0 0,0 0,0 0,4e-5 0.008,-0.002 0.0654,-0.0686 0,0 0,0 0,0 0,0 0,0 0,0 0.0241,-0.0193 0.0513,-0.0361 0.0814,-0.0506 0,0 0,0 0,0 0.0596,-0.0285 0.13089,-0.0477 0.2133,-0.058 0,0 0,0 0,0 0.16029,-0.02 0.36228,-0.006 0.60137,0.038 0,0 0,0 0,0 0.44483,0.0824 1.01677,0.27063 1.68543,0.54082 0,0 0,0 0,0 0.51686,0.20921 1.08385,0.47007 1.68357,0.75202 0.59969,0.28195 1.23156,0.58462 1.89083,0.86183 0,0 0,0 0,0 -0.16204,-0.0302 -0.0888,-0.10752 0.20038,-0.081 0.33701,-0.0314 0.7291,-0.12476 1.18741,-0.23383 0.004,-9e-4 0.008,-0.002 0.0113,-0.003 1.21725,-0.29994 2.40356,-0.69231 3.51434,-1.01977 0,0 0,0 0,0 1.36076,-0.40315 2.55446,-0.72176 3.47015,-0.87238 0,0 0,0 0,0 0.49809,-0.0819 0.91211,-0.11444 1.22464,-0.0885 0,0 0,0 0,0 0,0 0,0 0,0 0.16084,0.0134 0.29442,0.0424 0.39856,0.0881 0,0 0,0 0,0 0,0 0,0 0,0 0.0528,0.0231 0.0979,0.0505 0.13508,0.0824 0,0 0,0 0,0 0.0186,0.016 0.0354,0.0332 0.0501,0.0515 0.0151,0.019 0.0282,0.0393 0.0388,0.0608 z"
         style="opacity:0.9;fill:#000000;fill-rule:evenodd;stroke:none;display:inline"
         inkscape:connector-curvature="0" />
    </g>
  </g>
</svg>
