<?xml version="1.0" encoding="UTF-8" standalone="no"?>
<!-- Created with Inkscape (http://www.inkscape.org/) -->

<svg
   xmlns:dc="http://purl.org/dc/elements/1.1/"
   xmlns:cc="http://creativecommons.org/ns#"
   xmlns:rdf="http://www.w3.org/1999/02/22-rdf-syntax-ns#"
   xmlns:svg="http://www.w3.org/2000/svg"
   xmlns="http://www.w3.org/2000/svg"
   xmlns:sodipodi="http://sodipodi.sourceforge.net/DTD/sodipodi-0.dtd"
   xmlns:inkscape="http://www.inkscape.org/namespaces/inkscape"
   width="106.6368"
   height="145.43085"
   id="svg3833"
   version="1.1"
   inkscape:version="0.48.3.1 r9886"
   sodipodi:docname="ojos_7.svg">
  <defs
     id="defs3835">
    <inkscape:path-effect
       effect="skeletal"
       id="path-effect5212"
       is_visible="true"
       pattern="m -13072.977,1809.4791 c 0,-2.76 2.24,-5 5,-5 2.76,0 5,2.24 5,5 0,2.76 -2.24,5 -5,5 -2.76,0 -5,-2.24 -5,-5 z"
       copytype="single_stretched"
       prop_scale="1"
       scale_y_rel="false"
       spacing="0"
       normal_offset="0"
       tang_offset="0"
       prop_units="false"
       vertical_pattern="false"
       fuse_tolerance="0" />
    <inkscape:path-effect
       effect="skeletal"
       id="path-effect5216"
       is_visible="true"
       pattern="m -13093.18,1767.0526 c 0,-2.76 2.24,-5 5,-5 2.76,0 5,2.24 5,5 0,2.76 -2.24,5 -5,5 -2.76,0 -5,-2.24 -5,-5 z"
       copytype="single_stretched"
       prop_scale="1"
       scale_y_rel="false"
       spacing="0"
       normal_offset="0"
       tang_offset="0"
       prop_units="false"
       vertical_pattern="false"
       fuse_tolerance="0" />
    <inkscape:path-effect
       effect="skeletal"
       id="path-effect5302"
       is_visible="true"
       pattern="m -13072.977,1809.4791 c 0,-2.76 2.24,-5 5,-5 2.76,0 5,2.24 5,5 0,2.76 -2.24,5 -5,5 -2.76,0 -5,-2.24 -5,-5 z"
       copytype="single_stretched"
       prop_scale="1"
       scale_y_rel="false"
       spacing="0"
       normal_offset="0"
       tang_offset="0"
       prop_units="false"
       vertical_pattern="false"
       fuse_tolerance="0" />
    <inkscape:path-effect
       effect="skeletal"
       id="path-effect4225-0"
       is_visible="true"
       pattern="m -4996.4247,55.333481 c 0,-2.76 2.24,-5 5,-5 2.76,0 5,2.24 5,5 0,2.76 -2.24,5 -5,5 -2.76,0 -5,-2.24 -5,-5 z"
       copytype="single_stretched"
       prop_scale="1"
       scale_y_rel="false"
       spacing="0"
       normal_offset="0"
       tang_offset="0"
       prop_units="false"
       vertical_pattern="false"
       fuse_tolerance="0" />
    <inkscape:path-effect
       effect="skeletal"
       id="path-effect4233-0"
       is_visible="true"
       pattern="m -4990.3638,53.313176 c 0,-2.76 2.24,-5 5,-5 2.76,0 5,2.24 5,5 0,2.76 -2.24,5 -5,5 -2.76,0 -5,-2.24 -5,-5 z"
       copytype="single_stretched"
       prop_scale="1"
       scale_y_rel="false"
       spacing="0"
       normal_offset="0"
       tang_offset="0"
       prop_units="false"
       vertical_pattern="false"
       fuse_tolerance="0" />
    <inkscape:path-effect
       effect="skeletal"
       id="path-effect5021"
       is_visible="true"
       pattern="m 1.4285717,0.71428529 c 0,-2.75999999 2.24,-4.99999999 5,-4.99999999 2.76,0 5.0000003,2.24 5.0000003,4.99999999 0,2.76000001 -2.2400003,5.00000041 -5.0000003,5.00000041 -2.76,0 -5,-2.2400004 -5,-5.00000041 z"
       copytype="single_stretched"
       prop_scale="1"
       scale_y_rel="false"
       spacing="0"
       normal_offset="0"
       tang_offset="0"
       prop_units="false"
       vertical_pattern="false"
       fuse_tolerance="0" />
    <inkscape:path-effect
       effect="skeletal"
       id="path-effect5259"
       is_visible="true"
       pattern="m -10418.352,-1410.4113 c 0,-2.76 2.24,-5 5,-5 2.76,0 5,2.24 5,5 0,2.76 -2.24,5 -5,5 -2.76,0 -5,-2.24 -5,-5 z"
       copytype="single_stretched"
       prop_scale="1"
       scale_y_rel="false"
       spacing="0"
       normal_offset="0"
       tang_offset="0"
       prop_units="false"
       vertical_pattern="false"
       fuse_tolerance="0" />
    <inkscape:path-effect
       effect="skeletal"
       id="path-effect5263"
       is_visible="true"
       pattern="m -10564.143,-1410.9609 c 0,-2.76 2.24,-5 5,-5 2.76,0 5,2.24 5,5 0,2.76 -2.24,5 -5,5 -2.76,0 -5,-2.24 -5,-5 z"
       copytype="single_stretched"
       prop_scale="1"
       scale_y_rel="false"
       spacing="0"
       normal_offset="0"
       tang_offset="0"
       prop_units="false"
       vertical_pattern="false"
       fuse_tolerance="0" />
    <inkscape:path-effect
       effect="skeletal"
       id="path-effect5224"
       is_visible="true"
       pattern="m -10426.454,-1412.267 c 0,-2.76 2.24,-5 5,-5 2.76,0 5,2.24 5,5 0,2.76 -2.24,5 -5,5 -2.76,0 -5,-2.24 -5,-5 z"
       copytype="single_stretched"
       prop_scale="1"
       scale_y_rel="false"
       spacing="0"
       normal_offset="0"
       tang_offset="0"
       prop_units="false"
       vertical_pattern="false"
       fuse_tolerance="0" />
    <inkscape:path-effect
       effect="skeletal"
       id="path-effect5228"
       is_visible="true"
       pattern="m -10549.858,-1407.3895 c 0,-2.76 2.24,-5 5,-5 2.76,0 5,2.24 5,5 0,2.76 -2.24,5 -5,5 -2.76,0 -5,-2.24 -5,-5 z"
       copytype="single_stretched"
       prop_scale="1"
       scale_y_rel="false"
       spacing="0"
       normal_offset="0"
       tang_offset="0"
       prop_units="false"
       vertical_pattern="false"
       fuse_tolerance="0" />
    <inkscape:path-effect
       effect="skeletal"
       id="path-effect5337"
       is_visible="true"
       pattern="m -10458.758,-1444.7564 c 0,-2.76 2.24,-5 5,-5 2.76,0 5,2.24 5,5 0,2.76 -2.24,5 -5,5 -2.76,0 -5,-2.24 -5,-5 z"
       copytype="single_stretched"
       prop_scale="1"
       scale_y_rel="false"
       spacing="0"
       normal_offset="0"
       tang_offset="0"
       prop_units="false"
       vertical_pattern="false"
       fuse_tolerance="0" />
    <inkscape:path-effect
       effect="skeletal"
       id="path-effect5341"
       is_visible="true"
       pattern="m -10487.33,-1439.0422 c 0,-2.76 2.24,-5 5,-5 2.76,0 5,2.24 5,5 0,2.76 -2.24,5 -5,5 -2.76,0 -5,-2.24 -5,-5 z"
       copytype="single_stretched"
       prop_scale="1"
       scale_y_rel="false"
       spacing="0"
       normal_offset="0"
       tang_offset="0"
       prop_units="false"
       vertical_pattern="false"
       fuse_tolerance="0" />
    <inkscape:path-effect
       effect="skeletal"
       id="path-effect5378"
       is_visible="true"
       pattern="m -11744.764,-1511.4122 c 0,-2.76 2.24,-5 5,-5 2.76,0 5,2.24 5,5 0,2.76 -2.24,5 -5,5 -2.76,0 -5,-2.24 -5,-5 z"
       copytype="single_stretched"
       prop_scale="1"
       scale_y_rel="false"
       spacing="0"
       normal_offset="0"
       tang_offset="0"
       prop_units="false"
       vertical_pattern="false"
       fuse_tolerance="0" />
    <inkscape:path-effect
       effect="skeletal"
       id="path-effect5378-4"
       is_visible="true"
       pattern="m -11323.324,-1497.1657 c 0,-2.76 2.24,-5 5,-5 2.76,0 5,2.24 5,5 0,2.76 -2.24,5 -5,5 -2.76,0 -5,-2.24 -5,-5 z"
       copytype="single_stretched"
       prop_scale="1"
       scale_y_rel="false"
       spacing="0"
       normal_offset="0"
       tang_offset="0"
       prop_units="false"
       vertical_pattern="false"
       fuse_tolerance="0" />
    <inkscape:path-effect
       effect="skeletal"
       id="path-effect4490"
       is_visible="true"
       pattern="m -1445.5665,-2072.6554 c 0,-2.76 2.24,-5 5,-5 2.76,0 5,2.24 5,5 0,2.76 -2.24,5 -5,5 -2.76,0 -5,-2.24 -5,-5 z"
       copytype="single_stretched"
       prop_scale="1"
       scale_y_rel="false"
       spacing="0"
       normal_offset="0"
       tang_offset="0"
       prop_units="false"
       vertical_pattern="false"
       fuse_tolerance="0" />
    <inkscape:path-effect
       effect="skeletal"
       id="path-effect4494"
       is_visible="true"
       pattern="m -1508.196,-2060.5336 c 0,-2.76 2.24,-5 5,-5 2.76,0 5,2.24 5,5 0,2.76 -2.24,5 -5,5 -2.76,0 -5,-2.24 -5,-5 z"
       copytype="single_stretched"
       prop_scale="1"
       scale_y_rel="false"
       spacing="0"
       normal_offset="0"
       tang_offset="0"
       prop_units="false"
       vertical_pattern="false"
       fuse_tolerance="0" />
    <inkscape:path-effect
       effect="skeletal"
       id="path-effect4498"
       is_visible="true"
       pattern="m -1445.5665,-2072.6554 c 0,-2.76 2.24,-5 5,-5 2.76,0 5,2.24 5,5 0,2.76 -2.24,5 -5,5 -2.76,0 -5,-2.24 -5,-5 z"
       copytype="single_stretched"
       prop_scale="1"
       scale_y_rel="false"
       spacing="0"
       normal_offset="0"
       tang_offset="0"
       prop_units="false"
       vertical_pattern="false"
       fuse_tolerance="0" />
    <inkscape:path-effect
       effect="skeletal"
       id="path-effect4502"
       is_visible="true"
       pattern="m -1508.196,-2060.5336 c 0,-2.76 2.24,-5 5,-5 2.76,0 5,2.24 5,5 0,2.76 -2.24,5 -5,5 -2.76,0 -5,-2.24 -5,-5 z"
       copytype="single_stretched"
       prop_scale="1"
       scale_y_rel="false"
       spacing="0"
       normal_offset="0"
       tang_offset="0"
       prop_units="false"
       vertical_pattern="false"
       fuse_tolerance="0" />
    <inkscape:path-effect
       effect="skeletal"
       id="path-effect4506"
       is_visible="true"
       pattern="m -1445.5665,-2072.6554 c 0,-2.76 2.24,-5 5,-5 2.76,0 5,2.24 5,5 0,2.76 -2.24,5 -5,5 -2.76,0 -5,-2.24 -5,-5 z"
       copytype="single_stretched"
       prop_scale="1"
       scale_y_rel="false"
       spacing="0"
       normal_offset="0"
       tang_offset="0"
       prop_units="false"
       vertical_pattern="false"
       fuse_tolerance="0" />
    <inkscape:path-effect
       effect="skeletal"
       id="path-effect4510"
       is_visible="true"
       pattern="m -1508.196,-2060.5336 c 0,-2.76 2.24,-5 5,-5 2.76,0 5,2.24 5,5 0,2.76 -2.24,5 -5,5 -2.76,0 -5,-2.24 -5,-5 z"
       copytype="single_stretched"
       prop_scale="1"
       scale_y_rel="false"
       spacing="0"
       normal_offset="0"
       tang_offset="0"
       prop_units="false"
       vertical_pattern="false"
       fuse_tolerance="0" />
  </defs>
  <sodipodi:namedview
     id="base"
     pagecolor="#ffffff"
     bordercolor="#666666"
     borderopacity="1.0"
     inkscape:pageopacity="0.0"
     inkscape:pageshadow="2"
     inkscape:zoom="1.4"
     inkscape:cx="5.9958508"
     inkscape:cy="14.29555"
     inkscape:document-units="px"
     inkscape:current-layer="layer1"
     showgrid="false"
     fit-margin-top="0"
     fit-margin-left="0"
     fit-margin-right="0"
     fit-margin-bottom="0"
     inkscape:window-width="1914"
     inkscape:window-height="1030"
     inkscape:window-x="0"
     inkscape:window-y="25"
     inkscape:window-maximized="1" />
  <metadata
     id="metadata3838">
    <rdf:RDF>
      <cc:Work
         rdf:about="">
        <dc:format>image/svg+xml</dc:format>
        <dc:type
           rdf:resource="http://purl.org/dc/dcmitype/StillImage" />
        <dc:title />
      </cc:Work>
    </rdf:RDF>
  </metadata>
  <g
     inkscape:label="Capa 1"
     inkscape:groupmode="layer"
     id="layer1"
     transform="translate(-876.8727,-338.91933)">
    <path
       style="fill:#ffffff;stroke:none;display:inline"
       d="m 692.1733,391.7028 53.5381,-15.9324 46.0485,1.9372 6.285,9.6852 -11.9485,37.0462 c 0,0 -18.1617,26.4408 -31.2937,27.5789 -13.1319,1.138 -48.1196,-20.327 -48.1196,-20.327 l -19.5606,-36.5741"
       id="path4859-9-1-4-6-1"
       inkscape:connector-curvature="0"
       sodipodi:nodetypes="cccccscc" />
    <g
       id="g3027">
      <path
         sodipodi:nodetypes="cccccscc"
         inkscape:connector-curvature="0"
         id="path4859-2-0-7-5-1-8"
         d="m 978.4587,397.7955 -48.5381,-14.5671 -34.62,2.6081 -18.4279,3.1818 6.2343,37.0344 c 0,0 24.5903,21.4608 37.7223,22.7054 13.1319,1.2445 49.5482,-14.7076 49.5482,-14.7076 l 13.132,-32.5214"
         style="fill:#ffffff;stroke:none;display:inline" />
      <path
         transform="matrix(0.62564266,0,0,0.62564266,-914.32738,182.3266)"
         d="m 2992.0719,382.63104 c 0,27.3367 -22.1607,49.49748 -49.4974,49.49748 -27.3367,0 -49.4975,-22.16078 -49.4975,-49.49748 0,-27.3367 22.1608,-49.49747 49.4975,-49.49747 27.3367,0 49.4974,22.16077 49.4974,49.49747 z"
         sodipodi:ry="49.497475"
         sodipodi:rx="49.497475"
         sodipodi:cy="382.63104"
         sodipodi:cx="2942.5745"
         id="path3211-9"
         style="fill:#98ad4c;fill-opacity:1;stroke:#000000;stroke-width:5;stroke-miterlimit:4;stroke-opacity:1;stroke-dasharray:none"
         sodipodi:type="arc" />
      <path
         inkscape:connector-curvature="0"
         inkscape:original-d="m 946.9146,338.9503 c 0,0 21.4878,40.4476 21.4878,56.8794 0,16.4319 -10.1118,3.792 -10.1118,3.792 0,0 -25.2798,-13.9038 -41.7117,-13.9038 -16.4319,0 -34.1276,0 -34.1276,0 l -1.2641,-13.904"
         inkscape:path-effect="#path-effect4494"
         id="path4492"
         d="m 946.91461,338.95032 c 1.2314,-0.59384 6.45457,7.38375 13.93577,20.82 0,0 10e-6,10e-6 10e-6,10e-6 2.73963,5.3344 5.71902,11.61279 8.37004,18.86912 1.02705,2.80981 2.00803,5.81174 2.79286,9.0372 0.60898,2.43227 1.11239,5.14558 1.17794,8.15305 0.0498,1.75979 -0.0324,3.75568 -0.47563,5.94497 -0.16075,1.25752 -0.78908,2.90346 -2.13585,4.72888 -1.10609,1.38003 -2.75945,2.31409 -4.85035,2.64214 -1.85922,0.0977 -3.33359,-0.19327 -4.34945,-0.72444 -2.21035,-1.04752 -3.87432,-2.3615 -5.06881,-3.61171 -0.30644,-0.41435 -0.613,-0.83032 -0.91988,-1.24803 -1.82205,-0.82579 -3.65918,-1.66314 -5.5099,-2.51179 -2.81525,-1.29093 -5.58788,-2.57408 -8.31294,-3.84732 -4.37386,-1.84484 -8.65173,-3.45411 -12.83493,-4.69114 0,0 0,0 0,0 -4.34049,-1.26012 -8.39499,-2.20888 -12.15459,-2.30363 0,0 0,0 0,0 -8.65529,-0.24763 -16.49172,-0.57752 -23.20744,-0.97209 -2.83463,-0.16655 -5.46959,-0.34462 -7.88219,-0.53289 0,0 0,0 0,0 -0.76786,-0.0599 -1.51319,-0.12088 -2.23527,-0.18283 0,0 0,0 0,0 -0.19987,-0.0171 -0.39796,-0.0344 -0.59425,-0.0517 0,0 0,0 0,0 -10e-6,-10e-6 -3e-5,-2e-5 -4e-5,-3e-5 0,0 0,0 0,0 -0.50908,-0.42239 -1.01466,-0.84172 -1.51677,-1.25799 -10e-6,-10e-6 -2e-5,-2e-5 -4e-5,-3e-5 0,0 0,0 0,0 -0.019,-0.002 -0.0382,-0.005 -0.0571,-0.007 -0.63179,-5.00041 -0.87874,-8.84431 -0.82068,-11.42979 0.0581,-2.58548 0.4202,-3.91338 0.92206,-3.95901 0.50186,-0.0456 1.0964,1.18273 1.58669,3.35138 0.49029,2.16865 0.87539,5.27674 1.04294,9.06782 0.0171,-0.002 0.0344,-0.005 0.0514,-0.007 0,0 0,0 1e-5,0 -1e-5,-1e-5 -2e-5,-2e-5 -3e-5,-3e-5 -0.39959,-0.41627 -0.8024,-0.8356 -1.20846,-1.25799 0,0 0,0 0,0 -10e-6,-10e-6 -2e-5,-2e-5 -3e-5,-3e-5 0,0 0,0 0,0 0.19629,-0.0173 0.39438,-0.0345 0.59425,-0.0517 0,0 0,0 0,0 0.72208,-0.0619 1.46741,-0.1229 2.23527,-0.18283 0,0 0,0 0,0 2.4126,-0.18827 5.04756,-0.36634 7.88219,-0.53289 6.71572,-0.39457 14.55215,-0.72446 23.20744,-0.97209 0,0 0,0 0,0 4.95488,-0.0947 9.94822,0.75793 14.72851,2.03679 0,0 0,0 0,0 4.76645,1.25431 9.5479,2.92274 14.28856,4.86019 3.08814,1.47674 6.22577,2.98949 9.39962,4.53174 2.08647,1.01387 4.15246,2.02293 6.19436,3.02503 0.75637,0.73793 1.50903,1.47324 2.25766,2.20565 0.88391,0.78258 1.4672,1.37714 1.88108,1.47333 0.15548,-0.0207 -0.0432,0.0299 -0.64117,-0.007 -0.82732,0.19359 -1.32132,0.42962 -1.61654,0.84401 -0.0926,0.3319 -0.11107,0.0616 0.15095,-0.55978 0.28297,-1.03835 0.34185,-2.33713 0.39164,-3.80881 0.0656,-1.90972 -0.26505,-3.98536 -0.66739,-6.16462 -0.53922,-2.81214 -1.28103,-5.57116 -2.07235,-8.27095 -2.02816,-6.92142 -4.35259,-13.18379 -6.39548,-18.68173 0,-10e-6 0,-10e-6 -10e-6,-10e-6 -5.8111,-14.12711 -8.79513,-23.16824 -7.56373,-23.76207 z"
         style="fill:#000000;fill-rule:evenodd;stroke:none" />
      <path
         inkscape:connector-curvature="0"
         inkscape:original-d="m 892.5631,442.5973 c 0,0 29.0717,17.6959 44.2397,13.9039 15.1678,-3.7919 21.4878,-5.056 21.4878,-5.056"
         inkscape:path-effect="#path-effect4502"
         id="path4500"
         d="m 892.56312,442.59731 c 0.86959,-1.70657 8.26447,0.19384 18.32323,4.3809 4.20481,1.4189 8.8424,2.99363 13.73979,4.08226 0.25978,0.0521 0.51909,0.10406 0.77778,0.15558 2.00897,0.40008 3.88862,0.75083 5.60464,0.91479 1.71602,0.16397 3.26894,0.13994 4.66404,-0.15048 6.93303,-1.32586 12.89437,-2.00628 16.95084,-1.99266 0,0 0,0 0,0 1.76161,0.006 3.16957,0.14052 4.14117,0.40258 0,0 0,0 0,0 0.45642,0.1231 0.81808,0.27394 1.07538,0.45214 0,0 0,0 0,0 0,0 0,0 0,0 0.12528,0.0863 0.22603,0.17903 0.30112,0.27812 0,0 0,0 0,0 0,0 0,0 0,0 0.11542,0.30967 0.14628,0.32419 0.14935,0.32463 0,0 0,0 0,0 0,0 0,0 0,0 1.8e-4,2e-5 1.4e-4,3e-5 1.4e-4,3e-5 0,0 4e-5,-10e-6 -1.1e-4,9e-5 0,0 0,0 0,0 0,0 0,0 0,0 -0.003,0.002 -0.0255,0.0269 -0.0116,0.35723 0,0 0,0 0,0 0,0 0,0 0,0 -0.0297,0.12045 -0.084,0.24498 -0.16222,0.3735 0,0 0,0 0,0 0,0 0,0 0,0 -0.16245,0.26529 -0.42684,0.54759 -0.78781,0.84594 0,0 0,0 0,0 -0.76846,0.63513 -1.96754,1.34189 -3.53702,2.10509 0,0 0,0 0,0 -3.61419,1.75748 -9.16047,3.81305 -15.85883,5.89499 -2.38896,0.6556 -4.88559,0.94933 -7.37074,0.92224 -2.48516,-0.0271 -4.95754,-0.37442 -7.29873,-0.92404 -0.30147,-0.0708 -0.59908,-0.1444 -0.8927,-0.22047 -5.87383,-1.40565 -11.00274,-3.60496 -15.24034,-5.82387 -9.49843,-5.77835 -15.43696,-10.67201 -14.56737,-12.37859 z"
         style="fill:#000000;fill-rule:evenodd;stroke:none" />
      <path
         inkscape:connector-curvature="0"
         inkscape:original-d="m 892.5631,467.8771 c 0,0 2.528,13.9039 27.8078,11.376 25.2797,-2.528 35.3917,-11.376 35.3917,-11.376"
         inkscape:path-effect="#path-effect4510"
         id="path4508"
         d="m 892.56311,467.87716 c 0.99501,-0.66424 3.54468,1.18677 6.76833,4.54391 1.05642,0.63592 2.24248,1.1942 3.59223,1.61526 1.34975,0.42107 2.86443,0.7046 4.55183,0.84477 1.68741,0.14016 3.54827,0.13744 5.54935,0.0385 2.00108,-0.0989 4.14252,-0.29291 6.34344,-0.49511 0,0 0,0 0,0 0.74807,-0.24565 1.50397,-0.48953 2.26707,-0.73131 8.74215,-2.76981 16.81856,-4.75789 22.99189,-5.81198 6.17333,-1.0541 10.4436,-1.17422 11.12885,-0.0155 0,0 0,0 0,0 0,0 0,0 0,0 0,0 0,0 0,0 0,0 0,0 0,0 0,0 0,0 0,0 0,0 0,10e-6 0,10e-6 0,0 0,0 1e-5,0 0,0 0,0 0,0 0,0 0,0 0,0 0,0 0,0 0,0 0.006,0.0113 0.006,0.0113 0.006,0.0113 0,0 2e-5,-10e-6 0.006,0.0114 0,0 0,0 0,0 0,0 0,0 0,0 0,0 0,0 0,0 0,0 0,1e-5 0,1e-5 0,0 0,0 0,0 0,0 0,0 0,0 0,0 0,0 0,0 0,0 0,0 0,0 0,0 0,0 0,0 0,0 0,0 0,0 0.63734,1.17416 -2.5056,3.43687 -8.28411,6.22447 -5.77851,2.78759 -14.19256,6.10005 -23.65281,9.18104 -0.82578,0.26894 -1.64572,0.53159 -2.45857,0.78766 0,0 0,0 0,0 -2.6817,0.28604 -5.43878,0.35208 -8.10897,0.15714 -2.67018,-0.19494 -5.25207,-0.65061 -7.61623,-1.3421 -2.36416,-0.69149 -4.5098,-1.61788 -6.35696,-2.69724 -1.84715,-1.07936 -3.39578,-2.31016 -4.62175,-3.57206 -2.31681,-4.94229 -3.1015,-8.08603 -2.10649,-8.75027 z"
         style="fill:#000000;fill-rule:evenodd;stroke:none" />
      <path
         transform="matrix(0.62564266,0,0,0.62564266,-412.6916,-219.5323)"
         sodipodi:end="11.897713"
         sodipodi:start="5.6167468"
         d="m 2163.3749,1005.9204 c 8.2916,10.5427 6.4666,25.8109 -4.0761,34.1025 -10.5427,8.2915 -25.8109,6.4666 -34.1024,-4.0761 -8.2916,-10.5427 -6.4667,-25.8109 4.076,-34.1025 10.5262,-8.27852 25.7672,-6.474 34.0691,4.0338 l -19.0559,15.0555 z"
         sodipodi:ry="24.285713"
         sodipodi:rx="24.285713"
         sodipodi:cy="1020.9336"
         sodipodi:cx="2144.2856"
         id="path3396-0-5"
         style="fill:#000000;fill-opacity:1;fill-rule:evenodd;stroke:none"
         sodipodi:type="arc" />
    </g>
  </g>
</svg>
