<?xml version="1.0" encoding="UTF-8" standalone="no"?>
<!-- Created with Inkscape (http://www.inkscape.org/) -->

<svg
   xmlns:dc="http://purl.org/dc/elements/1.1/"
   xmlns:cc="http://creativecommons.org/ns#"
   xmlns:rdf="http://www.w3.org/1999/02/22-rdf-syntax-ns#"
   xmlns:svg="http://www.w3.org/2000/svg"
   xmlns="http://www.w3.org/2000/svg"
   xmlns:sodipodi="http://sodipodi.sourceforge.net/DTD/sodipodi-0.dtd"
   xmlns:inkscape="http://www.inkscape.org/namespaces/inkscape"
   width="43.128212"
   height="52.041119"
   id="svg3251"
   version="1.1"
   inkscape:version="0.48.3.1 r9886"
   sodipodi:docname="ojos_1.svg">
  <defs
     id="defs3253" />
  <sodipodi:namedview
     id="base"
     pagecolor="#ffffff"
     bordercolor="#666666"
     borderopacity="1.0"
     inkscape:pageopacity="0.0"
     inkscape:pageshadow="2"
     inkscape:zoom="1.4"
     inkscape:cx="54.511384"
     inkscape:cy="51.007012"
     inkscape:document-units="px"
     inkscape:current-layer="layer1"
     showgrid="false"
     fit-margin-top="0"
     fit-margin-left="0"
     fit-margin-right="0"
     fit-margin-bottom="0"
     inkscape:window-width="560"
     inkscape:window-height="451"
     inkscape:window-x="599"
     inkscape:window-y="126"
     inkscape:window-maximized="0" />
  <metadata
     id="metadata3256">
    <rdf:RDF>
      <cc:Work
         rdf:about="">
        <dc:format>image/svg+xml</dc:format>
        <dc:type
           rdf:resource="http://purl.org/dc/dcmitype/StillImage" />
        <dc:title />
      </cc:Work>
    </rdf:RDF>
  </metadata>
  <g
     inkscape:label="Capa 1"
     inkscape:groupmode="layer"
     id="layer1"
     transform="translate(-395.22953,-548.25037)">
    <g
       id="g3003">
      <path
         sodipodi:nodetypes="cccccscc"
         inkscape:connector-curvature="0"
         id="path4859-2-0-7"
         d="m 435.29518,574.21881 -18.58525,-6.04865 -12.01801,2.14516 -9.37255,-0.38321 3.15599,15.08777 c 0,0 10.51996,11.66517 15.07861,12.09723 4.55862,0.43201 18.9359,-9.07291 18.9359,-9.07291 l 4.55865,-12.52931"
         style="opacity:0.9;fill:#ffffff;stroke:none;display:inline" />
      <path
         inkscape:connector-curvature="0"
         id="path2991-9-3"
         d="m 426.80599,580.69397 c 0,6.71045 -5.43989,12.15034 -12.15034,12.15034 -6.71045,0 -12.15034,-5.43989 -12.15034,-12.15034 0,-6.71045 5.43989,-12.15034 12.15034,-12.15034 6.71045,0 12.15034,5.43989 12.15034,12.15034 z"
         style="opacity:0.9;fill:#000000;fill-opacity:1;stroke:none;display:inline" />
      <path
         sodipodi:nodetypes="ccscsc"
         inkscape:connector-curvature="0"
         id="path3128-9"
         d="m 395.22953,569.86483 c 0,0 6.19427,0 17.15343,0 10.95913,0 22.87119,7.62373 22.87119,7.62373 0,0 0.95297,-0.47649 0.95297,-11.43561 0,0 -8.69136,-16.00533 -16.15953,-16.90818 -11.82434,-1.42945 -21.5405,5.68394 -21.5405,5.68394"
         style="opacity:0.9;fill:#e8afaf;fill-opacity:0.4;fill-rule:evenodd;stroke:none;display:inline" />
      <path
         inkscape:connector-curvature="0"
         id="path3128"
         d="m 395.74481,570.54318 c 0,-0.52234 6.64505,-0.99103 17.15341,-1.30932 0,0 0,0 0,0 1.34515,-0.0365 2.74609,0.0331 4.18409,0.20854 1.43799,0.17542 2.913,0.45672 4.4025,0.82971 2.48899,0.61986 5.04401,1.49207 7.61032,2.5815 1.81187,0.7682 3.63956,1.64482 5.45956,2.63692 0.51748,0.28201 1.03743,0.57523 1.55746,0.88309 0,0 0,0 1e-5,0 0.13887,0.0822 0.27942,0.16654 0.42132,0.25352 0,0 0,0 0,0 -3e-5,10e-6 -4e-5,10e-6 -4e-5,10e-6 -0.35725,0.11888 -0.71387,0.23858 -1.0699,0.35917 -3e-5,0 -3e-5,10e-6 -3e-5,10e-6 -0.0289,0.0176 -0.0578,0.0352 -0.0867,0.0528 -0.01,0.006 -0.0201,0.0122 -0.0301,0.0184 -0.31429,0.0316 -0.62936,0.0634 -0.94511,0.0954 0.0699,-0.15208 0.0855,-0.45944 0.14899,-0.8875 0.34721,-1.91877 0.4656,-3.94549 0.52142,-6.0589 0.0263,-0.9978 0.0393,-2.00018 0.0588,-3.00324 -1.74781,-2.61195 -3.43949,-5.16032 -5.06237,-7.62894 0,0 0,0 0,0 -1.55442,-2.08899 -3.14173,-3.99093 -4.87083,-5.53899 0,0 0,0 0,0 -0.83107,-0.74467 -1.66513,-1.40007 -2.52938,-1.89589 0,0 0,0 0,0 -0.78327,-0.43963 -1.54862,-0.77315 -2.2801,-0.87084 -2.9418,-0.43569 -5.73438,-0.29748 -8.2177,0.0798 -2.48332,0.37727 -4.65917,0.99387 -6.46611,1.60965 0,0 0,0 0,0 -2.03477,0.69669 -3.61233,1.39333 -4.7254,1.88038 0,0 0,0 0,0 -0.58886,0.25771 -1.04581,0.45704 -1.37169,0.57685 0,0 0,0 0,0 -0.16712,0.0615 -0.29914,0.10158 -0.39646,0.1182 0,0 0,0 0,0 -0.049,0.008 -0.0891,0.0104 -0.12043,0.006 0,0 0,0 0,0 0,0 0,0 0,0 0,0 0,0 0,0 -0.0286,-0.0195 -0.0455,-0.0278 -0.0553,-0.0311 -0.01,-0.003 -0.0124,-0.002 -0.0126,-0.002 0,0 0,0 0,0 0,0 0,0 0,0 0,0 0,0 0,0 -1e-5,0 0,0 0,0 0,0 -1e-5,0 0,-10e-6 0,0 0,0 0,0 0,0 0,0 0,0 0,0 0,0 0,0 2e-4,-1.6e-4 0.002,-0.002 0.002,-0.0125 -1.1e-4,-0.0103 -0.003,-0.029 -0.0122,-0.0621 0,0 0,0 0,0 0,0 0,0 0,0 0,0 0,0 0,0 0.007,-0.0311 0.0228,-0.069 0.0486,-0.113 0,0 0,0 0,0 0.0506,-0.0867 0.13853,-0.19778 0.26333,-0.33007 0,0 0,0 0,0 0.24338,-0.25799 0.6292,-0.5987 1.1566,-0.99741 0,0 0,0 0,0 0.99699,-0.75378 2.50764,-1.72757 4.5428,-2.69644 0,0 0,0 0,0 1.80912,-0.86405 4.05146,-1.72796 6.69678,-2.3219 2.64531,-0.59394 5.69624,-0.91732 9.01691,-0.59593 1.22224,0.13851 2.37315,0.54613 3.39515,1.09964 0,0 0,0 0,0 1.13241,0.60262 2.17797,1.35384 3.14293,2.17611 0,0 0,0 0,0 2.02517,1.72731 3.84901,3.79223 5.53635,5.99601 0,0 0,0 0,0 1.77928,2.76099 3.62058,5.64333 5.50195,8.60993 0.0195,1.09359 0.0409,2.20971 0.0438,3.34481 0.006,2.40423 -0.075,4.81924 -0.40883,7.19961 -0.085,0.50916 -0.22073,1.14564 -0.50514,1.86455 -0.41797,0.20299 -0.83516,0.40566 -1.25155,0.60799 -0.0162,0.002 -0.0323,0.005 -0.0484,0.007 -0.0464,0.007 -0.0928,0.013 -0.13925,0.0196 0,0 -1e-5,0 -2e-5,0 -0.42439,0.0775 -0.84953,0.15443 -1.27537,0.23073 -1e-5,0 -1e-5,0 -1e-5,0 -3e-5,10e-6 -3e-5,0 -4e-5,0 -0.12262,-0.0772 -0.24772,-0.15439 -0.37492,-0.23193 0,0 -10e-6,0 -10e-6,0 -0.47614,-0.29026 -0.95855,-0.57113 -1.44455,-0.84584 -1.70934,-0.96594 -3.42576,-1.83175 -5.12851,-2.6038 -2.41219,-1.09236 -4.78352,-1.98975 -7.08209,-2.6569 -2.75583,-0.79566 -5.38508,-1.26936 -7.80087,-1.34241 0,0 -10e-6,0 -10e-6,0 -10.50835,-0.31829 -17.15341,-0.78697 -17.15341,-1.30931 z"
         style="opacity:0.9;fill:#000000;fill-rule:evenodd;stroke:none;display:inline" />
      <path
         inkscape:connector-curvature="0"
         id="path4543"
         d="m 399.90406,589.55608 c 0.0148,-0.0102 0.0313,-0.0178 0.0494,-0.023 0.0175,-0.005 0.0365,-0.008 0.0569,-0.008 0,0 0,0 0,0 0.0407,-10e-4 0.0873,0.006 0.13986,0.0224 0,0 0,0 0,0 0,0 0,0 0,0 0.10385,0.0311 0.23028,0.0936 0.38071,0.18518 0,0 0,0 0,0 0.29508,0.17962 0.67895,0.46602 1.15876,0.83275 0,0 0,0 0,0 0.92287,0.70498 2.19157,1.69703 3.83258,2.70358 0,0 0,0 0,0 0,0 0,0 0,0 1.5819,0.96844 3.51399,1.94273 5.73111,2.61264 1.54029,0.46846 3.22842,0.78427 4.99872,0.89903 0.90908,0.0589 1.80693,0.0633 2.68216,0.0209 1.96674,-0.0991 3.79283,-0.57073 5.31094,-1.2852 1.46607,-0.65755 2.68352,-1.55027 3.65855,-2.41571 0.93536,-1.16638 1.7484,-2.09724 2.38105,-2.71645 0.63264,-0.61922 1.08476,-0.92659 1.28787,-0.82892 0,0 0,0 0,0 0,0 0,0 0,0 0,0 0,0 0,0 0,0 0,0 0,0 0,10e-6 0,10e-6 0,10e-6 0,0 0,0 0,0 0.002,10e-4 0.002,10e-4 0.002,10e-4 0,0 10e-6,-10e-6 0.002,10e-4 0,0 0,0 0,0 0,0 0,0 0,0 0,0 0,0 0,0 1e-5,0 1e-5,0 1e-5,0 0,0 0,0 0,0 0,0 0,0 0,0 0.19901,0.10403 0.12935,0.60681 -0.18329,1.45529 -0.31264,0.84849 -0.86837,2.04288 -1.63112,3.51307 -0.93291,1.2429 -2.27043,2.58344 -4.07331,3.68093 -0.91134,0.53957 -1.92919,1.00041 -3.02912,1.34737 -1.09994,0.34697 -2.28185,0.57986 -3.50691,0.67179 -1.01632,0.0788 -2.0644,0.0887 -3.1273,0.0192 -2.06985,-0.1354 -4.04931,-0.56587 -5.83089,-1.21263 -2.55175,-0.93109 -4.65311,-2.27232 -6.24018,-3.61693 0,0 0,0 0,0 0,0 0,0 0,0 -1.64117,-1.38915 -2.75201,-2.77713 -3.40346,-3.83318 0,0 0,0 0,0 -0.33862,-0.54876 -0.55678,-1.01473 -0.66249,-1.36053 0,0 0,0 0,0 -0.0539,-0.17626 -0.0794,-0.3228 -0.077,-0.43438 0,0 0,0 0,0 0,0 0,0 0,0 0.001,-0.0561 0.01,-0.10368 0.0247,-0.1421 0,0 0,0 0,0 0.008,-0.0193 0.0168,-0.0363 0.0278,-0.051 0.0113,-0.0152 0.0244,-0.0279 0.0392,-0.0381 z"
         style="opacity:0.9;fill:#000000;fill-rule:evenodd;stroke:none;display:inline" />
    </g>
  </g>
</svg>
