<?xml version="1.0" encoding="UTF-8" standalone="no"?>
<!-- Created with Inkscape (http://www.inkscape.org/) -->

<svg
   xmlns:dc="http://purl.org/dc/elements/1.1/"
   xmlns:cc="http://creativecommons.org/ns#"
   xmlns:rdf="http://www.w3.org/1999/02/22-rdf-syntax-ns#"
   xmlns:svg="http://www.w3.org/2000/svg"
   xmlns="http://www.w3.org/2000/svg"
   xmlns:sodipodi="http://sodipodi.sourceforge.net/DTD/sodipodi-0.dtd"
   xmlns:inkscape="http://www.inkscape.org/namespaces/inkscape"
   width="119.53197"
   height="69.943741"
   id="svg3833"
   version="1.1"
   inkscape:version="0.48.3.1 r9886"
   sodipodi:docname="ojos_6.svg">
  <defs
     id="defs3835">
    <inkscape:path-effect
       effect="skeletal"
       id="path-effect5212"
       is_visible="true"
       pattern="m -13072.977,1809.4791 c 0,-2.76 2.24,-5 5,-5 2.76,0 5,2.24 5,5 0,2.76 -2.24,5 -5,5 -2.76,0 -5,-2.24 -5,-5 z"
       copytype="single_stretched"
       prop_scale="1"
       scale_y_rel="false"
       spacing="0"
       normal_offset="0"
       tang_offset="0"
       prop_units="false"
       vertical_pattern="false"
       fuse_tolerance="0" />
    <inkscape:path-effect
       effect="skeletal"
       id="path-effect5216"
       is_visible="true"
       pattern="m -13093.18,1767.0526 c 0,-2.76 2.24,-5 5,-5 2.76,0 5,2.24 5,5 0,2.76 -2.24,5 -5,5 -2.76,0 -5,-2.24 -5,-5 z"
       copytype="single_stretched"
       prop_scale="1"
       scale_y_rel="false"
       spacing="0"
       normal_offset="0"
       tang_offset="0"
       prop_units="false"
       vertical_pattern="false"
       fuse_tolerance="0" />
    <inkscape:path-effect
       effect="skeletal"
       id="path-effect5302"
       is_visible="true"
       pattern="m -13072.977,1809.4791 c 0,-2.76 2.24,-5 5,-5 2.76,0 5,2.24 5,5 0,2.76 -2.24,5 -5,5 -2.76,0 -5,-2.24 -5,-5 z"
       copytype="single_stretched"
       prop_scale="1"
       scale_y_rel="false"
       spacing="0"
       normal_offset="0"
       tang_offset="0"
       prop_units="false"
       vertical_pattern="false"
       fuse_tolerance="0" />
    <inkscape:path-effect
       effect="skeletal"
       id="path-effect4225-0"
       is_visible="true"
       pattern="m -4996.4247,55.333481 c 0,-2.76 2.24,-5 5,-5 2.76,0 5,2.24 5,5 0,2.76 -2.24,5 -5,5 -2.76,0 -5,-2.24 -5,-5 z"
       copytype="single_stretched"
       prop_scale="1"
       scale_y_rel="false"
       spacing="0"
       normal_offset="0"
       tang_offset="0"
       prop_units="false"
       vertical_pattern="false"
       fuse_tolerance="0" />
    <inkscape:path-effect
       effect="skeletal"
       id="path-effect4233-0"
       is_visible="true"
       pattern="m -4990.3638,53.313176 c 0,-2.76 2.24,-5 5,-5 2.76,0 5,2.24 5,5 0,2.76 -2.24,5 -5,5 -2.76,0 -5,-2.24 -5,-5 z"
       copytype="single_stretched"
       prop_scale="1"
       scale_y_rel="false"
       spacing="0"
       normal_offset="0"
       tang_offset="0"
       prop_units="false"
       vertical_pattern="false"
       fuse_tolerance="0" />
    <inkscape:path-effect
       effect="skeletal"
       id="path-effect5021"
       is_visible="true"
       pattern="m 1.4285717,0.71428529 c 0,-2.75999999 2.24,-4.99999999 5,-4.99999999 2.76,0 5.0000003,2.24 5.0000003,4.99999999 0,2.76000001 -2.2400003,5.00000041 -5.0000003,5.00000041 -2.76,0 -5,-2.2400004 -5,-5.00000041 z"
       copytype="single_stretched"
       prop_scale="1"
       scale_y_rel="false"
       spacing="0"
       normal_offset="0"
       tang_offset="0"
       prop_units="false"
       vertical_pattern="false"
       fuse_tolerance="0" />
    <inkscape:path-effect
       effect="skeletal"
       id="path-effect5259"
       is_visible="true"
       pattern="m -10418.352,-1410.4113 c 0,-2.76 2.24,-5 5,-5 2.76,0 5,2.24 5,5 0,2.76 -2.24,5 -5,5 -2.76,0 -5,-2.24 -5,-5 z"
       copytype="single_stretched"
       prop_scale="1"
       scale_y_rel="false"
       spacing="0"
       normal_offset="0"
       tang_offset="0"
       prop_units="false"
       vertical_pattern="false"
       fuse_tolerance="0" />
    <inkscape:path-effect
       effect="skeletal"
       id="path-effect5263"
       is_visible="true"
       pattern="m -10564.143,-1410.9609 c 0,-2.76 2.24,-5 5,-5 2.76,0 5,2.24 5,5 0,2.76 -2.24,5 -5,5 -2.76,0 -5,-2.24 -5,-5 z"
       copytype="single_stretched"
       prop_scale="1"
       scale_y_rel="false"
       spacing="0"
       normal_offset="0"
       tang_offset="0"
       prop_units="false"
       vertical_pattern="false"
       fuse_tolerance="0" />
    <inkscape:path-effect
       effect="skeletal"
       id="path-effect5224"
       is_visible="true"
       pattern="m -10426.454,-1412.267 c 0,-2.76 2.24,-5 5,-5 2.76,0 5,2.24 5,5 0,2.76 -2.24,5 -5,5 -2.76,0 -5,-2.24 -5,-5 z"
       copytype="single_stretched"
       prop_scale="1"
       scale_y_rel="false"
       spacing="0"
       normal_offset="0"
       tang_offset="0"
       prop_units="false"
       vertical_pattern="false"
       fuse_tolerance="0" />
    <inkscape:path-effect
       effect="skeletal"
       id="path-effect5228"
       is_visible="true"
       pattern="m -10549.858,-1407.3895 c 0,-2.76 2.24,-5 5,-5 2.76,0 5,2.24 5,5 0,2.76 -2.24,5 -5,5 -2.76,0 -5,-2.24 -5,-5 z"
       copytype="single_stretched"
       prop_scale="1"
       scale_y_rel="false"
       spacing="0"
       normal_offset="0"
       tang_offset="0"
       prop_units="false"
       vertical_pattern="false"
       fuse_tolerance="0" />
    <inkscape:path-effect
       effect="skeletal"
       id="path-effect5337"
       is_visible="true"
       pattern="m -10458.758,-1444.7564 c 0,-2.76 2.24,-5 5,-5 2.76,0 5,2.24 5,5 0,2.76 -2.24,5 -5,5 -2.76,0 -5,-2.24 -5,-5 z"
       copytype="single_stretched"
       prop_scale="1"
       scale_y_rel="false"
       spacing="0"
       normal_offset="0"
       tang_offset="0"
       prop_units="false"
       vertical_pattern="false"
       fuse_tolerance="0" />
    <inkscape:path-effect
       effect="skeletal"
       id="path-effect5341"
       is_visible="true"
       pattern="m -10487.33,-1439.0422 c 0,-2.76 2.24,-5 5,-5 2.76,0 5,2.24 5,5 0,2.76 -2.24,5 -5,5 -2.76,0 -5,-2.24 -5,-5 z"
       copytype="single_stretched"
       prop_scale="1"
       scale_y_rel="false"
       spacing="0"
       normal_offset="0"
       tang_offset="0"
       prop_units="false"
       vertical_pattern="false"
       fuse_tolerance="0" />
    <inkscape:path-effect
       effect="skeletal"
       id="path-effect5378"
       is_visible="true"
       pattern="m -11744.764,-1511.4122 c 0,-2.76 2.24,-5 5,-5 2.76,0 5,2.24 5,5 0,2.76 -2.24,5 -5,5 -2.76,0 -5,-2.24 -5,-5 z"
       copytype="single_stretched"
       prop_scale="1"
       scale_y_rel="false"
       spacing="0"
       normal_offset="0"
       tang_offset="0"
       prop_units="false"
       vertical_pattern="false"
       fuse_tolerance="0" />
    <inkscape:path-effect
       effect="skeletal"
       id="path-effect5378-4"
       is_visible="true"
       pattern="m -11323.324,-1497.1657 c 0,-2.76 2.24,-5 5,-5 2.76,0 5,2.24 5,5 0,2.76 -2.24,5 -5,5 -2.76,0 -5,-2.24 -5,-5 z"
       copytype="single_stretched"
       prop_scale="1"
       scale_y_rel="false"
       spacing="0"
       normal_offset="0"
       tang_offset="0"
       prop_units="false"
       vertical_pattern="false"
       fuse_tolerance="0" />
  </defs>
  <sodipodi:namedview
     id="base"
     pagecolor="#ffffff"
     bordercolor="#666666"
     borderopacity="1.0"
     inkscape:pageopacity="0.0"
     inkscape:pageshadow="2"
     inkscape:zoom="0.98994949"
     inkscape:cx="143.87623"
     inkscape:cy="-24.988014"
     inkscape:document-units="px"
     inkscape:current-layer="layer1"
     showgrid="false"
     fit-margin-top="0"
     fit-margin-left="0"
     fit-margin-right="0"
     fit-margin-bottom="0"
     inkscape:window-width="1914"
     inkscape:window-height="1030"
     inkscape:window-x="0"
     inkscape:window-y="25"
     inkscape:window-maximized="1" />
  <metadata
     id="metadata3838">
    <rdf:RDF>
      <cc:Work
         rdf:about="">
        <dc:format>image/svg+xml</dc:format>
        <dc:type
           rdf:resource="http://purl.org/dc/dcmitype/StillImage" />
        <dc:title />
      </cc:Work>
    </rdf:RDF>
  </metadata>
  <g
     inkscape:label="Capa 1"
     inkscape:groupmode="layer"
     id="layer1"
     transform="translate(-562.57356,-349.24374)">
    <g
       id="g3013">
      <path
         sodipodi:nodetypes="cccccscc"
         inkscape:connector-curvature="0"
         id="path4859-9-1-4-6-1-5-0-3-5-9-3-9"
         d="m 587.3232,372.9238 40.6901,-10.2049 34.9976,1.2408 4.7768,6.2034 -9.0811,23.7286 c 0,0 -13.8032,16.9355 -23.7838,17.6645 -9.9805,0.729 -36.5718,-13.0196 -36.5718,-13.0196 l -14.8664,-23.4261"
         style="fill:#ffffff;stroke:none;display:inline" />
      <path
         transform="matrix(0.4491761,0,0,0.4491761,539.2348,143.312)"
         d="m 246.47722,524.05243 c 0,28.45248 -23.06529,51.51778 -51.51778,51.51778 -28.45248,0 -51.51778,-23.0653 -51.51778,-51.51778 0,-28.45249 23.0653,-51.51778 51.51778,-51.51778 28.45249,0 51.51778,23.06529 51.51778,51.51778 z"
         sodipodi:ry="51.51778"
         sodipodi:rx="51.51778"
         sodipodi:cy="524.05243"
         sodipodi:cx="194.95944"
         id="path2991-7-6-78-2-4"
         style="fill:#000000;fill-opacity:1;stroke:none"
         sodipodi:type="arc" />
      <path
         inkscape:connector-curvature="0"
         inkscape:original-d="m 682.094,363.1711 c 0,0 -38.7016,-11.7788 -53.8453,-8.4134 -15.1449,3.3653 -52.1636,25.2402 -58.8936,28.6055 -6.7313,3.3654 -6.7313,3.3654 -6.7313,3.3654"
         inkscape:path-effect="#path-effect5378"
         id="path5376"
         d="m 682.09398,363.17109 c -0.37459,1.4553 -8.93465,0.6443 -22.12925,-1.80628 0,0 0,0 0,0 -5.19692,-0.75947 -11.08364,-1.62949 -17.42586,-2.10411 -2.31177,-0.14719 -4.61743,-0.31202 -6.84454,-0.32272 -2.2271,-0.0107 -4.37525,0.13322 -6.37197,0.65125 -1.86317,0.43005 -3.82363,1.12194 -5.92396,1.90547 -0.65117,0.24554 -1.305,0.50004 -1.96176,0.76244 -1.9464,0.77767 -3.87319,1.60628 -5.78551,2.45025 -6.33281,2.79667 -12.32097,5.70323 -17.88537,8.37999 -6.23565,3.00053 -11.89984,5.73032 -16.78398,7.9573 0,0 0,0 0,0 -2.3055,1.05116 -4.44349,1.99592 -6.38699,2.80434 0,0 0,0 0,0 -1.47216,0.61101 -2.87927,1.17775 -4.18693,1.61968 0,0 0,0 0,0 -2.85852,0.94296 -5.01944,1.49427 -6.34002,1.59599 0,0 0,0 0,0 -0.46794,0.036 -0.83036,0.0156 -1.08093,-0.0638 0,0 0,0 0,0 -0.0924,-0.0293 -0.1696,-0.0666 -0.23126,-0.11211 0,0 0,0 0,0 0,0 0,0 0,0 -0.0687,-0.10831 -0.0947,-0.13664 -0.11039,-0.15004 -0.0108,-0.009 -0.0154,-0.0102 -0.0189,-0.01 -0.005,1.7e-4 -0.003,-1e-4 -0.003,-1e-4 0,0 -0.002,0.002 0.001,-0.002 0.002,-0.003 0.004,-0.007 0.003,-0.0212 -0.001,-0.0206 -0.008,-0.0584 -0.0538,-0.17834 0,0 0,0 0,0 0,0 0,0 0,0 6.2e-4,-0.0766 0.0171,-0.16077 0.0491,-0.25228 0,0 0,0 0,0 0.0868,-0.2481 0.28796,-0.55027 0.59757,-0.90298 0,0 0,0 0,0 0.87377,-0.99537 2.61142,-2.3932 5.08091,-4.11405 0,0 0,0 0,0 1.0247,-0.72435 2.16917,-1.56709 3.49637,-2.49497 0,0 0,0 0,0 1.70785,-1.19882 3.62821,-2.51144 5.7529,-3.91321 0,0 0,0 0,0 4.49571,-2.96651 9.87109,-6.32186 15.97526,-9.816 5.42943,-3.10949 11.45082,-6.35909 18.02946,-9.39331 1.9859,-0.91649 4.0405,-1.81812 6.17125,-2.66898 0.71897,-0.2871 1.44092,-0.5661 2.16583,-0.83589 2.28437,-0.85849 4.71109,-1.65402 7.28163,-2.20917 3.05657,-0.60496 5.97529,-0.74753 8.71428,-0.65812 2.73899,0.0894 5.2984,0.41017 7.65912,0.77472 6.87267,0.9727 12.96121,2.48313 18.1587,3.99093 0,0 0,0 0,0 12.8541,4.25437 20.76143,7.6821 20.38684,9.13739 z"
         style="fill:#000000;fill-rule:evenodd;stroke:none" />
      <path
         sodipodi:nodetypes="csccsc"
         inkscape:connector-curvature="0"
         id="path5380"
         d="m 577.7681,391.7766 c 0,0 15.1443,8.4134 47.1146,10.0961 31.971,1.6827 48.7977,-3.3653 48.7977,-3.3653 l 1.6829,8.4134 c 0,0 -15.1436,15.1441 -58.8936,11.7787 -13.5264,-1.0405 -38.7016,-26.9229 -38.7016,-26.9229 z"
         style="fill:#000000;fill-rule:evenodd;stroke:none" />
    </g>
  </g>
</svg>
