<?xml version="1.0" encoding="UTF-8" standalone="no"?>
<!-- Created with Inkscape (http://www.inkscape.org/) -->

<svg
   xmlns:dc="http://purl.org/dc/elements/1.1/"
   xmlns:cc="http://creativecommons.org/ns#"
   xmlns:rdf="http://www.w3.org/1999/02/22-rdf-syntax-ns#"
   xmlns:svg="http://www.w3.org/2000/svg"
   xmlns="http://www.w3.org/2000/svg"
   xmlns:sodipodi="http://sodipodi.sourceforge.net/DTD/sodipodi-0.dtd"
   xmlns:inkscape="http://www.inkscape.org/namespaces/inkscape"
   width="48.08366"
   height="29.085695"
   id="svg3644"
   version="1.1"
   inkscape:version="0.48.3.1 r9886"
   sodipodi:docname="ojos_3.svg">
  <defs
     id="defs3646" />
  <sodipodi:namedview
     id="base"
     pagecolor="#ffffff"
     bordercolor="#666666"
     borderopacity="1.0"
     inkscape:pageopacity="0.0"
     inkscape:pageshadow="2"
     inkscape:zoom="0.98994949"
     inkscape:cx="341.53477"
     inkscape:cy="-146.43428"
     inkscape:document-units="px"
     inkscape:current-layer="layer1"
     showgrid="false"
     fit-margin-top="0"
     fit-margin-left="0"
     fit-margin-right="0"
     fit-margin-bottom="0"
     inkscape:window-width="1914"
     inkscape:window-height="1030"
     inkscape:window-x="0"
     inkscape:window-y="25"
     inkscape:window-maximized="1" />
  <metadata
     id="metadata3649">
    <rdf:RDF>
      <cc:Work
         rdf:about="">
        <dc:format>image/svg+xml</dc:format>
        <dc:type
           rdf:resource="http://purl.org/dc/dcmitype/StillImage" />
        <dc:title />
      </cc:Work>
    </rdf:RDF>
  </metadata>
  <g
     inkscape:label="Capa 1"
     inkscape:groupmode="layer"
     id="layer1"
     transform="translate(-557.95753,-313.07009)">
    <g
       id="g3003">
      <path
         sodipodi:nodetypes="cccccscc"
         inkscape:connector-curvature="0"
         id="path4859-2-0-7-5-1-8-0"
         d="m 598.06536,319.80601 -15.13272,-3.94754 -10.79348,0.70679 -5.74526,0.86223 1.94366,10.03594 c 0,0 7.66652,5.81566 11.76069,6.15293 4.09413,0.33725 15.44764,-3.9856 15.44764,-3.9856 l 4.09416,-8.81296"
         style="opacity:0.9;fill:#ffffff;stroke:none;display:inline" />
      <path
         inkscape:connector-curvature="0"
         id="path4770-9"
         d="m 606.04119,328.10187 c 0,1.6506 -10.23354,15.84552 -23.43812,13.86482 -13.20458,-1.98068 -21.78755,-12.54435 -24.09836,-15.84549 -2.31081,-3.30115 3.30115,-8.25287 5.61196,-4.29149 2.3108,3.96138 11.88411,11.88411 20.13697,10.23354 8.25286,-1.65057 13.20458,-8.25286 15.18526,-8.25286 1.9807,0 6.60229,4.29148 6.60229,4.29148 z"
         style="opacity:0.9;fill:#64837e;fill-opacity:0.38039216;fill-rule:evenodd;stroke:none;display:inline" />
      <path
         id="path2991-9-3-7-9"
         d="m 590.73638,323.50447 c 0,4.64909 -3.76883,8.41792 -8.41792,8.41792 -4.64908,0 -8.41792,-3.76883 -8.41792,-8.41792 0,-4.64909 3.76884,-8.41792 8.41792,-8.41792 4.64909,0 8.41792,3.76883 8.41792,8.41792 z"
         style="opacity:0.9;fill:#000000;fill-opacity:1;stroke:none;display:inline"
         inkscape:connector-curvature="0" />
      <path
         id="path4742"
         d="m 569.67369,316.20709 c -0.0869,-0.59105 3.06242,-1.57887 7.76675,-2.53467 2.00215,-0.32741 4.31539,-0.59037 6.81015,-0.59931 0.13035,-0.002 0.26191,-0.003 0.3946,-0.003 0.93665,-10e-4 1.89195,0.0403 2.8324,0.16626 0.94049,0.12592 1.86582,0.33648 2.74417,0.65107 5.38093,2.11443 9.07937,4.01462 8.86484,4.65026 0,0 0,0 0,0 0,0.003 0,0.003 0,0.003 0,0 0,0 0,0.003 0,0 0,0 0,0 -0.24265,0.62579 -4.31699,-0.19449 -9.80919,-1.88567 -0.65197,-0.19552 -1.36911,-0.31081 -2.1471,-0.37519 -0.77802,-0.0644 -1.61702,-0.0782 -2.5012,-0.0894 -0.12527,-0.002 -0.2507,-0.003 -0.37622,-0.005 -2.30102,-0.009 -4.49818,0.11562 -6.46137,0.2167 -4.73934,0.43277 -8.02842,0.39164 -8.11534,-0.19942 z"
         style="opacity:0.9;fill:#000000;fill-rule:evenodd;stroke:none;display:inline"
         inkscape:connector-curvature="0" />
      <path
         id="path4766"
         d="m 570.17878,329.47136 c 0.01,-0.0163 0.0209,-0.0316 0.0334,-0.0459 0.0122,-0.0137 0.0256,-0.0265 0.0402,-0.0384 0,0 0,0 0,0 0.0296,-0.024 0.0641,-0.0447 0.10388,-0.0623 0,0 0,0 0,0 0,0 0,0 0,0 0.0795,-0.0356 0.17837,-0.0596 0.29734,-0.0729 0,0 0,0 0,0 0,0 0,0 0,0 0.24096,-0.0269 0.55754,-0.0144 0.94747,0.0259 0,0 0,0 0,0 0.81241,0.0841 1.91922,0.26931 3.24749,0.46104 0,0 0,0 0,0 1.11775,0.16234 2.37771,0.32416 3.72562,0.45406 2.23807,0.2157 4.30292,0.30778 5.83733,0.4588 0.76723,0.0755 1.40078,0.16678 1.85163,0.29467 0.45085,0.12788 0.71929,0.293 0.75152,0.5057 0.0322,0.21269 -0.17555,0.45329 -0.58952,0.69759 -0.414,0.24431 -1.03461,0.49172 -1.82308,0.70197 -0.78843,0.21026 -1.74513,0.38261 -2.81943,0.47077 -1.07429,0.0882 -2.26625,0.0912 -3.50969,-0.0306 -1.49771,-0.1467 -2.89596,-0.46061 -4.08559,-0.86611 0,0 0,0 0,0 -1.4111,-0.48241 -2.53388,-1.10811 -3.22364,-1.6733 0,0 0,0 0,0 -0.33091,-0.27119 -0.5691,-0.53136 -0.70067,-0.75288 0,0 0,0 0,0 0,0 0,0 0,0 -0.0649,-0.10935 -0.10562,-0.21033 -0.11972,-0.299 0,0 0,0 0,0 0,0 0,0 0,0 -0.007,-0.044 -0.007,-0.0852 -0.003,-0.12312 0,0 0,0 0,0 0.003,-0.0189 0.007,-0.0371 0.0134,-0.0544 0.006,-0.0181 0.0143,-0.0353 0.0237,-0.0516 z"
         style="opacity:0.9;fill:#000000;fill-rule:evenodd;stroke:none;display:inline"
         inkscape:connector-curvature="0" />
    </g>
  </g>
</svg>
