<?xml version="1.0" encoding="UTF-8" standalone="no"?>
<!-- Created with Inkscape (http://www.inkscape.org/) -->

<svg
   xmlns:dc="http://purl.org/dc/elements/1.1/"
   xmlns:cc="http://creativecommons.org/ns#"
   xmlns:rdf="http://www.w3.org/1999/02/22-rdf-syntax-ns#"
   xmlns:svg="http://www.w3.org/2000/svg"
   xmlns="http://www.w3.org/2000/svg"
   xmlns:sodipodi="http://sodipodi.sourceforge.net/DTD/sodipodi-0.dtd"
   xmlns:inkscape="http://www.inkscape.org/namespaces/inkscape"
   width="48.24929"
   height="57.65395"
   id="svg3251"
   version="1.1"
   inkscape:version="0.48.3.1 r9886"
   sodipodi:docname="ojos_2.svg">
  <defs
     id="defs3253" />
  <sodipodi:namedview
     id="base"
     pagecolor="#ffffff"
     bordercolor="#666666"
     borderopacity="1.0"
     inkscape:pageopacity="0.0"
     inkscape:pageshadow="2"
     inkscape:zoom="1.979899"
     inkscape:cx="7.729903"
     inkscape:cy="-2.0960493"
     inkscape:document-units="px"
     inkscape:current-layer="layer1"
     showgrid="false"
     fit-margin-top="0"
     fit-margin-left="0"
     fit-margin-right="0"
     fit-margin-bottom="0"
     inkscape:window-width="560"
     inkscape:window-height="451"
     inkscape:window-x="499"
     inkscape:window-y="240"
     inkscape:window-maximized="0" />
  <metadata
     id="metadata3256">
    <rdf:RDF>
      <cc:Work
         rdf:about="">
        <dc:format>image/svg+xml</dc:format>
        <dc:type
           rdf:resource="http://purl.org/dc/dcmitype/StillImage" />
        <dc:title />
      </cc:Work>
    </rdf:RDF>
  </metadata>
  <g
     inkscape:label="Capa 1"
     inkscape:groupmode="layer"
     id="layer1"
     transform="translate(-390.09347,-543.22063)">
    <g
       id="g2992">
      <path
         sodipodi:nodetypes="cccccscc"
         inkscape:connector-curvature="0"
         id="path4859-2-0-7-5-1-8-0-9-51"
         d="m 429.46291,572.42151 -17.98118,-4.612 -12.82513,0.82576 -6.82674,1.00735 2.30951,11.72522 c 0,0 9.10963,6.79459 13.97445,7.18863 4.86475,0.39401 18.3554,-4.65649 18.3554,-4.65649 l 4.86483,-10.29638"
         style="opacity:0.9;fill:#ffffff;stroke:none;display:inline" />
      <path
         inkscape:connector-curvature="0"
         id="path2991-7-6-78-2-0-8-7"
         d="m 401.41741,572.66637 c 0,5.42269 4.39597,9.81866 9.81867,9.81866 5.42267,0 9.81864,-4.39597 9.81864,-9.81866 0,-5.42269 -4.39597,-9.81865 -9.81864,-9.81865 -5.4227,0 -9.81867,4.39596 -9.81867,9.81865 z"
         style="opacity:0.9;fill:#000000;fill-opacity:1;stroke:none;display:inline" />
      <path
         inkscape:connector-curvature="0"
         id="path7128-5"
         d="m 432.58804,551.856 c 0,0 4.57168,16.25486 4.57168,19.81061 0,3.55575 0,5.07966 0,5.07966 0,0 -15.74692,-8.63541 -19.30267,-8.63541 -3.55575,0 -26.41417,2.03184 -26.41417,2.03184 0,0 1.52391,-12.69907 4.06373,-16.25482 2.53984,-3.55575 23.36637,-10.66725 23.36637,-10.66725 z"
         style="fill:#917c6f;fill-rule:evenodd;stroke:none;display:inline" />
      <path
         inkscape:connector-curvature="0"
         id="path7053-3"
         d="m 433.24121,556.50515 c 0.0153,-0.004 0.0314,-0.006 0.0481,-0.004 0.0171,0.004 0.035,0.0109 0.0542,0.0222 0,0 0,0 0,0 0,0 0,0 0,0 0,0 0,0 0,0 0.038,0.0222 0.0802,0.0594 0.12643,0.11131 0,0 0,0 0,0 0,0 0,0 0,0 0.0907,0.10177 0.19691,0.26019 0.31686,0.47262 0,0 0,0 0,0 0.22999,0.40722 0.51104,1.01373 0.82983,1.80273 0,0 0,0 0,0 0.56928,1.40854 1.26627,3.39985 1.97109,5.89688 0,0 0,0 0,0 0.55122,1.94811 1.1315,4.21828 1.50576,6.81799 0,0 0,0 0,0 0.13602,0.93503 0.24369,1.94054 0.24536,3.02075 0,0 0,0 0,0 0.0219,0.72071 -0.0403,1.59664 -0.38329,2.57585 0,0 0,0 0,0 -0.11412,0.35052 -0.35048,0.74999 -0.73954,1.16072 -0.36257,0.34789 -0.80433,0.58545 -1.30157,0.69392 -1.08669,0.13208 -1.9206,-0.0676 -2.40895,-0.35186 -0.82593,-0.34797 -1.5549,-0.76758 -2.21393,-1.16148 0,0 0,0 0,0 -0.87078,-0.51341 -1.72629,-1.04273 -2.58431,-1.54674 0,0 0,0 0,0 -2.09774,-1.22876 -4.31353,-2.38601 -6.67491,-3.22906 -0.62211,-0.22638 -1.25662,-0.43203 -1.90164,-0.61514 -2.31319,-0.65659 -4.65301,-0.99024 -6.91612,-1.01359 -4.72327,0.22838 -9.13253,0.41888 -13.04364,0.5958 -3.91115,0.17691 -7.32408,0.34039 -10.07747,0.48711 0,0 0,0 0,0 0.38053,-2.79105 0.78998,-4.94856 1.16822,-6.38483 0.37827,-1.4363 0.72474,-2.15194 0.93258,-2.11038 0.20784,0.0416 0.25359,0.82953 0.0791,2.15711 -0.17452,1.32757 -0.56983,3.19416 -1.19747,5.44402 0,0 0,0 0,0 2.76494,-0.44453 6.07511,-1.0014 9.77966,-1.64047 3.70458,-0.63904 7.80369,-1.36014 12.16923,-2.10553 2.63686,-0.0233 5.3625,0.32476 8.04464,1.06589 0.74794,0.20668 1.4827,0.441 2.20195,0.70071 2.66837,0.97964 5.07466,2.27433 7.25851,3.63705 0,0 0,0 0,0 0.89434,0.55664 1.73671,1.11274 2.55269,1.63168 0,0 0,0 0,0 0.6484,0.40632 1.21561,0.77418 1.75353,1.0172 0.41841,0.10873 0.56622,0.26431 0.42671,0.20457 0,0 0,0 0,0 -0.1199,0.0321 -0.20951,0.0849 -0.29631,0.1693 -0.0526,0.0893 -0.0598,0.0735 -0.004,-0.004 0,0 0,0 0,0 0.17542,-0.31665 0.20653,-0.84 0.26437,-1.46217 0,0 0,0 0,0 0.0536,-0.8613 0.012,-1.74114 -0.0495,-2.6197 0,0 0,0 0,0 -0.17452,-2.43387 -0.53832,-4.66646 -0.85668,-6.6323 0,0 0,0 0,0 -0.40727,-2.50855 -0.77687,-4.55857 -0.99611,-6.04925 0,0 0,0 0,0 -0.12275,-0.83471 -0.20019,-1.49298 -0.22102,-1.95758 0,0 0,0 0,0 -0.0109,-0.24233 -0.006,-0.43171 0.0149,-0.56582 0,0 0,0 0,0 0,0 0,0 0,0 0.0109,-0.0683 0.0262,-0.12221 0.0458,-0.1614 0,0 0,0 0,0 0,0 0,0 0,0 0,0 0,0 0,0 0.01,-0.0196 0.0212,-0.0357 0.0331,-0.0481 0.0131,-0.0106 0.0274,-0.0179 0.0426,-0.0226 z"
         style="opacity:0.9;fill:#000000;fill-rule:evenodd;stroke:none;display:inline" />
      <path
         sodipodi:nodetypes="cscsc"
         inkscape:connector-curvature="0"
         id="path7094-9"
         d="m 427.00067,584.11176 c 0,0 -13.1278,4.29155 -16.25487,3.55573 -8.63562,-2.03186 -17.27103,-6.60354 -17.27103,-6.60354 0,0 4.80366,19.81063 9.14361,19.81063 20.31855,3e-5 24.38229,-16.76282 24.38229,-16.76282 z"
         style="fill:#917c6f;fill-rule:evenodd;stroke:none;display:inline" />
    </g>
  </g>
</svg>
