<?xml version="1.0" encoding="UTF-8" standalone="no"?>
<!-- Created with Inkscape (http://www.inkscape.org/) -->

<svg
   xmlns:dc="http://purl.org/dc/elements/1.1/"
   xmlns:cc="http://creativecommons.org/ns#"
   xmlns:rdf="http://www.w3.org/1999/02/22-rdf-syntax-ns#"
   xmlns:svg="http://www.w3.org/2000/svg"
   xmlns="http://www.w3.org/2000/svg"
   xmlns:sodipodi="http://sodipodi.sourceforge.net/DTD/sodipodi-0.dtd"
   xmlns:inkscape="http://www.inkscape.org/namespaces/inkscape"
   width="59.937546"
   height="112.27888"
   id="svg3398"
   version="1.1"
   inkscape:version="0.48.3.1 r9886"
   sodipodi:docname="Documento nuevo 8">
  <defs
     id="defs3400" />
  <sodipodi:namedview
     id="base"
     pagecolor="#ffffff"
     bordercolor="#666666"
     borderopacity="1.0"
     inkscape:pageopacity="0.0"
     inkscape:pageshadow="2"
     inkscape:zoom="0.35"
     inkscape:cx="-108.60265"
     inkscape:cy="38.996582"
     inkscape:document-units="px"
     inkscape:current-layer="layer1"
     showgrid="false"
     fit-margin-top="0"
     fit-margin-left="0"
     fit-margin-right="0"
     fit-margin-bottom="0"
     inkscape:window-width="560"
     inkscape:window-height="451"
     inkscape:window-x="3"
     inkscape:window-y="47"
     inkscape:window-maximized="0" />
  <metadata
     id="metadata3403">
    <rdf:RDF>
      <cc:Work
         rdf:about="">
        <dc:format>image/svg+xml</dc:format>
        <dc:type
           rdf:resource="http://purl.org/dc/dcmitype/StillImage" />
        <dc:title></dc:title>
      </cc:Work>
    </rdf:RDF>
  </metadata>
  <g
     inkscape:label="Capa 1"
     inkscape:groupmode="layer"
     id="layer1"
     transform="translate(-458.60265,-459.07988)">
    <g
       style="opacity:0.9;display:inline"
       id="g5978"
       transform="matrix(0.36665105,0,0,0.36665105,-830.80611,510.77589)">
      <path
         id="path4874"
         d="m 3584.2583,-140.99356 c 0.027,0.004 0.053,0.0168 0.077,0.0378 0.023,0.0264 0.044,0.0639 0.064,0.11214 0,0 0,0 0,0 0,0 0,0 0,0 0.039,0.0963 0.072,0.23577 0.097,0.41787 0,0 0,0 0,0 0,0 0,0 0,0 0.051,0.36179 0.074,0.89167 0.072,1.58449 0,0 0,0 0,0 0,1.36616 -0.1107,3.3658 -0.3126,5.95932 0,0 0,0 0,0 -0.3907,5.01913 -1.14,12.26226 -2.2054,21.44212 0,0 0,1e-5 0,1e-5 -1.9447,16.756698 -4.9453,39.965613 -8.7199,67.881304 0,0 0,0 0,0 -3.0614,22.641278 -6.6429,48.3745855 -10.5047,76.27838 -1.4345,10.365294 -2.908,21.025882 -4.3739,31.938242 0,0 0,0 0,0 -1.0075,7.501074 -2.0266,15.096937 -2.929,22.784145 -1.0667,9.564005 -1.4109,19.438369 -0.1394,28.987319 0.8449,6.34541 2.3954,12.42876 4.838,18.0847 1.6952,3.91653 3.6418,7.52759 6.1835,10.34383 0.8048,0.87474 1.5101,1.6044 2.1922,2.04566 0.7159,0.19317 0.5217,0.37756 -0.5608,0.0756 1.3537,0.0742 2.1884,0.25001 2.5124,0.39666 0,0 0,0 0,1e-5 0.8524,0.23064 1.6185,0.47686 2.3076,0.70638 0,0 0,10e-6 0,10e-6 2.1018,0.69403 4.1175,1.40928 6.0759,2.06642 5.6013,1.87166 11.096,3.50321 16.534,4.50231 5.9481,1.03478 11.6834,1.57606 16.728,0.36353 2.3254,-0.5454 4.4854,-1.39009 6.2033,-2.6344 1.8349,-1.2715 3.3523,-3.10428 4.4392,-5.15103 4.1179,-7.79967 6.7325,-16.2295 9.0374,-24.54983 0.5988,-2.43579 1.5023,-5.31438 3.3567,-8.13944 2.1363,-2.87332 4.9345,-4.65599 7.7328,-5.55589 4.1747,-1.36679 8.043,-1.5324 11.349,-1.72958 4.0313,-0.32182 7.7145,-0.54501 10.9172,-1.44978 1.5099,-0.42873 2.8747,-0.93446 3.9707,-1.64004 1.0569,-0.66908 1.9633,-1.51949 2.5543,-2.4782 0.7632,-1.13803 1.1658,-2.647288 1.3778,-4.237055 0.2961,-2.329626 0.016,-4.814133 -0.4273,-7.30937 -1.1835,-6.310683 -2.5234,-12.143732 -4.1496,-17.424966 -0.7193,-2.295823 -1.4405,-4.47187 -2.2517,-6.476237 -0.8113,-2.004367 -1.7123,-3.837322 -2.7517,-5.473419 -0.8091,-1.251327 -1.601,-2.330733 -2.5105,-3.066624 -0.7203,-0.554647 -1.422,-0.9785 -2.0281,-1.003114 -0.6399,-0.134578 -1.4619,0.184738 -2.2375,0.618 -1.282,0.752809 -2.3291,1.985304 -3.3036,3.226351 -6.6941,8.793798 -10.6511,13.512267 -11.2701,13.313926 -0.042,-0.02517 -0.025,-0.01535 -0.025,-0.01535 0,0 0.015,0.01223 -0.023,-0.01776 -0.4083,-0.505883 2.5657,-5.898207 8.3538,-15.313064 0.915,-1.515225 2.1136,-3.157905 3.9453,-4.556252 1.2051,-0.935089 2.8166,-1.624372 4.7559,-1.644087 1.7584,0.08069 3.3807,0.710645 4.6586,1.675811 1.5293,1.119029 2.7882,2.517545 3.8185,3.973816 2.6752,3.726043 4.6803,8.208502 6.3766,12.897772 2.0054,5.469791 3.7023,11.490628 5.1862,17.914531 0.6729,2.834643 1.112,5.962925 0.8802,9.328524 -0.1564,2.385367 -0.7951,4.906317 -2.1444,7.307287 -1.179,2.00667 -2.7953,3.70349 -4.6988,4.97908 -1.89,1.2559 -3.9112,2.13695 -5.9144,2.73672 -4.1598,1.2506 -8.3731,1.7001 -12.3543,2.08819 -3.5138,0.40707 -6.7516,0.53654 -9.2646,1.56438 -1.5855,0.66978 -2.9935,1.4789 -3.5452,2.53689 -0.8965,1.19811 -1.323,3.18395 -1.9926,5.5653 -2.1521,8.60538 -4.8064,17.65419 -9.2255,26.52785 -1.6359,3.27103 -4.0459,6.2331 -7.1496,8.52319 -2.9109,2.09387 -6.174,3.49325 -9.4997,4.26878 -6.9474,1.59061 -14.0095,1.17152 -20.5811,-0.0432 -6.1125,-1.07624 -12.078,-2.77117 -17.9131,-4.68845 -2.0721,-0.6782 -4.0807,-1.37532 -6.0496,-2.01045 0,0 0,-1e-5 0,-1e-5 -0.6617,-0.21155 -1.2512,-0.40087 -1.7762,-0.5352 0,0 0,-1e-5 0,-1e-5 -0.4948,-0.0703 -0.4891,-0.13381 0.016,-0.0596 -2.7081,-0.30199 -4.3801,-1.05466 -5.0115,-1.77986 -1.634,-1.13748 -2.9518,-2.39404 -4.0217,-3.62228 -3.498,-3.95879 -6.0442,-8.47527 -7.9565,-13.03962 -2.7738,-6.60742 -4.5652,-13.54768 -5.5523,-20.63904 -1.4855,-10.67151 -1.125,-21.385577 0.1655,-31.516127 0.951,-7.79695 2.0251,-15.444721 3.0941,-22.945901 0,0 0,0 0,0 1.5577,-10.933311 3.1478,-21.598211 4.7221,-31.95364 4.2384,-27.8788308 8.3728,-53.543803 12.1286,-76.086371 0,0 0,0 0,0 4.631,-27.795664 8.7042,-50.845647 11.8711,-67.417261 0,0 0,0 0,0 1.7349,-9.07851 3.1988,-16.21273 4.3379,-21.117 0,0 0,0 0,0 0.5886,-2.53416 1.0905,-4.47295 1.4984,-5.77691 0,0 0,0 0,0 0.2068,-0.66129 0.3895,-1.15931 0.5471,-1.48894 0,0 0,0 0,0 0,0 0,0 0,0 0.079,-0.1659 0.1522,-0.28914 0.2187,-0.36907 0,0 0,0 0,0 0,0 0,0 0,0 0.033,-0.0401 0.065,-0.0693 0.095,-0.0875 0.03,-0.0127 0.058,-0.0169 0.085,-0.0127 z"
         style="fill:#000000;fill-rule:evenodd;stroke:none;display:inline"
         inkscape:connector-curvature="0" />
      <path
         id="path4933"
         d="m 3553.6722,56.921237 c 0.3802,0.808509 -1.3712,2.55919 -4.7268,4.939168 -2.8251,2.150841 -6.7423,4.890737 -10.9716,8.455525 -1.688,1.443329 -3.4323,2.977299 -5.0608,4.641012 -1.6285,1.663712 -3.1404,3.456808 -4.3064,5.458604 -0.893,1.542769 -1.6151,3.095887 -1.8221,4.57591 -0.2196,1.279889 -0.1146,2.68876 0.3212,3.960629 0.014,0.04098 0.028,0.08178 0.043,0.122377 1.5069,4.358183 4.1423,8.364865 6.8437,12.124788 3.2634,4.48555 6.7105,8.39166 9.7672,11.78567 0,0 0,0 0,0 3.4437,3.81831 6.3954,6.93719 8.4123,9.30966 0,0 0,0 0,0 1.0712,1.25994 1.8766,2.30389 2.3657,3.1205 0,0 0,0 0,0 0.2504,0.41796 0.4165,0.77526 0.4929,1.07073 0,0 0,0 0,0 0,0 0,0 0,0 0.038,0.14885 0.053,0.28194 0.045,0.39911 0,0 0,0 0,0 0,0 0,0 0,0 -0.062,0.14191 -0.088,0.21916 -0.098,0.26073 0,0 0,0 0,0 -0.01,0.041 0,0.0474 0,0.0479 0,0 0,0 0,0 0,0 0,0 0,0 0,0 0,0 0,0 0,0 0,0 0,0 0,0 0,0 0,0 0,0 0,0 0,0 0,0 0,0 0,0 0,0 0,0 0,0 0,0 0,0 0,0 0,0 0,0 0,0 0,0 0,0 0,0 0,0 0,0 0,0 0,0 0,0 0,0 0,0 0,0 0,0 0,3e-5 0,2e-5 0,2e-5 0,0 0,1e-5 0,-10e-6 0,0 0,0 0,0 0,0 0,0 0,0 0,0 0,0 0,0 0,0 0,0 0,0 0,0 0,0 0,0 0,0 0,0 0,0 0,0 0,0 0,0 0,0 0,0 0,0 0,0 0,0 0,0 0,0 0,0 0,0 0,0 0,0 0,0 0,0 0,0 0,0 0,0 0,0 0,0 0,0 0,0 0,0 -7e-4,-3.5e-4 -0.01,-0.004 -0.044,0.0196 0,0 0,0 0,0 -0.036,0.0234 -0.1,0.0737 -0.2123,0.17997 0,0 0,0 0,0 0,0 0,0 0,0 -0.1085,0.0463 -0.2415,0.074 -0.3977,0.0836 0,0 0,0 0,0 0,0 0,0 0,0 -0.308,0.0197 -0.7071,-0.032 -1.1883,-0.15325 0,0 0,0 0,0 -0.9404,-0.23692 -2.2004,-0.7431 -3.7169,-1.51239 0,0 0,0 0,0 -2.8552,-1.44804 -6.6477,-3.83412 -10.9035,-7.20372 0,0 0,0 0,0 -3.7776,-2.98615 -7.964,-6.77138 -11.9771,-11.54897 -3.3425,-3.93405 -6.6528,-8.740292 -8.8025,-14.620484 -0.034,-0.0944 -0.066,-0.189082 -0.098,-0.284024 -0.9901,-2.946463 -1.1668,-6.052315 -0.5908,-8.996916 0.6609,-3.128864 1.9538,-5.800776 3.4947,-7.995802 1.9102,-2.722431 4.0636,-4.951668 6.2413,-6.818195 2.1777,-1.866527 4.3794,-3.371457 6.4589,-4.630388 5.2757,-3.252724 10.0173,-5.184573 13.5463,-6.268193 4.0381,-1.096974 6.5083,-1.33155 6.8885,-0.523041 z"
         style="fill:#000000;fill-rule:evenodd;stroke:none;display:inline"
         inkscape:connector-curvature="0" />
    </g>
  </g>
</svg>
