<?xml version="1.0" encoding="UTF-8" standalone="no"?>
<!-- Created with Inkscape (http://www.inkscape.org/) -->

<svg
   xmlns:dc="http://purl.org/dc/elements/1.1/"
   xmlns:cc="http://creativecommons.org/ns#"
   xmlns:rdf="http://www.w3.org/1999/02/22-rdf-syntax-ns#"
   xmlns:svg="http://www.w3.org/2000/svg"
   xmlns="http://www.w3.org/2000/svg"
   xmlns:sodipodi="http://sodipodi.sourceforge.net/DTD/sodipodi-0.dtd"
   xmlns:inkscape="http://www.inkscape.org/namespaces/inkscape"
   width="107.46263"
   height="143.73895"
   id="svg4068"
   version="1.1"
   inkscape:version="0.48.3.1 r9886"
   sodipodi:docname="nariz_6.svg">
  <defs
     id="defs4070">
    <inkscape:path-effect
       effect="skeletal"
       id="path-effect2987"
       is_visible="true"
       pattern="m 1325.411,381.83194 c 0,-2.76 2.24,-5 5,-5 2.76,0 5,2.24 5,5 0,2.76 -2.24,5 -5,5 -2.76,0 -5,-2.24 -5,-5 z"
       copytype="single_stretched"
       prop_scale="1"
       scale_y_rel="false"
       spacing="0"
       normal_offset="0"
       tang_offset="0"
       prop_units="false"
       vertical_pattern="false"
       fuse_tolerance="0" />
    <inkscape:path-effect
       effect="skeletal"
       id="path-effect6574"
       is_visible="true"
       pattern="m -14069.21,-1265.6489 c 0,-2.76 2.24,-5 5,-5 2.76,0 5,2.24 5,5 0,2.76 -2.24,5 -5,5 -2.76,0 -5,-2.24 -5,-5 z"
       copytype="single_stretched"
       prop_scale="1"
       scale_y_rel="false"
       spacing="0"
       normal_offset="0"
       tang_offset="0"
       prop_units="false"
       vertical_pattern="false"
       fuse_tolerance="0" />
    <inkscape:path-effect
       effect="skeletal"
       id="path-effect5543"
       is_visible="true"
       pattern="m -13870.71,-1632.2205 c 0,-2.76 2.24,-5 5,-5 2.76,0 5,2.24 5,5 0,2.76 -2.24,5 -5,5 -2.76,0 -5,-2.24 -5,-5 z"
       copytype="single_stretched"
       prop_scale="1"
       scale_y_rel="false"
       spacing="0"
       normal_offset="0"
       tang_offset="0"
       prop_units="false"
       vertical_pattern="false"
       fuse_tolerance="0" />
  </defs>
  <sodipodi:namedview
     id="base"
     pagecolor="#ffffff"
     bordercolor="#666666"
     borderopacity="1.0"
     inkscape:pageopacity="0.0"
     inkscape:pageshadow="2"
     inkscape:zoom="1.979899"
     inkscape:cx="123.17166"
     inkscape:cy="-18.193849"
     inkscape:document-units="px"
     inkscape:current-layer="layer1"
     showgrid="false"
     fit-margin-top="0"
     fit-margin-left="0"
     fit-margin-right="0"
     fit-margin-bottom="0"
     inkscape:window-width="1914"
     inkscape:window-height="1030"
     inkscape:window-x="0"
     inkscape:window-y="25"
     inkscape:window-maximized="1" />
  <metadata
     id="metadata4073">
    <rdf:RDF>
      <cc:Work
         rdf:about="">
        <dc:format>image/svg+xml</dc:format>
        <dc:type
           rdf:resource="http://purl.org/dc/dcmitype/StillImage" />
        <dc:title></dc:title>
      </cc:Work>
    </rdf:RDF>
  </metadata>
  <g
     inkscape:label="Capa 1"
     inkscape:groupmode="layer"
     id="layer1"
     transform="translate(-1340.1854,-411.83132)">
    <g
       id="g2989">
      <path
         sodipodi:nodetypes="cscc"
         inkscape:connector-curvature="0"
         inkscape:original-d="m 1371.783,412.26172 c 0,0 50.8246,9.09591 33.8054,51.21521 -7.4874,18.5299 -45.6991,48.7294 -63.5744,45.1543 15.2906,41.81488 62.6647,44.40544 90.1154,45.42194"
         inkscape:path-effect="#path-effect6574"
         id="path6572"
         d="m 1371.783,412.26172 c 0,-0.0207 0.011,-0.0407 0.022,-0.0601 0.01,-0.0186 0.023,-0.0365 0.04,-0.0538 0.032,-0.0345 0.077,-0.0664 0.1331,-0.0958 0,0 0,0 0,0 0,0 0,0 0,0 0.1116,-0.058 0.2707,-0.10561 0.475,-0.1417 0,0 0,0 0,0 0.3983,-0.0704 0.9723,-0.0965 1.7089,-0.0671 0,0 0,0 0,0 1.3904,0.0554 3.3736,0.30645 5.859,0.86964 0,0 0,0 0,0 2.1532,0.48539 4.6993,1.20179 7.5412,2.299 2.8419,1.09722 5.9819,2.57463 9.2377,4.6568 0,0 0,0 0,0 2.7609,1.76676 5.6014,4.00668 8.2119,6.91962 0,0 0,0 0,0 2.4184,2.70227 4.5741,5.99728 6.0632,9.86991 0,0 0,0 0,0 1.504,3.96894 2.2407,8.40056 2.0805,12.96078 0,0 0,0 0,0 0,1e-5 0,1e-5 0,1e-5 0,0 0,0 0,0 -0.1941,5.26803 -1.4345,10.61404 -3.4209,15.733 0,0 0,0 0,0 -1.2613,3.1884 -2.9271,6.18487 -4.8511,8.9979 -1.9239,2.81304 -4.106,5.4426 -6.3553,7.91502 0,0 0,0 0,0 -5.2085,5.83387 -11.2346,11.30356 -17.8792,16.26534 -4.4774,3.3623 -9.3236,6.56738 -14.6017,9.2986 -1.8562,0.96051 -3.7466,1.852 -5.6711,2.66418 -3.1005,1.3147 -6.404,2.41204 -9.8886,3.06587 -1.9421,-0.52812 -4.2249,-1.46324 -6.6432,-3.1589 2.1399,3.95953 4.7888,7.64957 7.8088,10.94649 3.0201,3.29693 6.4111,6.20039 10.0438,8.63621 0,0 0,0 0,0 3.36,3.06878 7.0253,5.62243 10.776,7.77602 3.7507,2.15359 7.5868,3.90716 11.3396,5.36009 4.5922,1.77206 9.0753,3.09295 13.3079,4.14887 4.2327,1.05593 8.2151,1.84642 11.8447,2.49661 3.5999,0.64357 6.8606,1.13854 9.718,1.56877 2.8574,0.43023 5.3116,0.79455 7.3088,1.13257 3.9945,0.67603 6.158,1.25543 6.1383,1.78761 -0.02,0.53218 -2.2149,0.97947 -6.2864,1.26382 -2.0358,0.14217 -4.5413,0.24125 -7.4815,0.2522 -2.9402,0.011 -6.3154,-0.0651 -10.0891,-0.31866 -3.7981,-0.25358 -8.0041,-0.68469 -12.5447,-1.43979 -4.5407,-0.7551 -9.4166,-1.83395 -14.5161,-3.4463 -4.1856,-1.31922 -8.52,-3.03066 -12.84,-5.26694 -4.3201,-2.23629 -8.6256,-4.99777 -12.6977,-8.42789 0,0 0,0 0,-1e-5 -3.4993,-3.80071 -6.6397,-8.23867 -9.2712,-13.21599 -2.6315,-4.97733 -4.7537,-10.49373 -6.2182,-16.39108 2.5057,-0.71085 5.3846,-1.99485 8.4703,-3.46643 2.5547,-0.47939 5.1672,-1.3907 7.8413,-2.50929 1.6655,-0.7005 3.3163,-1.48043 4.9539,-2.32997 4.6563,-2.41568 9.0699,-5.31964 13.2952,-8.40011 6.2198,-4.56194 11.8595,-9.49616 16.7472,-14.71689 0,0 0,0 0,0 2.1244,-2.31641 4.1299,-4.58441 5.8397,-6.87063 1.7097,-2.28622 3.1237,-4.59078 4.111,-6.96726 0,0 0,0 0,0 1.8514,-4.37884 3.1138,-8.70795 3.4462,-12.84572 0,0 0,0 0,0 0,0 0,0 0,-1e-5 0,0 0,0 0,0 0.2928,-3.53251 -0.041,-6.95483 -0.9863,-9.99027 0,0 0,0 0,0 -0.9068,-2.97884 -2.4066,-5.68266 -4.1588,-8.01378 0,0 0,0 0,0 -1.9031,-2.53436 -4.141,-4.65359 -6.3869,-6.45698 0,0 0,0 0,0 -2.6622,-2.13772 -5.3352,-3.81121 -7.7983,-5.18563 -2.4632,-1.37442 -4.7186,-2.44889 -6.6361,-3.33143 0,0 0,0 -10e-5,0 -2.2127,-1.0156 -3.9773,-1.76497 -5.1982,-2.34715 0,0 0,0 0,0 -0.6469,-0.30843 -1.1387,-0.56845 -1.4668,-0.7907 0,0 0,0 0,0 -0.1684,-0.11402 -0.2928,-0.21789 -0.3726,-0.31293 0,0 0,0 0,0 0,0 0,0 0,0 -0.041,-0.0481 -0.069,-0.094 -0.087,-0.13762 -0.01,-0.022 -0.014,-0.0434 -0.017,-0.0643 -0,-0.0218 -0,-0.0431 0,-0.0637 z"
         style="fill:#000000;fill-rule:evenodd;stroke:none;display:inline" />
      <path
         inkscape:connector-curvature="0"
         inkscape:original-d="m 1410.7689,527.62809 c 0,0 32.3249,14.14214 36.8706,14.64721"
         inkscape:path-effect="#path-effect2987"
         id="path2985"
         d="m 1410.7689,527.6281 c 1.0276,-2.40994 9.2355,-1.24876 18.6772,2.5472 0,0 0,0 0,10e-6 0.5045,0.19758 1.0123,0.40216 1.5224,0.61341 4.0406,1.67327 7.619,3.50012 10.4295,5.22442 0,0 0,0 0,0 1.735,1.06167 3.1318,2.06799 4.1809,2.98102 0.5702,0.49475 1.0077,0.95478 1.3431,1.38488 0.294,0.34991 0.4527,0.67684 0.5686,0.98749 0.1159,0.31064 0.182,0.61077 0.1489,0.90877 -0.033,0.298 -0.1765,0.58024 -0.4565,0.82048 -0.2799,0.24025 -0.7019,0.43137 -1.151,0.5807 -0.5798,0.18304 -1.3039,0.29059 -2.107,0.33242 -1.485,0.0773 -3.3436,-0.0929 -5.3911,-0.47089 0,0 0,0 0,0 -3.3476,-0.61958 -7.3275,-1.82667 -11.4277,-3.52521 -0.5176,-0.21444 -1.0274,-0.43246 -1.5286,-0.65331 0,0 0,0 0,0 -9.3,-4.19559 -15.8363,-9.32145 -14.8087,-11.73139 z"
         style="fill:#000000;fill-rule:evenodd;stroke:none" />
    </g>
  </g>
</svg>
