<?xml version="1.0" encoding="UTF-8" standalone="no"?>
<!-- Created with Inkscape (http://www.inkscape.org/) -->

<svg
   xmlns:dc="http://purl.org/dc/elements/1.1/"
   xmlns:cc="http://creativecommons.org/ns#"
   xmlns:rdf="http://www.w3.org/1999/02/22-rdf-syntax-ns#"
   xmlns:svg="http://www.w3.org/2000/svg"
   xmlns="http://www.w3.org/2000/svg"
   xmlns:sodipodi="http://sodipodi.sourceforge.net/DTD/sodipodi-0.dtd"
   xmlns:inkscape="http://www.inkscape.org/namespaces/inkscape"
   width="80.479065"
   height="105.98376"
   id="svg3398"
   version="1.1"
   inkscape:version="0.48.3.1 r9886"
   sodipodi:docname="nariz_1.svg">
  <defs
     id="defs3400" />
  <sodipodi:namedview
     id="base"
     pagecolor="#ffffff"
     bordercolor="#666666"
     borderopacity="1.0"
     inkscape:pageopacity="0.0"
     inkscape:pageshadow="2"
     inkscape:zoom="0.49497475"
     inkscape:cx="-10.062495"
     inkscape:cy="53.921198"
     inkscape:document-units="px"
     inkscape:current-layer="layer1"
     showgrid="false"
     fit-margin-top="0"
     fit-margin-left="0"
     fit-margin-right="0"
     fit-margin-bottom="0"
     inkscape:window-width="560"
     inkscape:window-height="451"
     inkscape:window-x="3"
     inkscape:window-y="47"
     inkscape:window-maximized="0" />
  <metadata
     id="metadata3403">
    <rdf:RDF>
      <cc:Work
         rdf:about="">
        <dc:format>image/svg+xml</dc:format>
        <dc:type
           rdf:resource="http://purl.org/dc/dcmitype/StillImage" />
        <dc:title></dc:title>
      </cc:Work>
    </rdf:RDF>
  </metadata>
  <g
     inkscape:label="Capa 1"
     inkscape:groupmode="layer"
     id="layer1"
     transform="translate(-450.45012,-460.75845)">
    <path
       inkscape:connector-curvature="0"
       style="opacity:0.9;fill:#000000;fill-rule:evenodd;stroke:none;display:inline"
       d="m 482.46635,460.76126 c 0.49004,0.21225 -4.24981,12.36866 -12.24534,31.68803 0,0 0,0 0,0 -2.87617,7.05555 -6.16494,15.06648 -9.64259,23.84701 -1.21693,3.07276 -2.4571,6.23311 -3.66579,9.48768 -0.43825,1.18017 -0.87072,2.36745 -1.28199,3.56581 -0.29289,0.85507 -0.57413,1.69534 -0.80649,2.52938 -0.83865,2.92607 -0.83591,6.20703 -0.54929,9.5785 0.3388,3.69854 1.13102,7.4262 2.46378,11.00688 0.61366,1.64449 1.33392,3.24214 2.21705,4.73127 0.78304,1.3117 1.66095,2.53413 2.70477,3.53316 0.005,0.004 0.009,0.008 0.0131,0.0126 0.90883,0.85764 1.89819,1.56268 2.94256,1.91967 1.00458,0.36609 2.13949,0.4345 3.19971,0.22447 0,0 0,0 0,0 1.40928,-0.2712 2.80785,-0.8248 4.19776,-1.48308 0,0 0,0 0,0 1.62895,-0.77819 3.19843,-1.71938 4.7458,-2.71901 0,0 0,0 0,0 3.63792,-2.35267 7.05467,-4.99235 10.49454,-7.50744 3.67407,-2.69297 7.36748,-5.28845 11.24714,-7.37187 1.81227,-0.98648 3.70821,-1.86301 5.65932,-2.51304 1.95106,-0.65003 3.95725,-1.07355 5.99174,-1.18197 0,0 0,0 0,0 3.25651,-0.14528 6.36658,-0.90874 9.11242,-2.13878 0,0 0,0 0,0 2.52095,-1.13653 4.74389,-2.62584 6.44606,-4.42318 0,0 0,0 0,0 0.69951,-0.76374 1.33396,-1.5552 1.81295,-2.36334 0.47897,-0.80814 0.80255,-1.63298 0.90557,-2.4657 0,0 0,0 0,0 0.0952,-0.68818 0.0532,-1.3711 -0.17006,-1.93974 0,0 0,0 0,0 -0.22221,-0.62592 -0.68845,-1.18641 -1.23649,-1.63082 0,0 0,0 0,0 -0.78739,-0.64067 -1.69697,-1.09188 -2.63904,-1.43639 -0.94211,-0.34451 -1.91685,-0.58213 -2.86117,-0.77184 0,0 0,0 0,0 0,0 0,0 0,0 0,0 0,0 0,0 -1.26741,-0.2449 -2.48787,-0.37838 -3.64035,-0.45542 -1.15248,-0.077 -2.23707,-0.0974 -3.23992,-0.0964 0,0 0,0 0,0 -2.47524,0.004 -4.44635,0.14995 -5.85024,0.24443 0,0 0,0 0,0 -0.78719,0.053 -1.39553,0.0937 -1.81744,0.10504 0,0 0,0 0,0 -0.22105,0.006 -0.39062,0.004 -0.50779,-0.008 0,0 0,0 0,0 0,0 0,0 0,0 -0.0597,-0.006 -0.10579,-0.0147 -0.1381,-0.0262 0,0 0,0 0,0 -0.0199,-0.0232 -0.0337,-0.0343 -0.0426,-0.0396 0,0 0,0 0,0 -0.009,-0.005 -0.0127,-0.005 -0.0131,-0.005 0,0 0,0 0,0 0,0 0,0 0,0 0,0 0,0 0,0 0,0 0,0 0,0 2.7e-4,-7e-5 0.004,-7.8e-4 0.0101,-0.009 0,0 0,0 0,0 0.006,-0.008 0.0142,-0.024 0.0232,-0.0532 0,0 0,0 0,0 0.0255,-0.0232 0.0651,-0.0491 0.11872,-0.0776 0,0 0,0 0,0 0,0 0,0 0,0 0.10477,-0.0557 0.26325,-0.12088 0.47411,-0.19371 0,0 0,0 0,0 0.40249,-0.139 0.99704,-0.30633 1.77596,-0.48423 0,0 0,0 0,0 1.3889,-0.3173 3.36841,-0.68201 5.90439,-0.89516 0,0 0,0 0,0 1.02574,-0.087 2.1466,-0.14959 3.35732,-0.14982 1.21075,-2.3e-4 2.51155,0.0616 3.89213,0.24415 0,0 0,0 0,0 0,0 0,10e-6 0,10e-6 0,0 0,0 0,0 1.02657,0.1284 2.11932,0.33267 3.23036,0.68755 1.11103,0.35489 2.24058,0.86023 3.31598,1.61664 0,0 0,0 0,0 0.85453,0.60751 1.60666,1.45836 2.08031,2.53847 0,0 0,0 0,0 0.41427,0.99407 0.55296,2.08192 0.43136,3.14089 0,0 0,0 0,0 -0.149,1.19723 -0.53291,2.34494 -1.08867,3.41431 -0.55576,1.06935 -1.28345,2.06035 -2.09493,2.94086 0,0 0,0 0,0 -1.92435,2.14921 -4.40008,3.94071 -7.1932,5.27311 0,0 0,0 0,0 -3.05019,1.46283 -6.51712,2.40819 -10.18092,2.64738 0,0 0,0 0,0 -1.68288,0.0981 -3.38145,0.50066 -5.08493,1.118 -1.70345,0.61733 -3.41181,1.44938 -5.11166,2.37858 -3.61041,2.00209 -7.12365,4.55257 -10.74923,7.25936 -3.36781,2.5207 -6.81503,5.22583 -10.60913,7.71896 -1.6149,1.06221 -3.31636,2.08942 -5.14583,2.97848 0,0 0,0 0,0 -1.55292,0.76045 -3.24366,1.41863 -5.08002,1.79655 0,0 0,0 0,0 -1.70944,0.3439 -3.50871,0.23206 -5.19151,-0.36142 -1.66339,-0.60983 -3.10201,-1.59071 -4.28365,-2.74713 -0.005,-0.005 -0.0117,-0.0113 -0.0172,-0.0169 -1.35011,-1.31465 -2.43364,-2.80072 -3.32441,-4.32493 -1.01578,-1.72819 -1.827,-3.52848 -2.49158,-5.34009 -1.44387,-3.92645 -2.28601,-7.98047 -2.62,-11.98146 -0.32246,-3.59965 -0.24657,-7.33059 0.76504,-10.88038 0.27592,-0.94492 0.58777,-1.84715 0.89898,-2.71805 0.4405,-1.23528 0.89815,-2.44496 1.35795,-3.63416 1.26805,-3.27992 2.56615,-6.44484 3.84091,-9.50556 3.6454,-8.75321 7.13575,-16.69773 10.24361,-23.66201 0,0 0,0 0,0 8.6246,-19.05374 14.24955,-30.82784 14.73958,-30.61559 z"
       id="path4620" />
  </g>
</svg>
