<?xml version="1.0" encoding="UTF-8" standalone="no"?>
<!-- Created with Inkscape (http://www.inkscape.org/) -->

<svg
   xmlns:dc="http://purl.org/dc/elements/1.1/"
   xmlns:cc="http://creativecommons.org/ns#"
   xmlns:rdf="http://www.w3.org/1999/02/22-rdf-syntax-ns#"
   xmlns:svg="http://www.w3.org/2000/svg"
   xmlns="http://www.w3.org/2000/svg"
   xmlns:sodipodi="http://sodipodi.sourceforge.net/DTD/sodipodi-0.dtd"
   xmlns:inkscape="http://www.inkscape.org/namespaces/inkscape"
   width="74.437447"
   height="93.81089"
   id="svg3833"
   version="1.1"
   inkscape:version="0.48.3.1 r9886"
   sodipodi:docname="Documento nuevo 20">
  <defs
     id="defs3835" />
  <sodipodi:namedview
     id="base"
     pagecolor="#ffffff"
     bordercolor="#666666"
     borderopacity="1.0"
     inkscape:pageopacity="0.0"
     inkscape:pageshadow="2"
     inkscape:zoom="0.35"
     inkscape:cx="-27.06699"
     inkscape:cy="4.0483061"
     inkscape:document-units="px"
     inkscape:current-layer="layer1"
     showgrid="false"
     fit-margin-top="0"
     fit-margin-left="0"
     fit-margin-right="0"
     fit-margin-bottom="0"
     inkscape:window-width="560"
     inkscape:window-height="453"
     inkscape:window-x="3"
     inkscape:window-y="47"
     inkscape:window-maximized="0" />
  <metadata
     id="metadata3838">
    <rdf:RDF>
      <cc:Work
         rdf:about="">
        <dc:format>image/svg+xml</dc:format>
        <dc:type
           rdf:resource="http://purl.org/dc/dcmitype/StillImage" />
        <dc:title></dc:title>
      </cc:Work>
    </rdf:RDF>
  </metadata>
  <g
     inkscape:label="Capa 1"
     inkscape:groupmode="layer"
     id="layer1"
     transform="translate(-377.06699,-442.5996)">
    <path
       style="opacity:0.9;fill:#000000;fill-rule:evenodd;stroke:none;display:inline"
       d="m 403.26758,442.60249 c 0.32362,-0.12196 2.08083,3.61603 4.92902,10.36445 0.44367,1.4366 0.86625,3.02791 1.2082,4.77193 0.34196,1.74402 0.60355,3.64091 0.70084,5.68229 0,0 0,0 0,0 0.0816,1.72279 0.0323,3.55629 -0.22977,5.4553 -0.26209,1.89903 -0.7369,3.86376 -1.52664,5.82466 -1.43527,3.54615 -3.0475,7.32365 -4.90005,11.25885 -1.85254,3.93519 -3.94555,8.02811 -6.3693,12.18344 0,0 0,0 -10e-6,0 -2.492,4.27595 -5.35492,8.64701 -8.87522,12.78205 -1.78277,2.0852 -3.73999,4.00811 -5.71744,5.88369 -0.51987,0.50859 -0.96576,0.90343 -1.21539,1.27348 -0.0869,0.19748 -0.17058,0.25191 -0.10035,0.1145 -0.0116,0.90011 0.23301,1.89524 0.55099,2.96298 0.43654,1.39839 1.06612,2.75776 1.85523,4.03543 1.06171,1.71157 2.44837,3.25686 4.0687,4.49713 1.29701,0.9928 2.72658,1.77666 4.23042,2.29566 0.80901,0.32181 1.86677,0.30049 3.01006,0.20719 1.47489,-0.1504 2.97584,-0.55895 4.50249,-1.04114 3.99995,-1.27485 7.82162,-3.07403 11.628,-4.81037 4.41725,-2.02193 8.74601,-4.03435 13.07499,-5.68255 2.06066,-0.79349 4.15372,-1.52356 6.26626,-2.08182 2.11254,-0.55826 4.24452,-0.94468 6.3817,-1.08068 3.00358,-0.17467 5.85185,-0.17971 8.54261,-0.26581 0.84742,-0.0314 1.61697,-0.055 2.30027,-0.17337 0.45565,-0.11842 0.76662,-0.14204 0.81468,-0.2347 -0.0106,0.079 0.006,-0.009 0.0462,-0.11388 0.0792,-0.33389 -0.0328,-0.82799 -0.14078,-1.43571 -0.26046,-1.23618 -0.62589,-2.44154 -1.01401,-3.62812 -0.38811,-1.18659 -0.79902,-2.35437 -1.17285,-3.50977 -0.44153,-1.27605 -0.86798,-2.48802 -1.38575,-3.52503 -0.51776,-1.03703 -1.12638,-1.89973 -1.8798,-2.53642 -0.49572,-0.43491 -1.05171,-0.75442 -1.61174,-0.89448 -0.57289,-0.15813 -1.20384,-0.14495 -1.81345,-0.0552 -0.86718,0.12572 -1.67598,0.41617 -2.43412,0.74086 -0.75813,0.3247 -1.46537,0.68478 -2.12133,1.01102 -0.82189,0.41474 -1.55698,0.79518 -2.20399,1.10855 -0.647,0.31336 -1.20526,0.56107 -1.66463,0.74088 -0.91877,0.35961 -1.43514,0.45545 -1.48598,0.34531 -0.0509,-0.11015 0.36029,-0.41906 1.15091,-0.97256 0.39531,-0.27676 0.8849,-0.61721 1.46738,-1.02331 0.58246,-0.40611 1.25706,-0.87923 2.0419,-1.39628 0.61309,-0.40973 1.30236,-0.86014 2.10064,-1.28954 0.79829,-0.4294 1.70536,-0.8389 2.7732,-1.10795 0.78582,-0.19499 1.6729,-0.27208 2.61534,-0.10866 0.92738,0.17557 1.82154,0.58599 2.59111,1.19011 1.03293,0.83018 1.89744,1.87909 2.61038,3.06546 0.71293,1.18637 1.27376,2.51077 1.7459,3.82779 0.41971,1.09667 0.88479,2.24047 1.33974,3.45381 0.45495,1.21334 0.89987,2.49621 1.25718,3.87774 0.19032,0.65633 0.34972,1.48057 0.27729,2.47008 -0.0602,0.76938 -0.42984,1.54887 -1.13669,2.18873 -0.78682,0.57986 -1.56512,0.84413 -2.183,0.92686 -0.94974,0.18756 -1.86843,0.25771 -2.72599,0.30917 -2.75195,0.17844 -5.5841,0.26601 -8.45091,0.51066 -1.85006,0.14881 -3.73294,0.54376 -5.65179,1.10675 -1.91886,0.56299 -3.87373,1.294 -5.86822,2.08513 -4.13459,1.65911 -8.34774,3.69996 -12.7685,5.783 -3.76869,1.78205 -7.71816,3.67245 -12.04566,5.09472 -1.6518,0.54724 -3.42223,1.02256 -5.31896,1.24131 -1.46853,0.19266 -3.12868,0.15111 -4.82694,-0.40234 -1.93333,-0.68089 -3.74755,-1.67024 -5.38023,-2.91293 -2.03968,-1.55249 -3.76261,-3.47447 -5.07931,-5.62061 -0.96309,-1.56434 -1.72982,-3.24263 -2.26792,-4.989 -0.40478,-1.26424 -0.70383,-2.67016 -0.7155,-4.18407 0.0703,-1.10176 0.42258,-1.9608 0.90352,-2.53713 0.59536,-0.7814 1.20735,-1.35578 1.71942,-1.81954 1.96247,-1.83682 3.83828,-3.63691 5.48417,-5.5281 3.35792,-3.84195 6.15901,-7.99045 8.66779,-12.09996 0,0 0,0 0,0 2.43703,-3.99535 4.57595,-7.95082 6.50128,-11.76637 1.92534,-3.81554 3.63716,-7.49106 5.19219,-10.94665 0.75514,-1.65641 1.24136,-3.37117 1.54742,-5.06463 0.30606,-1.69347 0.43185,-3.36578 0.44695,-4.96198 0,0 0,0 0,0 0.0188,-1.87533 -0.1197,-3.65236 -0.33542,-5.3111 -0.21572,-1.65875 -0.50893,-3.1993 -0.82303,-4.60956 -2.28248,-6.86529 -3.42736,-10.82765 -3.10374,-10.94963 z"
       id="path3132"
       inkscape:connector-curvature="0" />
  </g>
</svg>
