<?xml version="1.0" encoding="UTF-8" standalone="no"?>
<!-- Created with Inkscape (http://www.inkscape.org/) -->

<svg
   xmlns:dc="http://purl.org/dc/elements/1.1/"
   xmlns:cc="http://creativecommons.org/ns#"
   xmlns:rdf="http://www.w3.org/1999/02/22-rdf-syntax-ns#"
   xmlns:svg="http://www.w3.org/2000/svg"
   xmlns="http://www.w3.org/2000/svg"
   xmlns:sodipodi="http://sodipodi.sourceforge.net/DTD/sodipodi-0.dtd"
   xmlns:inkscape="http://www.inkscape.org/namespaces/inkscape"
   width="170.19171"
   height="125.72816"
   id="svg4068"
   version="1.1"
   inkscape:version="0.48.3.1 r9886"
   sodipodi:docname="nariz_7.svg">
  <defs
     id="defs4070">
    <inkscape:path-effect
       effect="skeletal"
       id="path-effect3014"
       is_visible="true"
       pattern="M 0,5 C 0,2.24 2.24,0 5,0 7.76,0 10,2.24 10,5 10,7.76 7.76,10 5,10 2.24,10 0,7.76 0,5 z"
       copytype="single_stretched"
       prop_scale="1"
       scale_y_rel="false"
       spacing="0"
       normal_offset="0"
       tang_offset="0"
       prop_units="false"
       vertical_pattern="false"
       fuse_tolerance="0" />
    <inkscape:path-effect
       effect="skeletal"
       id="path-effect2987"
       is_visible="true"
       pattern="m 1325.411,381.83194 c 0,-2.76 2.24,-5 5,-5 2.76,0 5,2.24 5,5 0,2.76 -2.24,5 -5,5 -2.76,0 -5,-2.24 -5,-5 z"
       copytype="single_stretched"
       prop_scale="1"
       scale_y_rel="false"
       spacing="0"
       normal_offset="0"
       tang_offset="0"
       prop_units="false"
       vertical_pattern="false"
       fuse_tolerance="0" />
    <inkscape:path-effect
       effect="skeletal"
       id="path-effect6574"
       is_visible="true"
       pattern="m -14069.21,-1265.6489 c 0,-2.76 2.24,-5 5,-5 2.76,0 5,2.24 5,5 0,2.76 -2.24,5 -5,5 -2.76,0 -5,-2.24 -5,-5 z"
       copytype="single_stretched"
       prop_scale="1"
       scale_y_rel="false"
       spacing="0"
       normal_offset="0"
       tang_offset="0"
       prop_units="false"
       vertical_pattern="false"
       fuse_tolerance="0" />
    <inkscape:path-effect
       effect="skeletal"
       id="path-effect5543"
       is_visible="true"
       pattern="m -13870.71,-1632.2205 c 0,-2.76 2.24,-5 5,-5 2.76,0 5,2.24 5,5 0,2.76 -2.24,5 -5,5 -2.76,0 -5,-2.24 -5,-5 z"
       copytype="single_stretched"
       prop_scale="1"
       scale_y_rel="false"
       spacing="0"
       normal_offset="0"
       tang_offset="0"
       prop_units="false"
       vertical_pattern="false"
       fuse_tolerance="0" />
  </defs>
  <sodipodi:namedview
     id="base"
     pagecolor="#ffffff"
     bordercolor="#666666"
     borderopacity="1.0"
     inkscape:pageopacity="0.0"
     inkscape:pageshadow="2"
     inkscape:zoom="1.979899"
     inkscape:cx="117.15099"
     inkscape:cy="37.448481"
     inkscape:document-units="px"
     inkscape:current-layer="layer1"
     showgrid="false"
     fit-margin-top="0"
     fit-margin-left="0"
     fit-margin-right="0"
     fit-margin-bottom="0"
     inkscape:window-width="1914"
     inkscape:window-height="1030"
     inkscape:window-x="0"
     inkscape:window-y="25"
     inkscape:window-maximized="1" />
  <metadata
     id="metadata4073">
    <rdf:RDF>
      <cc:Work
         rdf:about="">
        <dc:format>image/svg+xml</dc:format>
        <dc:type
           rdf:resource="http://purl.org/dc/dcmitype/StillImage" />
        <dc:title></dc:title>
      </cc:Work>
    </rdf:RDF>
  </metadata>
  <g
     inkscape:label="Capa 1"
     inkscape:groupmode="layer"
     id="layer1"
     transform="translate(-1334.5893,-429.92605)">
    <g
       id="g3016">
      <g
         id="g2989">
        <path
           style="fill:#000000;fill-rule:evenodd;stroke:none;display:inline"
           d="m 1391.481,429.93947 c 0.072,-0.0267 0.1582,-0.0134 0.2588,0.0386 0,0 0,0 0,0 0.099,0.0508 0.212,0.1382 0.3397,0.2617 0,0 0,0 0,0 0.2596,0.25225 0.5785,0.65225 0.9611,1.19423 0.7928,1.12319 1.8553,2.84273 3.2079,5.09461 2.6703,5.15793 6.2736,13.2127 10.6601,23.64136 -3.7681,-1.10775 -8.0072,-1.89345 -12.6258,-2.15065 -4.6187,-0.2572 -9.6175,0.0142 -14.8143,1.04081 0,1e-5 0,1e-5 0,1e-5 -3.5729,0.35957 -7.2342,1.0978 -10.807,2.30734 -3.5727,1.20955 -7.0567,2.89044 -10.2235,5.13854 -5.459,3.85023 -10.0799,9.53249 -12.2268,16.17922 -1.2367,3.60216 -1.7358,7.52944 -1.621,11.5954 0.1225,4.34173 0.9351,8.71668 2.1655,12.87575 1.3745,4.49348 3.328,8.72581 5.72,12.53959 2.392,3.81378 5.2223,7.2085 8.3591,10.08066 3.3156,3.0744 6.9747,5.61361 10.7372,7.74978 3.7625,2.13617 7.628,3.86938 11.4114,5.31001 4.6812,1.77331 9.2545,3.091 13.5742,4.14505 4.3198,1.05405 8.3861,1.84404 12.0919,2.4978 3.6409,0.64086 6.9415,1.13792 9.836,1.57277 2.8945,0.43485 5.3831,0.80639 7.4096,1.15292 4.0531,0.69306 6.2548,1.29441 6.2343,1.84823 -0.021,0.55382 -2.2553,1.0192 -6.3861,1.32028 -2.0653,0.15055 -4.6054,0.25772 -7.5829,0.27748 -2.9775,0.0197 -6.3927,-0.0468 -10.2072,-0.28832 -3.8742,-0.24335 -8.1654,-0.66319 -12.7977,-1.40956 -4.6323,-0.74636 -9.6061,-1.81909 -14.8063,-3.43397 -4.2224,-1.30446 -8.5999,-3.00399 -12.9552,-5.2459 -4.3553,-2.2419 -8.6883,-5.02664 -12.7609,-8.51624 -3.8664,-3.34988 -7.3629,-7.32207 -10.3148,-11.8099 -2.952,-4.48784 -5.3588,-9.4909 -7.046,-14.84094 -1.5842,-4.88971 -2.5744,-10.17325 -2.6746,-15.59762 -0.094,-5.07984 0.6009,-10.14731 2.1878,-14.97896 1.532,-4.45886 3.8171,-8.50602 6.61,-12.02224 2.7929,-3.51622 6.0933,-6.50132 9.6787,-8.877 4.0986,-2.70002 8.4503,-4.64574 12.8175,-5.96375 4.3673,-1.31802 8.7496,-2.00867 12.9652,-2.20318 0,0 0,0 0,0 5.0206,0.29969 9.8288,1.3349 14.2694,2.80312 4.4405,1.46822 8.5141,3.36872 12.1521,5.43623 -3.0418,-4.14065 -5.5948,-8.00799 -7.6326,-11.49624 -2.0378,-3.48824 -3.5631,-6.59606 -4.621,-9.18517 -0.8592,-2.52512 -1.4021,-4.5246 -1.6435,-5.90069 -0.1165,-0.66405 -0.1641,-1.18595 -0.1454,-1.55272 0,0 0,0 0,0 0.01,-0.1807 0.034,-0.32436 0.075,-0.4292 0,0 0,0 0,0 0.042,-0.10595 0.099,-0.17247 0.1703,-0.19921 z"
           id="path6572"
           inkscape:path-effect="#path-effect6574"
           inkscape:original-d="m 1391.481,429.93939 c 0,0 3.5149,9.66564 14.6125,29.49693 -35.7574,-15.33043 -77.1158,7.28364 -64.0795,49.19491 13.0363,41.91127 62.6647,44.40544 90.1154,45.42194"
           inkscape:connector-curvature="0"
           sodipodi:nodetypes="cczc" />
        <path
           style="fill:#000000;fill-rule:evenodd;stroke:none"
           d="m 1410.7689,527.6281 c 1.0276,-2.40994 9.2355,-1.24876 18.6772,2.5472 0,0 0,0 0,10e-6 0.5045,0.19758 1.0123,0.40216 1.5224,0.61341 4.0406,1.67327 7.619,3.50012 10.4295,5.22442 0,0 0,0 0,0 1.735,1.06167 3.1318,2.06799 4.1809,2.98102 0.5702,0.49475 1.0077,0.95478 1.3431,1.38488 0.294,0.34991 0.4527,0.67684 0.5686,0.98749 0.1159,0.31064 0.182,0.61077 0.1489,0.90877 -0.033,0.298 -0.1765,0.58024 -0.4565,0.82048 -0.2799,0.24025 -0.7019,0.43137 -1.151,0.5807 -0.5798,0.18304 -1.3039,0.29059 -2.107,0.33242 -1.485,0.0773 -3.3436,-0.0929 -5.3911,-0.47089 0,0 0,0 0,0 -3.3476,-0.61958 -7.3275,-1.82667 -11.4277,-3.52521 -0.5176,-0.21444 -1.0274,-0.43246 -1.5286,-0.65331 0,0 0,0 0,0 -9.3,-4.19559 -15.8363,-9.32145 -14.8087,-11.73139 z"
           id="path2985"
           inkscape:path-effect="#path-effect2987"
           inkscape:original-d="m 1410.7689,527.62809 c 0,0 32.3249,14.14214 36.8706,14.64721"
           inkscape:connector-curvature="0" />
      </g>
      <path
         sodipodi:nodetypes="ccc"
         transform="translate(1340.1854,411.83132)"
         inkscape:connector-curvature="0"
         inkscape:original-d="m 109.09647,84.139954 c 24.82703,-4.732873 56.83413,19.608576 49.49747,38.385796 -7.07106,16.16244 -37.88071,14.64721 -37.88071,14.64721"
         inkscape:path-effect="#path-effect3014"
         id="path3012"
         d="m 109.09647,84.139954 c -0.0699,-0.366468 0.32501,-0.820804 1.18434,-1.300226 0.85934,-0.479423 2.18541,-0.98026 3.95273,-1.361798 1.76732,-0.381539 3.97785,-0.639604 6.54823,-0.615495 2.57038,0.02411 5.50157,0.334114 8.62981,1.046745 0,0 0,0 0,0 2.99641,0.668434 6.20796,1.685161 9.49278,3.13731 3.28482,1.452149 6.64232,3.340631 9.89589,5.710208 4.95776,3.545893 9.87854,8.440949 13.14296,14.998212 0.059,0.11919 0.1173,0.23911 0.17481,0.35973 1.28116,2.68705 2.13854,5.64667 2.41305,8.73046 0.25836,3.28476 -0.26397,6.55755 -1.47129,9.52914 0,0 0,0 0,0 -1.32371,2.73619 -3.0801,4.99888 -5.02773,6.83063 -1.94763,1.83175 -4.08605,3.23296 -6.22441,4.26607 0,0 -1e-5,0 -1e-5,0 0,0 0,0 0,0 -5.1089,2.49667 -10.00042,3.45199 -14.13497,3.86801 0,0 0,0 0,0 -4.99103,0.52294 -9.06273,0.28688 -11.94526,-0.15443 0,0 -1e-5,0 -1e-5,0 -1.59154,-0.24293 -2.83268,-0.55843 -3.67903,-0.89773 0,0 0,0 0,0 -0.43966,-0.17627 -0.77531,-0.35938 -0.99927,-0.54384 0,0 0,0 0,0 0,0 0,0 0,0 -0.11496,-0.0939 -0.20096,-0.18808 -0.257,-0.282 0,0 0,0 0,0 0,0 0,0 0,0 -0.0236,-0.13982 -0.043,-0.21206 -0.0567,-0.24908 0,0 0,0 0,0 -0.0135,-0.0366 -0.0214,-0.0388 -0.0222,-0.0389 0,0 0,0 0,0 0,0 0,0 0,0 0,0 0,0 0,0 0,0 0,0 0,0 0,0 0,0 0,0 0,0 0,0 0,0 0,0 0,0 0,0 0,0 0,0 0,0 0,0 0,0 0,0 0,0 0,0 0,0 -4e-5,-1e-5 -3e-5,-1e-5 -3e-5,-1e-5 0,0 -10e-6,0 3e-5,0 0,0 0,0 0,0 0,0 0,0 0,0 0,0 0,0 0,0 0,0 0,0 0,0 0,0 0,0 0,0 0,0 0,0 0,0 0,0 0,0 0,0 0,0 0,0 0,0 0,0 0,0 0,0 0,0 0,0 0,0 7.2e-4,-5e-5 0.009,-0.001 0.0256,-0.0367 0,0 0,0 0,0 0.0169,-0.0357 0.0427,-0.10594 0.0787,-0.24334 0,0 0,0 0,0 0,0 0,-1e-5 0,-1e-5 0.0622,-0.0891 0.15113,-0.1768 0.26644,-0.26345 0,0 0,0 0,0 0,0 0,0 0,0 0.22879,-0.17029 0.55969,-0.33663 0.98896,-0.50303 0,0 0,0 0,0 0.82623,-0.3203 2.00809,-0.64043 3.50434,-0.99767 1e-5,0 1e-5,0 1e-5,0 2.71206,-0.64843 6.44557,-1.39011 10.78182,-2.6525 0,0 0,0 0,0 3.60238,-1.0649 7.61904,-2.39697 11.22983,-4.68829 0,0 0,0 0,0 1e-5,0 1e-5,0 1e-5,-1e-5 1.41137,-0.91605 2.78025,-1.96893 3.93538,-3.1552 1.15513,-1.18627 2.09614,-2.50565 2.6038,-3.9555 0,0 0,0 0,0 0.53876,-1.49722 0.7177,-3.22398 0.52447,-4.94012 -0.15918,-1.71894 -0.7447,-3.53447 -1.58801,-5.36435 -0.0379,-0.0821 -0.0762,-0.1642 -0.11493,-0.24616 -2.18835,-4.6603 -5.99084,-8.54372 -9.93669,-11.850194 -5.22333,-4.288802 -10.78295,-7.238566 -15.75237,-9.184602 0,0 0,-1e-6 0,-1e-6 -2.5902,-0.99989 -5.01966,-1.745949 -7.1918,-2.291287 -2.17214,-0.545338 -4.08889,-0.892751 -5.6869,-1.154533 -1.598,-0.261782 -2.87924,-0.44195 -3.78333,-0.660294 -0.90409,-0.218343 -1.4322,-0.479297 -1.50206,-0.845765 z"
         style="fill:#000000;fill-rule:evenodd;stroke:none" />
    </g>
  </g>
</svg>
