<?xml version="1.0" encoding="UTF-8" standalone="no"?>
<!-- Created with Inkscape (http://www.inkscape.org/) -->

<svg
   xmlns:dc="http://purl.org/dc/elements/1.1/"
   xmlns:cc="http://creativecommons.org/ns#"
   xmlns:rdf="http://www.w3.org/1999/02/22-rdf-syntax-ns#"
   xmlns:svg="http://www.w3.org/2000/svg"
   xmlns="http://www.w3.org/2000/svg"
   xmlns:sodipodi="http://sodipodi.sourceforge.net/DTD/sodipodi-0.dtd"
   xmlns:inkscape="http://www.inkscape.org/namespaces/inkscape"
   width="174.60292"
   height="181.6058"
   id="svg4068"
   version="1.1"
   inkscape:version="0.48.3.1 r9886"
   sodipodi:docname="nariz_5.svg">
  <defs
     id="defs4070">
    <inkscape:path-effect
       effect="skeletal"
       id="path-effect6574"
       is_visible="true"
       pattern="m -14069.21,-1265.6489 c 0,-2.76 2.24,-5 5,-5 2.76,0 5,2.24 5,5 0,2.76 -2.24,5 -5,5 -2.76,0 -5,-2.24 -5,-5 z"
       copytype="single_stretched"
       prop_scale="1"
       scale_y_rel="false"
       spacing="0"
       normal_offset="0"
       tang_offset="0"
       prop_units="false"
       vertical_pattern="false"
       fuse_tolerance="0" />
    <inkscape:path-effect
       effect="skeletal"
       id="path-effect5543"
       is_visible="true"
       pattern="m -13870.71,-1632.2205 c 0,-2.76 2.24,-5 5,-5 2.76,0 5,2.24 5,5 0,2.76 -2.24,5 -5,5 -2.76,0 -5,-2.24 -5,-5 z"
       copytype="single_stretched"
       prop_scale="1"
       scale_y_rel="false"
       spacing="0"
       normal_offset="0"
       tang_offset="0"
       prop_units="false"
       vertical_pattern="false"
       fuse_tolerance="0" />
  </defs>
  <sodipodi:namedview
     id="base"
     pagecolor="#ffffff"
     bordercolor="#666666"
     borderopacity="1.0"
     inkscape:pageopacity="0.0"
     inkscape:pageshadow="2"
     inkscape:zoom="0.12374369"
     inkscape:cx="-596.50911"
     inkscape:cy="-132.74783"
     inkscape:document-units="px"
     inkscape:current-layer="layer1"
     showgrid="false"
     fit-margin-top="0"
     fit-margin-left="0"
     fit-margin-right="0"
     fit-margin-bottom="0"
     inkscape:window-width="560"
     inkscape:window-height="451"
     inkscape:window-x="3"
     inkscape:window-y="47"
     inkscape:window-maximized="0" />
  <metadata
     id="metadata4073">
    <rdf:RDF>
      <cc:Work
         rdf:about="">
        <dc:format>image/svg+xml</dc:format>
        <dc:type
           rdf:resource="http://purl.org/dc/dcmitype/StillImage" />
        <dc:title></dc:title>
      </cc:Work>
    </rdf:RDF>
  </metadata>
  <g
     inkscape:label="Capa 1"
     inkscape:groupmode="layer"
     id="layer1"
     transform="translate(-1317.3298,-375.82179)">
    <path
       style="fill:#000000;fill-rule:evenodd;stroke:none;display:inline"
       d="m 1349.5596,375.89624 c 0.011,-0.0171 0.026,-0.0312 0.046,-0.0424 0.019,-0.0109 0.043,-0.019 0.072,-0.0244 0.056,-0.0106 0.1296,-0.0102 0.2199,0.001 0,0 0,0 0,0 0,0 0,0 0,0 0.179,0.0229 0.4249,0.0897 0.7349,0.20018 0,0 0,0 0,0 0.6071,0.21641 1.462,0.60186 2.5453,1.1593 0,0 0,0 0,0 2.0647,1.06251 4.9676,2.75117 8.5588,5.11538 0,0 0,0 0,0 3.1707,2.08666 6.8897,4.69708 11.0091,7.91686 4.1193,3.21978 8.6405,7.04866 13.3428,11.62012 0,0 0,0 0,0 0,0 0,1e-5 0,1e-5 3.7085,3.58974 7.5767,7.66988 11.2793,12.39081 3.7027,4.72093 7.2414,10.08267 10.1101,16.28245 0,0 0,0 0,0 2.3165,5.01487 4.0985,10.66373 4.6371,16.82546 0,0 0,0 0,0 0.4881,5.80408 -0.2826,11.91936 -2.549,17.74256 0,0 0,0 0,0 -2.5719,6.4081 -6.7724,11.92606 -11.2257,16.80962 0,0 0,0 0,0 -5.2418,5.85179 -11.2464,11.29507 -17.8349,16.24317 0,0 0,0 0,0 -6.0214,4.54649 -12.6829,8.81379 -20.1808,12.03474 0,0 0,0 0,0 -3.0339,1.30922 -6.3129,2.43821 -9.8483,3.12906 0,0 0,0 0,0 -2.8395,0.5895 -6.0403,0.78634 -9.43,0.17153 0,0 0,0 0,0 -3.5406,-0.69057 -6.9484,-1.41158 -10.2616,-1.80977 0,0 0,0 0,0 0,0 0,-10e-6 0,-10e-6 0,0 0,0 0,0 -2.0062,-0.0956 -3.3447,-0.43528 -3.7299,-0.0927 0,0 0,0 0,0 0,0 0,0 0,0 0,0 0,0 0,0 0.077,0.008 0.2077,-0.1114 0.4932,-0.35305 0,0 0,-1e-5 0,-1e-5 0.1693,-0.27907 0.2334,-0.28138 0.1294,-0.1127 0,0 0,0 0,10e-6 -0.3822,0.9141 -0.2589,2.52882 -0.3307,4.67755 0,10e-6 0,10e-6 0,2e-5 0.014,2.64642 -0.01,5.09084 0.2974,7.28557 0.07,0.46665 0.1485,0.92435 0.2383,1.36944 0.3079,1.52676 0.748,2.89572 1.4361,3.96754 0.9064,1.62999 2.5856,3.01307 4.5054,4.13103 3.0369,1.75845 6.8093,2.65262 10.794,3.37616 7.3935,1.25341 14.7553,2.25835 22.0278,3.20237 9.6896,1.25655 19.1527,2.33909 28.3466,3.20183 8.8273,0.82448 17.3218,1.50225 25.4676,1.59321 3.0259,0.0277 5.8933,0.01 8.5823,-0.29494 0.9535,-0.11353 1.7909,-0.22591 2.4911,-0.41699 0.5311,-0.20734 0.7557,-0.19848 0.5596,-0.13608 0.8346,-0.79325 2.3782,-1.5232 4.5911,-1.82875 0,0 10e-5,0 10e-5,0 1.9901,0.0472 3.4814,0.56027 4.421,1.31198 2.286,1.58481 3.6321,3.1252 4.7332,3.83025 2.3345,1.64242 5.328,2.50191 8.3997,2.97175 3.1783,0.47197 6.395,0.47646 9.5881,0.24272 3.1931,-0.23374 6.3625,-0.70584 9.4573,-1.23809 3.4564,-0.66567 6.5795,-1.59109 8.8373,-3.29513 1.6508,-1.2178 2.9339,-2.84948 3.4188,-4.56582 0.5943,-1.79342 0.4435,-3.89566 -0.024,-5.88746 -0.5919,-2.42708 -1.7656,-4.67659 -3.1219,-6.69278 -1.7627,-2.55999 -3.7953,-4.71338 -5.8902,-6.38214 -2.0949,-1.66877 -4.2534,-2.85668 -6.3334,-3.63072 0,0 0,0 0,0 -2.5786,-0.95486 -4.9831,-1.22764 -6.9397,-0.98344 -1.1645,0.13077 -2.1875,0.44355 -3.0533,0.78995 -0.8658,0.3464 -1.5765,0.728 -2.148,1.05409 -1.1431,0.65218 -1.7533,1.05968 -1.9231,0.90685 -0.1698,-0.15283 0.099,-0.87107 1.0681,-1.94995 0.4844,-0.53944 1.1511,-1.16142 2.0536,-1.76962 0.9026,-0.60821 2.0428,-1.20447 3.4606,-1.61548 1.1747,-0.3296 2.5043,-0.52954 3.9516,-0.53637 1.4474,-0.007 3.0134,0.18045 4.6169,0.60028 0,0 0,0 0,0 2.5277,0.65506 5.2081,1.79224 7.8424,3.51657 2.6343,1.72433 5.2238,4.03965 7.4734,6.91561 1.8006,2.26103 3.4304,4.96905 4.4682,8.18018 0.884,2.68355 1.2301,5.80604 0.4858,9.0693 -0.82,3.21333 -2.7214,6.11341 -5.3723,8.21237 -3.3717,2.63653 -7.4291,4.20729 -11.4753,5.04212 -3.205,0.72774 -6.6009,1.37458 -10.1737,1.75413 -3.5727,0.37955 -7.3224,0.49194 -11.2242,0.0995 -3.9328,-0.38533 -8.0834,-1.52132 -11.9339,-3.89914 -2.2768,-1.49063 -3.7205,-3.02825 -4.8748,-3.71099 -0.1624,0.0253 0.043,-0.007 0.7065,0.11795 0,0 0,0 0,0 0.5377,-0.20752 0.5581,-0.0191 0.039,0.20322 -1.341,0.92101 -2.5096,1.40134 -3.3664,1.58258 -1.3251,0.37595 -2.582,0.60072 -3.7369,0.74968 -3.2709,0.4371 -6.509,0.55119 -9.6556,0.57811 -8.5591,0.0889 -17.3439,-0.43414 -26.2687,-1.1317 -9.3457,-0.72682 -18.9472,-1.69979 -28.7522,-2.87471 -7.336,-0.878 -14.836,-1.846 -22.452,-3.09416 -4.5363,-0.69664 -9.3712,-1.93948 -14.0085,-4.44449 -3.1826,-1.71669 -6.105,-4.28752 -8.231,-7.71154 -1.3461,-2.31844 -2.2055,-4.74052 -2.6887,-7.12187 -0.1409,-0.69423 -0.2496,-1.38376 -0.3293,-2.06502 -0.3834,-3.0793 -0.387,-5.95099 -0.3729,-8.57894 0,-10e-6 0,-10e-6 0,-2e-5 -0.072,-1.99259 -0.041,-4.59543 0.7867,-7.61181 0,-10e-6 0,-2e-5 0,-3e-5 0.2942,-1.12527 0.951,-2.38144 2.0289,-3.65984 0,-10e-6 0,-2e-5 0,-3e-5 1.1547,-1.19766 2.433,-1.99202 3.7332,-2.39194 0,-10e-6 0,-10e-6 10e-5,-10e-6 3.4024,-0.91986 6.1869,-0.71206 8.1129,-0.31612 0,0 0,0 0,0 0,0 0,0 0,0 0,0 0,0 0,0 3.8725,0.50002 7.5085,1.27983 10.9654,1.98877 0,0 0,0 0,0 1.6091,0.38496 3.5692,0.20408 5.6836,-0.136 0,0 0,0 0,0 2.6103,-0.46236 5.2392,-1.36351 7.8815,-2.44611 0,0 0,0 0,0 6.5516,-2.69901 12.617,-6.50926 18.3411,-10.6581 0,0 0,0 0,0 6.215,-4.53052 11.8679,-9.46042 16.7915,-14.73907 4.2087,-4.60066 7.9519,-9.08547 9.9314,-13.9412 0,0 0,0 0,0 1.8939,-4.4729 2.6502,-9.32395 2.4092,-13.96348 0,0 0,0 0,0 -0.2401,-4.99353 -1.6166,-9.85387 -3.465,-14.36378 0,0 0,0 0,0 -2.3074,-5.6376 -5.3527,-10.67598 -8.6143,-15.23873 -3.2616,-4.56275 -6.7411,-8.64946 -10.0981,-12.34357 0,0 0,0 0,-10e-6 0,0 0,0 0,0 -4.2638,-4.6718 -8.39,-8.68534 -12.1451,-12.14619 -3.755,-3.46085 -7.1404,-6.36866 -9.9962,-8.78729 0,0 0,0 0,0 -3.234,-2.73804 -5.7937,-4.83803 -7.5328,-6.34254 0,0 0,0 0,0 -0.9125,-0.78937 -1.598,-1.41316 -2.0402,-1.8752 0,0 0,0 0,0 -0.2258,-0.23599 -0.3876,-0.42945 -0.4837,-0.58093 0,0 0,0 0,0 0,0 0,0 0,0 -0.049,-0.0765 -0.08,-0.1423 -0.095,-0.19731 -0.01,-0.0277 -0.01,-0.0526 -0.01,-0.0748 0,-0.0228 0.01,-0.0428 0.018,-0.0598 z"
       id="path6572"
       inkscape:path-effect="#path-effect6574"
       inkscape:original-d="m 1349.5596,375.89623 c 0,0 73.048,45.4614 56.0288,87.5807 -7.4874,18.5299 -45.6991,48.7294 -63.5744,45.1543 -17.8752,-3.5751 -19.6634,-3.5751 -19.6634,7.1502 0,10.7253 0,21.4506 21.4508,25.0258 21.4508,3.5751 83.7029,11.0324 90.8534,5.6698 7.1498,-5.3627 3.5749,12.5129 39.326,5.3626 35.7511,-7.1502 -1.7875,-50.0514 -17.8752,-32.1758"
       inkscape:connector-curvature="0"
       sodipodi:nodetypes="csssscsc" />
  </g>
</svg>
