<?xml version="1.0" encoding="UTF-8" standalone="no"?>
<!-- Created with Inkscape (http://www.inkscape.org/) -->

<svg
   xmlns:dc="http://purl.org/dc/elements/1.1/"
   xmlns:cc="http://creativecommons.org/ns#"
   xmlns:rdf="http://www.w3.org/1999/02/22-rdf-syntax-ns#"
   xmlns:svg="http://www.w3.org/2000/svg"
   xmlns="http://www.w3.org/2000/svg"
   xmlns:sodipodi="http://sodipodi.sourceforge.net/DTD/sodipodi-0.dtd"
   xmlns:inkscape="http://www.inkscape.org/namespaces/inkscape"
   width="99.831909"
   height="209.28729"
   id="svg4068"
   version="1.1"
   inkscape:version="0.48.3.1 r9886"
   sodipodi:docname="Documento nuevo 3">
  <defs
     id="defs4070">
    <inkscape:path-effect
       effect="skeletal"
       id="path-effect6574"
       is_visible="true"
       pattern="m -14069.21,-1265.6489 c 0,-2.76 2.24,-5 5,-5 2.76,0 5,2.24 5,5 0,2.76 -2.24,5 -5,5 -2.76,0 -5,-2.24 -5,-5 z"
       copytype="single_stretched"
       prop_scale="1"
       scale_y_rel="false"
       spacing="0"
       normal_offset="0"
       tang_offset="0"
       prop_units="false"
       vertical_pattern="false"
       fuse_tolerance="0" />
    <inkscape:path-effect
       effect="skeletal"
       id="path-effect5543"
       is_visible="true"
       pattern="m -13870.71,-1632.2205 c 0,-2.76 2.24,-5 5,-5 2.76,0 5,2.24 5,5 0,2.76 -2.24,5 -5,5 -2.76,0 -5,-2.24 -5,-5 z"
       copytype="single_stretched"
       prop_scale="1"
       scale_y_rel="false"
       spacing="0"
       normal_offset="0"
       tang_offset="0"
       prop_units="false"
       vertical_pattern="false"
       fuse_tolerance="0" />
  </defs>
  <sodipodi:namedview
     id="base"
     pagecolor="#ffffff"
     bordercolor="#666666"
     borderopacity="1.0"
     inkscape:pageopacity="0.0"
     inkscape:pageshadow="2"
     inkscape:zoom="0.35"
     inkscape:cx="-94.734136"
     inkscape:cy="57.774574"
     inkscape:document-units="px"
     inkscape:current-layer="layer1"
     showgrid="false"
     fit-margin-top="0"
     fit-margin-left="0"
     fit-margin-right="0"
     fit-margin-bottom="0"
     inkscape:window-width="560"
     inkscape:window-height="451"
     inkscape:window-x="3"
     inkscape:window-y="47"
     inkscape:window-maximized="0" />
  <metadata
     id="metadata4073">
    <rdf:RDF>
      <cc:Work
         rdf:about="">
        <dc:format>image/svg+xml</dc:format>
        <dc:type
           rdf:resource="http://purl.org/dc/dcmitype/StillImage" />
        <dc:title></dc:title>
      </cc:Work>
    </rdf:RDF>
  </metadata>
  <g
     inkscape:label="Capa 1"
     inkscape:groupmode="layer"
     id="layer1"
     transform="translate(-207.31059,-349.73241)">
    <path
       style="fill:#000000;fill-rule:evenodd;stroke:none;display:inline"
       d="m 214.05068,349.75986 c 0.016,-0.011 0.0342,-0.0187 0.0547,-0.0231 0.0198,-0.004 0.0417,-0.005 0.0656,-0.003 0.0478,0.004 0.10387,0.0201 0.16802,0.0485 0,0 0,0 0,0 0,0 0,0 0,0 0.1275,0.0566 0.28716,0.16169 0.47714,0.31457 0,0 0,0 0,0 0.3744,0.3013 0.86784,0.78975 1.4668,1.46108 0,0 0,0 0,0 1.15954,1.29966 2.72018,3.29021 4.57467,5.9531 0,0 0,0 0,0 3.4251,4.91747 7.90811,12.13777 12.44603,21.66788 0,0 0,0 0,0 0,10e-6 0,10e-6 0,10e-6 0,0 0,0 0,0 1.9734,4.13916 3.95839,8.72607 5.79028,13.76847 1.83189,5.0424 3.51101,10.54057 4.81195,16.49625 0,0 0,0 0,0 1.10648,5.01996 1.92452,10.40526 2.1898,16.06796 0.26527,5.6627 -0.0224,11.60298 -1.19358,17.68315 0,0 0,0 0,0 0,1e-5 0,1e-5 0,2e-5 0,0 0,0 0,0 -1.33503,6.84079 -2.56859,13.99345 -3.81305,21.41044 -1.24446,7.41699 -2.50028,15.09836 -3.93619,22.98262 0,0 0,0 0,0 -1.20176,6.6104 -2.50848,13.41323 -4.22119,20.31723 0,0 0,0 0,0 -1.12559,4.68714 -2.45412,9.80444 -4.99619,14.86698 -0.46907,0.91252 -0.95058,1.80912 -1.43946,2.69232 -2.76021,4.98654 -5.68732,9.44765 -7.89461,13.87811 -0.76643,1.86155 -1.52432,3.00408 -1.34948,3.50809 0.0891,-0.079 -0.0798,-0.37756 -0.40626,-1.05486 -0.57062,-0.53896 -0.75198,-0.77961 -0.76683,-0.6662 2.76935,1.07006 4.71939,2.64963 5.95987,4.23072 1.27219,1.41869 2.03479,2.5416 2.6823,2.98311 0.56289,0.55066 1.5866,0.85099 2.65775,0.94876 2.38999,0.25291 5.21575,-0.65 8.32129,-1.63487 5.30856,-1.78172 10.61897,-2.59339 15.76964,-2.85222 5.15067,-0.25883 10.14155,0.0347 14.85071,0.53394 4.57109,0.45116 8.93253,1.09343 13.11587,1.70266 3.31733,0.46775 6.31152,0.9866 9.05457,1.02982 0.11642,0.16729 0.66072,-0.19245 1.47574,-0.60097 1.04656,-0.65698 2.02406,-1.6918 3.01992,-2.8602 2.54362,-3.05333 4.36985,-6.61928 5.71246,-10.21644 0.64266,-1.86976 1.20101,-3.67365 1.52496,-5.37631 0.32394,-1.70266 0.41369,-3.30419 0.16752,-4.78318 -0.20794,-1.15784 -0.48978,-2.16525 -1.01715,-2.73454 -0.42328,-0.64345 -1.36965,-1.07471 -2.36013,-1.31102 -4.46634,-0.8247 -8.16558,-2.57821 -11.21485,-4.44364 0,0 0,0 -1e-5,0 -3.71552,-2.26857 -6.58286,-4.70269 -8.84121,-6.87074 -5.08529,-5.76509 -7.60219,-9.0686 -7.15994,-9.50166 0,0 0,0 0,0 0,0 0,0 0,0 0.003,-0.003 0.003,-0.003 0.003,-0.003 0,0 -10e-6,-1e-5 0.004,-0.003 0,0 0,0 10e-6,0 0,0 0,0 0,0 0.47237,-0.40346 3.85433,2.08832 9.52207,6.88743 2.40878,1.71211 5.30086,3.62236 8.77203,5.26174 10e-6,0 10e-6,0 10e-6,0 2.89959,1.36941 6.19034,2.60663 9.74282,2.93993 2.08988,0.20853 4.26821,1.10586 6.06994,2.89665 1.54013,1.69261 2.4768,3.71989 2.84246,5.73028 0.43434,2.27976 0.48703,4.60408 0.24236,6.89866 -0.24467,2.29457 -0.78694,4.55942 -1.49511,6.70273 -1.31062,4.28505 -3.32251,8.6856 -6.37365,12.75242 -1.16979,1.58769 -2.63795,3.19897 -4.54657,4.61456 -1.39977,1.1448 -3.44503,2.05335 -6.09071,2.22064 -3.54447,0.0432 -6.94275,-0.38421 -10.14186,-0.75224 -4.21736,-0.46821 -8.48136,-0.96645 -12.78402,-1.26743 -4.48889,-0.28042 -9.06766,-0.44038 -13.57189,-0.15541 -4.50423,0.28497 -8.93365,1.01522 -13.09286,2.58928 -3.3734,1.31174 -7.404,2.4491 -12.04231,2.32535 -2.83802,-0.11173 -5.72893,-1.08704 -8.26047,-3.01136 -1.88293,-1.5824 -3.08678,-3.10387 -3.97011,-4.14515 -0.8383,-0.79131 -1.34996,-1.40037 -1.60638,-1.31352 -1.37216,-0.32756 -2.86669,-1.30948 -4.26504,-3.01754 -1.09383,-1.76111 -1.54048,-3.43051 -1.42864,-4.84175 0.24242,-3.46485 1.33759,-6.05207 2.35731,-7.77828 2.54639,-5.11806 5.53869,-9.7303 8.06597,-14.28528 0.44763,-0.80675 0.87873,-1.609 1.28836,-2.40949 1.93857,-3.67239 3.0221,-8.09096 4.23836,-12.72818 0,0 0,0 0,0 1.66825,-6.55775 2.9909,-13.16097 4.26294,-19.7008 0,0 0,0 0,0 1.5076,-7.76297 2.87884,-15.39769 4.2769,-22.82487 1.39805,-7.42718 2.82333,-14.64661 4.3815,-21.58708 0,0 0,0 0,0 0,0 0,0 0,-10e-6 0,0 0,0 0,0 1.20131,-5.22053 1.61427,-10.47464 1.54503,-15.5969 -0.0693,-5.12227 -0.62064,-10.1126 -1.4151,-14.85094 0,0 0,0 0,0 -0.95508,-5.62548 -2.27672,-10.90466 -3.74505,-15.81313 -1.46833,-4.90848 -3.08372,-9.44632 -4.68563,-13.5959 0,0 0,0 0,0 0,0 0,-10e-6 0,-10e-6 0,0 0,0 0,0 -3.69146,-9.54827 -7.31447,-17.02105 -9.88714,-22.32993 0,0 0,0 0,0 -1.3932,-2.87453 -2.48741,-5.10794 -3.18377,-6.68275 0,0 0,0 0,0 -0.35972,-0.81352 -0.61253,-1.4496 -0.74737,-1.90628 0,0 0,0 0,0 -0.0684,-0.23174 -0.10618,-0.41684 -0.11207,-0.55524 0,0 0,0 0,0 0,0 0,0 -1e-5,0 -0.003,-0.0698 0.002,-0.12756 0.0156,-0.17339 0.007,-0.023 0.0156,-0.043 0.0266,-0.0599 0.0114,-0.0176 0.025,-0.0319 0.041,-0.0429 z"
       id="path5541"
       inkscape:path-effect="#path-effect5543"
       inkscape:original-d="m 214.05067,349.75985 c 0,0 35.28374,50.6798 26.49972,92.5209 -5.62641,26.8004 -10.56273,65.5366 -17.06316,78.2091 -6.50042,12.6725 -15.43835,23.2328 -8.9373,25.3449 6.4998,2.1121 4.87501,12.6725 22.75024,6.3362 17.87649,-6.3362 41.44007,0 51.19071,0 9.75001,0 23.56295,-32.7372 8.9373,-34.8493 -14.62564,-2.1121 -27.6265,-17.9526 -27.6265,-17.9526"
       inkscape:connector-curvature="0"
       sodipodi:nodetypes="csccsssc" />
    <path
       style="fill:#000000;fill-rule:evenodd;stroke:none;display:inline"
       d="m 1349.5596,375.89624 c 0.011,-0.0171 0.026,-0.0312 0.046,-0.0424 0.019,-0.0109 0.043,-0.019 0.072,-0.0244 0.056,-0.0106 0.1296,-0.0102 0.2199,0.001 0,0 0,0 0,0 0,0 0,0 0,0 0.179,0.0229 0.4249,0.0897 0.7349,0.20018 0,0 0,0 0,0 0.6071,0.21641 1.462,0.60186 2.5453,1.1593 0,0 0,0 0,0 2.0647,1.06251 4.9676,2.75117 8.5588,5.11538 0,0 0,0 0,0 3.1707,2.08666 6.8897,4.69708 11.0091,7.91686 4.1193,3.21978 8.6405,7.04866 13.3428,11.62012 0,0 0,0 0,0 0,0 0,1e-5 0,1e-5 3.7085,3.58974 7.5767,7.66988 11.2793,12.39081 3.7027,4.72093 7.2414,10.08267 10.1101,16.28245 0,0 0,0 0,0 2.3165,5.01487 4.0985,10.66373 4.6371,16.82546 0,0 0,0 0,0 0.4881,5.80408 -0.2826,11.91936 -2.549,17.74256 0,0 0,0 0,0 -2.5719,6.4081 -6.7724,11.92606 -11.2257,16.80962 0,0 0,0 0,0 -5.2418,5.85179 -11.2464,11.29507 -17.8349,16.24317 0,0 0,0 0,0 -6.0214,4.54649 -12.6829,8.81379 -20.1808,12.03474 0,0 0,0 0,0 -3.0339,1.30922 -6.3129,2.43821 -9.8483,3.12906 0,0 0,0 0,0 -2.8395,0.5895 -6.0403,0.78634 -9.43,0.17153 0,0 0,0 0,0 -3.5406,-0.69057 -6.9484,-1.41158 -10.2616,-1.80977 0,0 0,0 0,0 0,0 0,-10e-6 0,-10e-6 0,0 0,0 0,0 -2.0062,-0.0956 -3.3447,-0.43528 -3.7299,-0.0927 0,0 0,0 0,0 0,0 0,0 0,0 0,0 0,0 0,0 0.077,0.008 0.2077,-0.1114 0.4932,-0.35305 0,0 0,-1e-5 0,-1e-5 0.1693,-0.27907 0.2334,-0.28138 0.1294,-0.1127 0,0 0,0 0,10e-6 -0.3822,0.9141 -0.2589,2.52882 -0.3307,4.67755 0,10e-6 0,10e-6 0,2e-5 0.014,2.64642 -0.01,5.09084 0.2974,7.28557 0.07,0.46665 0.1485,0.92435 0.2383,1.36944 0.3079,1.52676 0.748,2.89572 1.4361,3.96754 0.9064,1.62999 2.5856,3.01307 4.5054,4.13103 3.0369,1.75845 6.8093,2.65262 10.794,3.37616 7.3935,1.25341 14.7553,2.25835 22.0278,3.20237 9.6896,1.25655 19.1527,2.33909 28.3466,3.20183 8.8273,0.82448 17.3218,1.50225 25.4676,1.59321 3.0259,0.0277 5.8933,0.01 8.5823,-0.29494 0.9535,-0.11353 1.7909,-0.22591 2.4911,-0.41699 0.5311,-0.20734 0.7557,-0.19848 0.5596,-0.13608 0.8346,-0.79325 2.3782,-1.5232 4.5911,-1.82875 0,0 10e-5,0 10e-5,0 1.9901,0.0472 3.4814,0.56027 4.421,1.31198 2.286,1.58481 3.6321,3.1252 4.7332,3.83025 2.3345,1.64242 5.328,2.50191 8.3997,2.97175 3.1783,0.47197 6.395,0.47646 9.5881,0.24272 3.1931,-0.23374 6.3625,-0.70584 9.4573,-1.23809 3.4564,-0.66567 6.5795,-1.59109 8.8373,-3.29513 1.6508,-1.2178 2.9339,-2.84948 3.4188,-4.56582 0.5943,-1.79342 0.4435,-3.89566 -0.024,-5.88746 -0.5919,-2.42708 -1.7656,-4.67659 -3.1219,-6.69278 -1.7627,-2.55999 -3.7953,-4.71338 -5.8902,-6.38214 -2.0949,-1.66877 -4.2534,-2.85668 -6.3334,-3.63072 0,0 0,0 0,0 -2.5786,-0.95486 -4.9831,-1.22764 -6.9397,-0.98344 -1.1645,0.13077 -2.1875,0.44355 -3.0533,0.78995 -0.8658,0.3464 -1.5765,0.728 -2.148,1.05409 -1.1431,0.65218 -1.7533,1.05968 -1.9231,0.90685 -0.1698,-0.15283 0.099,-0.87107 1.0681,-1.94995 0.4844,-0.53944 1.1511,-1.16142 2.0536,-1.76962 0.9026,-0.60821 2.0428,-1.20447 3.4606,-1.61548 1.1747,-0.3296 2.5043,-0.52954 3.9516,-0.53637 1.4474,-0.007 3.0134,0.18045 4.6169,0.60028 0,0 0,0 0,0 2.5277,0.65506 5.2081,1.79224 7.8424,3.51657 2.6343,1.72433 5.2238,4.03965 7.4734,6.91561 1.8006,2.26103 3.4304,4.96905 4.4682,8.18018 0.884,2.68355 1.2301,5.80604 0.4858,9.0693 -0.82,3.21333 -2.7214,6.11341 -5.3723,8.21237 -3.3717,2.63653 -7.4291,4.20729 -11.4753,5.04212 -3.205,0.72774 -6.6009,1.37458 -10.1737,1.75413 -3.5727,0.37955 -7.3224,0.49194 -11.2242,0.0995 -3.9328,-0.38533 -8.0834,-1.52132 -11.9339,-3.89914 -2.2768,-1.49063 -3.7205,-3.02825 -4.8748,-3.71099 -0.1624,0.0253 0.043,-0.007 0.7065,0.11795 0,0 0,0 0,0 0.5377,-0.20752 0.5581,-0.0191 0.039,0.20322 -1.341,0.92101 -2.5096,1.40134 -3.3664,1.58258 -1.3251,0.37595 -2.582,0.60072 -3.7369,0.74968 -3.2709,0.4371 -6.509,0.55119 -9.6556,0.57811 -8.5591,0.0889 -17.3439,-0.43414 -26.2687,-1.1317 -9.3457,-0.72682 -18.9472,-1.69979 -28.7522,-2.87471 -7.336,-0.878 -14.836,-1.846 -22.452,-3.09416 -4.5363,-0.69664 -9.3712,-1.93948 -14.0085,-4.44449 -3.1826,-1.71669 -6.105,-4.28752 -8.231,-7.71154 -1.3461,-2.31844 -2.2055,-4.74052 -2.6887,-7.12187 -0.1409,-0.69423 -0.2496,-1.38376 -0.3293,-2.06502 -0.3834,-3.0793 -0.387,-5.95099 -0.3729,-8.57894 0,-10e-6 0,-10e-6 0,-2e-5 -0.072,-1.99259 -0.041,-4.59543 0.7867,-7.61181 0,-10e-6 0,-2e-5 0,-3e-5 0.2942,-1.12527 0.951,-2.38144 2.0289,-3.65984 0,-10e-6 0,-2e-5 0,-3e-5 1.1547,-1.19766 2.433,-1.99202 3.7332,-2.39194 0,-10e-6 0,-10e-6 10e-5,-10e-6 3.4024,-0.91986 6.1869,-0.71206 8.1129,-0.31612 0,0 0,0 0,0 0,0 0,0 0,0 0,0 0,0 0,0 3.8725,0.50002 7.5085,1.27983 10.9654,1.98877 0,0 0,0 0,0 1.6091,0.38496 3.5692,0.20408 5.6836,-0.136 0,0 0,0 0,0 2.6103,-0.46236 5.2392,-1.36351 7.8815,-2.44611 0,0 0,0 0,0 6.5516,-2.69901 12.617,-6.50926 18.3411,-10.6581 0,0 0,0 0,0 6.215,-4.53052 11.8679,-9.46042 16.7915,-14.73907 4.2087,-4.60066 7.9519,-9.08547 9.9314,-13.9412 0,0 0,0 0,0 1.8939,-4.4729 2.6502,-9.32395 2.4092,-13.96348 0,0 0,0 0,0 -0.2401,-4.99353 -1.6166,-9.85387 -3.465,-14.36378 0,0 0,0 0,0 -2.3074,-5.6376 -5.3527,-10.67598 -8.6143,-15.23873 -3.2616,-4.56275 -6.7411,-8.64946 -10.0981,-12.34357 0,0 0,0 0,-10e-6 0,0 0,0 0,0 -4.2638,-4.6718 -8.39,-8.68534 -12.1451,-12.14619 -3.755,-3.46085 -7.1404,-6.36866 -9.9962,-8.78729 0,0 0,0 0,0 -3.234,-2.73804 -5.7937,-4.83803 -7.5328,-6.34254 0,0 0,0 0,0 -0.9125,-0.78937 -1.598,-1.41316 -2.0402,-1.8752 0,0 0,0 0,0 -0.2258,-0.23599 -0.3876,-0.42945 -0.4837,-0.58093 0,0 0,0 0,0 0,0 0,0 0,0 -0.049,-0.0765 -0.08,-0.1423 -0.095,-0.19731 -0.01,-0.0277 -0.01,-0.0526 -0.01,-0.0748 0,-0.0228 0.01,-0.0428 0.018,-0.0598 z"
       id="path6572"
       inkscape:path-effect="#path-effect6574"
       inkscape:original-d="m 1349.5596,375.89623 c 0,0 73.048,45.4614 56.0288,87.5807 -7.4874,18.5299 -45.6991,48.7294 -63.5744,45.1543 -17.8752,-3.5751 -19.6634,-3.5751 -19.6634,7.1502 0,10.7253 0,21.4506 21.4508,25.0258 21.4508,3.5751 83.7029,11.0324 90.8534,5.6698 7.1498,-5.3627 3.5749,12.5129 39.326,5.3626 35.7511,-7.1502 -1.7875,-50.0514 -17.8752,-32.1758"
       inkscape:connector-curvature="0"
       sodipodi:nodetypes="csssscsc" />
  </g>
</svg>
