<?xml version="1.0" encoding="UTF-8" standalone="no"?>
<!-- Created with Inkscape (http://www.inkscape.org/) -->

<svg
   xmlns:dc="http://purl.org/dc/elements/1.1/"
   xmlns:cc="http://creativecommons.org/ns#"
   xmlns:rdf="http://www.w3.org/1999/02/22-rdf-syntax-ns#"
   xmlns:svg="http://www.w3.org/2000/svg"
   xmlns="http://www.w3.org/2000/svg"
   xmlns:sodipodi="http://sodipodi.sourceforge.net/DTD/sodipodi-0.dtd"
   xmlns:inkscape="http://www.inkscape.org/namespaces/inkscape"
   width="69.411819"
   height="107.26949"
   id="svg3833"
   version="1.1"
   inkscape:version="0.48.3.1 r9886"
   sodipodi:docname="nariz_3.svg">
  <defs
     id="defs3835" />
  <sodipodi:namedview
     id="base"
     pagecolor="#ffffff"
     bordercolor="#666666"
     borderopacity="1.0"
     inkscape:pageopacity="0.0"
     inkscape:pageshadow="2"
     inkscape:zoom="0.35"
     inkscape:cx="10.49606"
     inkscape:cy="31.968772"
     inkscape:document-units="px"
     inkscape:current-layer="layer1"
     showgrid="false"
     fit-margin-top="0"
     fit-margin-left="0"
     fit-margin-right="0"
     fit-margin-bottom="0"
     inkscape:window-width="560"
     inkscape:window-height="453"
     inkscape:window-x="3"
     inkscape:window-y="47"
     inkscape:window-maximized="0" />
  <metadata
     id="metadata3838">
    <rdf:RDF>
      <cc:Work
         rdf:about="">
        <dc:format>image/svg+xml</dc:format>
        <dc:type
           rdf:resource="http://purl.org/dc/dcmitype/StillImage" />
        <dc:title></dc:title>
      </cc:Work>
    </rdf:RDF>
  </metadata>
  <g
     inkscape:label="Capa 1"
     inkscape:groupmode="layer"
     id="layer1"
     transform="translate(-339.50394,-457.06146)">
    <path
       inkscape:connector-curvature="0"
       style="opacity:0.9;fill:#000000;fill-rule:evenodd;stroke:none;display:inline"
       d="m 368.5601,457.06759 c 0.0106,0.004 0.0205,0.007 0.0305,0.0153 0.009,0.01 0.017,0.0232 0.0241,0.0402 0,0 0,0 0,0 0.0142,0.0341 0.0255,0.0824 0.034,0.14508 0,0 0,0 0,0 0,0 0,0 0,0 0.0163,0.12467 0.0198,0.30581 0.0106,0.54173 0,0 0,0 0,0 -0.0177,0.466 -0.0839,1.14591 -0.19814,2.02709 0,0 0,0 0,0 -0.22209,1.71262 -0.6251,4.18623 -1.20712,7.32766 0,0 0,0 0,0 -1.07848,5.82071 -2.7625,13.93956 -5.11143,23.74738 0,0 0,0 0,0 -1.99621,8.33623 -4.45084,17.9093 -7.63915,28.2686 0,0 0,0 0,0 0,0 0,0 0,0 0,0 0,0 0,0 -1.29745,4.21608 -2.72155,8.56948 -4.35896,13.00145 0,0 0,0 0,0 -1.30963,3.54862 -2.75605,7.17679 -4.5178,10.7795 0,0 0,0 0,0 -0.75269,1.56454 -1.38131,3.13514 -1.63823,4.7071 0,0 0,0 0,0 -0.1687,1.08392 -0.21044,2.13597 0.0432,3.02897 0.17891,0.69541 0.53044,1.36481 1.00683,1.90462 0,5e-5 0,5e-5 0,5e-5 0.4491,0.52716 1.06767,0.97792 1.76558,1.36865 0.46413,0.26046 0.96314,0.47944 1.4892,0.66463 0.96378,0.33939 2.01045,0.56313 3.0873,0.72397 0.57898,0.0807 1.15718,0.13582 1.73191,0.16236 0.16626,0.007 0.32728,0.0131 0.48306,0.0148 0,0 0,0 0,0 0.20409,0.0384 0.40506,0.0763 0.60299,0.11398 0,0 0,0 0,0 0.0149,3.5e-4 0.0297,0 0.0446,0 0.007,5e-5 0.008,1.4e-4 0.0113,1.8e-4 1.0697,0.48433 2.13138,0.96714 3.18839,1.44824 0,0 0,0 0,0 1.94401,0.88567 3.89219,1.64905 5.85122,2.19748 1.06792,0.29904 2.11544,0.53667 3.14021,0.65978 0.94827,0.10618 1.83456,0.14686 2.61905,0.0122 0,0 0,0 0,0 0.67128,-0.129 1.26485,-0.30988 1.62345,-0.62342 0.39012,-0.26317 0.68984,-0.79234 0.88806,-1.37367 0,0 0,0 0,0 0.71683,-2.33089 2.03191,-4.39902 3.7391,-6.01782 0,0 0,0 0,0 1.51776,-1.42698 3.24917,-2.49242 5.0284,-3.26157 0,0 0,0 0,0 1.41738,-0.61792 2.87478,-1.07248 4.33636,-1.38144 0.45161,-0.096 0.91129,-0.17926 1.37863,-0.24557 0.12878,-0.0183 0.26232,-0.0358 0.4006,-0.0514 0,0 0,0 0,0 0.15896,0.006 0.32034,0.0113 0.48405,0.0174 0.0361,0 0.0728,0.004 0.10924,0.004 0.0135,0 0.0255,0 0.039,0 7e-5,0 7e-5,0 7e-5,0 0.007,0 0.0142,0 0.0213,0.004 0.0198,0.004 0.039,0.005 0.0588,0.007 0.0762,0.009 0.15252,0.0183 0.22903,0.0275 0.0553,0.0157 0.11186,0.0315 0.16987,0.0474 0,0 0,0 0,0 0.21883,0.0601 0.44035,0.11844 0.6642,0.17572 0,0 0,0 0,0 0.79519,0.20357 1.59179,0.38697 2.38768,0.55357 2.42431,0.50406 4.78747,0.85921 7.07336,0.94971 0,0 0,0 0,0 1.23021,0.047 2.41126,0.0275 3.52452,-0.12808 1.01267,-0.15293 1.93374,-0.36214 2.6646,-0.7585 0,0 0,0 0,0 0.61907,-0.34031 1.14861,-0.78277 1.38174,-1.28745 0,0 0,0 0,0 0.36646,-0.60421 0.37893,-1.50891 0.28924,-2.43933 0,0 0,0 0,0 -0.35179,-2.54644 -0.84909,-4.95717 -1.51967,-7.16177 -0.67057,-2.20459 -1.51407,-4.20356 -2.51349,-5.97106 -0.79093,-1.3738 -1.6,-2.57035 -2.58433,-3.38351 0,0 0,0 0,0 -0.37496,-0.30586 -0.72973,-0.55449 -1.07834,-0.67568 0,0 0,0 0,0 -0.28144,-0.0961 -0.55418,-0.1469 -0.76181,-0.0983 0,0 0,0 0,0 -0.5097,0.0929 -1.00743,0.29241 -1.49963,0.53121 -0.49213,0.23885 -0.97873,0.51716 -1.46229,0.78718 0,0 0,0 0,0 -1.44535,0.82621 -2.68485,1.66395 -3.75327,2.38948 -1.36658,0.92828 -2.43769,1.68495 -3.218,2.20425 0,0 0,0 0,0 -0.44303,0.29486 -0.79129,0.51402 -1.04348,0.65066 0,0 0,0 0,0 -0.13268,0.072 -0.23866,0.12093 -0.31765,0.14626 0,0 0,0 0,0 0,0 0,0 0,0 -0.0404,0.0131 -0.0737,0.0196 -0.1,0.02 0,0 0,0 0,0 -0.0248,-0.0127 -0.0397,-0.0175 -0.0475,-0.0192 -0.009,0 -0.0106,-1.8e-4 -0.0106,4e-5 0,0 0,0 0,0 0,0 0,0 0,0 0,0 0,0 0,0 0,0 0,0 0,0 2.1e-4,-2.2e-4 0,-0.004 0,-0.0109 0,-0.009 -0.007,-0.0236 -0.0135,-0.0497 0,0 0,0 0,0 0.007,-0.0262 0.0149,-0.0584 0.0326,-0.097 0,0 0,0 0,0 0,0 0,0 0,0 0.0354,-0.0754 0.0985,-0.17446 0.18887,-0.29635 0,0 0,0 0,0 0.17157,-0.23164 0.4419,-0.54606 0.80977,-0.93618 0,0 0,0 0,0 0.64784,-0.68703 1.59661,-1.61304 2.86309,-2.71896 0.98752,-0.86292 2.16779,-1.84796 3.61421,-2.85277 0,0 0,0 0,0 0.4543,-0.32389 0.95203,-0.66787 1.51606,-0.98944 0.5641,-0.32163 1.19451,-0.62098 1.92056,-0.837 0,0 0,0 0,0 0,0 0,0 0,0 0.66689,-0.17004 1.34746,-0.14703 1.96242,0.0428 0,0 0,0 0,0 0.69608,0.21217 1.31806,0.55571 1.84781,0.95888 0,0 0,0 0,0 1.36006,1.02446 2.47105,2.40729 3.38865,3.8812 1.1972,1.89367 2.23311,4.03823 3.07264,6.39157 0.8396,2.35333 1.48226,4.91583 1.93486,7.59728 0,0 0,0 0,0 0.25878,1.33478 0.2031,2.88241 -0.47002,4.41749 0,0 0,0 0,0 -0.6234,1.25806 -1.61049,2.24139 -2.76222,2.86621 0,0 0,0 0,0 -1.22724,0.67084 -2.53198,1.04873 -3.79003,1.24326 -1.38883,0.22737 -2.78857,0.29674 -4.16691,0.27304 0,0 0,0 0,0 -2.55777,-0.0406 -5.14536,-0.36004 -7.72353,-0.84494 -0.8515,-0.15908 -1.70867,-0.33777 -2.56988,-0.53969 0,0 0,0 0,0 -0.24235,-0.0568 -0.48717,-0.11609 -0.7344,-0.17873 0,0 0,0 0,0 -0.0652,-0.0166 -0.1324,-0.0336 -0.20062,-0.0516 0.0446,0 0.089,0 0.13325,0 0.0113,1.3e-4 0.0227,2.2e-4 0.034,3e-4 0.007,5e-5 0.009,9e-5 0.012,9e-5 7e-5,0 7e-5,0 7e-5,0 0.008,0 0.0149,0.004 0.022,0.004 0.0213,0.004 0.0418,0.006 0.0623,0.009 0.10329,0.0123 0.20417,0.0249 0.30263,0.038 0,0 0,0 0,0 -0.0914,0.0122 -0.18716,0.0266 -0.28754,0.0428 -0.36376,0.0585 -0.73305,0.13325 -1.10794,0.2199 -1.21272,0.28203 -2.40688,0.67664 -3.54663,1.19813 0,0 0,0 0,0 -1.41695,0.65507 -2.74535,1.4863 -3.81703,2.54402 0,0 0,0 0,0 -1.18559,1.15691 -2.10347,2.63863 -2.56846,4.2474 0,0 0,0 0,0 -0.36497,1.29552 -1.12849,2.53241 -2.29552,3.49514 -1.11623,0.84751 -2.35651,1.32564 -3.55669,1.50267 0,0 0,0 0,0 -1.3262,0.21056 -2.61281,0.18856 -3.81171,0.0406 -1.30814,-0.15284 -2.57534,-0.42522 -3.79564,-0.76426 0,0 0,0 0,0 -2.25492,-0.62678 -4.43886,-1.4674 -6.55189,-2.42825 -0.76019,-0.41395 -1.523,-0.82979 -2.28829,-1.24741 -0.007,2.6e-4 -0.009,3.9e-4 -0.012,0 -0.0106,0 -0.022,0 -0.0333,0 0,0 0,0 0,0 0.0979,0.0384 0.19892,0.0758 0.30291,0.11311 0,0 0,0 8e-5,0 -0.21741,0 -0.42965,-0.008 -0.63672,-0.0175 -0.71605,-0.0319 -1.42892,-0.0982 -2.1357,-0.19611 -1.30325,-0.17 -2.6381,-0.46503 -3.95282,-0.93928 -0.71754,-0.25885 -1.42597,-0.57008 -2.11693,-0.94112 -1.07087,-0.5764 -2.08621,-1.34821 -2.95472,-2.32819 0,0 0,0 0,0 -0.92955,-1.06833 -1.59081,-2.3342 -1.93955,-3.69124 -0.40955,-1.68687 -0.38492,-3.34697 -0.10002,-4.85925 0,0 0,0 0,0 0.393,-2.14779 1.1594,-4.10105 2.05084,-5.86646 0,0 0,0 0,0 1.69437,-3.39717 3.11956,-6.88572 4.44831,-10.35165 0,0 0,0 0,0 1.65406,-4.31886 3.11946,-8.58468 4.47946,-12.73354 0,0 0,-4e-5 0,-4e-5 0,0 0,0 0,0 3.34176,-10.19519 6.03731,-19.64044 8.33885,-27.86534 0,0 0,0 0,0 2.70681,-9.67396 4.83167,-17.66403 6.40759,-23.35844 0,0 0,0 0,0 0.85051,-3.0732 1.5383,-5.47787 2.0577,-7.1223 0,0 0,0 0,0 0.26728,-0.84607 0.48979,-1.49071 0.66661,-1.9216 0,0 0,0 0,0 0.0895,-0.21821 0.16726,-0.38152 0.23307,-0.48844 0,0 0,0 0,0 0,0 0,0 0,0 0.0333,-0.0538 0.063,-0.0933 0.0902,-0.11835 0,0 0,0 0,0 0.0135,-0.0127 0.0269,-0.0214 0.0382,-0.0266 0.012,-0.004 0.0234,-0.004 0.0333,0 z"
       id="path7045-8" />
  </g>
</svg>
