<?xml version="1.0" encoding="UTF-8" standalone="no"?>
<!-- Created with Inkscape (http://www.inkscape.org/) -->

<svg
   xmlns:dc="http://purl.org/dc/elements/1.1/"
   xmlns:cc="http://creativecommons.org/ns#"
   xmlns:rdf="http://www.w3.org/1999/02/22-rdf-syntax-ns#"
   xmlns:svg="http://www.w3.org/2000/svg"
   xmlns="http://www.w3.org/2000/svg"
   xmlns:sodipodi="http://sodipodi.sourceforge.net/DTD/sodipodi-0.dtd"
   xmlns:inkscape="http://www.inkscape.org/namespaces/inkscape"
   width="599.09497"
   height="921.74957"
   id="svg4068"
   version="1.1"
   inkscape:version="0.48.3.1 r9886"
   sodipodi:docname="cara_3.svg">
  <defs
     id="defs4070">
    <inkscape:path-effect
       effect="skeletal"
       id="path-effect6574"
       is_visible="true"
       pattern="m -14069.21,-1265.6489 c 0,-2.76 2.24,-5 5,-5 2.76,0 5,2.24 5,5 0,2.76 -2.24,5 -5,5 -2.76,0 -5,-2.24 -5,-5 z"
       copytype="single_stretched"
       prop_scale="1"
       scale_y_rel="false"
       spacing="0"
       normal_offset="0"
       tang_offset="0"
       prop_units="false"
       vertical_pattern="false"
       fuse_tolerance="0" />
    <inkscape:path-effect
       effect="skeletal"
       id="path-effect5543"
       is_visible="true"
       pattern="m -13870.71,-1632.2205 c 0,-2.76 2.24,-5 5,-5 2.76,0 5,2.24 5,5 0,2.76 -2.24,5 -5,5 -2.76,0 -5,-2.24 -5,-5 z"
       copytype="single_stretched"
       prop_scale="1"
       scale_y_rel="false"
       spacing="0"
       normal_offset="0"
       tang_offset="0"
       prop_units="false"
       vertical_pattern="false"
       fuse_tolerance="0" />
    <inkscape:path-effect
       effect="skeletal"
       id="path-effect6549"
       is_visible="true"
       pattern="m -9698.7475,1895.3113 c 0,-2.76 2.24,-5 5,-5 2.76,0 5,2.24 5,5 0,2.76 -2.24,5 -5,5 -2.76,0 -5,-2.24 -5,-5 z"
       copytype="single_stretched"
       prop_scale="1"
       scale_y_rel="false"
       spacing="0"
       normal_offset="0"
       tang_offset="0"
       prop_units="false"
       vertical_pattern="false"
       fuse_tolerance="0" />
    <inkscape:path-effect
       effect="skeletal"
       id="path-effect3189-8-4-9-7-6-9-2-2-9-8"
       is_visible="true"
       pattern="m 6237.6376,1770.428 c 0,-2.76 2.24,-4.9999 5,-4.9999 2.76,0 5,2.2399 5,4.9999 0,2.76 -2.24,5 -5,5 -2.76,0 -5,-2.24 -5,-5 z"
       copytype="single_stretched"
       prop_scale="1"
       scale_y_rel="false"
       spacing="0"
       normal_offset="0"
       tang_offset="0"
       prop_units="false"
       vertical_pattern="false"
       fuse_tolerance="0" />
    <inkscape:path-effect
       effect="skeletal"
       id="path-effect3189-8-4-9-7-6-9-2-2-9-8-3"
       is_visible="true"
       pattern="m 6757.667,1749.1885 c 0,-2.76 2.24,-4.9999 5,-4.9999 2.76,0 5,2.2399 5,4.9999 0,2.76 -2.24,5 -5,5 -2.76,0 -5,-2.24 -5,-5 z"
       copytype="single_stretched"
       prop_scale="1"
       scale_y_rel="false"
       spacing="0"
       normal_offset="0"
       tang_offset="0"
       prop_units="false"
       vertical_pattern="false"
       fuse_tolerance="0" />
    <inkscape:path-effect
       effect="skeletal"
       id="path-effect3093-0"
       is_visible="true"
       pattern="m 719.7321,-1655.961 c 0,-2.76 2.24,-5 5,-5 2.76,0 5,2.24 5,5 0,2.76 -2.24,5 -5,5 -2.76,0 -5,-2.24 -5,-5 z"
       copytype="single_stretched"
       prop_scale="1"
       scale_y_rel="false"
       spacing="0"
       normal_offset="0"
       tang_offset="0"
       prop_units="false"
       vertical_pattern="false"
       fuse_tolerance="0" />
    <inkscape:path-effect
       effect="skeletal"
       id="path-effect3189-5"
       is_visible="true"
       pattern="m 719.7321,-1655.961 c 0,-2.76 2.24,-5 5,-5 2.76,0 5,2.24 5,5 0,2.76 -2.24,5 -5,5 -2.76,0 -5,-2.24 -5,-5 z"
       copytype="single_stretched"
       prop_scale="1"
       scale_y_rel="false"
       spacing="0"
       normal_offset="0"
       tang_offset="0"
       prop_units="false"
       vertical_pattern="false"
       fuse_tolerance="0" />
    <inkscape:path-effect
       effect="skeletal"
       id="path-effect3193-1"
       is_visible="true"
       pattern="m 719.7321,-1655.961 c 0,-2.76 2.24,-5 5,-5 2.76,0 5,2.24 5,5 0,2.76 -2.24,5 -5,5 -2.76,0 -5,-2.24 -5,-5 z"
       copytype="single_stretched"
       prop_scale="1"
       scale_y_rel="false"
       spacing="0"
       normal_offset="0"
       tang_offset="0"
       prop_units="false"
       vertical_pattern="false"
       fuse_tolerance="0" />
    <inkscape:path-effect
       effect="skeletal"
       id="path-effect4306"
       is_visible="true"
       pattern="m -9425.3569,-2462.5408 c 0,-2.76 2.24,-5 5,-5 2.76,0 5,2.24 5,5 0,2.76 -2.24,5 -5,5 -2.76,0 -5,-2.24 -5,-5 z"
       copytype="single_stretched"
       prop_scale="1"
       scale_y_rel="false"
       spacing="0"
       normal_offset="0"
       tang_offset="0"
       prop_units="false"
       vertical_pattern="false"
       fuse_tolerance="0" />
  </defs>
  <sodipodi:namedview
     id="base"
     pagecolor="#ffffff"
     bordercolor="#666666"
     borderopacity="1.0"
     inkscape:pageopacity="0.0"
     inkscape:pageshadow="2"
     inkscape:zoom="0.70000002"
     inkscape:cx="594.06125"
     inkscape:cy="407.44372"
     inkscape:document-units="px"
     inkscape:current-layer="layer1"
     showgrid="false"
     fit-margin-top="0"
     fit-margin-left="0"
     fit-margin-right="0"
     fit-margin-bottom="0"
     inkscape:window-width="1914"
     inkscape:window-height="1030"
     inkscape:window-x="0"
     inkscape:window-y="25"
     inkscape:window-maximized="1" />
  <metadata
     id="metadata4073">
    <rdf:RDF>
      <cc:Work
         rdf:about="">
        <dc:format>image/svg+xml</dc:format>
        <dc:type
           rdf:resource="http://purl.org/dc/dcmitype/StillImage" />
        <dc:title />
      </cc:Work>
    </rdf:RDF>
  </metadata>
  <g
     inkscape:label="Capa 1"
     inkscape:groupmode="layer"
     id="layer1"
     transform="translate(-161.79069,-292.48487)">
    <g
       id="g5032">
      <path
         sodipodi:nodetypes="ccccccccccccccccccccccczzzcc"
         inkscape:connector-curvature="0"
         id="path4007-7"
         d="m 238.5594,783.5464 -30.3046,-24.2436 -24.2437,4.0406 -14.1421,42.4264 0,22.2233 30.3046,20.2031 32.3248,66.67 32.3249,12.1219 16.1625,90.9137 123.2386,181.8275 52.5279,6.0609 56.5685,-24.2437 107.0762,-139.401 40.4061,-105.0559 0,-18.1827 32.3249,-2.0204 12.1218,-42.4264 42.4264,-38.3858 8.0813,-36.3654 -24.2437,-42.4265 -40.4061,26.264 -12.1218,18.1828 31.0309,-107.7799 c 0,0 57.3917,-168.3222 13.5518,-248.8374 C 679.7287,364.5967 557.4517,294.6117 462.3588,295.837 367.266,297.0623 276.095,361.0642 231.6815,435.6687 187.268,510.2732 219.605,686.5718 219.605,686.5718 z"
         style="fill:#f6e1e1;fill-opacity:1;stroke:none;display:inline" />
      <path
         sodipodi:nodetypes="cssssc"
         inkscape:connector-curvature="0"
         inkscape:original-d="m 254.0396,758.1694 c 0,0 9.6696,209.4435 22.7518,252.7978 10.4562,34.6519 86.5832,143.4627 110.599,174.4305 23.5967,30.4274 49.7447,28.0794 95.4312,13.2718 46.894,-15.1988 97.3272,-85.3192 139.0388,-152.3106 41.7116,-66.9915 58.1435,-273.0216 68.2554,-312.2053"
         inkscape:path-effect="#path-effect3093-0"
         id="path3091-0"
         d="m 254.04006,758.17936 c 0.0201,-9.3e-4 0.0406,0.008 0.0615,0.0262 0.0209,0.0247 0.0425,0.062 0.0645,0.11178 0,0 0,0 0,0 0,0 0,0 0,0 0.0439,0.0992 0.0901,0.24804 0.13852,0.44602 0,1e-5 0,1e-5 0,1e-5 0,0 0,0 0,0 0.0959,0.39243 0.20067,0.97782 0.31431,1.75191 0,0 0,0 0,0 0.22296,1.51881 0.48016,3.76383 0.77284,6.7026 0,0 0,0 0,0 0.56033,5.62611 1.24992,13.7942 2.08452,24.27492 0,0 0,0 0,0 1.48543,18.65369 3.40219,44.63372 6.03504,76.62093 0,0 0,0 0,0 0,1e-5 0,1e-5 0,2e-5 1.02248,12.4208 2.14048,25.74606 3.43912,39.88725 1.29864,14.1412 2.77753,29.09835 4.57322,44.77644 0,0 0,0 0,0 1.27307,11.11101 2.68423,22.56358 4.56035,34.26412 0,0 0,0 0,0 0.70042,4.36665 1.46189,8.74875 2.37249,13.12105 0,0 0,0 0,0 0.68423,3.2719 1.41546,6.4898 2.37455,9.5856 0,0 0,0 0,0 1.57003,5.1402 3.99526,10.2319 6.60268,15.4849 0,0 0,0 0,0 3.49586,7.0035 7.40419,13.9834 11.51761,21.0329 0,0 0,0 0,0 9.7278,16.6671 20.54138,33.5165 31.9656,50.7198 0,0 0,0 0,0 10.94028,16.4721 22.45458,33.2165 34.4959,50.1614 0,0 0,0 0,0 8.3496,11.7478 16.84131,23.6084 25.87906,35.2249 4.90302,6.2421 10.48152,11.9159 17.0656,15.7396 5.63546,3.34 12.18867,5.3095 18.91114,5.9179 0,0 0,0 0,0 7.65949,0.7158 15.65424,-0.2449 23.71709,-1.8115 4.53368,-0.8933 9.06154,-1.9974 13.59547,-3.2413 5.59083,-1.5339 11.14986,-3.2683 16.6996,-5.0613 12.43273,-3.9638 23.64914,-11.5001 34.043,-19.8895 13.00654,-10.5617 24.4975,-22.7297 35.2311,-35.2665 13.15615,-15.376 25.07627,-31.2769 36.18863,-47.2243 11.11236,-15.9473 21.41783,-31.9403 31.25327,-47.5819 5.96617,-9.4564 10.3443,-19.7918 14.23297,-30.1541 5.0148,-13.4087 8.9602,-26.85292 12.44076,-40.01287 4.50184,-17.02711 8.18727,-33.53645 11.39399,-49.34363 3.20673,-15.80719 5.93433,-30.9123 8.40786,-45.16437 3.09292,-17.82691 5.72551,-34.33335 8.0827,-49.31941 2.35719,-14.98607 4.43651,-28.45209 6.30195,-40.21974 2.16707,-13.67145 4.06473,-25.06388 5.7351,-33.88845 0.9604,-5.07411 1.84662,-9.30675 2.63667,-12.63981 0.71676,-3.02503 1.35341,-5.31962 1.86182,-6.83607 0.50842,-1.51645 0.87168,-2.26087 1.0252,-2.22125 0.15352,0.0396 0.0945,0.86041 -0.10901,2.43244 -0.20351,1.57202 -0.53382,3.89854 -0.95331,6.96523 -0.46081,3.37306 -1.02113,7.63152 -1.66448,12.73996 -1.11877,8.88442 -2.482,20.31661 -4.14475,34.06083 -1.4306,11.82694 -3.0938,25.35446 -5.05854,40.41673 -1.96475,15.06227 -4.22858,31.65974 -6.98209,49.60953 -2.19864,14.33877 -4.67376,29.55759 -7.65688,45.52209 -2.98311,15.96449 -6.47385,32.67485 -10.81645,49.96324 -3.3555,13.36327 -7.23258,27.11645 -12.25145,40.97135 -3.85359,10.6751 -8.39159,21.5841 -14.75482,31.9295 -9.73807,15.7946 -20.00855,31.9848 -31.16177,48.1859 -11.15323,16.2011 -23.19018,32.4124 -36.54832,48.1629 -10.89293,12.8518 -22.76895,25.4671 -36.40946,36.62 -10.82725,8.9036 -23.09757,17.04 -37.24205,21.6902 -5.61709,1.8264 -11.32207,3.6061 -17.13909,5.1975 -4.71736,1.2906 -9.48032,2.449 -14.2995,3.4041 -8.57176,1.7208 -17.51738,2.7225 -26.54779,1.9387 0,0 0,0 0,0 -8.09716,-0.723 -16.03833,-3.1572 -23.07008,-7.2949 -8.00171,-4.7866 -14.48849,-11.2943 -19.81704,-18.2456 -9.16275,-11.8526 -17.69367,-23.8573 -26.00566,-35.6679 0,0 0,0 0,0 -12.02347,-17.0811 -23.50209,-33.9775 -34.38807,-50.6132 0,0 0,0 0,0 -11.36006,-17.3578 -22.13493,-34.4569 -31.83355,-51.4364 0,0 0,0 0,0 -4.10099,-7.1779 -8.03031,-14.3708 -11.57384,-21.6569 0,0 0,0 0,0 -2.62675,-5.3721 -5.16781,-10.9399 -6.93603,-16.8627 0,0 0,0 0,0 -1.03472,-3.5117 -1.78895,-6.99 -2.44787,-10.3798 0,0 0,0 0,0 -0.891,-4.56308 -1.61834,-9.07891 -2.27164,-13.52852 0,0 0,0 0,0 -1.75082,-11.92017 -3.01362,-23.50626 -4.11984,-34.68812 0,0 0,0 0,0 -1.56224,-15.78447 -2.78865,-30.8219 -3.81819,-45.02562 -1.02954,-14.20372 -1.86181,-27.57381 -2.58425,-40.02945 0,-10e-6 0,-10e-6 0,-2e-5 0,0 0,0 0,0 -1.86149,-32.08687 -2.91646,-58.13861 -3.47488,-76.85367 0,0 0,0 0,0 -0.31377,-10.51539 -0.46199,-18.71603 -0.46459,-24.37226 0,-10e-6 0,-10e-6 0,-10e-6 -0.001,-2.95449 0.0372,-5.21499 0.1139,-6.74868 0,0 0,0 0,0 0.0391,-0.78167 0.0881,-1.37461 0.14676,-1.77443 0,0 0,0 0,0 0,0 0,0 0,-10e-6 0.0296,-0.20171 0.0617,-0.35429 0.0962,-0.45716 0,0 0,0 0,0 0,0 0,0 0,0 0.0173,-0.0517 0.0353,-0.0908 0.0539,-0.11731 0.0191,-0.0202 0.0387,-0.0308 0.0588,-0.0318 z"
         style="fill:#000000;fill-rule:evenodd;stroke:none;display:inline" />
      <path
         inkscape:connector-curvature="0"
         inkscape:original-d="m 690.1158,783.4491 c 0,0 11.3759,-22.7518 34.1277,-22.7518 22.7518,0 45.5036,56.8795 21.4878,70.7834 -24.0158,13.9039 -49.2956,48.0316 -48.0316,68.2554 1.264,20.2239 -39.1836,16.4319 -39.1836,16.4319"
         inkscape:path-effect="#path-effect3189-5"
         id="path3187-9"
         d="m 690.11581,783.44907 c -0.64777,-0.48599 1.82631,-5.05748 6.84452,-12.86132 0,0 0,0 0,0 2.60887,-3.01346 6.15433,-6.32499 10.99702,-9.06881 4.45469,-2.48116 10.01187,-4.30653 16.28615,-4.50787 3.64554,-0.0498 7.26001,0.95399 10.41817,2.71748 3.39324,1.86481 6.43797,4.38789 9.07658,7.24932 2.8202,3.03957 5.36527,6.4791 7.5827,10.23964 2.21743,3.76054 4.10708,7.842 5.63717,12.12138 2.82868,7.6721 4.66167,16.49371 3.64296,25.81328 -0.42293,3.89283 -1.52707,7.9343 -3.62828,11.74712 -2.02881,3.61667 -5.01627,6.73212 -8.73646,8.90829 -0.38775,0.22369 -0.77405,0.45172 -1.15892,0.68399 -5.73094,3.45859 -10.93586,7.72118 -15.75035,12.24594 -5.77976,5.45184 -10.87263,11.28294 -15.26697,17.23948 0,0 0,0 0,0 -4.43507,6.03422 -8.13941,12.10017 -10.7783,18.15283 0,0 0,10e-6 -10e-6,10e-6 0,0 0,0 0,0 -1.15529,2.73717 -2.15953,5.40604 -2.83269,7.97519 -0.67317,2.56916 -1.01541,5.03875 -0.91964,7.39172 0.1363,2.94306 -0.54026,5.88952 -1.96948,8.45859 0,0 0,0 0,0 -1.48248,2.51396 -3.46575,4.35476 -5.53562,5.6485 -2.66009,1.64855 -5.33833,2.66167 -7.87954,3.33703 -2.54121,0.67535 -4.94643,1.0121 -7.13491,1.20899 0,0 0,0 0,0 0,0 0,0 0,0 -2.98977,0.29737 -5.68558,0.34818 -8.05883,0.28424 -2.37325,-0.0639 -4.42449,-0.24365 -6.13665,-0.46065 0,0 0,0 0,0 -1.99777,-0.2521 -3.54251,-0.56252 -4.60045,-0.86915 0,0 0,0 0,0 -0.56066,-0.1625 -0.98629,-0.32467 -1.2707,-0.47987 0,0 0,0 0,0 0,0 0,0 0,0 -0.13804,-0.1712 -0.24513,-0.27374 -0.31743,-0.33879 0,0 0,0 0,0 0,0 0,0 0,0 -0.0344,-0.0558 -0.0615,-0.0852 -0.0801,-0.10066 -0.009,-0.008 -0.0167,-0.012 -0.0216,-0.0143 -0.008,-0.003 -0.008,-0.003 -0.008,-0.003 0,0 -1e-5,0 1.9e-4,-0.002 0.0134,-6e-4 0.0213,-0.003 0.0319,-0.009 0.021,-0.0119 0.0527,-0.0361 0.096,-0.0852 0,0 1e-5,0 1e-5,0 0,0 0,0 0,0 0.0812,-0.0519 0.20161,-0.13559 0.36354,-0.28368 0,0 0,0 0,0 0,0 0,0 0,0 0.30041,-0.11014 0.73525,-0.21089 1.30054,-0.30803 0,0 0,0 0,0 1.06657,-0.18331 2.59201,-0.35249 4.53774,-0.56384 0,0 0,0 0,0 1.6702,-0.18204 3.64741,-0.38969 5.88747,-0.69204 2.24007,-0.30235 4.74346,-0.69834 7.4449,-1.30553 0,0 0,0 0,0 0,0 0,0 0,0 1.99858,-0.46861 4.10933,-1.0098 6.17888,-1.7598 2.06955,-0.75 4.09866,-1.70771 5.84828,-3.09736 1.27966,-1.014 2.41314,-2.19703 2.99476,-3.5237 0,0 0,0 0,0 0.62938,-1.26136 0.82174,-2.89037 0.66962,-4.56196 -0.25056,-3.18822 -0.021,-6.43282 0.59504,-9.64951 0.61607,-3.21669 1.61889,-6.40536 2.84155,-9.46674 0,0 0,0 0,0 0,0 0,0 0,0 2.68171,-6.9214 6.5038,-13.77462 11.10452,-20.35932 0,0 0,0 0,0 4.55117,-6.53633 9.92071,-12.93565 16.09577,-18.90272 5.11199,-4.95673 10.86109,-9.69386 17.39559,-13.65747 0.43884,-0.26619 0.88012,-0.52819 1.32385,-0.78588 2.08965,-1.18743 3.86111,-3.04285 5.07362,-5.15854 1.35949,-2.30756 2.10097,-5.11636 2.50898,-8.03728 0.9948,-7.19119 -0.49065,-14.63304 -2.71648,-21.54682 -1.27834,-3.82492 -2.80901,-7.45348 -4.59169,-10.77925 -1.78269,-3.32578 -3.81744,-6.34875 -6.08573,-9.00586 -2.11607,-2.46154 -4.32781,-4.56309 -6.70846,-6.01762 -2.17279,-1.30121 -4.40152,-2.17507 -6.463,-2.22492 -4.98145,-0.20134 -9.65785,0.89976 -13.55881,2.59368 -4.19304,1.77109 -7.59868,4.23864 -10.32719,6.55907 0,0 0,0 0,0 -5.9084,6.76019 -9.59391,10.39878 -10.24169,9.91279 z"
         style="fill:#000000;fill-rule:evenodd;stroke:none;display:inline" />
      <path
         inkscape:connector-curvature="0"
         inkscape:original-d="m 238.8717,783.4491 c -5.0559,-2.5279 -31.5997,-30.3357 -48.0316,-18.9598 -16.4318,11.3759 -36.6557,64.4635 -13.9039,70.7834 22.7518,6.3199 46.7676,60.6715 50.5596,73.3113 3.792,12.64 35.3917,15.1679 35.3917,15.1679"
         inkscape:path-effect="#path-effect3193-1"
         id="path3191-7"
         d="m 238.8717,783.4491 c -0.0553,0.11052 -0.22142,0.16806 -0.49874,0.14663 -0.27731,-0.0214 -0.66547,-0.13046 -1.11596,-0.30883 0,0 0,0 0,0 -0.53309,-0.2109 -1.18469,-0.53467 -1.93074,-0.95294 -1.31958,-0.73943 -2.97262,-1.80148 -4.92805,-3.09077 -1.66215,-1.09539 -3.55684,-2.36581 -5.68701,-3.739 -2.13017,-1.37318 -4.49509,-2.85028 -7.12337,-4.30268 0,0 0,-10e-6 0,-10e-6 -2.02939,-1.10956 -4.19564,-2.23092 -6.4927,-3.1995 -2.29705,-0.96857 -4.72473,-1.78504 -7.28083,-2.20051 -1.98632,-0.32365 -4.00312,-0.43907 -5.86896,-0.0773 -1.70481,0.31145 -3.39628,1.01626 -4.80818,2.08313 -1.84432,1.33855 -3.52784,3.24252 -5.24765,5.41899 -1.97144,2.53794 -3.77073,5.39263 -5.47398,8.47161 -3.54065,6.42531 -6.52493,13.61287 -8.57073,21.36038 -1.63053,6.50331 -2.93393,13.15025 -1.74431,19.23921 0.45263,2.20248 1.07675,4.21975 2.19307,5.54765 0.58661,0.80523 1.44144,1.49079 2.41968,1.99445 0.49763,0.25622 1.02465,0.46407 1.5609,0.61652 3.96084,1.15216 7.34382,3.09039 10.18466,5.26933 0,0 0,0 0,0 3.48843,2.63029 6.47382,5.59781 9.11538,8.617 0,0 0,0 0,0 6.47852,7.38733 11.4807,15.29171 15.74776,22.88166 0,0 0,0 0,0 4.6285,8.20479 8.44102,16.22857 11.60981,23.77848 0,0 0,0 0,0 0,0 0,10e-6 1e-5,10e-6 0,0 0,0 0,0 1.38534,3.29874 2.65232,6.52693 3.77618,9.67064 0,0 0,0 0,0 0.81418,2.27105 1.59093,4.56623 2.20458,6.88576 0,10e-6 0,10e-6 0,10e-6 0.19349,0.99461 0.83614,2.01457 1.62424,2.96994 0,0 0,0 0,0 0.98124,1.16362 2.27579,2.14595 3.64379,3.04776 0,0 0,0 0,0 1.82414,1.19379 3.72734,2.13547 5.59738,2.93876 1.87004,0.80329 3.7073,1.4676 5.43759,2.06208 0,0 0,0 0,0 4.45997,1.51892 8.18164,2.47533 10.85505,3.23127 0,0 0,0 0,0 1.52212,0.43019 2.7055,0.78509 3.51919,1.09318 0,0 0,0 0,0 0.42807,0.16208 0.75273,0.31085 0.97072,0.44933 0,0 0,0 0,0 0,0 0,0 0,0 0.111,0.0708 0.19412,0.13888 0.24896,0.2046 0,0 0,0 0,1e-5 0.0229,0.0946 0.0421,0.14365 0.0557,0.16899 0,0 0,0 0,0 0.0135,0.0251 0.0216,0.0269 0.0223,0.027 0,0 0,0 0,0 0,0 0,0 0,0 0,0 0,0 0,0 0,0 0,0 0,0 0,0 0,0 0,0 0,0 0,0 0,0 0,0 0,0 0,0 0,0 0,0 0,0 0,0 0,0 0,0 0,0 0,0 0,0 4e-5,0 3e-5,0 3e-5,0 0,0 1e-5,0 -3e-5,0 0,0 0,0 0,0 0,0 0,0 0,0 0,0 0,0 0,0 0,0 0,0 0,0 0,0 0,0 0,0 0,0 0,0 0,0 0,0 0,0 0,0 0,0 0,0 0,0 0,0 0,0 0,0 0,0 0,0 0,0 -7.2e-4,-10e-6 -0.009,4.8e-4 -0.0265,0.023 0,0 0,0 0,0 -0.0176,0.0227 -0.0447,0.0679 -0.0829,0.15722 0,0 0,0 0,0 -0.0659,0.0553 -0.16154,0.10756 -0.28625,0.15641 0,0 0,0 0,0 0,0 0,0 0,0 -0.24282,0.0956 -0.59661,0.17821 -1.05633,0.24461 0,0 0,0 0,0 -0.87393,0.12623 -2.13517,0.19453 -3.75314,0.17279 0,0 0,0 0,0 -2.83996,-0.0375 -6.80201,-0.3206 -11.69705,-1.27452 0,0 0,0 0,0 -1.88738,-0.36179 -3.9351,-0.8275 -6.10653,-1.494 -2.17142,-0.66649 -4.46706,-1.53325 -6.81939,-2.74746 0,0 0,0 0,0 -1.7914,-0.9198 -3.65049,-2.12053 -5.38955,-3.79328 0,0 0,0 0,0 -1.4806,-1.41012 -2.78849,-3.26291 -3.5908,-5.58764 0,0 0,0 0,0 -0.66988,-1.95882 -1.52375,-3.99155 -2.45146,-6.154 0,0 0,0 0,0 -1.26327,-2.93206 -2.65978,-5.96094 -4.1682,-9.08672 0,0 0,0 0,0 0,0 0,0 0,0 0,0 0,0 0,0 -3.4552,-7.15613 -7.44832,-14.74347 -12.12951,-22.47561 -4.35704,-7.17333 -9.17082,-14.46837 -15.10148,-21.00246 0,0 0,0 0,0 -2.41603,-2.65472 -4.94183,-5.14496 -7.71642,-7.17792 0,0 0,0 0,0 -2.29107,-1.64212 -4.5926,-3.03017 -6.91375,-3.623 -1.21206,-0.33319 -2.38811,-0.79608 -3.50708,-1.38252 -2.19968,-1.15284 -4.15776,-2.77243 -5.7299,-4.78528 -2.32836,-3.16887 -3.56485,-6.6412 -4.06267,-9.92634 -1.33703,-8.49887 0.15848,-16.51054 2.24519,-23.49943 2.44098,-8.53782 5.96216,-16.3683 10.11263,-23.27426 1.9929,-3.3277 4.19234,-6.49292 6.63759,-9.37238 2.05619,-2.45507 4.44632,-4.79915 7.24902,-6.67778 2.59508,-1.70718 5.4738,-2.69811 8.3403,-3.02713 3.04101,-0.32575 5.88509,-0.001 8.43488,0.64847 3.19612,0.81882 6.02658,2.00976 8.56138,3.32927 2.53479,1.31951 4.77405,2.76831 6.77637,4.18712 1e-5,0 1e-5,0 1e-5,0 2.63513,1.84838 4.91313,3.68027 6.90255,5.38847 1.98942,1.7082 3.68965,3.29394 5.13234,4.70017 1.7061,1.66085 3.0387,3.0575 4.0433,4.15244 0.56916,0.61978 1.02049,1.1347 1.36808,1.55219 0,0 0,0 0,0 0.30682,0.362 0.50991,0.64229 0.64106,0.85948 0.13115,0.2172 0.18365,0.37678 0.12839,0.4873 z"
         style="fill:#000000;fill-rule:evenodd;stroke:none;display:inline" />
      <path
         sodipodi:nodetypes="csssc"
         inkscape:connector-curvature="0"
         inkscape:original-d="m 229.0682,762.157 c 0,0 -39.8521,-243.773 -13.5064,-305.2462 24.3116,-56.7272 78.3375,-156.675 262.0255,-159.3764 184.4998,-2.7133 262.0258,116.1557 256.6228,229.61 -5.402,113.4544 -37.818,253.9217 -37.818,253.9217"
         inkscape:path-effect="#path-effect4306"
         id="path4304"
         d="m 229.0682,762.157 c -0.01,0.002 -0.0207,-5.8e-4 -0.0319,-0.007 -0.0111,-0.006 -0.0227,-0.0156 -0.035,-0.0289 -0.0244,-0.0266 -0.0512,-0.0679 -0.0803,-0.12372 0,0 0,0 0,0 0,0 0,0 0,0 -0.058,-0.11128 -0.12521,-0.28052 -0.20139,-0.50706 0,0 0,0 0,0 -0.15102,-0.4491 -0.33731,-1.12356 -0.55686,-2.01839 0,0 0,0 0,0 -0.43092,-1.75641 -0.99014,-4.36248 -1.66134,-7.78125 0,0 0,0 0,0 -1.28625,-6.55162 -2.98645,-16.08974 -4.96385,-28.3594 0,0 0,0 0,0 -1.76544,-10.95422 -3.75956,-24.08664 -5.83631,-39.22234 -2.07675,-15.13571 -4.2368,-32.27482 -6.2764,-51.24444 0,0 0,0 0,0 -1.73061,-16.09531 -3.37652,-33.5142 -4.65628,-52.15658 0,0 0,0 0,0 -1.08844,-15.84835 -1.93371,-32.59679 -2.06443,-50.17139 0,0 0,0 0,0 -0.10662,-13.908 0.17537,-28.40224 1.79317,-43.32872 0,0 0,0 0,0 0.62884,-5.80786 1.48086,-11.71551 2.77736,-17.65697 0,0 0,0 0,0 1.02605,-4.73587 2.36434,-9.57178 4.36376,-14.3219 0,0 0,0 0,0 6.95664,-16.46146 15.12437,-33.16588 25.52074,-49.23414 0,0 0,0 0,0 12.39432,-19.14407 27.93232,-37.23516 46.65195,-52.68528 0,0 0,0 0,0 11.08218,-9.13298 23.20778,-17.28371 36.15423,-24.36845 12.94645,-7.08475 26.7135,-13.10347 41.02585,-17.9883 0,0 0,0 0,0 18.23457,-6.21877 37.27182,-10.70188 56.80374,-13.67988 19.53191,-2.978 39.55784,-4.45158 59.71888,-4.73809 2.18129,-0.0338 4.36678,-0.0508 6.55591,-0.0503 19.77334,0.004 39.4277,1.43668 58.54854,4.56484 19.12084,3.12815 37.70745,7.95239 55.40339,14.65984 15.91135,6.03737 31.0138,13.6785 44.88813,22.71564 13.87432,9.03714 26.52006,19.4701 37.61042,31.08357 10.70845,11.23218 19.89836,23.49004 27.56022,36.31083 7.66187,12.82079 13.79572,26.20421 18.43621,39.75256 4.95557,14.47499 8.24485,29.09771 10.11151,43.50015 1.86665,14.40243 2.3109,28.58457 1.57891,42.26242 0,10e-6 0,2e-5 0,4e-5 -0.85141,15.91386 -2.14744,31.21281 -3.68016,45.85555 -1.53272,14.64274 -3.30227,28.62929 -5.15086,41.92009 -4.3556,31.32377 -9.19097,58.81754 -13.63392,81.96186 0,10e-6 0,2e-5 0,2e-5 -4.96507,25.86464 -9.47422,46.3029 -12.86083,60.54226 -3.78045,15.36873 -6.02385,23.54399 -6.48821,23.45175 0,0 0,0 0,0 0,0 0,0 0,0 0,0 0,0 0,0 0,0 0,0 0,0 0,0 0,0 0,0 0,0 0,0 0,0 0,0 0,0 0,0 -9.4e-4,-2e-4 -9.4e-4,-2e-4 -9.4e-4,-2e-4 0,0 0,0 -9.3e-4,-2.1e-4 0,-10e-6 0,-10e-6 0,-10e-6 0,0 0,0 0,0 -10e-6,0 -10e-6,0 -10e-6,0 0,0 0,0 0,0 0,0 0,0 0,0 0,0 0,0 0,0 0,0 0,0 0,0 -0.45949,-0.11462 0.88973,-8.48919 3.81711,-24.02081 2.59675,-14.38465 6.34993,-34.92986 10.60643,-60.85022 0,0 0,-10e-6 10e-6,-2e-5 3.81,-23.20119 8.04981,-50.70457 11.85606,-81.95896 1.61496,-13.26474 3.15962,-27.20254 4.47721,-41.7657 1.3176,-14.56316 2.40828,-29.75167 3.0652,-45.51606 0,-10e-6 0,-2e-5 0,-4e-5 0.54903,-13.2215 -0.028,-26.90081 -1.96079,-40.75555 -1.93279,-13.85474 -5.22149,-27.8849 -10.09408,-41.72522 -4.55434,-12.94235 -10.52478,-25.71285 -17.93341,-37.92437 -7.40863,-12.21151 -16.25546,-23.86376 -26.52057,-34.5046 -10.61048,-11.01803 -22.73614,-20.91839 -36.05363,-29.50482 -13.31749,-8.58644 -27.82632,-15.85881 -43.1118,-21.62551 -17.02809,-6.43124 -34.98105,-11.04397 -53.51792,-14.03543 -18.53687,-2.99146 -37.65698,-4.36226 -56.95836,-4.38583 -2.13687,-0.003 -4.271,0.0112 -6.4018,0.0409 -19.77768,0.30084 -39.35214,1.71857 -58.37707,4.57641 -19.02492,2.85784 -37.49974,7.15653 -55.13242,13.13554 0,0 0,0 0,0 -13.81774,4.68169 -27.09804,10.42625 -39.57047,17.17618 -12.47244,6.74993 -24.13678,14.50521 -34.77511,23.19418 0,0 0,0 0,0 -17.98995,14.67055 -33.02502,31.95676 -45.10765,50.30156 0,0 0,0 0,0 -10.14124,15.38713 -18.21851,31.58381 -25.21288,47.67478 0,0 0,0 0,0 -1.76496,4.03342 -2.99099,8.36613 -4.01569,12.79308 0,0 0,0 0,0 -1.27196,5.53448 -2.13632,11.14533 -2.81011,16.75414 0,0 0,0 0,0 -1.73177,14.43039 -2.16892,28.6298 -2.24837,42.38987 0,0 0,0 0,0 -0.0964,17.36237 0.50457,33.98119 1.33437,49.75574 0.97635,18.55056 2.30213,35.92052 3.69779,51.99493 0,0 0,0 0,0 1.64509,18.94614 3.39,36.08702 5.03388,51.2427 1.64389,15.15567 3.18742,28.32621 4.48727,39.33058 0,0 0,0 0,0 1.45592,12.32534 2.61529,21.93077 3.34585,28.56102 0,0 0,0 0,0 0.38122,3.45982 0.64624,6.10888 0.77949,7.91104 0,0 0,0 0,0 0.0679,0.91813 0.10157,1.61629 0.0992,2.08976 0,0 0,0 0,0 -0.001,0.23883 -0.0116,0.42045 -0.0315,0.54427 0,0 0,0 0,0 0,0 0,10e-6 0,10e-6 -0.01,0.0622 -0.0223,0.10978 -0.037,0.14272 -0.007,0.0165 -0.0154,0.0293 -0.024,0.0385 -0.009,0.009 -0.0182,0.0148 -0.0282,0.0164 z"
         style="fill:#000000;fill-rule:evenodd;stroke:none" />
    </g>
  </g>
</svg>
