<?xml version="1.0" encoding="UTF-8" standalone="no"?>
<!-- Created with Inkscape (http://www.inkscape.org/) -->

<svg
   xmlns:dc="http://purl.org/dc/elements/1.1/"
   xmlns:cc="http://creativecommons.org/ns#"
   xmlns:rdf="http://www.w3.org/1999/02/22-rdf-syntax-ns#"
   xmlns:svg="http://www.w3.org/2000/svg"
   xmlns="http://www.w3.org/2000/svg"
   xmlns:sodipodi="http://sodipodi.sourceforge.net/DTD/sodipodi-0.dtd"
   xmlns:inkscape="http://www.inkscape.org/namespaces/inkscape"
   width="763.69"
   height="736.42328"
   id="svg4068"
   version="1.1"
   inkscape:version="0.48.3.1 r9886"
   sodipodi:docname="cara_8.svg">
  <defs
     id="defs4070">
    <inkscape:path-effect
       effect="skeletal"
       id="path-effect6574"
       is_visible="true"
       pattern="m -14069.21,-1265.6489 c 0,-2.76 2.24,-5 5,-5 2.76,0 5,2.24 5,5 0,2.76 -2.24,5 -5,5 -2.76,0 -5,-2.24 -5,-5 z"
       copytype="single_stretched"
       prop_scale="1"
       scale_y_rel="false"
       spacing="0"
       normal_offset="0"
       tang_offset="0"
       prop_units="false"
       vertical_pattern="false"
       fuse_tolerance="0" />
    <inkscape:path-effect
       effect="skeletal"
       id="path-effect5543"
       is_visible="true"
       pattern="m -13870.71,-1632.2205 c 0,-2.76 2.24,-5 5,-5 2.76,0 5,2.24 5,5 0,2.76 -2.24,5 -5,5 -2.76,0 -5,-2.24 -5,-5 z"
       copytype="single_stretched"
       prop_scale="1"
       scale_y_rel="false"
       spacing="0"
       normal_offset="0"
       tang_offset="0"
       prop_units="false"
       vertical_pattern="false"
       fuse_tolerance="0" />
    <inkscape:path-effect
       effect="skeletal"
       id="path-effect6549"
       is_visible="true"
       pattern="m -9698.7475,1895.3113 c 0,-2.76 2.24,-5 5,-5 2.76,0 5,2.24 5,5 0,2.76 -2.24,5 -5,5 -2.76,0 -5,-2.24 -5,-5 z"
       copytype="single_stretched"
       prop_scale="1"
       scale_y_rel="false"
       spacing="0"
       normal_offset="0"
       tang_offset="0"
       prop_units="false"
       vertical_pattern="false"
       fuse_tolerance="0" />
    <inkscape:path-effect
       effect="skeletal"
       id="path-effect3189-8-4-9-7-6-9-2-2-9-8"
       is_visible="true"
       pattern="m 6237.6376,1770.428 c 0,-2.76 2.24,-4.9999 5,-4.9999 2.76,0 5,2.2399 5,4.9999 0,2.76 -2.24,5 -5,5 -2.76,0 -5,-2.24 -5,-5 z"
       copytype="single_stretched"
       prop_scale="1"
       scale_y_rel="false"
       spacing="0"
       normal_offset="0"
       tang_offset="0"
       prop_units="false"
       vertical_pattern="false"
       fuse_tolerance="0" />
    <inkscape:path-effect
       effect="skeletal"
       id="path-effect3189-8-4-9-7-6-9-2-2-9-8-3"
       is_visible="true"
       pattern="m 6757.667,1749.1885 c 0,-2.76 2.24,-4.9999 5,-4.9999 2.76,0 5,2.2399 5,4.9999 0,2.76 -2.24,5 -5,5 -2.76,0 -5,-2.24 -5,-5 z"
       copytype="single_stretched"
       prop_scale="1"
       scale_y_rel="false"
       spacing="0"
       normal_offset="0"
       tang_offset="0"
       prop_units="false"
       vertical_pattern="false"
       fuse_tolerance="0" />
    <inkscape:path-effect
       effect="skeletal"
       id="path-effect3093-0"
       is_visible="true"
       pattern="m 7506.6858,594.57527 c 0,-2.76 2.24,-5 5,-5 2.76,0 5,2.24 5,5 0,2.76 -2.24,5 -5,5 -2.76,0 -5,-2.24 -5,-5 z"
       copytype="single_stretched"
       prop_scale="1"
       scale_y_rel="false"
       spacing="0"
       normal_offset="0"
       tang_offset="0"
       prop_units="false"
       vertical_pattern="false"
       fuse_tolerance="0" />
    <inkscape:path-effect
       effect="skeletal"
       id="path-effect3189-5"
       is_visible="true"
       pattern="m 7506.6858,594.57527 c 0,-2.76 2.24,-5 5,-5 2.76,0 5,2.24 5,5 0,2.76 -2.24,5 -5,5 -2.76,0 -5,-2.24 -5,-5 z"
       copytype="single_stretched"
       prop_scale="1"
       scale_y_rel="false"
       spacing="0"
       normal_offset="0"
       tang_offset="0"
       prop_units="false"
       vertical_pattern="false"
       fuse_tolerance="0" />
    <inkscape:path-effect
       effect="skeletal"
       id="path-effect3193-1"
       is_visible="true"
       pattern="m 7506.6858,594.57527 c 0,-2.76 2.24,-5 5,-5 2.76,0 5,2.24 5,5 0,2.76 -2.24,5 -5,5 -2.76,0 -5,-2.24 -5,-5 z"
       copytype="single_stretched"
       prop_scale="1"
       scale_y_rel="false"
       spacing="0"
       normal_offset="0"
       tang_offset="0"
       prop_units="false"
       vertical_pattern="false"
       fuse_tolerance="0" />
    <inkscape:path-effect
       effect="skeletal"
       id="path-effect4306"
       is_visible="true"
       pattern="M 0,5 C 0,2.24 2.24,0 5,0 7.76,0 10,2.24 10,5 10,7.76 7.76,10 5,10 2.24,10 0,7.76 0,5 z"
       copytype="single_stretched"
       prop_scale="1"
       scale_y_rel="false"
       spacing="0"
       normal_offset="0"
       tang_offset="0"
       prop_units="false"
       vertical_pattern="false"
       fuse_tolerance="0" />
    <inkscape:path-effect
       effect="skeletal"
       id="path-effect3093-0-8"
       is_visible="true"
       pattern="m 7506.6858,594.57527 c 0,-2.76 2.24,-5 5,-5 2.76,0 5,2.24 5,5 0,2.76 -2.24,5 -5,5 -2.76,0 -5,-2.24 -5,-5 z"
       copytype="single_stretched"
       prop_scale="1"
       scale_y_rel="false"
       spacing="0"
       normal_offset="0"
       tang_offset="0"
       prop_units="false"
       vertical_pattern="false"
       fuse_tolerance="0" />
    <inkscape:path-effect
       effect="skeletal"
       id="path-effect3189-5-8"
       is_visible="true"
       pattern="m 7506.6858,594.57527 c 0,-2.76 2.24,-5 5,-5 2.76,0 5,2.24 5,5 0,2.76 -2.24,5 -5,5 -2.76,0 -5,-2.24 -5,-5 z"
       copytype="single_stretched"
       prop_scale="1"
       scale_y_rel="false"
       spacing="0"
       normal_offset="0"
       tang_offset="0"
       prop_units="false"
       vertical_pattern="false"
       fuse_tolerance="0" />
    <inkscape:path-effect
       effect="skeletal"
       id="path-effect3193-1-3"
       is_visible="true"
       pattern="m 7506.6858,594.57527 c 0,-2.76 2.24,-5 5,-5 2.76,0 5,2.24 5,5 0,2.76 -2.24,5 -5,5 -2.76,0 -5,-2.24 -5,-5 z"
       copytype="single_stretched"
       prop_scale="1"
       scale_y_rel="false"
       spacing="0"
       normal_offset="0"
       tang_offset="0"
       prop_units="false"
       vertical_pattern="false"
       fuse_tolerance="0" />
    <inkscape:path-effect
       effect="skeletal"
       id="path-effect4306-2"
       is_visible="true"
       pattern="M 0,5 C 0,2.24 2.24,0 5,0 7.76,0 10,2.24 10,5 10,7.76 7.76,10 5,10 2.24,10 0,7.76 0,5 z"
       copytype="single_stretched"
       prop_scale="1"
       scale_y_rel="false"
       spacing="0"
       normal_offset="0"
       tang_offset="0"
       prop_units="false"
       vertical_pattern="false"
       fuse_tolerance="0" />
    <inkscape:path-effect
       effect="skeletal"
       id="path-effect4589-2"
       is_visible="true"
       pattern="m 3203.4625,-287.36459 c 0,-2.76 2.24,-5 5,-5 2.76,0 5,2.24 5,5 0,2.76 -2.24,5 -5,5 -2.76,0 -5,-2.24 -5,-5 z"
       copytype="single_stretched"
       prop_scale="1"
       scale_y_rel="false"
       spacing="0"
       normal_offset="0"
       tang_offset="0"
       prop_units="false"
       vertical_pattern="false"
       fuse_tolerance="0" />
    <inkscape:path-effect
       effect="skeletal"
       id="path-effect3189-8-4-9-6-1"
       is_visible="true"
       pattern="m 9041.8924,-261.70024 c 0,-2.76 2.24,-5 5,-5 2.76,0 5,2.24 5,5 0,2.76 -2.24,5 -5,5 -2.76,0 -5,-2.24 -5,-5 z"
       copytype="single_stretched"
       prop_scale="1"
       scale_y_rel="false"
       spacing="0"
       normal_offset="0"
       tang_offset="0"
       prop_units="false"
       vertical_pattern="false"
       fuse_tolerance="0" />
    <inkscape:path-effect
       effect="skeletal"
       id="path-effect3189-8-4-9-7-6-9"
       is_visible="true"
       pattern="m 7960.9,-231.74201 c 0,-2.76 2.24,-5 5,-5 2.76,0 5,2.24 5,5 0,2.76 -2.24,5 -5,5 -2.76,0 -5,-2.24 -5,-5 z"
       copytype="single_stretched"
       prop_scale="1"
       scale_y_rel="false"
       spacing="0"
       normal_offset="0"
       tang_offset="0"
       prop_units="false"
       vertical_pattern="false"
       fuse_tolerance="0" />
    <inkscape:path-effect
       effect="skeletal"
       id="path-effect6549-1"
       is_visible="true"
       pattern="m -9698.7475,1895.3113 c 0,-2.76 2.24,-5 5,-5 2.76,0 5,2.24 5,5 0,2.76 -2.24,5 -5,5 -2.76,0 -5,-2.24 -5,-5 z"
       copytype="single_stretched"
       prop_scale="1"
       scale_y_rel="false"
       spacing="0"
       normal_offset="0"
       tang_offset="0"
       prop_units="false"
       vertical_pattern="false"
       fuse_tolerance="0" />
    <inkscape:path-effect
       effect="skeletal"
       id="path-effect3189-8-4-9-7-6-9-2-2-9-8-5"
       is_visible="true"
       pattern="m 6237.6376,1770.428 c 0,-2.76 2.24,-4.9999 5,-4.9999 2.76,0 5,2.2399 5,4.9999 0,2.76 -2.24,5 -5,5 -2.76,0 -5,-2.24 -5,-5 z"
       copytype="single_stretched"
       prop_scale="1"
       scale_y_rel="false"
       spacing="0"
       normal_offset="0"
       tang_offset="0"
       prop_units="false"
       vertical_pattern="false"
       fuse_tolerance="0" />
    <inkscape:path-effect
       effect="skeletal"
       id="path-effect3189-8-4-9-7-6-9-2-2-9-8-3-4"
       is_visible="true"
       pattern="m 6757.667,1749.1885 c 0,-2.76 2.24,-4.9999 5,-4.9999 2.76,0 5,2.2399 5,4.9999 0,2.76 -2.24,5 -5,5 -2.76,0 -5,-2.24 -5,-5 z"
       copytype="single_stretched"
       prop_scale="1"
       scale_y_rel="false"
       spacing="0"
       normal_offset="0"
       tang_offset="0"
       prop_units="false"
       vertical_pattern="false"
       fuse_tolerance="0" />
    <inkscape:path-effect
       effect="skeletal"
       id="path-effect3189-8-4-9-6-1-2-2"
       is_visible="true"
       pattern="m 9466.4313,2392.7382 c 0,-2.76 2.24,-5 5,-5 2.76,0 5,2.24 5,5 0,2.76 -2.24,5 -5,5 -2.76,0 -5,-2.24 -5,-5 z"
       copytype="single_stretched"
       prop_scale="1"
       scale_y_rel="false"
       spacing="0"
       normal_offset="0"
       tang_offset="0"
       prop_units="false"
       vertical_pattern="false"
       fuse_tolerance="0" />
    <inkscape:path-effect
       effect="skeletal"
       id="path-effect3189-8-4-9-6-1-2-6-1"
       is_visible="true"
       pattern="m 8256.775,2407.6317 c 0,-2.76 2.24,-5 5,-5 2.76,0 5,2.24 5,5 0,2.76 -2.24,5 -5,5 -2.76,0 -5,-2.24 -5,-5 z"
       copytype="single_stretched"
       prop_scale="1"
       scale_y_rel="false"
       spacing="0"
       normal_offset="0"
       tang_offset="0"
       prop_units="false"
       vertical_pattern="false"
       fuse_tolerance="0" />
    <inkscape:path-effect
       effect="skeletal"
       id="path-effect4310"
       is_visible="true"
       pattern="M 0,5 C 0,2.24 2.24,0 5,0 7.76,0 10,2.24 10,5 10,7.76 7.76,10 5,10 2.24,10 0,7.76 0,5 z"
       copytype="single_stretched"
       prop_scale="1"
       scale_y_rel="false"
       spacing="0"
       normal_offset="0"
       tang_offset="0"
       prop_units="false"
       vertical_pattern="false"
       fuse_tolerance="0" />
    <inkscape:path-effect
       effect="skeletal"
       id="path-effect4314"
       is_visible="true"
       pattern="M 0,5 C 0,2.24 2.24,0 5,0 7.76,0 10,2.24 10,5 10,7.76 7.76,10 5,10 2.24,10 0,7.76 0,5 z"
       copytype="single_stretched"
       prop_scale="1"
       scale_y_rel="false"
       spacing="0"
       normal_offset="0"
       tang_offset="0"
       prop_units="false"
       vertical_pattern="false"
       fuse_tolerance="0" />
    <inkscape:path-effect
       effect="skeletal"
       id="path-effect5025-1"
       is_visible="true"
       pattern="m 1215.9352,2142.6341 c 0,-2.76 2.24,-5 5,-5 2.76,0 5,2.24 5,5 0,2.76 -2.24,5 -5,5 -2.76,0 -5,-2.24 -5,-5 z"
       copytype="single_stretched"
       prop_scale="1"
       scale_y_rel="false"
       spacing="0"
       normal_offset="0"
       tang_offset="0"
       prop_units="false"
       vertical_pattern="false"
       fuse_tolerance="0" />
    <inkscape:path-effect
       effect="skeletal"
       id="path-effect3189-8-4-9-6-1-2-4"
       is_visible="true"
       pattern="m 10700.692,2179.7965 c 0,-2.76 2.24,-5 5,-5 2.76,0 5,2.24 5,5 0,2.76 -2.24,5 -5,5 -2.76,0 -5,-2.24 -5,-5 z"
       copytype="single_stretched"
       prop_scale="1"
       scale_y_rel="false"
       spacing="0"
       normal_offset="0"
       tang_offset="0"
       prop_units="false"
       vertical_pattern="false"
       fuse_tolerance="0" />
    <inkscape:path-effect
       effect="skeletal"
       id="path-effect3189-8-4-9-6-1-2-6-5"
       is_visible="true"
       pattern="m 9593.9611,2130.9953 c 0,-2.76 2.24,-5 5,-5 2.76,0 5,2.24 5,5 0,2.76 -2.24,5 -5,5 -2.76,0 -5,-2.24 -5,-5 z"
       copytype="single_stretched"
       prop_scale="1"
       scale_y_rel="false"
       spacing="0"
       normal_offset="0"
       tang_offset="0"
       prop_units="false"
       vertical_pattern="false"
       fuse_tolerance="0" />
    <inkscape:path-effect
       effect="skeletal"
       id="path-effect4302"
       is_visible="true"
       pattern="M 0,5 C 0,2.24 2.24,0 5,0 7.76,0 10,2.24 10,5 10,7.76 7.76,10 5,10 2.24,10 0,7.76 0,5 z"
       copytype="single_stretched"
       prop_scale="1"
       scale_y_rel="false"
       spacing="0"
       normal_offset="0"
       tang_offset="0"
       prop_units="false"
       vertical_pattern="false"
       fuse_tolerance="0" />
    <inkscape:path-effect
       effect="skeletal"
       id="path-effect4589"
       is_visible="true"
       pattern="m -2311.2906,-1977.4929 c 0,-2.76 2.24,-5 5,-5 2.76,0 5,2.24 5,5 0,2.76 -2.24,5 -5,5 -2.76,0 -5,-2.24 -5,-5 z"
       copytype="single_stretched"
       prop_scale="1"
       scale_y_rel="false"
       spacing="0"
       normal_offset="0"
       tang_offset="0"
       prop_units="false"
       vertical_pattern="false"
       fuse_tolerance="0" />
    <inkscape:path-effect
       effect="skeletal"
       id="path-effect3189-8-4-9-6"
       is_visible="true"
       pattern="m 3656.2377,-2035.1028 c 0,-2.76 2.24,-5 5,-5 2.76,0 5,2.24 5,5 0,2.76 -2.24,5 -5,5 -2.76,0 -5,-2.24 -5,-5 z"
       copytype="single_stretched"
       prop_scale="1"
       scale_y_rel="false"
       spacing="0"
       normal_offset="0"
       tang_offset="0"
       prop_units="false"
       vertical_pattern="false"
       fuse_tolerance="0" />
    <inkscape:path-effect
       effect="skeletal"
       id="path-effect3189-8-4-9-7-6"
       is_visible="true"
       pattern="m 2332.3882,-2028.0017 c 0,-2.76 2.24,-5 5,-5 2.76,0 5,2.24 5,5 0,2.76 -2.24,5 -5,5 -2.76,0 -5,-2.24 -5,-5 z"
       copytype="single_stretched"
       prop_scale="1"
       scale_y_rel="false"
       spacing="0"
       normal_offset="0"
       tang_offset="0"
       prop_units="false"
       vertical_pattern="false"
       fuse_tolerance="0" />
  </defs>
  <sodipodi:namedview
     id="base"
     pagecolor="#ffffff"
     bordercolor="#666666"
     borderopacity="1.0"
     inkscape:pageopacity="0.0"
     inkscape:pageshadow="2"
     inkscape:zoom="0.12374369"
     inkscape:cx="155.17476"
     inkscape:cy="352.66118"
     inkscape:document-units="px"
     inkscape:current-layer="layer1"
     showgrid="false"
     fit-margin-top="0"
     fit-margin-left="0"
     fit-margin-right="0"
     fit-margin-bottom="0"
     inkscape:window-width="560"
     inkscape:window-height="451"
     inkscape:window-x="3"
     inkscape:window-y="47"
     inkscape:window-maximized="0" />
  <metadata
     id="metadata4073">
    <rdf:RDF>
      <cc:Work
         rdf:about="">
        <dc:format>image/svg+xml</dc:format>
        <dc:type
           rdf:resource="http://purl.org/dc/dcmitype/StillImage" />
        <dc:title />
      </cc:Work>
    </rdf:RDF>
  </metadata>
  <g
     inkscape:label="Capa 1"
     inkscape:groupmode="layer"
     id="layer1"
     transform="translate(-565.64593,-306.41332)">
    <g
       id="g7338">
      <path
         inkscape:connector-curvature="0"
         id="path4783"
         d="m 667.5071,403.88102 -36.3655,121.2184 -8.0812,38.3858 -12.1219,-16.1625 -38.3858,28.2843 -2.0203,26.2639 16.1625,26.264 -8.0812,44.4467 34.3451,24.2437 -10.1015,90.9137 18.1828,64.6498 70.7106,82.8325 94.9544,68.69038 115.1574,34.3451 155.5635,-26.2639 137.3807,-56.56858 80.8122,-82.8325 14.1421,-103.0355 -8.0812,-72.731 36.3655,-30.3046 c 0,0 -12.1218,-28.2843 -12.1218,-36.3655 0,-8.0812 20.203,-54.5482 20.203,-54.5482 l -32.3248,-28.2843 -20.2031,4.0406 -14.1421,26.264 -54.5483,-151.5229 -64.6497,-68.6904 -80.8122,-36.3655 -125.259,-14.1421 -117.1776,14.1421 -86.8732,36.3655 z"
         style="fill:#f3dfd3;fill-opacity:1;stroke:#000000;stroke-width:1px;stroke-linecap:butt;stroke-linejoin:miter;stroke-opacity:1;display:inline" />
      <path
         sodipodi:nodetypes="zsssssz"
         inkscape:connector-curvature="0"
         inkscape:original-d="m 945.865,309.26038 c -163.9581,-0.8364 -232.9447,55.05964 -268.9453,91.06024 -36.0005,36.0006 -74.1187,256.2391 -69.8834,381.1822 4.2354,124.9431 182.1205,260.47458 311.299,256.23928 129.1783,-4.2355 317.6518,-76.23658 357.8877,-171.53208 40.2359,-95.2956 -33.8828,-400.2414 -91.0602,-457.4187 -37.5552,-37.5553 -75.3397,-98.69454 -239.2978,-99.53094 z"
         inkscape:path-effect="#path-effect4589"
         id="path4587"
         d="m 945.865,309.26038 c -0.001,0.253 -4.28823,0.44443 -12.56622,0.78778 -4.13899,0.17168 -9.27642,0.38764 -15.37053,0.71906 -6.0941,0.33143 -13.14552,0.77771 -21.09869,1.4489 -7.95317,0.67118 -16.8088,1.56653 -26.48736,2.84523 -9.67856,1.27869 -20.18078,2.93993 -31.39218,5.20363 -11.2114,2.2637 -23.1327,5.12906 -35.60339,8.88877 -12.47068,3.7597 -25.49141,8.413 -38.84503,14.33698 -17.10135,7.57581 -34.65139,17.28512 -51.5955,29.80606 -11.53624,8.51977 -22.74759,18.40706 -33.62316,29.38707 -5.43936,5.40956 -9.11376,12.87269 -12.73127,20.67758 -5.03768,11.04425 -9.10564,22.90027 -12.86852,35.21034 -4.51321,14.78337 -8.45971,30.19022 -12.09416,46.09772 -3.95368,17.30873 -7.51131,35.19535 -10.75378,53.59732 -6.49792,36.88147 -11.79211,75.78527 -15.39956,116.42376 -1.63319,18.40215 -2.90806,37.15066 -3.6128,56.21297 -0.61336,16.61245 -0.81562,33.44731 -0.20534,50.44397 0.53717,15.31615 3.83754,30.73735 9.11717,45.65811 5.55836,15.69547 13.32359,30.83992 22.56774,45.2834 9.81886,15.34373 21.24738,29.87264 33.96214,43.54527 12.71475,13.67262 26.71554,26.48898 41.62234,38.41568 29.46717,23.54521 62.64464,43.67808 98.76345,58.20162 16.57414,6.6632 33.7523,12.1125 51.3995,15.7326 16.12721,3.3036 32.63553,5.1124 49.12163,4.5614 6.6061,-0.2155 13.22055,-0.5933 19.83951,-1.1223 28.47506,-2.2755 56.53768,-7.3 83.90911,-13.9148 37.1009,-8.978 72.9088,-21.0464 106.708,-36.08181 32.4831,-14.46742 63.2098,-31.54713 89.8617,-52.77422 11.9074,-9.4837 22.9549,-19.77293 32.4482,-31.13272 8.5812,-10.28159 15.9183,-21.40799 20.9595,-33.33604 0,-3e-5 0,-5e-5 0,-8e-5 2.6321,-6.18339 4.5186,-12.72711 6.0114,-19.39221 1.7566,-7.86916 2.9039,-15.87082 3.7042,-23.89897 1.949,-19.55046 1.8346,-39.07112 0.9035,-58.28755 -1.1205,-23.00545 -3.5419,-45.53365 -6.6442,-67.50904 -3.4542,-24.46053 -7.7868,-48.21653 -12.697,-71.21254 -5.1316,-24.02968 -10.8994,-47.21856 -17.2214,-69.48083 -6.1703,-21.72527 -12.8515,-42.55801 -20.208,-62.3285 -6.5413,-17.56955 -13.5379,-34.29391 -21.6262,-49.71822 -3.3724,-6.42988 -6.9186,-12.60817 -10.8112,-18.38587 -3.2162,-4.76255 -6.6028,-9.23998 -10.4285,-13.09588 -5.341,-5.39711 -10.3629,-10.85195 -15.291,-16.1512 -4.9282,-5.29925 -9.7624,-10.44309 -14.6826,-15.26253 -13.2377,-12.96745 -27.1623,-23.77453 -41.3197,-32.11354 -11.1889,-6.60064 -22.4517,-11.74832 -33.3826,-15.89197 -10.9309,-4.14364 -21.5318,-7.28217 -31.5373,-9.75633 0,0 0,-1e-5 0,-1e-5 -15.8043,-3.90726 -30.1212,-6.24025 -42.6094,-7.84121 -12.48815,-1.60097 -23.15221,-2.46053 -31.7858,-3.04656 -8.63358,-0.58603 -15.24075,-0.89096 -19.68361,-1.13687 -4.44285,-0.24591 -6.72403,-0.42884 -6.72309,-0.61342 9.4e-4,-0.18458 2.28384,-0.36627 6.73939,-0.47951 4.45555,-0.11324 11.08601,-0.16216 19.77007,0.0793 8.68406,0.24145 19.42556,0.76562 32.04474,2.04942 12.6191,1.28379 27.1205,3.31779 43.2017,6.95941 0,10e-6 0,10e-6 0,10e-6 10.1893,2.30696 21.0145,5.3041 32.2242,9.34942 11.2096,4.04532 22.8055,9.13777 34.3981,15.74735 14.679,8.38224 29.1255,19.28486 42.8213,32.40105 5.0927,4.87748 10.0556,10.03624 15.056,15.29453 5.0004,5.2583 10.038,10.6163 15.325,15.84726 4.2578,4.22758 7.9577,8.98868 11.346,13.92933 4.1263,6.00352 7.8629,12.36148 11.3727,18.9134 8.4146,15.70489 15.6892,32.65212 22.4315,50.34214 7.5983,19.92523 14.5037,40.90284 20.8716,62.74684 6.5274,22.38815 12.4904,45.71431 17.8031,69.88905 5.0847,23.1345 9.5837,47.06174 13.1949,71.73073 3.2445,22.15738 5.7979,44.94064 7.038,68.28714 1.0395,19.48105 1.2233,39.44379 -0.7014,59.64072 -0.7912,8.30302 -1.9672,16.67467 -3.7924,25.01447 -1.5397,7.05806 -3.5744,14.14656 -6.461,21.03381 0,3e-5 0,6e-5 0,8e-5 -5.4775,12.98455 -13.2631,24.93349 -22.3041,35.77801 -9.9796,11.98513 -21.4621,22.75909 -33.7457,32.57135 -27.4573,21.93306 -58.8641,39.51502 -91.8617,54.23474 -34.3472,15.33987 -70.7125,27.64497 -108.3688,36.77967 -27.76188,6.7433 -56.34086,11.8594 -85.46094,14.1868 -6.7689,0.541 -13.53962,0.9287 -20.30814,1.1517 -17.42998,0.561 -34.71657,-1.3212 -51.45991,-4.778 -18.32294,-3.7776 -36.06793,-9.413 -53.10305,-16.289 -37.09538,-14.9703 -71.06889,-35.64085 -101.15883,-59.7929 -15.23444,-12.21238 -29.55864,-25.38687 -42.59063,-39.48159 -13.03199,-14.09473 -24.77158,-29.10966 -34.89341,-44.99381 -9.53984,-14.97294 -17.57141,-30.79323 -23.36774,-47.29062 -5.51891,-15.6953 -8.93259,-32.0571 -9.47046,-48.45456 -0.55195,-17.2895 -0.27935,-34.34195 0.41511,-51.10537 0.79621,-19.24227 2.16924,-38.13595 3.90663,-56.65269 3.83505,-40.88109 9.38761,-79.99472 16.16712,-117.05033 3.38305,-18.49312 7.09325,-36.48556 11.20884,-53.90792 3.78016,-16.00586 7.89692,-31.55816 12.59829,-46.51765 3.9026,-12.43255 8.19204,-24.55303 13.51146,-35.96354 3.65236,-7.9566 7.88237,-16.06185 14.29392,-22.50324 11.18477,-11.08033 22.75922,-21.06839 34.68452,-29.67999 17.50653,-12.63455 35.54785,-22.33224 53.074,-29.81487 13.67678,-5.83071 26.96705,-10.36028 39.66501,-13.97383 12.69796,-3.61354 24.80431,-6.31032 36.16856,-8.38975 11.36426,-2.07942 21.98716,-3.5407 31.76277,-4.60907 9.77561,-1.06836 18.70468,-1.74302 26.71471,-2.18705 8.01003,-0.44403 15.10172,-0.65668 21.22512,-0.75057 6.12339,-0.0939 11.2791,-0.0684 15.42976,0.004 8.30131,0.14472 12.58538,0.45113 12.58409,0.70413 z"
         style="fill:#000000;fill-rule:evenodd;stroke:none" />
      <path
         inkscape:connector-curvature="0"
         inkscape:original-d="m 1262.0279,577.10402 c 0,0 -0.3805,-21.3053 16.5116,-30.1319 16.892,-8.8266 55.8505,24.5769 43.4141,44.2168 -12.4365,19.6398 -17.9657,54.7853 -9.1814,69.3101 8.7843,14.5248 -22.717,27.4011 -22.717,27.4011"
         inkscape:path-effect="#path-effect3189-8-4-9-6"
         id="path3187-7-6-0-3"
         d="m 1262.0279,577.10398 c -0.7993,-0.13078 -0.8579,-4.50722 -0.2624,-12.29119 0,0 0,0 0,0 0.7335,-3.29462 2.0596,-7.19425 4.6007,-11.20391 2.355,-3.64729 5.8087,-7.24306 10.4661,-9.90386 2.7975,-1.51801 5.9751,-2.21768 9.0922,-2.13738 3.331,0.0596 6.6462,0.75063 9.7679,1.86057 3.3271,1.16938 6.6034,2.74648 9.7563,4.69317 3.1528,1.94668 6.182,4.26294 9.0134,6.86979 5.1484,4.63063 10.0085,10.55528 12.946,18.02377 1.2317,3.12477 2.0001,6.65599 1.9225,10.43813 -0.1055,3.61089 -1.155,7.21928 -3.1529,10.41063 -0.1984,0.31195 -0.3941,0.62662 -0.5871,0.94391 -2.8744,4.72461 -5.0638,9.85403 -6.8777,15.03896 -2.1671,6.23807 -3.6876,12.49188 -4.6499,18.57151 -0.9606,6.15488 -1.3787,12.0346 -1.0194,17.48808 0,0 0,0 0,0 0.1968,2.45456 0.467,4.78833 0.9354,6.91253 0.4685,2.1242 1.1352,4.03901 2.0767,5.69456 1.2895,2.22407 1.9449,4.78686 1.8722,7.37266 -0.1454,2.56065 -0.9399,4.7759 -2.0209,6.58922 -1.391,2.30866 -3.0307,4.1282 -4.692,5.62781 -1.6612,1.49961 -3.345,2.6791 -4.9172,3.6619 0,0 0,0 0,0 -4.2897,2.74646 -8.0276,4.31164 -10.7742,5.26371 -3.3541,1.03894 -5.2433,1.35795 -5.4665,0.87591 0,0 0,0 0,0 0,0 0,0 0,0 0,0 0,0 0,-10e-6 0,0 0,0 0,0 0,0 0,0 0,0 0,0 0,0 0,0 0,0 0,0 0,0 -0,-0.004 -0,-0.004 -0,-0.004 0,0 0,0 -0,-0.004 0,0 0,0 0,0 0,0 0,0 0,0 0,0 0,0 0,0 0,0 0,0 0,0 0,0 0,0 0,0 0,0 0,0 0,0 0,0 0,-10e-6 0,-10e-6 -0.2033,-0.49135 1.2706,-1.74632 4.128,-3.61447 2.3033,-1.62073 5.498,-3.75578 8.9564,-6.76819 0,0 0,0 0,-10e-6 1.278,-1.13562 2.6062,-2.35987 3.8148,-3.70713 1.2086,-1.34726 2.2988,-2.81699 3.0027,-4.47446 0.5102,-1.19935 0.8563,-2.43805 0.7532,-3.5293 -0.031,-1.05647 -0.5049,-2.22748 -1.2197,-3.31741 -1.4654,-2.32415 -2.5909,-4.87366 -3.4099,-7.54533 -0.819,-2.67167 -1.3311,-5.46547 -1.6183,-8.23858 0,0 0,-10e-6 0,-10e-6 -0.7237,-6.24325 -0.5658,-12.87527 0.2867,-19.59475 0.8327,-6.66612 2.3353,-13.55168 4.6141,-20.42947 1.8776,-5.70556 4.3295,-11.50757 7.6822,-17.05192 0.2252,-0.37234 0.4538,-0.74257 0.686,-1.11059 1.0107,-1.55989 1.566,-3.48835 1.6431,-5.3909 0.1174,-2.10452 -0.4015,-4.37528 -1.1963,-6.63174 -1.973,-5.57105 -5.8861,-10.43377 -10.149,-14.6715 -4.7956,-4.6413 -10.0017,-8.28535 -15.3234,-10.45739 -2.4735,-0.9975 -4.8551,-1.70074 -7.0986,-1.86562 -2.0298,-0.12692 -3.919,0.0462 -5.3586,0.74223 -3.6983,1.70531 -6.7067,4.2514 -8.9355,6.9446 -2.4157,2.84674 -4.0086,5.93357 -5.1689,8.66928 0,10e-6 0,10e-6 0,10e-6 -1.8679,7.27108 -3.3151,11.38165 -4.1144,11.25087 z"
         style="fill:#000000;fill-rule:evenodd;stroke:none" />
      <path
         inkscape:connector-curvature="0"
         inkscape:original-d="m 632.9539,580.82582 c 0,0 0.3805,-21.3054 -16.5115,-30.132 -16.8921,-8.8266 -55.8506,24.5769 -43.4141,44.2168 12.4365,19.6399 17.9655,54.7852 9.1813,69.3101 -8.7843,14.5247 22.7171,27.4011 22.7171,27.4011"
         inkscape:path-effect="#path-effect3189-8-4-9-7-6"
         id="path3187-7-6-0-6-1"
         d="m 632.9539,580.82578 c -0.79927,0.13078 -2.24654,-3.97981 -4.11439,-11.25093 0,0 0,0 0,0 -1.16029,-2.73573 -2.75321,-5.82257 -5.16888,-8.66932 -2.22874,-2.69321 -5.23714,-5.2393 -8.93539,-6.94461 -1.4397,-0.69604 -3.32888,-0.86915 -5.35863,-0.74223 -2.24355,0.16488 -4.62521,0.86812 -7.09863,1.86563 -5.3217,2.17203 -10.52784,5.81608 -15.32343,10.45738 -4.26291,4.23772 -8.176,9.10045 -10.14896,14.67149 -0.79479,2.25646 -1.31372,4.52722 -1.19636,6.63173 0.0771,1.90255 0.63244,3.83102 1.64312,5.39092 0.23222,0.368 0.46088,0.73822 0.68603,1.11055 3.35267,5.54438 5.80462,11.34641 7.68222,17.052 2.2788,6.87778 3.78132,13.76333 4.61404,20.42944 0.85249,6.71948 1.01036,13.35148 0.28667,19.59472 0,0 0,0 -10e-6,10e-6 -0.28724,2.77311 -0.79938,5.56691 -1.61833,8.23858 -0.81895,2.67167 -1.9445,5.22118 -3.40991,7.54534 -0.71473,1.08992 -1.18919,2.26093 -1.21968,3.31739 -0.10307,1.09124 0.243,2.32993 0.75325,3.52928 0.70394,1.65747 1.79407,3.1272 3.00271,4.47446 1.20865,1.34726 2.53678,2.57152 3.8148,3.70714 0,0 10e-6,1e-5 10e-6,1e-5 3.45841,3.01242 6.65312,5.14748 8.95642,6.76821 2.85745,1.86816 4.3313,3.12314 4.12801,3.61449 0,0 0,10e-6 0,10e-6 0,0 0,0 0,0 0,0 0,0 0,0 0,0 0,0 0,0 0,0 0,0 0,0 0,0 0,0 0,0 0,0 0,0 0,0 -0.002,0.004 -0.002,0.004 -0.002,0.004 0,0 10e-6,1e-5 -0.002,0.004 0,0 -1e-5,0 -1e-5,0 0,0 0,0 0,0 0,0 0,0 0,0 0,0 0,0 0,0 0,10e-6 0,10e-6 0,10e-6 0,0 0,0 0,0 0,0 0,0 0,0 -0.22319,0.48204 -2.11242,0.16303 -5.46647,-0.87592 -2.74659,-0.95208 -6.48449,-2.51727 -10.77429,-5.26373 0,0 0,0 0,0 -1.57219,-0.98281 -3.25597,-2.1623 -4.91721,-3.6619 -1.66123,-1.49961 -3.30101,-3.31916 -4.69194,-5.62781 -1.081,-1.81332 -1.87555,-4.02856 -2.02096,-6.58922 -0.0727,-2.58578 0.58274,-5.14857 1.87224,-7.37262 0.94141,-1.65557 1.60815,-3.57039 2.07662,-5.6946 0.46846,-2.1242 0.73862,-4.45797 0.93541,-6.91253 0,0 0,0 0,-10e-6 0.35932,-5.45346 -0.0588,-11.33318 -1.01939,-17.48805 -0.96224,-6.07962 -2.48271,-12.33342 -4.64977,-18.57148 -1.81396,-5.18495 -4.00337,-10.31438 -6.87774,-15.03902 -0.19302,-0.31727 -0.38868,-0.63192 -0.58702,-0.94387 -1.99793,-3.19133 -3.04743,-6.79972 -3.15294,-10.41062 -0.0776,-3.78213 0.69074,-7.31336 1.92241,-10.43813 2.93747,-7.4685 7.79757,-13.39316 12.94598,-18.02378 2.83139,-2.60686 5.86061,-4.92311 9.01345,-6.8698 3.15285,-1.94668 6.42916,-3.52378 9.7563,-4.69316 3.12173,-1.10994 6.43688,-1.801 9.7679,-1.86057 3.11717,-0.0803 6.29473,0.61937 9.09221,2.13738 4.65746,2.66081 8.11107,6.25659 10.46609,9.90388 2.54108,4.00968 3.86721,7.90932 4.60066,11.20394 0,0 0,10e-6 0,10e-6 0.59548,7.784 0.53687,12.16045 -0.26241,12.29123 z"
         style="fill:#000000;fill-rule:evenodd;stroke:none" />
    </g>
  </g>
</svg>
