<?xml version="1.0" encoding="UTF-8" standalone="no"?>
<!-- Created with Inkscape (http://www.inkscape.org/) -->

<svg
   xmlns:dc="http://purl.org/dc/elements/1.1/"
   xmlns:cc="http://creativecommons.org/ns#"
   xmlns:rdf="http://www.w3.org/1999/02/22-rdf-syntax-ns#"
   xmlns:svg="http://www.w3.org/2000/svg"
   xmlns="http://www.w3.org/2000/svg"
   xmlns:sodipodi="http://sodipodi.sourceforge.net/DTD/sodipodi-0.dtd"
   xmlns:inkscape="http://www.inkscape.org/namespaces/inkscape"
   width="649.3313"
   height="819.92694"
   id="svg4068"
   version="1.1"
   inkscape:version="0.48.3.1 r9886"
   sodipodi:docname="cara_7.svg">
  <defs
     id="defs4070">
    <inkscape:path-effect
       effect="skeletal"
       id="path-effect6574"
       is_visible="true"
       pattern="m -14069.21,-1265.6489 c 0,-2.76 2.24,-5 5,-5 2.76,0 5,2.24 5,5 0,2.76 -2.24,5 -5,5 -2.76,0 -5,-2.24 -5,-5 z"
       copytype="single_stretched"
       prop_scale="1"
       scale_y_rel="false"
       spacing="0"
       normal_offset="0"
       tang_offset="0"
       prop_units="false"
       vertical_pattern="false"
       fuse_tolerance="0" />
    <inkscape:path-effect
       effect="skeletal"
       id="path-effect5543"
       is_visible="true"
       pattern="m -13870.71,-1632.2205 c 0,-2.76 2.24,-5 5,-5 2.76,0 5,2.24 5,5 0,2.76 -2.24,5 -5,5 -2.76,0 -5,-2.24 -5,-5 z"
       copytype="single_stretched"
       prop_scale="1"
       scale_y_rel="false"
       spacing="0"
       normal_offset="0"
       tang_offset="0"
       prop_units="false"
       vertical_pattern="false"
       fuse_tolerance="0" />
    <inkscape:path-effect
       effect="skeletal"
       id="path-effect6549"
       is_visible="true"
       pattern="m -9698.7475,1895.3113 c 0,-2.76 2.24,-5 5,-5 2.76,0 5,2.24 5,5 0,2.76 -2.24,5 -5,5 -2.76,0 -5,-2.24 -5,-5 z"
       copytype="single_stretched"
       prop_scale="1"
       scale_y_rel="false"
       spacing="0"
       normal_offset="0"
       tang_offset="0"
       prop_units="false"
       vertical_pattern="false"
       fuse_tolerance="0" />
    <inkscape:path-effect
       effect="skeletal"
       id="path-effect3189-8-4-9-7-6-9-2-2-9-8"
       is_visible="true"
       pattern="m 6237.6376,1770.428 c 0,-2.76 2.24,-4.9999 5,-4.9999 2.76,0 5,2.2399 5,4.9999 0,2.76 -2.24,5 -5,5 -2.76,0 -5,-2.24 -5,-5 z"
       copytype="single_stretched"
       prop_scale="1"
       scale_y_rel="false"
       spacing="0"
       normal_offset="0"
       tang_offset="0"
       prop_units="false"
       vertical_pattern="false"
       fuse_tolerance="0" />
    <inkscape:path-effect
       effect="skeletal"
       id="path-effect3189-8-4-9-7-6-9-2-2-9-8-3"
       is_visible="true"
       pattern="m 6757.667,1749.1885 c 0,-2.76 2.24,-4.9999 5,-4.9999 2.76,0 5,2.2399 5,4.9999 0,2.76 -2.24,5 -5,5 -2.76,0 -5,-2.24 -5,-5 z"
       copytype="single_stretched"
       prop_scale="1"
       scale_y_rel="false"
       spacing="0"
       normal_offset="0"
       tang_offset="0"
       prop_units="false"
       vertical_pattern="false"
       fuse_tolerance="0" />
    <inkscape:path-effect
       effect="skeletal"
       id="path-effect3093-0"
       is_visible="true"
       pattern="m 7506.6858,594.57527 c 0,-2.76 2.24,-5 5,-5 2.76,0 5,2.24 5,5 0,2.76 -2.24,5 -5,5 -2.76,0 -5,-2.24 -5,-5 z"
       copytype="single_stretched"
       prop_scale="1"
       scale_y_rel="false"
       spacing="0"
       normal_offset="0"
       tang_offset="0"
       prop_units="false"
       vertical_pattern="false"
       fuse_tolerance="0" />
    <inkscape:path-effect
       effect="skeletal"
       id="path-effect3189-5"
       is_visible="true"
       pattern="m 7506.6858,594.57527 c 0,-2.76 2.24,-5 5,-5 2.76,0 5,2.24 5,5 0,2.76 -2.24,5 -5,5 -2.76,0 -5,-2.24 -5,-5 z"
       copytype="single_stretched"
       prop_scale="1"
       scale_y_rel="false"
       spacing="0"
       normal_offset="0"
       tang_offset="0"
       prop_units="false"
       vertical_pattern="false"
       fuse_tolerance="0" />
    <inkscape:path-effect
       effect="skeletal"
       id="path-effect3193-1"
       is_visible="true"
       pattern="m 7506.6858,594.57527 c 0,-2.76 2.24,-5 5,-5 2.76,0 5,2.24 5,5 0,2.76 -2.24,5 -5,5 -2.76,0 -5,-2.24 -5,-5 z"
       copytype="single_stretched"
       prop_scale="1"
       scale_y_rel="false"
       spacing="0"
       normal_offset="0"
       tang_offset="0"
       prop_units="false"
       vertical_pattern="false"
       fuse_tolerance="0" />
    <inkscape:path-effect
       effect="skeletal"
       id="path-effect4306"
       is_visible="true"
       pattern="M 0,5 C 0,2.24 2.24,0 5,0 7.76,0 10,2.24 10,5 10,7.76 7.76,10 5,10 2.24,10 0,7.76 0,5 z"
       copytype="single_stretched"
       prop_scale="1"
       scale_y_rel="false"
       spacing="0"
       normal_offset="0"
       tang_offset="0"
       prop_units="false"
       vertical_pattern="false"
       fuse_tolerance="0" />
    <inkscape:path-effect
       effect="skeletal"
       id="path-effect3093-0-8"
       is_visible="true"
       pattern="m 7506.6858,594.57527 c 0,-2.76 2.24,-5 5,-5 2.76,0 5,2.24 5,5 0,2.76 -2.24,5 -5,5 -2.76,0 -5,-2.24 -5,-5 z"
       copytype="single_stretched"
       prop_scale="1"
       scale_y_rel="false"
       spacing="0"
       normal_offset="0"
       tang_offset="0"
       prop_units="false"
       vertical_pattern="false"
       fuse_tolerance="0" />
    <inkscape:path-effect
       effect="skeletal"
       id="path-effect3189-5-8"
       is_visible="true"
       pattern="m 7506.6858,594.57527 c 0,-2.76 2.24,-5 5,-5 2.76,0 5,2.24 5,5 0,2.76 -2.24,5 -5,5 -2.76,0 -5,-2.24 -5,-5 z"
       copytype="single_stretched"
       prop_scale="1"
       scale_y_rel="false"
       spacing="0"
       normal_offset="0"
       tang_offset="0"
       prop_units="false"
       vertical_pattern="false"
       fuse_tolerance="0" />
    <inkscape:path-effect
       effect="skeletal"
       id="path-effect3193-1-3"
       is_visible="true"
       pattern="m 7506.6858,594.57527 c 0,-2.76 2.24,-5 5,-5 2.76,0 5,2.24 5,5 0,2.76 -2.24,5 -5,5 -2.76,0 -5,-2.24 -5,-5 z"
       copytype="single_stretched"
       prop_scale="1"
       scale_y_rel="false"
       spacing="0"
       normal_offset="0"
       tang_offset="0"
       prop_units="false"
       vertical_pattern="false"
       fuse_tolerance="0" />
    <inkscape:path-effect
       effect="skeletal"
       id="path-effect4306-2"
       is_visible="true"
       pattern="M 0,5 C 0,2.24 2.24,0 5,0 7.76,0 10,2.24 10,5 10,7.76 7.76,10 5,10 2.24,10 0,7.76 0,5 z"
       copytype="single_stretched"
       prop_scale="1"
       scale_y_rel="false"
       spacing="0"
       normal_offset="0"
       tang_offset="0"
       prop_units="false"
       vertical_pattern="false"
       fuse_tolerance="0" />
    <inkscape:path-effect
       effect="skeletal"
       id="path-effect4589-2"
       is_visible="true"
       pattern="m 3203.4625,-287.36459 c 0,-2.76 2.24,-5 5,-5 2.76,0 5,2.24 5,5 0,2.76 -2.24,5 -5,5 -2.76,0 -5,-2.24 -5,-5 z"
       copytype="single_stretched"
       prop_scale="1"
       scale_y_rel="false"
       spacing="0"
       normal_offset="0"
       tang_offset="0"
       prop_units="false"
       vertical_pattern="false"
       fuse_tolerance="0" />
    <inkscape:path-effect
       effect="skeletal"
       id="path-effect3189-8-4-9-6-1"
       is_visible="true"
       pattern="m 9041.8924,-261.70024 c 0,-2.76 2.24,-5 5,-5 2.76,0 5,2.24 5,5 0,2.76 -2.24,5 -5,5 -2.76,0 -5,-2.24 -5,-5 z"
       copytype="single_stretched"
       prop_scale="1"
       scale_y_rel="false"
       spacing="0"
       normal_offset="0"
       tang_offset="0"
       prop_units="false"
       vertical_pattern="false"
       fuse_tolerance="0" />
    <inkscape:path-effect
       effect="skeletal"
       id="path-effect3189-8-4-9-7-6-9"
       is_visible="true"
       pattern="m 7960.9,-231.74201 c 0,-2.76 2.24,-5 5,-5 2.76,0 5,2.24 5,5 0,2.76 -2.24,5 -5,5 -2.76,0 -5,-2.24 -5,-5 z"
       copytype="single_stretched"
       prop_scale="1"
       scale_y_rel="false"
       spacing="0"
       normal_offset="0"
       tang_offset="0"
       prop_units="false"
       vertical_pattern="false"
       fuse_tolerance="0" />
    <inkscape:path-effect
       effect="skeletal"
       id="path-effect6549-1"
       is_visible="true"
       pattern="m -9698.7475,1895.3113 c 0,-2.76 2.24,-5 5,-5 2.76,0 5,2.24 5,5 0,2.76 -2.24,5 -5,5 -2.76,0 -5,-2.24 -5,-5 z"
       copytype="single_stretched"
       prop_scale="1"
       scale_y_rel="false"
       spacing="0"
       normal_offset="0"
       tang_offset="0"
       prop_units="false"
       vertical_pattern="false"
       fuse_tolerance="0" />
    <inkscape:path-effect
       effect="skeletal"
       id="path-effect3189-8-4-9-7-6-9-2-2-9-8-5"
       is_visible="true"
       pattern="m 6237.6376,1770.428 c 0,-2.76 2.24,-4.9999 5,-4.9999 2.76,0 5,2.2399 5,4.9999 0,2.76 -2.24,5 -5,5 -2.76,0 -5,-2.24 -5,-5 z"
       copytype="single_stretched"
       prop_scale="1"
       scale_y_rel="false"
       spacing="0"
       normal_offset="0"
       tang_offset="0"
       prop_units="false"
       vertical_pattern="false"
       fuse_tolerance="0" />
    <inkscape:path-effect
       effect="skeletal"
       id="path-effect3189-8-4-9-7-6-9-2-2-9-8-3-4"
       is_visible="true"
       pattern="m 6757.667,1749.1885 c 0,-2.76 2.24,-4.9999 5,-4.9999 2.76,0 5,2.2399 5,4.9999 0,2.76 -2.24,5 -5,5 -2.76,0 -5,-2.24 -5,-5 z"
       copytype="single_stretched"
       prop_scale="1"
       scale_y_rel="false"
       spacing="0"
       normal_offset="0"
       tang_offset="0"
       prop_units="false"
       vertical_pattern="false"
       fuse_tolerance="0" />
    <inkscape:path-effect
       effect="skeletal"
       id="path-effect3189-8-4-9-6-1-2-2"
       is_visible="true"
       pattern="m 9466.4313,2392.7382 c 0,-2.76 2.24,-5 5,-5 2.76,0 5,2.24 5,5 0,2.76 -2.24,5 -5,5 -2.76,0 -5,-2.24 -5,-5 z"
       copytype="single_stretched"
       prop_scale="1"
       scale_y_rel="false"
       spacing="0"
       normal_offset="0"
       tang_offset="0"
       prop_units="false"
       vertical_pattern="false"
       fuse_tolerance="0" />
    <inkscape:path-effect
       effect="skeletal"
       id="path-effect3189-8-4-9-6-1-2-6-1"
       is_visible="true"
       pattern="m 8256.775,2407.6317 c 0,-2.76 2.24,-5 5,-5 2.76,0 5,2.24 5,5 0,2.76 -2.24,5 -5,5 -2.76,0 -5,-2.24 -5,-5 z"
       copytype="single_stretched"
       prop_scale="1"
       scale_y_rel="false"
       spacing="0"
       normal_offset="0"
       tang_offset="0"
       prop_units="false"
       vertical_pattern="false"
       fuse_tolerance="0" />
    <inkscape:path-effect
       effect="skeletal"
       id="path-effect4310"
       is_visible="true"
       pattern="M 0,5 C 0,2.24 2.24,0 5,0 7.76,0 10,2.24 10,5 10,7.76 7.76,10 5,10 2.24,10 0,7.76 0,5 z"
       copytype="single_stretched"
       prop_scale="1"
       scale_y_rel="false"
       spacing="0"
       normal_offset="0"
       tang_offset="0"
       prop_units="false"
       vertical_pattern="false"
       fuse_tolerance="0" />
    <inkscape:path-effect
       effect="skeletal"
       id="path-effect4314"
       is_visible="true"
       pattern="M 0,5 C 0,2.24 2.24,0 5,0 7.76,0 10,2.24 10,5 10,7.76 7.76,10 5,10 2.24,10 0,7.76 0,5 z"
       copytype="single_stretched"
       prop_scale="1"
       scale_y_rel="false"
       spacing="0"
       normal_offset="0"
       tang_offset="0"
       prop_units="false"
       vertical_pattern="false"
       fuse_tolerance="0" />
    <inkscape:path-effect
       effect="skeletal"
       id="path-effect5025-1"
       is_visible="true"
       pattern="m -5807.7004,-1246.0674 c 0,-2.76 2.24,-5 5,-5 2.76,0 5,2.24 5,5 0,2.76 -2.24,5 -5,5 -2.76,0 -5,-2.24 -5,-5 z"
       copytype="single_stretched"
       prop_scale="1"
       scale_y_rel="false"
       spacing="0"
       normal_offset="0"
       tang_offset="0"
       prop_units="false"
       vertical_pattern="false"
       fuse_tolerance="0" />
    <inkscape:path-effect
       effect="skeletal"
       id="path-effect3189-8-4-9-6-1-2-4"
       is_visible="true"
       pattern="m 3677.0564,-1208.905 c 0,-2.76 2.24,-5 5,-5 2.76,0 5,2.24 5,5 0,2.76 -2.24,5 -5,5 -2.76,0 -5,-2.24 -5,-5 z"
       copytype="single_stretched"
       prop_scale="1"
       scale_y_rel="false"
       spacing="0"
       normal_offset="0"
       tang_offset="0"
       prop_units="false"
       vertical_pattern="false"
       fuse_tolerance="0" />
    <inkscape:path-effect
       effect="skeletal"
       id="path-effect3189-8-4-9-6-1-2-6-5"
       is_visible="true"
       pattern="m 2570.3255,-1257.7062 c 0,-2.76 2.24,-5 5,-5 2.76,0 5,2.24 5,5 0,2.76 -2.24,5 -5,5 -2.76,0 -5,-2.24 -5,-5 z"
       copytype="single_stretched"
       prop_scale="1"
       scale_y_rel="false"
       spacing="0"
       normal_offset="0"
       tang_offset="0"
       prop_units="false"
       vertical_pattern="false"
       fuse_tolerance="0" />
    <inkscape:path-effect
       effect="skeletal"
       id="path-effect4302"
       is_visible="true"
       pattern="m -9662.0388,-3600.706 c 0,-2.76 2.24,-5 5,-5 2.76,0 5,2.24 5,5 0,2.76 -2.24,5 -5,5 -2.76,0 -5,-2.24 -5,-5 z"
       copytype="single_stretched"
       prop_scale="1"
       scale_y_rel="false"
       spacing="0"
       normal_offset="0"
       tang_offset="0"
       prop_units="false"
       vertical_pattern="false"
       fuse_tolerance="0" />
  </defs>
  <sodipodi:namedview
     id="base"
     pagecolor="#ffffff"
     bordercolor="#666666"
     borderopacity="1.0"
     inkscape:pageopacity="0.0"
     inkscape:pageshadow="2"
     inkscape:zoom="0.12374369"
     inkscape:cx="-248.23302"
     inkscape:cy="428.87034"
     inkscape:document-units="px"
     inkscape:current-layer="layer1"
     showgrid="false"
     fit-margin-top="0"
     fit-margin-left="0"
     fit-margin-right="0"
     fit-margin-bottom="0"
     inkscape:window-width="715"
     inkscape:window-height="451"
     inkscape:window-x="3"
     inkscape:window-y="47"
     inkscape:window-maximized="0" />
  <metadata
     id="metadata4073">
    <rdf:RDF>
      <cc:Work
         rdf:about="">
        <dc:format>image/svg+xml</dc:format>
        <dc:type
           rdf:resource="http://purl.org/dc/dcmitype/StillImage" />
        <dc:title />
      </cc:Work>
    </rdf:RDF>
  </metadata>
  <g
     inkscape:label="Capa 1"
     inkscape:groupmode="layer"
     id="layer1"
     transform="translate(-559.5924,-234.51193)">
    <g
       id="g7088">
      <path
         sodipodi:nodetypes="cccccccccccccccscccccccccczc"
         inkscape:connector-curvature="0"
         id="path4799-6"
         d="m 616.093,405.0867 8.1492,189.5902 6.0609,54.5482 -46.467,-54.5482 -24.2437,36.3655 10.1015,38.3858 26.264,38.3858 10.1015,46.467 30.3046,28.2843 -8.0812,50.5076 8.0812,70.7107 26.264,36.3655 157.5838,90.9137 48.4873,18.1828 92.934,-38.3858 c 0,0 96.9747,-50.5077 107.0762,-54.5483 10.1015,-4.0406 58.5888,-42.4264 58.5888,-42.4264 l 14.1422,-96.9746 -5.4026,-47.1934 30.9855,-6.7759 4.0406,-40.4061 28.2843,-36.3655 6.0609,-24.2436 -16.832,-64.0255 -63.3672,3.3257 2.2243,-231.9827 c 0,0 -4.3136,-137.3727 -257.0784,-131.9781 C 617.5908,242.6599 616.093,405.0867 616.093,405.0867 z"
         style="fill:#ffe9db;fill-opacity:1;stroke:none;display:inline" />
      <path
         sodipodi:nodetypes="czszc"
         inkscape:connector-curvature="0"
         inkscape:original-d="m 635.7843,684.1747 c 0,0 -20.6017,186.3644 12.7043,240.3467 33.3054,53.9821 192.7185,115.9983 214.7274,124.3829 22.0095,8.3846 217.565,-83.8001 255.4014,-131.329 37.8365,-47.5289 19.9615,-225.2532 19.9615,-225.2532"
         inkscape:path-effect="#path-effect5025-1"
         id="path5023-7"
         d="m 635.7843,684.1747 c 0.59434,0.0535 0.21188,10.68236 -1.00571,30.11908 -0.42103,8.48189 -0.9064,18.64349 -1.31955,30.33946 -0.41315,11.69596 -0.75465,24.92652 -0.8304,39.54082 -0.0651,12.52189 0.0631,26.05554 0.65917,40.48141 0.51454,12.43585 1.35471,25.52724 2.96543,39.12732 1.31704,11.08843 3.08028,22.49723 6.08965,33.90192 2.29258,8.58198 5.07683,17.15751 9.77949,24.59474 4.39352,7.07509 10.4981,13.39696 17.22258,19.46417 7.96379,7.14815 16.83847,13.70675 26.22172,20.01347 20.34049,13.66434 42.88848,25.93126 66.68238,37.71816 20.70562,10.25105 42.36256,20.04335 64.74821,29.46805 12.4581,5.2443 25.11689,10.3868 37.99815,15.2901 0.10719,0.083 0.50353,0.1023 1.12581,0.1796 0.80621,0.064 1.7268,0.018 2.74929,-0.061 2.0166,-0.1639 4.08918,-0.526 6.22238,-0.983 0.8889,-0.1904 1.78716,-0.397 2.69505,-0.6121 9.31777,-2.2323 18.44856,-5.448 27.55656,-8.8274 12.38788,-4.6066 24.4924,-9.6627 36.3785,-14.8898 14.04642,-6.1783 27.74613,-12.6122 41.09829,-19.19084 28.7136,-14.15099 55.8119,-28.8345 80.5877,-44.36822 11.1435,-6.98911 21.7815,-14.11223 31.5886,-21.70289 4.1515,-3.21374 8.1329,-6.49102 11.8473,-9.91937 3.1037,-2.87116 6.0044,-5.78845 8.4994,-8.88858 5.1773,-6.33069 8.4716,-14.1222 11.1961,-21.98083 3.556,-10.38926 5.7574,-20.94199 7.4643,-31.23077 2.0939,-12.66019 3.3252,-24.90021 4.1848,-36.5422 1,-13.55981 1.4608,-26.29868 1.6849,-38.09157 0.2627,-13.8376 0.1962,-26.36604 0.012,-37.4412 -0.1839,-11.07516 -0.4861,-20.69734 -0.7607,-28.7312 -0.3072,-8.98839 -0.5904,-15.98686 -0.7249,-20.81496 -0.1726,-5.10018 -0.1197,-7.78075 0.1769,-7.81477 0,0 0,0 0,0 0,0 0,0 0,0 10e-4,-10e-5 10e-4,-10e-5 10e-4,-10e-5 0,0 0,0 10e-4,-9e-5 0,0 0,0 0,0 0,0 0,0 0,0 0.2977,-0.0226 0.827,2.60289 1.5668,7.66347 0.6713,4.79264 1.4778,11.77251 2.2906,20.76014 0.7261,8.02875 1.4659,17.66201 2.07,28.77337 0.6041,11.11137 1.0734,23.70116 1.1918,37.6356 0.1011,11.87712 -0.052,24.73987 -0.7685,38.48501 -0.6136,11.79628 -1.6262,24.26708 -3.54,37.27184 -1.5476,10.55225 -3.6691,21.54149 -7.2561,32.60588 -2.6707,8.34544 -6.28,16.99889 -12.244,24.66358 -2.8184,3.57444 -5.9643,6.8382 -9.224,9.91047 -3.909,3.69181 -8.0433,7.1812 -12.2988,10.54745 -10.042,7.94492 -20.8564,15.35312 -32.0892,22.53224 -24.9744,15.9672 -52.2728,31.00807 -81.13658,45.39494 -13.43473,6.6981 -27.24153,13.2454 -41.42023,19.5297 -11.98898,5.3147 -24.26341,10.469 -36.8922,15.1852 -9.21903,3.4503 -18.72807,6.789 -28.70238,9.1983 -0.9646,0.2354 -1.94587,0.4632 -2.94417,0.6758 -2.39576,0.5103 -4.88214,0.9314 -7.46216,1.1598 -1.3189,0.1203 -2.75231,0.1697 -4.28658,0.072 -1.1203,-0.043 -2.47455,-0.2736 -3.99762,-0.8121 -13.01799,-4.9633 -25.77934,-10.1664 -38.30702,-15.4715 -22.52525,-9.5377 -44.33747,-19.4958 -65.20161,-29.9551 -11.97464,-5.9995 -23.68094,-12.15148 -34.97473,-18.58304 -11.29379,-6.43156 -22.17493,-13.14287 -32.52896,-20.22096 -9.55839,-6.53093 -18.7082,-13.44406 -27.01972,-21.04653 -7.01492,-6.38507 -13.57576,-13.42681 -18.54972,-21.53471 -5.26032,-8.71075 -8.23726,-18.0722 -10.43583,-27.05226 -2.97428,-11.9936 -4.62223,-23.78051 -5.76559,-35.09361 -1.40911,-13.8949 -2.01672,-27.18269 -2.27563,-39.74825 -0.30128,-14.5812 -0.11283,-28.21671 0.28647,-40.80548 0.46633,-14.69864 1.22032,-27.9799 2.06404,-39.7018 0.84373,-11.7219 1.77776,-21.88471 2.66226,-30.35121 2.27661,-19.36254 3.79942,-29.88957 4.39376,-29.83605 z"
         style="fill:#000000;fill-rule:evenodd;stroke:none;display:inline" />
      <path
         sodipodi:nodetypes="cccsc"
         inkscape:connector-curvature="0"
         inkscape:original-d="m 1141.7977,619.2234 c 0,0 18.8182,-23.114 34.6961,-27.2535 15.8785,-4.1394 38.3273,57.8382 21.5223,76.7189 -16.8056,18.8805 -34.5581,59.0983 -33.7408,79.9755 0.8173,20.8772 -27.3991,24.2786 -27.3991,24.2786"
         inkscape:path-effect="#path-effect3189-8-4-9-6-1-2-4"
         id="path3187-7-6-0-3-8-1-76"
         d="m 1141.7977,619.22338 c -0.6435,-0.60727 2.8971,-5.56995 9.6832,-13.80937 2.8905,-3.11269 6.4785,-6.64039 11.0679,-10.10832 1.7303,-1.32197 3.6453,-2.65112 5.7938,-3.86302 2.1485,-1.21189 4.5306,-2.30678 7.2026,-3.11138 1.6093,-0.4361 3.2624,-0.48604 4.8349,-0.15609 1.6601,0.35973 3.1476,0.99263 4.4134,1.78289 3.0633,1.90902 5.5312,4.46346 7.5079,7.10202 2.4694,3.20756 4.5873,6.75848 6.4327,10.46721 2.0047,4.01123 3.754,8.28667 5.2371,12.75555 2.8334,8.46169 4.888,17.86598 4.9504,27.8774 0.035,4.16499 -0.3544,8.5509 -1.542,12.96849 -0.7308,2.81223 -1.9161,5.67039 -3.6918,8.33703 -0.5835,0.8763 -1.2283,1.7279 -1.9375,2.54673 -4.5909,5.12994 -8.446,10.88168 -11.9857,16.7143 -4.2378,7.00787 -7.8533,14.09229 -10.9559,21.03102 0,0 0,0 0,0 -3.2859,7.36352 -5.9737,14.49835 -7.9214,21.30545 0,0 0,0 0,0 0,0 0,10e-6 0,10e-6 0,0 0,0 0,0 -0.8885,3.16737 -1.6632,6.21109 -2.1961,9.12273 -0.533,2.91165 -0.8244,5.69137 -0.8123,8.3372 0,0 0,0 0,0 0.025,2.87875 -0.4901,5.6223 -1.3956,8.08993 -0.9054,2.46763 -2.2007,4.65991 -3.747,6.50542 0,0 0,0 0,0 -1.7082,1.98136 -3.5713,3.51616 -5.4187,4.73819 -1.8474,1.22204 -3.68,2.13121 -5.3956,2.83231 0,0 0,0 0,0 -4.2224,1.74626 -7.7812,2.39593 -10.3255,2.65777 0,0 0,0 0,0 0,0 0,0 0,10e-6 -1.4508,0.15027 -2.5898,0.16035 -3.3819,0.0861 0,0 0,0 0,0 -0.4179,-0.0392 -0.7416,-0.10207 -0.9651,-0.18314 0,0 0,0 0,0 0,0 0,0 0,0 -0.1155,-0.0414 -0.2046,-0.0876 -0.2667,-0.13806 0,0 0,0 0,0 -0.038,-0.084 -0.065,-0.12636 -0.082,-0.14759 -0.017,-0.021 -0.024,-0.0213 -0.025,-0.0213 0,0 0,0 0,0 0,0 0,0 0,-10e-6 7e-4,-1.4e-4 0.01,-0.002 0.019,-0.0268 0.011,-0.0248 0.026,-0.0724 0.042,-0.16368 0,0 0,0 0,0 0.046,-0.0647 0.1157,-0.13272 0.21,-0.20468 0,0 0,0 0,0 0,0 0,0 0,0 0.1857,-0.14065 0.4636,-0.29626 0.8311,-0.47211 0,0 0,0 0,0 0.6964,-0.33322 1.7076,-0.7368 2.9974,-1.25889 0,0 0,0 0,0 0,0 0,0 0,0 2.2629,-0.91755 5.4039,-2.15861 8.8912,-4.25294 0,0 0,0 0,0 1.4051,-0.8535 2.868,-1.84358 4.267,-3.01865 1.3991,-1.17506 2.7352,-2.53484 3.8166,-4.14442 0,0 0,0 0,0 0.9706,-1.39436 1.7323,-3.03306 2.2112,-4.83652 0.4789,-1.80345 0.675,-3.7722 0.5099,-5.75887 0,0 0,0 0,0 -0.2151,-3.15867 -0.1037,-6.42897 0.2787,-9.75528 0.3825,-3.32632 1.0364,-6.70855 1.8407,-10.08211 0,0 0,0 0,0 0,-10e-6 0,-10e-6 0,-10e-6 0,0 0,0 0,0 1.7235,-7.37799 4.2634,-15.06887 7.4744,-22.87024 0,0 0,0 0,0 3.026,-7.36619 6.6689,-14.9118 11.0486,-22.3959 3.6181,-6.20468 7.7922,-12.49437 12.9678,-18.33675 0.3965,-0.42342 0.761,-0.89475 1.0974,-1.40636 1.0237,-1.55687 1.7743,-3.46465 2.376,-5.48412 0.9244,-3.2408 1.2299,-6.75185 1.2747,-10.32672 0.086,-8.65656 -1.6233,-17.1321 -3.9787,-25.03713 -1.2445,-4.13474 -2.6955,-8.06712 -4.3605,-11.74435 -1.5543,-3.41408 -3.2279,-6.5632 -5.155,-9.31487 -1.6479,-2.27441 -3.2127,-4.23048 -4.9959,-5.40252 -0.6902,-0.45323 -1.3054,-0.80736 -1.8463,-0.94039 -0.4528,-0.12345 -0.9048,-0.17387 -1.2512,-0.10011 -2.0296,0.42114 -3.9774,1.16574 -5.8483,2.05478 -1.8708,0.88904 -3.6645,1.92276 -5.3814,2.97102 -4.4152,2.7236 -8.129,5.64868 -11.2881,8.22847 -7.7405,7.15328 -12.4834,10.96787 -13.1269,10.3606 z"
         style="fill:#000000;fill-rule:evenodd;stroke:none;display:inline" />
      <path
         sodipodi:nodetypes="ccccc"
         inkscape:connector-curvature="0"
         inkscape:original-d="m 621.5211,629.0988 c 0,0 -17.467,-25.8151 -33.3454,-29.9547 -15.8784,-4.1393 -31.5735,51.085 -14.7685,69.9658 16.8056,18.8804 34.5575,59.0981 33.7407,79.9754 -0.8179,20.8772 27.3986,24.2785 27.3986,24.2785"
         inkscape:path-effect="#path-effect3189-8-4-9-6-1-2-6-5"
         id="path3187-7-6-0-3-8-1-6-8"
         d="m 621.52109,629.09878 c -0.71391,0.57003 -5.287,-3.7847 -12.63529,-11.80898 -3.0073,-2.86899 -6.54672,-6.11396 -10.8354,-9.10857 -1.65346,-1.13759 -3.38269,-2.25842 -5.18844,-3.20791 -1.80574,-0.94949 -3.6879,-1.7279 -5.65243,-2.12312 -0.7058,-0.24037 -1.81519,0.17452 -2.8466,0.78367 -1.45911,0.88928 -2.73975,2.53514 -4.09752,4.47559 -1.69074,2.50826 -3.08898,5.35397 -4.26046,8.46602 -1.17148,3.11206 -2.11632,6.49049 -2.94348,10.02041 -1.61393,7.20199 -2.47587,14.89651 -1.76066,22.62767 0.3152,3.34193 0.89001,6.62262 1.97143,9.65628 0.95517,2.62444 2.18023,5.06581 3.86968,6.90585 0.23425,0.26391 0.46686,0.52924 0.69787,0.79595 4.85722,5.60787 8.82524,11.60573 12.28613,17.53128 4.38228,7.47649 8.03098,15.02169 11.06247,22.39261 3.21281,7.79647 5.75628,15.48916 7.4823,22.87335 0,0 0,10e-6 0,10e-6 0.80473,3.37271 1.45914,6.75567 1.84196,10.08406 0.38282,3.32839 0.49433,6.60208 0.27888,9.765 -0.16525,1.98109 0.0293,3.94506 0.50609,5.74457 0.47676,1.7995 1.23575,3.43508 2.20344,4.82691 1.03356,1.59017 2.32967,2.93483 3.69648,4.09838 1.36681,1.16356 2.80521,2.14575 4.19303,2.99437 8.43287,3.31997 13.31116,5.64327 13.1569,6.46691 0,0 0,0 0,0 0,0 0,0 0,0 -9.6e-4,0.005 -9.7e-4,0.005 -9.7e-4,0.005 0,0 10e-6,0 -0.001,0.005 0,0 0,10e-6 0,10e-6 0,0 0,0 0,0 -0.19304,0.81169 -5.44795,0.0149 -14.87954,-2.16588 -1.73383,-0.70644 -3.59148,-1.62395 -5.47104,-2.85764 -1.87955,-1.23369 -3.78195,-2.78347 -5.5371,-4.78311 -1.54995,-1.84905 -2.84798,-4.04535 -3.75524,-6.51708 -0.90726,-2.47173 -1.42358,-5.21944 -1.39828,-8.10215 0.0117,-2.64411 -0.28012,-5.42197 -0.81301,-8.33169 -0.53289,-2.90971 -1.30705,-5.95142 -2.19436,-9.11665 -10e-6,-1e-5 -10e-6,-1e-5 -10e-6,-1e-5 -1.94722,-6.8089 -4.63325,-13.94309 -7.91338,-21.30231 -3.10099,-6.94338 -6.7126,-14.02899 -10.94161,-21.0342 -3.37704,-5.57386 -7.03978,-11.07026 -11.35093,-16.02218 -0.20504,-0.23551 -0.41119,-0.46935 -0.61849,-0.7015 -2.75466,-3.15303 -4.62049,-6.72161 -5.81342,-10.2881 -1.38202,-4.06607 -2.08638,-8.16033 -2.37533,-12.10894 -0.67594,-9.05657 0.46521,-17.74825 2.52515,-25.64403 0.96422,-3.83173 2.17814,-7.60746 3.71709,-11.17632 1.53895,-3.56886 3.40288,-6.9307 5.62107,-9.97643 1.71962,-2.43207 3.98987,-4.77833 6.87605,-6.49895 2.56563,-1.55132 5.76058,-2.07027 8.91878,-1.30334 2.73849,0.83088 5.14392,2.00474 7.28356,3.31577 2.13964,1.31103 4.01358,2.7595 5.68099,4.19719 4.48886,3.81228 7.88607,7.68334 10.59299,11.08446 6.29381,9.06086 9.53558,14.49332 8.82168,15.06336 z"
         style="fill:#000000;fill-rule:evenodd;stroke:none;display:inline" />
      <path
         sodipodi:nodetypes="csscc"
         inkscape:connector-curvature="0"
         inkscape:original-d="m 621.7882,634.2758 c 0,0 -21.611,-198.5451 5.402,-239.0645 27.013,-40.5194 43.221,-149.9218 194.493,-155.3244 151.273,-5.4026 283.636,47.2727 305.246,133.7141 21.611,86.4414 5.404,268.7787 5.404,268.7787"
         inkscape:path-effect="#path-effect4302"
         id="path4300"
         d="m 621.78717,634.26634 c -0.0192,0.002 -0.0393,-0.005 -0.0604,-0.0213 -0.0215,-0.0222 -0.0443,-0.0565 -0.0683,-0.10255 0,0 0,0 0,0 0,0 0,0 0,0 0,0 0,0 0,0 -0.0478,-0.0918 -0.10048,-0.23077 -0.1579,-0.41638 0,0 0,0 0,0 -0.11376,-0.36777 -0.2461,-0.91882 -0.39555,-1.64921 0,0 0,0 0,0 -0.29296,-1.43183 -0.65179,-3.55352 -1.0644,-6.33607 0,0 0,0 0,0 -0.78844,-5.31704 -1.77571,-13.04917 -2.85681,-22.99791 0,0 0,0 0,0 -0.95791,-8.81453 -1.99652,-19.37057 -2.99761,-31.53394 -1.00109,-12.16336 -1.96544,-25.9342 -2.71892,-41.17729 0,0 0,0 0,0 -0.632,-12.78412 -1.11778,-26.61046 -1.20449,-41.39575 0,0 0,0 0,0 -0.0735,-12.4144 0.1141,-25.52538 1.004,-39.25145 0,0 0,0 0,0 0.68526,-10.64507 1.7411,-21.75103 4.0851,-33.09501 0,0 0,0 0,0 0.8899,-4.31353 1.99781,-8.70543 3.53886,-13.08129 0,0 0,0 0,0 1.19267,-3.42461 2.71984,-6.93163 4.89474,-10.26671 0,0 0,0 0,0 3.5483,-5.37833 6.52633,-11.38698 9.5185,-17.64944 0,0 0,0 0,0 3.47563,-7.29879 6.84478,-14.87597 10.47884,-22.56223 0,0 0,0 0,0 8.13928,-17.25021 17.62151,-34.93368 30.45492,-51.2163 0,0 0,0 0,0 14.32178,-18.13283 32.91292,-33.98373 54.87577,-45.08225 0,0 0,0 0,0 13.90307,-6.9895 28.85042,-12.10712 44.40834,-15.59533 15.55791,-3.4882 31.72564,-5.34756 47.98382,-5.91953 19.37913,-0.71123 39.09858,-0.50733 58.99,0.79344 17.07791,1.11679 33.93182,3.02078 50.46061,5.7188 16.48547,2.6869 32.68101,6.16588 48.38669,10.54273 15.70568,4.37686 30.92122,9.65181 45.47972,15.88703 0,0 0,0 0,0 13.0804,5.58927 25.6914,12.00389 37.432,19.35984 11.7405,7.35595 22.6101,15.65332 32.2975,24.95202 0,0 0,0 0,0 8.9274,8.58014 16.7625,18.0712 23.0291,28.32197 6.1871,10.12567 10.7609,20.98388 13.4784,32.07613 0,0 0,0 0,0 3.0593,12.53992 4.9267,24.91826 6.3143,36.90491 0,0 0,0 0,0 1.7007,14.65817 2.6509,28.82305 3.2489,42.38989 0,0 0,0 0,0 0.7337,16.63845 0.9413,32.40602 0.8683,47.20351 -0.073,14.79749 -0.4271,28.62505 -0.8939,41.39229 0,10e-6 0,2e-5 0,3e-5 0,0 0,0 0,0 -1.1113,30.42261 -2.9046,54.85915 -4.4653,72.16743 0,0 0,0 0,0 -0.8526,9.45596 -1.6502,16.78683 -2.3032,21.80516 0,0 0,0 0,0 -0.338,2.59777 -0.6378,4.57645 -0.8887,5.90963 0,0 0,0 0,0 -0.1275,0.677 -0.2424,1.18771 -0.3435,1.52859 0,0 0,0 0,0 -0.051,0.17169 -0.098,0.30034 -0.1421,0.38548 0,0 0,0 0,0 0,0 0,0 0,0 -0.046,0.0406 -0.073,0.0718 -0.091,0.0928 0,0 0,0 0,0 -0.015,0.01 -0.022,0.0178 -0.026,0.0232 -0,0.008 -0,0.008 -0,0.008 0,0 0,0 -0,-3.2e-4 -0,-0.0147 -0.01,-0.0237 -0.021,-0.0361 0,0 0,0 0,0 -0.013,-0.0237 -0.035,-0.0592 -0.073,-0.10714 0,0 0,0 0,0 0,0 0,0 0,0 -0.028,-0.0914 -0.053,-0.22609 -0.073,-0.4038 0,0 0,0 0,0 -0.041,-0.35282 -0.068,-0.87488 -0.081,-1.56292 0,0 0,0 0,0 -0.026,-1.35494 -7e-4,-3.35294 0.067,-5.96855 0,0 0,0 0,0 0.1303,-5.05278 0.4183,-12.40815 0.7782,-21.8798 0,0 0,0 0,0 0.6587,-17.33727 1.6052,-41.76141 1.9484,-72.09903 0,0 0,0 0,0 0,-10e-6 0,-2e-5 0,-3e-5 0.1436,-12.73416 0.1892,-26.50875 -0.029,-41.22256 -0.2184,-14.7138 -0.7,-30.36689 -1.6873,-46.84832 0,0 0,0 0,0 -0.8052,-13.43707 -1.9412,-27.41135 -3.8004,-41.79514 0,0 0,0 0,0 -1.5251,-11.77592 -3.4788,-23.80687 -6.5586,-35.82232 0,0 0,0 0,0 -2.5974,-10.16757 -6.9371,-20.15408 -12.7535,-29.49438 -5.896,-9.47359 -13.326,-18.29419 -21.8163,-26.34763 0,0 0,0 0,0 -9.2243,-8.76151 -19.6419,-16.58732 -30.9551,-23.55874 -11.3133,-6.97142 -23.5217,-13.08863 -36.2368,-18.48639 0,0 0,0 0,0 -14.1573,-5.99558 -28.98342,-11.06728 -44.32139,-15.28462 -15.33797,-4.21733 -31.18752,-7.58055 -47.35734,-10.20115 -16.20764,-2.62266 -32.74452,-4.47708 -49.51469,-5.57226 -19.53298,-1.27561 -38.91526,-1.49294 -57.98286,-0.83107 -15.75116,0.57122 -31.32225,2.31009 -46.21228,5.57159 -14.89002,3.26149 -29.09828,8.04626 -42.21299,14.6148 0,0 0,0 0,0 -20.67339,10.29717 -38.31921,25.16091 -51.99403,42.20328 0,0 0,0 0,0 -12.3182,15.31811 -21.61582,32.36925 -29.81782,49.23809 -3.65247,7.52732 -7.10948,15.08307 -10.7306,22.47339 0,0 0,0 0,0 -3.08529,6.31684 -6.33348,12.63157 -10.29809,18.52257 0,0 0,0 0,0 -1.70972,2.49184 -2.98825,5.40251 -4.12914,8.45585 0,0 0,0 0,0 -1.43476,3.88498 -2.50291,7.92263 -3.41187,12.00309 0,0 0,0 0,0 -2.39102,10.75107 -3.56484,21.50838 -4.41975,31.98175 0,0 0,0 0,0 -1.09358,13.47102 -1.50721,26.42229 -1.67681,38.74016 0,0 0,0 0,0 -0.20115,14.66395 -0.0201,28.41602 0.29302,41.1556 0,0 0,0 0,0 0.37346,15.19114 0.93875,28.93625 1.52459,41.092 0.58585,12.15575 1.19304,22.72225 1.70595,31.55862 0,0 0,0 0,0 0.57893,9.97281 1.04639,17.73991 1.30132,23.10252 0,0 0,0 0,0 0.13341,2.8064 0.20917,4.95368 0.2158,6.4137 0,0 0,0 0,0 0.003,0.74477 -0.0112,1.31053 -0.0452,1.69364 0,0 0,0 0,0 -0.0171,0.19337 -0.0392,0.34016 -0.0664,0.43992 0,0 0,0 0,0 0,0 -10e-6,0 -10e-6,10e-6 0,0 0,0 0,0 -0.0136,0.0501 -0.0286,0.0884 -0.0448,0.11467 -0.0172,0.0204 -0.0353,0.0316 -0.0545,0.0337 z"
         style="fill:#000000;fill-rule:evenodd;stroke:none;fill-opacity:1" />
    </g>
  </g>
</svg>
