<?xml version="1.0" encoding="UTF-8" standalone="no"?>
<!-- Created with Inkscape (http://www.inkscape.org/) -->

<svg
   xmlns:dc="http://purl.org/dc/elements/1.1/"
   xmlns:cc="http://creativecommons.org/ns#"
   xmlns:rdf="http://www.w3.org/1999/02/22-rdf-syntax-ns#"
   xmlns:svg="http://www.w3.org/2000/svg"
   xmlns="http://www.w3.org/2000/svg"
   xmlns:sodipodi="http://sodipodi.sourceforge.net/DTD/sodipodi-0.dtd"
   xmlns:inkscape="http://www.inkscape.org/namespaces/inkscape"
   width="743.36682"
   height="998.3847"
   id="svg4068"
   version="1.1"
   inkscape:version="0.48.3.1 r9886"
   sodipodi:docname="cara_9.svg">
  <defs
     id="defs4070">
    <inkscape:path-effect
       effect="skeletal"
       id="path-effect6574"
       is_visible="true"
       pattern="m -14069.21,-1265.6489 c 0,-2.76 2.24,-5 5,-5 2.76,0 5,2.24 5,5 0,2.76 -2.24,5 -5,5 -2.76,0 -5,-2.24 -5,-5 z"
       copytype="single_stretched"
       prop_scale="1"
       scale_y_rel="false"
       spacing="0"
       normal_offset="0"
       tang_offset="0"
       prop_units="false"
       vertical_pattern="false"
       fuse_tolerance="0" />
    <inkscape:path-effect
       effect="skeletal"
       id="path-effect5543"
       is_visible="true"
       pattern="m -13870.71,-1632.2205 c 0,-2.76 2.24,-5 5,-5 2.76,0 5,2.24 5,5 0,2.76 -2.24,5 -5,5 -2.76,0 -5,-2.24 -5,-5 z"
       copytype="single_stretched"
       prop_scale="1"
       scale_y_rel="false"
       spacing="0"
       normal_offset="0"
       tang_offset="0"
       prop_units="false"
       vertical_pattern="false"
       fuse_tolerance="0" />
    <inkscape:path-effect
       effect="skeletal"
       id="path-effect6549"
       is_visible="true"
       pattern="m -9698.7475,1895.3113 c 0,-2.76 2.24,-5 5,-5 2.76,0 5,2.24 5,5 0,2.76 -2.24,5 -5,5 -2.76,0 -5,-2.24 -5,-5 z"
       copytype="single_stretched"
       prop_scale="1"
       scale_y_rel="false"
       spacing="0"
       normal_offset="0"
       tang_offset="0"
       prop_units="false"
       vertical_pattern="false"
       fuse_tolerance="0" />
    <inkscape:path-effect
       effect="skeletal"
       id="path-effect3189-8-4-9-7-6-9-2-2-9-8"
       is_visible="true"
       pattern="m 6237.6376,1770.428 c 0,-2.76 2.24,-4.9999 5,-4.9999 2.76,0 5,2.2399 5,4.9999 0,2.76 -2.24,5 -5,5 -2.76,0 -5,-2.24 -5,-5 z"
       copytype="single_stretched"
       prop_scale="1"
       scale_y_rel="false"
       spacing="0"
       normal_offset="0"
       tang_offset="0"
       prop_units="false"
       vertical_pattern="false"
       fuse_tolerance="0" />
    <inkscape:path-effect
       effect="skeletal"
       id="path-effect3189-8-4-9-7-6-9-2-2-9-8-3"
       is_visible="true"
       pattern="m 6757.667,1749.1885 c 0,-2.76 2.24,-4.9999 5,-4.9999 2.76,0 5,2.2399 5,4.9999 0,2.76 -2.24,5 -5,5 -2.76,0 -5,-2.24 -5,-5 z"
       copytype="single_stretched"
       prop_scale="1"
       scale_y_rel="false"
       spacing="0"
       normal_offset="0"
       tang_offset="0"
       prop_units="false"
       vertical_pattern="false"
       fuse_tolerance="0" />
    <inkscape:path-effect
       effect="skeletal"
       id="path-effect3093-0"
       is_visible="true"
       pattern="m 7506.6858,594.57527 c 0,-2.76 2.24,-5 5,-5 2.76,0 5,2.24 5,5 0,2.76 -2.24,5 -5,5 -2.76,0 -5,-2.24 -5,-5 z"
       copytype="single_stretched"
       prop_scale="1"
       scale_y_rel="false"
       spacing="0"
       normal_offset="0"
       tang_offset="0"
       prop_units="false"
       vertical_pattern="false"
       fuse_tolerance="0" />
    <inkscape:path-effect
       effect="skeletal"
       id="path-effect3189-5"
       is_visible="true"
       pattern="m 7506.6858,594.57527 c 0,-2.76 2.24,-5 5,-5 2.76,0 5,2.24 5,5 0,2.76 -2.24,5 -5,5 -2.76,0 -5,-2.24 -5,-5 z"
       copytype="single_stretched"
       prop_scale="1"
       scale_y_rel="false"
       spacing="0"
       normal_offset="0"
       tang_offset="0"
       prop_units="false"
       vertical_pattern="false"
       fuse_tolerance="0" />
    <inkscape:path-effect
       effect="skeletal"
       id="path-effect3193-1"
       is_visible="true"
       pattern="m 7506.6858,594.57527 c 0,-2.76 2.24,-5 5,-5 2.76,0 5,2.24 5,5 0,2.76 -2.24,5 -5,5 -2.76,0 -5,-2.24 -5,-5 z"
       copytype="single_stretched"
       prop_scale="1"
       scale_y_rel="false"
       spacing="0"
       normal_offset="0"
       tang_offset="0"
       prop_units="false"
       vertical_pattern="false"
       fuse_tolerance="0" />
    <inkscape:path-effect
       effect="skeletal"
       id="path-effect4306"
       is_visible="true"
       pattern="M 0,5 C 0,2.24 2.24,0 5,0 7.76,0 10,2.24 10,5 10,7.76 7.76,10 5,10 2.24,10 0,7.76 0,5 z"
       copytype="single_stretched"
       prop_scale="1"
       scale_y_rel="false"
       spacing="0"
       normal_offset="0"
       tang_offset="0"
       prop_units="false"
       vertical_pattern="false"
       fuse_tolerance="0" />
    <inkscape:path-effect
       effect="skeletal"
       id="path-effect3093-0-8"
       is_visible="true"
       pattern="m 7506.6858,594.57527 c 0,-2.76 2.24,-5 5,-5 2.76,0 5,2.24 5,5 0,2.76 -2.24,5 -5,5 -2.76,0 -5,-2.24 -5,-5 z"
       copytype="single_stretched"
       prop_scale="1"
       scale_y_rel="false"
       spacing="0"
       normal_offset="0"
       tang_offset="0"
       prop_units="false"
       vertical_pattern="false"
       fuse_tolerance="0" />
    <inkscape:path-effect
       effect="skeletal"
       id="path-effect3189-5-8"
       is_visible="true"
       pattern="m 7506.6858,594.57527 c 0,-2.76 2.24,-5 5,-5 2.76,0 5,2.24 5,5 0,2.76 -2.24,5 -5,5 -2.76,0 -5,-2.24 -5,-5 z"
       copytype="single_stretched"
       prop_scale="1"
       scale_y_rel="false"
       spacing="0"
       normal_offset="0"
       tang_offset="0"
       prop_units="false"
       vertical_pattern="false"
       fuse_tolerance="0" />
    <inkscape:path-effect
       effect="skeletal"
       id="path-effect3193-1-3"
       is_visible="true"
       pattern="m 7506.6858,594.57527 c 0,-2.76 2.24,-5 5,-5 2.76,0 5,2.24 5,5 0,2.76 -2.24,5 -5,5 -2.76,0 -5,-2.24 -5,-5 z"
       copytype="single_stretched"
       prop_scale="1"
       scale_y_rel="false"
       spacing="0"
       normal_offset="0"
       tang_offset="0"
       prop_units="false"
       vertical_pattern="false"
       fuse_tolerance="0" />
    <inkscape:path-effect
       effect="skeletal"
       id="path-effect4306-2"
       is_visible="true"
       pattern="M 0,5 C 0,2.24 2.24,0 5,0 7.76,0 10,2.24 10,5 10,7.76 7.76,10 5,10 2.24,10 0,7.76 0,5 z"
       copytype="single_stretched"
       prop_scale="1"
       scale_y_rel="false"
       spacing="0"
       normal_offset="0"
       tang_offset="0"
       prop_units="false"
       vertical_pattern="false"
       fuse_tolerance="0" />
    <inkscape:path-effect
       effect="skeletal"
       id="path-effect4589-2"
       is_visible="true"
       pattern="m 3203.4625,-287.36459 c 0,-2.76 2.24,-5 5,-5 2.76,0 5,2.24 5,5 0,2.76 -2.24,5 -5,5 -2.76,0 -5,-2.24 -5,-5 z"
       copytype="single_stretched"
       prop_scale="1"
       scale_y_rel="false"
       spacing="0"
       normal_offset="0"
       tang_offset="0"
       prop_units="false"
       vertical_pattern="false"
       fuse_tolerance="0" />
    <inkscape:path-effect
       effect="skeletal"
       id="path-effect3189-8-4-9-6-1"
       is_visible="true"
       pattern="m 9041.8924,-261.70024 c 0,-2.76 2.24,-5 5,-5 2.76,0 5,2.24 5,5 0,2.76 -2.24,5 -5,5 -2.76,0 -5,-2.24 -5,-5 z"
       copytype="single_stretched"
       prop_scale="1"
       scale_y_rel="false"
       spacing="0"
       normal_offset="0"
       tang_offset="0"
       prop_units="false"
       vertical_pattern="false"
       fuse_tolerance="0" />
    <inkscape:path-effect
       effect="skeletal"
       id="path-effect3189-8-4-9-7-6-9"
       is_visible="true"
       pattern="m 7960.9,-231.74201 c 0,-2.76 2.24,-5 5,-5 2.76,0 5,2.24 5,5 0,2.76 -2.24,5 -5,5 -2.76,0 -5,-2.24 -5,-5 z"
       copytype="single_stretched"
       prop_scale="1"
       scale_y_rel="false"
       spacing="0"
       normal_offset="0"
       tang_offset="0"
       prop_units="false"
       vertical_pattern="false"
       fuse_tolerance="0" />
    <inkscape:path-effect
       effect="skeletal"
       id="path-effect6549-1"
       is_visible="true"
       pattern="m -9698.7475,1895.3113 c 0,-2.76 2.24,-5 5,-5 2.76,0 5,2.24 5,5 0,2.76 -2.24,5 -5,5 -2.76,0 -5,-2.24 -5,-5 z"
       copytype="single_stretched"
       prop_scale="1"
       scale_y_rel="false"
       spacing="0"
       normal_offset="0"
       tang_offset="0"
       prop_units="false"
       vertical_pattern="false"
       fuse_tolerance="0" />
    <inkscape:path-effect
       effect="skeletal"
       id="path-effect3189-8-4-9-7-6-9-2-2-9-8-5"
       is_visible="true"
       pattern="m 6237.6376,1770.428 c 0,-2.76 2.24,-4.9999 5,-4.9999 2.76,0 5,2.2399 5,4.9999 0,2.76 -2.24,5 -5,5 -2.76,0 -5,-2.24 -5,-5 z"
       copytype="single_stretched"
       prop_scale="1"
       scale_y_rel="false"
       spacing="0"
       normal_offset="0"
       tang_offset="0"
       prop_units="false"
       vertical_pattern="false"
       fuse_tolerance="0" />
    <inkscape:path-effect
       effect="skeletal"
       id="path-effect3189-8-4-9-7-6-9-2-2-9-8-3-4"
       is_visible="true"
       pattern="m 6757.667,1749.1885 c 0,-2.76 2.24,-4.9999 5,-4.9999 2.76,0 5,2.2399 5,4.9999 0,2.76 -2.24,5 -5,5 -2.76,0 -5,-2.24 -5,-5 z"
       copytype="single_stretched"
       prop_scale="1"
       scale_y_rel="false"
       spacing="0"
       normal_offset="0"
       tang_offset="0"
       prop_units="false"
       vertical_pattern="false"
       fuse_tolerance="0" />
    <inkscape:path-effect
       effect="skeletal"
       id="path-effect3189-8-4-9-6-1-2-2"
       is_visible="true"
       pattern="m 9466.4313,2392.7382 c 0,-2.76 2.24,-5 5,-5 2.76,0 5,2.24 5,5 0,2.76 -2.24,5 -5,5 -2.76,0 -5,-2.24 -5,-5 z"
       copytype="single_stretched"
       prop_scale="1"
       scale_y_rel="false"
       spacing="0"
       normal_offset="0"
       tang_offset="0"
       prop_units="false"
       vertical_pattern="false"
       fuse_tolerance="0" />
    <inkscape:path-effect
       effect="skeletal"
       id="path-effect3189-8-4-9-6-1-2-6-1"
       is_visible="true"
       pattern="m 8256.775,2407.6317 c 0,-2.76 2.24,-5 5,-5 2.76,0 5,2.24 5,5 0,2.76 -2.24,5 -5,5 -2.76,0 -5,-2.24 -5,-5 z"
       copytype="single_stretched"
       prop_scale="1"
       scale_y_rel="false"
       spacing="0"
       normal_offset="0"
       tang_offset="0"
       prop_units="false"
       vertical_pattern="false"
       fuse_tolerance="0" />
    <inkscape:path-effect
       effect="skeletal"
       id="path-effect4310"
       is_visible="true"
       pattern="M 0,5 C 0,2.24 2.24,0 5,0 7.76,0 10,2.24 10,5 10,7.76 7.76,10 5,10 2.24,10 0,7.76 0,5 z"
       copytype="single_stretched"
       prop_scale="1"
       scale_y_rel="false"
       spacing="0"
       normal_offset="0"
       tang_offset="0"
       prop_units="false"
       vertical_pattern="false"
       fuse_tolerance="0" />
    <inkscape:path-effect
       effect="skeletal"
       id="path-effect4314"
       is_visible="true"
       pattern="M 0,5 C 0,2.24 2.24,0 5,0 7.76,0 10,2.24 10,5 10,7.76 7.76,10 5,10 2.24,10 0,7.76 0,5 z"
       copytype="single_stretched"
       prop_scale="1"
       scale_y_rel="false"
       spacing="0"
       normal_offset="0"
       tang_offset="0"
       prop_units="false"
       vertical_pattern="false"
       fuse_tolerance="0" />
    <inkscape:path-effect
       effect="skeletal"
       id="path-effect5025-1"
       is_visible="true"
       pattern="m 1215.9352,2142.6341 c 0,-2.76 2.24,-5 5,-5 2.76,0 5,2.24 5,5 0,2.76 -2.24,5 -5,5 -2.76,0 -5,-2.24 -5,-5 z"
       copytype="single_stretched"
       prop_scale="1"
       scale_y_rel="false"
       spacing="0"
       normal_offset="0"
       tang_offset="0"
       prop_units="false"
       vertical_pattern="false"
       fuse_tolerance="0" />
    <inkscape:path-effect
       effect="skeletal"
       id="path-effect3189-8-4-9-6-1-2-4"
       is_visible="true"
       pattern="m 10700.692,2179.7965 c 0,-2.76 2.24,-5 5,-5 2.76,0 5,2.24 5,5 0,2.76 -2.24,5 -5,5 -2.76,0 -5,-2.24 -5,-5 z"
       copytype="single_stretched"
       prop_scale="1"
       scale_y_rel="false"
       spacing="0"
       normal_offset="0"
       tang_offset="0"
       prop_units="false"
       vertical_pattern="false"
       fuse_tolerance="0" />
    <inkscape:path-effect
       effect="skeletal"
       id="path-effect3189-8-4-9-6-1-2-6-5"
       is_visible="true"
       pattern="m 9593.9611,2130.9953 c 0,-2.76 2.24,-5 5,-5 2.76,0 5,2.24 5,5 0,2.76 -2.24,5 -5,5 -2.76,0 -5,-2.24 -5,-5 z"
       copytype="single_stretched"
       prop_scale="1"
       scale_y_rel="false"
       spacing="0"
       normal_offset="0"
       tang_offset="0"
       prop_units="false"
       vertical_pattern="false"
       fuse_tolerance="0" />
    <inkscape:path-effect
       effect="skeletal"
       id="path-effect4302"
       is_visible="true"
       pattern="M 0,5 C 0,2.24 2.24,0 5,0 7.76,0 10,2.24 10,5 10,7.76 7.76,10 5,10 2.24,10 0,7.76 0,5 z"
       copytype="single_stretched"
       prop_scale="1"
       scale_y_rel="false"
       spacing="0"
       normal_offset="0"
       tang_offset="0"
       prop_units="false"
       vertical_pattern="false"
       fuse_tolerance="0" />
    <inkscape:path-effect
       effect="skeletal"
       id="path-effect4589"
       is_visible="true"
       pattern="m 2707.1429,-1309.2857 c 0,-2.76 2.24,-5 5,-5 2.76,0 5,2.24 5,5 0,2.76 -2.24,5 -5,5 -2.76,0 -5,-2.24 -5,-5 z"
       copytype="single_stretched"
       prop_scale="1"
       scale_y_rel="false"
       spacing="0"
       normal_offset="0"
       tang_offset="0"
       prop_units="false"
       vertical_pattern="false"
       fuse_tolerance="0" />
    <inkscape:path-effect
       effect="skeletal"
       id="path-effect3189-8-4-9-6"
       is_visible="true"
       pattern="m 8674.6712,-1366.8956 c 0,-2.76 2.24,-5 5,-5 2.76,0 5,2.24 5,5 0,2.76 -2.24,5 -5,5 -2.76,0 -5,-2.24 -5,-5 z"
       copytype="single_stretched"
       prop_scale="1"
       scale_y_rel="false"
       spacing="0"
       normal_offset="0"
       tang_offset="0"
       prop_units="false"
       vertical_pattern="false"
       fuse_tolerance="0" />
    <inkscape:path-effect
       effect="skeletal"
       id="path-effect3189-8-4-9-7-6"
       is_visible="true"
       pattern="m 7350.8217,-1359.7945 c 0,-2.76 2.24,-5 5,-5 2.76,0 5,2.24 5,5 0,2.76 -2.24,5 -5,5 -2.76,0 -5,-2.24 -5,-5 z"
       copytype="single_stretched"
       prop_scale="1"
       scale_y_rel="false"
       spacing="0"
       normal_offset="0"
       tang_offset="0"
       prop_units="false"
       vertical_pattern="false"
       fuse_tolerance="0" />
    <inkscape:path-effect
       effect="skeletal"
       id="path-effect5345-0"
       is_visible="true"
       pattern="m -3081.7985,2386.9198 c 0,-2.76 2.24,-5 5,-5 2.76,0 5,2.24 5,5 0,2.76 -2.24,5 -5,5 -2.76,0 -5,-2.24 -5,-5 z"
       copytype="single_stretched"
       prop_scale="1"
       scale_y_rel="false"
       spacing="0"
       normal_offset="0"
       tang_offset="0"
       prop_units="false"
       vertical_pattern="false"
       fuse_tolerance="0" />
    <inkscape:path-effect
       effect="skeletal"
       id="path-effect3189-8-4-9-6-1-3-8-81"
       is_visible="true"
       pattern="m 9702.415,2364.4336 c 0,-2.76 2.24,-5 5,-5 2.76,0 5,2.24 5,5 0,2.76 -2.24,5 -5,5 -2.76,0 -5,-2.24 -5,-5 z"
       copytype="single_stretched"
       prop_scale="1"
       scale_y_rel="false"
       spacing="0"
       normal_offset="0"
       tang_offset="0"
       prop_units="false"
       vertical_pattern="false"
       fuse_tolerance="0" />
    <inkscape:path-effect
       effect="skeletal"
       id="path-effect3189-8-4-9-7-6-9-2-2-3"
       is_visible="true"
       pattern="m 8303.671,2362.1264 c 0,-2.76 2.24,-5 5,-5 2.76,0 5,2.24 5,5 0,2.76 -2.24,5 -5,5 -2.76,0 -5,-2.24 -5,-5 z"
       copytype="single_stretched"
       prop_scale="1"
       scale_y_rel="false"
       spacing="0"
       normal_offset="0"
       tang_offset="0"
       prop_units="false"
       vertical_pattern="false"
       fuse_tolerance="0" />
    <inkscape:path-effect
       effect="skeletal"
       id="path-effect4444-8"
       is_visible="true"
       pattern="m -1078.0777,-1921.0201 c 0,-2.7599 2.24,-5 5,-5 2.76,0 5,2.2401 5,5 0,2.7601 -2.24,5 -5,5 -2.76,0 -5,-2.2399 -5,-5 z"
       copytype="single_stretched"
       prop_scale="1"
       scale_y_rel="false"
       spacing="0"
       normal_offset="0"
       tang_offset="0"
       prop_units="false"
       vertical_pattern="false"
       fuse_tolerance="0" />
    <inkscape:path-effect
       effect="skeletal"
       id="path-effect3189-8-4-9-73"
       is_visible="true"
       pattern="m 3104.4822,-2028.7373 c 0,-2.76 2.24,-5 5,-5 2.76,0 5,2.24 5,5 0,2.76 -2.24,5 -5,5 -2.76,0 -5,-2.24 -5,-5 z"
       copytype="single_stretched"
       prop_scale="1"
       scale_y_rel="false"
       spacing="0"
       normal_offset="0"
       tang_offset="0"
       prop_units="false"
       vertical_pattern="false"
       fuse_tolerance="0" />
    <inkscape:path-effect
       effect="skeletal"
       id="path-effect3189-8-4-9-7-0"
       is_visible="true"
       pattern="m 2046.5347,-2086.5429 c 0,-2.76 2.24,-5 5,-5 2.76,0 5,2.24 5,5 0,2.76 -2.24,5 -5,5 -2.76,0 -5,-2.24 -5,-5 z"
       copytype="single_stretched"
       prop_scale="1"
       scale_y_rel="false"
       spacing="0"
       normal_offset="0"
       tang_offset="0"
       prop_units="false"
       vertical_pattern="false"
       fuse_tolerance="0" />
  </defs>
  <sodipodi:namedview
     id="base"
     pagecolor="#ffffff"
     bordercolor="#666666"
     borderopacity="1.0"
     inkscape:pageopacity="0.0"
     inkscape:pageshadow="2"
     inkscape:zoom="0.175"
     inkscape:cx="-277.28548"
     inkscape:cy="588.8113"
     inkscape:document-units="px"
     inkscape:current-layer="layer1"
     showgrid="false"
     fit-margin-top="0"
     fit-margin-left="0"
     fit-margin-right="0"
     fit-margin-bottom="0"
     inkscape:window-width="715"
     inkscape:window-height="451"
     inkscape:window-x="3"
     inkscape:window-y="47"
     inkscape:window-maximized="0" />
  <metadata
     id="metadata4073">
    <rdf:RDF>
      <cc:Work
         rdf:about="">
        <dc:format>image/svg+xml</dc:format>
        <dc:type
           rdf:resource="http://purl.org/dc/dcmitype/StillImage" />
        <dc:title />
      </cc:Work>
    </rdf:RDF>
  </metadata>
  <g
     inkscape:label="Capa 1"
     inkscape:groupmode="layer"
     id="layer1"
     transform="translate(-869.19208,-176.64199)">
    <g
       id="g7982">
      <path
         sodipodi:nodetypes="zccccccccccccccccccccsscccccccccczzz"
         inkscape:connector-curvature="0"
         id="path4781-3"
         d="m 1097.2083,205.58439 c -33.9605,19.1712 -70.0128,85.6977 -70.0128,85.6977 l -38.3858,82.8325 -34.3452,111.1168 -18.1828,-28.2843 -30.3045,-8.0812 -28.2843,32.3248 0,22.2234 16.1624,26.264 -4.0406,52.5279 -4.0406,10.1015 32.3249,28.2843 -30.3046,208.0914 12.1218,105.0559 68.6904,117.17771 92.934,76.7716 90.9138,38.3858 92.934,4.0406 98.995,-34.3452 115.1573,-66.6701 80.8123,-80.81221 c 0,0 42.4264,-76.7716 44.4467,-84.8528 2.0203,-8.0812 8.0812,-103.0356 8.0812,-113.1371 0,-10.1015 -30.3046,-147.4822 -30.3046,-147.4822 l 26.264,-2.0204 2.0203,-36.3654 8.0812,-62.6295 2.0203,-40.4061 -44.4467,-24.2437 -18.1828,22.2234 -8.0812,24.2437 -38.3858,-88.8935 -78.7919,-189.9087 c 0,0 -39.5909,-44.3853 -109.0964,-56.5685 -69.5055,-12.1832 -52.5485,-11.7058 -85.0733,-10.3954 -32.5248,1.3105 -87.7353,8.5621 -121.6957,27.7333 z"
         style="fill:#fcd8d8;fill-opacity:1;stroke:none;display:inline" />
      <path
         sodipodi:nodetypes="zsssssz"
         inkscape:connector-curvature="0"
         inkscape:original-d="m 1124.8051,193.54819 c -85.3157,35.7796 -87.2152,82.1593 -127.6629,175.6945 -40.4476,93.5352 -110.5648,352.7547 -107.439,506.8596 2.3632,116.5101 123.871,280.60561 293.2454,293.24541 169.3746,12.6399 379.1968,-146.6227 409.5325,-293.24541 30.3357,-146.6227 -140.3028,-570.0591 -173.1665,-628.2025 -32.8637,-58.1436 -209.1938,-90.1312 -294.5095,-54.3516 z"
         inkscape:path-effect="#path-effect4444-8"
         id="path4442-0"
         d="m 1124.8051,193.54819 c 0.049,0.11684 -1.0835,0.71934 -3.3356,1.83309 -2.252,1.11374 -5.6275,2.73649 -10.0028,4.9976 -4.3753,2.26111 -9.7573,5.15593 -15.8802,8.96991 -6.1228,3.81399 -12.9954,8.5408 -20.0919,14.705 -5.1296,4.44856 -10.3096,9.68829 -15.3281,15.79089 -5.0184,6.1026 -9.8751,13.07063 -14.3377,20.87293 -3.9048,6.82422 -7.5724,14.24522 -11.1007,22.19779 -3.5282,7.95256 -6.9154,16.43763 -10.3875,25.31722 -3.7244,9.53533 -7.5511,19.52241 -11.6075,29.89895 -4.0563,10.37654 -8.3417,21.14283 -13.05363,32.20832 -5.65361,13.27469 -10.90473,27.40403 -16.06555,42.21717 -6.03107,17.31432 -11.88518,35.55054 -17.64071,54.62799 -12.32696,40.86036 -24.22515,85.5306 -35.21029,133.62678 -10.35042,45.3233 -19.96199,93.67026 -27.13119,144.8256 -3.13301,22.35603 -5.78402,45.23789 -7.53504,68.61118 -1.51704,20.26798 -2.38954,40.88983 -1.92482,61.76304 0.3218,14.80292 2.59957,29.74879 6.28092,44.52949 3.96036,15.88451 9.57153,31.55912 16.47333,46.85679 14.71387,32.61077 35.22231,63.45907 60.31041,91.06827 25.69277,28.2558 56.32307,53.1278 91.08957,71.8066 34.9704,18.7893 74.2927,31.1154 114.9921,34.1225 21.0907,1.5709 42.5559,0.3851 63.8437,-2.934 22.0498,-3.4404 43.9097,-9.1833 65.3081,-16.6985 7.5769,-2.661 15.0943,-5.5389 22.5452,-8.6247 36.4854,-15.1104 70.6315,-34.8894 101.9008,-57.7116 18.8963,-13.8031 36.7824,-28.734 53.3306,-44.727 16.5481,-15.993 31.758,-33.0479 45.3419,-51.09402 12.7627,-16.95493 24.0441,-34.77691 33.1685,-53.41993 8.521,-17.42132 15.1835,-35.54581 19.0244,-54.05561 2.0369,-9.75248 2.9681,-19.75171 3.3539,-29.78071 0.4522,-11.89802 0.077,-23.79326 -0.7452,-35.61764 -2.0019,-28.80004 -6.592,-57.00451 -12.0534,-84.56465 -6.5196,-32.87664 -14.4393,-64.78322 -22.9121,-95.76002 -9.3697,-34.25284 -19.4592,-67.34681 -29.8143,-99.28208 -20.9134,-64.49529 -42.8067,-124.26072 -64.4884,-178.80054 -8.9054,-22.40047 -17.7704,-43.90675 -26.7766,-64.37754 -3.3896,-7.70417 -6.7923,-15.25139 -10.291,-22.59904 -2.4401,-5.12081 -4.8716,-10.12077 -7.5302,-14.8707 -4.2951,-7.75649 -10.7718,-14.13542 -17.6983,-19.65021 -8.9371,-7.08089 -18.7607,-12.6144 -28.6374,-17.34928 -12.2736,-5.87615 -24.6692,-10.42129 -36.7882,-14.18448 -14.5017,-4.50122 -28.6151,-7.83982 -42.1077,-10.40802 -17.1339,-3.25925 -33.2617,-5.30395 -48.1594,-6.43262 -14.8978,-1.12867 -28.5675,-1.34427 -40.8744,-0.99465 -16.3008,0.46376 -30.1811,1.99809 -41.4368,3.92042 -11.4637,1.7793 -20.1876,4.04653 -26.1584,5.88097 -2.9854,0.91722 -5.2906,1.71954 -6.9292,2.30093 -1.6387,0.58139 -2.6118,0.9403 -2.9173,1.01641 0,0 0,0 0,-1e-5 -0.012,-0.0283 -0.012,-0.0283 -0.012,-0.0283 0,0 0,-3e-5 -0.012,-0.0283 0,0 0,0 0,0 0.2687,-0.16474 1.2057,-0.6159 2.8106,-1.31071 1.6048,-0.69481 3.8786,-1.63183 6.834,-2.71965 5.9109,-2.17565 14.5862,-4.9331 25.954,-7.41546 11.3019,-2.28822 25.2937,-4.18888 41.7362,-4.99258 12.41,-0.60714 26.2166,-0.64128 41.2831,0.25301 15.0665,0.89428 31.395,2.71995 48.7551,5.78595 13.6783,2.41422 28.0182,5.62021 42.8001,10.02069 12.35,3.67496 25.0437,8.17697 37.7066,14.07429 10.1845,4.73672 20.4335,10.39487 29.9487,17.76424 7.3996,5.7041 14.4638,12.6191 19.4836,21.34285 2.8185,4.9404 5.3614,10.04801 7.8573,15.1811 3.6009,7.40051 7.0948,14.98114 10.5624,22.69471 9.2147,20.49731 18.2755,42.01902 27.3576,64.41107 22.1154,54.52343 44.417,114.32457 65.7025,178.90835 10.5416,31.9841 20.814,65.16153 30.3634,99.53945 8.6354,31.08462 16.7179,63.169 23.4013,96.30714 5.6024,27.75887 10.3271,56.33227 12.4561,85.69857 0.8748,12.06513 1.2864,24.29745 0.852,36.63464 -0.361,10.38959 -1.3322,20.91822 -3.477,31.3771 -4.0114,19.44315 -10.8963,38.34708 -19.6951,56.37554 -9.4108,19.2944 -20.9866,37.66567 -34.05,55.05599 -13.8945,18.49642 -29.4247,35.95892 -46.3017,52.31082 -16.877,16.3519 -35.1004,31.5932 -54.3411,45.6534 -31.8256,23.2757 -66.6557,43.455 -103.9528,58.9029 -7.6167,3.1547 -15.3044,6.0986 -23.0561,8.8227 -21.9056,7.6975 -44.3599,13.5815 -67.0849,17.123 -21.9432,3.4221 -44.1702,4.6222 -66.1201,2.9811 -42.2128,-3.1803 -82.8335,-15.9499 -118.8921,-35.4131 -35.8076,-19.3286 -67.24437,-44.9405 -93.53004,-74.0004 -25.67275,-28.364 -46.63327,-60.1001 -61.68002,-93.6903 -7.06251,-15.76522 -12.80158,-31.98 -16.85948,-48.46665 -3.77889,-15.33761 -6.08842,-30.95798 -6.38287,-46.53672 -0.38981,-21.25604 0.5736,-42.15629 2.19536,-62.61232 1.86926,-23.59764 4.64419,-46.64845 7.90619,-69.12646 7.46291,-51.42709 17.38726,-99.93837 28.06632,-145.34829 11.33118,-48.1892 23.60559,-92.93274 36.32727,-133.83361 5.93993,-19.09768 11.9905,-37.36702 18.22557,-54.71753 5.32989,-14.83424 10.77997,-29.03632 16.64965,-42.40926 4.80119,-10.9335 9.19325,-21.60366 13.36865,-31.90837 4.1754,-10.30471 8.1336,-20.24422 11.9976,-29.74621 3.5956,-8.85136 7.1374,-17.3557 10.8378,-25.35183 3.7005,-7.99614 7.5578,-15.48504 11.6585,-22.38252 4.7069,-7.91449 9.8203,-14.95821 15.0901,-21.10347 5.2697,-6.14527 10.6958,-11.39466 16.0542,-15.82373 7.4066,-6.11209 14.517,-10.71799 20.8363,-14.37628 6.3194,-3.65828 11.8563,-6.36242 16.3658,-8.41801 4.5095,-2.05559 7.9981,-3.4577 10.3554,-4.34538 2.3573,-0.88768 3.5869,-1.25832 3.6359,-1.14147 z"
         style="fill:#000000;fill-rule:evenodd;stroke:none" />
      <path
         inkscape:connector-curvature="0"
         inkscape:original-d="m 1533.174,519.85679 c 0,0 -0.4543,-25.4332 19.7106,-35.97 20.1649,-10.5368 66.6717,29.3387 51.8256,52.7838 -14.8461,23.445 -21.4464,65.3998 -10.9602,82.7388 10.4863,17.3389 -27.1185,32.71 -27.1185,32.71"
         inkscape:path-effect="#path-effect3189-8-4-9-73"
         id="path3187-7-6-0-9"
         d="m 1533.174,519.85676 c -0.029,1.4e-4 -0.059,-0.006 -0.088,-0.0197 0,0 0,0 0,0 -0.028,-0.0127 -0.056,-0.0315 -0.084,-0.0565 -0.055,-0.0495 -0.11,-0.1232 -0.1636,-0.22055 0,0 0,0 0,0 0,0 0,0 0,0 -0.1054,-0.19183 -0.2064,-0.47724 -0.2974,-0.85134 0,0 0,0 0,0 -0.1747,-0.71905 -0.3132,-1.77468 -0.3615,-3.13849 0,0 0,0 0,0 -0.089,-2.49285 0.097,-6.05829 1.1374,-10.43884 0,0 0,0 0,0 0.9113,-3.85396 2.5092,-8.37987 5.5135,-12.97397 0,0 0,0 0,0 2.7991,-4.2621 6.8791,-8.45355 12.3467,-11.53773 0,0 0,0 0,0 3.208,-1.7325 6.8764,-2.51673 10.4922,-2.41636 0,0 0,0 0,0 3.871,0.0813 7.738,0.90744 11.4018,2.22153 0,0 0,0 0,0 0,0 0,10e-6 0,10e-6 0,0 0,0 0,0 3.9072,1.38787 7.7558,3.25766 11.4627,5.56369 3.7069,2.30603 7.2719,5.04828 10.6099,8.13249 0,0 0,0 0,0 6.0601,5.48975 11.7701,12.45944 15.1833,21.19115 0,0 0,0 0,0 1.428,3.64608 2.321,7.73937 2.2245,12.09178 0,0 0,0 0,0 -0.1232,4.14501 -1.3282,8.28978 -3.6176,11.94139 -0.24,0.37781 -0.4768,0.75881 -0.7103,1.14289 -3.4776,5.71941 -6.1167,11.90782 -8.2883,18.14777 -2.5977,7.50865 -4.4111,15.03532 -5.5472,22.34968 -1.1362,7.40207 -1.6101,14.49385 -1.1459,21.08043 0,0 0,10e-6 0,10e-6 0.2437,2.96099 0.5896,5.79148 1.1828,8.38028 0.5932,2.5888 1.4336,4.93609 2.6082,6.97718 1.4837,2.5453 2.2487,5.47005 2.1717,8.40889 -0.1496,2.91467 -1.0549,5.46465 -2.2903,7.56987 -1.5941,2.69302 -3.4987,4.83129 -5.4382,6.60672 -1.9395,1.77543 -3.9153,3.18778 -5.7637,4.3758 0,0 0,0 0,0 -2.5205,1.65217 -4.8921,2.9485 -7.0289,3.9927 -2.1367,1.04421 -4.0395,1.83565 -5.6573,2.43617 -3.9561,1.32049 -6.1704,1.79144 -6.3937,1.30925 0,0 0,0 0,0 0,0 0,0 0,0 -0,-0.004 -0,-0.004 -0,-0.004 0,0 0,0 -0,-0.004 0,0 0,0 0,0 0,0 0,-1e-5 0,-1e-5 -0.2033,-0.4915 1.5956,-1.89874 5.055,-4.04869 1.3961,-0.93493 3.0508,-2.0339 4.8924,-3.33749 1.8416,-1.30358 3.8711,-2.81108 5.9759,-4.59631 0,0 0,0 0,0 1.5543,-1.34089 3.1744,-2.79808 4.6613,-4.42123 1.4869,-1.62316 2.8418,-3.41169 3.7489,-5.4536 0.6646,-1.49133 1.1213,-3.06477 1.0224,-4.50994 -0.026,-1.4094 -0.6103,-2.94226 -1.5193,-4.35332 -1.6985,-2.70968 -2.9977,-5.69167 -3.9414,-8.82794 -0.9437,-3.13626 -1.5316,-6.4268 -1.8657,-9.70633 0,0 0,-1e-5 0,-1e-5 -0.8287,-7.37636 -0.615,-15.22043 0.4132,-23.18711 1.0066,-7.90085 2.802,-16.05927 5.5115,-24.20763 2.2352,-6.7606 5.1368,-13.62161 9.0927,-20.16078 0.2657,-0.43913 0.5354,-0.87569 0.8094,-1.30956 1.3021,-2.02017 2.0129,-4.48501 2.1077,-6.92168 0,0 0,0 0,0 0.1362,-2.67478 -0.5074,-5.5076 -1.4985,-8.28537 0,0 0,0 0,0 -2.4487,-6.83425 -7.2117,-12.742 -12.3863,-17.83886 -2.9044,-2.798 -5.9415,-5.3051 -9.0617,-7.42714 -3.1202,-2.12204 -6.3236,-3.85896 -9.5645,-5.16347 0,0 0,0 0,0 0,0 0,0 0,0 0,0 0,0 0,0 -3.0155,-1.20166 -5.949,-2.03997 -8.7326,-2.22659 0,0 0,0 0,0 -2.5283,-0.147 -4.9084,0.11066 -6.7585,1.02119 0,0 0,0 0,0 -4.5083,2.12856 -8.1431,5.27019 -10.816,8.57811 0,0 0,0 0,0 -2.9132,3.59206 -4.7996,7.40732 -6.1486,10.7526 0,0 0,0 0,0 -1.533,3.81609 -2.3645,7.04772 -2.9676,9.3515 0,0 0,0 0,0 -0.3296,1.26069 -0.5847,2.24259 -0.8125,2.92218 0,0 0,0 0,0 -0.1185,0.35362 -0.2294,0.62324 -0.338,0.80765 0,0 0,0 0,0 0,0 0,0 0,0 -0.055,0.0943 -0.1101,0.16586 -0.1648,0.21452 -0.028,0.0246 -0.055,0.0433 -0.083,0.056 0,0 0,0 0,0 -0.029,0.0133 -0.058,0.0202 -0.087,0.0203 z"
         style="fill:#000000;fill-rule:evenodd;stroke:none" />
      <path
         inkscape:connector-curvature="0"
         inkscape:original-d="m 948.577,483.69109 c 0,0 0.4543,-25.4333 -19.7106,-35.9699 -20.1649,-10.5368 -66.6717,29.3386 -51.8256,52.7837 14.8461,23.4451 21.4464,65.3999 10.9602,82.7388 -10.4863,17.339 27.1185,32.7101 27.1185,32.7101"
         inkscape:path-effect="#path-effect3189-8-4-9-7-0"
         id="path3187-7-6-0-6-3"
         d="m 948.577,483.69106 c -0.79919,0.13073 -2.38056,-4.80097 -4.48641,-13.52879 0,0 0,0 0,-10e-6 -1.34365,-3.3202 -3.21929,-7.08439 -6.11536,-10.59596 -2.67292,-3.3079 -6.30768,-6.4495 -10.81598,-8.57801 -1.85018,-0.91053 -4.2302,-1.1682 -6.75857,-1.02121 -2.78358,0.18662 -5.71711,1.02493 -8.73257,2.22659 -3.24094,1.3045 -6.44432,3.04142 -9.56454,5.16345 -3.12022,2.12203 -6.1573,4.62913 -9.06167,7.42713 -5.17464,5.09684 -9.93764,11.00458 -12.3863,17.83882 -0.99111,2.77776 -1.63474,5.61058 -1.49849,8.28536 0.0948,2.43666 0.8056,4.9015 2.10774,6.92167 0.27394,0.43389 0.54371,0.87047 0.80938,1.30962 3.95591,6.53917 6.8575,13.40018 9.09271,20.16077 2.7095,8.14838 4.50489,16.3068 5.5115,24.20766 1.02813,7.96667 1.24181,15.81073 0.41319,23.18709 0,0 0,0 0,10e-6 -0.33413,3.27952 -0.92205,6.57004 -1.86573,9.7063 -0.94367,3.13626 -2.24286,6.11824 -3.94144,8.82791 -0.90897,1.41108 -1.4929,2.94394 -1.51924,4.35336 -0.0989,1.44518 0.35781,3.01863 1.02237,4.50996 0.90712,2.04192 2.26198,3.83045 3.74889,5.45361 1.4869,1.62317 3.10703,3.08035 4.66134,4.42125 0,0 0,0 10e-6,0 2.10475,1.78523 4.13422,3.29273 5.97585,4.59632 1.84162,1.30359 3.4963,2.40256 4.89246,3.33748 3.45939,2.14996 5.25828,3.5572 5.05493,4.0487 0,0 0,10e-6 0,10e-6 0,0 0,0 0,0 -0.002,0.004 -0.002,0.004 -0.002,0.004 0,0 10e-6,0 -0.002,0.004 0,0 0,0 0,0 0,0 0,0 0,0 -0.22324,0.48219 -2.43758,0.0112 -6.39368,-1.30925 -1.61781,-0.60053 -3.5206,-1.39196 -5.65734,-2.43617 -2.13675,-1.04421 -4.5084,-2.34054 -7.02883,-3.99271 -10e-6,0 -10e-6,0 -10e-6,0 -1.84847,-1.18803 -3.82425,-2.60038 -5.76375,-4.37582 -1.93951,-1.77544 -3.84404,-3.91371 -5.4382,-6.60674 -1.23536,-2.10523 -2.14064,-4.65521 -2.2903,-7.56989 -0.0769,-2.93885 0.68798,-5.86361 2.17176,-8.40892 1.17458,-2.04108 2.01495,-4.38836 2.60814,-6.97715 0.59319,-2.58879 0.93913,-5.41928 1.18282,-8.38026 0,0 0,0 0,0 0.46424,-6.58658 -0.01,-13.67835 -1.14592,-21.08042 -1.13613,-7.31436 -2.94946,-14.84104 -5.54722,-22.34969 -2.17158,-6.23996 -4.81062,-12.42836 -8.28823,-18.14779 -0.23354,-0.3841 -0.47031,-0.7651 -0.71038,-1.14293 -2.28939,-3.65161 -3.49436,-7.79638 -3.61756,-11.94139 -0.0965,-4.3524 0.79655,-8.44569 2.22454,-12.09177 3.41317,-8.7317 9.12319,-15.70137 15.18332,-21.19111 3.33798,-3.0842 6.90297,-5.82645 10.60985,-8.13248 3.70687,-2.30602 7.55547,-4.1758 11.46269,-5.56367 3.66377,-1.31409 7.5308,-2.14022 11.40185,-2.22152 3.61577,-0.10038 7.28416,0.68385 10.49211,2.41635 5.46764,3.08413 9.5476,7.27555 12.34673,11.53763 3.02137,4.67456 4.63007,9.25152 5.54673,13.13055 0,0 0,10e-6 0,10e-6 0.83354,9.24055 0.90918,14.43804 0.10999,14.56878 z"
         style="fill:#000000;fill-rule:evenodd;stroke:none" />
    </g>
  </g>
</svg>
