<?xml version="1.0" encoding="UTF-8" standalone="no"?>
<!-- Created with Inkscape (http://www.inkscape.org/) -->

<svg
   xmlns:dc="http://purl.org/dc/elements/1.1/"
   xmlns:cc="http://creativecommons.org/ns#"
   xmlns:rdf="http://www.w3.org/1999/02/22-rdf-syntax-ns#"
   xmlns:svg="http://www.w3.org/2000/svg"
   xmlns="http://www.w3.org/2000/svg"
   xmlns:sodipodi="http://sodipodi.sourceforge.net/DTD/sodipodi-0.dtd"
   xmlns:inkscape="http://www.inkscape.org/namespaces/inkscape"
   width="241.24236"
   height="313.15308"
   id="svg3251"
   version="1.1"
   inkscape:version="0.48.3.1 r9886"
   sodipodi:docname="cara.svg">
  <defs
     id="defs3253">
    <inkscape:path-effect
       effect="skeletal"
       id="path-effect3197-6"
       is_visible="true"
       pattern="m -387.83592,-2295.0391 c 0,-2.76 2.23999,-5 4.99999,-5 2.76,0 5,2.24 5,5 0,2.76 -2.24,5 -5,5 -2.76,0 -4.99999,-2.24 -4.99999,-5 z"
       copytype="single_stretched"
       prop_scale="0.5"
       scale_y_rel="false"
       spacing="0"
       normal_offset="0"
       tang_offset="0"
       prop_units="false"
       vertical_pattern="false"
       fuse_tolerance="0" />
    <inkscape:path-effect
       effect="skeletal"
       id="path-effect3189-8-1"
       is_visible="true"
       pattern="m 838.95734,-2276.1936 c 0,-2.76 2.24,-5 5,-5 2.76,0 5,2.24 5,5 0,2.76 -2.24,5 -5,5 -2.76,0 -5,-2.24 -5,-5 z"
       copytype="single_stretched"
       prop_scale="0.5"
       scale_y_rel="false"
       spacing="0"
       normal_offset="0"
       tang_offset="0"
       prop_units="false"
       vertical_pattern="false"
       fuse_tolerance="0" />
    <inkscape:path-effect
       effect="skeletal"
       id="path-effect3193-4-2"
       is_visible="true"
       pattern="m 832.93614,-2357.9036 c 0,-2.76 2.24,-5 5,-5 2.76,0 5,2.24 5,5 0,2.76 -2.24,5 -5,5 -2.76,0 -5,-2.24 -5,-5 z"
       copytype="single_stretched"
       prop_scale="0.5"
       scale_y_rel="false"
       spacing="0"
       normal_offset="0"
       tang_offset="0"
       prop_units="false"
       vertical_pattern="false"
       fuse_tolerance="0" />
    <inkscape:path-effect
       effect="skeletal"
       id="path-effect3475"
       is_visible="true"
       pattern="m 1.0101525,3.9898475 c 0,-2.76 2.24,-5 5,-5 2.76,0 5.0000005,2.24 5.0000005,5 0,2.76 -2.2400005,5 -5.0000005,5 -2.76,0 -5,-2.24 -5,-5 z"
       copytype="single_stretched"
       prop_scale="0.5"
       scale_y_rel="false"
       spacing="0"
       normal_offset="0"
       tang_offset="0"
       prop_units="false"
       vertical_pattern="false"
       fuse_tolerance="0" />
  </defs>
  <sodipodi:namedview
     id="base"
     pagecolor="#ffffff"
     bordercolor="#666666"
     borderopacity="1.0"
     inkscape:pageopacity="0.0"
     inkscape:pageshadow="2"
     inkscape:zoom="0.98994949"
     inkscape:cx="330.32073"
     inkscape:cy="72.885326"
     inkscape:document-units="px"
     inkscape:current-layer="layer1"
     showgrid="false"
     fit-margin-top="0"
     fit-margin-left="0"
     fit-margin-right="0"
     fit-margin-bottom="0"
     inkscape:window-width="1914"
     inkscape:window-height="1030"
     inkscape:window-x="0"
     inkscape:window-y="25"
     inkscape:window-maximized="1" />
  <metadata
     id="metadata3256">
    <rdf:RDF>
      <cc:Work
         rdf:about="">
        <dc:format>image/svg+xml</dc:format>
        <dc:type
           rdf:resource="http://purl.org/dc/dcmitype/StillImage" />
        <dc:title />
      </cc:Work>
    </rdf:RDF>
  </metadata>
  <g
     inkscape:label="Capa 1"
     inkscape:groupmode="layer"
     id="layer1"
     transform="translate(85.634262,-446.74541)">
    <g
       id="g3856">
      <path
         sodipodi:nodetypes="zccccccccccccccccccccccccczzzz"
         inkscape:connector-curvature="0"
         id="path4009"
         d="m -48.757543,503.74144 c -5.877983,16.88474 -4.822951,60.60254 -4.822951,60.60254 l 0,12.9292 -12.929192,-9.6969 -11.313089,6.4646 -4.848442,17.77768 10.504975,12.12115 13.737298,25.05038 12.121157,2.42423 10.505006,58.18148 21.818051,46.86844 13.73730609,14.54538 28.28267991,8.88886 29.090715,-7.27272 19.393871,-22.62612 16.161531,-29.89884 16.969597,-54.1411 15.35345,0 7.27267,-11.31308 12.92923,-13.73731 8.08079,-7.27267 0,-21.01001 -13.73731,-4.84844 -11.31308,6.46459 -8.88887,15.35345 2.48167,-57.39893 c 0,0 5.93696,-50.02469 -6.48374,-65.42865 -12.42069,-15.40396 -34.370595,-28.89267 -55.795544,-33.98389 -21.424949,-5.09121 -62.8099674,-0.15276 -80.807641,10.54964 -17.997672,10.70241 -21.622155,23.5223 -27.500138,40.40704 z"
         style="opacity:1;fill:#fcdddd;fill-opacity:1;stroke:none;display:inline" />
      <path
         sodipodi:nodetypes="csssc"
         inkscape:connector-curvature="0"
         inkscape:original-d="m -55.534264,585.64298 c 0,0 15.16703,92.51878 18.200407,98.5856 3.033401,6.06677 13.144745,60.16245 40.9509304,67.74598 27.8061936,7.58349 53.0475216,3.50832 62.6903236,-8.08909 37.411933,-44.99548 56.623523,-155.71466 56.623523,-155.71466"
         inkscape:path-effect="#path-effect3197-6"
         id="path3195"
         d="m -55.534263,585.64299 c 0.596756,-0.10107 4.134827,17.46501 9.535019,46.76045 1.880629,9.91773 3.98733,21.17492 6.494492,33.4881 0.791019,3.8841 1.60981,7.8622 2.558817,11.89822 0.299754,1.27332 0.604625,2.53456 0.955012,3.77001 1e-6,0 3e-6,1e-5 4e-6,1e-5 0.11773,0.41387 0.234149,0.80817 0.361504,1.17789 0.09485,0.26003 0.15419,0.44394 0.209069,0.53416 0.352469,0.71174 0.588267,1.37301 0.779576,1.94411 0.317287,0.91822 0.601916,1.83185 0.877621,2.73147 0.783677,2.55424 1.536999,5.13647 2.328474,7.72152 2.114393,6.90116 4.475683,13.95972 7.448316,20.95786 3.10152,7.2769 6.756536,14.54873 11.813236,20.91099 2.2580502,2.84105 4.775042,5.48289 7.6528059,7.63053 2.6593409,1.98288 5.6307181,3.5671 8.7903331,4.41213 7.865393,2.12088 16.104877,3.54146 24.430624,3.7555 4.298005,0.1105 8.555039,-0.10397 12.730965,-0.68459 4.886806,-0.68191 9.620781,-1.84645 13.895451,-3.79673 3.552903,-1.63905 6.803507,-3.75123 9.095036,-6.53671 5.508713,-6.57378 10.05717,-13.66962 14.019139,-20.89125 3.961969,-7.22163 7.338319,-14.56811 10.421703,-21.72249 2e-6,0 4e-6,-10e-6 6e-6,-10e-6 3.956513,-9.20512 7.329826,-18.17321 10.291354,-26.7303 2.961526,-8.55709 5.511426,-16.7031 7.769836,-24.2939 5.24053,-17.61706 8.86935,-32.25748 11.41005,-42.70016 2.60818,-11.48696 4.23356,-17.86508 4.5958,-17.80916 0,0 0,0 0,0 0,0 0,0 0,0 0,0 0,0 0,0 0,0 0,0 0,0 0,0 0,0 1e-5,0 0,0 0,0 0,0 9.3e-4,1.7e-4 9.3e-4,1.7e-4 9.3e-4,1.7e-4 0,0 0,0 9.3e-4,1.8e-4 0,0 0,0 0,0 0,0 0,0 0,0 0,0 0,0 0,0 0,0 0,0 0,0 1e-5,0 1e-5,0 1e-5,0 0,0 0,0 0,0 0.35779,0.0783 -0.584,6.58601 -2.58331,18.22627 -1.98762,10.59221 -5.12927,25.41513 -9.98385,43.26209 -2.08944,7.68315 -4.49213,15.93544 -7.33444,24.61928 -2.84232,8.68385 -6.124488,17.79929 -10.023511,27.17722 -2e-6,10e-6 -4e-6,10e-6 -5e-6,2e-5 -3.016098,7.27456 -6.380069,14.78834 -10.399923,22.23718 -4.019854,7.44884 -8.696622,14.83195 -14.414115,21.75998 -2.9406,3.5072 -6.767224,6.08612 -10.811317,7.9093 -4.832557,2.20023 -10.027934,3.51329 -15.26598,4.23203 -4.464176,0.61463 -8.991962,0.84592 -13.540234,0.73411 -8.810543,-0.2166 -17.443602,-1.70809 -25.6110442,-3.95979 -3.8653311,-1.07087 -7.3862398,-2.94187 -10.4468862,-5.26673 -3.2906536,-2.49781 -6.0920506,-5.44665 -8.5154636,-8.55355 -5.401957,-6.9258 -9.211239,-14.58751 -12.311794,-22.10962 -2.999485,-7.25216 -5.336854,-14.4833 -7.386918,-21.49396 -0.770743,-2.63372 -1.489841,-5.22405 -2.227553,-7.75158 -0.260872,-0.89266 -0.517332,-1.7609 -0.793861,-2.59746 -0.19494,-0.57031 -0.346118,-1.05145 -0.529023,-1.41045 -0.207063,-0.43367 -0.339218,-0.80478 -0.428993,-1.09862 -0.157219,-0.48397 -0.289234,-0.95264 -0.408699,-1.40211 -1e-6,-1e-5 -2e-6,-1e-5 -3e-6,-2e-5 -0.358801,-1.34587 -0.658939,-2.67244 -0.941884,-3.96975 -0.901541,-4.12781 -1.66028,-8.15859 -2.381081,-12.06592 -2.289574,-12.40767 -4.138725,-23.73083 -5.731432,-33.70542 -4.548232,-29.4471 -6.991558,-47.19944 -6.394803,-47.3005 z"
         style="opacity:0.9;fill:#000000;fill-rule:evenodd;stroke:none;display:inline" />
      <path
         inkscape:connector-curvature="0"
         inkscape:original-d="m 128.48223,596.81108 c 0,0 5.50627,-8.55557 14.55329,-7.57279 9.04696,0.9828 15.637,24.58302 5.48682,29.07437 -10.15019,4.4913 -21.67658,16.96981 -22.04757,25.06618 -0.37097,8.09635 -16.29069,4.84137 -16.29069,4.84137"
         inkscape:path-effect="#path-effect3189-8-1"
         id="path3187-7"
         d="m 128.48227,596.81101 c -0.0243,-0.0166 -0.0425,-0.0423 -0.0547,-0.0767 0,0 0,0 0,0 -0.0114,-0.0324 -0.0174,-0.0728 -0.0175,-0.12082 -3.8e-4,-0.0942 0.0213,-0.21819 0.0663,-0.36935 0,0 0,0 0,0 0,0 0,0 0,0 0.0873,-0.29179 0.26274,-0.68821 0.53802,-1.16746 0,0 0,0 0,0 0.50293,-0.87617 1.34119,-2.05133 2.65679,-3.3119 0,0 0,0 0,0 1.12046,-1.07893 2.6261,-2.20498 4.56128,-3.06527 1.93517,-0.86029 4.30488,-1.45618 7.00219,-1.29357 0,0 0,0 0,0 1.56079,0.18699 3.03205,0.76738 4.33133,1.63711 1.29928,0.86974 2.42635,2.02912 3.29505,3.28804 0,0 0,0 0,0 0,0 0,0 1e-5,0 0,0 0,0 0,0 2.03099,2.70492 3.53605,6.02104 4.40331,9.60444 0,0 0,0 0,0 0.81927,3.21385 1.17691,6.87132 0.35659,10.63882 0,0 0,0 0,0 -0.34232,1.57791 -0.98063,3.19659 -2.02586,4.69278 0,0 0,0 0,0 -1.01164,1.42071 -2.40141,2.58657 -4.06111,3.33155 -0.16281,0.0714 -0.32523,0.14436 -0.48725,0.21883 -5.31668,2.44349 -9.77114,6.29071 -13.46208,10.24409 -2.013,2.18139 -3.73791,4.39493 -5.04186,6.64475 -1.14505,2.04549 -2.01783,3.96547 -2.15132,5.76028 -0.0805,1.23852 -0.50754,2.44314 -1.23291,3.46334 -0.74844,0.98941 -1.66153,1.66391 -2.58064,2.09884 -1.19426,0.54814 -2.35146,0.8344 -3.42735,0.98686 -1.07588,0.15246 -2.07083,0.17075 -2.96537,0.14004 -5.16279,-0.77785 -8.0487,-1.45059 -8.00167,-1.93061 0,-1e-5 0,-1e-5 0,-1e-5 6.2e-4,-0.005 6.4e-4,-0.005 6.4e-4,-0.005 0,0 -2e-5,-10e-6 7.4e-4,-0.005 0,0 0,0 0,0 0.0869,-0.47697 3.0715,-0.69959 8.0355,-0.70098 1.59637,-0.2299 3.38032,-0.50749 4.75706,-1.44642 0.51119,-0.33818 0.96656,-0.7314 1.20359,-1.17934 0.25763,-0.41354 0.37313,-0.98975 0.37719,-1.59756 0.0698,-2.64189 0.9498,-5.2805 2.19683,-7.64103 1.37215,-2.67934 3.1981,-5.27785 5.32316,-7.72393 3.80733,-4.43169 8.71928,-8.77467 14.86849,-11.64217 0.18739,-0.0874 0.37545,-0.17316 0.56415,-0.25728 0.79581,-0.34156 1.51309,-0.94674 2.03792,-1.66543 0,0 0,0 0,0 0.59526,-0.78801 0.98673,-1.81354 1.26915,-2.90915 0,0 0,0 0,0 0.69352,-2.71083 0.43413,-5.66368 -0.12642,-8.46805 0,0 0,0 0,0 -0.66606,-3.1044 -1.755,-5.92162 -3.27861,-8.18673 0,0 0,0 0,0 0,0 0,-10e-6 -1e-5,-10e-6 0,0 0,0 0,0 -0.7283,-0.97402 -1.4714,-1.89213 -2.23267,-2.56277 -0.76126,-0.67063 -1.54087,-1.09408 -2.34368,-1.16386 0,0 0,0 0,0 -1.95537,-0.34282 -3.86241,-0.0608 -5.52426,0.45389 -1.66185,0.51466 -3.0823,1.26458 -4.22613,2.00314 0,0 0,0 0,0 -1.36274,0.88926 -2.37581,1.74635 -3.11304,2.35164 0,0 0,0 0,0 -0.40329,0.33135 -0.72141,0.58775 -0.96468,0.75125 0,0 0,0 0,0 0,0 0,0 0,0 -0.12711,0.0858 -0.23317,0.14545 -0.31945,0.1771 -0.044,0.0161 -0.0828,0.025 -0.11651,0.0261 0,0 0,0 0,0 -0.0357,0.001 -0.0658,-0.006 -0.0901,-0.0227 z"
         style="opacity:0.9;fill:#000000;fill-rule:evenodd;stroke:none;display:inline" />
      <path
         inkscape:connector-curvature="0"
         inkscape:original-d="m -54.795811,576.48394 c -2.022292,-1.01114 -12.63918,-12.1336 -19.211557,-7.58349 -6.572369,4.55011 -14.661463,25.7839 -5.56126,28.31176 9.100204,2.52786 18.705982,24.26724 20.222699,29.32291 1.516725,5.05567 14.155904,6.06678 14.155904,6.06678"
         inkscape:path-effect="#path-effect3193-4-2"
         id="path3191-6"
         d="m -54.795811,576.48394 c -0.04369,0.0874 -0.200629,0.12206 -0.463023,0.0663 -0.262395,-0.0557 -0.626978,-0.21884 -1.025497,-0.42316 -0.543553,-0.27798 -1.220761,-0.68604 -2.015363,-1.18315 -1.351596,-0.84517 -3.060832,-1.99187 -5.162648,-3.11412 -10e-7,0 -2e-6,0 -2e-6,0 -1.62612,-0.85666 -3.450117,-1.76202 -5.430859,-2.05403 -1.421851,-0.18604 -3.011691,-0.0615 -3.965635,0.78363 -1.592981,1.14417 -2.815059,3.14893 -4.130139,5.44792 -10e-7,0 -10e-7,0 -2e-6,0 -1.385682,2.54594 -2.552474,5.38864 -3.350986,8.44795 -0.629361,2.57688 -1.141081,5.16726 -0.672635,7.48218 0.178785,0.8268 0.397794,1.5609 0.783681,1.99996 0.185357,0.2617 0.472121,0.48921 0.802337,0.6582 0.16795,0.086 0.346269,0.15633 0.526934,0.20826 3.573379,1.1138 6.101253,3.46745 7.953117,5.70854 2.61866,2.99744 4.62884,6.18949 6.331068,9.24613 1.848663,3.30537 3.364553,6.53653 4.617672,9.57602 10e-7,0 10e-7,0 10e-7,0 0.937329,2.26106 1.800468,4.50042 2.360222,6.68801 0.03583,0.78496 0.987917,1.53151 1.918686,2.23687 1.379925,0.94722 2.906022,1.53011 4.264099,2.02695 3.995773,1.05953 6.300041,1.87621 6.265397,2.30993 0,0 0,0 0,0 -6.18e-4,0.006 -6.39e-4,0.006 -6.39e-4,0.006 0,0 2.2e-5,10e-6 -7.71e-4,0.006 0,0 0,0 0,0 -0.07488,0.42668 -2.496949,0.41654 -6.779281,0.0279 -1.533947,-0.26841 -3.353494,-0.69117 -5.31048,-1.66936 -1.384468,-0.63055 -2.934507,-1.78653 -3.773733,-3.91836 -0.657163,-1.86876 -1.614984,-3.84651 -2.679667,-6.03016 0,0 -1e-6,0 -1e-6,0 -1.396325,-2.8426 -3.002516,-5.85554 -4.877521,-8.92458 -1.747219,-2.84834 -3.663199,-5.73572 -6.007932,-8.30654 -1.828684,-1.88799 -3.612393,-3.72985 -5.618197,-4.16584 -0.518529,-0.14229 -1.021319,-0.34016 -1.499904,-0.5912 -0.940978,-0.49358 -1.779403,-1.18813 -2.457551,-2.05367 -0.991903,-1.35955 -1.517095,-2.82117 -1.718474,-4.1893 -0.542152,-3.51988 0.06562,-6.79262 0.923077,-9.6123 0.996101,-3.45446 2.431349,-6.61862 4.121941,-9.40488 0,0 1e-6,0 1e-6,0 1.42722,-2.45432 3.272841,-4.87996 5.71262,-6.5277 2.369025,-1.45538 4.931952,-1.53602 7.014651,-0.97007 2.620763,0.69536 4.613912,1.94632 6.212976,3.11222 1e-6,0 2e-6,0 2e-6,0 2.108676,1.51823 3.642764,2.9816 4.774902,4.1376 0.669935,0.68289 1.186923,1.25826 1.572985,1.71399 0.316871,0.36031 0.502429,0.63281 0.633473,0.83016 0.131043,0.19735 0.194791,0.33119 0.151098,0.41858 z"
         style="opacity:0.9;fill:#000000;fill-rule:evenodd;stroke:none;display:inline" />
      <path
         inkscape:connector-curvature="0"
         inkscape:original-d="m -53.049605,577.95992 c 0,0 -11.357711,-60.03363 6.49013,-90.05045 17.847833,-30.01682 64.901227,-42.99707 89.239187,-38.12947 24.337962,4.86759 71.391348,12.98024 77.881478,43.80832 6.49012,30.82809 1.62253,99.78565 1.62253,99.78565"
         inkscape:path-effect="#path-effect3475"
         id="path3473"
         d="m -53.049608,577.95991 c -0.5211,0.0532 -2.278485,-12.37585 -4.856764,-33.68973 -0.220242,-4.29317 -0.339307,-8.96128 -0.228805,-13.96216 0.110501,-5.00089 0.450159,-10.33481 1.202791,-15.94156 0,0 1e-6,-10e-6 1e-6,-10e-6 0.582035,-4.38359 1.419016,-8.98238 2.751186,-13.63689 1.33217,-4.65451 3.159493,-9.36493 5.795366,-13.90603 4.445835,-7.58423 10.86805,-14.41396 18.514032,-20.0756 7.278818,-5.39971 15.638582,-9.84614 24.647684,-13.25269 8.1265774,-3.07924 16.829683,-5.36338 25.898165,-6.49743 7.249596,-0.92258 14.889694,-1.17115 22.495954,0.33074 0.0905,0.0181 0.181015,0.0362 0.271557,0.0543 7.192994,1.43688 14.345092,2.83639 21.348266,4.54622 8.449393,2.06036 16.694414,4.53047 24.454577,7.77969 7.853347,3.27212 15.302398,7.44009 21.394248,12.99073 3.05686,2.78495 5.68516,5.98336 7.73762,9.43869 2.05246,3.45534 3.52904,7.1675 4.32483,10.99967 0,10e-6 0,10e-6 0,2e-5 1.03273,5.10293 1.64558,10.10045 2.04862,14.94157 0.40305,4.84112 0.59628,9.52589 0.73596,14.01649 0.39169,12.36428 0.15985,23.44965 -0.18788,32.9764 -1.43561,24.0792 -2.55425,38.31182 -3.11282,38.30174 0,0 0,0 0,0 0,0 0,0 -10e-6,0 0,0 0,0 0,0 0,0 0,0 0,0 0,0 0,0 0,0 0,0 0,0 0,0 -0.001,-6e-5 -0.001,-6e-5 -0.001,-6e-5 0,0 0,0 -0.001,-8e-5 0,0 0,0 0,0 0,0 0,0 0,0 0,0 0,0 0,0 0,0 0,0 0,0 0,0 0,0 0,0 -10e-6,0 -10e-6,0 -10e-6,0 -0.55676,-0.0529 -0.46862,-14.33649 0.13283,-38.39334 0.0176,-9.4934 -0.0488,-20.50648 -0.69617,-32.7212 -0.23874,-4.46086 -0.51854,-9.07919 -0.99175,-13.80226 -0.47321,-4.72308 -1.1398,-9.55087 -2.20609,-14.41825 0,0 0,-10e-6 0,-10e-6 -0.7081,-3.31127 -2.04936,-6.53962 -3.91148,-9.56531 -1.86212,-3.02569 -4.24504,-5.84868 -6.99503,-8.32861 -5.57491,-5.02723 -12.585058,-8.82751 -20.1324,-11.95568 -7.458607,-3.07546 -15.465285,-5.42501 -23.765003,-7.43152 -6.860242,-1.65638 -13.944737,-3.03012 -21.155671,-4.4718 -0.09077,-0.0181 -0.181526,-0.0363 -0.272274,-0.0545 -6.841857,-1.38774 -13.956393,-1.1333 -20.906757,-0.30307 -8.645918,1.05257 -16.9838814,3.20105 -24.8059062,6.10253 -8.6623628,3.22026 -16.6727718,7.37948 -23.6226178,12.42894 -7.278458,5.29851 -13.387793,11.57997 -17.587258,18.53556 -2.506071,4.10672 -4.27984,8.47641 -5.616723,12.86497 -1.336883,4.38857 -2.236756,8.79609 -2.92164,13.04345 -1e-6,0 -2e-6,0 -2e-6,10e-6 -0.863261,5.40159 -1.331946,10.58054 -1.584748,15.46438 -0.252802,4.88383 -0.289285,9.4727 -0.233354,13.71289 1.771953,21.30608 2.561077,33.82561 2.039976,33.8788 0,0 0,0 0,0 z"
         style="opacity:0.9;fill:#000000;fill-rule:evenodd;stroke:none" />
    </g>
  </g>
</svg>
