<?xml version="1.0" encoding="UTF-8" standalone="no"?>
<!-- Created with Inkscape (http://www.inkscape.org/) -->

<svg
   xmlns:dc="http://purl.org/dc/elements/1.1/"
   xmlns:cc="http://creativecommons.org/ns#"
   xmlns:rdf="http://www.w3.org/1999/02/22-rdf-syntax-ns#"
   xmlns:svg="http://www.w3.org/2000/svg"
   xmlns="http://www.w3.org/2000/svg"
   xmlns:sodipodi="http://sodipodi.sourceforge.net/DTD/sodipodi-0.dtd"
   xmlns:inkscape="http://www.inkscape.org/namespaces/inkscape"
   width="688.5672"
   height="967.31793"
   id="svg4068"
   version="1.1"
   inkscape:version="0.48.3.1 r9886"
   sodipodi:docname="cara_4.svg">
  <defs
     id="defs4070">
    <inkscape:path-effect
       effect="skeletal"
       id="path-effect6574"
       is_visible="true"
       pattern="m -14069.21,-1265.6489 c 0,-2.76 2.24,-5 5,-5 2.76,0 5,2.24 5,5 0,2.76 -2.24,5 -5,5 -2.76,0 -5,-2.24 -5,-5 z"
       copytype="single_stretched"
       prop_scale="1"
       scale_y_rel="false"
       spacing="0"
       normal_offset="0"
       tang_offset="0"
       prop_units="false"
       vertical_pattern="false"
       fuse_tolerance="0" />
    <inkscape:path-effect
       effect="skeletal"
       id="path-effect5543"
       is_visible="true"
       pattern="m -13870.71,-1632.2205 c 0,-2.76 2.24,-5 5,-5 2.76,0 5,2.24 5,5 0,2.76 -2.24,5 -5,5 -2.76,0 -5,-2.24 -5,-5 z"
       copytype="single_stretched"
       prop_scale="1"
       scale_y_rel="false"
       spacing="0"
       normal_offset="0"
       tang_offset="0"
       prop_units="false"
       vertical_pattern="false"
       fuse_tolerance="0" />
    <inkscape:path-effect
       effect="skeletal"
       id="path-effect6549"
       is_visible="true"
       pattern="m -9698.7475,1895.3113 c 0,-2.76 2.24,-5 5,-5 2.76,0 5,2.24 5,5 0,2.76 -2.24,5 -5,5 -2.76,0 -5,-2.24 -5,-5 z"
       copytype="single_stretched"
       prop_scale="1"
       scale_y_rel="false"
       spacing="0"
       normal_offset="0"
       tang_offset="0"
       prop_units="false"
       vertical_pattern="false"
       fuse_tolerance="0" />
    <inkscape:path-effect
       effect="skeletal"
       id="path-effect3189-8-4-9-7-6-9-2-2-9-8"
       is_visible="true"
       pattern="m 6237.6376,1770.428 c 0,-2.76 2.24,-4.9999 5,-4.9999 2.76,0 5,2.2399 5,4.9999 0,2.76 -2.24,5 -5,5 -2.76,0 -5,-2.24 -5,-5 z"
       copytype="single_stretched"
       prop_scale="1"
       scale_y_rel="false"
       spacing="0"
       normal_offset="0"
       tang_offset="0"
       prop_units="false"
       vertical_pattern="false"
       fuse_tolerance="0" />
    <inkscape:path-effect
       effect="skeletal"
       id="path-effect3189-8-4-9-7-6-9-2-2-9-8-3"
       is_visible="true"
       pattern="m 6757.667,1749.1885 c 0,-2.76 2.24,-4.9999 5,-4.9999 2.76,0 5,2.2399 5,4.9999 0,2.76 -2.24,5 -5,5 -2.76,0 -5,-2.24 -5,-5 z"
       copytype="single_stretched"
       prop_scale="1"
       scale_y_rel="false"
       spacing="0"
       normal_offset="0"
       tang_offset="0"
       prop_units="false"
       vertical_pattern="false"
       fuse_tolerance="0" />
    <inkscape:path-effect
       effect="skeletal"
       id="path-effect3093-0"
       is_visible="true"
       pattern="m 7506.6858,594.57527 c 0,-2.76 2.24,-5 5,-5 2.76,0 5,2.24 5,5 0,2.76 -2.24,5 -5,5 -2.76,0 -5,-2.24 -5,-5 z"
       copytype="single_stretched"
       prop_scale="1"
       scale_y_rel="false"
       spacing="0"
       normal_offset="0"
       tang_offset="0"
       prop_units="false"
       vertical_pattern="false"
       fuse_tolerance="0" />
    <inkscape:path-effect
       effect="skeletal"
       id="path-effect3189-5"
       is_visible="true"
       pattern="m 7506.6858,594.57527 c 0,-2.76 2.24,-5 5,-5 2.76,0 5,2.24 5,5 0,2.76 -2.24,5 -5,5 -2.76,0 -5,-2.24 -5,-5 z"
       copytype="single_stretched"
       prop_scale="1"
       scale_y_rel="false"
       spacing="0"
       normal_offset="0"
       tang_offset="0"
       prop_units="false"
       vertical_pattern="false"
       fuse_tolerance="0" />
    <inkscape:path-effect
       effect="skeletal"
       id="path-effect3193-1"
       is_visible="true"
       pattern="m 7506.6858,594.57527 c 0,-2.76 2.24,-5 5,-5 2.76,0 5,2.24 5,5 0,2.76 -2.24,5 -5,5 -2.76,0 -5,-2.24 -5,-5 z"
       copytype="single_stretched"
       prop_scale="1"
       scale_y_rel="false"
       spacing="0"
       normal_offset="0"
       tang_offset="0"
       prop_units="false"
       vertical_pattern="false"
       fuse_tolerance="0" />
    <inkscape:path-effect
       effect="skeletal"
       id="path-effect4306"
       is_visible="true"
       pattern="M 0,5 C 0,2.24 2.24,0 5,0 7.76,0 10,2.24 10,5 10,7.76 7.76,10 5,10 2.24,10 0,7.76 0,5 z"
       copytype="single_stretched"
       prop_scale="1"
       scale_y_rel="false"
       spacing="0"
       normal_offset="0"
       tang_offset="0"
       prop_units="false"
       vertical_pattern="false"
       fuse_tolerance="0" />
    <inkscape:path-effect
       effect="skeletal"
       id="path-effect3093-0-8"
       is_visible="true"
       pattern="m 7506.6858,594.57527 c 0,-2.76 2.24,-5 5,-5 2.76,0 5,2.24 5,5 0,2.76 -2.24,5 -5,5 -2.76,0 -5,-2.24 -5,-5 z"
       copytype="single_stretched"
       prop_scale="1"
       scale_y_rel="false"
       spacing="0"
       normal_offset="0"
       tang_offset="0"
       prop_units="false"
       vertical_pattern="false"
       fuse_tolerance="0" />
    <inkscape:path-effect
       effect="skeletal"
       id="path-effect3189-5-8"
       is_visible="true"
       pattern="m 7506.6858,594.57527 c 0,-2.76 2.24,-5 5,-5 2.76,0 5,2.24 5,5 0,2.76 -2.24,5 -5,5 -2.76,0 -5,-2.24 -5,-5 z"
       copytype="single_stretched"
       prop_scale="1"
       scale_y_rel="false"
       spacing="0"
       normal_offset="0"
       tang_offset="0"
       prop_units="false"
       vertical_pattern="false"
       fuse_tolerance="0" />
    <inkscape:path-effect
       effect="skeletal"
       id="path-effect3193-1-3"
       is_visible="true"
       pattern="m 7506.6858,594.57527 c 0,-2.76 2.24,-5 5,-5 2.76,0 5,2.24 5,5 0,2.76 -2.24,5 -5,5 -2.76,0 -5,-2.24 -5,-5 z"
       copytype="single_stretched"
       prop_scale="1"
       scale_y_rel="false"
       spacing="0"
       normal_offset="0"
       tang_offset="0"
       prop_units="false"
       vertical_pattern="false"
       fuse_tolerance="0" />
    <inkscape:path-effect
       effect="skeletal"
       id="path-effect4306-2"
       is_visible="true"
       pattern="M 0,5 C 0,2.24 2.24,0 5,0 7.76,0 10,2.24 10,5 10,7.76 7.76,10 5,10 2.24,10 0,7.76 0,5 z"
       copytype="single_stretched"
       prop_scale="1"
       scale_y_rel="false"
       spacing="0"
       normal_offset="0"
       tang_offset="0"
       prop_units="false"
       vertical_pattern="false"
       fuse_tolerance="0" />
    <inkscape:path-effect
       effect="skeletal"
       id="path-effect4589-2"
       is_visible="true"
       pattern="m -2308.1973,-1921.5857 c 0,-2.76 2.24,-5 5,-5 2.76,0 5,2.24 5,5 0,2.76 -2.24,5 -5,5 -2.76,0 -5,-2.24 -5,-5 z"
       copytype="single_stretched"
       prop_scale="1"
       scale_y_rel="false"
       spacing="0"
       normal_offset="0"
       tang_offset="0"
       prop_units="false"
       vertical_pattern="false"
       fuse_tolerance="0" />
    <inkscape:path-effect
       effect="skeletal"
       id="path-effect3189-8-4-9-6-1"
       is_visible="true"
       pattern="m 3530.2326,-1895.9213 c 0,-2.76 2.24,-5 5,-5 2.76,0 5,2.24 5,5 0,2.76 -2.24,5 -5,5 -2.76,0 -5,-2.24 -5,-5 z"
       copytype="single_stretched"
       prop_scale="1"
       scale_y_rel="false"
       spacing="0"
       normal_offset="0"
       tang_offset="0"
       prop_units="false"
       vertical_pattern="false"
       fuse_tolerance="0" />
    <inkscape:path-effect
       effect="skeletal"
       id="path-effect3189-8-4-9-7-6-9"
       is_visible="true"
       pattern="m 2449.2402,-1865.9631 c 0,-2.76 2.24,-5 5,-5 2.76,0 5,2.24 5,5 0,2.76 -2.24,5 -5,5 -2.76,0 -5,-2.24 -5,-5 z"
       copytype="single_stretched"
       prop_scale="1"
       scale_y_rel="false"
       spacing="0"
       normal_offset="0"
       tang_offset="0"
       prop_units="false"
       vertical_pattern="false"
       fuse_tolerance="0" />
  </defs>
  <sodipodi:namedview
     id="base"
     pagecolor="#ffffff"
     bordercolor="#666666"
     borderopacity="1.0"
     inkscape:pageopacity="0.0"
     inkscape:pageshadow="2"
     inkscape:zoom="0.35000001"
     inkscape:cx="554.28835"
     inkscape:cy="39.084031"
     inkscape:document-units="px"
     inkscape:current-layer="layer1"
     showgrid="false"
     fit-margin-top="0"
     fit-margin-left="0"
     fit-margin-right="0"
     fit-margin-bottom="0"
     inkscape:window-width="1914"
     inkscape:window-height="1030"
     inkscape:window-x="0"
     inkscape:window-y="25"
     inkscape:window-maximized="1" />
  <metadata
     id="metadata4073">
    <rdf:RDF>
      <cc:Work
         rdf:about="">
        <dc:format>image/svg+xml</dc:format>
        <dc:type
           rdf:resource="http://purl.org/dc/dcmitype/StillImage" />
        <dc:title />
      </cc:Work>
    </rdf:RDF>
  </metadata>
  <g
     inkscape:label="Capa 1"
     inkscape:groupmode="layer"
     id="layer1"
     transform="translate(-59.943703,-261.86475)">
    <g
       id="g5637">
      <path
         inkscape:connector-curvature="0"
         id="path4785"
         d="m 151.3706,518.0353 4.0406,167.6853 -28.2842,-28.2843 -32.3249,-4.0406 -22.2234,44.4467 -8.0812,28.2843 34.3452,42.4264 14.1421,28.2843 0,30.3046 32.3249,26.2639 22.2234,-6.0609 38.3858,179.8072 44.4467,107.0761 c 0,0 56.5685,58.5889 68.6904,64.6498 12.1218,6.0609 74.7512,30.3046 74.7512,30.3046 l 86.8732,-10.1015 68.6903,-44.4468 58.5889,-84.8528 c 0,0 36.3655,-117.1777 36.3655,-143.4416 0,-26.264 4.0406,-139.4011 4.0406,-139.4011 l 20.203,34.3452 38.3858,-26.264 c 0,0 -8.0812,-38.3858 4.0406,-54.5482 12.1219,-16.1624 30.3046,-60.6092 30.3046,-60.6092 0,0 8.0812,-28.2842 -8.0812,-42.4264 -16.1624,-14.1421 -32.3249,-44.4467 -44.4467,-30.3045 -12.1218,14.1421 -28.2843,40.4061 -28.2843,40.4061 L 626.9871,422.9339 C 562.1981,293.6399 460.1282,266.6399 400.5294,261.8975 355.2382,260.6894 282.9109,293.304 282.9109,293.304 c 0,0 -77.2491,55.1359 -81.2898,65.2374 -26.6853,56.6807 -48.8159,83.239 -50.2505,159.4939 z"
         style="fill:#fce2e2;fill-opacity:1;stroke:none;display:inline"
         sodipodi:nodetypes="cccccccccccccsccccscccscsscccccc" />
      <path
         sodipodi:nodetypes="zsssssz"
         inkscape:connector-curvature="0"
         inkscape:original-d="M 413.6011,265.8093 C 236.1479,266.63 160.4304,379.3172 150.5116,525.4706 c -7.6246,112.3479 0.4212,270.2923 28.4083,389.2578 30.3809,129.141 57.0027,282.593 206.4063,305.902 186.3691,29.0761 247.6014,-142.9779 260.0993,-277.0005 12.3343,-132.2688 20.2056,-338.6405 4.6715,-426.0508 -9.1183,-51.3084 -59.0426,-252.5905 -236.4959,-251.7698 z"
         inkscape:path-effect="#path-effect4589-2"
         id="path4587-8"
         d="m 413.6011,265.8093 c 8.8e-4,0.19122 -2.62296,0.36837 -7.72571,0.674 -5.10275,0.30562 -12.69167,0.73632 -22.57183,1.73728 -9.88016,1.00096 -22.063,2.56419 -36.1618,5.52544 -14.09881,2.96126 -30.12687,7.31029 -47.3182,14.41238 -12.86492,5.31006 -26.32565,12.24678 -39.69317,21.25777 -13.36752,9.01098 -26.64649,20.09911 -38.80455,33.6302 -9.70982,10.79207 -18.68556,23.07997 -26.66059,36.72846 -7.97504,13.6485 -14.9489,28.65922 -20.68252,44.71457 -5.43977,15.23647 -9.80384,31.40286 -13.08053,48.34116 -3.27668,16.93829 -5.46549,34.64888 -6.64296,52.89442 -1.87268,29.14332 -2.61504,59.60863 -2.40573,91.21945 0.2148,32.33623 1.43897,65.85804 3.82207,100.38606 2.27939,33.0184 5.60598,66.95073 10.42624,101.56891 4.33986,31.15934 9.84641,62.87231 17.39796,94.75157 7.69043,32.4691 14.92778,65.64061 24.13818,98.78923 8.74898,31.4457 19.1314,63.0017 34.2435,92.6982 7.00997,13.7834 15.04265,27.1298 24.44138,39.5192 9.08598,11.9776 19.4592,23.0734 31.15246,32.6556 11.8786,9.7422 25.15244,17.9303 39.35363,24.2131 15.5317,6.8804 32.19529,11.4951 49.26793,14.1644 5.75586,0.8946 11.5475,1.6209 17.35943,2.1533 15.24992,1.3969 30.50506,1.4446 45.48669,-0.2364 17.98761,-2.0134 35.5866,-6.5383 51.88487,-13.7063 15.33948,-6.7351 29.55269,-15.8098 42.17987,-26.5732 12.73102,-10.8464 23.88333,-23.4111 33.56063,-36.9048 20.57865,-28.6668 34.50612,-61.2759 44.52211,-94.2786 10.32109,-34.0747 16.40892,-68.75206 19.65495,-102.95122 3.54949,-37.45645 6.19631,-74.142 8.29511,-109.89823 2.41637,-41.17246 4.07027,-81.099 4.93274,-119.59675 0.86321,-38.56697 0.97135,-75.6794 -0.23224,-111.12749 -0.54096,-15.92773 -1.34794,-31.50368 -2.62052,-46.68668 -1.08332,-12.9037 -2.46341,-25.49644 -4.57981,-37.67322 -3.69905,-21.31528 -9.15829,-41.56185 -15.46066,-60.66941 -5.19781,-15.74273 -11.05072,-30.69454 -17.49998,-44.70777 -6.44925,-14.01324 -13.49432,-27.08858 -21.02759,-39.15681 -9.4541,-15.14721 -19.68984,-28.66343 -30.40665,-40.36652 -10e-6,-1e-5 -2e-5,-2e-5 -3e-5,-3e-5 -12.67098,-13.83652 -26.00831,-25.12163 -39.184,-33.9382 -8.65698,-5.79433 -17.24644,-10.53104 -25.50081,-14.39509 -8.25437,-3.86405 -16.17498,-6.85669 -23.57642,-9.1842 -9.08828,-2.9821 -17.38287,-4.93147 -24.66639,-6.28773 -7.28352,-1.35627 -13.55953,-2.11858 -18.70978,-2.60262 -5.15025,-0.48404 -9.1776,-0.68937 -12.0145,-0.81758 -2.83691,-0.12821 -4.48515,-0.17945 -4.89263,-0.24354 -1.5e-4,-0.0323 -1.5e-4,-0.0323 -1.5e-4,-0.0323 0,0 0,-4e-5 -1.5e-4,-0.0323 0.4071,-0.0679 2.05709,-0.15159 4.91027,-0.18351 2.85319,-0.0319 6.9113,-0.012 12.11944,0.2443 5.20813,0.25631 11.56909,0.74848 18.97838,1.78228 7.4093,1.0338 15.87045,2.60831 25.18147,5.16176 7.58363,2.18087 15.71627,5.04641 24.21136,8.81325 8.4951,3.76684 17.35397,8.43623 26.30522,14.20627 13.6169,8.77971 27.43186,20.09717 40.56317,34.05122 10e-6,1e-5 2e-5,2e-5 3e-5,3e-5 11.10362,11.7988 21.72423,25.4497 31.5266,40.76187 7.8062,12.19533 15.11963,25.41636 21.82247,39.58795 6.70284,14.17159 12.79456,29.29441 18.20481,45.21375 6.56488,19.2975 12.2821,39.82191 16.22915,61.53093 2.26196,12.46025 3.76739,25.2639 4.95049,38.28298 1.39559,15.33479 2.318,31.03528 2.96524,47.04975 1.44069,35.6372 1.55019,72.91307 0.88149,111.58681 -0.66688,38.61383 -2.14399,78.65683 -4.40419,119.9394 -1.96242,35.84936 -4.49053,72.65413 -7.94077,110.2603 -3.18104,34.72238 -9.2969,70.03617 -19.75486,104.87067 -10.11263,33.7494 -24.44062,67.3336 -45.76397,97.224 -10.05441,14.081 -21.73017,27.2489 -35.13771,38.7135 -13.31692,11.3815 -28.339,20.9837 -44.60958,28.1492 -17.29601,7.6051 -35.86388,12.4023 -54.78635,14.5149 -15.74175,1.7534 -31.67231,1.7174 -47.50863,0.2698 -6.03541,-0.5518 -12.03687,-1.3064 -17.98894,-2.2383 -17.83786,-2.7772 -35.33667,-7.6441 -51.76827,-14.9149 -15.02778,-6.6578 -29.05915,-15.3261 -41.6268,-25.648 -12.35503,-10.1554 -23.25519,-21.8223 -32.73798,-34.3674 -9.80113,-12.9667 -18.12666,-26.8211 -25.32487,-41.0454 -15.48735,-30.6224 -26.0407,-62.7933 -34.77969,-94.5764 -9.22946,-33.52177 -16.40957,-66.82035 -23.97791,-99.21216 -7.53957,-32.26895 -12.9908,-64.28415 -17.23817,-95.67079 -4.72096,-34.87631 -7.92253,-69.02739 -10.0547,-102.22974 -2.2302,-34.72077 -3.28085,-68.42554 -3.30449,-100.93106 -0.0238,-31.77191 0.92529,-62.42295 3.02129,-91.75794 1.3179,-18.52379 3.68691,-36.52854 7.17212,-53.76413 3.4852,-17.23558 8.08607,-33.70236 13.78014,-49.23065 6.00492,-16.38029 13.30435,-31.68475 21.63355,-45.5918 8.3292,-13.90704 17.68765,-26.4183 27.7863,-37.39573 12.674,-13.75931 26.43363,-24.94845 40.23601,-33.97311 13.80239,-9.02467 27.65216,-15.88779 40.85469,-21.06973 17.62706,-6.91212 33.95949,-10.99681 48.2796,-13.65722 14.32011,-2.66041 26.64113,-3.8862 36.61249,-4.53539 9.97136,-0.64919 17.60425,-0.71351 22.73005,-0.6473 5.12579,0.0662 7.75132,0.26683 7.7522,0.45805 z"
         style="fill:#000000;fill-rule:evenodd;stroke:none" />
      <path
         inkscape:connector-curvature="0"
         inkscape:original-d="m 657.524,674.5698 c 0,0 5.0216,-29.8425 30.9043,-37.7622 25.8827,-7.9197 71.5644,48.867 49.0838,73.0438 -22.4807,24.1768 -39.3596,71.8004 -30.882,94.3672 8.4777,22.5668 -38.8557,32.3325 -38.8557,32.3325"
         inkscape:path-effect="#path-effect3189-8-4-9-6-1"
         id="path3187-7-6-0-3-8"
         d="m 657.524,674.56977 c -0.76156,-0.27514 0.59695,-6.28488 3.69808,-16.83774 0,-10e-6 0,-10e-6 0,-10e-6 0.97441,-2.1385 2.18735,-4.4272 3.71903,-6.77974 1.53167,-2.35254 3.38221,-4.7695 5.64336,-7.12023 4.17581,-4.28701 9.80298,-8.20843 16.76526,-10.54936 3.98897,-1.2727 8.32097,-1.36223 12.42539,-0.46998 4.40609,0.93116 8.66083,2.72647 12.60008,5.0414 4.20567,2.45677 8.24039,5.46007 12.02047,8.93885 3.78008,3.47878 7.30536,7.43298 10.50017,11.7344 2.9064,3.84557 5.62028,8.08477 7.87207,12.71201 2.25179,4.62724 4.04101,9.64256 5.05515,15.02402 0.84831,4.48716 0.99773,9.34725 -0.0399,14.25906 -1.01666,4.66177 -3.25544,9.09783 -6.60961,12.73351 -0.36736,0.39407 -0.73148,0.79255 -1.0924,1.19531 -5.37452,5.99749 -9.84809,12.71656 -13.76505,19.58728 -4.69891,8.27163 -8.47216,16.73711 -11.39591,25.09987 0,0 0,0 0,0 -2.94465,8.4629 -5.03607,16.72768 -5.91099,24.61178 0,1e-5 0,1e-5 0,1e-5 0,0 0,0 0,0 -0.35861,3.54725 -0.55748,6.98004 -0.40583,10.1942 0.15164,3.21415 0.65367,6.20987 1.61887,8.92474 0,0 0,0 0,0 1.14574,3.18507 1.40902,6.6398 0.71348,9.91925 0,0 0,0 0,0 -0.76281,3.24347 -2.31967,5.94479 -4.16032,8.08979 -2.16187,2.53696 -4.58015,4.44462 -6.93927,5.97219 0,0 0,0 0,0 -2.84544,1.85539 -5.65181,3.24521 -8.28078,4.37116 0,0 0,0 0,0 -3.26315,1.39907 -6.28536,2.42115 -8.98527,3.20397 -2.69991,0.78281 -5.07849,1.32537 -7.0868,1.70943 0,0 0,0 0,0 -2.34272,0.44907 -4.19276,0.67647 -5.48981,0.74042 0,0 0,0 0,0 -0.68738,0.0339 -1.22133,0.0216 -1.59269,-0.0316 0,0 0,0 0,0 -0.19049,-0.0273 -0.33868,-0.0652 -0.44313,-0.11326 0,0 0,0 0,0 0,0 0,0 0,0 0,0 0,0 0,0 -0.0625,-0.0703 -0.10687,-0.10935 -0.13623,-0.13359 0,0 0,0 0,0 -0.0171,-0.0236 -0.0287,-0.035 -0.0361,-0.0406 -0.0109,-0.005 -0.0109,-0.005 -0.0109,-0.005 0,0 -10e-6,-10e-6 -0.001,-0.007 0.0139,-0.01 0.0199,-0.0252 0.026,-0.0536 0,0 0,0 0,0 0.0168,-0.034 0.041,-0.0876 0.069,-0.17727 0,0 0,0 0,0 0,0 0,0 0,0 0,0 0,0 0,0 0.0745,-0.0865 0.19128,-0.18207 0.3498,-0.28738 0,0 0,0 0,0 0.30903,-0.20531 0.77486,-0.44714 1.3907,-0.7307 0,0 0,0 0,0 1.16195,-0.53504 2.85322,-1.21547 5.01056,-2.09255 0,0 0,0 0,0 1.85144,-0.7534 4.0459,-1.64477 6.51129,-2.73893 2.46538,-1.09415 5.20261,-2.39008 8.09941,-4.0011 0,0 0,0 0,0 2.32918,-1.29686 4.75019,-2.77906 7.07173,-4.59142 0,0 0,0 0,0 1.91943,-1.50955 3.77548,-3.19071 5.20072,-5.17575 1.16687,-1.64635 2.10352,-3.47007 2.3522,-5.31456 0,0 0,0 0,0 0.31325,-1.7949 -0.0276,-3.84807 -0.81641,-5.81258 0,0 0,0 0,0 -1.3576,-3.46828 -2.19418,-7.17211 -2.58988,-10.98875 -0.3957,-3.81665 -0.35028,-7.74608 -0.0221,-11.62305 0,0 0,0 0,0 0,-10e-6 0,-10e-6 0,-2e-5 0.66167,-8.72733 2.63534,-17.77938 5.57732,-26.81714 0,0 0,0 0,0 2.90407,-8.96306 6.77562,-18.05285 11.70178,-26.93283 4.07505,-7.37083 8.93014,-14.70289 14.92528,-21.41843 0.40261,-0.45098 0.80936,-0.89802 1.22031,-1.34099 2.08428,-2.21312 3.52895,-5.08848 4.20422,-8.07613 0.76882,-3.25539 0.63329,-6.83065 0.0551,-10.38408 -0.7142,-4.36034 -2.16963,-8.55816 -4.06263,-12.55715 -1.89299,-3.99899 -4.22308,-7.79902 -6.73031,-11.37021 -2.8211,-3.9405 -5.87059,-7.56666 -9.10775,-10.75691 -3.23715,-3.19024 -6.662,-5.94452 -10.228,-8.19706 -3.32258,-2.08543 -6.65745,-3.7214 -9.97521,-4.5565 -3.02692,-0.73852 -5.99579,-0.93016 -8.4992,-0.21629 -5.84372,1.57751 -10.84057,4.54854 -14.71727,7.92065 -2.09289,1.79059 -3.88897,3.71507 -5.44661,5.63713 -1.55765,1.92206 -2.87688,3.84226 -4.00994,5.66693 0,0 -10e-6,0 -10e-6,0 -4.25769,9.81548 -7.04747,15.2877 -7.80904,15.01255 z"
         style="fill:#000000;fill-rule:evenodd;stroke:none" />
      <path
         inkscape:connector-curvature="0"
         inkscape:original-d="m 146.5692,689.6503 c 0,0 -8.7248,-28.431 -34.9595,-32.8235 -26.2348,-4.3926 -63.4508,56.8015 -38.4429,77.4704 25.0078,20.6688 47.5687,64.9014 42.2067,87.9771 -5.362,23.0757 42.0094,26.5122 42.0094,26.5122"
         inkscape:path-effect="#path-effect3189-8-4-9-7-6-9"
         id="path3187-7-6-0-6-1-1"
         d="m 146.56919,689.65027 c -0.0277,0.009 -0.0576,0.0103 -0.0898,0.005 0,0 0,0 0,0 -0.0309,-0.005 -0.0639,-0.0176 -0.0991,-0.0363 -0.0696,-0.037 -0.14762,-0.0996 -0.23461,-0.18731 0,0 0,0 0,0 0,0 0,0 0,0 -0.17055,-0.1715 -0.37497,-0.4375 -0.61865,-0.79446 0,0 0,0 0,0 -0.46833,-0.68599 -1.0783,-1.70071 -1.8744,-3.00027 0,0 0,0 0,0 -1.45543,-2.37463 -3.509,-5.70834 -6.57288,-9.45181 0,0 0,0 0,0 -1.34569,-1.64049 -2.8878,-3.35544 -4.66526,-5.04732 -1.77746,-1.69189 -3.79036,-3.36125 -6.07791,-4.86805 0,0 0,0 0,0 -4.20651,-2.78012 -9.44999,-5.0257 -15.33566,-5.80697 0,0 0,0 0,0 -2.51742,-0.37096 -5.37344,0.19787 -8.21871,1.30358 0,0 0,0 0,0 -3.116091,1.23764 -6.147514,3.25742 -9.111923,5.71328 0,0 0,0 0,0 -2e-6,0 -5e-6,10e-6 -7e-6,10e-6 0,0 0,0 0,0 -3.17989,2.65012 -6.15813,5.77063 -8.898131,9.29153 -2.740002,3.5209 -5.241797,7.44216 -7.481618,11.64019 0,0 0,0 0,0 -1.981117,3.79862 -3.760584,7.79606 -5.089053,11.92962 -1.328468,4.13356 -2.205515,8.40307 -2.340008,12.73404 0,0 0,0 0,0 -0.105776,3.5281 0.219968,7.0179 1.382916,10.07707 0,0 0,0 0,0 1.03678,2.81024 2.805037,5.41377 5.10752,7.29165 0.45769,0.37917 0.911811,0.76285 1.362385,1.1509 6.709637,5.77859 12.385505,12.30365 17.304317,18.96593 5.942552,8.02419 10.883452,16.38853 14.864412,24.75355 4.02761,8.4327 7.11287,17.00562 8.87738,25.43123 0,10e-6 0,10e-6 0,2e-5 0.8177,3.73809 1.36579,7.56516 1.46895,11.34 0.10316,3.77484 -0.23838,7.49738 -1.11825,11.05778 -0.51459,2.00448 -0.58527,4.03675 -0.0545,5.73302 0.47316,1.75377 1.61362,3.40353 2.95558,4.85423 1.63658,1.74712 3.65574,3.14544 5.71589,4.37006 2.49007,1.4679 5.036,2.60235 7.46949,3.56859 3.01718,1.19865 5.84188,2.11159 8.37868,2.86343 2.5368,0.75184 4.78645,1.34148 6.68634,1.84114 4.64328,1.05439 7.16136,1.87938 7.12061,2.40985 0,0 0,0 0,0 -3e-4,0.003 -3.1e-4,0.003 -3.1e-4,0.003 0,0 1e-5,0 -3.5e-4,0.003 0,0 0,0 0,0 -0.0626,0.52779 -2.68489,0.72201 -7.5429,0.61051 -2.00678,-0.11293 -4.39682,-0.33316 -7.13363,-0.74678 -2.73681,-0.41361 -5.82122,-1.01954 -9.19223,-1.96263 -2.70837,-0.75763 -5.62428,-1.75014 -8.63939,-3.19225 -2.49844,-1.18504 -5.1046,-2.73445 -7.54361,-4.93251 -2.07512,-1.85704 -3.94515,-4.29584 -5.11083,-7.3694 -1.10373,-3.11815 -1.29308,-6.52982 -0.58411,-9.79102 0.58928,-2.76218 0.69166,-5.73896 0.42526,-8.88459 -0.2664,-3.14562 -0.90173,-6.46026 -1.70652,-9.86747 0,0 0,-10e-6 0,-10e-6 -1.86575,-7.56174 -4.96487,-15.33875 -8.92001,-23.20117 -3.922026,-7.7673 -8.683891,-15.52552 -14.321651,-22.97628 -4.696717,-6.18711 -9.914237,-12.15427 -15.914736,-17.30208 -0.402953,-0.34569 -0.808456,-0.68679 -1.216549,-1.02319 -3.747363,-3.12229 -6.506856,-7.16935 -8.100872,-11.59476 0,0 0,0 0,0 -1.645919,-4.66625 -2.125791,-9.43169 -1.874239,-13.92082 0,0 0,0 0,0 0.298437,-5.38252 1.399581,-10.50614 3.001678,-15.30946 1.602097,-4.80331 3.70467,-9.28631 6.045683,-13.40911 0,0 0,0 0,0 2.563167,-4.60468 5.493809,-8.91334 8.734382,-12.79125 3.240573,-3.87791 6.790915,-7.32499 10.578304,-10.26118 0,0 0,0 0,0 3e-6,0 5e-6,-10e-6 8e-6,-10e-6 0,0 0,0 0,0 3.545804,-2.76398 7.468391,-5.06193 11.650922,-6.53701 0,0 0,0 0,0 3.89346,-1.39892 8.13765,-1.8671 12.20091,-1.13623 0,0 0,0 0,0 3.54718,0.69599 6.82881,1.8263 9.79148,3.23268 2.96267,1.40637 5.60678,3.08878 7.91808,4.91282 0,0 0,0 0,0 2.48639,1.96897 4.58391,4.06118 6.36531,6.13732 1.78141,2.07614 3.24689,4.13675 4.46346,6.08695 0,0 0,0 0,0 2.77069,4.43297 4.31399,8.2844 5.17023,11.05352 0,0 0,0 1e-5,0 0.46875,1.51488 0.72736,2.72187 0.82523,3.5703 0,0 0,0 0,0 0.0509,0.44142 0.0587,0.78825 0.0281,1.0332 0,0 0,0 0,0 0,0 0,0 0,0 -0.0157,0.12443 -0.0411,0.22305 -0.0757,0.29497 -0.0175,0.0363 -0.0373,0.0658 -0.0594,0.0885 0,0 0,0 0,0 -0.023,0.0236 -0.0483,0.0399 -0.076,0.0488 z"
         style="fill:#000000;fill-rule:evenodd;stroke:none" />
    </g>
  </g>
</svg>
