<?xml version="1.0" encoding="UTF-8" standalone="no"?>
<!-- Created with Inkscape (http://www.inkscape.org/) -->

<svg
   xmlns:dc="http://purl.org/dc/elements/1.1/"
   xmlns:cc="http://creativecommons.org/ns#"
   xmlns:rdf="http://www.w3.org/1999/02/22-rdf-syntax-ns#"
   xmlns:svg="http://www.w3.org/2000/svg"
   xmlns="http://www.w3.org/2000/svg"
   xmlns:sodipodi="http://sodipodi.sourceforge.net/DTD/sodipodi-0.dtd"
   xmlns:inkscape="http://www.inkscape.org/namespaces/inkscape"
   width="631.5108"
   height="895.41229"
   id="svg4068"
   version="1.1"
   inkscape:version="0.48.3.1 r9886"
   sodipodi:docname="cara_5.svg">
  <defs
     id="defs4070">
    <inkscape:path-effect
       effect="skeletal"
       id="path-effect6574"
       is_visible="true"
       pattern="m -14069.21,-1265.6489 c 0,-2.76 2.24,-5 5,-5 2.76,0 5,2.24 5,5 0,2.76 -2.24,5 -5,5 -2.76,0 -5,-2.24 -5,-5 z"
       copytype="single_stretched"
       prop_scale="1"
       scale_y_rel="false"
       spacing="0"
       normal_offset="0"
       tang_offset="0"
       prop_units="false"
       vertical_pattern="false"
       fuse_tolerance="0" />
    <inkscape:path-effect
       effect="skeletal"
       id="path-effect5543"
       is_visible="true"
       pattern="m -13870.71,-1632.2205 c 0,-2.76 2.24,-5 5,-5 2.76,0 5,2.24 5,5 0,2.76 -2.24,5 -5,5 -2.76,0 -5,-2.24 -5,-5 z"
       copytype="single_stretched"
       prop_scale="1"
       scale_y_rel="false"
       spacing="0"
       normal_offset="0"
       tang_offset="0"
       prop_units="false"
       vertical_pattern="false"
       fuse_tolerance="0" />
    <inkscape:path-effect
       effect="skeletal"
       id="path-effect6549"
       is_visible="true"
       pattern="m -9698.7475,1895.3113 c 0,-2.76 2.24,-5 5,-5 2.76,0 5,2.24 5,5 0,2.76 -2.24,5 -5,5 -2.76,0 -5,-2.24 -5,-5 z"
       copytype="single_stretched"
       prop_scale="1"
       scale_y_rel="false"
       spacing="0"
       normal_offset="0"
       tang_offset="0"
       prop_units="false"
       vertical_pattern="false"
       fuse_tolerance="0" />
    <inkscape:path-effect
       effect="skeletal"
       id="path-effect3189-8-4-9-7-6-9-2-2-9-8"
       is_visible="true"
       pattern="m 6237.6376,1770.428 c 0,-2.76 2.24,-4.9999 5,-4.9999 2.76,0 5,2.2399 5,4.9999 0,2.76 -2.24,5 -5,5 -2.76,0 -5,-2.24 -5,-5 z"
       copytype="single_stretched"
       prop_scale="1"
       scale_y_rel="false"
       spacing="0"
       normal_offset="0"
       tang_offset="0"
       prop_units="false"
       vertical_pattern="false"
       fuse_tolerance="0" />
    <inkscape:path-effect
       effect="skeletal"
       id="path-effect3189-8-4-9-7-6-9-2-2-9-8-3"
       is_visible="true"
       pattern="m 6757.667,1749.1885 c 0,-2.76 2.24,-4.9999 5,-4.9999 2.76,0 5,2.2399 5,4.9999 0,2.76 -2.24,5 -5,5 -2.76,0 -5,-2.24 -5,-5 z"
       copytype="single_stretched"
       prop_scale="1"
       scale_y_rel="false"
       spacing="0"
       normal_offset="0"
       tang_offset="0"
       prop_units="false"
       vertical_pattern="false"
       fuse_tolerance="0" />
    <inkscape:path-effect
       effect="skeletal"
       id="path-effect3093-0"
       is_visible="true"
       pattern="m 7506.6858,594.57527 c 0,-2.76 2.24,-5 5,-5 2.76,0 5,2.24 5,5 0,2.76 -2.24,5 -5,5 -2.76,0 -5,-2.24 -5,-5 z"
       copytype="single_stretched"
       prop_scale="1"
       scale_y_rel="false"
       spacing="0"
       normal_offset="0"
       tang_offset="0"
       prop_units="false"
       vertical_pattern="false"
       fuse_tolerance="0" />
    <inkscape:path-effect
       effect="skeletal"
       id="path-effect3189-5"
       is_visible="true"
       pattern="m 7506.6858,594.57527 c 0,-2.76 2.24,-5 5,-5 2.76,0 5,2.24 5,5 0,2.76 -2.24,5 -5,5 -2.76,0 -5,-2.24 -5,-5 z"
       copytype="single_stretched"
       prop_scale="1"
       scale_y_rel="false"
       spacing="0"
       normal_offset="0"
       tang_offset="0"
       prop_units="false"
       vertical_pattern="false"
       fuse_tolerance="0" />
    <inkscape:path-effect
       effect="skeletal"
       id="path-effect3193-1"
       is_visible="true"
       pattern="m 7506.6858,594.57527 c 0,-2.76 2.24,-5 5,-5 2.76,0 5,2.24 5,5 0,2.76 -2.24,5 -5,5 -2.76,0 -5,-2.24 -5,-5 z"
       copytype="single_stretched"
       prop_scale="1"
       scale_y_rel="false"
       spacing="0"
       normal_offset="0"
       tang_offset="0"
       prop_units="false"
       vertical_pattern="false"
       fuse_tolerance="0" />
    <inkscape:path-effect
       effect="skeletal"
       id="path-effect4306"
       is_visible="true"
       pattern="M 0,5 C 0,2.24 2.24,0 5,0 7.76,0 10,2.24 10,5 10,7.76 7.76,10 5,10 2.24,10 0,7.76 0,5 z"
       copytype="single_stretched"
       prop_scale="1"
       scale_y_rel="false"
       spacing="0"
       normal_offset="0"
       tang_offset="0"
       prop_units="false"
       vertical_pattern="false"
       fuse_tolerance="0" />
    <inkscape:path-effect
       effect="skeletal"
       id="path-effect3093-0-8"
       is_visible="true"
       pattern="m 7506.6858,594.57527 c 0,-2.76 2.24,-5 5,-5 2.76,0 5,2.24 5,5 0,2.76 -2.24,5 -5,5 -2.76,0 -5,-2.24 -5,-5 z"
       copytype="single_stretched"
       prop_scale="1"
       scale_y_rel="false"
       spacing="0"
       normal_offset="0"
       tang_offset="0"
       prop_units="false"
       vertical_pattern="false"
       fuse_tolerance="0" />
    <inkscape:path-effect
       effect="skeletal"
       id="path-effect3189-5-8"
       is_visible="true"
       pattern="m 7506.6858,594.57527 c 0,-2.76 2.24,-5 5,-5 2.76,0 5,2.24 5,5 0,2.76 -2.24,5 -5,5 -2.76,0 -5,-2.24 -5,-5 z"
       copytype="single_stretched"
       prop_scale="1"
       scale_y_rel="false"
       spacing="0"
       normal_offset="0"
       tang_offset="0"
       prop_units="false"
       vertical_pattern="false"
       fuse_tolerance="0" />
    <inkscape:path-effect
       effect="skeletal"
       id="path-effect3193-1-3"
       is_visible="true"
       pattern="m 7506.6858,594.57527 c 0,-2.76 2.24,-5 5,-5 2.76,0 5,2.24 5,5 0,2.76 -2.24,5 -5,5 -2.76,0 -5,-2.24 -5,-5 z"
       copytype="single_stretched"
       prop_scale="1"
       scale_y_rel="false"
       spacing="0"
       normal_offset="0"
       tang_offset="0"
       prop_units="false"
       vertical_pattern="false"
       fuse_tolerance="0" />
    <inkscape:path-effect
       effect="skeletal"
       id="path-effect4306-2"
       is_visible="true"
       pattern="M 0,5 C 0,2.24 2.24,0 5,0 7.76,0 10,2.24 10,5 10,7.76 7.76,10 5,10 2.24,10 0,7.76 0,5 z"
       copytype="single_stretched"
       prop_scale="1"
       scale_y_rel="false"
       spacing="0"
       normal_offset="0"
       tang_offset="0"
       prop_units="false"
       vertical_pattern="false"
       fuse_tolerance="0" />
    <inkscape:path-effect
       effect="skeletal"
       id="path-effect4589-2"
       is_visible="true"
       pattern="m 3203.4625,-287.36459 c 0,-2.76 2.24,-5 5,-5 2.76,0 5,2.24 5,5 0,2.76 -2.24,5 -5,5 -2.76,0 -5,-2.24 -5,-5 z"
       copytype="single_stretched"
       prop_scale="1"
       scale_y_rel="false"
       spacing="0"
       normal_offset="0"
       tang_offset="0"
       prop_units="false"
       vertical_pattern="false"
       fuse_tolerance="0" />
    <inkscape:path-effect
       effect="skeletal"
       id="path-effect3189-8-4-9-6-1"
       is_visible="true"
       pattern="m 9041.8924,-261.70024 c 0,-2.76 2.24,-5 5,-5 2.76,0 5,2.24 5,5 0,2.76 -2.24,5 -5,5 -2.76,0 -5,-2.24 -5,-5 z"
       copytype="single_stretched"
       prop_scale="1"
       scale_y_rel="false"
       spacing="0"
       normal_offset="0"
       tang_offset="0"
       prop_units="false"
       vertical_pattern="false"
       fuse_tolerance="0" />
    <inkscape:path-effect
       effect="skeletal"
       id="path-effect3189-8-4-9-7-6-9"
       is_visible="true"
       pattern="m 7960.9,-231.74201 c 0,-2.76 2.24,-5 5,-5 2.76,0 5,2.24 5,5 0,2.76 -2.24,5 -5,5 -2.76,0 -5,-2.24 -5,-5 z"
       copytype="single_stretched"
       prop_scale="1"
       scale_y_rel="false"
       spacing="0"
       normal_offset="0"
       tang_offset="0"
       prop_units="false"
       vertical_pattern="false"
       fuse_tolerance="0" />
    <inkscape:path-effect
       effect="skeletal"
       id="path-effect6549-1"
       is_visible="true"
       pattern="m -9698.7475,1895.3113 c 0,-2.76 2.24,-5 5,-5 2.76,0 5,2.24 5,5 0,2.76 -2.24,5 -5,5 -2.76,0 -5,-2.24 -5,-5 z"
       copytype="single_stretched"
       prop_scale="1"
       scale_y_rel="false"
       spacing="0"
       normal_offset="0"
       tang_offset="0"
       prop_units="false"
       vertical_pattern="false"
       fuse_tolerance="0" />
    <inkscape:path-effect
       effect="skeletal"
       id="path-effect3189-8-4-9-7-6-9-2-2-9-8-5"
       is_visible="true"
       pattern="m 6237.6376,1770.428 c 0,-2.76 2.24,-4.9999 5,-4.9999 2.76,0 5,2.2399 5,4.9999 0,2.76 -2.24,5 -5,5 -2.76,0 -5,-2.24 -5,-5 z"
       copytype="single_stretched"
       prop_scale="1"
       scale_y_rel="false"
       spacing="0"
       normal_offset="0"
       tang_offset="0"
       prop_units="false"
       vertical_pattern="false"
       fuse_tolerance="0" />
    <inkscape:path-effect
       effect="skeletal"
       id="path-effect3189-8-4-9-7-6-9-2-2-9-8-3-4"
       is_visible="true"
       pattern="m 6757.667,1749.1885 c 0,-2.76 2.24,-4.9999 5,-4.9999 2.76,0 5,2.2399 5,4.9999 0,2.76 -2.24,5 -5,5 -2.76,0 -5,-2.24 -5,-5 z"
       copytype="single_stretched"
       prop_scale="1"
       scale_y_rel="false"
       spacing="0"
       normal_offset="0"
       tang_offset="0"
       prop_units="false"
       vertical_pattern="false"
       fuse_tolerance="0" />
    <inkscape:path-effect
       effect="skeletal"
       id="path-effect3189-8-4-9-6-1-2-2"
       is_visible="true"
       pattern="m 9466.4313,2392.7382 c 0,-2.76 2.24,-5 5,-5 2.76,0 5,2.24 5,5 0,2.76 -2.24,5 -5,5 -2.76,0 -5,-2.24 -5,-5 z"
       copytype="single_stretched"
       prop_scale="1"
       scale_y_rel="false"
       spacing="0"
       normal_offset="0"
       tang_offset="0"
       prop_units="false"
       vertical_pattern="false"
       fuse_tolerance="0" />
    <inkscape:path-effect
       effect="skeletal"
       id="path-effect3189-8-4-9-6-1-2-6-1"
       is_visible="true"
       pattern="m 8256.775,2407.6317 c 0,-2.76 2.24,-5 5,-5 2.76,0 5,2.24 5,5 0,2.76 -2.24,5 -5,5 -2.76,0 -5,-2.24 -5,-5 z"
       copytype="single_stretched"
       prop_scale="1"
       scale_y_rel="false"
       spacing="0"
       normal_offset="0"
       tang_offset="0"
       prop_units="false"
       vertical_pattern="false"
       fuse_tolerance="0" />
    <inkscape:path-effect
       effect="skeletal"
       id="path-effect4310"
       is_visible="true"
       pattern="M 0,5 C 0,2.24 2.24,0 5,0 7.76,0 10,2.24 10,5 10,7.76 7.76,10 5,10 2.24,10 0,7.76 0,5 z"
       copytype="single_stretched"
       prop_scale="1"
       scale_y_rel="false"
       spacing="0"
       normal_offset="0"
       tang_offset="0"
       prop_units="false"
       vertical_pattern="false"
       fuse_tolerance="0" />
    <inkscape:path-effect
       effect="skeletal"
       id="path-effect4314"
       is_visible="true"
       pattern="M 0,5 C 0,2.24 2.24,0 5,0 7.76,0 10,2.24 10,5 10,7.76 7.76,10 5,10 2.24,10 0,7.76 0,5 z"
       copytype="single_stretched"
       prop_scale="1"
       scale_y_rel="false"
       spacing="0"
       normal_offset="0"
       tang_offset="0"
       prop_units="false"
       vertical_pattern="false"
       fuse_tolerance="0" />
  </defs>
  <sodipodi:namedview
     id="base"
     pagecolor="#ffffff"
     bordercolor="#666666"
     borderopacity="1.0"
     inkscape:pageopacity="0.0"
     inkscape:pageshadow="2"
     inkscape:zoom="0.12374369"
     inkscape:cx="-244.24957"
     inkscape:cy="479.57929"
     inkscape:document-units="px"
     inkscape:current-layer="layer1"
     showgrid="false"
     fit-margin-top="0"
     fit-margin-left="0"
     fit-margin-right="0"
     fit-margin-bottom="0"
     inkscape:window-width="560"
     inkscape:window-height="451"
     inkscape:window-x="3"
     inkscape:window-y="47"
     inkscape:window-maximized="0" />
  <metadata
     id="metadata4073">
    <rdf:RDF>
      <cc:Work
         rdf:about="">
        <dc:format>image/svg+xml</dc:format>
        <dc:type
           rdf:resource="http://purl.org/dc/dcmitype/StillImage" />
        <dc:title></dc:title>
      </cc:Work>
    </rdf:RDF>
  </metadata>
  <g
     inkscape:label="Capa 1"
     inkscape:groupmode="layer"
     id="layer1"
     transform="translate(-965.07027,-274.34239)">
    <g
       transform="translate(-4649.2084,-3792.992)"
       style="display:inline"
       id="g4354">
      <path
         transform="translate(-2638.4032,-217.0045)"
         sodipodi:nodetypes="zzccccccccccssssscccccczzz"
         inkscape:connector-curvature="0"
         id="path4821"
         d="m 8423.387,4311.2383 c -66.5369,41.7341 -101.2992,76.7023 -114.092,128.6751 -12.7928,51.9728 12.9299,148.6209 12.9299,148.6209 l 19.6521,136.0217 -35.1167,-12.5627 -52.5279,12.1218 0,32.3249 40.4061,20.2031 26.264,40.4061 24.2436,18.1827 24.2437,8.0812 -16.3094,222.0865 c 0,0 78.1308,77.5431 84.1917,85.6243 6.0609,8.0812 159.3101,15.9054 175.4726,15.9054 16.1624,0 200.7814,-3.6734 206.8424,-17.8155 6.0609,-14.1422 47.7894,-36.3657 13.7382,-201.7366 -4.2539,-20.6592 -43.712,-118.2062 -33.6105,-120.2265 10.1015,-2.0203 26.264,-8.0812 26.264,-8.0812 l 2.0203,-28.2843 32.3248,-30.3046 20.2031,-22.2233 -12.1218,-44.4467 -54.5483,6.0609 c 0,0 14.4714,-66.7625 26.5211,-221.6459 12.0496,-154.8833 -14.2803,-154.3965 -102.4846,-171.3218 -88.2042,-16.9254 -247.9695,-37.3996 -314.5064,4.3345 z"
         style="fill:#eec5aa;fill-opacity:1;stroke:none;display:inline" />
      <path
         inkscape:connector-curvature="0"
         inkscape:original-d="m 6177.0906,4498.0459 c 0,0 11.1489,-20.1397 33.2397,-23.3691 22.0914,-3.2294 43.9302,39.8539 20.548,54.5837 -23.3808,14.7295 -48.0806,46.1054 -46.9432,62.3927 1.1368,16.2875 -38.1211,18.941 -38.1211,18.941"
         inkscape:path-effect="#path-effect3189-8-4-9-6-1-2-2"
         id="path3187-7-6-0-3-8-1-7"
         d="m 6177.0906,4498.0459 c -0.025,-0.015 -0.048,-0.034 -0.067,-0.059 0,0 0,0 0,0 -0.018,-0.024 -0.034,-0.053 -0.047,-0.086 -0.025,-0.067 -0.039,-0.152 -0.041,-0.2556 0,0 0,0 0,0 0,0 0,0 0,0 -0,-0.2046 0.038,-0.4818 0.129,-0.8249 0,0 0,0 0,0 0.1755,-0.6644 0.5356,-1.5842 1.106,-2.7131 0,0 0,0 0,0 1.0619,-2.1022 2.8567,-4.9711 5.667,-8.1801 0,0 0,0 0,0 2.5412,-2.9051 5.9386,-6.1084 10.4571,-8.9564 0,0 0,0 0,0 4.2164,-2.655 9.4258,-4.9371 15.4887,-6.0324 0,0 0,0 0,0 3.2682,-0.5551 6.7247,-0.3212 10.0238,0.7149 0,0 0,0 0,0 3.2399,1.0202 6.2952,2.671 9.0141,4.7641 0,0 0,0 0,0 5.505,4.2268 10.08,10.1207 13.1264,16.9547 0,0 0,0 0,0 2.8677,6.2189 4.5628,13.6193 3.543,21.409 0,0 0,0 0,0 -1.0588,7.3868 -5.2563,14.3903 -11.9498,18.7069 -1.3247,0.8357 -2.6362,1.7135 -3.9348,2.6299 -4.5132,3.1849 -8.7245,6.7304 -12.6903,10.4173 -5.5756,5.1964 -10.5774,10.6524 -14.9513,16.205 -4.2396,5.405 -7.8746,10.7804 -10.5218,16.1836 0,0 0,0 0,0 -1.0596,2.29 -2.0338,4.4798 -2.6963,6.5579 -0.6626,2.0781 -1.0136,4.0447 -0.9032,5.8991 0.1162,2.8082 -0.643,5.4544 -2.0176,7.653 -1.5292,2.3534 -3.4313,4.04 -5.3277,5.2681 -2.5517,1.6684 -5.1121,2.8182 -7.5529,3.6812 -2.4408,0.863 -4.7627,1.4386 -6.896,1.8815 0,0 0,0 0,0 -5.786,1.2393 -10.5105,1.5737 -13.9119,1.6233 -4.0623,-0.053 -6.2636,-0.3433 -6.323,-0.889 0,0 0,0 0,0 0,0 0,0 0,0 -4e-4,-0 -4e-4,-0 -4e-4,-0 0,0 0,0 -4e-4,-0 0,0 0,0 0,0 0,0 0,0 0,0 -0.037,-0.5481 2.0664,-1.3099 5.9375,-2.231 3.2109,-0.8598 7.6373,-1.9415 12.8259,-3.7669 0,0 0,0 0,0 1.9454,-0.6962 3.9967,-1.4641 6.0255,-2.4073 2.0288,-0.9431 4.0356,-2.0605 5.8248,-3.5247 1.2673,-1.0548 2.4038,-2.1745 2.9962,-3.4108 0.5179,-1.0035 0.76,-2.2194 0.6032,-3.3232 -0.2216,-2.8993 0.061,-5.7926 0.7088,-8.5958 0.648,-2.8033 1.6617,-5.5163 2.8259,-8.0447 0,0 0,0 0,0 2.7423,-6.2737 6.5186,-12.4034 10.8985,-18.28 4.5205,-6.0885 9.7632,-12.0491 15.6634,-17.6744 4.1802,-3.9946 8.7338,-7.8641 13.7207,-11.3816 1.4349,-1.0122 2.8922,-1.9854 4.3714,-2.9161 4.068,-2.4627 6.8544,-7.0608 7.5709,-11.6871 0,0 0,0 0,0 0.9233,-5.3587 -0.3445,-11.0777 -2.4205,-16.2501 0,0 0,0 0,0 -2.367,-5.6395 -5.768,-10.527 -9.8897,-13.9698 0,0 0,0 0,0 -2.0049,-1.6703 -4.1071,-3.0037 -6.2538,-3.7976 0,0 0,0 0,0 -2.1294,-0.7922 -4.3334,-1.13 -6.3454,-0.9132 0,0 0,0 0,0 -5.0577,0.5304 -9.6436,2.0771 -13.5198,3.9851 0,0 0,0 0,0 -4.1755,2.0541 -7.58,4.5273 -10.3181,6.7936 0,0 0,0 0,0 -3.031,2.513 -5.2459,4.7775 -6.8362,6.3707 0,0 0,0 0,0 -0.8541,0.856 -1.5231,1.517 -2.0315,1.9465 0,0 0,0 0,0 -0.2626,0.2218 -0.4811,0.38 -0.6591,0.4717 0,0 0,0 0,0 0,0 0,0 0,0 -0.091,0.047 -0.1703,0.076 -0.2397,0.087 -0.035,0.01 -0.067,0.01 -0.097,0 0,0 0,0 0,0 -0.031,-0 -0.06,-0.013 -0.085,-0.028 z"
         style="fill:#000000;fill-rule:evenodd;stroke:none" />
      <path
         inkscape:connector-curvature="0"
         inkscape:original-d="m 5698.0069,4513.8434 c 0,0 -13.7748,-20.1396 -41.0726,-23.3691 -27.2978,-3.2292 -54.2802,39.854 -25.3896,54.5837 28.8917,14.7297 59.4103,46.1055 58.0061,62.3928 -1.4061,16.2873 47.1029,18.9409 47.1029,18.9409"
         inkscape:path-effect="#path-effect3189-8-4-9-6-1-2-6-1"
         id="path3187-7-6-0-3-8-1-6-9"
         d="m 5698.0069,4513.8434 c -0.023,0.016 -0.05,0.027 -0.08,0.033 -0.029,0.01 -0.061,0.01 -0.097,0 0,0 0,0 0,0 -0.071,-0.01 -0.1541,-0.033 -0.2509,-0.076 0,0 0,0 0,0 0,0 0,0 0,0 -0.1907,-0.085 -0.4318,-0.2359 -0.7271,-0.4501 0,0 0,0 0,0 -0.5753,-0.4174 -1.3508,-1.0667 -2.3511,-1.9056 0,0 0,0 0,0 -1.8939,-1.5881 -4.5773,-3.8468 -8.2142,-6.3141 0,0 0,0 0,0 -3.3295,-2.2565 -7.4767,-4.6619 -12.4725,-6.6767 -4.9959,-2.0148 -10.8486,-3.6394 -17.3291,-4.183 0,0 0,0 0,0 -2.6706,-0.2551 -5.496,0.073 -8.3412,0.9297 -2.8452,0.8568 -5.7104,2.2421 -8.3971,4.024 0,0 0,0 0,0 0,0 0,0 0,0 0,0 0,0 0,0 -4.9786,3.3725 -9.4108,8.206 -12.4274,14.03 -2.4742,4.9948 -4.121,10.6574 -3.0074,15.7225 0,0 0,0 0,0 0.4408,2.2863 1.4159,4.5196 2.851,6.3578 0,0 0,0 0,0 1.5938,2.1229 3.9637,3.871 6.6507,5.2706 1.8947,0.9636 3.7712,1.9806 5.6281,3.0471 5.9061,3.3925 11.4186,7.1737 16.5557,11.1404 7.1438,5.5064 13.6409,11.4397 19.3462,17.6321 5.3048,5.7312 10.0396,11.8363 13.5897,18.3127 1.5099,2.744 2.8093,5.6618 3.6987,8.7245 0.7737,2.5603 1.1704,5.4026 0.8979,8.3293 -0.1913,0.8607 0.1522,1.9727 0.7267,2.8909 0.794,1.3073 2.2637,2.4086 3.8707,3.4872 2.3977,1.5582 4.9727,2.7062 7.5359,3.6608 2.5631,0.9546 5.1148,1.7148 7.5283,2.4109 6.5475,1.8603 12.0562,2.9564 16.0548,3.8353 4.8135,0.9441 7.438,1.7327 7.4077,2.3089 0,0 0,0 0,0 0,0 0,0 0,0 -2e-4,0 -2e-4,0 -2e-4,0 0,0 0,0 -3e-4,0 0,0 0,0 0,0 0,0 0,0 0,0 -0.052,0.5743 -2.7596,0.8905 -7.7353,0.9675 -2.0799,-0.014 -4.5577,-0.1088 -7.4009,-0.3421 -2.8431,-0.2332 -6.0519,-0.6046 -9.5833,-1.2122 -2.5595,-0.4276 -5.3395,-0.9711 -8.2756,-1.8026 -2.9362,-0.8314 -6.0291,-1.9501 -9.1596,-3.6203 -2.1743,-1.1296 -4.4652,-2.7416 -6.4156,-5.1921 -1.6747,-2.1619 -2.6631,-4.9728 -2.5113,-8.086 0.1111,-1.5221 -0.3033,-3.2728 -0.9107,-5.1768 -0.7565,-2.2577 -1.923,-4.5331 -3.309,-6.8668 -3.2959,-5.5276 -7.768,-10.8502 -12.8782,-16.1509 -5.4832,-5.6589 -11.6851,-11.1144 -18.4826,-16.2474 -4.8968,-3.6906 -10.0673,-7.2027 -15.53,-10.3419 -1.7175,-0.987 -3.4462,-1.9267 -5.1854,-2.8157 -3.784,-1.8996 -7.2742,-4.6217 -9.9962,-8.1431 -2.3988,-3.176 -3.9541,-6.8382 -4.6218,-10.6223 0,0 0,0 0,0 -1.2952,-8.126 0.8671,-15.8025 4.3606,-21.9366 3.9686,-7.2025 9.6627,-12.9635 16.0112,-16.8945 0,0 0,0 0,0 0,0 0,0 0,0 0,0 0,0 0,0 3.4635,-2.1836 7.2287,-3.7606 11.0315,-4.6477 3.8028,-0.8871 7.6431,-1.0846 11.3225,-0.5886 0,0 0,0 0,0 7.3377,1.0912 13.7386,3.4096 19.0316,6.1349 5.2929,2.7254 9.4872,5.8561 12.6846,8.7744 0,0 0,0 0,0 3.4764,3.1721 5.8118,6.0846 7.2344,8.2367 0,0 0,0 0,0 0.7512,1.1364 1.2518,2.0725 1.5249,2.7535 0,0 0,0 0,0 0.1402,0.3495 0.2217,0.634 0.2463,0.8461 0,0 0,0 0,0 0,0 0,0 0,0 0.012,0.1071 0.01,0.1961 -0.01,0.2662 0,0 0,0 0,0 -0.01,0.035 -0.02,0.066 -0.035,0.092 -0.016,0.027 -0.035,0.048 -0.058,0.065 z"
         style="fill:#000000;fill-rule:evenodd;stroke:none" />
      <path
         transform="translate(-2638.4032,-217.0045)"
         inkscape:connector-curvature="0"
         inkscape:original-d="m 8373.8932,4843.3656 -19.101,175.7295 c 0,0 -19.101,103.1455 87.8647,129.887 106.9658,26.7414 370.5601,49.6627 401.1218,-22.9212 30.5616,-72.584 -45.8425,-297.9762 -45.8425,-297.9762"
         inkscape:path-effect="#path-effect4310"
         id="path4308"
         d="m 8373.8932,4843.3656 c 1.4619,0.1589 -4.5978,68.1445 -15.4316,176.2522 0,0 0,0 0,0 -0,0.01 -0,0.017 -0,0.025 -0,0.024 -0.01,0.048 -0.012,0.073 -0.015,0.096 -0.031,0.1934 -0.046,0.2929 -0.041,0.2617 -0.081,0.5304 -0.1195,0.8059 0,0 0,0 0,0 -0.1463,1.042 -0.2687,2.1028 -0.3771,3.1806 0,0 0,0 0,0 -0.3842,3.8204 -0.5663,7.7251 -0.5821,11.694 -0.04,12.1507 1.4915,24.7824 5.2445,37.1696 2.196,7.2528 5.1614,14.4132 9.012,21.2063 4.1171,7.2686 9.2666,14.1363 15.3669,20.2519 6.7443,6.7713 14.6906,12.6336 23.4337,17.4299 10.2127,5.6073 21.5351,9.7488 33.4161,12.6843 14.9718,3.6892 30.4798,6.7338 46.3832,9.4603 18.3898,3.1513 37.2762,5.8268 56.5654,8.089 26.0827,3.0571 52.8746,5.4142 80.1766,6.7057 15.132,0.7158 30.127,1.0892 44.9494,1.1001 20.1718,0.014 39.9954,-0.6653 59.3162,-2.408 0,0 0,0 0,0 17.5412,-1.5876 34.6334,-3.9826 50.9114,-7.9933 0,0 0,0 0,0 13.5546,-3.3694 26.53,-7.6496 37.6521,-14.3737 4.5998,-2.7784 8.8384,-5.9248 12.351,-9.5961 3.1841,-3.3287 5.8172,-7.0757 7.52,-11.105 0,0 0,0 0,0 1.9635,-4.5767 3.3067,-9.4552 4.3271,-14.4199 0,0 0,0 0,0 1.1985,-5.863 1.8869,-11.8099 2.3011,-17.746 0,0 0,0 0,0 1.021,-14.6328 0.3629,-29.0053 -0.8065,-42.8848 0,0 0,0 0,0 -1.4432,-17.0557 -3.7864,-33.3195 -6.3942,-48.7147 0,0 0,0 0,0 -3.0271,-17.8644 -6.4485,-34.5411 -9.8665,-49.9435 0,0 0,0 0,0 -3.9838,-17.9512 -7.9646,-34.1641 -11.6438,-48.4859 -3.6793,-14.3219 -7.0577,-26.7527 -9.9117,-37.1316 0,0 0,0 0,0 -3.1737,-11.5407 -5.711,-20.5391 -7.3975,-26.7622 0,0 0,0 0,0 -0.8776,-3.2383 -1.5255,-5.7241 -1.9177,-7.4241 0,0 0,0 0,0 -0.1995,-0.8651 -0.3329,-1.5264 -0.3968,-1.9799 0,0 0,0 0,0 -0.032,-0.2285 -0.047,-0.4042 -0.043,-0.5265 0,0 0,0 0,0 0,0 0,0 0,0 0,-0.061 0.01,-0.1092 0.019,-0.1435 0,0 0,0 0,0 0.026,-0.024 0.038,-0.04 0.043,-0.049 0,0 0,0 0,0 0.01,-0.01 0,-0.013 0,-0.013 0,0 0,0 0,0 0,0 0,0 0,0 0,0 0,0 0,0 0,0 0,0 0,0 10e-5,2e-4 0,0 0.012,0.01 0,0 0,0 0,0 0.01,0 0.029,0.01 0.064,0.013 0,0 0,0 0,0 0.03,0.021 0.064,0.055 0.1021,0.1029 0,0 0,0 0,0 0,0 0,0 0,0 0.077,0.095 0.1714,0.2444 0.2835,0.4465 0,0 0,0 0,0 0.2223,0.401 0.5133,1.011 0.8694,1.8255 0,0 0,0 0,0 0.7,1.6007 1.6525,3.9918 2.8303,7.1391 0,0 0,0 0,0 2.2633,6.0481 5.3633,14.8913 9.0796,26.2975 0,0 0,0 0,0 3.3421,10.2572 7.1936,22.5874 11.3286,36.8391 4.135,14.2517 8.5543,30.4251 12.9563,48.3777 0,0 0,0 0,0 3.7776,15.4052 7.5448,32.1293 10.9032,50.1068 0,0 0,0 0,0 2.8942,15.4872 5.5109,31.9256 7.2128,49.2745 0,0 0,0 0,0 1.388,14.0972 2.2284,28.8801 1.3408,44.1814 0,0 0,0 0,0 -0.3607,6.2178 -1.0354,12.5522 -2.2653,18.9216 0,0 0,0 0,0 -1.0353,5.3901 -2.5041,10.8547 -4.7156,16.1935 -2.18,5.1923 -5.3751,9.8858 -9.2121,13.9203 -4.1962,4.4133 -9.0422,8.1083 -14.1629,11.221 -12.2853,7.4623 -26.124,12.2103 -40.1548,15.7105 0,0 0,0 0,0 -16.8953,4.2504 -34.4722,6.8131 -52.3237,8.4812 0,0 0,0 0,0 -19.6833,1.8454 -39.8125,2.5921 -60.2146,2.6061 -14.9867,0.011 -30.14,-0.3545 -45.4217,-1.0768 -27.5721,-1.3031 -54.5964,-3.7185 -80.8696,-6.8758 -19.4397,-2.3347 -38.492,-5.1102 -57.056,-8.3856 -16.0409,-2.829 -31.762,-6.0155 -47.0029,-9.8795 -12.5225,-3.1653 -24.5643,-7.6994 -35.5472,-13.8282 -9.414,-5.2574 -17.9829,-11.7197 -25.3003,-19.1976 -6.61,-6.7642 -12.1445,-14.3141 -16.5387,-22.2844 -4.1011,-7.4437 -7.2122,-15.2127 -9.4659,-23.0327 -3.8403,-13.3338 -5.2832,-26.7671 -5.0309,-39.5916 0.08,-4.1869 0.3418,-8.3338 0.819,-12.4158 0,0 0,0 0,0 0.1345,-1.1511 0.288,-2.3075 0.4701,-3.4664 0,0 0,0 0,0 0.048,-0.3063 0.099,-0.6183 0.155,-0.9356 0.01,-0.049 0.02,-0.1006 0.031,-0.1536 0,-0.014 0.01,-0.027 0.01,-0.041 0,-0 0,-0.01 0,-0.014 0,0 0,0 0,0 12.6235,-107.6999 21.3085,-175.3657 22.7704,-175.2068 z"
         style="fill:#000000;fill-rule:evenodd;stroke:none" />
      <path
         transform="translate(-2638.4032,-217.0045)"
         inkscape:connector-curvature="0"
         inkscape:original-d="m 8343.3316,4702.0179 c 0,0 -49.6627,-236.8528 -30.5617,-275.0549 19.1011,-38.202 45.8425,-141.3476 233.0326,-137.5274 187.1902,3.8202 282.6953,0 294.156,103.1456 11.4606,103.1455 -22.9213,313.2569 -22.9213,313.2569"
         inkscape:path-effect="#path-effect4314"
         id="path4312"
         d="m 8343.3316,4702.0179 c -0.01,0 -0.021,5e-4 -0.032,-0 -0.011,-0.01 -0.023,-0.014 -0.036,-0.026 -0.026,-0.025 -0.054,-0.064 -0.086,-0.1172 0,0 0,0 0,0 -0.063,-0.106 -0.1372,-0.2682 -0.2229,-0.486 0,0 0,0 0,0 0,0 0,0 0,0 -0.1697,-0.4315 -0.384,-1.0813 -0.6408,-1.9445 0,0 0,0 0,0 -0.5032,-1.6917 -1.17,-4.2036 -1.985,-7.4998 0,0 0,0 0,0 -1.5559,-6.2928 -3.6542,-15.4454 -6.1707,-27.2136 0,0 0,0 0,0 -2.2202,-10.3821 -4.7724,-22.8002 -7.5318,-37.0948 -2.7595,-14.2945 -5.7269,-30.4655 -8.7271,-48.3594 0,0 0,0 0,0 -10e-5,0 -10e-5,0 -10e-5,0 -2.4904,-14.8536 -5.0071,-30.8995 -7.309,-48.0669 0,0 0,0 0,0 -1.9027,-14.1868 -3.6846,-29.155 -4.9163,-44.8808 0,0 0,0 0,0 -0.9259,-11.7645 -1.6346,-24.0391 -1.1237,-36.7636 0,0 0,0 0,0 0.1794,-4.5399 0.5344,-9.2072 1.3495,-13.9405 0.5497,-3.361 1.4113,-6.969 3.1281,-10.5278 0,0 0,0 0,0 2.6585,-5.3838 5.0577,-11.0948 7.6619,-16.9264 0,0 0,0 0,0 3.1689,-7.1047 6.5411,-14.2976 10.3666,-21.4363 9.1287,-17.0466 20.9375,-33.5533 36.0581,-47.6763 0,0 0,0 0,0 9.4676,-8.8114 20.1035,-16.5728 31.6213,-23.2103 11.5178,-6.6374 23.9172,-12.1509 36.8403,-16.4862 0,0 0,0 0,0 17.8111,-5.9705 36.4921,-9.9376 55.6799,-12.2741 19.1879,-2.3366 38.8818,-3.0437 58.6492,-2.6329 14.4409,0.2861 29.0333,0.5132 43.7567,0.7827 26.984,0.4939 53.5998,1.1298 79.7127,2.475 16.642,0.8564 33.1179,2.0387 49.3183,3.9911 13.9886,1.682 27.8331,3.9532 41.2742,7.4064 11.5568,2.9607 22.8813,6.8735 33.4043,12.3307 9.47,4.9096 18.2028,11.196 25.4661,18.87 7.4129,7.8724 13.074,17.0306 17.0345,26.6509 4.7277,11.5133 7.1966,23.472 8.4251,35.1433 1.5844,14.8983 2.054,29.4451 2.1158,43.511 0.078,17.2024 -0.5029,33.7603 -1.3569,49.6049 -1.0443,19.3772 -2.4976,37.7113 -4.119,54.9065 -1.6213,17.1953 -3.4112,33.2517 -5.2003,48.074 -4.2453,35.1763 -8.5297,63.4259 -11.8576,83.421 -1.8134,10.8951 -3.3561,19.3404 -4.5217,25.1152 -0.6028,2.9861 -1.1052,5.2586 -1.4943,6.7865 -0.3989,1.5569 -0.6755,2.3411 -0.8242,2.3199 0,0 0,0 0,0 -8e-4,-1e-4 -8e-4,-1e-4 -8e-4,-1e-4 0,0 0,0 -8e-4,-1e-4 0,0 0,0 0,0 -0.1478,-0.027 -0.1646,-0.8587 -0.056,-2.4608 0.1044,-1.572 0.3253,-3.886 0.6503,-6.9117 0.6286,-5.8523 1.648,-14.3653 2.9558,-25.3191 2.4002,-20.1029 5.8151,-48.4193 9.2721,-83.5943 1.4566,-14.8238 2.9283,-30.8637 4.2477,-48.0152 1.3193,-17.1515 2.4867,-35.4146 3.2632,-54.6839 0.6347,-15.755 1.0114,-32.1708 0.7463,-49.1595 -0.2189,-13.9042 -0.8174,-28.1689 -2.4952,-42.6303 -1.2993,-11.0786 -3.6651,-22.2146 -8.0794,-32.6355 -3.6599,-8.6631 -8.7894,-16.8544 -15.4074,-23.758 -6.4614,-6.7794 -14.4,-12.382 -23.0924,-16.8549 -9.7065,-4.9931 -20.3696,-8.5868 -31.4496,-11.3963 -12.8952,-3.26 -26.3251,-5.3958 -40.0545,-7.0089 -15.8931,-1.8629 -32.146,-2.9802 -48.664,-3.7986 -25.936,-1.2836 -52.4417,-1.8872 -79.3955,-2.3801 -14.7069,-0.269 -29.3066,-0.5049 -43.7773,-0.8088 -19.407,-0.3887 -38.635,0.2563 -57.271,2.4552 -18.636,2.1989 -36.6793,5.9529 -53.7921,11.6475 0,0 0,0 0,0 -12.3693,4.1128 -24.2198,9.3051 -35.1996,15.5383 -10.9798,6.2333 -21.0887,13.5076 -30.0459,21.7662 0,0 0,0 0,0 -14.3455,13.1765 -25.6951,28.8179 -34.6158,45.0831 0,0 0,0 0,0 -3.7419,6.8277 -7.0899,13.8062 -10.2864,20.7799 0,0 0,0 0,0 -2.6061,5.6922 -5.1152,11.4851 -7.9771,17.1421 0,0 0,1e-4 0,1e-4 -1.2325,2.3396 -1.885,5.1963 -2.4806,8.2395 -0.7825,4.1996 -1.1503,8.5134 -1.3833,12.8618 0,0 0,0 0,0 -0.6453,12.1903 -0.096,24.1799 0.6511,35.843 0,0 0,0 0,0 1.0015,15.5434 2.5445,30.4131 4.1997,44.5576 0,0 0,0 0,0 2.0028,17.1095 4.2074,33.1373 6.3735,47.9985 0,0 0,0 0,0 0,0 0,0 0,0 2.6096,17.9038 5.1674,34.1077 7.5004,48.4514 2.3329,14.3438 4.4418,26.8274 6.2041,37.2855 0,0 0,0 0,0 1.9975,11.8538 3.5576,21.103 4.5603,27.5023 0,0 0,0 0,0 0.5252,3.3521 0.898,5.9217 1.1037,7.6735 0,0 0,0 0,0 0.105,0.8939 0.1664,1.5748 0.1826,2.0379 0,0 0,0 0,0 0,0 0,0 0,0 0.01,0.2338 0,0.4121 -0.01,0.5344 0,0 0,0 0,0 -0.01,0.061 -0.018,0.1086 -0.032,0.1416 -0.01,0.016 -0.014,0.029 -0.023,0.039 -0.01,0.01 -0.018,0.015 -0.028,0.017 z"
         style="fill:#000000;fill-rule:evenodd;stroke:none" />
    </g>
  </g>
</svg>
