<?xml version="1.0" encoding="UTF-8" standalone="no"?>
<!-- Created with Inkscape (http://www.inkscape.org/) -->

<svg
   xmlns:dc="http://purl.org/dc/elements/1.1/"
   xmlns:cc="http://creativecommons.org/ns#"
   xmlns:rdf="http://www.w3.org/1999/02/22-rdf-syntax-ns#"
   xmlns:svg="http://www.w3.org/2000/svg"
   xmlns="http://www.w3.org/2000/svg"
   xmlns:sodipodi="http://sodipodi.sourceforge.net/DTD/sodipodi-0.dtd"
   xmlns:inkscape="http://www.inkscape.org/namespaces/inkscape"
   width="815.30786"
   height="979.21423"
   id="svg4068"
   version="1.1"
   inkscape:version="0.48.3.1 r9886"
   sodipodi:docname="cara_5.svg">
  <defs
     id="defs4070">
    <inkscape:path-effect
       effect="skeletal"
       id="path-effect6574"
       is_visible="true"
       pattern="m -14069.21,-1265.6489 c 0,-2.76 2.24,-5 5,-5 2.76,0 5,2.24 5,5 0,2.76 -2.24,5 -5,5 -2.76,0 -5,-2.24 -5,-5 z"
       copytype="single_stretched"
       prop_scale="1"
       scale_y_rel="false"
       spacing="0"
       normal_offset="0"
       tang_offset="0"
       prop_units="false"
       vertical_pattern="false"
       fuse_tolerance="0" />
    <inkscape:path-effect
       effect="skeletal"
       id="path-effect5543"
       is_visible="true"
       pattern="m -13870.71,-1632.2205 c 0,-2.76 2.24,-5 5,-5 2.76,0 5,2.24 5,5 0,2.76 -2.24,5 -5,5 -2.76,0 -5,-2.24 -5,-5 z"
       copytype="single_stretched"
       prop_scale="1"
       scale_y_rel="false"
       spacing="0"
       normal_offset="0"
       tang_offset="0"
       prop_units="false"
       vertical_pattern="false"
       fuse_tolerance="0" />
    <inkscape:path-effect
       effect="skeletal"
       id="path-effect6549"
       is_visible="true"
       pattern="m -9698.7475,1895.3113 c 0,-2.76 2.24,-5 5,-5 2.76,0 5,2.24 5,5 0,2.76 -2.24,5 -5,5 -2.76,0 -5,-2.24 -5,-5 z"
       copytype="single_stretched"
       prop_scale="1"
       scale_y_rel="false"
       spacing="0"
       normal_offset="0"
       tang_offset="0"
       prop_units="false"
       vertical_pattern="false"
       fuse_tolerance="0" />
    <inkscape:path-effect
       effect="skeletal"
       id="path-effect3189-8-4-9-7-6-9-2-2-9-8"
       is_visible="true"
       pattern="m 6237.6376,1770.428 c 0,-2.76 2.24,-4.9999 5,-4.9999 2.76,0 5,2.2399 5,4.9999 0,2.76 -2.24,5 -5,5 -2.76,0 -5,-2.24 -5,-5 z"
       copytype="single_stretched"
       prop_scale="1"
       scale_y_rel="false"
       spacing="0"
       normal_offset="0"
       tang_offset="0"
       prop_units="false"
       vertical_pattern="false"
       fuse_tolerance="0" />
    <inkscape:path-effect
       effect="skeletal"
       id="path-effect3189-8-4-9-7-6-9-2-2-9-8-3"
       is_visible="true"
       pattern="m 6757.667,1749.1885 c 0,-2.76 2.24,-4.9999 5,-4.9999 2.76,0 5,2.2399 5,4.9999 0,2.76 -2.24,5 -5,5 -2.76,0 -5,-2.24 -5,-5 z"
       copytype="single_stretched"
       prop_scale="1"
       scale_y_rel="false"
       spacing="0"
       normal_offset="0"
       tang_offset="0"
       prop_units="false"
       vertical_pattern="false"
       fuse_tolerance="0" />
    <inkscape:path-effect
       effect="skeletal"
       id="path-effect3093-0"
       is_visible="true"
       pattern="m 7506.6858,594.57527 c 0,-2.76 2.24,-5 5,-5 2.76,0 5,2.24 5,5 0,2.76 -2.24,5 -5,5 -2.76,0 -5,-2.24 -5,-5 z"
       copytype="single_stretched"
       prop_scale="1"
       scale_y_rel="false"
       spacing="0"
       normal_offset="0"
       tang_offset="0"
       prop_units="false"
       vertical_pattern="false"
       fuse_tolerance="0" />
    <inkscape:path-effect
       effect="skeletal"
       id="path-effect3189-5"
       is_visible="true"
       pattern="m 7506.6858,594.57527 c 0,-2.76 2.24,-5 5,-5 2.76,0 5,2.24 5,5 0,2.76 -2.24,5 -5,5 -2.76,0 -5,-2.24 -5,-5 z"
       copytype="single_stretched"
       prop_scale="1"
       scale_y_rel="false"
       spacing="0"
       normal_offset="0"
       tang_offset="0"
       prop_units="false"
       vertical_pattern="false"
       fuse_tolerance="0" />
    <inkscape:path-effect
       effect="skeletal"
       id="path-effect3193-1"
       is_visible="true"
       pattern="m 7506.6858,594.57527 c 0,-2.76 2.24,-5 5,-5 2.76,0 5,2.24 5,5 0,2.76 -2.24,5 -5,5 -2.76,0 -5,-2.24 -5,-5 z"
       copytype="single_stretched"
       prop_scale="1"
       scale_y_rel="false"
       spacing="0"
       normal_offset="0"
       tang_offset="0"
       prop_units="false"
       vertical_pattern="false"
       fuse_tolerance="0" />
    <inkscape:path-effect
       effect="skeletal"
       id="path-effect4306"
       is_visible="true"
       pattern="M 0,5 C 0,2.24 2.24,0 5,0 7.76,0 10,2.24 10,5 10,7.76 7.76,10 5,10 2.24,10 0,7.76 0,5 z"
       copytype="single_stretched"
       prop_scale="1"
       scale_y_rel="false"
       spacing="0"
       normal_offset="0"
       tang_offset="0"
       prop_units="false"
       vertical_pattern="false"
       fuse_tolerance="0" />
    <inkscape:path-effect
       effect="skeletal"
       id="path-effect3093-0-8"
       is_visible="true"
       pattern="m 7506.6858,594.57527 c 0,-2.76 2.24,-5 5,-5 2.76,0 5,2.24 5,5 0,2.76 -2.24,5 -5,5 -2.76,0 -5,-2.24 -5,-5 z"
       copytype="single_stretched"
       prop_scale="1"
       scale_y_rel="false"
       spacing="0"
       normal_offset="0"
       tang_offset="0"
       prop_units="false"
       vertical_pattern="false"
       fuse_tolerance="0" />
    <inkscape:path-effect
       effect="skeletal"
       id="path-effect3189-5-8"
       is_visible="true"
       pattern="m 7506.6858,594.57527 c 0,-2.76 2.24,-5 5,-5 2.76,0 5,2.24 5,5 0,2.76 -2.24,5 -5,5 -2.76,0 -5,-2.24 -5,-5 z"
       copytype="single_stretched"
       prop_scale="1"
       scale_y_rel="false"
       spacing="0"
       normal_offset="0"
       tang_offset="0"
       prop_units="false"
       vertical_pattern="false"
       fuse_tolerance="0" />
    <inkscape:path-effect
       effect="skeletal"
       id="path-effect3193-1-3"
       is_visible="true"
       pattern="m 7506.6858,594.57527 c 0,-2.76 2.24,-5 5,-5 2.76,0 5,2.24 5,5 0,2.76 -2.24,5 -5,5 -2.76,0 -5,-2.24 -5,-5 z"
       copytype="single_stretched"
       prop_scale="1"
       scale_y_rel="false"
       spacing="0"
       normal_offset="0"
       tang_offset="0"
       prop_units="false"
       vertical_pattern="false"
       fuse_tolerance="0" />
    <inkscape:path-effect
       effect="skeletal"
       id="path-effect4306-2"
       is_visible="true"
       pattern="M 0,5 C 0,2.24 2.24,0 5,0 7.76,0 10,2.24 10,5 10,7.76 7.76,10 5,10 2.24,10 0,7.76 0,5 z"
       copytype="single_stretched"
       prop_scale="1"
       scale_y_rel="false"
       spacing="0"
       normal_offset="0"
       tang_offset="0"
       prop_units="false"
       vertical_pattern="false"
       fuse_tolerance="0" />
    <inkscape:path-effect
       effect="skeletal"
       id="path-effect4589-2"
       is_visible="true"
       pattern="m 3203.4625,-287.36459 c 0,-2.76 2.24,-5 5,-5 2.76,0 5,2.24 5,5 0,2.76 -2.24,5 -5,5 -2.76,0 -5,-2.24 -5,-5 z"
       copytype="single_stretched"
       prop_scale="1"
       scale_y_rel="false"
       spacing="0"
       normal_offset="0"
       tang_offset="0"
       prop_units="false"
       vertical_pattern="false"
       fuse_tolerance="0" />
    <inkscape:path-effect
       effect="skeletal"
       id="path-effect3189-8-4-9-6-1"
       is_visible="true"
       pattern="m 9041.8924,-261.70024 c 0,-2.76 2.24,-5 5,-5 2.76,0 5,2.24 5,5 0,2.76 -2.24,5 -5,5 -2.76,0 -5,-2.24 -5,-5 z"
       copytype="single_stretched"
       prop_scale="1"
       scale_y_rel="false"
       spacing="0"
       normal_offset="0"
       tang_offset="0"
       prop_units="false"
       vertical_pattern="false"
       fuse_tolerance="0" />
    <inkscape:path-effect
       effect="skeletal"
       id="path-effect3189-8-4-9-7-6-9"
       is_visible="true"
       pattern="m 7960.9,-231.74201 c 0,-2.76 2.24,-5 5,-5 2.76,0 5,2.24 5,5 0,2.76 -2.24,5 -5,5 -2.76,0 -5,-2.24 -5,-5 z"
       copytype="single_stretched"
       prop_scale="1"
       scale_y_rel="false"
       spacing="0"
       normal_offset="0"
       tang_offset="0"
       prop_units="false"
       vertical_pattern="false"
       fuse_tolerance="0" />
    <inkscape:path-effect
       effect="skeletal"
       id="path-effect6549-1"
       is_visible="true"
       pattern="m -9698.7475,1895.3113 c 0,-2.76 2.24,-5 5,-5 2.76,0 5,2.24 5,5 0,2.76 -2.24,5 -5,5 -2.76,0 -5,-2.24 -5,-5 z"
       copytype="single_stretched"
       prop_scale="1"
       scale_y_rel="false"
       spacing="0"
       normal_offset="0"
       tang_offset="0"
       prop_units="false"
       vertical_pattern="false"
       fuse_tolerance="0" />
    <inkscape:path-effect
       effect="skeletal"
       id="path-effect3189-8-4-9-7-6-9-2-2-9-8-5"
       is_visible="true"
       pattern="m 6237.6376,1770.428 c 0,-2.76 2.24,-4.9999 5,-4.9999 2.76,0 5,2.2399 5,4.9999 0,2.76 -2.24,5 -5,5 -2.76,0 -5,-2.24 -5,-5 z"
       copytype="single_stretched"
       prop_scale="1"
       scale_y_rel="false"
       spacing="0"
       normal_offset="0"
       tang_offset="0"
       prop_units="false"
       vertical_pattern="false"
       fuse_tolerance="0" />
    <inkscape:path-effect
       effect="skeletal"
       id="path-effect3189-8-4-9-7-6-9-2-2-9-8-3-4"
       is_visible="true"
       pattern="m 6757.667,1749.1885 c 0,-2.76 2.24,-4.9999 5,-4.9999 2.76,0 5,2.2399 5,4.9999 0,2.76 -2.24,5 -5,5 -2.76,0 -5,-2.24 -5,-5 z"
       copytype="single_stretched"
       prop_scale="1"
       scale_y_rel="false"
       spacing="0"
       normal_offset="0"
       tang_offset="0"
       prop_units="false"
       vertical_pattern="false"
       fuse_tolerance="0" />
    <inkscape:path-effect
       effect="skeletal"
       id="path-effect3189-8-4-9-6-1-2-2"
       is_visible="true"
       pattern="m 9466.4313,2392.7382 c 0,-2.76 2.24,-5 5,-5 2.76,0 5,2.24 5,5 0,2.76 -2.24,5 -5,5 -2.76,0 -5,-2.24 -5,-5 z"
       copytype="single_stretched"
       prop_scale="1"
       scale_y_rel="false"
       spacing="0"
       normal_offset="0"
       tang_offset="0"
       prop_units="false"
       vertical_pattern="false"
       fuse_tolerance="0" />
    <inkscape:path-effect
       effect="skeletal"
       id="path-effect3189-8-4-9-6-1-2-6-1"
       is_visible="true"
       pattern="m 8256.775,2407.6317 c 0,-2.76 2.24,-5 5,-5 2.76,0 5,2.24 5,5 0,2.76 -2.24,5 -5,5 -2.76,0 -5,-2.24 -5,-5 z"
       copytype="single_stretched"
       prop_scale="1"
       scale_y_rel="false"
       spacing="0"
       normal_offset="0"
       tang_offset="0"
       prop_units="false"
       vertical_pattern="false"
       fuse_tolerance="0" />
    <inkscape:path-effect
       effect="skeletal"
       id="path-effect4310"
       is_visible="true"
       pattern="M 0,5 C 0,2.24 2.24,0 5,0 7.76,0 10,2.24 10,5 10,7.76 7.76,10 5,10 2.24,10 0,7.76 0,5 z"
       copytype="single_stretched"
       prop_scale="1"
       scale_y_rel="false"
       spacing="0"
       normal_offset="0"
       tang_offset="0"
       prop_units="false"
       vertical_pattern="false"
       fuse_tolerance="0" />
    <inkscape:path-effect
       effect="skeletal"
       id="path-effect4314"
       is_visible="true"
       pattern="M 0,5 C 0,2.24 2.24,0 5,0 7.76,0 10,2.24 10,5 10,7.76 7.76,10 5,10 2.24,10 0,7.76 0,5 z"
       copytype="single_stretched"
       prop_scale="1"
       scale_y_rel="false"
       spacing="0"
       normal_offset="0"
       tang_offset="0"
       prop_units="false"
       vertical_pattern="false"
       fuse_tolerance="0" />
    <inkscape:path-effect
       effect="skeletal"
       id="path-effect5025-1"
       is_visible="true"
       pattern="m 1215.9352,2142.6341 c 0,-2.76 2.24,-5 5,-5 2.76,0 5,2.24 5,5 0,2.76 -2.24,5 -5,5 -2.76,0 -5,-2.24 -5,-5 z"
       copytype="single_stretched"
       prop_scale="1"
       scale_y_rel="false"
       spacing="0"
       normal_offset="0"
       tang_offset="0"
       prop_units="false"
       vertical_pattern="false"
       fuse_tolerance="0" />
    <inkscape:path-effect
       effect="skeletal"
       id="path-effect3189-8-4-9-6-1-2-4"
       is_visible="true"
       pattern="m 10700.692,2179.7965 c 0,-2.76 2.24,-5 5,-5 2.76,0 5,2.24 5,5 0,2.76 -2.24,5 -5,5 -2.76,0 -5,-2.24 -5,-5 z"
       copytype="single_stretched"
       prop_scale="1"
       scale_y_rel="false"
       spacing="0"
       normal_offset="0"
       tang_offset="0"
       prop_units="false"
       vertical_pattern="false"
       fuse_tolerance="0" />
    <inkscape:path-effect
       effect="skeletal"
       id="path-effect3189-8-4-9-6-1-2-6-5"
       is_visible="true"
       pattern="m 9593.9611,2130.9953 c 0,-2.76 2.24,-5 5,-5 2.76,0 5,2.24 5,5 0,2.76 -2.24,5 -5,5 -2.76,0 -5,-2.24 -5,-5 z"
       copytype="single_stretched"
       prop_scale="1"
       scale_y_rel="false"
       spacing="0"
       normal_offset="0"
       tang_offset="0"
       prop_units="false"
       vertical_pattern="false"
       fuse_tolerance="0" />
    <inkscape:path-effect
       effect="skeletal"
       id="path-effect4302"
       is_visible="true"
       pattern="M 0,5 C 0,2.24 2.24,0 5,0 7.76,0 10,2.24 10,5 10,7.76 7.76,10 5,10 2.24,10 0,7.76 0,5 z"
       copytype="single_stretched"
       prop_scale="1"
       scale_y_rel="false"
       spacing="0"
       normal_offset="0"
       tang_offset="0"
       prop_units="false"
       vertical_pattern="false"
       fuse_tolerance="0" />
    <inkscape:path-effect
       effect="skeletal"
       id="path-effect4589"
       is_visible="true"
       pattern="m 2707.1429,-1309.2857 c 0,-2.76 2.24,-5 5,-5 2.76,0 5,2.24 5,5 0,2.76 -2.24,5 -5,5 -2.76,0 -5,-2.24 -5,-5 z"
       copytype="single_stretched"
       prop_scale="1"
       scale_y_rel="false"
       spacing="0"
       normal_offset="0"
       tang_offset="0"
       prop_units="false"
       vertical_pattern="false"
       fuse_tolerance="0" />
    <inkscape:path-effect
       effect="skeletal"
       id="path-effect3189-8-4-9-6"
       is_visible="true"
       pattern="m 8674.6712,-1366.8956 c 0,-2.76 2.24,-5 5,-5 2.76,0 5,2.24 5,5 0,2.76 -2.24,5 -5,5 -2.76,0 -5,-2.24 -5,-5 z"
       copytype="single_stretched"
       prop_scale="1"
       scale_y_rel="false"
       spacing="0"
       normal_offset="0"
       tang_offset="0"
       prop_units="false"
       vertical_pattern="false"
       fuse_tolerance="0" />
    <inkscape:path-effect
       effect="skeletal"
       id="path-effect3189-8-4-9-7-6"
       is_visible="true"
       pattern="m 7350.8217,-1359.7945 c 0,-2.76 2.24,-5 5,-5 2.76,0 5,2.24 5,5 0,2.76 -2.24,5 -5,5 -2.76,0 -5,-2.24 -5,-5 z"
       copytype="single_stretched"
       prop_scale="1"
       scale_y_rel="false"
       spacing="0"
       normal_offset="0"
       tang_offset="0"
       prop_units="false"
       vertical_pattern="false"
       fuse_tolerance="0" />
    <inkscape:path-effect
       effect="skeletal"
       id="path-effect5345-0"
       is_visible="true"
       pattern="m -11477.728,-1220.211 c 0,-2.76 2.241,-5 5,-5 2.761,0 5,2.24 5,5 0,2.76 -2.239,5 -5,5 -2.759,0 -5,-2.24 -5,-5 z"
       copytype="single_stretched"
       prop_scale="1"
       scale_y_rel="false"
       spacing="0"
       normal_offset="0"
       tang_offset="0"
       prop_units="false"
       vertical_pattern="false"
       fuse_tolerance="0" />
    <inkscape:path-effect
       effect="skeletal"
       id="path-effect3189-8-4-9-6-1-3-8-81"
       is_visible="true"
       pattern="m 1306.486,-1242.6972 c 0,-2.76 2.24,-5 5,-5 2.76,0 5,2.24 5,5 0,2.76 -2.24,5 -5,5 -2.76,0 -5,-2.24 -5,-5 z"
       copytype="single_stretched"
       prop_scale="1"
       scale_y_rel="false"
       spacing="0"
       normal_offset="0"
       tang_offset="0"
       prop_units="false"
       vertical_pattern="false"
       fuse_tolerance="0" />
    <inkscape:path-effect
       effect="skeletal"
       id="path-effect3189-8-4-9-7-6-9-2-2-3"
       is_visible="true"
       pattern="m -92.258,-1245.0044 c 0,-2.76 2.24,-5 5,-5 2.76,0 5,2.24 5,5 0,2.76 -2.24,5 -5,5 -2.76,0 -5,-2.24 -5,-5 z"
       copytype="single_stretched"
       prop_scale="1"
       scale_y_rel="false"
       spacing="0"
       normal_offset="0"
       tang_offset="0"
       prop_units="false"
       vertical_pattern="false"
       fuse_tolerance="0" />
  </defs>
  <sodipodi:namedview
     id="base"
     pagecolor="#ffffff"
     bordercolor="#666666"
     borderopacity="1.0"
     inkscape:pageopacity="0.0"
     inkscape:pageshadow="2"
     inkscape:zoom="0.49497476"
     inkscape:cx="351.3056"
     inkscape:cy="460.1622"
     inkscape:document-units="px"
     inkscape:current-layer="layer1"
     showgrid="false"
     fit-margin-top="0"
     fit-margin-left="0"
     fit-margin-right="0"
     fit-margin-bottom="0"
     inkscape:window-width="1914"
     inkscape:window-height="1030"
     inkscape:window-x="0"
     inkscape:window-y="25"
     inkscape:window-maximized="1" />
  <metadata
     id="metadata4073">
    <rdf:RDF>
      <cc:Work
         rdf:about="">
        <dc:format>image/svg+xml</dc:format>
        <dc:type
           rdf:resource="http://purl.org/dc/dcmitype/StillImage" />
        <dc:title />
      </cc:Work>
    </rdf:RDF>
  </metadata>
  <g
     inkscape:label="Capa 1"
     inkscape:groupmode="layer"
     id="layer1"
     transform="translate(-650.94645,-246.1431)">
    <g
       id="g6275">
      <path
         inkscape:connector-curvature="0"
         id="path4789-2"
         d="m 847.6745,314.8335 c 0,0 -68.6904,94.9543 -68.6904,121.2183 0,26.264 -32.3249,139.401 -32.3249,151.5229 0,12.1218 -2.0203,90.9137 -2.0203,90.9137 l -48.4873,-32.3249 -22.2234,4.0406 -18.1827,32.3249 c 0,0 -2.0203,24.2437 6.0609,34.3452 8.0812,10.1015 30.3046,30.3046 30.3046,30.3046 l 30.3045,56.5685 26.264,8.0812 32.3249,159.6041 c 0,0 38.3858,107.0762 70.7107,143.4417 32.3248,36.3655 88.8934,80.8122 141.4213,98.995 52.528,18.1827 129.2995,6.0609 167.6853,-8.0813 38.3858,-14.1421 113.1371,-60.6091 137.3808,-88.8934 24.2437,-28.2843 74.7513,-121.2183 74.7513,-145.462 0,-24.2436 8.0812,-157.5838 8.0812,-157.5838 l 20.203,-4.0406 c 0,0 6.061,-28.2842 12.1219,-40.4061 6.0609,-12.1218 40.4061,-28.2842 44.4467,-48.4873 4.0406,-20.203 4.0406,-54.5482 -10.1015,-62.6294 -14.1422,-8.0813 -62.6295,-22.2234 -68.6904,-6.061 -6.0609,16.1625 -16.1624,-92.934 -16.1624,-92.934 0,0 -36.3655,-163.6447 -66.6701,-197.9899 -30.3046,-34.3452 -149.5026,-115.1574 -149.5026,-115.1574 l -200.0102,12.1218 z"
         style="fill:#f3dfd3;fill-opacity:1;stroke:none;display:inline" />
      <path
         sodipodi:nodetypes="zsssssssz"
         inkscape:connector-curvature="0"
         inkscape:original-d="m 1060.0922,247.7736 c -178.0867,-0.3956 -229.5045,72.3057 -265.1993,157.9737 -26.653,63.9665 -55.2092,159.0291 -42.1371,339.4265 11.8979,164.197 16.8605,217.4404 66.5315,308.7299 62.3553,114.6019 158.2031,172.6599 286.4261,165.9292 76.045,-3.9918 208.334,-101.2232 237.9669,-176.0953 49.2018,-124.3189 28.5062,-215.5146 28.5062,-301.1827 0,-85.6681 -0.8653,-187.8947 -36.6308,-291.4948 -39.321,-113.9002 -97.3781,-202.8909 -275.4635,-203.2865 z"
         inkscape:path-effect="#path-effect5345-0"
         id="path5343-4"
         d="m 1060.0922,247.7736 c -4e-4,0.18026 -2.5136,0.33923 -7.4118,0.55744 -4.8981,0.21821 -12.185,0.49006 -21.7096,1.09499 -9.5247,0.60493 -21.293,1.53242 -35.05618,3.38405 -13.76313,1.85163 -29.52803,4.61435 -46.84933,9.39071 -10e-6,0 -3e-5,0 -4e-5,1e-5 -11.49845,3.17163 -23.68419,7.29384 -36.11175,12.84545 -12.42756,5.55161 -25.10054,12.53127 -37.31509,21.55798 -8.59639,6.34137 -16.91297,13.70637 -24.77336,22.05545 -7.8604,8.34908 -15.26464,17.68294 -22.01965,27.88077 -5.92998,8.94865 -11.39212,18.54063 -16.49343,28.66634 -5.10132,10.1257 -9.84149,20.78537 -14.38885,31.81977 -7.71422,18.73864 -14.70371,38.61584 -20.68044,59.54993 -5.97673,20.9341 -10.94058,42.92543 -14.59112,65.83491 -5.17319,32.41652 -8.06988,66.53874 -8.87468,102.06624 -0.8048,35.52751 0.48345,72.46058 3.30379,110.37987 2.53753,34.018 5.03962,68.93209 8.61785,104.53869 2.54825,25.32682 5.62624,50.97826 10.72374,76.5732 4.19341,21.06328 9.91044,42.08012 17.62344,62.5969 8.03979,21.4116 18.19906,42.3488 29.46486,63.0177 14.38399,26.3595 31.59791,51.6699 52.38991,74.2025 18.64921,20.2145 40.22769,38.1659 64.37304,52.2917 23.47049,13.7438 49.37638,23.8387 76.41519,29.9096 17.8022,4.0018 36.0862,6.2792 54.5643,7.0573 11.4049,0.4803 22.8144,0.3873 34.1584,-0.2036 9.9751,-0.5068 19.9231,-2.6147 29.7098,-5.4453 11.488,-3.3354 22.6642,-7.7518 33.5641,-12.7614 25.0818,-11.5311 48.514,-26.0963 70.436,-42.2521 22.5995,-16.6719 43.5621,-35.0623 61.8933,-55.3811 8.3596,-9.2678 16.1439,-18.9147 22.9753,-29.0749 0,-10e-5 0,-10e-5 10e-5,-10e-5 6.0101,-8.9531 11.3098,-18.2381 15.1591,-27.9665 11.2702,-28.3961 19.7234,-57.42572 25.0551,-86.52758 4.7131,-25.69694 6.9822,-51.46691 7.5315,-76.87205 0.5121,-23.64023 -0.4534,-47.01503 -1.6052,-70.054 -1.1157,-22.23388 -2.3818,-44.22548 -2.3386,-65.95157 0.05,-24.17228 -0.041,-47.8572 -0.6811,-70.98551 -0.6398,-23.12831 -1.8282,-45.70002 -3.8588,-67.6573 -2.5478,-27.54416 -6.401,-54.13958 -11.586,-79.50223 -5.1849,-25.36265 -11.7009,-49.49305 -19.4479,-72.21136 -4.9238,-14.43268 -10.0966,-28.37098 -15.7128,-41.64545 -5.6162,-13.27447 -11.6754,-25.88543 -18.2869,-37.72217 -7.1378,-12.77544 -14.9665,-24.63182 -23.3699,-35.34532 -8.4035,-10.7135 -17.3813,-20.28534 -26.7887,-28.62371 0,-1e-5 0,-2e-5 0,-3e-5 -12.3343,-10.94985 -25.3513,-19.71057 -38.2395,-26.76144 -12.8882,-7.05087 -25.6515,-12.39254 -37.7617,-16.47318 -16.7772,-5.81588 -32.2389,-9.33121 -45.8485,-11.71767 -13.6097,-2.38645 -25.3758,-3.6325 -35.0121,-4.42021 -9.6363,-0.78771 -17.1503,-1.10773 -22.385,-1.31087 -5.2348,-0.20314 -8.1954,-0.28426 -8.7609,-0.37371 10e-5,-0.0311 10e-5,-0.0311 10e-5,-0.0311 0,0 0,-4e-5 10e-5,-0.0311 0.566,-0.0869 3.5284,-0.18466 8.7811,-0.1933 5.2527,-0.009 12.8001,0.0664 22.5065,0.55489 9.7064,0.48853 21.5789,1.38104 35.3635,3.35174 13.7846,1.97069 29.4899,5.00796 46.6253,10.2906 12.3839,3.9355 25.4687,9.17406 38.7309,16.19163 13.2621,7.01757 26.7055,15.81483 39.5217,26.90534 0,10e-6 10e-5,2e-5 10e-5,4e-5 9.7557,8.45499 19.0781,18.16727 27.8045,29.04169 8.7265,10.87441 16.8567,22.91215 24.2542,35.88516 6.8461,12.0028 13.1263,24.77049 18.9411,38.17993 5.8149,13.40944 11.164,27.46094 16.2321,41.97152 8.0204,22.95421 14.7957,47.33704 20.2154,72.95668 5.4197,25.61964 9.483,52.47657 12.2056,80.27353 2.1709,22.1596 3.4911,44.90491 4.2526,68.16444 0.7616,23.25953 0.9643,47.03329 1.0142,71.23855 0.043,21.38062 1.3933,43.20382 2.5912,65.48579 1.2459,23.09385 2.2969,46.67627 1.8602,70.70324 -0.4706,25.82515 -2.7114,52.09496 -7.4539,78.37928 -5.3753,29.75864 -13.9304,59.41439 -25.3671,88.39189 -4.1839,10.5688 -9.7875,20.4797 -16.0687,29.8321 0,0 -10e-5,0 -10e-5,0 -7.1326,10.6363 -15.1847,20.6625 -23.7764,30.2068 -18.8203,20.9109 -40.2493,39.7776 -63.2849,56.794 -22.3264,16.5089 -46.3262,31.4383 -72.1466,43.3429 -11.2297,5.1791 -22.8647,9.7735 -34.9433,13.2952 -10.2673,3.0044 -20.9691,5.2436 -31.9761,5.8382 -11.6395,0.6155 -23.3643,0.7124 -35.1045,0.215 -19.0214,-0.8058 -37.8957,-3.1658 -56.3317,-7.3033 -28.01841,-6.2954 -54.87188,-16.7842 -79.25277,-31.0782 -25.06403,-14.7076 -47.38012,-33.2968 -66.59457,-54.1956 -21.40198,-23.2827 -39.03651,-49.2715 -53.66783,-76.2388 -11.38038,-20.9522 -21.68291,-42.325 -29.88985,-64.3055 -7.86653,-21.09333 -13.6679,-42.6195 -17.88316,-64.12917 -5.1093,-26.08186 -8.14984,-52.03112 -10.61796,-77.49319 -3.47391,-35.79368 -5.84977,-70.78848 -8.24213,-104.80545 -2.69192,-38.15087 -3.80927,-75.37444 -2.80091,-111.22144 1.00837,-35.847 4.14124,-70.31757 9.5733,-103.08213 3.85135,-23.19802 9.03583,-45.44413 15.2461,-66.60014 6.21027,-21.156 13.44617,-41.22223 21.41326,-60.11834 4.67926,-11.10963 9.58691,-21.88042 14.88151,-32.14129 5.29459,-10.26087 10.97581,-20.01207 17.1416,-29.13303 7.04036,-10.41076 14.75613,-19.92315 22.93998,-28.41933 8.18385,-8.49619 16.8358,-15.97686 25.767,-22.40542 12.69584,-9.12205 25.76814,-16.10123 38.53071,-21.58958 12.76257,-5.48835 25.21903,-9.48456 36.9394,-12.49412 10e-6,0 3e-5,-1e-5 4e-5,-1e-5 17.6353,-4.5296 33.60637,-7.00565 47.51432,-8.55007 13.90796,-1.54442 25.75966,-2.14412 35.33746,-2.41197 9.5778,-0.26785 16.8873,-0.19322 21.7965,-0.0602 4.9092,0.13305 7.4214,0.3303 7.421,0.51056 z"
         style="fill:#000000;fill-rule:evenodd;stroke:none;display:inline" />
      <path
         sodipodi:nodetypes="csccc"
         inkscape:connector-curvature="0"
         inkscape:original-d="m 1374.8186,667.4743 c 0,0 17.8708,-29.5127 62.5085,-17.5277 18.8225,5.0538 35.1893,67.3003 13.8336,80.8344 -21.3563,13.5339 -45.0719,49.5485 -45.2759,72.2395 -0.2045,22.6907 -34.4478,15.0977 -34.4478,15.0977"
         inkscape:path-effect="#path-effect3189-8-4-9-6-1-3-8-81"
         id="path3187-7-6-0-3-8-9-0-5"
         d="m 1374.8186,667.47428 c -0.027,-0.0172 -0.05,-0.042 -0.067,-0.0743 -0.017,-0.0312 -0.03,-0.0694 -0.037,-0.11466 0,0 0,0 0,0 -0.015,-0.0896 -0.012,-0.20668 0.01,-0.34959 0,0 0,0 0,0 0,0 0,0 0,0 0.045,-0.28195 0.167,-0.66756 0.3722,-1.14267 0,0 0,0 0,0 0.3962,-0.91752 1.1097,-2.18456 2.2055,-3.68974 0,0 0,0 0,0 1.0277,-1.4119 2.3947,-3.04386 4.1709,-4.77092 1.7763,-1.72706 3.9639,-3.54924 6.6051,-5.29662 0,0 0,0 0,0 2.5469,-1.68322 5.5143,-3.28783 8.8936,-4.64929 3.3794,-1.36145 7.1719,-2.47917 11.3038,-3.17973 0,0 0,0 0,0 4.4822,-0.7521 9.3207,-1.03653 14.3958,-0.77607 5.0751,0.26045 10.3868,1.06674 15.7586,2.40771 0,0 0,0 0,0 3.6247,1.01572 6.6303,3.03585 8.8974,5.35845 0,0 0,0 0,0 2.8396,2.78725 5.16,6.00632 7.0938,9.33785 0,0 0,0 0,0 4.4875,7.66821 7.6733,16.43801 9.6641,25.64118 0,0 0,0 0,0 1.921,8.6111 2.9115,18.03741 1.5108,27.71808 -0.299,2.10871 -0.7536,4.2614 -1.4175,6.41064 -0.5882,1.90435 -1.3362,3.79029 -2.2731,5.625 -1.791,3.53684 -4.5127,6.73699 -8.082,9.05324 -5.6339,3.51442 -10.5898,8.08771 -15.1662,12.9014 -5.444,5.75665 -10.1526,11.87435 -14.22,18.03415 -4.3427,6.59393 -7.9179,13.17197 -10.5524,19.611 -1.2494,3.1034 -2.3223,6.12853 -3.093,9.05457 -0.7707,2.92603 -1.2395,5.75309 -1.3475,8.46857 -0.085,2.97168 -0.7863,5.9349 -2.1372,8.5685 -1.2769,2.41073 -3.0596,4.3302 -5.0435,5.73381 -2.3347,1.59786 -4.7297,2.55554 -7.0087,3.15442 -2.2791,0.59888 -4.4435,0.83814 -6.4019,0.91131 -2.6229,0.1227 -4.962,-0.006 -7.0024,-0.23384 -2.0405,-0.22754 -3.783,-0.55498 -5.2249,-0.89288 -3.4768,-0.97481 -5.2653,-1.7104 -5.1896,-2.17165 0,0 0,0 0,0 0,0 0,0 0,0 0,0 0,0 0,0 0,0 0,0 0,0 0,0 0,0 0,0 0,0 0,-10e-6 0,-10e-6 0,0 0,0 0,0 0,0 0,0 0,0 0,0 0,0 0,0 0,0 0,0 0,0 7e-4,-0.004 7e-4,-0.004 7e-4,-0.004 0,0 0,0 8e-4,-0.004 0,0 0,0 0,0 0,0 0,0 0,0 0,0 0,0 0,0 0,0 0,0 0,0 0,0 0,0 0,-10e-6 0,0 0,0 0,0 0,0 0,0 0,0 0,0 0,0 0,0 0,0 0,0 0,0 0,0 0,0 0,0 0.097,-0.4579 2.0485,-0.61283 5.5453,-0.50487 1.4282,-0.0194 3.1152,-0.0444 5.024,-0.15484 1.9089,-0.1105 4.0403,-0.30518 6.3326,-0.72102 1.7245,-0.33037 3.5508,-0.75738 5.3241,-1.40352 1.7734,-0.64614 3.495,-1.5104 4.9138,-2.78756 1.1809,-1.02058 2.1961,-2.32559 2.8096,-3.80115 0.7187,-1.6209 0.9771,-3.61314 0.9379,-5.75278 -0.054,-3.29907 0.2815,-6.69181 0.9551,-10.1137 0.6736,-3.42189 1.6858,-6.87285 2.9188,-10.27713 2.5512,-7.15582 6.1268,-14.42975 10.5449,-21.58235 4.1279,-6.69937 9.0274,-13.38796 14.8094,-19.7253 4.8055,-5.29364 10.3373,-10.4678 16.9445,-14.71083 1.8158,-1.09654 3.3395,-3.02656 4.536,-5.25043 0.643,-1.21157 1.1593,-2.53502 1.5804,-3.94052 0.4751,-1.58623 0.8249,-3.26211 1.1007,-4.97893 1.2562,-8.00198 0.3941,-16.27548 -1.1788,-24.21779 0,0 0,0 0,0 -1.7363,-8.45452 -4.3568,-16.34002 -8.0925,-23.11457 0,0 0,0 0,0 -1.6263,-2.92138 -3.3468,-5.55759 -5.368,-7.6421 0,0 0,0 0,0 -1.6904,-1.64373 -3.2816,-3.00102 -4.8515,-3.38002 0,0 0,0 0,0 -4.8665,-1.40796 -9.6292,-2.38244 -14.165,-2.88211 -4.5357,-0.49968 -8.8449,-0.52523 -12.8545,-0.12432 0,0 0,0 0,0 -3.6842,0.3607 -7.1188,1.07213 -10.2304,2.0044 -3.1115,0.93226 -5.9013,2.08502 -8.3559,3.32655 0,0 0,0 0,0 -5.1134,2.58434 -8.7793,5.46619 -11.2832,7.59533 0,0 0,0 0,0 -1.3359,1.13648 -2.3406,2.05864 -3.0728,2.67553 0,0 0,0 0,0 -0.3792,0.31952 -0.6831,0.55417 -0.9203,0.69636 0,0 0,0 0,0 0,0 0,0 0,0 -0.1211,0.0729 -0.2242,0.12089 -0.3106,0.14313 0,0 0,0 0,0 -0.043,0.0112 -0.083,0.0158 -0.1178,0.0136 -0.036,-0.002 -0.068,-0.0118 -0.095,-0.029 z"
         style="fill:#000000;fill-rule:evenodd;stroke:none;display:inline" />
      <path
         sodipodi:nodetypes="ccccc"
         inkscape:connector-curvature="0"
         inkscape:original-d="m 741.2822,672.3217 c 0,0 -36.9373,-23.9733 -58.6446,-21.9976 -21.7073,1.9757 -39.1177,66.3544 -15.1556,79.523 23.9634,13.1687 50.6577,48.4153 50.9792,70.7128 0.321,22.2977 38.6247,14.6251 38.6247,14.6251"
         inkscape:path-effect="#path-effect3189-8-4-9-7-6-9-2-2-3"
         id="path3187-7-6-0-6-1-1-5-3-6"
         d="m 741.2748,672.31691 c -0.0195,0.0303 -0.0458,0.056 -0.0789,0.0773 -0.037,0.0176 -0.0826,0.0294 -0.13697,0.0357 0,0 0,0 0,0 -0.10778,0.0124 -0.24953,0.003 -0.42489,-0.028 0,0 0,0 0,0 -0.34449,-0.0605 -0.81789,-0.20255 -1.4176,-0.42051 0,0 0,0 0,0 -1.15436,-0.41953 -2.77309,-1.11867 -4.83609,-2.04699 0,0 0,0 0,0 -3.74491,-1.68499 -8.93724,-4.14246 -15.48565,-6.88019 0,0 0,0 0,0 0,0 0,0 0,0 0,0 0,0 0,0 -2.71661,-1.1342 -5.65989,-2.31924 -8.82468,-3.46891 -3.16479,-1.14967 -6.55099,-2.26433 -10.15881,-3.2185 0,0 0,0 0,0 -2.71174,-0.69624 -5.51735,-1.34976 -8.35669,-1.75498 -2.83935,-0.40523 -5.71238,-0.56238 -8.544,-0.1906 0,0 0,0 0,0 -1.78082,0.14308 -3.69549,1.26191 -5.57557,2.72769 0,0 0,0 0,0 -2.20987,1.79351 -4.12715,4.26505 -5.93976,7.0639 0,0 0,0 0,0 -4.13004,6.44744 -6.98368,14.27092 -8.8491,22.74194 -1.67633,7.94947 -2.53693,16.31034 -1.0487,24.32241 0,0 0,0 0,0 0.6145,3.24922 1.52854,6.35199 3.07812,8.92269 0.0337,0.056 0.0677,0.1118 0.10191,0.16743 1.34601,2.18612 3.09881,4.04451 5.10725,5.10783 7.22802,4.01283 13.46709,9.03616 18.96119,14.28106 0,0 0,0 0,0 6.42029,6.10424 11.97485,12.64987 16.70738,19.30015 0,0 0,0 0,0 4.93564,6.91689 9.02967,14.06281 12.00375,21.21704 0,0 0,0 0,0 0,0 0,1e-5 0,1e-5 0,0 0,0 0,0 1.39701,3.29707 2.56842,6.68593 3.36682,10.08397 0.7984,3.39805 1.22408,6.8052 1.20263,10.14981 0,0 0,0 0,0 -0.0218,2.0184 0.29058,3.91757 1.06743,5.41063 0,0 0,0 0,0 0.68959,1.44266 1.86345,2.69554 3.18671,3.69435 0,0 0,0 0,0 1.7021,1.31417 3.68596,2.1699 5.70609,2.80018 2.02013,0.63028 4.07749,1.03394 6.01845,1.35463 0,0 0,0 0,0 2.61061,0.40431 5.02239,0.59217 7.17662,0.69906 2.15424,0.1069 4.05148,0.13154 5.65442,0.15339 0,0 0,0 0,0 0,0 0,0 0,0 1.87455,0.0246 3.34263,0.0378 4.37522,0.10472 0,0 0,0 0,0 0.54856,0.0355 0.97258,0.086 1.26938,0.15805 0,0 0,0 0,0 0,0 0,0 0,0 0.16846,0.12107 0.29114,0.18649 0.37359,0.22635 0,0 0,0 0,0 0,0 0,0 0,0 0.046,0.0412 0.0786,0.0604 0.0998,0.0693 0.0107,0.004 0.0185,0.006 0.0237,0.007 0.008,2.4e-4 0.008,2.4e-4 0.008,2.4e-4 0,0 10e-6,0 3.2e-4,0.002 -0.0123,0.004 -0.0188,0.009 -0.0271,0.017 -0.0164,0.0162 -0.0396,0.0463 -0.0672,0.1015 0,0 0,0 0,0 0,0 0,0 0,0 -0.0631,0.0676 -0.15598,0.17348 -0.27215,0.34599 0,0 0,0 0,0 0,0 0,0 0,10e-6 -0.25744,0.17219 -0.64943,0.36472 -1.1711,0.56989 0,0 0,0 0,0 -0.98207,0.38624 -2.42979,0.82084 -4.32056,1.2332 0,0 0,0 0,0 0,0 0,0 0,0 -1.61391,0.35311 -3.55709,0.69654 -5.82245,0.94275 -2.26536,0.2462 -4.85347,0.39646 -7.74751,0.30192 0,0 0,0 0,0 -2.1382,-0.049 -4.50019,-0.24453 -7.00416,-0.79434 -2.50397,-0.5498 -5.1511,-1.45289 -7.78037,-3.01916 0,0 0,0 0,0 -2.13893,-1.30359 -4.14391,-3.15997 -5.64417,-5.62781 0,0 0,0 0,0 -1.52353,-2.6148 -2.33903,-5.61717 -2.43345,-8.64505 0,0 0,0 0,0 -0.1079,-2.65158 -0.6307,-5.40106 -1.48576,-8.23567 -0.85506,-2.83462 -2.04264,-5.7545 -3.40734,-8.7381 0,0 0,0 0,0 0,0 0,-1e-5 -10e-6,-1e-5 0,0 0,0 0,0 -2.97171,-6.36765 -6.98456,-12.77489 -11.78146,-19.13479 0,0 0,0 0,0 -4.60745,-6.09098 -9.9102,-12.06901 -15.94356,-17.62838 0,0 0,0 0,0 -5.20437,-4.77489 -10.83463,-9.25519 -17.0985,-12.65661 -3.74731,-2.0998 -6.76707,-5.15187 -8.8699,-8.68762 -0.0535,-0.09 -0.1064,-0.18021 -0.15867,-0.27072 -2.28682,-3.96706 -3.59262,-8.17651 -4.27122,-12.24999 0,0 0,0 0,0 -1.66696,-9.85532 -0.65035,-19.48587 1.44192,-28.18898 2.15784,-9.30683 5.71191,-18.12707 10.76755,-25.57212 0,0 0,0 0,0 2.20446,-3.27661 4.88304,-6.36506 8.11842,-8.86211 0,0 0,0 0,0 2.78821,-2.21257 6.29678,-3.79021 10.15725,-4.16057 0,0 0,0 0,0 3.75687,-0.22787 7.28744,0.11921 10.5774,0.74734 3.28996,0.62814 6.3395,1.53748 9.14908,2.50986 0,0 0,0 0,0 3.80581,1.28632 7.29928,2.72552 10.50647,4.19507 3.2072,1.46956 6.12815,2.96985 8.7808,4.41751 0,0 0,0 0,0 10e-6,10e-6 10e-6,10e-6 10e-6,10e-6 0,0 0,0 0,0 6.4084,3.49267 11.30034,6.71174 14.65843,9.16721 0,0 0,0 0,0 1.85029,1.3528 3.23526,2.4828 4.13524,3.33517 0,0 0,0 0,0 0.46753,0.4428 0.805,0.81147 1.00858,1.09887 0,0 0,0 0,0 0.1034,0.14609 0.17242,0.27133 0.20654,0.37484 0,0 0,0 0,0 0.0172,0.0522 0.0255,0.0988 0.025,0.13988 -0.006,0.0391 -0.018,0.0738 -0.0374,0.10411 z"
         style="fill:#000000;fill-rule:evenodd;stroke:none;display:inline" />
    </g>
  </g>
</svg>
