<?xml version="1.0" encoding="UTF-8" standalone="no"?>
<!-- Created with Inkscape (http://www.inkscape.org/) -->

<svg
   xmlns:dc="http://purl.org/dc/elements/1.1/"
   xmlns:cc="http://creativecommons.org/ns#"
   xmlns:rdf="http://www.w3.org/1999/02/22-rdf-syntax-ns#"
   xmlns:svg="http://www.w3.org/2000/svg"
   xmlns="http://www.w3.org/2000/svg"
   xmlns:sodipodi="http://sodipodi.sourceforge.net/DTD/sodipodi-0.dtd"
   xmlns:inkscape="http://www.inkscape.org/namespaces/inkscape"
   width="596.7749"
   height="682.7879"
   id="svg4068"
   version="1.1"
   inkscape:version="0.48.3.1 r9886"
   sodipodi:docname="cara_2.svg">
  <defs
     id="defs4070">
    <inkscape:path-effect
       effect="skeletal"
       id="path-effect6574"
       is_visible="true"
       pattern="m -14069.21,-1265.6489 c 0,-2.76 2.24,-5 5,-5 2.76,0 5,2.24 5,5 0,2.76 -2.24,5 -5,5 -2.76,0 -5,-2.24 -5,-5 z"
       copytype="single_stretched"
       prop_scale="1"
       scale_y_rel="false"
       spacing="0"
       normal_offset="0"
       tang_offset="0"
       prop_units="false"
       vertical_pattern="false"
       fuse_tolerance="0" />
    <inkscape:path-effect
       effect="skeletal"
       id="path-effect5543"
       is_visible="true"
       pattern="m -13870.71,-1632.2205 c 0,-2.76 2.24,-5 5,-5 2.76,0 5,2.24 5,5 0,2.76 -2.24,5 -5,5 -2.76,0 -5,-2.24 -5,-5 z"
       copytype="single_stretched"
       prop_scale="1"
       scale_y_rel="false"
       spacing="0"
       normal_offset="0"
       tang_offset="0"
       prop_units="false"
       vertical_pattern="false"
       fuse_tolerance="0" />
    <inkscape:path-effect
       effect="skeletal"
       id="path-effect6549"
       is_visible="true"
       pattern="m -15162.253,-954.8568 c 0,-2.76 2.24,-5 5,-5 2.76,0 5,2.24 5,5 0,2.76 -2.24,5 -5,5 -2.76,0 -5,-2.24 -5,-5 z"
       copytype="single_stretched"
       prop_scale="1"
       scale_y_rel="false"
       spacing="0"
       normal_offset="0"
       tang_offset="0"
       prop_units="false"
       vertical_pattern="false"
       fuse_tolerance="0" />
    <inkscape:path-effect
       effect="skeletal"
       id="path-effect3189-8-4-9-7-6-9-2-2-9-8"
       is_visible="true"
       pattern="m 774.1319,-1079.7401 c 0,-2.76 2.24,-4.9999 5,-4.9999 2.76,0 5,2.2399 5,4.9999 0,2.76 -2.24,5 -5,5 -2.76,0 -5,-2.24 -5,-5 z"
       copytype="single_stretched"
       prop_scale="1"
       scale_y_rel="false"
       spacing="0"
       normal_offset="0"
       tang_offset="0"
       prop_units="false"
       vertical_pattern="false"
       fuse_tolerance="0" />
    <inkscape:path-effect
       effect="skeletal"
       id="path-effect3189-8-4-9-7-6-9-2-2-9-8-3"
       is_visible="true"
       pattern="m 1294.1613,-1100.9796 c 0,-2.76 2.24,-4.9999 5,-4.9999 2.76,0 5,2.2399 5,4.9999 0,2.76 -2.24,5 -5,5 -2.76,0 -5,-2.24 -5,-5 z"
       copytype="single_stretched"
       prop_scale="1"
       scale_y_rel="false"
       spacing="0"
       normal_offset="0"
       tang_offset="0"
       prop_units="false"
       vertical_pattern="false"
       fuse_tolerance="0" />
  </defs>
  <sodipodi:namedview
     id="base"
     pagecolor="#ffffff"
     bordercolor="#666666"
     borderopacity="1.0"
     inkscape:pageopacity="0.0"
     inkscape:pageshadow="2"
     inkscape:zoom="0.70000002"
     inkscape:cx="635.41137"
     inkscape:cy="156.72577"
     inkscape:document-units="px"
     inkscape:current-layer="layer1"
     showgrid="false"
     fit-margin-top="0"
     fit-margin-left="0"
     fit-margin-right="0"
     fit-margin-bottom="0"
     inkscape:window-width="1914"
     inkscape:window-height="1030"
     inkscape:window-x="0"
     inkscape:window-y="25"
     inkscape:window-maximized="1" />
  <metadata
     id="metadata4073">
    <rdf:RDF>
      <cc:Work
         rdf:about="">
        <dc:format>image/svg+xml</dc:format>
        <dc:type
           rdf:resource="http://purl.org/dc/dcmitype/StillImage" />
        <dc:title />
      </cc:Work>
    </rdf:RDF>
  </metadata>
  <g
     inkscape:label="Capa 1"
     inkscape:groupmode="layer"
     id="layer1"
     transform="translate(-24.952247,-401.90179)">
    <g
       id="g4439">
      <path
         inkscape:connector-curvature="0"
         id="path4795"
         d="m 70.1686,577.5931 18.1827,150.8873 -45.1277,-18.2508 -11.4408,55.2519 26.2639,38.3858 c 0,0 4.0406,30.3046 12.1219,40.4061 8.0812,10.1015 24.2436,6.0609 24.2436,6.0609 l 16.1625,42.4264 36.3655,52.5279 62.6294,60.6092 72.731,54.5482 46.467,24.2437 52.5279,-38.3858 90.9138,-68.6904 50.5076,-68.6904 20.1918,-78.0769 c 0,0 26.1754,10.961 27.5806,-5.2666 1.9863,-22.9383 52.5619,-81.5612 51.2113,-107.8705 -0.5179,-10.0882 -20.2031,-22.1327 -20.2031,-22.1327 l -45.0597,20.2257 c 0,0 7.344,-120.1205 -8.0132,-165.0973 C 533.0673,505.728 429.7829,422.0296 429.7829,422.0296 c 0,0 -86.0854,-12.9514 -98.995,-12.1218 C 78.9206,426.0929 70.1686,577.5931 70.1686,577.5931 z"
         style="fill:#fce4e4;fill-opacity:1;stroke:none;display:inline"
         sodipodi:nodetypes="cccccsccccccccccsscczcsc" />
      <path
         sodipodi:nodetypes="ccszszccssc"
         inkscape:connector-curvature="0"
         inkscape:original-d="m 89.3826,804.9258 c 0,0 -6.8849,54.6825 43.7108,118.3588 24.1786,28.4708 63.7237,72.9209 109.8618,105.8676 46.1643,32.9649 68.8125,47.6539 90.6618,46.5429 21.8487,-1.1109 66.9429,-46.3883 96.0434,-70.9034 39.9754,-33.6765 98.1319,-68.4675 99.3112,-101.9338 1.1806,-33.4663 22.9004,-106.4164 30.2072,-125.0871 7.3076,-18.6707 -1.6966,-147.3659 1.9571,-180.9731 3.6537,-33.6073 -83.589,-191.0818 -217.7005,-190.2535 -134.7341,0.8322 -301.5485,92.9782 -272.3204,205.0024 29.2288,112.0242 18.2676,193.3792 18.2676,193.3792 z"
         inkscape:path-effect="#path-effect6549"
         id="path6547"
         d="m 89.382598,804.92582 c 0.474196,-0.0388 1.939248,12.23994 4.243155,35.12116 2.462739,10.5964 6.479967,23.24957 13.116137,37.182 3.31808,6.96621 7.28688,14.24674 11.98855,21.70443 4.70166,7.45769 10.13745,15.09289 16.33014,22.73507 13.6505,15.77814 29.08774,32.99835 46.92204,50.69155 1e-5,10e-6 2e-5,2e-5 3e-5,3e-5 9.11162,9.03901 18.84011,18.22049 29.30467,27.29428 10.46456,9.07376 21.66502,18.04026 33.7555,26.57436 8.53896,6.0246 17.19104,12.2615 26.15271,18.3281 8.96168,6.0666 18.23282,11.9631 28.06451,17.2111 6.00181,3.1952 12.15674,6.0872 18.58907,7.9285 5.0832,1.4549 10.36269,2.2464 15.5617,1.9436 2.46488,-0.094 5.09458,-0.9866 7.85238,-2.0934 3.48885,-1.4445 6.89616,-3.3623 10.31048,-5.4774 8.48011,-5.2653 16.54397,-11.6305 24.64282,-18.3326 8.80166,-7.294 17.50179,-15.0342 26.33092,-22.9403 7.89077,-7.0676 15.87035,-14.3216 24.24097,-21.4138 10.41144,-8.81656 21.34469,-17.17658 32.30796,-25.63844 10.67862,-8.24671 21.43577,-16.54637 31.71495,-25.51456 8.75526,-7.66399 17.236,-15.63336 23.95723,-24.86154 2.73267,-3.7556 5.15057,-7.65052 6.85634,-11.7518 1.47962,-3.58005 2.47771,-7.28948 2.57262,-10.92659 0.3797,-10.80487 2.1957,-21.40474 4.2281,-31.79645 2.42477,-12.48088 5.38849,-24.92781 8.63443,-37.36418 2.99507,-11.47966 6.24563,-22.98579 9.78415,-34.49267 1.37897,-4.48475 2.80571,-8.98105 4.3148,-13.47615 10e-6,-3e-5 10e-6,-5e-5 2e-5,-7e-5 1.0597,-3.16014 2.16525,-6.37022 3.42051,-9.5893 0,-10e-6 1e-5,-2e-5 1e-5,-4e-5 0.40404,-0.96021 0.63064,-2.24863 0.91235,-3.7692 0,-3e-5 0,-5e-5 10e-6,-7e-5 0.36144,-2.1173 0.59194,-4.32765 0.78856,-6.61138 0,-3e-5 10e-6,-5e-5 10e-6,-8e-5 0.53994,-6.32711 0.70926,-12.7786 0.81096,-19.32537 0.2671,-17.54457 -0.13846,-35.30621 -0.55228,-53.26565 -0.42952,-18.58733 -0.98192,-37.35905 -1.22235,-56.30848 -0.0146,-1.14646 -0.0281,-2.29408 -0.0401,-3.44287 -0.0693,-6.62069 -0.0878,-13.24762 0.0278,-19.87747 0.0925,-5.59648 0.23973,-11.31746 0.86459,-17.11243 0.23851,-1.87659 5.7e-4,-4.02628 -0.33638,-6.36921 -0.48498,-3.13496 -1.30634,-6.29589 -2.27492,-9.49021 -2.64465,-8.69904 -6.36128,-17.12402 -10.48897,-25.39095 -5.31645,-10.62543 -11.39011,-20.82485 -17.96389,-30.62908 -7.63807,-11.38752 -15.95852,-22.20347 -24.85994,-32.37352 -9.97855,-11.38747 -20.68036,-21.99323 -32.04442,-31.52092 -11.36406,-9.52769 -23.39035,-17.97716 -36.01642,-25.0925 -13.45089,-7.58642 -27.56554,-13.62716 -42.02542,-17.73172 -15.36941,-4.3664 -31.15,-6.54201 -46.69457,-6.47872 -35.72571,0.13182 -70.23872,6.42629 -102.24608,16.16302 -2e-5,10e-6 -3e-5,10e-6 -5e-5,2e-5 -17.21573,5.24754 -33.74596,11.51269 -49.34622,18.75209 -15.60027,7.23939 -30.27067,15.45292 -43.84343,24.5611 -13.40905,8.99855 -25.6986,18.87785 -36.42117,29.67198 -10.39195,10.46797 -19.320243,21.77553 -26.104237,33.7831 -6.713358,11.88478 -11.316011,24.46382 -13.304643,37.00182 -2.18212,13.65038 -1.254055,27.24263 1.889028,39.65707 7.324997,28.88272 11.947561,55.42328 14.768649,78.86418 2.821088,23.44089 3.854944,43.78906 4.051906,60.54385 0.204914,17.49172 -0.538852,31.07727 -1.380686,40.33296 -1.298113,8.76096 -1.902346,13.68226 -2.107551,14.41693 -0.03692,-0.003 -0.03697,-0.003 -0.03697,-0.003 0,0 -5e-5,0 -0.03696,-0.003 -0.07553,-0.75895 0.177198,-5.70869 0.406509,-14.54153 0.283826,-9.24845 0.48133,-22.75557 -0.24186,-40.11146 -0.692492,-16.64159 -2.198471,-36.81333 -5.451063,-60.00966 -3.252592,-23.19634 -8.265919,-49.4243 -15.916479,-77.93786 -3.520226,-13.12442 -4.695265,-27.56366 -2.544157,-42.21841 1.987205,-13.43262 6.69957,-26.85633 13.673511,-39.47229 7.03229,-12.72405 16.240121,-24.66166 26.938614,-35.61527 11.02887,-11.29881 23.62915,-21.62396 37.33977,-30.97642 13.86552,-9.45843 28.84565,-17.99913 44.76641,-25.52998 15.92075,-7.53084 32.78223,-14.05168 50.33345,-19.50658 2e-5,-10e-6 4e-5,-10e-6 6e-5,-2e-5 32.6222,-10.15841 67.9596,-16.77947 104.75637,-17.09559 16.43188,-0.1342 33.09198,2.08928 49.32311,6.63872 15.25712,4.27986 30.09246,10.55966 44.17247,18.45412 13.19585,7.40458 25.7366,16.15738 37.55121,26.00154 11.81462,9.84415 22.90306,20.7795 33.19676,32.50856 9.19772,10.46847 17.79471,21.60574 25.68718,33.33742 6.79156,10.09179 13.08931,20.64643 18.63585,31.69684 4.30207,8.55366 8.23258,17.49175 11.13149,26.93659 1.06791,3.47104 1.99614,7.08713 2.59561,10.85749 0.46009,2.73229 0.72029,5.75738 0.40237,8.99889 -0.57471,5.23886 -0.70093,10.65645 -0.80217,16.20625 -0.11257,6.49449 -0.0929,13.02842 -0.0243,19.59922 0.0119,1.14012 0.0252,2.28039 0.0396,3.42079 0.23772,18.83851 0.78268,37.57796 1.20011,56.20797 0.40362,17.96087 0.79165,35.85349 0.49997,53.6496 -0.1065,6.62214 -0.29705,13.30452 -0.87418,20.01349 0,3e-5 0,5e-5 0,8e-5 -0.20635,2.41879 -0.47539,4.90085 -0.90387,7.42501 0,3e-5 -10e-6,6e-5 -10e-6,8e-5 -0.26615,1.6985 -0.67573,3.63525 -1.45977,5.71057 -10e-6,3e-5 -2e-5,6e-5 -4e-5,10e-5 -1.165,2.96529 -2.22202,6.02486 -3.27428,9.13616 -10e-6,2e-5 -10e-6,4e-5 -2e-5,7e-5 -1.4826,4.38865 -2.8922,8.80274 -4.26319,13.22898 -3.51742,11.35721 -6.75499,22.72147 -9.74488,34.067 -3.23947,12.29743 -6.19053,24.5355 -8.59728,36.74384 -2.01033,10.26681 -3.80104,20.35111 -4.15274,30.27933 -0.21183,5.06765 -1.47399,9.89429 -3.35988,14.2878 -2.13183,4.99077 -4.92974,9.51653 -7.99786,13.65379 -7.48279,10.09858 -16.45988,18.53327 -25.47019,26.29462 -10.60291,9.16315 -21.5362,17.5263 -32.26102,25.72044 -11.02954,8.43172 -21.89488,16.64604 -32.12435,25.21802 -8.25146,6.9107 -16.21527,14.0689 -24.18119,21.1157 -8.88905,7.8653 -17.72594,15.6242 -26.72917,22.9867 -8.23618,6.7445 -16.66373,13.2784 -25.69784,18.818 -3.6365,2.2346 -7.45838,4.3287 -11.54089,6.0021 -3.15574,1.3284 -6.69747,2.3986 -10.56014,2.6268 -6.29413,0.2816 -12.45417,-0.6639 -18.22175,-2.3923 -7.20493,-2.1595 -13.8361,-5.3138 -20.05303,-8.7216 -10.11894,-5.5332 -19.55768,-11.649 -28.58935,-17.8817 -9.03167,-6.2328 -17.65614,-12.5825 -26.09148,-18.6789 -12.22637,-8.8303 -23.5041,-18.0652 -33.9998,-27.3851 -10.49569,-9.3199 -20.20921,-18.72513 -29.27145,-27.97079 -1e-5,-1e-5 -2e-5,-2e-5 -3e-5,-3e-5 -17.77577,-18.13396 -33.04696,-35.71746 -46.47008,-51.81906 -6.19761,-7.9514 -11.60313,-15.89016 -16.2462,-23.63428 -4.64307,-7.74413 -8.52496,-15.29395 -11.73387,-22.5044 -6.417813,-14.42092 -10.128491,-27.45878 -12.234321,-38.31659 -1.455211,-23.12178 -2.003427,-35.48089 -1.529231,-35.51963 z"
         style="fill:#000000;fill-rule:evenodd;stroke:none" />
      <path
         sodipodi:nodetypes="ccccc"
         inkscape:connector-curvature="0"
         inkscape:original-d="m 89.467,733.7665 c 0,0 -25.7696,-19.8694 -40.9133,-18.232 -15.1436,1.6375 -27.2899,54.9953 -10.5727,65.9097 16.7178,10.9143 35.3407,40.1271 35.5652,58.6075 0.2234,18.4806 26.9459,12.1214 26.9459,12.1214"
         inkscape:path-effect="#path-effect3189-8-4-9-7-6-9-2-2-9-8"
         id="path3187-7-6-0-6-1-1-5-3-3-3"
         d="m 89.466949,733.76652 c -0.02159,0.0283 -0.04984,0.0514 -0.08451,0.0694 -0.03348,0.0174 -0.07303,0.0301 -0.118582,0.0381 0,0 -10e-7,0 -10e-7,0 -0.09027,0.0159 -0.204096,0.0137 -0.34129,-0.006 0,0 -1e-6,0 -1e-6,0 0,0 0,0 0,0 -0.269107,-0.0389 -0.627328,-0.14514 -1.073442,-0.31446 0,0 0,0 0,0 -0.856502,-0.32507 -2.033448,-0.88068 -3.520564,-1.62796 0,0 0,0 0,0 -2.681618,-1.34731 -6.355516,-3.33053 -10.987749,-5.55808 0,0 0,0 0,0 -3.793467,-1.82011 -8.190631,-3.84539 -13.199995,-5.36995 0,0 0,0 0,0 -1.858717,-0.53627 -3.760268,-1.0468 -5.642605,-1.35951 -1.882338,-0.31271 -3.745398,-0.42785 -5.512609,-0.10901 0,0 0,0 0,0 -0.819977,0.0183 -1.842212,0.88449 -3.042086,1.93424 0,0 0,0 0,0 -1.469793,1.43645 -2.697075,3.4184 -3.915098,5.67753 0,0 0,0 0,0 -10e-7,0 -2e-6,0 -3e-6,10e-6 0,0 0,0 0,0 -2.85265,5.39851 -4.729619,11.81354 -5.988602,18.76903 -1.133647,6.59277 -1.712551,13.46486 -0.660111,20.12926 0,0 0,0 0,0 0.434084,2.65999 1.038363,5.17787 2.117704,7.29247 0.01742,0.0327 0.0349,0.0654 0.05243,0.098 0.905954,1.68441 1.941564,3.1223 3.158287,3.83765 5.311414,3.51631 9.70423,7.76304 13.481353,12.07762 0,0 0,0 0,0 4.585002,5.20248 8.44569,10.67707 11.682611,16.14505 3.487038,5.87266 6.290191,11.84144 8.278188,17.69763 0,0 0,0 0,0 10e-7,10e-6 2e-6,10e-6 2e-6,10e-6 0,0 0,0 0,0 0.970007,2.80542 1.758959,5.65223 2.278409,8.47582 0.519451,2.82358 0.769657,5.62383 0.714536,8.34492 0,0 0,0 0,0 -0.04092,1.67894 0.117612,3.21536 0.626623,4.45234 0,0 0,0 0,0 0.418154,1.10368 1.127234,2.1011 1.969085,2.88306 0,0 0,0 0,0 0.989385,0.97731 2.251246,1.65588 3.575342,2.17492 1.324096,0.51903 2.711312,0.87775 4.030806,1.16285 0,0 0,0 0,0 1.75785,0.35253 3.403754,0.53007 4.882841,0.64222 1.479088,0.11215 2.791919,0.15782 3.905894,0.20092 0,0 10e-7,0 10e-7,0 10e-7,0 10e-7,0 10e-7,0 1.306563,0.0493 2.334917,0.0894 3.065828,0.17329 0,0 0,0 0,0 0.389214,0.0446 0.692275,0.1017 0.908135,0.17639 0,0 0,0 0,0 0,0 0,0 0,0 0.11015,0.0386 0.19731,0.0818 0.26136,0.13032 0,0 0,0 0,0 0.047,0.0852 0.0774,0.12758 0.0963,0.14847 0.0186,0.0207 0.0259,0.0203 0.0267,0.0202 0,0 0,0 0,0 0,0 0,0 0,0 0,0 0,0 0,0 0,0 0,0 0,0 0,0 0,0 0,0 0,0 0,0 0,0 0,0 0,0 0,0 4e-5,0 3e-5,0 3e-5,0 0,0 1e-5,0 -3e-5,10e-6 0,0 0,0 0,0 0,0 0,0 0,0 0,0 0,0 0,0 0,0 0,0 0,0 0,0 0,0 0,0 0,0 0,0 0,0 0,0 0,0 0,0 -6.8e-4,2.3e-4 -0.007,0.003 -0.015,0.03 -0.008,0.027 -0.0164,0.0784 -0.0211,0.17529 0,0 0,0 0,0 -0.0379,0.0716 -0.10164,0.14843 -0.19062,0.22977 0,0 0,0 0,0 0,0 0,0 0,0 -0.17138,0.15781 -0.438109,0.33267 -0.796809,0.5181 0,0 0,0 0,0 -0.673702,0.34827 -1.678464,0.73749 -3.003341,1.10855 0,0 0,0 -10e-7,0 0,0 -1e-6,0 -1e-6,0 -1.126486,0.31703 -2.49134,0.62632 -4.096585,0.85371 -1.605244,0.2274 -3.451445,0.37399 -5.532253,0.31278 0,0 0,0 0,0 -1.569617,-0.0263 -3.313044,-0.19885 -5.160888,-0.67868 -1.847844,-0.47983 -3.801156,-1.26634 -5.72209,-2.58909 0,0 0,0 0,0 -1.657689,-1.19345 -3.133405,-2.81787 -4.189554,-4.84278 -1.126784,-2.23431 -1.723438,-4.7201 -1.814583,-7.19542 0,0 0,0 0,0 -0.114379,-2.15664 -0.50577,-4.4069 -1.130406,-6.74575 -0.624637,-2.33884 -1.482744,-4.7664 -2.47833,-7.27154 0,0 0,0 0,0 -1e-6,-10e-6 -2e-6,-10e-6 -2e-6,-10e-6 0,0 0,0 0,0 -2.085965,-5.15068 -4.899248,-10.43139 -8.315387,-15.7464 0,0 0,0 0,0 -3.181734,-4.93445 -6.852287,-9.84091 -11.095949,-14.4617 0,0 0,0 0,0 -3.551423,-3.83958 -7.357628,-7.47848 -11.675276,-10.24856 -3.01976,-2.05057 -5.232008,-4.77793 -6.64137,-7.69203 -0.02727,-0.0564 -0.05424,-0.11284 -0.0809,-0.16933 -1.657314,-3.42584 -2.553608,-6.92775 -3.009614,-10.25574 0,0 0,0 0,0 -1.160445,-8.22255 -0.421561,-16.16581 1.077302,-23.39287 1.519457,-7.63041 4.023656,-14.94757 7.696616,-21.27423 0,0 0,0 0,0 1e-6,0 3e-6,0 4e-6,-10e-6 0,0 0,0 0,0 1.529104,-2.67688 3.454704,-5.3008 5.892325,-7.52211 0,0 0,0 0,0 1.938091,-1.88772 4.685214,-3.35318 7.93356,-3.77483 10e-7,0 10e-7,0 10e-7,0 2.84625,-0.17998 5.4696,0.1302 7.86722,0.67738 2.397619,0.54719 4.569689,1.33156 6.526474,2.16505 0,0 0,0 0,0 5.439948,2.22672 9.858629,4.88359 13.496505,7.30844 0,0 0,0 0,0 4.46103,2.96674 7.791697,5.6733 10.04267,7.74165 0,0 10e-7,0 10e-7,0 1.248785,1.14725 2.16537,2.1063 2.740591,2.83424 0,0 0,0 0,0 0.299588,0.37914 0.507374,0.69642 0.621001,0.94612 0,0 0,0 0,0 0,0 10e-7,0 10e-7,0 0.05772,0.12705 0.09127,0.23677 0.100319,0.32844 0,0 0,0 0,0 0.0046,0.0463 0.0029,0.0879 -0.005,0.12496 -0.0082,0.0383 -0.02304,0.0717 -0.04463,0.10006 z"
         style="fill:#000000;fill-rule:evenodd;stroke:none" />
      <path
         sodipodi:nodetypes="ccccc"
         inkscape:connector-curvature="0"
         inkscape:original-d="m 556.0068,712.527 c 0,0 25.7696,-19.8694 40.9133,-18.232 15.1436,1.6375 27.2899,54.9953 10.5727,65.9097 -16.7178,10.9143 -35.3407,40.1271 -35.5652,58.6075 -0.2234,18.4806 -26.9459,12.1214 -26.9459,12.1214"
         inkscape:path-effect="#path-effect3189-8-4-9-7-6-9-2-2-9-8-3"
         id="path3187-7-6-0-6-1-1-5-3-3-3-6"
         d="m 556.00679,712.52694 c -0.54469,-0.82736 4.38237,-5.17661 13.3829,-12.0302 3.65079,-2.43296 8.09335,-5.10481 13.56859,-7.35368 0,0 0,0 0,0 1.95679,-0.83349 4.12887,-1.61786 6.52649,-2.16504 2.39762,-0.54718 5.02098,-0.85736 7.86723,-0.67737 3.24836,0.42165 5.99549,1.88711 7.93358,3.77484 2.43762,2.22131 4.36322,4.84524 5.89232,7.52212 3.67296,6.32667 6.17716,13.64384 7.69661,21.27425 1.49886,7.22706 2.23774,15.17032 1.0773,23.39287 -0.45601,3.32799 -1.3523,6.8299 -3.00962,10.25574 -0.0267,0.0565 -0.0536,0.11291 -0.0809,0.16928 -1.40936,2.91412 -3.62162,5.6415 -6.64139,7.69209 -4.31765,2.77007 -8.12386,6.40897 -11.67528,10.24855 0,0 0,0 0,0 -4.24366,4.6208 -7.91421,9.52726 -11.09594,14.46171 0,0 0,0 0,0 -3.41613,5.31501 -6.22941,10.59572 -8.31537,15.7464 0,0 0,0 0,0 0,0 0,0 0,1e-5 0,0 0,0 0,0 -0.99558,2.50514 -1.85369,4.9327 -2.47832,7.27154 -0.62463,2.33885 -1.01602,4.58911 -1.1304,6.74574 0,0 0,0 0,0 -0.0911,2.47533 -0.68779,4.96113 -1.81458,7.19544 0,0 0,0 0,0 -1.05615,2.02492 -2.53187,3.64936 -4.18956,4.84281 0,0 0,0 0,0 -1.92094,1.32276 -3.87426,2.10927 -5.72211,2.58911 -1.84785,0.47983 -3.59128,0.65239 -5.1609,0.67869 0,0 0,0 0,0 -2.08081,0.0612 -3.92702,-0.0854 -5.53227,-0.31277 -1.60524,-0.2274 -2.9701,-0.53668 -4.09659,-0.85371 0,0 0,0 0,0 0,0 0,0 0,0 -1.32488,-0.37105 -2.32965,-0.76027 -3.00335,-1.10854 0,0 0,0 0,0 -0.3587,-0.18543 -0.62543,-0.36029 -0.79681,-0.5181 0,0 0,0 0,0 0,0 0,0 0,0 -0.089,-0.0813 -0.15268,-0.15819 -0.19062,-0.22977 0,0 0,0 0,0 -0.005,-0.0969 -0.0134,-0.14832 -0.0211,-0.17537 -0.008,-0.0267 -0.0143,-0.0297 -0.015,-0.03 0,0 0,0 0,0 0,0 0,0 0,0 0,0 0,0 0,0 0,0 0,0 0,0 0,0 0,0 0,0 0,0 0,0 0,0 0,0 0,0 0,0 -4e-5,-1e-5 -3e-5,-1e-5 -3e-5,-1e-5 0,0 -1e-5,0 3e-5,0 0,0 0,0 0,0 0,0 0,0 0,0 0,0 0,0 0,0 0,0 0,0 0,0 0,0 0,0 0,0 0,0 0,0 0,0 0,0 0,0 0,0 7.2e-4,1e-4 0.008,4.7e-4 0.0267,-0.0202 0.0188,-0.0209 0.0493,-0.0632 0.0963,-0.14841 0,0 0,0 0,0 0.064,-0.0485 0.15121,-0.0917 0.26135,-0.13031 0,0 10e-6,0 10e-6,0 0,0 0,0 0,0 0.21586,-0.0747 0.51892,-0.13174 0.90814,-0.1764 0,0 0,0 0,0 0.73091,-0.0839 1.75927,-0.12394 3.06583,-0.17328 0,0 0,0 0,0 0,0 0,0 0,0 1.11398,-0.0431 2.42681,-0.0888 3.90591,-0.20093 1.47909,-0.11215 3.12499,-0.28969 4.88285,-0.64223 0,0 0,0 0,0 1.3195,-0.28511 2.70672,-0.64382 4.03082,-1.16286 1.3241,-0.51905 2.58597,-1.19762 3.57536,-2.17494 0,0 0,0 0,0 0.84185,-0.78197 1.55094,-1.7794 1.96909,-2.88309 0,0 0,0 0,0 0.50902,-1.23699 0.66755,-2.77342 0.62663,-4.45236 0,0 0,0 0,0 -0.0551,-2.72109 0.19507,-5.52134 0.71452,-8.34492 0.51945,-2.82358 1.3084,-5.67039 2.2784,-8.47581 0,0 0,0 0,0 0,0 0,0 0,0 0,0 0,0 0,0 1.98799,-5.8562 4.79114,-11.82498 8.27818,-17.69764 3.23691,-5.46798 7.0976,-10.94258 11.6826,-16.14506 0,0 0,0 0,0 3.77712,-4.31458 8.16993,-8.56131 13.48135,-12.07761 1.21672,-0.71537 2.25234,-2.15327 3.1583,-3.83768 0.0175,-0.0326 0.035,-0.0653 0.0524,-0.098 1.07934,-2.1146 1.68362,-4.63248 2.1177,-7.29247 1.05244,-6.6644 0.47354,-13.53649 -0.6601,-20.12926 -1.25898,-6.95549 -3.13595,-13.37053 -5.9886,-18.76905 -1.21802,-2.25913 -2.4453,-4.24108 -3.9151,-5.67754 -1.19987,-1.04976 -2.22211,-1.91599 -3.0421,-1.93425 -1.76721,-0.31885 -3.63028,-0.20371 -5.51262,0.109 -1.88234,0.31271 -3.78389,0.82323 -5.64261,1.3595 0,0 0,0 -1e-5,0 -4.97408,1.50241 -9.34737,3.51269 -13.12794,5.32469 -9.7221,5.4724 -15.65353,8.2718 -16.19823,7.44443 z"
         style="fill:#000000;fill-rule:evenodd;stroke:none;display:inline" />
    </g>
  </g>
</svg>
