<?xml version="1.0" encoding="UTF-8" standalone="no"?>
<!-- Created with Inkscape (http://www.inkscape.org/) -->

<svg
   xmlns:dc="http://purl.org/dc/elements/1.1/"
   xmlns:cc="http://creativecommons.org/ns#"
   xmlns:rdf="http://www.w3.org/1999/02/22-rdf-syntax-ns#"
   xmlns:svg="http://www.w3.org/2000/svg"
   xmlns="http://www.w3.org/2000/svg"
   xmlns:sodipodi="http://sodipodi.sourceforge.net/DTD/sodipodi-0.dtd"
   xmlns:inkscape="http://www.inkscape.org/namespaces/inkscape"
   width="356.12268"
   height="248.05589"
   id="svg10006"
   version="1.1"
   inkscape:version="0.48.3.1 r9886"
   sodipodi:docname="Documento nuevo 45">
  <defs
     id="defs10008">
    <inkscape:path-effect
       effect="skeletal"
       id="path-effect8271"
       is_visible="true"
       pattern="m 236.12243,418.00722 c 0,-2.76 2.24,-5 5,-5 2.76,0 5,2.24 5,5 0,2.76 -2.24,5 -5,5 -2.76,0 -5,-2.24 -5,-5 z"
       copytype="single_stretched"
       prop_scale="1"
       scale_y_rel="false"
       spacing="0"
       normal_offset="0"
       tang_offset="0"
       prop_units="false"
       vertical_pattern="false"
       fuse_tolerance="0" />
  </defs>
  <sodipodi:namedview
     id="base"
     pagecolor="#ffffff"
     bordercolor="#666666"
     borderopacity="1.0"
     inkscape:pageopacity="0.0"
     inkscape:pageshadow="2"
     inkscape:zoom="0.35"
     inkscape:cx="350.91848"
     inkscape:cy="181.1708"
     inkscape:document-units="px"
     inkscape:current-layer="layer1"
     showgrid="false"
     fit-margin-top="0"
     fit-margin-left="0"
     fit-margin-right="0"
     fit-margin-bottom="0"
     inkscape:window-width="560"
     inkscape:window-height="453"
     inkscape:window-x="3"
     inkscape:window-y="47"
     inkscape:window-maximized="0" />
  <metadata
     id="metadata10011">
    <rdf:RDF>
      <cc:Work
         rdf:about="">
        <dc:format>image/svg+xml</dc:format>
        <dc:type
           rdf:resource="http://purl.org/dc/dcmitype/StillImage" />
        <dc:title></dc:title>
      </cc:Work>
    </rdf:RDF>
  </metadata>
  <g
     inkscape:label="Capa 1"
     inkscape:groupmode="layer"
     id="layer1"
     transform="translate(0.91848483,-465.4771)">
    <g
       transform="translate(-463.46404,137.33802)"
       id="g8900">
      <g
         id="g8328">
        <path
           style="fill:#ff9955;fill-rule:evenodd;stroke:none"
           d="m 636.63582,329.41023 c -105.00005,7.85714 -142.85715,65 -161.42855,115.71428 -28.5648,78.00364 20.7142,125.00006 168.57135,125.71426 157.3374,0.7601 166.1184,-20.19564 170.7143,-79.28568 5,-64.28572 -72.8571,-170 -177.8571,-162.14286 z"
           id="path8269-1"
           inkscape:connector-curvature="0"
           sodipodi:nodetypes="zsssz" />
        <path
           style="fill:#000000;fill-rule:evenodd;stroke:none"
           d="m 636.12243,329.73099 c 0.0177,0.23586 -1.52935,0.57373 -4.52437,1.07256 -2.99501,0.49882 -7.44087,1.15768 -13.19174,2.17262 -5.75088,1.01493 -12.81093,2.38319 -20.95168,4.46667 -8.14074,2.08348 -17.36656,4.87884 -27.30135,8.96059 -7.16295,2.94118 -14.6859,6.57415 -22.29132,11.10956 -7.60542,4.5354 -15.29455,9.97363 -22.67071,16.53296 -10.60721,9.41813 -20.55599,21.19173 -28.95444,35.03954 -6.88059,11.34005 -12.7192,24.07377 -17.63798,37.78975 -3.06357,8.58147 -5.51902,17.57615 -6.61612,26.87874 -0.90432,7.70227 -0.90348,15.61859 0.61248,23.3074 1.35331,6.92593 3.95425,13.72198 7.79878,19.8232 3.93816,6.28847 9.24048,11.90413 15.34559,16.72047 7.61991,6.04703 16.36953,10.82171 25.83661,14.66316 9.46708,3.84145 19.65122,6.75008 30.04846,9.15102 14.44781,3.28888 29.41061,5.45383 44.74189,6.79552 15.33129,1.34169 31.0308,1.86104 46.9229,1.94538 2.28736,0.01 4.57817,0.0183 6.87216,0.0237 14.59432,0.0341 29.01086,-0.0568 43.18428,-0.57547 14.17343,-0.51868 28.10368,-1.46574 41.73391,-3.09084 9.92949,-1.18712 19.62133,-2.74285 28.86947,-5.21453 6.99094,-1.88134 13.67785,-4.209 19.61714,-7.52194 4.70455,-2.62537 8.95834,-5.85119 12.27006,-9.72508 3.13192,-3.60904 5.52806,-7.89533 7.29776,-12.42623 1.98614,-5.07863 3.1911,-10.52823 4.10967,-16.07148 1.08643,-6.62485 1.69871,-13.33133 2.2579,-20.03267 0.70024,-8.22898 -0.0985,-16.51034 -1.68069,-24.52287 -1.87494,-9.4469 -4.90798,-18.48307 -8.56545,-27.02294 -4.53786,-10.59088 -10.02596,-20.38067 -16.07149,-29.34073 -6.04553,-8.96006 -12.64855,-17.09065 -19.48522,-24.40608 -9.02785,-9.64692 -18.51393,-17.85892 -27.97268,-24.66269 -9.45874,-6.80377 -18.89081,-12.20296 -27.90875,-16.40502 -10.53111,-4.91005 -20.50346,-8.13893 -29.34275,-10.29335 -8.83929,-2.15443 -16.5547,-3.24228 -22.84588,-3.84981 -6.29119,-0.60753 -11.16682,-0.74302 -14.46458,-0.85032 -3.29776,-0.10731 -5.02341,-0.19422 -5.04186,-0.44078 -0.0185,-0.24656 1.67187,-0.64499 4.98441,-1.01343 3.31255,-0.36843 8.25343,-0.69976 14.69425,-0.5351 6.44082,0.16467 14.39042,0.83334 23.56407,2.62754 9.17366,1.7942 19.58056,4.72192 30.64256,9.44655 9.45317,4.03962 19.37381,9.33989 29.34621,16.12725 9.97241,6.78737 19.99704,15.06561 29.54915,24.88094 7.23602,7.4255 14.24717,15.737 20.69876,24.96457 6.45158,9.22757 12.3436,19.37154 17.27131,30.41808 3.97914,8.9167 7.31509,18.47072 9.46468,28.60485 1.83009,8.58967 2.78233,17.67406 2.11953,26.96988 -0.4883,6.76631 -1.06164,13.71166 -2.14533,20.77391 -0.89872,5.91847 -2.21641,11.99238 -4.46199,17.96972 -2.03189,5.40134 -4.93069,10.62287 -8.826,15.2344 -4.17245,4.88126 -9.26789,8.85424 -14.7895,11.93981 -6.8824,3.84749 -14.29337,6.51896 -21.76195,8.532 -9.87202,2.67794 -20.01985,4.36949 -30.21282,5.61325 -13.95833,1.70773 -28.16072,2.71702 -42.53839,3.27558 -14.37767,0.55856 -28.93052,0.66697 -43.58527,0.62659 -2.30349,-0.006 -4.6019,-0.0163 -6.89498,-0.0284 -16.08131,-0.0701 -32.06315,-0.62424 -47.75619,-2.04564 -15.69304,-1.42141 -31.09691,-3.71098 -46.04589,-7.16333 -10.75695,-2.45011 -21.44102,-5.57942 -31.52496,-9.7906 -10.08394,-4.21118 -19.56727,-9.50456 -28.01089,-16.1926 -6.81429,-5.42609 -12.77206,-11.89008 -17.31261,-19.22607 -4.40927,-7.16187 -7.33546,-15.02407 -8.80581,-23.0112 -1.61162,-8.82949 -1.54001,-17.65208 -0.42448,-26.05685 1.3392,-10.12526 4.06865,-19.6978 7.42859,-28.65744 5.25927,-14.0779 11.5529,-27.2152 18.94682,-38.95125 4.52032,-7.17207 9.45421,-13.79652 14.67359,-19.82025 5.21939,-6.02372 10.72422,-11.44698 16.3943,-16.25631 7.89675,-6.68813 16.05475,-12.1516 24.07782,-16.63779 8.02308,-4.4862 15.91247,-7.99562 23.39319,-10.76432 10.36394,-3.83318 19.9042,-6.30876 28.28385,-8.03187 8.37965,-1.72311 15.60311,-2.69044 21.4733,-3.28379 5.87018,-0.59334 10.39109,-0.8098 13.44118,-0.85542 3.05009,-0.0456 4.63184,0.0809 4.64949,0.31673 z"
           id="path8269"
           inkscape:path-effect="#path-effect8271"
           inkscape:original-d="m 636.12243,329.73099 c -105,7.85714 -142.85714,65 -161.42857,115.71428 -28.56472,78.00364 20.71429,125.00001 168.57142,125.71429 157.33733,0.76008 166.11839,-20.19567 170.71429,-79.28571 5.00001,-64.28572 -72.85714,-170 -177.85714,-162.14286 z"
           inkscape:connector-curvature="0"
           sodipodi:nodetypes="zsssz" />
      </g>
      <path
         transform="matrix(0.45644721,0.72461385,-0.70986925,0.50554974,728.64762,676.61295)"
         d="m -268.70058,-25.292927 c 0,47.978697 -31.65825,86.873116 -70.71067,86.873116 -39.05243,0 -70.71068,-38.894419 -70.71068,-86.873116 0,-47.978697 31.65825,-86.873113 70.71068,-86.873113 39.05242,0 70.71067,38.894416 70.71067,86.873113 z"
         sodipodi:ry="86.873116"
         sodipodi:rx="70.710678"
         sodipodi:cy="-25.292927"
         sodipodi:cx="-339.41125"
         id="path8332-6-9"
         style="fill:#ffcfaf;fill-opacity:1;stroke:none"
         sodipodi:type="arc" />
    </g>
  </g>
</svg>
