<?xml version="1.0" encoding="UTF-8" standalone="no"?>
<!-- Created with Inkscape (http://www.inkscape.org/) -->

<svg
   xmlns:dc="http://purl.org/dc/elements/1.1/"
   xmlns:cc="http://creativecommons.org/ns#"
   xmlns:rdf="http://www.w3.org/1999/02/22-rdf-syntax-ns#"
   xmlns:svg="http://www.w3.org/2000/svg"
   xmlns="http://www.w3.org/2000/svg"
   xmlns:sodipodi="http://sodipodi.sourceforge.net/DTD/sodipodi-0.dtd"
   xmlns:inkscape="http://www.inkscape.org/namespaces/inkscape"
   width="158.08101"
   height="410.81708"
   id="svg10006"
   version="1.1"
   inkscape:version="0.48.3.1 r9886"
   sodipodi:docname="papa_03.svg">
  <defs
     id="defs10008">
    <inkscape:path-effect
       effect="skeletal"
       id="path-effect8271"
       is_visible="true"
       pattern="m 236.12243,418.00722 c 0,-2.76 2.24,-5 5,-5 2.76,0 5,2.24 5,5 0,2.76 -2.24,5 -5,5 -2.76,0 -5,-2.24 -5,-5 z"
       copytype="single_stretched"
       prop_scale="1"
       scale_y_rel="false"
       spacing="0"
       normal_offset="0"
       tang_offset="0"
       prop_units="false"
       vertical_pattern="false"
       fuse_tolerance="0" />
    <inkscape:path-effect
       effect="skeletal"
       id="path-effect8263"
       is_visible="true"
       pattern="M 0,5 C 0,2.24 2.24,0 5,0 7.76,0 10,2.24 10,5 10,7.76 7.76,10 5,10 2.24,10 0,7.76 0,5 z"
       copytype="single_stretched"
       prop_scale="1"
       scale_y_rel="false"
       spacing="0"
       normal_offset="0"
       tang_offset="0"
       prop_units="false"
       vertical_pattern="false"
       fuse_tolerance="0" />
    <inkscape:path-effect
       effect="skeletal"
       id="path-effect8267"
       is_visible="true"
       pattern="m 225.01075,425.07829 c 0,-2.76 2.24,-5 5,-5 2.76,0 5,2.24 5,5 0,2.76 -2.24,5 -5,5 -2.76,0 -5,-2.24 -5,-5 z"
       copytype="single_stretched"
       prop_scale="1"
       scale_y_rel="false"
       spacing="0"
       normal_offset="0"
       tang_offset="0"
       prop_units="false"
       vertical_pattern="false"
       fuse_tolerance="0" />
    <inkscape:path-effect
       effect="skeletal"
       id="path-effect8275"
       is_visible="true"
       pattern="M 0,5 C 0,2.24 2.24,0 5,0 7.76,0 10,2.24 10,5 10,7.76 7.76,10 5,10 2.24,10 0,7.76 0,5 z"
       copytype="single_stretched"
       prop_scale="1"
       scale_y_rel="false"
       spacing="0"
       normal_offset="0"
       tang_offset="0"
       prop_units="false"
       vertical_pattern="false"
       fuse_tolerance="0" />
  </defs>
  <sodipodi:namedview
     id="base"
     pagecolor="#ffffff"
     bordercolor="#666666"
     borderopacity="1.0"
     inkscape:pageopacity="0.0"
     inkscape:pageshadow="2"
     inkscape:zoom="0.35"
     inkscape:cx="7.9568244"
     inkscape:cy="308.46877"
     inkscape:document-units="px"
     inkscape:current-layer="layer1"
     showgrid="false"
     fit-margin-top="0"
     fit-margin-left="0"
     fit-margin-right="0"
     fit-margin-bottom="0"
     inkscape:window-width="560"
     inkscape:window-height="453"
     inkscape:window-x="3"
     inkscape:window-y="47"
     inkscape:window-maximized="0" />
  <metadata
     id="metadata10011">
    <rdf:RDF>
      <cc:Work
         rdf:about="">
        <dc:format>image/svg+xml</dc:format>
        <dc:type
           rdf:resource="http://purl.org/dc/dcmitype/StillImage" />
        <dc:title></dc:title>
      </cc:Work>
    </rdf:RDF>
  </metadata>
  <g
     inkscape:label="Capa 1"
     inkscape:groupmode="layer"
     id="layer1"
     transform="translate(-342.04317,-430.01391)">
    <g
       transform="translate(824.85404,286.70732)"
       id="g8882">
      <g
         id="g8316">
        <path
           style="fill:#5fbcd3;fill-rule:evenodd;stroke:none"
           d="m -395.71968,554.06871 c 55.05331,-1.01016 76.77159,-123.23862 63.63961,-235.36555 -13.13199,-112.12693 -41.41626,-165.66501 -63.63962,-164.65486 -22.22335,1.01015 -94.40117,159.58541 -80.8122,296.98484 9.09137,91.92389 25.7589,104.04572 80.81221,103.03557 z"
           id="path8273-9"
           inkscape:connector-curvature="0"
           sodipodi:nodetypes="zsssz" />
        <path
           style="fill:#000000;fill-rule:evenodd;stroke:none"
           d="m -632.35549,134.31118 c -0.002,-0.12807 0.43737,-0.25525 1.28649,-0.42873 0.84911,-0.17348 2.10913,-0.39526 3.73225,-0.79048 1.62312,-0.39522 3.61214,-0.96656 5.87145,-1.88155 2.25932,-0.91498 4.79264,-2.17674 7.40744,-3.95126 2.47388,-1.67326 5.02515,-3.78471 7.55496,-6.38718 2.5298,-2.60248 5.03715,-5.69957 7.44907,-9.22398 2.21148,-3.24116 4.33667,-6.84523 6.34553,-10.80281 2.00885,-3.957582 3.90071,-8.269378 5.68538,-12.883326 3.48327,-9.022318 6.48439,-19.209584 8.99727,-30.39496 2.42969,-10.817273 4.422,-22.523545 5.88223,-35.033722 1.46024,-12.510178 2.38691,-25.8248999 2.81067,-39.802572 0.77321,-25.753882 -0.26473,-53.767526 -3.87401,-83.25899 0,-1e-5 0,-2e-5 0,-3e-5 -2.86841,-23.4149 -6.69727,-47.80858 -12.56393,-72.60334 -4.03057,-17.00357 -8.88959,-34.18674 -15.9141,-50.75603 -4.51393,-10.5208 -9.49588,-20.85302 -16.90141,-28.94645 -2.38328,-2.5816 -4.85197,-4.87245 -7.5736,-6.29764 -2.03568,-1.04082 -4.13323,-1.74085 -5.96873,-1.58402 0.0191,-0.0375 -0.15697,0.0485 -0.50225,0.1604 -0.43266,0.16736 -0.93801,0.49375 -1.5329,0.9032 -1.28812,0.89649 -2.51412,2.0963 -3.76495,3.45623 -0.35057,0.38114 -0.7028,0.77451 -1.0586,1.17687 -4.97874,5.70884 -9.02214,12.3907 -12.93385,19.27134 -5.54712,9.8108 -10.36623,19.96081 -14.8019,30.18689 -5.5799,12.87127 -10.47355,25.83792 -14.84676,38.75019 -10.9421,32.31705 -18.60121,64.1878 -23.38386,94.535352 -10e-6,1e-5 -10e-6,2.1e-5 -10e-6,3.1e-5 -2.93711,18.672075 -4.79564,36.780528 -5.53081,54.055513 -0.73516,17.27498554 -0.34806,33.71674 1.02696,49.128544 0.90398,10.08487 1.86148,19.735274 3.13305,28.859421 1.27157,9.124146 2.85585,17.722491 4.85366,25.745018 1.60474,6.437668 3.49082,12.444401 5.88317,17.859291 2.11068,4.76669 4.58832,9.06108 7.5125,12.64409 2.83112,3.48016 6.09413,6.31128 9.50282,8.44527 10e-6,0 10e-6,0 10e-6,0 3.96818,2.49623 8.15447,4.106 12.12036,5.24676 4.98413,1.58329 9.59724,2.4283 13.67731,2.98617 4.08007,0.55786 7.62939,0.82082 10.56083,1.00022 2.93145,0.17941 5.2471,0.26879 6.90184,0.34711 1.65475,0.0783 2.65018,0.14147 2.95545,0.21643 0,0 0,0 0,0 9.7e-4,0.0526 9.7e-4,0.0527 9.7e-4,0.0527 0,0 0,1e-4 9.7e-4,0.0527 0,0 0,0 0,0 -0.30241,0.0861 -1.29481,0.18931 -2.95246,0.30942 -1.65765,0.12011 -3.98143,0.26147 -6.9476,0.36424 -2.96618,0.10276 -6.57638,0.17351 -10.78896,0.01 -4.21259,-0.16384 -9.02962,-0.55444 -14.36364,-1.62612 -4.2834,-0.98186 -8.89695,-2.5152 -13.46292,-5.0994 -10e-6,0 -10e-6,0 -2e-5,-1e-5 -3.92554,-2.23212 -7.71951,-5.2527 -11.04946,-9.05091 -3.40706,-3.89639 -6.3151,-8.51194 -8.73083,-13.56461 -2.74078,-5.72069 -4.93732,-12.003568 -6.77332,-18.624581 -2.2819,-8.220273 -4.1379,-17.011968 -5.65793,-26.288362 -1.52004,-9.276395 -2.70268,-19.037784 -3.79628,-29.150695 -1.70461,-15.726682 -2.38833,-32.51950597 -1.90279,-50.152552 0.48555,-17.633046 2.14159,-36.106277 4.93674,-55.117762 0,-1e-5 0,-2.1e-5 0,-3.2e-5 4.53433,-30.901816 12.06825,-63.376856 23.0313,-96.287026 4.38075,-13.1545 9.32039,-26.39623 14.98741,-39.57587 4.49418,-10.45791 9.44738,-20.93185 15.20868,-31.16341 3.97887,-7.10413 8.39783,-14.32972 14.07225,-20.91404 0.39755,-0.46697 0.81014,-0.93609 1.23974,-1.40417 1.53282,-1.67011 3.27764,-3.32148 5.319,-4.80941 0.97044,-0.71157 2.11662,-1.39684 3.4541,-1.97954 1.07036,-0.48797 2.39591,-0.83412 3.94904,-0.94132 4.14712,-0.1151 7.98039,0.98834 11.18414,2.78805 4.09474,2.27026 7.44148,5.25998 10.2185,8.39692 8.5496,9.58772 14.08657,20.85427 18.61177,31.78897 7.2677,17.35506 12.21141,35.07779 16.18981,52.40579 5.8211,25.30651 9.50701,50.07086 12.15325,73.74251 0,1e-5 10e-6,2e-5 10e-6,3e-5 3.35947,30.011019 4.02813,58.488735 2.80246,84.615678 -0.66071,14.1694919 -1.86389,27.693553 -3.6269,40.404415 -1.76301,12.710861 -4.0843,24.608999 -6.85732,35.587694 -2.86877,11.360223 -6.28513,21.747956 -10.1976,30.932349 -1.99685,4.695342 -4.13059,9.09597 -6.39311,13.134664 -2.26251,4.03869 -4.65313,7.71613 -7.12772,11.01151 -2.69224,3.59533 -5.526,6.73545 -8.37981,9.34574 -2.85381,2.61029 -5.72668,4.69434 -8.48922,6.30258 -2.94717,1.71099 -5.75776,2.83102 -8.23537,3.567 -2.47761,0.73597 -4.62609,1.09081 -6.35953,1.25541 -1.73345,0.16459 -3.05489,0.1413 -3.93708,0.0654 -0.8822,-0.0759 -1.32695,-0.20288 -1.3293,-0.33095 z"
           id="path8273"
           inkscape:path-effect="#path-effect8275"
           inkscape:original-d="m -632.35549,134.31118 c 55.05331,-1.01016 76.77159,-123.238615 63.63961,-235.36555 -13.13199,-112.12693 -41.41626,-165.66501 -63.63962,-164.65486 -22.22335,1.01015 -94.40116,159.58541 -80.8122,296.984846 9.09137,91.923884 25.7589,104.045714 80.81221,103.035564 z"
           inkscape:connector-curvature="0"
           transform="translate(236.12243,414.01737)"
           sodipodi:nodetypes="zsssz" />
      </g>
      <path
         transform="matrix(0.66922725,0.2900718,-0.20914398,1.0861736,-187.73846,456.66728)"
         d="m -268.70058,-25.292927 c 0,47.978697 -31.65825,86.873116 -70.71067,86.873116 -39.05243,0 -70.71068,-38.894419 -70.71068,-86.873116 0,-47.978697 31.65825,-86.873113 70.71068,-86.873113 39.05242,0 70.71067,38.894416 70.71067,86.873113 z"
         sodipodi:ry="86.873116"
         sodipodi:rx="70.710678"
         sodipodi:cy="-25.292927"
         sodipodi:cx="-339.41125"
         id="path8332-6"
         style="fill:#aaeeff;fill-opacity:1;stroke:none"
         sodipodi:type="arc" />
    </g>
  </g>
</svg>
