<?xml version="1.0" encoding="UTF-8" standalone="no"?>
<!-- Created with Inkscape (http://www.inkscape.org/) -->

<svg
   xmlns:dc="http://purl.org/dc/elements/1.1/"
   xmlns:cc="http://creativecommons.org/ns#"
   xmlns:rdf="http://www.w3.org/1999/02/22-rdf-syntax-ns#"
   xmlns:svg="http://www.w3.org/2000/svg"
   xmlns="http://www.w3.org/2000/svg"
   xmlns:sodipodi="http://sodipodi.sourceforge.net/DTD/sodipodi-0.dtd"
   xmlns:inkscape="http://www.inkscape.org/namespaces/inkscape"
   width="294.83401"
   height="329.68857"
   id="svg10006"
   version="1.1"
   inkscape:version="0.48.3.1 r9886"
   sodipodi:docname="papa_02.svg">
  <defs
     id="defs10008">
    <inkscape:path-effect
       effect="skeletal"
       id="path-effect8271"
       is_visible="true"
       pattern="m 236.12243,418.00722 c 0,-2.76 2.24,-5 5,-5 2.76,0 5,2.24 5,5 0,2.76 -2.24,5 -5,5 -2.76,0 -5,-2.24 -5,-5 z"
       copytype="single_stretched"
       prop_scale="1"
       scale_y_rel="false"
       spacing="0"
       normal_offset="0"
       tang_offset="0"
       prop_units="false"
       vertical_pattern="false"
       fuse_tolerance="0" />
    <inkscape:path-effect
       effect="skeletal"
       id="path-effect8263"
       is_visible="true"
       pattern="M 0,5 C 0,2.24 2.24,0 5,0 7.76,0 10,2.24 10,5 10,7.76 7.76,10 5,10 2.24,10 0,7.76 0,5 z"
       copytype="single_stretched"
       prop_scale="1"
       scale_y_rel="false"
       spacing="0"
       normal_offset="0"
       tang_offset="0"
       prop_units="false"
       vertical_pattern="false"
       fuse_tolerance="0" />
    <inkscape:path-effect
       effect="skeletal"
       id="path-effect8267"
       is_visible="true"
       pattern="m 225.01075,425.07829 c 0,-2.76 2.24,-5 5,-5 2.76,0 5,2.24 5,5 0,2.76 -2.24,5 -5,5 -2.76,0 -5,-2.24 -5,-5 z"
       copytype="single_stretched"
       prop_scale="1"
       scale_y_rel="false"
       spacing="0"
       normal_offset="0"
       tang_offset="0"
       prop_units="false"
       vertical_pattern="false"
       fuse_tolerance="0" />
  </defs>
  <sodipodi:namedview
     id="base"
     pagecolor="#ffffff"
     bordercolor="#666666"
     borderopacity="1.0"
     inkscape:pageopacity="0.0"
     inkscape:pageshadow="2"
     inkscape:zoom="0.35"
     inkscape:cx="131.77346"
     inkscape:cy="208.77452"
     inkscape:document-units="px"
     inkscape:current-layer="layer1"
     showgrid="false"
     fit-margin-top="0"
     fit-margin-left="0"
     fit-margin-right="0"
     fit-margin-bottom="0"
     inkscape:window-width="560"
     inkscape:window-height="453"
     inkscape:window-x="3"
     inkscape:window-y="47"
     inkscape:window-maximized="0" />
  <metadata
     id="metadata10011">
    <rdf:RDF>
      <cc:Work
         rdf:about="">
        <dc:format>image/svg+xml</dc:format>
        <dc:type
           rdf:resource="http://purl.org/dc/dcmitype/StillImage" />
        <dc:title></dc:title>
      </cc:Work>
    </rdf:RDF>
  </metadata>
  <g
     inkscape:label="Capa 1"
     inkscape:groupmode="layer"
     id="layer1"
     transform="translate(-218.22653,-411.44816)">
    <g
       transform="translate(470.6198,165.03086)"
       id="g8888">
      <g
         id="g8320">
        <path
           style="fill:#536c5d;fill-rule:evenodd;stroke:none"
           d="m -211.02038,547.53655 c -75.13123,-39.74268 -25.43918,-220.6034 36.976,-271.4357 50.26171,-40.93424 115.967947,-28.37197 150.345917,12.48466 34.58236,41.09954 78.85341,142.425 55.36516,218.69632 -23.4882595,76.27134 -167.555847,79.99744 -242.687077,40.25472 z"
           id="path8265-3"
           inkscape:connector-curvature="0"
           sodipodi:nodetypes="zsssz" />
        <path
           style="fill:#000000;fill-rule:evenodd;stroke:none"
           d="m -211.53375,547.85731 c -0.0724,0.13689 -0.75903,-0.0393 -2.01006,-0.58664 -1.25103,-0.54734 -3.06733,-1.46939 -5.31621,-2.91982 -2.24887,-1.45042 -4.93206,-3.43448 -7.81406,-6.13479 -2.88201,-2.7003 -5.96507,-6.1231 -8.88084,-10.39313 -2.68373,-3.93498 -5.24032,-8.54301 -7.47853,-13.81406 -2.2382,-5.27106 -4.1554,-11.20837 -5.62978,-17.66727 -1.29768,-5.66389 -2.28454,-11.74008 -2.91131,-18.17969 -0.62677,-6.43961 -0.89266,-13.24299 -0.80117,-20.32826 0.16458,-13.13728 1.55947,-27.31375 4.26117,-42.20411 2.34906,-12.96515 5.6305,-26.5221 10.07099,-40.42167 4.4405,-13.89958 10.04064,-28.14188 17.00357,-42.40687 5.6462,-11.57645 12.24563,-23.21261 20.27164,-34.38256 6.51803,-9.09352 14.0656,-17.99103 23.28627,-25.5875 11.86519,-9.75231 25.92423,-17.57238 41.46624,-22.08241 13.71964,-3.96833 28.46508,-5.29648 43.151792,-3.6242 13.567832,1.54731 27.017532,5.66582 39.424578,12.1701 12.407046,6.50428 23.769918,15.39387 33.0512,26.39457 3.72418,4.43141 7.218999,9.05333 10.5178111,13.82196 6.233789,9.01129 11.6767859,18.40854 16.619657,27.86064 9.5995939,18.31508 17.3077789,37.21816 23.1874769,56.23338 6.493037,20.96761 10.741304,42.20613 12.069536,63.11431 0.691104,10.74659 0.577022,21.44966 -0.480258,31.88493 -1.057279,10.43527 -3.057819,20.60259 -6.088436,30.31772 -3.167274,10.0869 -8.466392,19.18082 -15.105324,26.76585 -7.136618,8.13284 -15.588525,14.52922 -24.3681309,19.5388 -10.1154621,5.77888 -20.6524151,9.84651 -31.0053691,12.8258 -12.097707,3.48652 -24.000695,5.53478 -35.381581,6.711 -14.433586,1.4932 -28.072943,1.6335 -40.672182,0.94565 -12.59924,-0.68786 -24.16016,-2.20362 -34.54727,-4.10529 -11.00818,-2.0079 -20.75801,-4.46522 -29.08463,-7.05308 -8.32661,-2.58786 -15.23743,-5.29778 -20.72141,-7.74391 -5.48399,-2.44612 -9.54833,-4.62027 -12.22487,-6.19562 -2.67653,-1.57535 -3.97077,-2.54539 -3.86051,-2.75383 0.11026,-0.20844 1.62068,0.35088 4.47572,1.50876 2.85504,1.15788 7.05975,2.90735 12.62667,4.92012 5.56693,2.01276 12.50306,4.28044 20.79722,6.43229 8.29416,2.15186 17.95379,4.17944 28.83458,5.797 10.2624,1.51849 21.63293,2.66641 33.96232,3.01954 12.329389,0.35313 25.619342,-0.0887 39.611929,-1.828 11.022037,-1.37138 22.465664,-3.5542 33.973876,-7.08715 9.84643,-3.02721 19.747689,-7.01139 29.0667396,-12.53012 8.06812081,-4.78429 15.7259296,-10.7075 21.9789424,-18.05641 5.805003,-6.80325 10.411202,-14.90265 13.074884,-23.7501 2.764708,-9.10351 4.549703,-18.68203 5.45402,-28.56739 0.904317,-9.88536 0.928054,-20.07748 0.220177,-30.36724 C 31.148664,427.31285 26.923683,406.85912 20.55777,386.52503 14.776532,368.08647 7.2481334,349.76194 -2.0863224,332.00997 -6.9285449,322.82266 -12.168485,313.77306 -18.092892,305.19428 c -3.135093,-4.53975 -6.437768,-8.9109 -9.942514,-13.07074 -8.364069,-9.96999 -18.711097,-18.07681 -30.024255,-24.03614 -11.313158,-5.95933 -23.59099,-9.77058 -35.933079,-11.22701 -13.3689,-1.5802 -26.85415,-0.43912 -39.38431,3.10656 -14.19497,4.00219 -27.19476,11.12555 -38.25638,20.04533 -8.4446,6.79051 -15.54678,15.05665 -21.89443,23.66772 -7.77506,10.57408 -14.25844,21.72144 -19.89612,32.898 -6.95098,13.79122 -12.60696,27.58849 -17.15823,41.07929 -4.55127,13.4908 -7.99835,26.67526 -10.55456,39.30931 -2.92913,14.49536 -4.61212,28.25884 -5.10371,41.02248 -0.26247,6.88675 -0.19449,13.48074 0.21785,19.71774 0.41233,6.23699 1.16823,12.11738 2.22712,17.60624 1.21144,6.25212 2.8124,11.99745 4.72115,17.11548 1.90874,5.11803 4.12268,9.612 6.47765,13.48549 2.54184,4.18763 5.26501,7.62808 7.82667,10.41212 2.56165,2.78405 4.96383,4.91805 6.97405,6.55855 2.01022,1.6405 3.62985,2.79292 4.71087,3.59078 1.08102,0.79785 1.62378,1.24494 1.55137,1.38183 z"
           id="path8265"
           inkscape:path-effect="#path-effect8267"
           inkscape:original-d="m -211.53375,547.85731 c -75.13123,-39.74268 -25.43918,-220.6034 36.976,-271.4357 50.26171,-40.93424 115.96795,-28.37197 150.345917,12.48466 34.582361,41.09954 78.853416,142.425 55.365162,218.69632 C 7.6650748,583.87391 -136.40252,587.6 -211.53375,547.85731 z"
           inkscape:connector-curvature="0"
           sodipodi:nodetypes="zsssz" />
      </g>
      <path
         transform="matrix(1.1274845,0.28325681,-0.27013263,1.1822625,249.70253,493.33929)"
         d="m -268.70058,-25.292927 c 0,47.978697 -31.65825,86.873116 -70.71067,86.873116 -39.05243,0 -70.71068,-38.894419 -70.71068,-86.873116 0,-47.978697 31.65825,-86.873113 70.71068,-86.873113 39.05242,0 70.71067,38.894416 70.71067,86.873113 z"
         sodipodi:ry="86.873116"
         sodipodi:rx="70.710678"
         sodipodi:cy="-25.292927"
         sodipodi:cx="-339.41125"
         id="path8332"
         style="fill:#93aca7;fill-opacity:1;stroke:none"
         sodipodi:type="arc" />
    </g>
  </g>
</svg>
