<?xml version="1.0" encoding="UTF-8" standalone="no"?>
<!-- Created with Inkscape (http://www.inkscape.org/) -->

<svg
   xmlns:dc="http://purl.org/dc/elements/1.1/"
   xmlns:cc="http://creativecommons.org/ns#"
   xmlns:rdf="http://www.w3.org/1999/02/22-rdf-syntax-ns#"
   xmlns:svg="http://www.w3.org/2000/svg"
   xmlns="http://www.w3.org/2000/svg"
   xmlns:sodipodi="http://sodipodi.sourceforge.net/DTD/sodipodi-0.dtd"
   xmlns:inkscape="http://www.inkscape.org/namespaces/inkscape"
   width="244.0188"
   height="262.66174"
   id="svg10006"
   version="1.1"
   inkscape:version="0.48.3.1 r9886"
   sodipodi:docname="papa_01.svg">
  <defs
     id="defs10008">
    <inkscape:path-effect
       effect="skeletal"
       id="path-effect8271"
       is_visible="true"
       pattern="m 236.12243,418.00722 c 0,-2.76 2.24,-5 5,-5 2.76,0 5,2.24 5,5 0,2.76 -2.24,5 -5,5 -2.76,0 -5,-2.24 -5,-5 z"
       copytype="single_stretched"
       prop_scale="1"
       scale_y_rel="false"
       spacing="0"
       normal_offset="0"
       tang_offset="0"
       prop_units="false"
       vertical_pattern="false"
       fuse_tolerance="0" />
    <inkscape:path-effect
       effect="skeletal"
       id="path-effect8263"
       is_visible="true"
       pattern="M 0,5 C 0,2.24 2.24,0 5,0 7.76,0 10,2.24 10,5 10,7.76 7.76,10 5,10 2.24,10 0,7.76 0,5 z"
       copytype="single_stretched"
       prop_scale="1"
       scale_y_rel="false"
       spacing="0"
       normal_offset="0"
       tang_offset="0"
       prop_units="false"
       vertical_pattern="false"
       fuse_tolerance="0" />
  </defs>
  <sodipodi:namedview
     id="base"
     pagecolor="#ffffff"
     bordercolor="#666666"
     borderopacity="1.0"
     inkscape:pageopacity="0.0"
     inkscape:pageshadow="2"
     inkscape:zoom="0.35"
     inkscape:cx="110.07074"
     inkscape:cy="223.93024"
     inkscape:document-units="px"
     inkscape:current-layer="layer1"
     showgrid="false"
     fit-margin-top="0"
     fit-margin-left="0"
     fit-margin-right="0"
     fit-margin-bottom="0"
     inkscape:window-width="560"
     inkscape:window-height="453"
     inkscape:window-x="3"
     inkscape:window-y="47"
     inkscape:window-maximized="0" />
  <metadata
     id="metadata10011">
    <rdf:RDF>
      <cc:Work
         rdf:about="">
        <dc:format>image/svg+xml</dc:format>
        <dc:type
           rdf:resource="http://purl.org/dc/dcmitype/StillImage" />
        <dc:title></dc:title>
      </cc:Work>
    </rdf:RDF>
  </metadata>
  <g
     inkscape:label="Capa 1"
     inkscape:groupmode="layer"
     id="layer1"
     transform="translate(-239.92926,-493.6307)">
    <g
       transform="translate(117.67795,203.8843)"
       id="g8894">
      <g
         id="g8324">
        <path
           style="fill:#c8ab37;fill-rule:evenodd;stroke:none"
           d="m 128.77866,321.97151 c 0,0 -1.42857,105 -0.71429,144.28571 0.71429,39.28572 -4.28571,53.57143 2.14286,63.57143 6.42857,10 200.71424,20.00002 221.42854,12.85715 20.7143,-7.14286 5,-215.00001 -5,-237.85715 -10,-22.85714 -216.42854,-17.14285 -217.85711,17.14286 z"
           id="path8261-1"
           inkscape:connector-curvature="0" />
        <path
           style="fill:#000000;fill-rule:evenodd;stroke:none"
           d="m -107.85714,-89.704792 c 0.88683,0.0097 1.49291,20.875805 1.81724,57.449323 0.15379,13.776928 0.2889,29.7808842 0.48753,47.732384 0.13469,12.167587 0.25096,25.215865 0.64538,39.037373 0.19173,6.844124 0.14096,13.860228 -0.0244,21.030127 -0.16532,7.1699 -0.44533,14.493576 -0.65985,21.95304 -0.0993,3.993665 -0.20439,7.858305 0.32885,11.481125 0.3993,2.57779 1.09156,5.01996 2.37997,6.89407 -1e-5,-2e-5 -2e-5,-3e-5 -3e-5,-4e-5 -0.53022,-0.55084 -0.58565,-0.74618 -0.33826,-0.47023 0,1e-5 1e-5,1e-5 1e-5,2e-5 0.3384,0.19918 0.85467,0.37959 1.50704,0.61431 1e-5,0 2e-5,0 3e-5,1e-5 2.012551,0.69429 4.255535,1.16424 6.653094,1.64541 7.53278,1.48654 15.410588,2.41906 23.535973,3.30878 10.675094,1.16348 21.647919,2.09573 32.882426,2.92712 12.326814,0.91182 24.948594,1.68661 37.83248243,2.34971 23.69304157,1.21857 48.22621657,2.15325 73.39741257,2.21964 8.965391,0.0223 17.959793,-0.0374 26.947991,-0.52754 3.070761,-0.16898 6.084821,-0.3748 9.022141,-0.74221 1e-5,0 2e-5,-1e-5 3e-5,-1e-5 1.06665,-0.13417 2.08488,-0.27993 3.0464,-0.46991 1e-5,0 2e-5,-1e-5 3e-5,-1e-5 0.72552,-0.151 1.32321,-0.27673 1.76714,-0.44071 10e-6,0 10e-6,0 2e-5,0 -0.27248,0.16547 -0.31911,0.12548 -0.14493,0.0223 0.22987,-0.2001 0.48234,-0.64506 0.82749,-1.24187 0.98261,-1.76919 1.58912,-4.03369 2.22602,-6.55431 0.44907,-1.86755 0.81699,-3.78227 1.13375,-5.7352 0.26842,-1.65489 0.49944,-3.33281 0.71194,-5.02786 0.57657,-4.63689 0.95961,-9.314323 1.25213,-14.011771 0.73055,-11.74509 0.8758,-23.453712 0.81677,-35.067739 -0.0711,-13.67897 -0.47327,-27.181214 -1.05847,-40.469857 -1.20428,-27.3155556 -3.11349,-53.660108 -5.8036,-78.731575 -1.06963,-9.956902 -2.23766,-19.669397 -3.78979,-29.076781 -0.55857,-3.378931 -1.15124,-6.676102 -1.8884,-9.865868 -0.27533,-1.189479 -0.56107,-2.336799 -0.88623,-3.432909 -0.25204,-0.83352 -0.48606,-1.57371 -0.75807,-2.19561 0,-1e-5 0,-1e-5 0,-1e-5 0.002,-0.10704 -0.21442,-0.33151 -0.52022,-0.6792 -0.41523,-0.43135 -1.02601,-0.84263 -1.74835,-1.28949 -1e-5,0 -1e-5,0 -2e-5,-10e-6 -2.03466,-1.24234 -4.498459,-2.09906 -7.129518,-2.92592 -3.580993,-1.09783 -7.283589,-1.89447 -11.026283,-2.58068 -4.694206,-0.85704 -9.392494,-1.49139 -14.060818,-2.01179 -11.874049,-1.32305 -23.426593,-1.89436 -34.527381,-2.16194 -13.747959,-0.32975 -26.771116,-0.1362 -38.9615009,0.36764 -14.0392211,0.58105 -26.9554131,1.58449 -38.6134201,2.90493 -6.39346,0.72546 -12.403149,1.53056 -17.998815,2.43834 -5.595667,0.90779 -10.777658,1.91727 -15.531068,3.0017 -4.960601,1.132 -9.431329,2.35046 -13.382546,3.66494 -4.030325,1.34426 -7.493463,2.7647 -10.346715,4.27865 -1.491941,0.79863 -2.820125,1.59767 -3.950815,2.409634 -1.1307,0.811965 -2.06595,1.635502 -2.82693,2.443282 -0.88913,0.940832 -1.52488,1.84662 -1.95916,2.645902 -0.49558,0.748157 -0.77073,1.403176 -0.94069,1.899663 -0.16997,0.496486 -0.23824,0.837632 -0.28996,0.993871 0,0 0,0 0,0 -0.053,-0.0022 -0.0531,-0.0022 -0.0531,-0.0022 0,0 -1e-4,-4e-6 -0.0531,-0.0022 0,0 0,0 0,0 -0.0384,-0.164125 -0.0791,-0.529759 -0.0712,-1.097937 0.008,-0.568178 0.0669,-1.342832 0.28511,-2.269689 0.32222,-0.976014 0.87981,-2.112207 1.7407,-3.280437 0.73191,-0.991405 1.66253,-2.018033 2.80217,-3.030396 1.13963,-1.012359 2.49041,-2.009239 3.997792,-2.964899 2.882883,-1.84109 6.420755,-3.60095 10.488246,-5.23028 3.994587,-1.60329 8.528804,-3.10867 13.533608,-4.5047 4.792921,-1.33729 10.028818,-2.5966 15.681127,-3.74645 5.652309,-1.14984 11.721348,-2.18921 18.160641,-3.13494 11.754562,-1.72854 24.798345,-3.12061 38.9702844,-4.05936 12.3069351,-0.81588 25.4828476,-1.30192 39.4257746,-1.2395 11.248232,0.0489 23.032226,0.42637 35.254986,1.58806 4.808456,0.4568 9.704696,1.04381 14.663371,1.87213 3.938229,0.65486 7.966427,1.47011 12.0185,2.64254 2.9217,0.82465 6.01929,1.91162 9.05974,3.63654 1e-5,1e-5 2e-5,2e-5 3e-5,2e-5 1.11749,0.62884 2.27997,1.43946 3.408,2.494 0.92318,0.83561 1.79279,1.97669 2.4812,3.43904 1e-5,2e-5 1e-5,4e-5 2e-5,5e-5 0.48503,1.10848 0.84969,2.16843 1.14784,3.15055 0.4102,1.3306 0.75787,2.6477 1.07121,3.93996 0.83984,3.458564 1.51026,6.935002 2.11934,10.395019 1.70147,9.6489 2.99612,19.526801 4.16502,29.550449 2.94982,25.269215 5.06339,51.8129546 6.40622,79.304145 0.65441,13.384332 1.11108,27.015275 1.2211,40.858267 0.0947,11.737788 -0.0349,23.670779 -0.77084,35.746963 -0.29419,4.832896 -0.69326,9.715277 -1.30054,14.628047 -0.21894,1.78531 -0.46736,3.58889 -0.7642,5.40514 -0.3503,2.14336 -0.76701,4.29759 -1.27996,6.45318 -0.63823,2.81195 -1.54571,5.86708 -3.1245,8.91862 -0.55342,1.09437 -1.34203,2.27943 -2.4341,3.46081 -0.85909,0.97658 -2.13437,1.86199 -3.81798,2.51406 -2e-5,1e-5 -3e-5,1e-5 -5e-5,2e-5 -1.1447,0.38382 -2.19013,0.62886 -3.11161,0.79914 -1e-5,0 -2e-5,0 -4e-5,0 -1.2857,0.2484 -2.53298,0.42926 -3.73417,0.57536 -10e-6,0 -3e-5,0 -4e-5,1e-5 -3.30015,0.40346 -6.54416,0.62494 -9.71453,0.78958 -9.305816,0.48777 -18.488943,0.53034 -27.521877,0.47692 -25.407747,-0.14635 -50.097887,-1.21008 -73.8793754,-2.6018 -12.9435356,-0.75696 -25.6330996,-1.63973 -38.0324726,-2.6726 -11.293571,-0.94043 -22.366847,-1.99786 -33.172258,-3.30056 -8.168096,-0.98094 -16.294333,-2.05451 -24.237466,-3.72248 -2.486822,-0.51442 -5.095851,-1.12037 -7.730971,-2.04599 -1e-5,0 -2e-5,0 -3e-5,-1e-5 -0.84352,-0.28666 -1.8082,-0.68139 -2.84602,-1.25334 -1e-5,-1e-5 -2e-5,-1e-5 -3e-5,-2e-5 -0.62073,-0.21048 -1.5553,-0.95844 -2.62221,-2.3441 -2e-5,-3e-5 -4e-5,-6e-5 -6e-5,-9e-5 -2.05389,-3.32503 -3.11166,-6.9142 -3.51289,-10.36039 -0.55039,-4.53156 -0.40207,-8.84011 -0.20686,-12.871555 0.33488,-7.511693 0.73966,-14.812968 1.03407,-21.904822 0.29442,-7.091853 0.47862,-13.974303 0.42457,-20.647723 -0.11012,-13.928789 0.0782,-27.014797 0.26589,-39.184597 0.27684,-17.9753179 0.65472,-33.987555 1.04534,-47.765991 1.12049,-36.563009 2.18067,-57.411398 3.0675,-57.401744 z"
           id="path8261"
           inkscape:path-effect="#path-effect8263"
           inkscape:original-d="m -107.85714,-89.7048 c 0,0 -1.42857,105 -0.71429,144.285714 0.71429,39.285714 -4.28571,53.571426 2.14286,63.571426 6.42857,10 200.714284,20 221.42857,12.85715 20.71429,-7.14286 5,-215.000005 -5,-237.85715 -10,-22.85714 -216.42857,-17.14285 -217.85714,17.14286 z"
           inkscape:connector-curvature="0"
           transform="translate(236.12243,414.01737)" />
      </g>
      <path
         transform="translate(236.12243,414.01737)"
         inkscape:connector-curvature="0"
         id="path8878"
         d="m 37.142857,-102.56194 c 0,0 -108.571428,-8.57143 -117.142857,9.999997 -8.571429,18.571428 -20,111.428571 -11.428571,122.857143 8.571428,11.428571 20,-64.285715 51.428571,-78.571429 31.4285714,-14.285714 85.714286,-24.285714 77.142857,-54.285711 z"
         style="fill:#e2d396;fill-opacity:1;fill-rule:evenodd;stroke:none" />
    </g>
  </g>
</svg>
