<?xml version="1.0" encoding="UTF-8" standalone="no"?>
<!-- Created with Inkscape (http://www.inkscape.org/) -->

<svg
   xmlns:dc="http://purl.org/dc/elements/1.1/"
   xmlns:cc="http://creativecommons.org/ns#"
   xmlns:rdf="http://www.w3.org/1999/02/22-rdf-syntax-ns#"
   xmlns:svg="http://www.w3.org/2000/svg"
   xmlns="http://www.w3.org/2000/svg"
   xmlns:sodipodi="http://sodipodi.sourceforge.net/DTD/sodipodi-0.dtd"
   xmlns:inkscape="http://www.inkscape.org/namespaces/inkscape"
   width="177.88158"
   height="90.339409"
   id="svg4392"
   version="1.1"
   inkscape:version="0.48.3.1 r9886"
   sodipodi:docname="10.svg">
  <defs
     id="defs4394">
    <inkscape:path-effect
       effect="skeletal"
       id="path-effect4593"
       is_visible="true"
       pattern="m 39.65337,-47.290044 c 0,-2.76 2.24,-5 5,-5 2.76,0 5,2.24 5,5 0,2.76 -2.24,5 -5,5 -2.76,0 -5,-2.24 -5,-5 z"
       copytype="single_stretched"
       prop_scale="5"
       scale_y_rel="false"
       spacing="0"
       normal_offset="0"
       tang_offset="0"
       prop_units="false"
       vertical_pattern="false"
       fuse_tolerance="0" />
    <inkscape:path-effect
       effect="skeletal"
       id="path-effect4597"
       is_visible="true"
       pattern="m 63.897032,-31.127607 c 0,-2.76 2.24,-5 5,-5 2.76,0 5,2.24 5,5 0,2.76 -2.24,5 -5,5 -2.76,0 -5,-2.24 -5,-5 z"
       copytype="single_stretched"
       prop_scale="5"
       scale_y_rel="false"
       spacing="0"
       normal_offset="0"
       tang_offset="0"
       prop_units="false"
       vertical_pattern="false"
       fuse_tolerance="0" />
    <inkscape:path-effect
       effect="skeletal"
       id="path-effect3205-9"
       is_visible="true"
       pattern="m 1328.331,16.398205 c 0,-2.76 2.24,-5 5,-5 2.76,0 5,2.24 5,5 0,2.76 -2.24,5 -5,5 -2.76,0 -5,-2.24 -5,-5 z"
       copytype="single_stretched"
       prop_scale="4"
       scale_y_rel="false"
       spacing="0"
       normal_offset="0"
       tang_offset="0"
       prop_units="false"
       vertical_pattern="false"
       fuse_tolerance="0" />
    <inkscape:path-effect
       effect="skeletal"
       id="path-effect3209-7"
       is_visible="true"
       pattern="m 1328.331,16.398205 c 0,-2.76 2.24,-5 5,-5 2.76,0 5,2.24 5,5 0,2.76 -2.24,5 -5,5 -2.76,0 -5,-2.24 -5,-5 z"
       copytype="single_stretched"
       prop_scale="4"
       scale_y_rel="false"
       spacing="0"
       normal_offset="0"
       tang_offset="0"
       prop_units="false"
       vertical_pattern="false"
       fuse_tolerance="0" />
    <inkscape:path-effect
       effect="skeletal"
       id="path-effect4171"
       is_visible="true"
       pattern="m 68.571429,16.428571 c 0,-2.76 2.24,-5 5,-5 2.76,0 5,2.24 5,5 0,2.76 -2.24,5 -5,5 -2.76,0 -5,-2.24 -5,-5 z"
       copytype="single_stretched"
       prop_scale="2"
       scale_y_rel="false"
       spacing="0"
       normal_offset="0"
       tang_offset="0"
       prop_units="false"
       vertical_pattern="false"
       fuse_tolerance="0" />
    <inkscape:path-effect
       effect="skeletal"
       id="path-effect4175"
       is_visible="true"
       pattern="m 55.714286,19.285714 c 0,-2.76 2.24,-5 5,-5 2.76,0 5,2.24 5,5 0,2.76 -2.24,5 -5,5 -2.76,0 -5,-2.24 -5,-5 z"
       copytype="single_stretched"
       prop_scale="2"
       scale_y_rel="false"
       spacing="0"
       normal_offset="0"
       tang_offset="0"
       prop_units="false"
       vertical_pattern="false"
       fuse_tolerance="0" />
    <inkscape:path-effect
       effect="skeletal"
       id="path-effect3205"
       is_visible="true"
       pattern="m 215.4654,-1736.665 c 0,-2.76 2.24,-5 5,-5 2.76,0 5,2.24 5,5 0,2.76 -2.24,5 -5,5 -2.76,0 -5,-2.24 -5,-5 z"
       copytype="single_stretched"
       prop_scale="4"
       scale_y_rel="false"
       spacing="0"
       normal_offset="0"
       tang_offset="0"
       prop_units="false"
       vertical_pattern="false"
       fuse_tolerance="0" />
    <inkscape:path-effect
       effect="skeletal"
       id="path-effect3209"
       is_visible="true"
       pattern="m 266.89397,-1728.0936 c 0,-2.76 2.24,-5 5,-5 2.76,0 5,2.24 5,5 0,2.76 -2.24,5 -5,5 -2.76,0 -5,-2.24 -5,-5 z"
       copytype="single_stretched"
       prop_scale="4"
       scale_y_rel="false"
       spacing="0"
       normal_offset="0"
       tang_offset="0"
       prop_units="false"
       vertical_pattern="false"
       fuse_tolerance="0" />
    <inkscape:path-effect
       effect="skeletal"
       id="path-effect3205-9-7"
       is_visible="true"
       pattern="m -2874.1605,-1709.0023 c 0,-2.76 2.24,-5 5,-5 2.76,0 5,2.24 5,5 0,2.76 -2.24,5 -5,5 -2.76,0 -5,-2.24 -5,-5 z"
       copytype="single_stretched"
       prop_scale="5"
       scale_y_rel="false"
       spacing="0"
       normal_offset="0"
       tang_offset="0"
       prop_units="false"
       vertical_pattern="false"
       fuse_tolerance="0" />
    <inkscape:path-effect
       effect="skeletal"
       id="path-effect3209-7-5"
       is_visible="true"
       pattern="m -2924.017,-1738.8587 c 0,-2.76 2.24,-5 5,-5 2.76,0 5,2.24 5,5 0,2.76 -2.24,5 -5,5 -2.76,0 -5,-2.24 -5,-5 z"
       copytype="single_stretched"
       prop_scale="5"
       scale_y_rel="false"
       spacing="0"
       normal_offset="0"
       tang_offset="0"
       prop_units="false"
       vertical_pattern="false"
       fuse_tolerance="0" />
    <inkscape:path-effect
       effect="skeletal"
       id="path-effect4424"
       is_visible="true"
       pattern="m -6353.2256,103.03917 c 0,-2.76 2.24,-5.000005 5,-5.000005 2.76,0 5,2.240005 5,5.000005 0,2.76 -2.24,5 -5,5 -2.76,0 -5,-2.24 -5,-5 z"
       copytype="single_stretched"
       prop_scale="1"
       scale_y_rel="false"
       spacing="0"
       normal_offset="0"
       tang_offset="0"
       prop_units="false"
       vertical_pattern="false"
       fuse_tolerance="0" />
    <inkscape:path-effect
       effect="skeletal"
       id="path-effect3439"
       is_visible="true"
       pattern="m 11.428572,-69.285715 c 0,-2.76 2.24,-5 5,-5 2.76,0 5,2.24 5,5 0,2.76 -2.24,5 -5,5 -2.76,0 -5,-2.24 -5,-5 z"
       copytype="single_stretched"
       prop_scale="1"
       scale_y_rel="false"
       spacing="0"
       normal_offset="0"
       tang_offset="0"
       prop_units="false"
       vertical_pattern="false"
       fuse_tolerance="0" />
  </defs>
  <sodipodi:namedview
     id="base"
     pagecolor="#ffffff"
     bordercolor="#666666"
     borderopacity="1.0"
     inkscape:pageopacity="0.0"
     inkscape:pageshadow="2"
     inkscape:zoom="0.7"
     inkscape:cx="94.804535"
     inkscape:cy="45.569094"
     inkscape:document-units="px"
     inkscape:current-layer="layer1"
     showgrid="false"
     fit-margin-top="0"
     fit-margin-left="0"
     fit-margin-right="0"
     fit-margin-bottom="0"
     inkscape:window-width="560"
     inkscape:window-height="451"
     inkscape:window-x="0"
     inkscape:window-y="25"
     inkscape:window-maximized="0" />
  <metadata
     id="metadata4397">
    <rdf:RDF>
      <cc:Work
         rdf:about="">
        <dc:format>image/svg+xml</dc:format>
        <dc:type
           rdf:resource="http://purl.org/dc/dcmitype/StillImage" />
        <dc:title></dc:title>
      </cc:Work>
    </rdf:RDF>
  </metadata>
  <g
     inkscape:label="Capa 1"
     inkscape:groupmode="layer"
     id="layer1"
     transform="translate(-623.46602,-593.94643)">
    <g
       style="display:inline"
       id="g4279"
       transform="translate(2539.7259,-2248.7958)">
      <path
         sodipodi:nodetypes="cssssc"
         inkscape:connector-curvature="0"
         inkscape:original-d="m -1905.3993,2842.7463 c 0,0 -10.1524,40.4476 -6.4606,48.0316 3.6918,7.5839 6.4606,26.5438 17.536,30.3357 11.0754,3.7921 66.8007,11.2185 97.8326,3.792 28.866,-6.9082 42.4557,-7.5839 50.7622,-24.0158 8.3067,-16.4319 2.7689,-46.7676 2.7689,-46.7676"
         inkscape:path-effect="#path-effect4424"
         id="path4422"
         d="m -1905.3993,2842.7463 c 0.9436,0.2057 0.1351,8.1514 -2.0373,21.7082 -0.6107,4.705 -1.3225,10.0571 -1.6083,15.9241 -0.096,2.0244 -0.1565,4.045 0.01,6.011 0.1872,1.3667 0.2029,2.4003 0.546,2.7497 1.3416,2.6183 2.2652,5.3102 3.1454,7.8083 1.0641,2.9688 2.1116,5.9552 3.3767,8.8182 1.2153,2.7069 2.5166,5.2985 4.2409,7.384 1.4819,1.7268 3.1415,3.2091 4.8822,3.6545 1.64,0.5386 3.519,0.9048 5.5843,1.3158 2.9891,0.5799 6.0793,1.0669 9.2572,1.5185 8.1437,1.1557 16.6678,2.0222 25.4773,2.6286 5.7421,0.3935 11.5851,0.6759 17.4988,0.7784 3.9023,0.068 7.7621,0.055 11.5717,-0.048 9.117,-0.2619 17.8332,-0.9274 25.8466,-2.7776 0,0 0,0 0,0 6.5939,-1.5115 12.9568,-2.7923 19.0095,-4.1255 0,0 0,0 0,0 4.9145,-1.093 9.5125,-2.1568 13.6562,-3.6563 0,0 0,0 0,0 3.5322,-1.2946 6.7103,-2.8554 9.2056,-4.9078 0,0 0,0 0,0 2.8111,-2.2322 4.9846,-5.2146 6.7076,-8.3115 0,0 0,0 0,0 2.2823,-4.059 3.3401,-8.6457 4.1022,-12.9563 0,0 0,0 0,0 0.9413,-5.4736 1.2015,-10.5011 1.33,-14.8184 0,0 0,0 0,0 0.1495,-5.112 0.066,-9.2195 0.074,-12.1469 0,0 0,0 0,0 0,-1.6058 0.031,-2.854 0.1105,-3.7234 0,0 0,0 0,0 0.041,-0.4515 0.097,-0.7998 0.1704,-1.0426 0,0 0,0 0,0 0,0 0,0 0,0 0.037,-0.1232 0.079,-0.219 0.1261,-0.2873 0,0 0,0 0,0 0.081,-0.045 0.1216,-0.075 0.1415,-0.094 0,0 0,0 0,0 0.02,-0.019 0.019,-0.027 0.019,-0.028 0,0 0,0 0,0 0,0 0,0 0,0 0,0 0,0 0,0 0,0 0,0 0,0 0,0 0,0 0,0 0,0 0,0 0,0 0,0 0,0 0,0 0,0 0,0 0,0 0,0 0,0 0,0 0,0 0,0 0,0 0,0 0,0 0,0 0,0 0,0 0,0 0,0 0,0 0,0 0,0 0,0 0,0 0,0 0,0 0,0 0,0 0,0 0,0 0,0 0,0 0,0 0,0 0,0 0,0 0,0 0,0 0,0 0,0 0,0 0,0 0,0 0,0 0,0 0,0 0,0 0,0 2e-4,7e-4 0,0.01 0.028,0.019 0,0 0,0 0,0 0.025,0.011 0.074,0.025 0.1653,0.039 0,0 0,0 0,0 0.068,0.049 0.1397,0.1263 0.216,0.2323 0,0 0,0 0,0 0,0 0,0 0,0 0.15,0.2075 0.3162,0.5247 0.4947,0.9477 0,0 0,0 0,0 0.3438,0.8146 0.7345,2.0254 1.1388,3.6094 0,0 0,0 0,0 0.7371,2.8872 1.5397,7.0273 2.061,12.3045 0,0 0,0 0,0 0.4423,4.4519 0.7106,9.7471 0.202,15.7792 0,0 0,0 0,0 -0.1884,2.3632 -0.5111,4.873 -1.0916,7.4789 -0.5805,2.6058 -1.4186,5.3079 -2.6782,8.0274 0,0 0,0 0,0 -1.7999,3.8721 -4.3674,7.7799 -8.0456,11.1149 0,0 0,0 0,0 -3.3217,2.9378 -7.2555,5.1797 -11.3838,6.8243 0,0 0,0 0,0 -4.7195,1.9013 -9.6868,3.2639 -14.6429,4.5046 0,0 0,0 0,0 -6.1298,1.5469 -12.463,2.9861 -18.8732,4.5867 0,0 0,0 0,0 -8.9309,2.2048 -18.3426,3.0824 -27.7943,3.37 -3.9759,0.1277 -7.9923,0.1522 -12.0388,0.083 -6.1324,-0.105 -12.1595,-0.4214 -18.0498,-0.8778 -9.0327,-0.6971 -17.8056,-1.7259 -26.198,-3.104 -3.2719,-0.5367 -6.5174,-1.1327 -9.7111,-1.8422 -2.1018,-0.4581 -4.3465,-0.9896 -6.6373,-1.7968 -3.919,-1.4923 -6.8692,-4.0613 -8.9043,-6.8918 -2.3196,-3.1544 -3.8634,-6.4459 -5.0463,-9.5614 -1.2836,-3.3248 -2.2434,-6.5324 -3.1416,-9.5492 -0.8091,-2.6548 -1.4395,-5.0275 -2.3346,-7.004 -0.9462,-2.2993 -1.0883,-4.2607 -1.0186,-5.7285 -0.022,-2.4809 0.1993,-4.7779 0.4728,-6.908 0.7925,-6.2529 2.025,-11.6945 3.1755,-16.3718 3.681,-13.3004 6.2535,-20.8675 7.1971,-20.6619 z"
         style="fill:#000000;fill-rule:evenodd;stroke:none" />
      <path
         inkscape:connector-curvature="0"
         inkscape:original-d="m -1846.8689,2871.7872 c 0,0 -14.3005,16.088 1.7875,33.9634 16.0879,17.8756 14.3004,17.8756 14.3004,17.8756"
         inkscape:path-effect="#path-effect3439"
         id="path3437"
         d="m -1846.8689,2871.7872 c 0.043,0.037 0.082,0.078 0.1179,0.1232 0,0 0,0 0,0 0.034,0.043 0.064,0.089 0.091,0.1389 0.054,0.099 0.096,0.2107 0.1269,0.3364 0,0 0,0 0,0 0,0 0,0 0,0 0.061,0.246 0.082,0.5401 0.066,0.8852 0,0 0,0 0,0 0,0 0,0 0,0 -0.031,0.6677 -0.1867,1.5104 -0.411,2.5279 0,0 0,0 0,0 -0.415,1.8981 -1.0526,4.372 -1.3124,7.2343 0,0 0,0 0,0 -0.2405,2.6835 -0.1278,5.7675 0.7593,8.7964 0.5032,1.8596 1.3379,3.7521 2.4529,5.6541 1.0374,1.7695 2.2519,3.448 3.5082,5.0166 2.8831,3.4633 5.485,6.8353 7.4265,9.8872 1.9415,3.0519 3.2237,5.7656 3.7787,7.755 0,0 0,0 0,0 0.1408,0.5076 0.301,1.1139 0.3512,1.6462 0.05,0.5324 -0,0.9896 -0.1363,1.3031 0,0 0,0 0,0 -0.085,0.1064 -0.1812,0.2872 -0.2722,0.4301 -0.091,0.1429 -0.1764,0.2498 -0.2448,0.2922 0,0 0,0 0,0 0,0 0,0 0,0 -0.086,-0.078 -0.1365,-0.1254 -0.1676,-0.1527 0,0 0,0 0,0 -0.03,-0.027 -0.043,-0.033 -0.046,-0.035 0,0 0,0 0,0 0,0 0,0 0,0 0,0 0,0 0,0 0,0 0,0 0,0 -10e-4,-4e-4 -8e-4,-4e-4 -8e-4,-4e-4 0,0 -2e-4,0 2e-4,-5e-4 0,0 0,0 0,0 0,0 0,0 0,0 0,0 0,0 0,0 0,0 0,0 0,0 0,-0 0.01,-0.01 -0.01,-0.048 0,0 0,0 0,0 -0.012,-0.039 -0.039,-0.1097 -0.1107,-0.2248 0,0 0,0 0,0 0,0 0,0 0,0 -0.048,-0.01 -0.1206,0.027 -0.2211,0.081 -0.1006,0.054 -0.2306,0.1267 -0.3535,0.1166 0,0 0,0 0,0 -0.2628,-0.082 -0.5426,-0.1829 -0.888,-0.3228 -0.3453,-0.1399 -0.763,-0.3146 -1.2651,-0.7205 0,0 0,0 0,0 -1.623,-1.1047 -3.7308,-2.8929 -6.2856,-5.1664 -2.5548,-2.2734 -5.5742,-5.036 -8.782,-8.3404 -1.811,-1.8394 -3.5256,-4.0204 -4.9503,-6.5196 -1.5314,-2.6863 -2.625,-5.5757 -3.2172,-8.4869 -0.4595,-2.4189 -0.5324,-4.7695 -0.3235,-6.9428 0.209,-2.1733 0.6986,-4.1692 1.3507,-5.9245 0,0 0,0 0,0 1.3675,-3.6636 3.3265,-6.2205 4.992,-7.7406 0,0 0,0 0,0 0.8907,-0.8144 1.7181,-1.3503 2.3924,-1.6152 0,0 0,0 0,0 0,0 0,0 0,0 0.3485,-0.1369 0.6604,-0.2056 0.9233,-0.204 0,0 0,0 0,0 0,0 0,0 0,0 0.1328,0 0.2541,0.02 0.3623,0.056 0.055,0.018 0.1058,0.04 0.1538,0.067 0,0 0,0 0,0 0.05,0.028 0.097,0.06 0.1405,0.097 0,0 0,0 0,0 z"
         style="fill:#000000;fill-rule:evenodd;stroke:none" />
    </g>
  </g>
</svg>
