<?xml version="1.0" encoding="UTF-8" standalone="no"?>
<!-- Created with Inkscape (http://www.inkscape.org/) -->

<svg
   xmlns:dc="http://purl.org/dc/elements/1.1/"
   xmlns:cc="http://creativecommons.org/ns#"
   xmlns:rdf="http://www.w3.org/1999/02/22-rdf-syntax-ns#"
   xmlns:svg="http://www.w3.org/2000/svg"
   xmlns="http://www.w3.org/2000/svg"
   xmlns:sodipodi="http://sodipodi.sourceforge.net/DTD/sodipodi-0.dtd"
   xmlns:inkscape="http://www.inkscape.org/namespaces/inkscape"
   width="100.73124"
   height="87.621262"
   id="svg4392"
   version="1.1"
   inkscape:version="0.48.3.1 r9886"
   sodipodi:docname="01.svg">
  <defs
     id="defs4394">
    <inkscape:path-effect
       effect="skeletal"
       id="path-effect4593"
       is_visible="true"
       pattern="m 39.65337,-47.290044 c 0,-2.76 2.24,-5 5,-5 2.76,0 5,2.24 5,5 0,2.76 -2.24,5 -5,5 -2.76,0 -5,-2.24 -5,-5 z"
       copytype="single_stretched"
       prop_scale="5"
       scale_y_rel="false"
       spacing="0"
       normal_offset="0"
       tang_offset="0"
       prop_units="false"
       vertical_pattern="false"
       fuse_tolerance="0" />
    <inkscape:path-effect
       effect="skeletal"
       id="path-effect4597"
       is_visible="true"
       pattern="m 63.897032,-31.127607 c 0,-2.76 2.24,-5 5,-5 2.76,0 5,2.24 5,5 0,2.76 -2.24,5 -5,5 -2.76,0 -5,-2.24 -5,-5 z"
       copytype="single_stretched"
       prop_scale="5"
       scale_y_rel="false"
       spacing="0"
       normal_offset="0"
       tang_offset="0"
       prop_units="false"
       vertical_pattern="false"
       fuse_tolerance="0" />
    <inkscape:path-effect
       effect="skeletal"
       id="path-effect3205-9"
       is_visible="true"
       pattern="m 1328.331,16.398205 c 0,-2.76 2.24,-5 5,-5 2.76,0 5,2.24 5,5 0,2.76 -2.24,5 -5,5 -2.76,0 -5,-2.24 -5,-5 z"
       copytype="single_stretched"
       prop_scale="4"
       scale_y_rel="false"
       spacing="0"
       normal_offset="0"
       tang_offset="0"
       prop_units="false"
       vertical_pattern="false"
       fuse_tolerance="0" />
    <inkscape:path-effect
       effect="skeletal"
       id="path-effect3209-7"
       is_visible="true"
       pattern="m 1328.331,16.398205 c 0,-2.76 2.24,-5 5,-5 2.76,0 5,2.24 5,5 0,2.76 -2.24,5 -5,5 -2.76,0 -5,-2.24 -5,-5 z"
       copytype="single_stretched"
       prop_scale="4"
       scale_y_rel="false"
       spacing="0"
       normal_offset="0"
       tang_offset="0"
       prop_units="false"
       vertical_pattern="false"
       fuse_tolerance="0" />
    <inkscape:path-effect
       effect="skeletal"
       id="path-effect4171"
       is_visible="true"
       pattern="m 68.571429,16.428571 c 0,-2.76 2.24,-5 5,-5 2.76,0 5,2.24 5,5 0,2.76 -2.24,5 -5,5 -2.76,0 -5,-2.24 -5,-5 z"
       copytype="single_stretched"
       prop_scale="2"
       scale_y_rel="false"
       spacing="0"
       normal_offset="0"
       tang_offset="0"
       prop_units="false"
       vertical_pattern="false"
       fuse_tolerance="0" />
    <inkscape:path-effect
       effect="skeletal"
       id="path-effect4175"
       is_visible="true"
       pattern="m 55.714286,19.285714 c 0,-2.76 2.24,-5 5,-5 2.76,0 5,2.24 5,5 0,2.76 -2.24,5 -5,5 -2.76,0 -5,-2.24 -5,-5 z"
       copytype="single_stretched"
       prop_scale="2"
       scale_y_rel="false"
       spacing="0"
       normal_offset="0"
       tang_offset="0"
       prop_units="false"
       vertical_pattern="false"
       fuse_tolerance="0" />
    <inkscape:path-effect
       effect="skeletal"
       id="path-effect3205"
       is_visible="true"
       pattern="m 215.4654,-1736.665 c 0,-2.76 2.24,-5 5,-5 2.76,0 5,2.24 5,5 0,2.76 -2.24,5 -5,5 -2.76,0 -5,-2.24 -5,-5 z"
       copytype="single_stretched"
       prop_scale="4"
       scale_y_rel="false"
       spacing="0"
       normal_offset="0"
       tang_offset="0"
       prop_units="false"
       vertical_pattern="false"
       fuse_tolerance="0" />
    <inkscape:path-effect
       effect="skeletal"
       id="path-effect3209"
       is_visible="true"
       pattern="m 266.89397,-1728.0936 c 0,-2.76 2.24,-5 5,-5 2.76,0 5,2.24 5,5 0,2.76 -2.24,5 -5,5 -2.76,0 -5,-2.24 -5,-5 z"
       copytype="single_stretched"
       prop_scale="4"
       scale_y_rel="false"
       spacing="0"
       normal_offset="0"
       tang_offset="0"
       prop_units="false"
       vertical_pattern="false"
       fuse_tolerance="0" />
    <inkscape:path-effect
       effect="skeletal"
       id="path-effect3205-9-7"
       is_visible="true"
       pattern="m -2874.1605,-1709.0023 c 0,-2.76 2.24,-5 5,-5 2.76,0 5,2.24 5,5 0,2.76 -2.24,5 -5,5 -2.76,0 -5,-2.24 -5,-5 z"
       copytype="single_stretched"
       prop_scale="5"
       scale_y_rel="false"
       spacing="0"
       normal_offset="0"
       tang_offset="0"
       prop_units="false"
       vertical_pattern="false"
       fuse_tolerance="0" />
    <inkscape:path-effect
       effect="skeletal"
       id="path-effect3209-7-5"
       is_visible="true"
       pattern="m -2924.017,-1738.8587 c 0,-2.76 2.24,-5 5,-5 2.76,0 5,2.24 5,5 0,2.76 -2.24,5 -5,5 -2.76,0 -5,-2.24 -5,-5 z"
       copytype="single_stretched"
       prop_scale="5"
       scale_y_rel="false"
       spacing="0"
       normal_offset="0"
       tang_offset="0"
       prop_units="false"
       vertical_pattern="false"
       fuse_tolerance="0" />
    <inkscape:path-effect
       effect="skeletal"
       id="path-effect4424"
       is_visible="true"
       pattern="m -6353.2256,103.03917 c 0,-2.76 2.24,-5.000005 5,-5.000005 2.76,0 5,2.240005 5,5.000005 0,2.76 -2.24,5 -5,5 -2.76,0 -5,-2.24 -5,-5 z"
       copytype="single_stretched"
       prop_scale="1"
       scale_y_rel="false"
       spacing="0"
       normal_offset="0"
       tang_offset="0"
       prop_units="false"
       vertical_pattern="false"
       fuse_tolerance="0" />
    <inkscape:path-effect
       effect="skeletal"
       id="path-effect3439"
       is_visible="true"
       pattern="m 11.428572,-69.285715 c 0,-2.76 2.24,-5 5,-5 2.76,0 5,2.24 5,5 0,2.76 -2.24,5 -5,5 -2.76,0 -5,-2.24 -5,-5 z"
       copytype="single_stretched"
       prop_scale="1"
       scale_y_rel="false"
       spacing="0"
       normal_offset="0"
       tang_offset="0"
       prop_units="false"
       vertical_pattern="false"
       fuse_tolerance="0" />
    <inkscape:path-effect
       effect="skeletal"
       id="path-effect3158"
       is_visible="true"
       pattern="m 1094.7336,-2107.4088 c 0,-2.76 2.24,-5 5,-5 2.76,0 5,2.24 5,5 0,2.76 -2.24,5 -5,5 -2.76,0 -5,-2.24 -5,-5 z"
       copytype="single_stretched"
       prop_scale="1"
       scale_y_rel="false"
       spacing="0"
       normal_offset="0"
       tang_offset="0"
       prop_units="false"
       vertical_pattern="false"
       fuse_tolerance="0" />
  </defs>
  <sodipodi:namedview
     id="base"
     pagecolor="#ffffff"
     bordercolor="#666666"
     borderopacity="1.0"
     inkscape:pageopacity="0.0"
     inkscape:pageshadow="2"
     inkscape:zoom="0.7"
     inkscape:cx="-51.979506"
     inkscape:cy="110.8083"
     inkscape:document-units="px"
     inkscape:current-layer="layer1"
     showgrid="false"
     fit-margin-top="0"
     fit-margin-left="0"
     fit-margin-right="0"
     fit-margin-bottom="0"
     inkscape:window-width="560"
     inkscape:window-height="451"
     inkscape:window-x="0"
     inkscape:window-y="25"
     inkscape:window-maximized="0" />
  <metadata
     id="metadata4397">
    <rdf:RDF>
      <cc:Work
         rdf:about="">
        <dc:format>image/svg+xml</dc:format>
        <dc:type
           rdf:resource="http://purl.org/dc/dcmitype/StillImage" />
        <dc:title></dc:title>
      </cc:Work>
    </rdf:RDF>
  </metadata>
  <g
     inkscape:label="Capa 1"
     inkscape:groupmode="layer"
     id="layer1"
     transform="translate(-770.25006,-661.90378)">
    <path
       style="fill:#000000;fill-rule:evenodd;stroke:none;display:inline"
       d="m 773.46184,661.94527 c 0.16573,-0.0947 0.42453,-0.0297 0.75798,0.21956 0.33345,0.24921 0.7403,0.68429 1.16247,1.32722 0.42217,0.64293 0.85754,1.49579 1.23412,2.54953 0.37658,1.05374 0.69179,2.31047 0.89534,3.69867 0.24256,1.52992 0.40376,3.25202 0.48669,5.1229 0.0829,1.87088 0.0859,3.89037 0.0838,6.00067 0.008,4.33071 0.0263,9.27987 0.26353,14.68363 0.23722,5.40375 0.69307,11.26118 1.70224,17.38332 0.86622,5.07137 2.7951,10.25692 6.22353,14.30893 2.62445,3.21169 6.25366,5.87059 10.38606,7.87563 0.24401,0.11839 0.48911,0.23421 0.73516,0.34748 4.36594,2.00845 9.00278,3.22406 13.63813,3.86837 4.63535,0.64431 9.26747,0.71816 13.6791,0.4217 10e-6,0 10e-6,0 10e-6,0 2.40029,-0.13017 4.77896,-0.69062 7.1106,-1.45746 2.33164,-0.76684 4.61606,-1.73987 6.82657,-2.74803 0,0 0,0 0,0 5.64389,-2.6311 10.54605,-5.67253 14.76486,-8.3908 0,0 0,0 0,0 4.96607,-3.20468 8.9267,-6.00049 11.83885,-7.91774 0,0 0,0 0,0 1.58388,-1.0429 2.85177,-1.82779 3.79061,-2.30416 0,0 0,0 0,0 0.48513,-0.24617 0.8813,-0.40907 1.18696,-0.48305 0,0 0,0 0,0 0,0 0,0 0,0 0.15468,-0.0371 0.28608,-0.0514 0.39397,-0.0421 0,0 0,0 0,0 0,0 0,0 0,0 0.11295,0.0636 0.17698,0.0899 0.21271,0.1002 0.0354,0.0101 0.0431,0.004 0.0436,0.004 0,0 0,0 0,0 0,0 0,0 0,0 3e-5,-2e-5 2e-5,-10e-6 2e-5,-10e-6 0,0 1e-5,-1e-5 -10e-6,2e-5 0,0 0,0 0,0 0,0 0,0 0,0 -4.8e-4,5.5e-4 -0.006,0.008 0.003,0.0437 0.01,0.0358 0.0355,0.10013 0.0976,0.21367 0,0 0,0 0,0 0,0 0,0 0,0 0.007,0.10854 -0.0115,0.24113 -0.0551,0.39677 0,0 0,0 0,0 0,0 0,0 0,0 -0.0851,0.30589 -0.26764,0.70122 -0.54486,1.17804 0,0 0,0 0,0 -0.53654,0.9228 -1.43125,2.15515 -2.67302,3.63919 0,0 0,0 0,0 -2.28241,2.72815 -5.73897,6.33532 -10.41225,10.35317 0,0 0,0 0,0 -3.95767,3.40818 -8.81429,7.1667 -14.82101,10.58202 0,0 0,0 0,0 -2.30404,1.3348 -4.8434,2.6324 -7.64635,3.71634 -2.80295,1.08394 -5.86972,1.95401 -9.22065,2.38045 0,0 0,0 0,0 -4.99755,0.61405 -10.35035,0.71628 -15.83049,0.0578 -5.48013,-0.65845 -11.08629,-2.07934 -16.50811,-4.50307 -0.31578,-0.14115 -0.63061,-0.28649 -0.94432,-0.43607 -5.31292,-2.5331 -10.06694,-6.17964 -13.70282,-10.70774 -4.63106,-5.91212 -6.97487,-12.776 -7.68368,-19.25485 -0.73991,-6.70451 -0.80457,-12.96489 -0.55717,-18.63304 0.2474,-5.66815 0.80612,-10.74542 1.44016,-15.12664 0.30301,-2.13179 0.6189,-4.0553 0.86966,-5.79695 0.25075,-1.74166 0.43807,-3.30168 0.5562,-4.69469 0.0918,-1.23685 0.1447,-2.3323 0.14758,-3.27787 0.003,-0.94557 -0.0415,-1.74312 -0.0892,-2.40184 -0.0954,-1.31742 -0.17399,-2.10746 0.15748,-2.29687 z"
       id="path3156"
       inkscape:path-effect="#path-effect3158"
       inkscape:original-d="m 773.46184,661.94527 c 5.05594,8.8479 -1.76119,23.7989 2.03077,51.6067 3.79196,27.8077 32.55357,32.4889 49.6657,30.833 19.59188,-1.8961 45.72053,-27.8713 45.72053,-27.8713"
       inkscape:connector-curvature="0"
       sodipodi:nodetypes="cssc" />
  </g>
</svg>
