<?xml version="1.0" encoding="UTF-8" standalone="no"?>
<!-- Created with Inkscape (http://www.inkscape.org/) -->

<svg
   xmlns:dc="http://purl.org/dc/elements/1.1/"
   xmlns:cc="http://creativecommons.org/ns#"
   xmlns:rdf="http://www.w3.org/1999/02/22-rdf-syntax-ns#"
   xmlns:svg="http://www.w3.org/2000/svg"
   xmlns="http://www.w3.org/2000/svg"
   xmlns:sodipodi="http://sodipodi.sourceforge.net/DTD/sodipodi-0.dtd"
   xmlns:inkscape="http://www.inkscape.org/namespaces/inkscape"
   width="177.10519"
   height="81.377655"
   id="svg4392"
   version="1.1"
   inkscape:version="0.48.3.1 r9886"
   sodipodi:docname="02.svg">
  <defs
     id="defs4394">
    <inkscape:path-effect
       effect="skeletal"
       id="path-effect4593"
       is_visible="true"
       pattern="m 39.65337,-47.290044 c 0,-2.76 2.24,-5 5,-5 2.76,0 5,2.24 5,5 0,2.76 -2.24,5 -5,5 -2.76,0 -5,-2.24 -5,-5 z"
       copytype="single_stretched"
       prop_scale="5"
       scale_y_rel="false"
       spacing="0"
       normal_offset="0"
       tang_offset="0"
       prop_units="false"
       vertical_pattern="false"
       fuse_tolerance="0" />
    <inkscape:path-effect
       effect="skeletal"
       id="path-effect4597"
       is_visible="true"
       pattern="m 63.897032,-31.127607 c 0,-2.76 2.24,-5 5,-5 2.76,0 5,2.24 5,5 0,2.76 -2.24,5 -5,5 -2.76,0 -5,-2.24 -5,-5 z"
       copytype="single_stretched"
       prop_scale="5"
       scale_y_rel="false"
       spacing="0"
       normal_offset="0"
       tang_offset="0"
       prop_units="false"
       vertical_pattern="false"
       fuse_tolerance="0" />
    <inkscape:path-effect
       effect="skeletal"
       id="path-effect3205-9"
       is_visible="true"
       pattern="m 1328.331,16.398205 c 0,-2.76 2.24,-5 5,-5 2.76,0 5,2.24 5,5 0,2.76 -2.24,5 -5,5 -2.76,0 -5,-2.24 -5,-5 z"
       copytype="single_stretched"
       prop_scale="4"
       scale_y_rel="false"
       spacing="0"
       normal_offset="0"
       tang_offset="0"
       prop_units="false"
       vertical_pattern="false"
       fuse_tolerance="0" />
    <inkscape:path-effect
       effect="skeletal"
       id="path-effect3209-7"
       is_visible="true"
       pattern="m 1328.331,16.398205 c 0,-2.76 2.24,-5 5,-5 2.76,0 5,2.24 5,5 0,2.76 -2.24,5 -5,5 -2.76,0 -5,-2.24 -5,-5 z"
       copytype="single_stretched"
       prop_scale="4"
       scale_y_rel="false"
       spacing="0"
       normal_offset="0"
       tang_offset="0"
       prop_units="false"
       vertical_pattern="false"
       fuse_tolerance="0" />
    <inkscape:path-effect
       effect="skeletal"
       id="path-effect4171"
       is_visible="true"
       pattern="m 68.571429,16.428571 c 0,-2.76 2.24,-5 5,-5 2.76,0 5,2.24 5,5 0,2.76 -2.24,5 -5,5 -2.76,0 -5,-2.24 -5,-5 z"
       copytype="single_stretched"
       prop_scale="2"
       scale_y_rel="false"
       spacing="0"
       normal_offset="0"
       tang_offset="0"
       prop_units="false"
       vertical_pattern="false"
       fuse_tolerance="0" />
    <inkscape:path-effect
       effect="skeletal"
       id="path-effect4175"
       is_visible="true"
       pattern="m 55.714286,19.285714 c 0,-2.76 2.24,-5 5,-5 2.76,0 5,2.24 5,5 0,2.76 -2.24,5 -5,5 -2.76,0 -5,-2.24 -5,-5 z"
       copytype="single_stretched"
       prop_scale="2"
       scale_y_rel="false"
       spacing="0"
       normal_offset="0"
       tang_offset="0"
       prop_units="false"
       vertical_pattern="false"
       fuse_tolerance="0" />
    <inkscape:path-effect
       effect="skeletal"
       id="path-effect3205"
       is_visible="true"
       pattern="m 215.4654,-1736.665 c 0,-2.76 2.24,-5 5,-5 2.76,0 5,2.24 5,5 0,2.76 -2.24,5 -5,5 -2.76,0 -5,-2.24 -5,-5 z"
       copytype="single_stretched"
       prop_scale="4"
       scale_y_rel="false"
       spacing="0"
       normal_offset="0"
       tang_offset="0"
       prop_units="false"
       vertical_pattern="false"
       fuse_tolerance="0" />
    <inkscape:path-effect
       effect="skeletal"
       id="path-effect3209"
       is_visible="true"
       pattern="m 266.89397,-1728.0936 c 0,-2.76 2.24,-5 5,-5 2.76,0 5,2.24 5,5 0,2.76 -2.24,5 -5,5 -2.76,0 -5,-2.24 -5,-5 z"
       copytype="single_stretched"
       prop_scale="4"
       scale_y_rel="false"
       spacing="0"
       normal_offset="0"
       tang_offset="0"
       prop_units="false"
       vertical_pattern="false"
       fuse_tolerance="0" />
    <inkscape:path-effect
       effect="skeletal"
       id="path-effect3205-9-7"
       is_visible="true"
       pattern="m -2874.1605,-1709.0023 c 0,-2.76 2.24,-5 5,-5 2.76,0 5,2.24 5,5 0,2.76 -2.24,5 -5,5 -2.76,0 -5,-2.24 -5,-5 z"
       copytype="single_stretched"
       prop_scale="5"
       scale_y_rel="false"
       spacing="0"
       normal_offset="0"
       tang_offset="0"
       prop_units="false"
       vertical_pattern="false"
       fuse_tolerance="0" />
    <inkscape:path-effect
       effect="skeletal"
       id="path-effect3209-7-5"
       is_visible="true"
       pattern="m -2924.017,-1738.8587 c 0,-2.76 2.24,-5 5,-5 2.76,0 5,2.24 5,5 0,2.76 -2.24,5 -5,5 -2.76,0 -5,-2.24 -5,-5 z"
       copytype="single_stretched"
       prop_scale="5"
       scale_y_rel="false"
       spacing="0"
       normal_offset="0"
       tang_offset="0"
       prop_units="false"
       vertical_pattern="false"
       fuse_tolerance="0" />
    <inkscape:path-effect
       effect="skeletal"
       id="path-effect4424"
       is_visible="true"
       pattern="m -6353.2256,103.03917 c 0,-2.76 2.24,-5.000005 5,-5.000005 2.76,0 5,2.240005 5,5.000005 0,2.76 -2.24,5 -5,5 -2.76,0 -5,-2.24 -5,-5 z"
       copytype="single_stretched"
       prop_scale="1"
       scale_y_rel="false"
       spacing="0"
       normal_offset="0"
       tang_offset="0"
       prop_units="false"
       vertical_pattern="false"
       fuse_tolerance="0" />
    <inkscape:path-effect
       effect="skeletal"
       id="path-effect3439"
       is_visible="true"
       pattern="m 11.428572,-69.285715 c 0,-2.76 2.24,-5 5,-5 2.76,0 5,2.24 5,5 0,2.76 -2.24,5 -5,5 -2.76,0 -5,-2.24 -5,-5 z"
       copytype="single_stretched"
       prop_scale="1"
       scale_y_rel="false"
       spacing="0"
       normal_offset="0"
       tang_offset="0"
       prop_units="false"
       vertical_pattern="false"
       fuse_tolerance="0" />
    <inkscape:path-effect
       effect="skeletal"
       id="path-effect3158"
       is_visible="true"
       pattern="m 1094.7336,-2107.4088 c 0,-2.76 2.24,-5 5,-5 2.76,0 5,2.24 5,5 0,2.76 -2.24,5 -5,5 -2.76,0 -5,-2.24 -5,-5 z"
       copytype="single_stretched"
       prop_scale="1"
       scale_y_rel="false"
       spacing="0"
       normal_offset="0"
       tang_offset="0"
       prop_units="false"
       vertical_pattern="false"
       fuse_tolerance="0" />
    <inkscape:path-effect
       effect="skeletal"
       id="path-effect4543"
       is_visible="true"
       pattern="m -1444.8374,-2298.918 c 0,-2.76 2.24,-5 5,-5 2.76,0 5,2.24 5,5 0,2.76 -2.24,5 -5,5 -2.76,0 -5,-2.24 -5,-5 z"
       copytype="single_stretched"
       prop_scale="1"
       scale_y_rel="false"
       spacing="0"
       normal_offset="0"
       tang_offset="0"
       prop_units="false"
       vertical_pattern="false"
       fuse_tolerance="0" />
  </defs>
  <sodipodi:namedview
     id="base"
     pagecolor="#ffffff"
     bordercolor="#666666"
     borderopacity="1.0"
     inkscape:pageopacity="0.0"
     inkscape:pageshadow="2"
     inkscape:zoom="0.7"
     inkscape:cx="-31.998342"
     inkscape:cy="78.639984"
     inkscape:document-units="px"
     inkscape:current-layer="layer1"
     showgrid="false"
     fit-margin-top="0"
     fit-margin-left="0"
     fit-margin-right="0"
     fit-margin-bottom="0"
     inkscape:window-width="560"
     inkscape:window-height="451"
     inkscape:window-x="0"
     inkscape:window-y="25"
     inkscape:window-maximized="0" />
  <metadata
     id="metadata4397">
    <rdf:RDF>
      <cc:Work
         rdf:about="">
        <dc:format>image/svg+xml</dc:format>
        <dc:type
           rdf:resource="http://purl.org/dc/dcmitype/StillImage" />
        <dc:title></dc:title>
      </cc:Work>
    </rdf:RDF>
  </metadata>
  <g
     inkscape:label="Capa 1"
     inkscape:groupmode="layer"
     id="layer1"
     transform="translate(-750.2689,-635.97907)">
    <path
       style="fill:#000000;fill-rule:evenodd;stroke:none;display:inline"
       d="m 750.46149,678.95469 c 0.0307,-0.0149 0.0647,-0.0225 0.10185,-0.0232 0.0359,-7e-4 0.0748,0.005 0.11685,0.017 0,0 0,0 0,0 0.0837,0.0238 0.17975,0.0719 0.28931,0.14375 0,0 0,0 0,0 0,0 0,0 0,0 0.21681,0.14132 0.48452,0.37115 0.81318,0.68464 0,0 0,0 0,0 0.64987,0.61987 1.52964,1.54766 2.70406,2.71223 0,0 0,0 0,0 1.16885,1.15943 2.61779,2.53971 4.40436,4.0375 1.78656,1.49779 3.91416,3.11188 6.39157,4.75556 0,0 0,0 0,0 2.76098,1.84147 5.93193,3.69503 9.53412,5.42894 3.6022,1.73391 7.63682,3.34711 12.0842,4.75002 4.44738,1.40292 9.30821,2.59503 14.50795,3.54075 5.19974,0.94572 10.73853,1.64505 16.4808,2.12029 11.64574,0.89258 24.29807,0.53285 37.16231,-1.62972 11.44769,-1.92443 22.2164,-5.14109 31.88737,-9.25905 4.2997,-1.84304 8.37169,-3.82433 12.11126,-5.98504 3.73957,-2.16071 7.1467,-4.501 10.16931,-7.02359 0,0 0,0 0,0 2.57368,-2.15326 4.82213,-4.35384 6.55761,-6.68848 0,0 0,0 0,0 1.46108,-2.01474 2.60188,-3.96628 3.05307,-5.8721 0,0 0,0 0,0 2.39839,-9.78933 3.40974,-18.12921 4.12772,-24.13077 0,0 0,0 0,0 0.39058,-3.27029 0.6768,-5.84712 0.96031,-7.63812 0,0 0,0 0,0 0.14671,-0.92688 0.2924,-1.64046 0.4483,-2.13084 0,0 0,0 0,0 0.0792,-0.24901 0.16102,-0.43962 0.24685,-0.57102 0,0 0,0 0,0 0,0 0,0 0,0 0.0433,-0.0659 0.0876,-0.11677 0.13303,-0.15251 0,0 0,0 0,0 0,0 0,0 0,0 0.13945,-0.0426 0.14491,-0.0603 0.14508,-0.0617 0,0 0,0 0,0 0,0 0,0 0,0 0,0 0,0 0,0 10e-6,-7e-5 10e-6,-5e-5 10e-6,-5e-5 0,0 0,-2e-5 2e-5,5e-5 0,0 0,0 0,0 0,0 0,0 0,0 0,0 0,0 0,0 3.9e-4,0.001 0.008,0.018 0.15252,0.0397 0,0 0,0 0,0 0,0 0,0 0,0 0.0501,0.0293 0.10115,0.0746 0.15288,0.13579 0,0 0,0 0,0 0,0 0,0 0,0 0.1026,0.12071 0.20797,0.30353 0.31451,0.54609 0,0 0,0 0,0 0.2098,0.47767 0.42448,1.19035 0.63089,2.12318 0,0 0,0 0,0 0.39888,1.80267 0.77004,4.43947 0.99773,7.81207 0,0 0,0 0,0 0.41905,6.1881 0.42013,14.92162 -1.24325,25.44153 0,0 0,0 0,0 -0.57288,3.21446 -1.91858,6.25275 -3.68164,8.90574 0,0 0,0 0,0 -2.03296,3.12109 -4.57933,5.99361 -7.40551,8.59296 0,0 0,0 0,0 -3.29564,3.03834 -7.00252,5.86024 -11.04022,8.43036 -4.0377,2.57011 -8.406,4.88828 -12.97278,6.96127 -10.27851,4.69307 -21.81755,8.31941 -34.08354,10.38917 -13.7838,2.32588 -27.33254,2.49887 -39.69758,1.15791 -6.04063,-0.62085 -11.90056,-1.57984 -17.40872,-2.8649 -5.50817,-1.28505 -10.66432,-2.89571 -15.36026,-4.75868 -4.69595,-1.86296 -8.93202,-3.97729 -12.66239,-6.21926 -3.73037,-2.24197 -6.95594,-4.61022 -9.68396,-6.94813 0,0 0,0 0,0 -2.44575,-2.10485 -4.4756,-4.20016 -6.09465,-6.14878 -1.61905,-1.94863 -2.8307,-3.74923 -3.70135,-5.28045 0,0 0,0 0,0 -0.87387,-1.53768 -1.40463,-2.82067 -1.65546,-3.73494 0,0 0,0 0,0 -0.12682,-0.46231 -0.18446,-0.83587 -0.18008,-1.10537 0,0 0,0 0,0 0,0 0,0 0,0 0.003,-0.13502 0.0202,-0.24499 0.0521,-0.32816 0,0 0,0 0,0 0.016,-0.0418 0.0355,-0.0768 0.0585,-0.10512 0.0238,-0.0293 0.0511,-0.0514 0.0818,-0.0664 z"
       id="path4541"
       inkscape:path-effect="#path-effect4543"
       inkscape:original-d="m 750.46148,678.95467 c 0,0 12.6399,27.8078 66.99139,32.8638 54.3516,5.0559 101.1191,-21.4878 104.9111,-40.4477 3.7919,-18.9599 2.528,-35.3917 2.528,-35.3917"
       inkscape:connector-curvature="0" />
  </g>
</svg>
