<?xml version="1.0" encoding="UTF-8" standalone="no"?>
<!-- Created with Inkscape (http://www.inkscape.org/) -->

<svg
   xmlns:dc="http://purl.org/dc/elements/1.1/"
   xmlns:cc="http://creativecommons.org/ns#"
   xmlns:rdf="http://www.w3.org/1999/02/22-rdf-syntax-ns#"
   xmlns:svg="http://www.w3.org/2000/svg"
   xmlns="http://www.w3.org/2000/svg"
   xmlns:sodipodi="http://sodipodi.sourceforge.net/DTD/sodipodi-0.dtd"
   xmlns:inkscape="http://www.inkscape.org/namespaces/inkscape"
   width="186.24072"
   height="96.55127"
   id="svg4392"
   version="1.1"
   inkscape:version="0.48.3.1 r9886"
   sodipodi:docname="04.svg">
  <defs
     id="defs4394">
    <inkscape:path-effect
       effect="skeletal"
       id="path-effect4593"
       is_visible="true"
       pattern="m 39.65337,-47.290044 c 0,-2.76 2.24,-5 5,-5 2.76,0 5,2.24 5,5 0,2.76 -2.24,5 -5,5 -2.76,0 -5,-2.24 -5,-5 z"
       copytype="single_stretched"
       prop_scale="5"
       scale_y_rel="false"
       spacing="0"
       normal_offset="0"
       tang_offset="0"
       prop_units="false"
       vertical_pattern="false"
       fuse_tolerance="0" />
    <inkscape:path-effect
       effect="skeletal"
       id="path-effect4597"
       is_visible="true"
       pattern="m 63.897032,-31.127607 c 0,-2.76 2.24,-5 5,-5 2.76,0 5,2.24 5,5 0,2.76 -2.24,5 -5,5 -2.76,0 -5,-2.24 -5,-5 z"
       copytype="single_stretched"
       prop_scale="5"
       scale_y_rel="false"
       spacing="0"
       normal_offset="0"
       tang_offset="0"
       prop_units="false"
       vertical_pattern="false"
       fuse_tolerance="0" />
    <inkscape:path-effect
       effect="skeletal"
       id="path-effect3205-9"
       is_visible="true"
       pattern="m 1328.331,16.398205 c 0,-2.76 2.24,-5 5,-5 2.76,0 5,2.24 5,5 0,2.76 -2.24,5 -5,5 -2.76,0 -5,-2.24 -5,-5 z"
       copytype="single_stretched"
       prop_scale="4"
       scale_y_rel="false"
       spacing="0"
       normal_offset="0"
       tang_offset="0"
       prop_units="false"
       vertical_pattern="false"
       fuse_tolerance="0" />
    <inkscape:path-effect
       effect="skeletal"
       id="path-effect3209-7"
       is_visible="true"
       pattern="m 1328.331,16.398205 c 0,-2.76 2.24,-5 5,-5 2.76,0 5,2.24 5,5 0,2.76 -2.24,5 -5,5 -2.76,0 -5,-2.24 -5,-5 z"
       copytype="single_stretched"
       prop_scale="4"
       scale_y_rel="false"
       spacing="0"
       normal_offset="0"
       tang_offset="0"
       prop_units="false"
       vertical_pattern="false"
       fuse_tolerance="0" />
    <inkscape:path-effect
       effect="skeletal"
       id="path-effect4171"
       is_visible="true"
       pattern="m 68.571429,16.428571 c 0,-2.76 2.24,-5 5,-5 2.76,0 5,2.24 5,5 0,2.76 -2.24,5 -5,5 -2.76,0 -5,-2.24 -5,-5 z"
       copytype="single_stretched"
       prop_scale="2"
       scale_y_rel="false"
       spacing="0"
       normal_offset="0"
       tang_offset="0"
       prop_units="false"
       vertical_pattern="false"
       fuse_tolerance="0" />
    <inkscape:path-effect
       effect="skeletal"
       id="path-effect4175"
       is_visible="true"
       pattern="m 55.714286,19.285714 c 0,-2.76 2.24,-5 5,-5 2.76,0 5,2.24 5,5 0,2.76 -2.24,5 -5,5 -2.76,0 -5,-2.24 -5,-5 z"
       copytype="single_stretched"
       prop_scale="2"
       scale_y_rel="false"
       spacing="0"
       normal_offset="0"
       tang_offset="0"
       prop_units="false"
       vertical_pattern="false"
       fuse_tolerance="0" />
    <inkscape:path-effect
       effect="skeletal"
       id="path-effect3205"
       is_visible="true"
       pattern="m 215.4654,-1736.665 c 0,-2.76 2.24,-5 5,-5 2.76,0 5,2.24 5,5 0,2.76 -2.24,5 -5,5 -2.76,0 -5,-2.24 -5,-5 z"
       copytype="single_stretched"
       prop_scale="4"
       scale_y_rel="false"
       spacing="0"
       normal_offset="0"
       tang_offset="0"
       prop_units="false"
       vertical_pattern="false"
       fuse_tolerance="0" />
    <inkscape:path-effect
       effect="skeletal"
       id="path-effect3209"
       is_visible="true"
       pattern="m 266.89397,-1728.0936 c 0,-2.76 2.24,-5 5,-5 2.76,0 5,2.24 5,5 0,2.76 -2.24,5 -5,5 -2.76,0 -5,-2.24 -5,-5 z"
       copytype="single_stretched"
       prop_scale="4"
       scale_y_rel="false"
       spacing="0"
       normal_offset="0"
       tang_offset="0"
       prop_units="false"
       vertical_pattern="false"
       fuse_tolerance="0" />
    <inkscape:path-effect
       effect="skeletal"
       id="path-effect3205-9-7"
       is_visible="true"
       pattern="m -2874.1605,-1709.0023 c 0,-2.76 2.24,-5 5,-5 2.76,0 5,2.24 5,5 0,2.76 -2.24,5 -5,5 -2.76,0 -5,-2.24 -5,-5 z"
       copytype="single_stretched"
       prop_scale="5"
       scale_y_rel="false"
       spacing="0"
       normal_offset="0"
       tang_offset="0"
       prop_units="false"
       vertical_pattern="false"
       fuse_tolerance="0" />
    <inkscape:path-effect
       effect="skeletal"
       id="path-effect3209-7-5"
       is_visible="true"
       pattern="m -2924.017,-1738.8587 c 0,-2.76 2.24,-5 5,-5 2.76,0 5,2.24 5,5 0,2.76 -2.24,5 -5,5 -2.76,0 -5,-2.24 -5,-5 z"
       copytype="single_stretched"
       prop_scale="5"
       scale_y_rel="false"
       spacing="0"
       normal_offset="0"
       tang_offset="0"
       prop_units="false"
       vertical_pattern="false"
       fuse_tolerance="0" />
    <inkscape:path-effect
       effect="skeletal"
       id="path-effect4424"
       is_visible="true"
       pattern="m -6353.2256,103.03917 c 0,-2.76 2.24,-5.000005 5,-5.000005 2.76,0 5,2.240005 5,5.000005 0,2.76 -2.24,5 -5,5 -2.76,0 -5,-2.24 -5,-5 z"
       copytype="single_stretched"
       prop_scale="1"
       scale_y_rel="false"
       spacing="0"
       normal_offset="0"
       tang_offset="0"
       prop_units="false"
       vertical_pattern="false"
       fuse_tolerance="0" />
    <inkscape:path-effect
       effect="skeletal"
       id="path-effect3439"
       is_visible="true"
       pattern="m 11.428572,-69.285715 c 0,-2.76 2.24,-5 5,-5 2.76,0 5,2.24 5,5 0,2.76 -2.24,5 -5,5 -2.76,0 -5,-2.24 -5,-5 z"
       copytype="single_stretched"
       prop_scale="1"
       scale_y_rel="false"
       spacing="0"
       normal_offset="0"
       tang_offset="0"
       prop_units="false"
       vertical_pattern="false"
       fuse_tolerance="0" />
    <inkscape:path-effect
       effect="skeletal"
       id="path-effect3158"
       is_visible="true"
       pattern="m 1094.7336,-2107.4088 c 0,-2.76 2.24,-5 5,-5 2.76,0 5,2.24 5,5 0,2.76 -2.24,5 -5,5 -2.76,0 -5,-2.24 -5,-5 z"
       copytype="single_stretched"
       prop_scale="1"
       scale_y_rel="false"
       spacing="0"
       normal_offset="0"
       tang_offset="0"
       prop_units="false"
       vertical_pattern="false"
       fuse_tolerance="0" />
    <inkscape:path-effect
       effect="skeletal"
       id="path-effect4543"
       is_visible="true"
       pattern="m -1444.8374,-2298.918 c 0,-2.76 2.24,-5 5,-5 2.76,0 5,2.24 5,5 0,2.76 -2.24,5 -5,5 -2.76,0 -5,-2.24 -5,-5 z"
       copytype="single_stretched"
       prop_scale="1"
       scale_y_rel="false"
       spacing="0"
       normal_offset="0"
       tang_offset="0"
       prop_units="false"
       vertical_pattern="false"
       fuse_tolerance="0" />
    <inkscape:path-effect
       effect="skeletal"
       id="path-effect5619-6"
       is_visible="true"
       pattern="m -12759.145,-1694.3797 c 0,-2.76 2.24,-5 5,-5 2.76,0 5,2.24 5,5 0,2.76 -2.24,5 -5,5 -2.76,0 -5,-2.24 -5,-5 z"
       copytype="single_stretched"
       prop_scale="1"
       scale_y_rel="false"
       spacing="0"
       normal_offset="0"
       tang_offset="0"
       prop_units="false"
       vertical_pattern="false"
       fuse_tolerance="0" />
    <inkscape:path-effect
       effect="skeletal"
       id="path-effect5619"
       is_visible="true"
       pattern="m -14251.919,1635.6733 c 0,-2.76 2.24,-5 5,-5 2.76,0 5,2.24 5,5 0,2.76 -2.24,5 -5,5 -2.76,0 -5,-2.24 -5,-5 z"
       copytype="single_stretched"
       prop_scale="1"
       scale_y_rel="false"
       spacing="0"
       normal_offset="0"
       tang_offset="0"
       prop_units="false"
       vertical_pattern="false"
       fuse_tolerance="0" />
    <inkscape:path-effect
       effect="skeletal"
       id="path-effect6240"
       is_visible="true"
       pattern="m -13565.932,1805.7676 c 0,-2.76 2.24,-5 5,-5 2.76,0 5,2.24 5,5 0,2.76 -2.24,5 -5,5 -2.76,0 -5,-2.24 -5,-5 z"
       copytype="single_stretched"
       prop_scale="1"
       scale_y_rel="false"
       spacing="0"
       normal_offset="0"
       tang_offset="0"
       prop_units="false"
       vertical_pattern="false"
       fuse_tolerance="0" />
    <inkscape:path-effect
       effect="skeletal"
       id="path-effect6240-3"
       is_visible="true"
       pattern="m -13773.956,1809.0935 c 0,-2.76 2.24,-5 5,-5 2.76,0 5,2.24 5,5 0,2.76 -2.24,5 -5,5 -2.76,0 -5,-2.24 -5,-5 z"
       copytype="single_stretched"
       prop_scale="1"
       scale_y_rel="false"
       spacing="0"
       normal_offset="0"
       tang_offset="0"
       prop_units="false"
       vertical_pattern="false"
       fuse_tolerance="0" />
  </defs>
  <sodipodi:namedview
     id="base"
     pagecolor="#ffffff"
     bordercolor="#666666"
     borderopacity="1.0"
     inkscape:pageopacity="0.0"
     inkscape:pageshadow="2"
     inkscape:zoom="0.7"
     inkscape:cx="-8.8567533"
     inkscape:cy="109.35806"
     inkscape:document-units="px"
     inkscape:current-layer="layer1"
     showgrid="false"
     fit-margin-top="0"
     fit-margin-left="0"
     fit-margin-right="0"
     fit-margin-bottom="0"
     inkscape:window-width="560"
     inkscape:window-height="451"
     inkscape:window-x="0"
     inkscape:window-y="25"
     inkscape:window-maximized="0" />
  <metadata
     id="metadata4397">
    <rdf:RDF>
      <cc:Work
         rdf:about="">
        <dc:format>image/svg+xml</dc:format>
        <dc:type
           rdf:resource="http://purl.org/dc/dcmitype/StillImage" />
        <dc:title></dc:title>
      </cc:Work>
    </rdf:RDF>
  </metadata>
  <g
     inkscape:label="Capa 1"
     inkscape:groupmode="layer"
     id="layer1"
     transform="translate(-775.36369,-651.52353)">
    <g
       style="display:inline"
       id="g4283"
       transform="translate(951.0291,-3323.496)">
      <path
         sodipodi:nodetypes="ccsc"
         inkscape:connector-curvature="0"
         inkscape:original-d="m -118.07871,4000.9228 c 0,0 -9.03678,17.2536 -4.99137,30.6948 4.0454,13.4412 9.35147,30.5476 35.585299,34.555 29.329503,4.4803 53.603184,-23.8955 42.47801,-41.817"
         inkscape:path-effect="#path-effect5619"
         id="path5617"
         d="m -118.07873,4000.9228 c 0.03,0.015 0.0574,0.035 0.0825,0.06 0.0237,0.023 0.0452,0.05 0.0646,0.081 0.0386,0.062 0.0689,0.1393 0.0915,0.2324 0,0 0,0 0,0 0,0 0,0 0,0 0.0446,0.1827 0.0597,0.4243 0.0477,0.7249 0,0 0,0 0,0 -0.023,0.5809 -0.14409,1.3763 -0.33623,2.3807 0,0 0,0 0,0 -0.35368,1.8503 -0.95317,4.3942 -1.5096,7.5613 0,0 0,0 0,0 0,0 0,0 0,0 0,0 0,0 0,0 -0.47985,2.7499 -0.94533,5.9553 -0.95569,9.4658 0,0 0,0 0,0 0.006,2.9568 0.27206,6.1225 1.36766,9.0314 0,0 0,0 0,0 0,0 0,0 0,0 0,0 0,0 0,0 1.16581,3.2079 2.37271,6.5803 3.83789,9.8532 1.46518,3.2729 3.18882,6.4449 5.52687,9.1613 0,0 0,0 0,0 2.33398,2.8172 5.31252,5.302 8.73705,7.1733 2.61337,1.4514 5.539647,2.5569 8.672291,3.3895 1.879524,0.4995 3.79693,0.8925 5.719933,1.2081 6.305831,1.0082 12.661026,0.2936 18.190968,-1.5942 5.785028,-1.9783 10.747509,-5.165 14.541034,-8.7687 2.098236,-2.0233 3.873598,-4.1441 5.257155,-6.253 1.383558,-2.109 2.377093,-4.2068 3.030304,-6.2106 0.652781,-1.9718 0.960823,-3.8796 1.062543,-5.5647 0.10172,-1.6851 -8.4e-4,-3.1528 -0.145908,-4.3611 -0.145069,-1.2084 -0.329796,-2.1626 -0.405891,-2.8575 -0.0761,-0.695 -0.0401,-1.1346 0.19524,-1.2807 0.235342,-0.1461 0.663406,0.01 1.232653,0.5112 0.569246,0.5027 1.278205,1.3576 1.966274,2.6188 0.68807,1.2611 1.352992,2.9339 1.753401,5.0037 0.400409,2.0698 0.533579,4.5418 0.115066,7.2515 -0.408232,2.6346 -1.25014,5.464 -2.609605,8.3149 -1.359465,2.851 -3.238685,5.7231 -5.601348,8.3906 -2.108389,2.4098 -4.605028,4.7072 -7.473027,6.7548 -2.867999,2.0475 -6.107486,3.8447 -9.654855,5.2451 -6.842914,2.703 -14.841753,3.848 -22.959134,2.6529 -2.24574,-0.3213 -4.526658,-0.7746 -6.809005,-1.3916 -3.804039,-1.0284 -7.490389,-2.4833 -10.916209,-4.4101 -4.53711,-2.5824 -8.39447,-6.0137 -11.37214,-9.907 0,0 0,0 0,0 -2.85382,-3.843 -4.80883,-7.8305 -6.28466,-11.6757 -1.47582,-3.8451 -2.474,-7.5482 -3.29455,-10.9402 0,0 0,0 0,0 0,0 0,0 0,0 0,0 0,0 0,0 -1.09327,-4.3639 -1.00191,-8.4062 -0.48728,-11.8837 0,0 0,0 0,0 0.59326,-4.1197 1.70539,-7.5645 2.84756,-10.364 0,0 0,0 0,0 0,0 0,0 0,0 0,0 0,0 0,0 1.31236,-3.2267 2.68756,-5.6384 3.81516,-7.2434 0,0 0,0 0,0 0.61204,-0.8715 1.15777,-1.5094 1.60402,-1.9061 0,0 0,0 0,0 0.23089,-0.2052 0.43605,-0.3473 0.61111,-0.4241 0,0 0,0 0,0 0,0 0,0 0,0 0.0888,-0.039 0.17004,-0.061 0.2432,-0.067 0.0369,-0 0.0717,-0 0.10442,0 0.0346,0.01 0.067,0.017 0.097,0.032 z"
         style="fill:#000000;fill-rule:evenodd;stroke:none" />
      <path
         inkscape:connector-curvature="0"
         inkscape:original-d="m -45.131273,4027.8497 c 0,0 38.876181,-17.5157 46.7661654,-34.7558 7.8905983,-17.24 8.3735966,-17.9923 8.3735966,-17.9923"
         inkscape:path-effect="#path-effect6240"
         id="path6238"
         d="m -45.131255,4027.8497 c -0.953348,-1.7841 6.584271,-7.7879 18.177574,-14.8718 3.974152,-2.7692 8.317075,-5.7962 12.575235,-9.2128 0.729318,-0.5852 1.443589,-1.1722 2.141737,-1.761 2.179517,-1.8976 4.2163597,-3.6811 5.9131151,-5.4411 1.6967554,-1.7599 3.0527458,-3.4988 4.0141253,-5.2743 3.65308,-6.6576 6.9616637,-11.7683 9.3252813,-14.3587 1.3543438,-1.4781 2.3586422,-2.1215 2.9522511,-1.8496 0.044297,0.023 0.040425,0.021 0.040425,0.021 0,0 -0.0036,-0 0.03961,0.023 0.55322,0.3553 0.649987,1.585 0.388533,3.4419 -0.4924743,3.46 -2.2116636,9.2286 -4.8573786,16.3331 -1.1113122,2.7535 -2.7065612,5.4306 -4.66011749,7.9061 -1.95355631,2.4755 -4.26315441,4.7478 -6.67309071,6.7765 -0.7871317,0.6818 -1.5943189,1.3524 -2.4195267,2.0106 -4.8180185,3.8429 -9.7485315,6.8763 -14.2615915,9.2881 -12.507814,5.7946 -21.742834,8.7534 -22.696182,6.9693 z"
         style="fill:#000000;fill-rule:evenodd;stroke:none" />
      <path
         inkscape:connector-curvature="0"
         inkscape:original-d="m -119.95125,4029.9305 c 0,0 -38.87619,-17.5157 -46.76617,-34.7558 -7.8906,-17.2401 -8.3736,-17.9922 -8.3736,-17.9922"
         inkscape:path-effect="#path-effect6240-3"
         id="path6238-7"
         d="m -119.95127,4029.9305 c -0.95333,1.7841 -10.18832,-1.1747 -22.69617,-6.9693 -4.51328,-2.412 -9.44406,-5.4455 -14.26232,-9.2887 -0.82496,-0.658 -1.63191,-1.3284 -2.41882,-2.01 -2.40993,-2.0287 -4.71952,-4.3009 -6.67309,-6.7764 -1.95357,-2.4755 -3.54885,-5.1526 -4.6602,-7.9061 0,0 0,0 0,0 -2.64994,-7.1129 -4.37058,-12.8841 -4.862,-16.3415 0,0 0,0 0,0 -0.16837,-1.1754 -0.18659,-2.0669 -0.0543,-2.6661 0,0 0,0 0,0 0.0547,-0.213 0.12922,-0.3865 0.22116,-0.5266 0,0 0,0 0,0 0,0 0,0 0,0 0.14956,-0.1201 0.20985,-0.1834 0.2391,-0.2197 0.0236,-0.029 0.0268,-0.039 0.0268,-0.043 0,0 0,0 0,0 -1e-5,-0 1.4e-4,-0 1.4e-4,-0 0,0 -1.6e-4,-3e-4 9.6e-4,3e-4 0,0 0,0 0,0 0.003,0 0.0132,0 0.0499,-0 0.0455,-0.01 0.12907,-0.027 0.30856,-0.09 0,0 0,0 0,0 0,0 0,0 0,0 0.16819,0.01 0.36219,0.068 0.57628,0.1781 0,0 0,0 0,0 0.56131,0.2693 1.26185,0.8742 2.06169,1.7498 0,0 0,0 0,0 2.3652,2.594 5.67223,7.7019 9.32064,14.3502 0,0 0,0 0,0 0.96136,1.7755 2.31735,3.5145 4.01409,5.2744 1.69674,1.76 3.73357,3.5435 5.91307,5.4411 0.69794,0.5887 1.412,1.1754 2.1411,1.7605 4.25836,3.4168 8.60151,6.444 12.57585,9.2133 11.59332,7.084 19.13093,13.0877 18.17759,14.8718 z"
         style="fill:#000000;fill-rule:evenodd;stroke:none" />
    </g>
  </g>
</svg>
